<?xml version="1.0" encoding="utf-8"?>
<!-- Generator: Adobe Illustrator 16.0.0, SVG Export Plug-In . SVG Version: 6.00 Build 0)  -->
<!DOCTYPE svg PUBLIC "-//W3C//DTD SVG 1.1//EN" "http://www.w3.org/Graphics/SVG/1.1/DTD/svg11.dtd">
<svg version="1.1" id="Layer_1" xmlns="http://www.w3.org/2000/svg" xmlns:xlink="http://www.w3.org/1999/xlink" x="0px" y="0px"
	 width="841.89px" height="595.28px" viewBox="0 0 841.89 595.28" enable-background="new 0 0 841.89 595.28" xml:space="preserve">
<path fill="#689FBB" d="M501.743,418.603c111.77-41.4,27.931-113.598,27.931-113.598c57.64-38.771,36.107-160.432,36.107-160.432
	c6.579-1.488,12.942-6.204,15.551-9.256c4.376-5.12,7.019-11.767,7.019-19.03c0-16.187-13.122-29.308-29.309-29.308
	c-16.186,0-29.308,13.121-29.308,29.308c0,3.9,0.82,7.608,2.204,11.013c-113.137-25.4-208.275,0-208.275,0
	c1.383-3.404,2.352-7.029,2.352-10.93c0-16.186-13.122-29.308-29.309-29.308c-16.186,0-29.309,13.122-29.309,29.308
	c0,7.264,2.644,13.91,7.02,19.031c4.031,4.717,9.535,8.141,15.799,9.557c0,0-22.184,121.662,35.456,160.434
	c0,0-83.396,82.029,31.883,112.314C357.555,417.706,469.847,430.417,501.743,418.603z"/>
<circle fill="#FFFFFF" cx="368.855" cy="222.723" r="26.705"/>
<circle fill="#FFFFFF" cx="480.676" cy="222.723" r="26.705"/>
<circle cx="380.303" cy="216.821" r="11.447"/>
<circle cx="492.124" cy="216.821" r="11.447"/>
<circle fill="#FFFFFF" cx="386.865" cy="211.398" r="1.628"/>
<circle fill="#FFFFFF" cx="497.265" cy="210.421" r="1.628"/>
<g>
	<g>
		<path fill="#5388A0" d="M460.674,193.253c8.019-14.869,35.753-16.101,45.214-1.863c1.387,2.088,4.773,0.133,3.374-1.973
			c-11.022-16.586-42.422-15.827-51.962,1.863C456.104,193.498,459.478,195.472,460.674,193.253L460.674,193.253z"/>
	</g>
</g>
<g>
	<g>
		<path fill="#5388A0" d="M345.792,191.429c8.019-14.87,35.753-16.102,45.214-1.863c1.387,2.088,4.773,0.133,3.374-1.973
			c-11.022-16.588-42.422-15.828-51.962,1.863C341.221,191.674,344.595,193.647,345.792,191.429L345.792,191.429z"/>
	</g>
</g>
<g>
	<g>
		<path fill="#5388A0" d="M407.251,362.268c1.562-1.961,7.688-6.982,0.467-1.467c2.463-1.882,5.247-3.323,8.045-4.63
			c-8.083,3.775,1.295-0.159,3.604-0.783c1.55-0.42,3.126-0.732,4.7-1.046c2.842-0.475,2.154-0.415-2.062,0.179
			c1.13-0.138,2.264-0.252,3.399-0.341c3.506-0.313,7.033-0.29,10.545-0.149c1.702,0.067,3.396,0.247,5.088,0.428
			c-8.317-0.887-0.881,0.043,0.976,0.461c1.491,0.336,2.954,0.779,4.415,1.226c0.931,0.297,1.854,0.618,2.768,0.965
			c-4.073-1.791-4.88-2.122-2.42-0.995c1.2,0.558,2.344,1.223,3.484,1.892c5.709,3.351-3.53-3.194-0.458-0.488
			c10.748,9.472,26.589,10.612,37.201,0c9.656-9.656,10.763-27.716,0-37.201c-16.376-14.432-38.347-19.873-59.868-18.865
			c-19.862,0.931-44.088,7.296-57.085,23.615c-4.548,5.711-7.705,11.001-7.705,18.601c0,6.949,2.793,13.689,7.705,18.601
			C379.328,371.546,398.304,373.502,407.251,362.268L407.251,362.268z"/>
	</g>
</g>
<path fill="#FFFFFF" d="M391.207,310.89c0,0,8.104,11.074,14.166,8.033c2.755-1.381,3.664-5.428,5.699-15.199
	c0,0-12.158,2.607-19.865,6.297l-0.489,0.164L391.207,310.89z"/>
<g>
	<g>
		<path fill="#689FBB" d="M542.696,270.479c7.825,4.031,14.592,10.479,20.044,17.277c5.234,6.526,8.776,14.312,10.734,22.404
			c2.508,10.367-0.228,20.454,0.844,30.826c1.456,14.104,11.836,20.349,25.197,18.411c7.64-1.108,15.433-4.494,22.031-8.461
			c5.032-3.024,0.451-10.91-4.603-7.873c-6.05,3.636-12.883,6.391-19.853,7.541c-15.736,2.596-13.812-13.913-13.184-24.633
			c1.488-25.425-13.907-51.672-36.609-63.366C542.081,259.917,537.467,267.785,542.696,270.479L542.696,270.479z"/>
	</g>
</g>
<circle fill="#689FBB" cx="626.887" cy="343.667" r="12.243"/>
<circle fill="#689FBB" cx="240.649" cy="391.729" r="12.243"/>
<g>
	<g>
		<path fill="#689FBB" d="M307.936,255.916c-18.41,3.381-36.547,14.618-48.926,28.339c-12.247,13.573-18.853,30.623-21.146,48.6
			c-1.879,14.729-0.717,30.347-0.756,45.181c-0.006,2.298-0.012,4.596-0.018,6.894c-0.016,5.881,9.103,5.879,9.118,0
			c0.078-29.828-3.619-61.876,14.146-87.779c11.185-16.309,30.395-28.492,49.798-32.4c0.069-0.014,0.138-0.027,0.207-0.04
			C316.138,263.647,313.683,254.86,307.936,255.916L307.936,255.916z"/>
	</g>
</g>
<circle fill="#689FBB" cx="357.131" cy="416.349" r="12.375"/>
<circle fill="#689FBB" cx="483.282" cy="422.429" r="12.375"/>
<g>
	<g>
		<path fill="#689FBB" d="M353.194,420.128c-2.516,5.689-4.688,11.545-6.508,17.492c-2.305,7.529-5.025,17.158-1.331,24.652
			c1.348,2.732,4.32,3.446,5.464,6.309c1.626,4.066,1.979,8.624,2.229,12.949c0.384,6.608,0.176,13.332-0.477,19.92
			c-0.581,5.852,8.544,5.795,9.118,0c0.587-5.923,0.734-11.912,0.565-17.857c-0.224-7.896-0.785-17.614-6.363-23.773
			c-2.098-2.316-3.042-1.607-3.159-5.172c-0.139-4.272,1.053-8.584,2.179-12.662c1.574-5.701,4.196-12.824,6.155-17.256
			C363.423,419.403,355.567,414.759,353.194,420.128L353.194,420.128z"/>
	</g>
</g>
<g>
	<g>
		<path fill="#689FBB" d="M478.885,421.217c-1.312,6.277-2.067,12.73-2.398,19.129c-0.441,8.517-0.224,19.347,6.192,25.817
			c1.364,1.375,3.033,2.171,4.796,2.884c1.131,0.457,2.479,0.231,3.088,1.258c1.539,2.593-0.912,8.106-1.785,10.547
			c-2.292,6.406-5.748,12.587-9.434,18.298c-3.199,4.956,4.697,9.522,7.874,4.602c6.134-9.503,20.768-32.723,7.625-41.78
			c-3.087-2.128-5.938-1.041-7.548-5.03c-1.738-4.306-1.819-9.179-1.779-13.75c0.057-6.531,0.825-13.154,2.162-19.55
			C488.877,417.903,480.088,415.462,478.885,421.217L478.885,421.217z"/>
	</g>
</g>
<ellipse fill="#689FBB" cx="342.19" cy="504.38" rx="17.197" ry="2.932"/>
<ellipse fill="#689FBB" cx="497.308" cy="503.729" rx="17.197" ry="2.932"/>
</svg>
