<?xml version="1.0" encoding="utf-8"?>
<!-- Generator: Adobe Illustrator 16.0.0, SVG Export Plug-In . SVG Version: 6.00 Build 0)  -->
<!DOCTYPE svg PUBLIC "-//W3C//DTD SVG 1.1//EN" "http://www.w3.org/Graphics/SVG/1.1/DTD/svg11.dtd">
<svg version="1.1" id="Layer_1" xmlns="http://www.w3.org/2000/svg" xmlns:xlink="http://www.w3.org/1999/xlink" x="0px" y="0px"
	 width="841.89px" height="595.28px" viewBox="0 0 841.89 595.28" enable-background="new 0 0 841.89 595.28" xml:space="preserve">
<path fill="#689FBB" d="M501.743,418.603c111.77-41.4,27.931-113.598,27.931-113.598c57.64-38.771,36.107-160.432,36.107-160.432
	c6.579-1.488,12.942-6.204,15.551-9.256c4.376-5.12,7.019-11.767,7.019-19.03c0-16.187-13.122-29.308-29.309-29.308
	c-16.186,0-29.308,13.121-29.308,29.308c0,3.9,0.82,7.608,2.204,11.013c-113.137-25.4-208.275,0-208.275,0
	c1.383-3.404,2.352-7.029,2.352-10.93c0-16.186-13.122-29.308-29.309-29.308c-16.186,0-29.309,13.122-29.309,29.308
	c0,7.264,2.644,13.91,7.02,19.031c4.031,4.717,9.535,8.141,15.799,9.557c0,0-22.184,121.662,35.456,160.434
	c0,0-83.396,82.029,31.883,112.314C357.555,417.706,469.847,430.417,501.743,418.603z"/>
<path fill="none" stroke="#556337" stroke-width="0.6513" stroke-miterlimit="10" d="M588.351,477.63"/>
<circle fill="#FFFFFF" cx="368.855" cy="222.723" r="26.705"/>
<circle fill="#FFFFFF" cx="480.676" cy="222.723" r="26.705"/>
<circle cx="380.303" cy="216.821" r="11.447"/>
<circle cx="492.124" cy="216.821" r="11.447"/>
<circle fill="#FFFFFF" cx="386.865" cy="211.398" r="1.628"/>
<circle fill="#FFFFFF" cx="497.265" cy="210.421" r="1.628"/>
<g>
	<g>
		<path fill="#5388A0" d="M460.674,193.253c8.019-14.869,35.753-16.101,45.214-1.863c1.387,2.088,4.773,0.133,3.374-1.973
			c-11.022-16.586-42.422-15.827-51.962,1.863C456.104,193.498,459.478,195.472,460.674,193.253L460.674,193.253z"/>
	</g>
</g>
<g>
	<g>
		<path fill="#5388A0" d="M345.792,191.429c8.019-14.87,35.753-16.102,45.214-1.863c1.387,2.088,4.773,0.133,3.374-1.973
			c-11.022-16.588-42.422-15.828-51.962,1.863C341.221,191.674,344.595,193.647,345.792,191.429L345.792,191.429z"/>
	</g>
</g>
<g>
	<g>
		<path fill="#5388A0" d="M407.251,362.268c1.562-1.961,7.688-6.982,0.467-1.467c2.464-1.882,5.247-3.323,8.045-4.63
			c-8.083,3.775,1.295-0.159,3.604-0.783c1.55-0.42,3.127-0.732,4.7-1.046c2.842-0.475,2.154-0.415-2.063,0.179
			c1.131-0.138,2.264-0.252,3.399-0.341c3.506-0.313,7.033-0.29,10.545-0.149c1.702,0.067,3.396,0.247,5.088,0.428
			c-8.318-0.887-0.881,0.043,0.975,0.461c1.491,0.336,2.954,0.779,4.415,1.226c0.932,0.297,1.854,0.618,2.769,0.965
			c-4.073-1.791-4.88-2.122-2.42-0.995c1.2,0.558,2.344,1.223,3.484,1.892c5.709,3.351-3.53-3.194-0.458-0.488
			c10.748,9.472,26.589,10.612,37.201,0c9.656-9.656,10.763-27.716,0-37.201c-16.376-14.432-38.346-19.873-59.868-18.865
			c-19.862,0.931-44.088,7.296-57.085,23.615c-4.548,5.711-7.705,11.001-7.705,18.601c0,6.949,2.793,13.689,7.705,18.601
			C379.328,371.546,398.304,373.502,407.251,362.268L407.251,362.268z"/>
	</g>
</g>
<path fill="#FFFFFF" d="M391.207,310.89c0,0,8.104,11.074,14.166,8.033c2.755-1.381,3.664-5.428,5.699-15.199
	c0,0-12.158,2.607-19.865,6.297l-0.489,0.164L391.207,310.89z"/>
<g>
	<g>
		<path fill="#689FBB" d="M542.696,267.221c7.825,4.031,14.592,10.479,20.044,17.277c5.234,6.526,8.777,14.312,10.734,22.405
			c2.508,10.367-0.228,20.453,0.843,30.826c1.457,14.104,11.837,20.348,25.197,18.41c7.64-1.107,15.433-4.494,22.031-8.46
			c5.032-3.024,0.451-10.91-4.603-7.873c-6.05,3.636-12.883,6.391-19.853,7.54c-15.736,2.596-13.812-13.912-13.184-24.631
			c1.488-25.426-13.907-51.674-36.609-63.368C542.081,256.659,537.467,264.527,542.696,267.221L542.696,267.221z"/>
	</g>
</g>
<circle fill="#689FBB" cx="631.488" cy="339.864" r="12.243"/>
<circle fill="#689FBB" cx="237.649" cy="391.729" r="12.243"/>
<g>
	<g>
		<path fill="#689FBB" d="M303.936,255.916c-18.41,3.381-36.547,14.618-48.926,28.339c-12.248,13.573-18.853,30.623-21.146,48.6
			c-1.879,14.729-0.717,30.347-0.756,45.181c-0.006,2.298-0.012,4.596-0.018,6.894c-0.016,5.881,9.103,5.879,9.118,0
			c0.078-29.828-3.619-61.876,14.146-87.779c11.185-16.309,30.395-28.492,49.798-32.4c0.069-0.014,0.138-0.027,0.207-0.04
			C312.138,263.647,309.683,254.86,303.936,255.916L303.936,255.916z"/>
	</g>
</g>
<circle fill="#689FBB" cx="357.131" cy="416.349" r="12.375"/>
<circle fill="#689FBB" cx="483.282" cy="422.429" r="12.375"/>
<g>
	<g>
		<path fill="#689FBB" d="M352.734,421.217c-1.049,5.954-1.693,12.01-2.011,18.045c-0.426,8.095-0.625,18.302,5.015,24.796
			c2.013,2.318,3.208,1.935,3.5,5.358c0.37,4.332-0.47,8.747-1.355,12.964c-1.269,6.046-3.03,12.055-5.149,17.858
			c-2.021,5.536,6.793,7.901,8.793,2.424c2.008-5.5,3.623-11.166,4.932-16.87c1.697-7.395,4.013-17.76-0.447-24.644
			c-1.568-2.419-4.02-3.032-4.985-5.852c-1.403-4.097-1.343-8.677-1.289-12.949c0.08-6.243,0.706-12.556,1.79-18.707
			C362.54,417.892,353.753,415.433,352.734,421.217L352.734,421.217z"/>
	</g>
</g>
<g>
	<g>
		<path fill="#689FBB" d="M478.885,421.217c-2.007,5.753-3.582,11.68-4.86,17.633c-1.815,8.45-3.821,18.944-0.079,27.154
			c1.552,3.405,4.44,5.914,8.124,6.727c3.799,0.838,3.535,4.372,3.278,7.696c-0.491,6.354-3.193,13.039-6.003,18.723
			c-2.597,5.252,5.268,9.873,7.874,4.602c3.019-6.105,5.47-12.699,6.717-19.399c0.788-4.235,1.135-8.956-0.551-13.023
			c-1.985-4.787-5.51-6.259-10.134-7.723c-2.056-0.651-2.083-5.878-2.138-7.479c-0.161-4.668,0.605-9.342,1.51-13.902
			c1.244-6.279,2.947-12.536,5.056-18.583C489.62,418.073,480.809,415.702,478.885,421.217L478.885,421.217z"/>
	</g>
</g>
<ellipse fill="#689FBB" cx="343.19" cy="504.38" rx="17.197" ry="2.932"/>
<ellipse fill="#689FBB" cx="496.308" cy="503.729" rx="17.197" ry="2.932"/>
</svg>
