<?xml version="1.0" encoding="utf-8"?>
<!-- Generator: Adobe Illustrator 16.0.0, SVG Export Plug-In . SVG Version: 6.00 Build 0)  -->
<!DOCTYPE svg PUBLIC "-//W3C//DTD SVG 1.1//EN" "http://www.w3.org/Graphics/SVG/1.1/DTD/svg11.dtd">
<svg version="1.1" id="Layer_1" xmlns="http://www.w3.org/2000/svg" xmlns:xlink="http://www.w3.org/1999/xlink" x="0px" y="0px"
	 width="841.89px" height="595.28px" viewBox="0 0 841.89 595.28" enable-background="new 0 0 841.89 595.28" xml:space="preserve">
<path fill="#689FBB" d="M501.743,418.602c111.77-41.399,27.931-113.598,27.931-113.598c57.64-38.77,36.107-160.432,36.107-160.432
	c6.579-1.488,12.942-6.204,15.551-9.255c4.376-5.12,7.019-11.767,7.019-19.03c0-16.187-13.122-29.308-29.309-29.308
	c-16.186,0-29.308,13.122-29.308,29.308c0,3.9,0.82,7.609,2.204,11.012c-113.137-25.4-208.275,0-208.275,0
	c1.383-3.403,2.352-7.028,2.352-10.929c0-16.187-13.122-29.308-29.309-29.308c-16.186,0-29.309,13.122-29.309,29.308
	c0,7.264,2.644,13.91,7.02,19.031c4.031,4.717,9.535,8.14,15.799,9.556c0,0-22.184,121.663,35.456,160.434
	c0,0-83.396,82.029,31.883,112.314C357.555,417.706,469.847,430.417,501.743,418.602z"/>
<circle fill="#FFFFFF" cx="368.855" cy="222.723" r="26.705"/>
<circle fill="#FFFFFF" cx="480.676" cy="222.723" r="26.705"/>
<circle cx="380.303" cy="216.821" r="11.447"/>
<circle cx="492.124" cy="216.821" r="11.447"/>
<circle fill="#FFFFFF" cx="386.865" cy="211.398" r="1.628"/>
<circle fill="#FFFFFF" cx="497.265" cy="210.421" r="1.628"/>
<g>
	<g>
		<path fill="#5388A0" d="M460.675,193.253c8.019-14.87,35.752-16.102,45.213-1.864c1.388,2.088,4.774,0.133,3.375-1.973
			c-11.023-16.587-42.422-15.828-51.963,1.864C456.104,193.499,459.478,195.472,460.675,193.253L460.675,193.253z"/>
	</g>
</g>
<g>
	<g>
		<path fill="#5388A0" d="M345.792,191.429c8.018-14.87,35.752-16.101,45.213-1.864c1.388,2.088,4.774,0.133,3.375-1.973
			c-11.023-16.587-42.423-15.828-51.963,1.864C341.222,191.674,344.596,193.647,345.792,191.429L345.792,191.429z"/>
	</g>
</g>
<g>
	<g>
		<path fill="#5388A0" d="M407.251,362.267c1.563-1.961,7.688-6.982,0.467-1.466c2.464-1.882,5.247-3.324,8.046-4.631
			c-8.083,3.776,1.295-0.159,3.604-0.783c1.55-0.419,3.126-0.732,4.699-1.045c2.842-0.475,2.155-0.416-2.062,0.178
			c1.13-0.138,2.264-0.251,3.399-0.34c3.505-0.313,7.032-0.29,10.545-0.15c1.701,0.068,3.396,0.247,5.088,0.428
			c-8.317-0.887-0.881,0.044,0.976,0.462c1.491,0.336,2.954,0.779,4.415,1.225c0.931,0.297,1.854,0.619,2.768,0.965
			c-4.073-1.791-4.88-2.122-2.42-0.995c1.2,0.557,2.344,1.223,3.483,1.892c5.71,3.352-3.529-3.194-0.458-0.488
			c10.747,9.472,26.589,10.612,37.201,0c9.657-9.657,10.763-27.715,0-37.201c-16.376-14.433-38.347-19.874-59.868-18.866
			c-19.862,0.93-44.088,7.296-57.085,23.615c-4.549,5.71-7.705,11-7.705,18.601c0,6.949,2.794,13.69,7.705,18.601
			C379.328,371.546,398.304,373.501,407.251,362.267L407.251,362.267z"/>
	</g>
</g>
<path fill="#FFFFFF" d="M391.207,310.889c0,0,8.104,11.074,14.166,8.033c2.755-1.381,3.664-5.428,5.699-15.198
	c0,0-12.158,2.606-19.865,6.296l-0.489,0.164L391.207,310.889z"/>
<g>
	<g>
		<path fill="#689FBB" d="M542.695,270.479c7.825,4.031,14.592,10.478,20.045,17.277c5.234,6.526,8.776,14.312,10.734,22.405
			c2.508,10.367-0.228,20.454,0.844,30.826c1.456,14.103,11.837,20.348,25.197,18.41c7.64-1.108,15.432-4.494,22.031-8.46
			c5.032-3.025,0.451-10.911-4.603-7.874c-6.049,3.636-12.883,6.392-19.852,7.541c-15.736,2.596-13.812-13.912-13.184-24.631
			c1.488-25.426-13.907-51.673-36.609-63.368C542.081,259.917,537.467,267.785,542.695,270.479L542.695,270.479z"/>
	</g>
</g>
<circle fill="#689FBB" cx="626.887" cy="343.667" r="12.243"/>
<circle fill="#689FBB" cx="240.649" cy="391.73" r="12.243"/>
<g>
	<g>
		<path fill="#689FBB" d="M307.936,255.916c-18.41,3.38-36.547,14.618-48.926,28.338c-12.247,13.574-18.853,30.624-21.146,48.6
			c-1.879,14.729-0.717,30.347-0.756,45.181c-0.006,2.298-0.012,4.596-0.018,6.894c-0.015,5.881,9.104,5.879,9.119,0
			c0.077-29.828-3.62-61.876,14.146-87.78c11.185-16.308,30.395-28.492,49.798-32.399c0.069-0.014,0.138-0.027,0.207-0.04
			C316.138,263.648,313.683,254.861,307.936,255.916L307.936,255.916z"/>
	</g>
</g>
<circle fill="#689FBB" cx="357.131" cy="416.348" r="12.375"/>
<circle fill="#689FBB" cx="483.282" cy="422.428" r="12.375"/>
<g>
	<g>
		<path fill="#689FBB" d="M353.194,420.127c-2.517,5.69-4.688,11.546-6.509,17.493c-2.305,7.529-5.025,17.158-1.331,24.653
			c1.347,2.733,4.32,3.446,5.464,6.308c1.627,4.067,1.979,8.624,2.229,12.95c0.384,6.607,0.176,13.331-0.478,19.919
			c-0.58,5.851,8.544,5.795,9.119,0c0.587-5.923,0.734-11.911,0.565-17.857c-0.225-7.895-0.785-17.614-6.364-23.772
			c-2.098-2.317-3.042-1.608-3.159-5.172c-0.14-4.272,1.053-8.584,2.179-12.663c1.574-5.701,4.196-12.825,6.155-17.255
			C363.423,419.403,355.567,414.759,353.194,420.127L353.194,420.127z"/>
	</g>
</g>
<g>
	<g>
		<path fill="#689FBB" d="M478.885,421.216c-1.313,6.277-2.067,12.73-2.399,19.129c-0.44,8.517-0.224,19.347,6.192,25.817
			c1.364,1.375,3.033,2.171,4.797,2.884c1.131,0.457,2.479,0.231,3.089,1.258c1.538,2.592-0.913,8.106-1.785,10.547
			c-2.292,6.406-5.748,12.587-9.434,18.297c-3.2,4.957,4.697,9.523,7.873,4.603c6.135-9.503,20.768-32.723,7.625-41.78
			c-3.087-2.127-5.938-1.041-7.548-5.03c-1.738-4.306-1.818-9.18-1.779-13.75c0.057-6.532,0.825-13.154,2.162-19.55
			C488.877,417.903,480.088,415.462,478.885,421.216L478.885,421.216z"/>
	</g>
</g>
<ellipse fill="#689FBB" cx="342.19" cy="504.379" rx="17.197" ry="2.932"/>
<ellipse fill="#689FBB" cx="497.308" cy="503.729" rx="17.197" ry="2.932"/>
</svg>
