<?xml version="1.0" encoding="utf-8"?>
<!-- Generator: Adobe Illustrator 16.0.0, SVG Export Plug-In . SVG Version: 6.00 Build 0)  -->
<!DOCTYPE svg PUBLIC "-//W3C//DTD SVG 1.1//EN" "http://www.w3.org/Graphics/SVG/1.1/DTD/svg11.dtd">
<svg version="1.1" id="Layer_1" xmlns="http://www.w3.org/2000/svg" xmlns:xlink="http://www.w3.org/1999/xlink" x="0px" y="0px"
	 width="841.89px" height="595.28px" viewBox="0 0 841.89 595.28" enable-background="new 0 0 841.89 595.28" xml:space="preserve">
<path fill="#689FBB" d="M501.743,418.603c111.77-41.4,27.931-113.598,27.931-113.598c57.64-38.771,36.107-160.432,36.107-160.432
	c6.579-1.488,12.942-6.204,15.551-9.256c4.376-5.12,7.019-11.767,7.019-19.03c0-16.187-13.122-29.308-29.309-29.308
	c-16.186,0-29.308,13.121-29.308,29.308c0,3.9,0.82,7.608,2.204,11.013c-113.137-25.4-208.275,0-208.275,0
	c1.383-3.404,2.352-7.029,2.352-10.93c0-16.186-13.122-29.308-29.309-29.308c-16.186,0-29.309,13.122-29.309,29.308
	c0,7.264,2.644,13.91,7.02,19.031c4.031,4.717,9.535,8.141,15.799,9.557c0,0-22.184,121.662,35.456,160.434
	c0,0-83.396,82.029,31.883,112.314C357.555,417.706,469.847,430.417,501.743,418.603z"/>
<path fill="none" stroke="#556337" stroke-width="0.6513" stroke-miterlimit="10" d="M588.351,477.63"/>
<g>
	<g>
		<path fill="#5388A0" d="M407.251,362.268c1.563-1.961,7.688-6.982,0.468-1.467c2.463-1.882,5.246-3.323,8.045-4.63
			c-8.084,3.775,1.295-0.159,3.604-0.783c1.55-0.42,3.126-0.732,4.7-1.046c2.842-0.475,2.154-0.415-2.063,0.179
			c1.131-0.138,2.264-0.252,3.399-0.341c3.505-0.313,7.032-0.29,10.545-0.149c1.701,0.067,3.396,0.247,5.088,0.428
			c-8.317-0.887-0.881,0.043,0.976,0.461c1.491,0.336,2.954,0.779,4.415,1.226c0.931,0.297,1.854,0.618,2.769,0.965
			c-4.074-1.791-4.881-2.122-2.421-0.995c1.2,0.558,2.344,1.223,3.483,1.892c5.71,3.351-3.529-3.194-0.458-0.488
			c10.747,9.472,26.589,10.612,37.201,0c9.656-9.656,10.764-27.716,0-37.201c-16.376-14.432-38.347-19.873-59.868-18.865
			c-19.862,0.931-44.088,7.296-57.085,23.615c-4.548,5.711-7.705,11.001-7.705,18.601c0,6.949,2.794,13.689,7.705,18.601
			C379.328,371.546,398.304,373.502,407.251,362.268L407.251,362.268z"/>
	</g>
</g>
<path fill="#FFFFFF" d="M391.207,310.89c0,0,8.104,11.074,14.166,8.033c2.755-1.381,3.664-5.428,5.699-15.199
	c0,0-12.158,2.607-19.865,6.297l-0.489,0.164L391.207,310.89z"/>
<g>
	<g>
		<path fill="#689FBB" d="M542.695,267.221c7.825,4.031,14.592,10.479,20.045,17.277c5.234,6.526,8.776,14.312,10.734,22.405
			c2.508,10.367-0.228,20.453,0.844,30.826c1.456,14.104,11.837,20.348,25.197,18.41c7.64-1.107,15.432-4.494,22.031-8.46
			c5.032-3.024,0.45-10.91-4.604-7.873c-6.049,3.636-12.883,6.391-19.852,7.54c-15.736,2.596-13.813-13.912-13.185-24.631
			c1.488-25.426-13.907-51.674-36.608-63.368C542.08,256.659,537.467,264.527,542.695,267.221L542.695,267.221z"/>
	</g>
</g>
<circle fill="#689FBB" cx="631.488" cy="339.864" r="12.243"/>
<circle fill="#689FBB" cx="237.649" cy="391.729" r="12.243"/>
<g>
	<g>
		<path fill="#689FBB" d="M303.936,255.916c-18.41,3.381-36.547,14.618-48.926,28.339c-12.247,13.573-18.854,30.623-21.146,48.6
			c-1.879,14.729-0.717,30.347-0.755,45.181c-0.007,2.298-0.013,4.596-0.019,6.894c-0.015,5.881,9.104,5.879,9.119,0
			c0.077-29.828-3.619-61.876,14.146-87.779c11.185-16.309,30.396-28.492,49.798-32.4c0.069-0.014,0.139-0.027,0.207-0.04
			C312.138,263.647,309.683,254.86,303.936,255.916L303.936,255.916z"/>
	</g>
</g>
<circle fill="#689FBB" cx="357.131" cy="416.349" r="12.375"/>
<circle fill="#689FBB" cx="483.282" cy="422.429" r="12.375"/>
<g>
	<g>
		<path fill="#689FBB" d="M352.734,421.217c-1.049,5.954-1.693,12.01-2.011,18.045c-0.426,8.095-0.625,18.302,5.015,24.796
			c2.014,2.318,3.208,1.935,3.501,5.358c0.37,4.332-0.47,8.747-1.355,12.964c-1.269,6.046-3.03,12.055-5.149,17.858
			c-2.021,5.536,6.793,7.901,8.793,2.424c2.008-5.5,3.623-11.166,4.932-16.87c1.697-7.395,4.014-17.76-0.447-24.644
			c-1.567-2.419-4.019-3.032-4.984-5.852c-1.403-4.097-1.344-8.677-1.289-12.949c0.079-6.243,0.705-12.556,1.789-18.707
			C362.54,417.892,353.754,415.433,352.734,421.217L352.734,421.217z"/>
	</g>
</g>
<g>
	<g>
		<path fill="#689FBB" d="M478.885,421.217c-2.007,5.753-3.582,11.68-4.86,17.633c-1.814,8.45-3.821,18.944-0.078,27.154
			c1.552,3.405,4.44,5.914,8.123,6.727c3.8,0.838,3.534,4.372,3.278,7.696c-0.491,6.354-3.193,13.039-6.003,18.723
			c-2.597,5.252,5.267,9.873,7.873,4.602c3.019-6.105,5.471-12.699,6.718-19.399c0.787-4.235,1.135-8.956-0.551-13.023
			c-1.985-4.787-5.51-6.259-10.135-7.723c-2.056-0.651-2.084-5.878-2.139-7.479c-0.16-4.668,0.605-9.342,1.51-13.902
			c1.245-6.279,2.947-12.536,5.057-18.583C489.62,418.073,480.809,415.702,478.885,421.217L478.885,421.217z"/>
	</g>
</g>
<ellipse fill="#689FBB" cx="343.19" cy="504.38" rx="17.197" ry="2.932"/>
<ellipse fill="#689FBB" cx="496.308" cy="503.729" rx="17.197" ry="2.932"/>
<g>
	<g>
		<path fill="#5388A0" d="M455.7,181.576c16.032,5.313,38.513-7.756,50.188,9.813c1.388,2.088,4.774,0.133,3.375-1.973
			c-4.856-7.309-12.6-10.539-21.086-11.483c-10.572-1.175-21.085,3.306-31.438-0.125C454.34,177.013,453.32,180.788,455.7,181.576
			L455.7,181.576z"/>
	</g>
</g>
<g>
	<g>
		<path fill="#5388A0" d="M345.792,191.429c4.984-9.244,17.213-13.8,27.026-10.287c6.883,2.463,15.447,6.515,22.921,4.897
			c2.463-0.532,1.418-4.3-1.039-3.768c-8.299,1.795-17.157-4.523-25.02-6.26c-4.755-1.051-11.289,0.938-15.62,2.758
			c-5.066,2.13-9.049,5.875-11.644,10.687C341.222,191.674,344.596,193.647,345.792,191.429L345.792,191.429z"/>
	</g>
</g>
<g>
	<g>
		<path fill="#5388A0" d="M350.757,243.132c2.574,7.848,8.09,13.73,16.77,13.681c7.417-0.042,12.514-5.31,15.149-11.816
			c0.731-1.806-2.19-2.583-2.912-0.803c-2.117,5.227-6.027,9.247-11.859,9.589c-7.419,0.436-12.088-4.903-14.235-11.453
			C353.064,240.487,350.148,241.276,350.757,243.132L350.757,243.132z"/>
	</g>
</g>
<g>
	<g>
		<path fill="#5388A0" d="M465.938,243.132c2.574,7.848,8.089,13.73,16.769,13.681c7.418-0.042,12.515-5.31,15.149-11.816
			c0.731-1.806-2.19-2.583-2.912-0.803c-2.116,5.228-6.027,9.247-11.859,9.589c-7.419,0.436-12.087-4.903-14.234-11.453
			C468.246,240.487,465.33,241.276,465.938,243.132L465.938,243.132z"/>
	</g>
</g>
</svg>
