<?xml version="1.0" encoding="utf-8"?>
<!-- Generator: Adobe Illustrator 16.0.0, SVG Export Plug-In . SVG Version: 6.00 Build 0)  -->
<!DOCTYPE svg PUBLIC "-//W3C//DTD SVG 1.1//EN" "http://www.w3.org/Graphics/SVG/1.1/DTD/svg11.dtd">
<svg version="1.1" id="Layer_1" xmlns="http://www.w3.org/2000/svg" xmlns:xlink="http://www.w3.org/1999/xlink" x="0px" y="0px"
	 width="841.89px" height="595.28px" viewBox="0 0 841.89 595.28" enable-background="new 0 0 841.89 595.28" xml:space="preserve">
<path fill="#689FBB" d="M501.743,418.602c111.77-41.398,27.931-113.598,27.931-113.598c57.64-38.77,36.107-160.432,36.107-160.432
	c6.579-1.487,12.942-6.203,15.551-9.255c4.376-5.12,7.019-11.767,7.019-19.03c0-16.187-13.122-29.309-29.309-29.309
	c-16.186,0-29.308,13.122-29.308,29.309c0,3.9,0.82,7.609,2.204,11.012c-113.137-25.4-208.275,0-208.275,0
	c1.383-3.402,2.352-7.027,2.352-10.928c0-16.188-13.122-29.309-29.309-29.309c-16.186,0-29.309,13.121-29.309,29.309
	c0,7.264,2.644,13.91,7.02,19.03c4.031,4.718,9.535,8.14,15.799,9.556c0,0-22.184,121.663,35.456,160.434
	c0,0-83.396,82.029,31.883,112.314C357.555,417.705,469.847,430.416,501.743,418.602z"/>
<g>
	<g>
		<path fill="#5388A0" d="M407.251,362.267c1.563-1.961,7.688-6.982,0.467-1.467c2.464-1.882,5.247-3.323,8.046-4.63
			c-8.083,3.775,1.295-0.159,3.604-0.783c1.55-0.42,3.126-0.732,4.699-1.046c2.842-0.475,2.154-0.415-2.062,0.179
			c1.13-0.138,2.264-0.252,3.399-0.341c3.506-0.313,7.032-0.29,10.545-0.149c1.701,0.067,3.396,0.247,5.088,0.428
			c-8.317-0.887-0.881,0.043,0.976,0.462c1.491,0.336,2.954,0.779,4.415,1.225c0.932,0.297,1.854,0.618,2.768,0.965
			c-4.072-1.79-4.88-2.122-2.42-0.994c1.2,0.558,2.344,1.223,3.484,1.892c5.709,3.352-3.53-3.194-0.459-0.487
			c10.746,9.473,26.59,10.611,37.201,0c9.657-9.657,10.762-27.715,0-37.201c-16.375-14.435-38.348-19.875-59.868-18.867
			c-19.862,0.931-44.088,7.296-57.085,23.615c-4.549,5.711-7.705,11.001-7.705,18.601c0,6.949,2.794,13.689,7.705,18.601
			C379.328,371.545,398.304,373.501,407.251,362.267L407.251,362.267z"/>
	</g>
</g>
<path fill="#FFFFFF" d="M391.207,310.889c0,0,8.104,11.074,14.166,8.033c2.755-1.381,3.664-5.428,5.699-15.197
	c0,0-12.158,2.605-19.865,6.295l-0.489,0.164L391.207,310.889z"/>
<g>
	<g>
		<path fill="#689FBB" d="M542.696,270.479c7.824,4.031,14.592,10.479,20.044,17.277c5.234,6.527,8.776,14.312,10.734,22.405
			c2.508,10.366-0.228,20.453,0.844,30.826c1.456,14.103,11.837,20.347,25.197,18.409c7.64-1.107,15.432-4.494,22.03-8.46
			c5.033-3.024,0.451-10.91-4.602-7.873c-6.051,3.636-12.883,6.391-19.854,7.54c-15.735,2.596-13.811-13.91-13.184-24.631
			c1.488-25.426-13.907-51.673-36.609-63.367C542.081,259.917,537.467,267.785,542.696,270.479L542.696,270.479z"/>
	</g>
</g>
<circle fill="#689FBB" cx="626.887" cy="343.666" r="12.243"/>
<circle fill="#689FBB" cx="240.649" cy="391.73" r="12.243"/>
<g>
	<g>
		<path fill="#689FBB" d="M307.936,255.916c-18.409,3.381-36.547,14.618-48.926,28.338c-12.247,13.573-18.853,30.623-21.146,48.6
			c-1.879,14.729-0.718,30.347-0.756,45.181c-0.006,2.298-0.012,4.596-0.019,6.894c-0.015,5.881,9.104,5.879,9.119,0
			c0.077-29.828-3.619-61.876,14.146-87.779c11.185-16.309,30.395-28.492,49.799-32.399c0.068-0.014,0.137-0.027,0.206-0.04
			C316.138,263.648,313.683,254.861,307.936,255.916L307.936,255.916z"/>
	</g>
</g>
<circle fill="#689FBB" cx="357.131" cy="416.348" r="12.375"/>
<circle fill="#689FBB" cx="483.282" cy="422.428" r="12.375"/>
<g>
	<g>
		<path fill="#689FBB" d="M353.194,420.127c-2.516,5.689-4.688,11.546-6.509,17.493c-2.305,7.529-5.025,17.158-1.33,24.653
			c1.347,2.732,4.319,3.446,5.464,6.308c1.627,4.067,1.979,8.624,2.229,12.949c0.384,6.608,0.176,13.331-0.478,19.919
			c-0.58,5.852,8.544,5.795,9.119,0c0.587-5.923,0.733-11.911,0.564-17.857c-0.224-7.895-0.785-17.613-6.363-23.771
			c-2.098-2.316-3.042-1.608-3.158-5.173c-0.139-4.272,1.053-8.584,2.18-12.663c1.574-5.7,4.195-12.824,6.154-17.256
			C363.423,419.402,355.567,414.758,353.194,420.127L353.194,420.127z"/>
	</g>
</g>
<g>
	<g>
		<path fill="#689FBB" d="M478.885,421.216c-1.312,6.277-2.067,12.73-2.398,19.13c-0.44,8.517-0.225,19.347,6.192,25.817
			c1.363,1.375,3.033,2.171,4.796,2.884c1.131,0.457,2.48,0.231,3.089,1.258c1.538,2.592-0.912,8.106-1.785,10.547
			c-2.291,6.405-5.748,12.586-9.434,18.297c-3.2,4.956,4.697,9.522,7.873,4.602c6.135-9.503,20.769-32.722,7.625-41.779
			c-3.087-2.127-5.938-1.041-7.548-5.03c-1.738-4.306-1.818-9.18-1.778-13.75c0.057-6.532,0.824-13.154,2.161-19.551
			C488.877,417.902,480.088,415.461,478.885,421.216L478.885,421.216z"/>
	</g>
</g>
<ellipse fill="#689FBB" cx="342.19" cy="504.379" rx="17.197" ry="2.932"/>
<ellipse fill="#689FBB" cx="497.308" cy="503.729" rx="17.197" ry="2.932"/>
<ellipse fill="#FFFFFF" cx="368.855" cy="240.473" rx="26.705" ry="8.954"/>
<ellipse fill="#FFFFFF" cx="480.676" cy="240.473" rx="26.705" ry="8.954"/>
<ellipse cx="380.303" cy="238.493" rx="11.447" ry="3.839"/>
<ellipse cx="492.124" cy="238.493" rx="11.447" ry="3.839"/>
<ellipse fill="#FFFFFF" cx="386.865" cy="236.675" rx="1.628" ry="0.547"/>
<ellipse fill="#FFFFFF" cx="497.265" cy="236.348" rx="1.628" ry="0.546"/>
<g>
	<g>
		<path fill="#5388A0" d="M455.7,181.576c16.031,5.314,38.513-7.756,50.188,9.813c1.388,2.088,4.773,0.133,3.375-1.973
			c-4.857-7.308-12.6-10.54-21.086-11.483c-10.572-1.176-21.084,3.307-31.438-0.125C454.34,177.013,453.32,180.787,455.7,181.576
			L455.7,181.576z"/>
	</g>
</g>
<g>
	<g>
		<path fill="#5388A0" d="M345.792,191.429c4.984-9.245,17.213-13.8,27.027-10.287c6.882,2.463,15.446,6.515,22.92,4.897
			c2.463-0.532,1.418-4.3-1.039-3.768c-8.299,1.795-17.156-4.523-25.02-6.26c-4.755-1.051-11.289,0.938-15.62,2.758
			c-5.067,2.129-9.049,5.875-11.644,10.687C341.222,191.674,344.596,193.647,345.792,191.429L345.792,191.429z"/>
	</g>
</g>
<ellipse fill="#FFFFFF" cx="368.855" cy="240.473" rx="26.705" ry="8.954"/>
<ellipse fill="#FFFFFF" cx="480.676" cy="240.473" rx="26.705" ry="8.954"/>
<ellipse cx="380.303" cy="238.493" rx="11.447" ry="3.839"/>
<ellipse cx="492.124" cy="238.493" rx="11.447" ry="3.839"/>
<ellipse fill="#FFFFFF" cx="386.865" cy="236.675" rx="1.628" ry="0.547"/>
<ellipse fill="#FFFFFF" cx="497.265" cy="236.348" rx="1.628" ry="0.546"/>
<g>
	<g>
		<path fill="#5388A0" d="M455.7,181.576c16.031,5.314,38.513-7.756,50.188,9.813c1.388,2.088,4.773,0.133,3.375-1.973
			c-4.857-7.308-12.6-10.54-21.086-11.483c-10.572-1.176-21.084,3.307-31.438-0.125C454.34,177.013,453.32,180.787,455.7,181.576
			L455.7,181.576z"/>
	</g>
</g>
<g>
	<g>
		<path fill="#5388A0" d="M345.792,191.429c4.984-9.245,17.213-13.8,27.027-10.287c6.882,2.463,15.446,6.515,22.92,4.897
			c2.463-0.532,1.418-4.3-1.039-3.768c-8.299,1.795-17.156-4.523-25.02-6.26c-4.755-1.051-11.289,0.938-15.62,2.758
			c-5.067,2.129-9.049,5.875-11.644,10.687C341.222,191.674,344.596,193.647,345.792,191.429L345.792,191.429z"/>
	</g>
</g>
</svg>
