<?xml version="1.0" encoding="utf-8"?>
<!-- Generator: Adobe Illustrator 16.0.0, SVG Export Plug-In . SVG Version: 6.00 Build 0)  -->
<!DOCTYPE svg PUBLIC "-//W3C//DTD SVG 1.1//EN" "http://www.w3.org/Graphics/SVG/1.1/DTD/svg11.dtd">
<svg version="1.1" id="Layer_1" xmlns="http://www.w3.org/2000/svg" xmlns:xlink="http://www.w3.org/1999/xlink" x="0px" y="0px"
	 width="841.89px" height="595.28px" viewBox="0 0 841.89 595.28" enable-background="new 0 0 841.89 595.28" xml:space="preserve">
<path fill="#FDBD56" d="M504.789,375.204c-3.583,3.09-42.479,23.329-87.778,27.507c-45.298,4.18-96.428-11.042-98.925-19.514
	c-5.325-18.057-17.017-203.634-9.873-230.607c4.973-18.779,39.362-73.621,95.057-71.806c0,0,74.192,11.781,86.563,78.439
	C502.189,225.818,511.997,368.987,504.789,375.204z"/>
<g>
	<g>
		<path fill="#FDBD56" d="M486.587,221.381c11.964,17.093,22.011,36.096,29.56,55.514c10.222,26.297,18.647,64.342-10.389,81.903
			c-3.66,2.214-0.323,7.96,3.354,5.737c29.93-18.102,25.477-55.182,15.541-83.714c-7.678-22.051-18.94-43.46-32.237-62.663
			c-0.03-0.043-0.061-0.087-0.091-0.13C489.887,214.545,484.124,217.861,486.587,221.381L486.587,221.381z"/>
	</g>
</g>
<g>
	<g>
		<path fill="#FDBD56" d="M372.792,381.096c0,19.226,0,38.451,0,57.677c0,7.583,0,15.165,0,22.748c0,0.367,0.696-1.649,0.023-0.54
			c-0.084,0.14-1.056,1.034-2.054,1.414c-7.147,2.715-16.62-1.309-23.188-3.823c-4.009-1.534-5.726,4.892-1.767,6.407
			c7.936,3.037,27.442,10.099,33.028-1.153c0.793-1.598,0.602-3.257,0.602-4.994c0-4.662,0-9.324,0-13.986c0-21.25,0-42.5,0-63.75
			C379.436,376.812,372.792,376.812,372.792,381.096L372.792,381.096z"/>
	</g>
</g>
<g>
	<g>
		<path fill="#FDBD56" d="M406.728,385.519c4.007,20.869,8.014,41.737,12.021,62.606c0.853,4.442,1.706,8.884,2.559,13.327
			c0.283,1.474,0.341,3.323,1.286,4.565c7.892,10.371,25.371-0.021,33.125-4.83c3.632-2.253,0.299-8.002-3.354-5.737
			c-6.253,3.878-13.82,8.65-21.523,8.079c-1.075-0.08-2.377-0.857-2.588-1.052c-0.521-0.48-0.009-0.032,0.067,0.366
			c-1.437-7.483-2.874-14.966-4.31-22.449c-3.625-18.881-7.25-37.761-10.875-56.642
			C412.328,379.547,405.925,381.333,406.728,385.519L406.728,385.519z"/>
	</g>
</g>
<circle fill="#FFFFFF" cx="447.39" cy="211.058" r="30.613"/>
<path d="M456.048,210.681c0.604,14.114-5.477,25.836-13.585,26.183c-8.106,0.347-16.3-10.764-16.904-24.878
	c-0.604-14.113,6.657-24.786,14.764-25.132C448.43,186.507,455.444,196.568,456.048,210.681z"/>
<ellipse transform="matrix(0.9991 -0.0428 0.0428 0.9991 -7.8299 19.3598)" fill="#FFFFFF" cx="448.45" cy="192.635" rx="1.718" ry="2.552"/>
<path opacity="0.65" fill="#FFFFFF" d="M438.248,230.9c0,0,2.948,2.808,7.34-0.314C445.588,230.585,442.144,238.25,438.248,230.9z"
	/>
<circle fill="#FFFFFF" cx="353.215" cy="215.634" r="30.613"/>
<path d="M375.805,214.437c0.604,14.114-5.48,25.836-13.587,26.183c-8.107,0.347-16.298-10.764-16.903-24.877
	c-0.604-14.113,6.655-24.786,14.762-25.133C368.184,190.262,375.201,200.323,375.805,214.437z"/>
<path opacity="0.65" fill="#FFFFFF" d="M358.003,234.655c0,0,2.948,2.806,7.339-0.314
	C365.342,234.341,361.899,242.005,358.003,234.655z"/>
<g>
	<path fill="#E1A046" d="M328.018,179.305c1.95-1.816,4.065-3.426,6.231-4.996c2.187-1.537,4.478-2.947,6.904-4.166
		c1.212-0.61,2.431-1.242,3.705-1.793c1.276-0.544,2.638-0.918,4.05-1.072c1.412-0.145,2.868-0.133,4.294,0.168
		c1.417,0.286,2.823,0.839,3.918,1.795l-0.124,0.358c-1.396,0.098-2.627,0.278-3.837,0.517c-1.206,0.256-2.378,0.561-3.552,0.893
		c-1.173,0.333-2.358,0.641-3.583,0.914c-1.227,0.265-2.466,0.579-3.67,1.01c-2.407,0.865-4.791,1.892-7.145,3.014
		c-2.369,1.097-4.677,2.351-6.961,3.661L328.018,179.305z"/>
</g>
<g>
	<path fill="#E1A046" d="M469.073,174.608c-2.388-1.109-4.794-2.162-7.249-3.052c-2.44-0.917-4.903-1.735-7.375-2.392
		c-1.237-0.326-2.499-0.533-3.743-0.692c-1.244-0.167-2.451-0.373-3.648-0.604c-1.198-0.23-2.392-0.434-3.616-0.586
		c-1.227-0.135-2.468-0.209-3.868-0.187l-0.154-0.347c1.009-1.045,2.363-1.717,3.75-2.123c1.395-0.422,2.845-0.559,4.264-0.535
		c1.42,0.033,2.809,0.29,4.127,0.722c1.317,0.441,2.585,0.966,3.845,1.47c2.521,1.006,4.925,2.215,7.235,3.56
		c2.292,1.379,4.537,2.802,6.635,4.445L469.073,174.608z"/>
</g>
<g>
	<path fill="#594A42" d="M386.5,69.805c-0.102-0.791-0.06-1.625,0.187-2.434c0.255-0.805,0.75-1.566,1.431-2.145
		c1.374-1.175,3.359-1.499,5.148-1.039c1.799,0.449,3.468,1.909,4.077,3.825c0.643,1.912,0.278,3.875-0.305,5.538
		c-0.087,0.227-0.136,0.377-0.261,0.663c-0.086,0.187-0.141,0.339-0.284,0.597c-0.253,0.487-0.501,0.841-0.786,1.236
		c-0.57,0.749-1.228,1.375-1.888,1.945c-1.33,1.125-2.702,2.013-3.97,2.909c-1.264,0.893-2.472,1.742-3.404,2.727
		c-0.465,0.489-0.863,1.002-1.18,1.542c-0.133,0.221-0.372,0.672-0.532,0.976c-0.161,0.32-0.325,0.638-0.479,0.978
		c-1.276,2.646-2.079,5.485-1.785,8.135c0.131,1.323,0.569,2.583,1.281,3.714c0.723,1.123,1.702,2.125,2.849,2.978
		c2.323,1.68,5.23,2.754,8.237,3.368c3.019,0.657,6.172,0.823,9.367,0.781c-3.08,0.877-6.331,1.231-9.608,1.067
		c-3.261-0.214-6.618-0.933-9.625-2.742c-1.499-0.891-2.902-2.074-3.968-3.579c-1.073-1.492-1.808-3.271-2.094-5.095
		c-0.293-1.828-0.15-3.661,0.207-5.384c0.386-1.72,0.983-3.35,1.716-4.88c0.181-0.379,0.387-0.765,0.591-1.148
		c0.219-0.393,0.352-0.643,0.629-1.101c0.502-0.819,1.102-1.552,1.743-2.2c1.294-1.285,2.703-2.27,4.079-3.127
		c2.743-1.705,5.401-3.131,6.431-5.468c0.592-1.252,0.882-2.582,0.655-3.76c-0.204-1.179-1.056-2.215-2.281-2.735
		c-1.203-0.547-2.726-0.554-3.953,0.133C387.468,66.746,386.691,68.222,386.5,69.805z"/>
</g>
<ellipse transform="matrix(0.9991 -0.0428 0.0428 0.9991 -8.091 15.931)" fill="#FFFFFF" cx="368.201" cy="197.021" rx="1.718" ry="2.551"/>
<g>
	<g>
		<path fill="#FFFFFF" d="M431.302,294.144c0.236,7.042-0.257,14.587-5.72,19.678c-5.743,5.352-15.431,5.762-22.768,6.12
			c-7.594,0.37-16.203,0.396-22.849-3.808c-6.352-4.018-7.501-12.507-7.857-19.334c-0.095-1.827-2.943-1.836-2.848,0
			c0.405,7.758,1.834,16.026,8.3,21.091c6.874,5.385,17.018,5.202,25.254,4.898c8.503-0.313,18.021-1.269,24.781-6.954
			c6.181-5.198,6.804-14.232,6.554-21.691C434.088,292.313,431.24,292.306,431.302,294.144L431.302,294.144z"/>
	</g>
</g>
<g>
	<g>
		<path fill="#FDBD56" d="M305.187,226.661c-12.405,8.049-22.785,20.645-29.073,33.897c-14.765,31.115-2.029,63.589,18.305,88.791
			c2.691,3.335,7.362-1.397,4.698-4.698c-19.17-23.758-30.709-54.222-16.082-83.157c5.7-11.275,15.091-22.338,25.505-29.095
			C312.12,230.076,308.793,224.321,305.187,226.661L305.187,226.661z"/>
	</g>
</g>
</svg>
