<?xml version="1.0" encoding="utf-8"?>
<!-- Generator: Adobe Illustrator 16.0.0, SVG Export Plug-In . SVG Version: 6.00 Build 0)  -->
<!DOCTYPE svg PUBLIC "-//W3C//DTD SVG 1.1//EN" "http://www.w3.org/Graphics/SVG/1.1/DTD/svg11.dtd">
<svg version="1.1" id="Layer_1" xmlns="http://www.w3.org/2000/svg" xmlns:xlink="http://www.w3.org/1999/xlink" x="0px" y="0px"
	 width="841.89px" height="595.28px" viewBox="0 0 841.89 595.28" enable-background="new 0 0 841.89 595.28" xml:space="preserve">
<path fill="#FDBD56" d="M463.551,369.698c-3.72,2.532-42.658,17.447-85.908,16.497c-43.249-0.949-89.91-20.859-91.354-29.134
	c-3.079-17.636,5.942-194.233,15.608-218.946c6.729-17.205,45.149-65.301,97.574-57.563c0,0,68.823,19.153,73.302,83.47
	C477.247,228.276,471.033,364.603,463.551,369.698z"/>
<g>
	<g>
		<path fill="#FDBD56" d="M462.105,213.669c11.357,16.229,20.895,34.266,28.072,52.697c9.749,25.034,17.794,61.248-9.843,77.982
			c-3.479,2.107-0.306,7.572,3.189,5.456c29.078-17.608,24.036-53.867,14.166-81.327c-7.313-20.347-17.718-40.264-30.13-57.998
			C465.243,207.169,459.763,210.322,462.105,213.669L462.105,213.669z"/>
	</g>
</g>
<g>
	<g>
		<path fill="#FDBD56" d="M358.019,363.959c-8.776,16-17.554,31.999-26.33,47.998c-3.48,6.345-6.962,12.69-10.442,19.035
			c-0.278,0.507,1.162-0.922,0.364-0.429c-0.393,0.243-1.323,0.502-2.387,0.356c-7.262-0.995-13.31-8.646-17.677-13.79
			c-2.641-3.11-7.088,1.382-4.468,4.468c5.255,6.189,18.184,20.92,28.037,14.217c1.386-0.943,1.959-2.313,2.745-3.744
			c2.122-3.868,4.243-7.736,6.365-11.604c9.75-17.773,19.499-35.545,29.248-53.318C365.435,363.574,359.978,360.387,358.019,363.959
			L358.019,363.959z"/>
	</g>
</g>
<g>
	<g>
		<path fill="#FDBD56" d="M414.223,356.421c1.081,20.242,2.162,40.484,3.243,60.727c0.229,4.27,0.456,8.539,0.684,12.809
			c0.092,1.703-0.038,3.507,0.773,5.053c5.699,10.854,24.813,2.496,32.088-0.739c3.717-1.653,0.499-7.096-3.189-5.456
			c-6.115,2.719-14.201,6.399-21.082,4.573c-1.081-0.287-1.738-0.766-2.371-1.5c-0.262-0.303,0.238,0.643,0.25,0.88
			c-0.386-7.227-0.771-14.454-1.157-21.68c-0.974-18.222-1.946-36.444-2.92-54.667C420.325,352.369,414.005,352.347,414.223,356.421
			L414.223,356.421z"/>
	</g>
</g>
<circle fill="#FFFFFF" cx="427.07" cy="208.406" r="29.112"/>
<path d="M435.29,208.986c-0.955,13.4-7.968,23.817-15.666,23.269c-7.697-0.548-14.236-11.932-13.281-25.333
	c0.955-13.399,8.97-22.697,16.666-22.148C430.707,185.322,436.246,195.586,435.29,208.986z"/>
<ellipse transform="matrix(0.9991 -0.0427 0.0427 0.9991 -7.5742 18.3692)" fill="#FFFFFF" cx="425.836" cy="186.333" rx="1.634" ry="2.427"/>
<path opacity="0.65" fill="#FFFFFF" d="M416.136,222.722c0,0,2.803,2.67,6.979-0.299
	C423.115,222.423,419.84,229.711,416.136,222.722z"/>
<circle fill="#FFFFFF" cx="337.597" cy="202.546" r="29.112"/>
<path d="M359.07,203.857c-0.956,13.4-7.971,23.817-15.667,23.268s-14.235-11.932-13.28-25.332
	c0.956-13.399,8.968-22.698,16.665-22.149C354.485,180.192,360.026,190.457,359.07,203.857z"/>
<path opacity="0.65" fill="#FFFFFF" d="M340.065,221.034c0,0,2.482,2.971,6.968,0.498
	C347.033,221.531,342.951,228.4,340.065,221.034z"/>
<g>
	<path fill="#E1A046" d="M317.72,165.497c2.039-1.505,4.211-2.797,6.427-4.046c2.232-1.216,4.549-2.3,6.973-3.189
		c2.407-0.881,4.907-1.936,7.638-1.869c1.349,0.016,2.724,0.185,4.039,0.624c1.308,0.423,2.577,1.098,3.507,2.119l-0.156,0.325
		c-1.33-0.059-2.512-0.021-3.681,0.073c-1.167,0.112-2.308,0.273-3.453,0.46c-1.145,0.188-2.297,0.351-3.484,0.476
		c-1.188,0.118-2.393,0.28-3.578,0.557c-2.367,0.557-4.73,1.269-7.075,2.075c-2.357,0.78-4.674,1.715-6.973,2.706L317.72,165.497z"
		/>
</g>
<g>
	<path fill="#E1A046" d="M445.45,169.19c-2.271-1.055-4.56-2.056-6.895-2.902c-2.32-0.872-4.663-1.65-7.014-2.274
		c-1.176-0.311-2.376-0.507-3.56-0.659c-1.183-0.159-2.331-0.354-3.47-0.575c-1.14-0.219-2.274-0.413-3.438-0.558
		c-1.167-0.128-2.348-0.199-3.679-0.178l-0.146-0.33c0.96-0.994,2.247-1.633,3.566-2.019c1.327-0.401,2.706-0.532,4.055-0.509
		c2.731,0.011,5.2,1.136,7.581,2.085c2.398,0.957,4.684,2.107,6.88,3.386c2.18,1.312,4.315,2.664,6.31,4.227L445.45,169.19z"/>
</g>
<g>
	<path fill="#594A42" d="M384.814,68.365c-0.011-0.758,0.119-1.542,0.44-2.28c0.328-0.732,0.877-1.398,1.583-1.871
		c1.425-0.962,3.335-1.053,4.977-0.425c1.651,0.618,3.071,2.179,3.438,4.054c0.401,1.875-0.156,3.692-0.887,5.199
		c-0.105,0.205-0.169,0.342-0.318,0.598c-0.101,0.167-0.169,0.305-0.332,0.533c-0.293,0.433-0.564,0.74-0.876,1.083
		c-0.62,0.646-1.31,1.167-1.994,1.633c-1.378,0.919-2.771,1.61-4.065,2.319c-1.292,0.706-2.519,1.39-3.5,2.222
		c-0.49,0.413-0.926,0.848-1.285,1.322c-0.151,0.193-0.427,0.592-0.613,0.861c-0.188,0.284-0.378,0.565-0.562,0.869
		c-1.493,2.361-2.558,4.957-2.566,7.493c-0.02,1.265,0.259,2.502,0.809,3.647c0.562,1.139,1.378,2.192,2.369,3.122
		c2.014,1.838,4.645,3.168,7.419,4.073c2.78,0.947,5.742,1.445,8.766,1.751c-3.005,0.496-6.114,0.479-9.193-0.031
		c-3.059-0.555-6.152-1.597-8.798-3.631c-1.319-1.004-2.518-2.274-3.362-3.811c-0.852-1.525-1.355-3.286-1.427-5.04
		c-0.08-1.758,0.254-3.475,0.778-5.064c0.55-1.584,1.292-3.059,2.148-4.426c0.211-0.34,0.445-0.683,0.679-1.024
		c0.247-0.348,0.398-0.572,0.709-0.975c0.561-0.722,1.204-1.356,1.881-1.897c1.368-1.071,2.811-1.837,4.203-2.5
		c2.776-1.314,5.441-2.375,6.667-4.471c0.694-1.12,1.112-2.344,1.025-3.482c-0.065-1.136-0.758-2.207-1.859-2.831
		c-1.077-0.647-2.517-0.818-3.749-0.302C386.06,65.579,385.166,66.89,384.814,68.365z"/>
</g>
<ellipse transform="matrix(0.9975 0.0711 -0.0711 0.9975 14.1698 -24.6947)" fill="#FFFFFF" cx="353.769" cy="186.58" rx="1.634" ry="2.426"/>
<g>
	<g>
		<path fill="#FDBD56" d="M289.599,218.691c-11.694,7.59-21.479,19.426-27.483,31.884c-14.292,29.657-2.173,60.712,17.242,84.789
			c2.558,3.173,7-1.328,4.468-4.468c-18.128-22.481-29.143-51.287-15.466-78.739c5.407-10.854,14.343-21.464,24.428-28.009
			C296.191,221.938,293.027,216.465,289.599,218.691L289.599,218.691z"/>
	</g>
</g>
<circle fill="#FFFFFF" stroke="#FFFFFF" stroke-width="0.9026" stroke-miterlimit="10" cx="379.496" cy="314.585" r="10.46"/>
</svg>
