<?xml version="1.0" encoding="utf-8"?>
<!-- Generator: Adobe Illustrator 16.0.0, SVG Export Plug-In . SVG Version: 6.00 Build 0)  -->
<!DOCTYPE svg PUBLIC "-//W3C//DTD SVG 1.1//EN" "http://www.w3.org/Graphics/SVG/1.1/DTD/svg11.dtd">
<svg version="1.1" id="Layer_1" xmlns="http://www.w3.org/2000/svg" xmlns:xlink="http://www.w3.org/1999/xlink" x="0px" y="0px"
	 width="841.89px" height="595.28px" viewBox="0 0 841.89 595.28" enable-background="new 0 0 841.89 595.28" xml:space="preserve">
<g>
	<defs>
		<rect id="SVGID_15_" x="862.735" y="82.439" width="200.374" height="477"/>
	</defs>
	<clipPath id="SVGID_2_">
		<use xlink:href="#SVGID_15_"  overflow="visible"/>
	</clipPath>
	<g clip-path="url(#SVGID_2_)">
		<path fill="#FDBD56" d="M861.109,459.564c-4.407,1.719-47.827,7.822-91.927-3.35c-44.096-11.172-87.221-42.578-86.746-51.396
			c1.002-18.799,51.885-197.646,67.617-220.692c10.952-16.044,61.666-56.272,113.564-35.982c0,0,66.014,35.855,55.439,102.822
			C908.49,317.867,869.979,456.107,861.109,459.564z"/>
		<g>
			<g>
				<path fill="#FDBD56" d="M734.833,418.622c-10.429,15.788-20.857,31.577-31.286,47.365c-4.321,6.541-8.642,13.082-12.962,19.623
					c-0.627,0.949,1.786-1.226,0.326-0.456c0.813-0.429-0.487,0.115-0.793,0.178c0.197-0.041-1.004-0.021-1.293-0.07
					c-7.396-1.264-13.322-10.023-17.273-15.54c-2.472-3.45-8.238-0.138-5.738,3.354c5.336,7.448,17.193,23.749,28.623,17.726
					c1.44-0.759,2.211-2.33,3.074-3.637c2.491-3.771,4.981-7.542,7.473-11.313c11.862-17.959,23.725-35.918,35.588-53.876
					C742.94,418.389,737.184,415.064,734.833,418.622L734.833,418.622z"/>
			</g>
		</g>
		<g>
			<g>
				<path fill="#FDBD56" d="M819.636,431.336c-0.609,21.241-1.219,42.481-1.828,63.723c-0.131,4.521-0.26,9.043-0.39,13.564
					c-0.055,1.893-0.313,3.639,0.487,5.396c5.184,11.391,25.136,4.777,33.035,2.01c4.017-1.406,2.289-7.827-1.766-6.406
					c-6.82,2.389-15.154,5.411-22.45,3.391c-1.014-0.281-2.5-1.357-2.563-1.44c-0.784-1.045-0.173-0.435-0.194,0.343
					c0.211-7.343,0.421-14.686,0.632-22.028c0.561-19.517,1.12-39.034,1.681-58.552
					C826.403,427.049,819.759,427.061,819.636,431.336L819.636,431.336z"/>
			</g>
		</g>
		<path fill="#FFFFFF" stroke="#FFFFFF" stroke-width="2.4614" stroke-miterlimit="10" d="M811.567,382.953
			c-3.531,15.354-18.842,24.936-34.195,21.402c-15.352-3.531-24.937-18.842-21.406-34.193c3.537-15.354,18.847-24.936,34.199-21.4
			C805.519,352.293,815.099,367.602,811.567,382.953z"/>
		<circle fill="#FFFFFF" cx="861.755" cy="285.674" r="30.613"/>
		<path d="M870.044,288.206c-4.139,13.507-13.783,22.528-21.541,20.151c-7.76-2.377-11.777-15.584-7.639-29.091
			s14.543-21.146,22.301-18.769C870.924,262.876,874.182,274.699,870.044,288.206z"/>
		<circle fill="#FFFFFF" cx="771.448" cy="258.572" r="30.613"/>
		<path d="M793.144,264.979c-4.139,13.508-13.783,22.527-21.543,20.15s-11.773-15.584-7.635-29.091
			c4.139-13.506,14.541-21.146,22.299-18.769C794.024,239.646,797.282,251.473,793.144,264.979z"/>
		<path opacity="0.65" fill="#FFFFFF" d="M769.616,278.101c0,0,1.844,3.629,7.025,2.152
			C776.642,280.253,770.839,286.329,769.616,278.101z"/>
		<g>
			<path fill="#E1A046" d="M759.813,215.919c2.444-1.063,4.976-1.874,7.54-2.631c2.574-0.721,5.205-1.285,7.898-1.625
				c1.346-0.171,2.705-0.359,4.092-0.455c1.384-0.087,2.793,0.015,4.176,0.34c1.379,0.334,2.748,0.832,3.992,1.592
				c1.24,0.742,2.381,1.732,3.095,2.999l-0.237,0.297c-1.349-0.374-2.568-0.614-3.789-0.793c-1.223-0.161-2.43-0.265-3.647-0.343
				s-2.437-0.182-3.683-0.334c-1.244-0.158-2.518-0.276-3.797-0.271c-2.558,0.012-5.148,0.185-7.74,0.457
				c-2.6,0.244-5.194,0.656-7.784,1.129L759.813,215.919z"/>
		</g>
		<g>
			<path fill="#594A42" d="M851.473,132.199c0.168-0.779,0.485-1.552,0.988-2.232c0.509-0.674,1.229-1.226,2.063-1.544
				c1.688-0.65,3.667-0.293,5.201,0.738c1.546,1.023,2.633,2.957,2.566,4.966c-0.031,2.017-1.03,3.746-2.134,5.118
				c-0.157,0.186-0.255,0.312-0.467,0.537c-0.144,0.148-0.246,0.273-0.468,0.469c-0.4,0.375-0.752,0.625-1.152,0.903
				c-0.787,0.516-1.617,0.888-2.428,1.204c-1.63,0.617-3.22,0.996-4.715,1.418c-1.488,0.42-2.91,0.817-4.119,1.435
				c-0.602,0.306-1.148,0.657-1.627,1.061c-0.199,0.163-0.574,0.509-0.827,0.741c-0.259,0.248-0.519,0.493-0.776,0.762
				c-2.086,2.069-3.791,4.478-4.396,7.074c-0.318,1.292-0.326,2.625-0.031,3.929c0.307,1.3,0.895,2.571,1.691,3.758
				c1.631,2.358,4.012,4.342,6.643,5.923c2.626,1.627,5.544,2.835,8.57,3.861c-3.196-0.199-6.379-0.951-9.414-2.199
				c-3.004-1.289-5.928-3.087-8.16-5.795c-1.115-1.341-2.044-2.924-2.547-4.698c-0.514-1.765-0.613-3.687-0.273-5.501
				c0.332-1.821,1.08-3.502,1.99-5.008c0.938-1.492,2.045-2.83,3.246-4.028c0.297-0.297,0.619-0.592,0.939-0.886
				c0.338-0.297,0.547-0.488,0.961-0.827c0.747-0.605,1.558-1.096,2.377-1.492c1.648-0.779,3.305-1.237,4.889-1.587
				c3.154-0.692,6.136-1.15,7.886-3.01c0.976-0.983,1.693-2.141,1.872-3.326c0.201-1.18-0.256-2.44-1.238-3.34
				c-0.951-0.918-2.385-1.432-3.77-1.193C853.405,129.638,852.181,130.771,851.473,132.199z"/>
		</g>
		
			<ellipse transform="matrix(0.9562 0.2928 -0.2928 0.9562 106.7595 -221.0856)" fill="#FFFFFF" cx="791.784" cy="246.023" rx="1.717" ry="2.552"/>
		<g>
			<g>
				<path fill="#FDBD56" d="M739.608,215.82c-18.227,19.325-35.744,39.572-51.54,60.934c-7.562,10.225-17.874,22.867-19.764,35.898
					c-0.693,4.775,1.786,9.658,3.755,13.851c3.441,7.329,7.721,14.284,11.993,21.149c15.862,25.484,33.76,49.619,50.78,74.323
					c2.414,3.503,8.176,0.185,5.738-3.354c-10.498-15.235-21.311-30.251-31.772-45.511c-10.595-15.454-21.451-31.073-29.949-47.812
					c-1.838-3.618-4.646-8.618-3.872-12.398c1.197-5.856,4.572-11.321,7.63-16.359c9.147-15.075,20.485-28.873,31.808-42.343
					c9.654-11.483,19.596-22.765,29.891-33.68C747.243,217.405,742.553,212.698,739.608,215.82L739.608,215.82z"/>
			</g>
		</g>
		<g>
			<g>
				<path fill="#FDBD56" d="M900.313,315.361c0.635,0.804,0.027,0.021,0.898,1.17c1.278,1.685,2.526,3.392,3.762,5.108
					c3.902,5.426,7.597,11,11.103,16.689c8.312,13.489,16.839,28.78,18.744,44.769c0.742,6.227,0.164,13.039-4.059,17.991
					c-4.333,5.083-10.916,9.163-16.164,13.256c-17.05,13.296-36.088,23.699-57.405,28.098c-8.068,1.665-16.316,2.183-24.539,2.009
					c-4.287-0.09-4.278,6.555,0,6.645c24.063,0.506,46.986-6.381,67.535-18.706c7.788-4.671,15.074-10.124,22.18-15.765
					c5.123-4.067,11.11-7.926,14.988-13.258c8.506-11.691,3.336-28.973-1.455-41.003c-5.773-14.499-13.99-28.007-22.869-40.793
					c-2.573-3.705-5.225-7.368-8.021-10.909C902.356,307.302,897.688,312.037,900.313,315.361L900.313,315.361z"/>
			</g>
		</g>
	</g>
</g>
<g>
	<defs>
		<rect id="SVGID_23_" y="63.439" width="190.109" height="478"/>
	</defs>
	<clipPath id="SVGID_4_">
		<use xlink:href="#SVGID_23_"  overflow="visible"/>
	</clipPath>
	<g clip-path="url(#SVGID_4_)">
		<path fill="#FDBD56" d="M46.42,434.371c-4.407,1.719-47.827,7.822-91.926-3.35c-44.096-11.172-87.222-42.578-86.747-51.396
			c1.002-18.799,51.886-197.646,67.617-220.692c10.952-16.045,61.667-56.273,113.565-35.983c0,0,66.014,35.856,55.439,102.823
			C93.801,292.673,55.291,430.914,46.42,434.371z"/>
		<g>
			<g>
				<path fill="#FDBD56" d="M4.947,406.143c-0.61,21.241-1.22,42.481-1.83,63.723c-0.129,4.521-0.259,9.043-0.389,13.564
					c-0.055,1.893-0.313,3.639,0.488,5.396c5.184,11.391,25.135,4.777,33.035,2.01c4.016-1.406,2.288-7.827-1.767-6.406
					c-6.82,2.389-15.154,5.411-22.45,3.391c-1.014-0.281-2.5-1.357-2.563-1.44c-0.784-1.045-0.172-0.435-0.194,0.343
					c0.21-7.343,0.421-14.686,0.632-22.028c0.56-19.517,1.121-39.034,1.681-58.552C11.715,401.855,5.07,401.867,4.947,406.143
					L4.947,406.143z"/>
			</g>
		</g>
		<circle fill="#FFFFFF" cx="47.066" cy="260.48" r="30.613"/>
		<path d="M55.354,263.013c-4.139,13.506-13.783,22.528-21.541,20.151c-7.759-2.378-11.776-15.585-7.638-29.091
			c4.139-13.508,14.543-21.146,22.301-18.77C56.234,237.683,59.492,249.505,55.354,263.013z"/>
		
			<ellipse transform="matrix(0.9832 0.1824 -0.1824 0.9832 44.1968 -5.3184)" fill="#FFFFFF" cx="51.006" cy="237.568" rx="1.718" ry="2.553"/>
		<path opacity="0.65" fill="#FFFFFF" d="M32.485,272.573c0,0,2.244,3.396,7.223,1.339
			C39.708,273.912,34.635,280.608,32.485,272.573z"/>
		<g>
			<path fill="#E1A046" d="M75.148,224.626c-2.078-1.617-4.188-3.182-6.381-4.6c-2.172-1.441-4.39-2.791-6.651-3.984
				c-1.132-0.596-2.315-1.08-3.493-1.515c-1.175-0.441-2.305-0.912-3.42-1.407c-1.116-0.492-2.234-0.959-3.393-1.381
				c-1.165-0.406-2.358-0.758-3.728-1.051l-0.072-0.371c1.218-0.793,2.688-1.145,4.131-1.229c1.454-0.098,2.898,0.094,4.275,0.435
				c1.377,0.351,2.673,0.911,3.86,1.629c1.186,0.726,2.303,1.521,3.418,2.294c2.231,1.547,4.303,3.264,6.252,5.092
				c1.925,1.859,3.795,3.748,5.471,5.82L75.148,224.626z"/>
		</g>
		<g>
			<path fill="#594A42" d="M36.783,107.005c0.168-0.779,0.486-1.551,0.988-2.232c0.51-0.674,1.229-1.225,2.064-1.544
				c1.688-0.649,3.666-0.292,5.2,0.739c1.546,1.022,2.633,2.956,2.567,4.965c-0.031,2.018-1.031,3.746-2.135,5.119
				c-0.156,0.185-0.254,0.311-0.467,0.537c-0.143,0.148-0.246,0.273-0.467,0.469c-0.401,0.375-0.753,0.625-1.152,0.902
				c-0.787,0.516-1.617,0.889-2.429,1.205c-1.63,0.617-3.22,0.996-4.714,1.418c-1.489,0.419-2.911,0.816-4.119,1.434
				c-0.602,0.307-1.148,0.657-1.627,1.061c-0.199,0.164-0.575,0.51-0.828,0.742c-0.258,0.248-0.518,0.492-0.776,0.762
				c-2.085,2.068-3.79,4.477-4.396,7.074c-0.318,1.291-0.325,2.625-0.031,3.928c0.307,1.301,0.896,2.572,1.692,3.758
				c1.63,2.359,4.012,4.342,6.642,5.924c2.626,1.627,5.544,2.834,8.57,3.861c-3.196-0.2-6.378-0.951-9.414-2.199
				c-3.003-1.29-5.928-3.088-8.159-5.796c-1.115-1.341-2.045-2.923-2.547-4.698c-0.514-1.764-0.613-3.687-0.274-5.501
				c0.333-1.821,1.08-3.501,1.991-5.007c0.938-1.493,2.045-2.83,3.245-4.029c0.298-0.297,0.62-0.592,0.94-0.885
				c0.337-0.297,0.546-0.488,0.961-0.828c0.746-0.605,1.557-1.096,2.377-1.492c1.648-0.779,3.305-1.236,4.889-1.586
				c3.154-0.693,6.135-1.15,7.885-3.01c0.977-0.984,1.693-2.141,1.873-3.327c0.201-1.179-0.256-2.44-1.238-3.339
				c-0.951-0.918-2.385-1.433-3.771-1.193C38.717,104.444,37.492,105.576,36.783,107.005z"/>
		</g>
		<g>
			<g>
				<path fill="#FDBD56" d="M85.624,290.166c0.635,0.805,0.027,0.023,0.899,1.171c1.278,1.685,2.526,3.392,3.761,5.108
					c3.902,5.426,7.597,11,11.103,16.689c8.312,13.49,16.839,28.78,18.745,44.769c0.742,6.228,0.164,13.04-4.058,17.992
					c-4.333,5.083-10.917,9.163-16.164,13.256c-17.05,13.296-36.088,23.699-57.406,28.098c-8.069,1.665-16.316,2.183-24.54,2.009
					c-4.287-0.09-4.278,6.555,0,6.645c24.062,0.506,46.986-6.381,67.536-18.706c7.789-4.671,15.075-10.124,22.18-15.765
					c5.124-4.067,11.11-7.926,14.989-13.258c8.505-11.691,3.335-28.973-1.456-41.004c-5.774-14.499-13.99-28.006-22.87-40.793
					c-2.573-3.705-5.225-7.368-8.021-10.908C87.667,282.107,82.999,286.844,85.624,290.166L85.624,290.166z"/>
			</g>
		</g>
	</g>
</g>
</svg>
