<?xml version="1.0" encoding="utf-8"?>
<!-- Generator: Adobe Illustrator 16.0.0, SVG Export Plug-In . SVG Version: 6.00 Build 0)  -->
<!DOCTYPE svg PUBLIC "-//W3C//DTD SVG 1.1//EN" "http://www.w3.org/Graphics/SVG/1.1/DTD/svg11.dtd">
<svg version="1.1" id="Layer_1" xmlns="http://www.w3.org/2000/svg" xmlns:xlink="http://www.w3.org/1999/xlink" x="0px" y="0px"
	 width="841.89px" height="595.28px" viewBox="0 0 841.89 595.28" enable-background="new 0 0 841.89 595.28" xml:space="preserve">
<path fill="#FDBD56" d="M430.579,388.063c-3.984,2.553-45.351,17.093-90.785,14.83c-45.434-2.261-93.901-24.553-95.176-33.293
	c-2.721-18.627,11.921-203.995,22.804-229.689c7.575-17.888,49.367-67.322,104.247-57.657c0,0,71.784,22.144,74.613,89.881
	C449.106,239.808,438.593,382.926,430.579,388.063z"/>
<g>
	<g>
		<path fill="#FDBD56" d="M298.65,373.004c-7.228,17.815-14.456,35.63-21.684,53.445c-2.851,7.026-5.701,14.053-8.552,21.079
			c0.079-0.196,0.889-1.234,0.7-1.093c-0.864,0.644-1.396,0.729-2.615,0.765c-7.435,0.217-15.008-7.402-19.894-11.963
			c-3.128-2.919-7.837,1.769-4.699,4.698c6.872,6.414,21.479,19.674,31.561,11.464c1.185-0.965,1.658-2.855,2.218-4.234
			c1.699-4.188,3.398-8.375,5.097-12.563c8.092-19.944,16.184-39.888,24.274-59.832C306.669,370.798,300.239,369.088,298.65,373.004
			L298.65,373.004z"/>
	</g>
</g>
<g>
	<g>
		<path fill="#FDBD56" d="M384.408,368.79c3.588,20.944,7.176,41.889,10.765,62.834c0.764,4.458,1.527,8.917,2.291,13.375
			c0.257,1.498,0.28,3.31,1.211,4.584c7.662,10.5,25.451,0.361,33.238-4.255c3.682-2.183,0.341-7.928-3.354-5.737
			c-5.904,3.5-14.082,8.699-21.391,7.646c-1.262-0.182-2.314-0.676-2.845-1.185c-0.515-0.494,0.021-0.049,0.089,0.35
			c-1.286-7.51-2.572-15.021-3.859-22.53c-3.246-18.949-6.492-37.899-9.739-56.848C390.093,362.807,383.69,364.6,384.408,368.79
			L384.408,368.79z"/>
	</g>
</g>
<path fill="#FFFFFF" stroke="#FFFFFF" stroke-width="2.4614" stroke-miterlimit="10" d="M366.909,322.718
	c-0.435,15.748-13.56,28.16-29.307,27.721c-15.747-0.438-28.16-13.558-27.725-29.305c0.441-15.75,13.563-28.16,29.311-27.721
	C354.938,293.85,367.347,306.971,366.909,322.718z"/>
<circle fill="#FFFFFF" cx="396.944" cy="217.455" r="30.613"/>
<path d="M405.568,218.305c-1.396,14.057-9.073,24.803-17.147,24.001c-8.075-0.802-14.617-12.958-13.221-27.016
	c1.396-14.057,10.091-23.597,18.165-22.795C401.44,193.297,406.964,204.247,405.568,218.305z"/>
<ellipse transform="matrix(0.9999 -0.0151 0.0151 0.9999 -2.8806 5.9916)" fill="#FFFFFF" cx="396.292" cy="194.217" rx="1.718" ry="2.553"/>
<path opacity="0.65" fill="#FFFFFF" d="M385.031,232.184c0,0,2.869,2.889,7.346-0.11
	C392.377,232.074,388.722,239.639,385.031,232.184z"/>
<circle fill="#FFFFFF" cx="303.066" cy="208.681" r="30.613"/>
<path d="M325.599,210.687c-1.396,14.058-9.074,24.802-17.148,24c-8.076-0.802-14.614-12.958-13.22-27.016
	c1.396-14.057,10.091-23.597,18.163-22.795C321.47,185.677,326.995,196.629,325.599,210.687z"/>
<path opacity="0.65" fill="#FFFFFF" d="M305.119,228.187c0,0,2.521,3.195,7.311,0.726
	C312.43,228.913,307.938,236.014,305.119,228.187z"/>
<g>
	<path fill="#E1A046" d="M283.254,169.156c2.187-1.522,4.509-2.817,6.874-4.065c2.382-1.213,4.85-2.286,7.424-3.149
		c1.285-0.433,2.581-0.886,3.921-1.252c1.34-0.358,2.741-0.536,4.161-0.489c1.418,0.056,2.857,0.274,4.227,0.773
		c1.363,0.483,2.678,1.229,3.626,2.33l-0.174,0.338c-1.396-0.101-2.64-0.096-3.872-0.031c-1.23,0.083-2.434,0.22-3.643,0.382
		c-1.209,0.165-2.426,0.302-3.676,0.399c-1.252,0.089-2.523,0.225-3.777,0.481c-2.505,0.516-5.01,1.195-7.498,1.974
		c-2.501,0.751-4.963,1.667-7.409,2.641L283.254,169.156z"/>
</g>
<g>
	<path fill="#E1A046" d="M417.409,176.77c-2.355-1.175-4.732-2.294-7.161-3.252c-2.414-0.984-4.854-1.871-7.307-2.595
		c-1.228-0.361-2.483-0.602-3.723-0.796c-1.238-0.201-2.439-0.44-3.63-0.705c-1.191-0.264-2.379-0.5-3.598-0.687
		c-1.223-0.168-2.461-0.277-3.861-0.294l-0.145-0.351c1.037-1.017,2.409-1.651,3.808-2.018c1.406-0.383,2.86-0.48,4.277-0.417
		c1.419,0.072,2.8,0.367,4.105,0.836c1.304,0.477,2.558,1.037,3.803,1.576c2.492,1.076,4.861,2.352,7.133,3.76
		c2.253,1.442,4.458,2.927,6.509,4.627L417.409,176.77z"/>
</g>
<g>
	<path fill="#594A42" d="M356.618,69.016c0.012-0.797,0.17-1.617,0.529-2.383c0.366-0.761,0.964-1.444,1.719-1.921
		c1.527-0.969,3.537-1.009,5.244-0.3c1.718,0.698,3.164,2.379,3.496,4.362c0.367,1.983-0.271,3.876-1.083,5.439
		c-0.118,0.212-0.188,0.354-0.353,0.619c-0.111,0.173-0.188,0.316-0.365,0.55c-0.32,0.447-0.615,0.762-0.953,1.113
		c-0.67,0.661-1.41,1.188-2.144,1.659c-1.476,0.926-2.959,1.611-4.342,2.319c-1.378,0.705-2.693,1.375-3.756,2.218
		c-0.53,0.418-0.996,0.871-1.387,1.36c-0.162,0.2-0.463,0.612-0.664,0.891c-0.205,0.294-0.411,0.585-0.612,0.9
		c-1.637,2.439-2.833,5.136-2.916,7.802c-0.057,1.329,0.199,2.638,0.744,3.858c0.557,1.213,1.385,2.344,2.399,3.351
		c2.063,1.991,4.789,3.466,7.679,4.498c2.896,1.077,5.995,1.687,9.164,2.097c-3.173,0.433-6.441,0.324-9.663-0.301
		c-3.198-0.673-6.42-1.859-9.142-4.074c-1.357-1.094-2.58-2.463-3.423-4.104c-0.852-1.628-1.328-3.494-1.354-5.339
		c-0.032-1.851,0.368-3.646,0.966-5.301c0.625-1.649,1.446-3.178,2.387-4.589c0.233-0.35,0.491-0.702,0.748-1.053
		c0.271-0.358,0.438-0.587,0.779-1.001c0.612-0.74,1.311-1.381,2.036-1.931c1.462-1.089,2.996-1.865,4.479-2.52
		c2.957-1.3,5.789-2.337,7.139-4.504c0.764-1.157,1.238-2.432,1.18-3.63c-0.035-1.196-0.732-2.342-1.872-3.03
		c-1.113-0.712-2.62-0.934-3.932-0.427C358.009,66.124,357.031,67.476,356.618,69.016z"/>
</g>
<ellipse transform="matrix(0.9951 0.0988 -0.0988 0.9951 20.5745 -30.7272)" fill="#FFFFFF" cx="320.53" cy="192.371" rx="1.717" ry="2.551"/>
<g>
	<g>
		<path fill="#FDBD56" d="M252.086,237.749c-11.54,5.144-22.94,12.834-31.091,22.523c-5.048,6.001-9.332,14.184-8.365,22.284
			c0.534,4.475,4.759,7.094,8.41,9.02c14.121,7.448,30.621,11.004,45.774,15.708c17.015,5.282,35.128,10.521,50.051,20.569
			c1.774,1.195,3.418,2.542,4.97,4.012c3.108,2.944,7.815-1.747,4.699-4.698c-11.414-10.809-27.76-16.233-42.322-21.228
			c-16.83-5.773-34.12-10.18-50.836-16.282c-4.512-1.647-9.972-3.405-13.516-6.809c-0.602-0.579-0.543-0.569-0.641-0.88
			c-0.133-0.424,0.064-3.491,0.322-4.877c0.767-4.117,2.932-7.783,5.361-11.125c7.259-9.977,19.379-17.506,30.536-22.479
			C259.347,241.745,255.964,236.021,252.086,237.749L252.086,237.749z"/>
	</g>
</g>
<g>
	<g>
		<path fill="#FDBD56" d="M440.087,238.544c7.05,5.985,13.656,12.548,19.982,19.283c10.923,11.626,22.179,24.868,27.49,40.15
			c2.069,5.955,2.992,12.721,0.043,18.541c-2.789,5.504-8.264,6.881-13.936,7.91c-8.841,1.604-18.076,1.465-27.025,1.413
			c-11.395-0.067-22.785-0.541-34.174-0.861c-21.713-0.611-43.696-1.031-65.195,2.559c-4.219,0.705-2.424,7.107,1.766,6.407
			c23.227-3.879,47.154-2.822,70.588-2.112c19.114,0.579,39.398,2.532,58.27-1.483c13.146-2.797,19.835-13.668,17.836-26.884
			c-2.338-15.451-12.814-29.177-22.544-40.852c-8.593-10.31-18.163-20.074-28.401-28.768
			C441.54,231.091,436.816,235.767,440.087,238.544L440.087,238.544z"/>
	</g>
</g>
</svg>
