<?xml version="1.0" encoding="utf-8"?>
<!-- Generator: Adobe Illustrator 16.0.0, SVG Export Plug-In . SVG Version: 6.00 Build 0)  -->
<!DOCTYPE svg PUBLIC "-//W3C//DTD SVG 1.1//EN" "http://www.w3.org/Graphics/SVG/1.1/DTD/svg11.dtd">
<svg version="1.1" id="Layer_1" xmlns="http://www.w3.org/2000/svg" xmlns:xlink="http://www.w3.org/1999/xlink" x="0px" y="0px"
	 width="841.89px" height="595.28px" viewBox="0 0 841.89 595.28" enable-background="new 0 0 841.89 595.28" xml:space="preserve">
<path fill="#FDBD56" d="M415.033,370.318c-3.384,3.307-40.949,25.923-85.9,32.908c-44.95,6.986-96.928-5.029-99.946-13.33
	c-6.437-17.69-29.637-202.182-24.184-229.548c3.796-19.052,34.711-75.924,90.411-77.573c0,0,74.781,7.148,91.27,72.909
	C403.153,221.382,421.84,363.664,415.033,370.318z"/>
<g>
	<g>
		<path fill="#FDBD56" d="M282.9,381.621c-3.47,18.91-6.94,37.819-10.411,56.729c-1.369,7.458-2.737,14.917-4.106,22.375
			c-0.023,0.127,0.506-0.74,0.226-0.425c-0.417,0.469-1.257,0.915-2.49,1.208c-7.157,1.699-16.21-4.398-21.842-7.829
			c-3.67-2.235-7.006,3.513-3.354,5.737c7.771,4.733,25.373,15.02,33.172,4.595c0.872-1.165,0.927-2.783,1.181-4.165
			c0.841-4.585,1.683-9.17,2.524-13.755c3.836-20.901,7.671-41.802,11.507-62.702C290.076,379.199,283.673,377.41,282.9,381.621
			L282.9,381.621z"/>
	</g>
</g>
<g>
	<g>
		<path fill="#FDBD56" d="M365.67,360.164c7.755,19.784,15.511,39.568,23.266,59.352c1.651,4.211,3.302,8.422,4.953,12.634
			c0.614,1.566,1.129,3.686,2.355,4.888c9.288,9.108,25.464-5.241,31.819-11.032c3.173-2.892-1.54-7.577-4.698-4.698
			c-5.146,4.69-12.045,11.239-19.49,11.692c-1.313,0.08-2.121-0.145-2.957-0.67c-0.506-0.318,0.438,0.455-0.153-0.17
			c-0.598-0.631,1.019,2.02,0.705,1.218c-2.781-7.094-5.562-14.188-8.342-21.282c-7.016-17.899-14.033-35.798-21.049-53.698
			C370.532,354.455,364.105,356.169,365.67,360.164L365.67,360.164z"/>
	</g>
</g>
<path fill="#FFFFFF" stroke="#FFFFFF" stroke-width="2.4614" stroke-miterlimit="10" d="M339.45,319.22
	c2.763,15.509-7.576,30.322-23.086,33.082c-15.51,2.76-30.322-7.575-33.085-23.083c-2.757-15.513,7.58-30.323,23.09-33.083
	C321.879,293.375,336.689,303.711,339.45,319.22z"/>
<circle fill="#FFFFFF" cx="347.545" cy="210.055" r="30.613"/>
<path d="M356.163,209.141c1.479,14.049-3.863,26.126-11.932,26.977c-8.071,0.85-16.939-9.729-18.418-23.779
	c-1.48-14.049,5.104-25.151,13.173-26.001C347.056,185.488,354.683,195.092,356.163,209.141z"/>
<ellipse transform="matrix(0.9761 -0.2173 0.2173 0.9761 -32.5492 78.8298)" fill="#FFFFFF" cx="342.2" cy="187.431" rx="1.718" ry="2.553"/>
<path opacity="0.65" fill="#FFFFFF" d="M338.862,226.892c0,0,3.395,2.248,7.171-1.595
	C346.033,225.296,343.986,233.445,338.862,226.892z"/>
<circle fill="#FFFFFF" cx="253.835" cy="220.474" r="30.613"/>
<path d="M276.307,217.875c1.48,14.049-3.863,26.126-11.933,26.976c-8.071,0.851-16.936-9.73-18.417-23.779
	c-1.479-14.048,5.103-25.151,13.17-26.001C267.199,194.221,274.828,203.827,276.307,217.875z"/>
<path opacity="0.65" fill="#FFFFFF" d="M259.796,239.161c0,0,3.116,2.617,7.306-0.77
	C267.102,238.392,264.142,246.255,259.796,239.161z"/>
<g>
	<path fill="#E1A046" d="M226.43,185.781c1.833-1.934,3.844-3.672,5.908-5.374c2.087-1.67,4.286-3.22,6.631-4.586
		c1.172-0.685,2.349-1.39,3.587-2.021c1.239-0.622,2.575-1.08,3.976-1.322c1.399-0.232,2.854-0.31,4.296-0.098
		c1.432,0.197,2.87,0.662,4.022,1.547l-0.102,0.366c-1.388,0.184-2.604,0.44-3.798,0.754c-1.188,0.331-2.339,0.708-3.49,1.112
		c-1.15,0.406-2.313,0.787-3.519,1.135c-1.208,0.341-2.425,0.731-3.601,1.236c-2.348,1.013-4.665,2.186-6.943,3.452
		c-2.297,1.242-4.522,2.638-6.721,4.086L226.43,185.781z"/>
</g>
<g>
	<path fill="#E1A046" d="M359.347,166.069c-2.545-0.674-5.099-1.288-7.672-1.734c-2.563-0.475-5.132-0.85-7.681-1.063
		c-1.274-0.104-2.553-0.086-3.807-0.026c-1.253,0.054-2.478,0.063-3.697,0.044c-1.22-0.017-2.431-0.008-3.663,0.057
		c-1.231,0.082-2.466,0.227-3.84,0.494l-0.213-0.314c0.811-1.206,2.025-2.104,3.32-2.747c1.3-0.66,2.703-1.049,4.104-1.274
		c1.404-0.217,2.816-0.208,4.189-0.013c1.374,0.204,2.714,0.498,4.043,0.774c2.659,0.549,5.237,1.318,7.747,2.237
		c2.498,0.956,4.958,1.963,7.311,3.213L359.347,166.069z"/>
</g>
<g>
	<path fill="#594A42" d="M277.995,72.859c-0.15-0.783-0.161-1.618,0.035-2.441c0.205-0.819,0.651-1.609,1.295-2.229
		c1.299-1.258,3.26-1.704,5.074-1.356c1.824,0.335,3.581,1.689,4.307,3.563c0.761,1.868,0.518,3.851,0.041,5.546
		c-0.073,0.231-0.112,0.385-0.22,0.677c-0.074,0.192-0.12,0.348-0.247,0.613c-0.223,0.502-0.448,0.871-0.707,1.283
		c-0.523,0.783-1.14,1.449-1.764,2.059c-1.257,1.206-2.572,2.177-3.782,3.15c-1.207,0.969-2.359,1.893-3.229,2.933
		c-0.434,0.517-0.799,1.054-1.082,1.613c-0.119,0.228-0.33,0.693-0.471,1.006c-0.141,0.33-0.284,0.656-0.417,1.005
		c-1.109,2.72-1.734,5.604-1.275,8.23c0.213,1.313,0.729,2.543,1.51,3.627c0.791,1.076,1.831,2.015,3.028,2.795
		c2.423,1.532,5.392,2.424,8.431,2.85c3.054,0.468,6.212,0.438,9.398,0.198c-3.019,1.067-6.242,1.622-9.524,1.662
		c-3.269-0.012-6.664-0.521-9.778-2.139c-1.551-0.796-3.025-1.89-4.183-3.326c-1.163-1.422-2.008-3.152-2.407-4.955
		c-0.407-1.806-0.377-3.645-0.128-5.387c0.278-1.741,0.773-3.405,1.409-4.978c0.157-0.39,0.339-0.787,0.519-1.183
		c0.194-0.406,0.311-0.664,0.561-1.138c0.45-0.849,1.004-1.618,1.603-2.303c1.212-1.362,2.556-2.433,3.877-3.375
		c2.632-1.872,5.196-3.461,6.079-5.856c0.513-1.287,0.72-2.632,0.42-3.794c-0.277-1.165-1.191-2.146-2.447-2.588
		c-1.234-0.472-2.755-0.384-3.937,0.377C278.771,69.745,278.087,71.267,277.995,72.859z"/>
</g>
<ellipse transform="matrix(0.9945 -0.1048 0.1048 0.9945 -19.5815 29.145)" fill="#FFFFFF" cx="267.635" cy="200.966" rx="1.717" ry="2.552"/>
<g>
	<g>
		<path fill="#FDBD56" d="M207.678,193.96c-9.227,24.978-17.49,50.54-23.598,76.462c-2.93,12.433-7.262,27.874-3.89,40.64
			c1.18,4.468,5.71,8.133,9.008,11.031c6.099,5.361,12.763,10.111,19.403,14.77c24.574,17.24,50.493,32.442,75.827,48.51
			c3.63,2.302,6.96-3.45,3.354-5.737c-15.625-9.91-31.453-19.493-47.056-29.439c-15.772-10.055-31.958-20.121-46.226-32.278
			c-3.313-2.823-7.445-6.156-8.252-10.122c-1.173-5.77-0.115-12.299,0.748-18.034c2.62-17.417,7.63-34.528,12.771-51.339
			c4.388-14.347,9.118-28.62,14.318-42.695C215.573,191.699,209.149,189.978,207.678,193.96L207.678,193.96z"/>
	</g>
</g>
<g>
	<g>
		<path fill="#FDBD56" d="M394.213,222.064c8.115,4.434,15.914,9.523,23.473,14.836c13.069,9.186,26.691,19.923,34.993,33.822
			c3.263,5.463,5.369,11.842,3.652,18.163c-1.627,5.994-6.073,12.091-9.052,17.508c-9.632,17.512-21.533,33.785-37.488,46.066
			c-8.045,6.192-17.028,11.178-26.444,14.947c-3.926,1.572-2.214,8.001,1.767,6.407c21.289-8.524,38.856-22.495,52.823-40.582
			c5.501-7.125,10.239-14.81,14.622-22.661c3.208-5.749,6.971-11.674,9.42-17.792c5.447-13.607-3.638-27.334-12.359-37.171
			c-10.608-11.964-23.943-21.64-37.278-30.331c-4.818-3.14-9.727-6.192-14.776-8.951
			C393.806,214.271,390.453,220.009,394.213,222.064L394.213,222.064z"/>
	</g>
</g>
</svg>
