<?xml version="1.0" encoding="utf-8"?>
<!-- Generator: Adobe Illustrator 16.0.0, SVG Export Plug-In . SVG Version: 6.00 Build 0)  -->
<!DOCTYPE svg PUBLIC "-//W3C//DTD SVG 1.1//EN" "http://www.w3.org/Graphics/SVG/1.1/DTD/svg11.dtd">
<svg version="1.1" id="Layer_1" xmlns="http://www.w3.org/2000/svg" xmlns:xlink="http://www.w3.org/1999/xlink" x="0px" y="0px"
	 width="841.89px" height="595.28px" viewBox="0 0 841.89 595.28" enable-background="new 0 0 841.89 595.28" xml:space="preserve">
<path fill="#FDBD56" d="M321.565,392.643c-4.185,2.207-46.63,13.204-91.712,7.114c-45.081-6.088-91.494-32.391-92.026-41.208
	c-1.139-18.791,29.096-202.261,42.108-226.945c9.058-17.185,54.874-62.915,108.742-48.652c0,0,69.659,28.124,66.761,95.858
	C352.541,246.479,329.985,388.2,321.565,392.643z"/>
<g>
	<g>
		<path fill="#FDBD56" d="M191.628,365.976c-8.706,17.141-17.411,34.283-26.117,51.424c-3.434,6.761-6.867,13.521-10.301,20.282
			c-0.146,0.287,1.058-0.848,0.293-0.373c-0.522,0.324-1.44,0.468-2.703,0.398c-7.327-0.406-14.315-8.921-18.723-13.794
			c-2.88-3.184-7.564,1.53-4.698,4.698c5.619,6.211,19.943,21.567,29.959,14.109c1.461-1.088,2.015-2.485,2.826-4.083
			c2.111-4.156,4.222-8.313,6.333-12.469c9.623-18.946,19.244-37.893,28.867-56.839
			C199.301,365.518,193.568,362.154,191.628,365.976L191.628,365.976z"/>
	</g>
</g>
<g>
	<g>
		<path fill="#FDBD56" d="M277.132,368.932c1.807,21.173,3.614,42.345,5.422,63.518c0.385,4.507,0.77,9.014,1.154,13.521
			c0.149,1.743,0.05,3.819,0.919,5.384c6.291,11.332,26.056,2.021,33.685-1.67c3.856-1.866,0.485-7.595-3.354-5.737
			c-6.26,3.029-14.73,7.275-21.98,5.596c-1.285-0.298-1.994-0.788-2.657-1.542c0.559,0.634,0.035-0.005-0.076-0.224
			c-0.341-0.672,0.461,2.339,0.372,1.286c-0.646-7.555-1.29-15.11-1.935-22.666c-1.635-19.155-3.27-38.311-4.906-57.466
			C283.414,364.696,276.767,364.66,277.132,368.932L277.132,368.932z"/>
	</g>
</g>
<path fill="#FFFFFF" stroke="#FFFFFF" stroke-width="2.4614" stroke-miterlimit="10" d="M263.64,322.156
	c-1.763,15.655-15.889,26.915-31.542,25.148c-15.654-1.765-26.915-15.887-25.152-31.541c1.77-15.657,15.892-26.915,31.546-25.148
	C254.146,292.381,265.404,306.502,263.64,322.156z"/>
<circle fill="#FFFFFF" cx="302.451" cy="219.804" r="30.613"/>
<path d="M310.974,221.378c-2.578,13.889-11.135,23.949-19.112,22.468c-7.979-1.48-13.472-14.146-10.894-28.035
	c2.577-13.89,12.047-22.661,20.024-21.181C308.971,196.112,313.55,207.489,310.974,221.378z"/>
<path fill="#FFFFFF" d="M305.477,196.713c-0.098,1.407-0.945,2.492-1.893,2.427c-0.944-0.065-1.632-1.259-1.535-2.666
	c0.099-1.406,0.946-2.492,1.892-2.427C304.887,194.113,305.576,195.307,305.477,196.713z"/>
<path opacity="0.65" fill="#FFFFFF" d="M289.338,233.475c0,0,2.615,3.121,7.329,0.51
	C296.667,233.985,292.386,241.215,289.338,233.475z"/>
<circle fill="#FFFFFF" cx="209.649" cy="203.137" r="30.613"/>
<path d="M231.932,207.038c-2.577,13.89-11.135,23.948-19.113,22.467c-7.98-1.48-13.468-14.146-10.892-28.035
	c2.578-13.888,12.046-22.661,20.022-21.181C229.929,181.77,234.51,193.149,231.932,207.038z"/>
<path opacity="0.65" fill="#FFFFFF" d="M210.049,222.748c0,0,2.243,3.396,7.223,1.34
	C217.271,224.088,212.197,230.784,210.049,222.748z"/>
<g>
	<path fill="#E1A046" d="M193.244,162.082c2.307-1.333,4.73-2.426,7.193-3.471c2.476-1.008,5.024-1.868,7.662-2.511
		c1.318-0.322,2.647-0.665,4.013-0.917c1.365-0.244,2.776-0.303,4.188-0.137c1.408,0.175,2.825,0.514,4.147,1.128
		c1.317,0.596,2.563,1.451,3.416,2.628l-0.201,0.321c-1.383-0.218-2.623-0.318-3.855-0.357c-1.233-0.021-2.443,0.014-3.662,0.073
		c-1.218,0.062-2.442,0.096-3.697,0.087c-1.254-0.016-2.533,0.012-3.803,0.161c-2.54,0.304-5.094,0.769-7.639,1.334
		c-2.555,0.538-5.085,1.242-7.605,2.006L193.244,162.082z"/>
</g>
<g>
	<path fill="#E1A046" d="M326.277,180.992c-2.248-1.37-4.521-2.686-6.861-3.845c-2.322-1.185-4.678-2.274-7.061-3.203
		c-1.193-0.462-2.423-0.81-3.642-1.107c-1.217-0.305-2.394-0.645-3.558-1.009c-1.165-0.363-2.328-0.699-3.527-0.987
		c-1.203-0.271-2.429-0.484-3.822-0.619l-0.114-0.362c1.12-0.926,2.54-1.441,3.965-1.689c1.434-0.263,2.89-0.237,4.297-0.054
		c1.407,0.192,2.759,0.603,4.02,1.18c1.259,0.585,2.46,1.249,3.656,1.892c2.393,1.282,4.646,2.753,6.79,4.348
		c2.123,1.627,4.195,3.292,6.096,5.16L326.277,180.992z"/>
</g>
<g>
	<path fill="#594A42" d="M274.798,68.491c0.079-0.793,0.306-1.597,0.729-2.331c0.429-0.727,1.082-1.357,1.875-1.768
		c1.603-0.837,3.609-0.708,5.25,0.143c1.653,0.84,2.952,2.638,3.116,4.642c0.198,2.007-0.599,3.839-1.539,5.329
		c-0.136,0.201-0.217,0.337-0.403,0.587c-0.126,0.163-0.214,0.299-0.411,0.518c-0.356,0.418-0.677,0.708-1.042,1.029
		c-0.724,0.602-1.505,1.065-2.276,1.472c-1.549,0.798-3.085,1.356-4.522,1.944c-1.432,0.586-2.8,1.144-3.93,1.894
		c-0.563,0.372-1.066,0.783-1.497,1.238c-0.179,0.185-0.513,0.571-0.737,0.831c-0.229,0.276-0.459,0.548-0.686,0.845
		c-1.837,2.292-3.257,4.878-3.564,7.528c-0.169,1.319-0.024,2.645,0.416,3.907c0.453,1.256,1.183,2.453,2.108,3.541
		c1.888,2.158,4.479,3.858,7.272,5.13c2.794,1.317,5.83,2.187,8.954,2.863c-3.198,0.164-6.446-0.221-9.603-1.116
		c-3.13-0.94-6.241-2.394-8.766-4.831c-1.261-1.205-2.363-2.672-3.064-4.378c-0.71-1.695-1.028-3.594-0.897-5.435
		c0.124-1.847,0.675-3.602,1.409-5.201c0.762-1.59,1.71-3.044,2.767-4.371c0.262-0.329,0.548-0.659,0.834-0.987
		c0.301-0.333,0.486-0.547,0.86-0.932c0.673-0.686,1.423-1.265,2.192-1.752c1.549-0.961,3.143-1.605,4.677-2.132
		c3.055-1.046,5.965-1.84,7.493-3.886c0.857-1.088,1.438-2.319,1.481-3.518c0.066-1.195-0.532-2.396-1.609-3.177
		c-1.05-0.804-2.532-1.152-3.882-0.758C276.428,65.727,275.34,66.991,274.798,68.491z"/>
</g>
<ellipse transform="matrix(0.9832 0.1825 -0.1825 0.9832 38.2145 -38.5269)" fill="#FFFFFF" cx="228.427" cy="188.359" rx="1.718" ry="2.552"/>
<g>
	<g>
		<path fill="#FDBD56" d="M172.891,164.671c-15.951,21.321-31.143,43.477-44.373,66.591c-6.352,11.097-14.841,24.632-15.24,37.838
			c-0.139,4.612,3.219,9.459,5.55,13.167c4.323,6.875,9.381,13.305,14.422,19.661c18.655,23.518,39.179,45.464,58.897,68.074
			c2.821,3.235,7.501-1.484,4.698-4.698c-12.161-13.944-24.609-27.634-36.738-41.608c-12.267-14.132-24.887-28.39-35.113-44.11
			c-2.402-3.693-5.331-8.038-4.98-12.022c0.517-5.874,3.436-11.839,5.896-17.094c7.466-15.953,17.136-30.931,26.847-45.586
			c8.287-12.506,16.882-24.844,25.871-36.858C181.198,164.59,175.425,161.284,172.891,164.671L172.891,164.671z"/>
	</g>
</g>
<g>
	<g>
		<path fill="#FDBD56" d="M343.851,244.667c6.519,6.559,12.548,13.656,18.283,20.9c9.916,12.524,19.873,26.715,23.876,42.394
			c1.579,6.187,1.71,12.864-1.737,18.441c-3.323,5.378-9.498,10.075-13.979,14.493c-14.683,14.474-31.319,26.832-50.842,33.922
			c-8.851,3.214-18.135,5.153-27.498,6.022c-4.229,0.393-4.267,7.041,0,6.645c23.31-2.164,44.772-10.917,63.48-24.884
			c7.191-5.368,13.854-11.384,20.238-17.679c4.688-4.622,10.032-9.22,13.921-14.546c8.547-11.704,2.5-28.231-3.146-39.717
			c-7.006-14.254-16.995-27.115-27.312-39.109c-3.406-3.961-6.903-7.873-10.587-11.58
			C345.525,236.926,340.828,241.625,343.851,244.667L343.851,244.667z"/>
	</g>
</g>
</svg>
