<?xml version="1.0" encoding="utf-8"?>
<!-- Generator: Adobe Illustrator 16.0.0, SVG Export Plug-In . SVG Version: 6.00 Build 0)  -->
<!DOCTYPE svg PUBLIC "-//W3C//DTD SVG 1.1//EN" "http://www.w3.org/Graphics/SVG/1.1/DTD/svg11.dtd">
<svg version="1.1" id="Layer_1" xmlns="http://www.w3.org/2000/svg" xmlns:xlink="http://www.w3.org/1999/xlink" x="0px" y="0px"
	 width="841.89px" height="595.28px" viewBox="0 0 841.89 595.28" enable-background="new 0 0 841.89 595.28" xml:space="preserve">
<path fill="#FDBD56" d="M289.443,374.298c-3.593,3.077-42.56,23.18-87.873,27.202c-45.311,4.023-96.39-11.375-98.855-19.856
	c-5.264-18.074-16.313-203.69-9.076-230.64c5.038-18.762,39.617-73.484,95.305-71.476c0,0,74.152,12.038,86.292,78.739
	C287.359,224.903,296.674,368.105,289.443,374.298z"/>
<g>
	<g>
		<path fill="#FDBD56" d="M156.79,377.117c-4.703,18.641-9.406,37.282-14.108,55.923c-1.855,7.352-3.71,14.705-5.564,22.057
			c-0.092,0.361,1.082-1.38,0.158-0.469c-0.108,0.107-1.23,0.767-2.287,0.89c-7.625,0.888-15.802-5.292-21.585-9.357
			c-3.515-2.47-6.829,3.294-3.354,5.737c6.928,4.869,24.162,16.537,32.321,7.004c1.163-1.359,1.383-2.955,1.811-4.646
			c1.14-4.52,2.28-9.041,3.421-13.561c5.198-20.604,10.396-41.208,15.594-61.812C164.245,374.727,157.838,372.965,156.79,377.117
			L156.79,377.117z"/>
	</g>
</g>
<g>
	<g>
		<path fill="#FDBD56" d="M240.906,361.14c6.44,20.25,12.881,40.5,19.322,60.75c1.37,4.311,2.741,8.621,4.112,12.931
			c0.55,1.727,0.893,3.597,2.128,4.979c8.604,9.624,25.987-4.045,32.484-9.229c3.35-2.672-1.385-7.341-4.697-4.698
			c-5.516,4.4-12.775,10.269-20.275,10.233c-0.68-0.003-1.305-0.175-1.947-0.388c0.297,0.098-1.213-0.83-0.444-0.217
			c-1.186-0.946,0.18,0.762,0.1,0.512c-2.298-7.226-4.597-14.451-6.895-21.677c-5.827-18.321-11.654-36.642-17.481-54.962
			C246.02,355.306,239.604,357.045,240.906,361.14L240.906,361.14z"/>
	</g>
</g>
<path fill="#FFFFFF" stroke="#FFFFFF" stroke-width="2.4614" stroke-miterlimit="10" d="M217.376,318.352
	c1.739,15.657-9.548,29.759-25.206,31.496c-15.657,1.737-29.761-9.547-31.5-25.204c-1.732-15.661,9.553-29.76,25.211-31.496
	C201.539,291.41,215.639,302.695,217.376,318.352z"/>
<circle fill="#FFFFFF" cx="232.614" cy="209.954" r="30.613"/>
<path d="M241.273,209.606c0.555,14.115-5.568,25.817-13.676,26.136c-8.108,0.319-16.264-10.819-16.818-24.936
	c-0.556-14.116,6.742-24.763,14.85-25.082C233.737,185.407,240.718,195.491,241.273,209.606z"/>
<path fill="#FFFFFF" d="M230.463,186.765c0.216,1.394-0.371,2.639-1.31,2.785c-0.935,0.145-1.871-0.867-2.087-2.26
	c-0.213-1.394,0.373-2.64,1.309-2.785C229.313,184.36,230.249,185.372,230.463,186.765z"/>
<path opacity="0.65" fill="#FFFFFF" d="M222.846,226.184c0,0,3.24,2.465,7.26-1.122
	C230.105,225.063,227.529,233.059,222.846,226.184z"/>
<circle fill="#FFFFFF" cx="138.423" cy="214.203" r="30.613"/>
<path d="M161.017,213.084c0.557,14.116-5.568,25.816-13.677,26.135c-8.109,0.319-16.261-10.82-16.816-24.936
	c-0.555-14.115,6.741-24.762,14.848-25.081C153.48,188.883,160.463,198.969,161.017,213.084z"/>
<path opacity="0.65" fill="#FFFFFF" d="M143.146,233.241c0,0,2.938,2.816,7.341-0.289
	C150.486,232.952,147.017,240.604,143.146,233.241z"/>
<g>
	<path fill="#E1A046" d="M113.352,177.787c1.956-1.81,4.077-3.412,6.248-4.974c2.192-1.53,4.488-2.932,6.918-4.142
		c1.215-0.605,2.436-1.233,3.712-1.78c1.277-0.54,2.641-0.909,4.054-1.059c1.412-0.14,2.868-0.123,4.293,0.184
		c1.417,0.291,2.821,0.849,3.912,1.808l-0.125,0.358c-1.396,0.093-2.628,0.269-3.84,0.503c-1.207,0.252-2.379,0.553-3.555,0.881
		c-1.175,0.329-2.36,0.633-3.586,0.901c-1.228,0.262-2.469,0.571-3.674,0.998c-2.41,0.857-4.798,1.875-7.155,2.989
		c-2.373,1.089-4.686,2.335-6.974,3.637L113.352,177.787z"/>
</g>
<g>
	<path fill="#E1A046" d="M247.276,166.836c-2.495-0.839-5.003-1.62-7.542-2.234c-2.526-0.642-5.064-1.184-7.594-1.563
		c-1.266-0.188-2.543-0.254-3.798-0.275c-1.255-0.029-2.477-0.1-3.692-0.198c-1.217-0.097-2.426-0.167-3.658-0.184
		c-1.234,0.001-2.477,0.064-3.865,0.241l-0.191-0.328c0.888-1.15,2.159-1.967,3.493-2.523c1.341-0.574,2.767-0.87,4.18-1.002
		c1.415-0.124,2.823-0.022,4.182,0.263c1.357,0.292,2.676,0.674,3.983,1.037c2.617,0.722,5.14,1.659,7.584,2.741
		c2.43,1.118,4.818,2.284,7.085,3.686L247.276,166.836z"/>
</g>
<g>
	<path fill="#594A42" d="M172.213,68.49c-0.099-0.791-0.055-1.625,0.195-2.434c0.258-0.804,0.756-1.563,1.438-2.139
		c1.379-1.17,3.365-1.487,5.152-1.021c1.798,0.455,3.463,1.921,4.064,3.839c0.637,1.914,0.264,3.877-0.324,5.537
		c-0.088,0.226-0.137,0.377-0.264,0.661c-0.086,0.187-0.142,0.339-0.285,0.596c-0.256,0.487-0.505,0.839-0.79,1.233
		c-0.573,0.747-1.233,1.372-1.895,1.938c-1.334,1.121-2.709,2.004-3.98,2.896c-1.268,0.888-2.478,1.733-3.414,2.715
		c-0.468,0.488-0.867,1-1.186,1.539c-0.134,0.22-0.375,0.67-0.536,0.974c-0.162,0.32-0.326,0.636-0.481,0.976
		c-1.285,2.642-2.099,5.478-1.813,8.129c0.127,1.324,0.561,2.585,1.269,3.718c0.718,1.125,1.694,2.131,2.838,2.988
		c2.318,1.688,5.222,2.772,8.226,3.396c3.017,0.668,6.17,0.844,9.365,0.814c-3.082,0.867-6.335,1.209-9.612,1.034
		c-3.261-0.226-6.614-0.956-9.616-2.775c-1.495-0.896-2.895-2.084-3.955-3.593c-1.067-1.496-1.797-3.277-2.076-5.102
		c-0.287-1.829-0.138-3.662,0.226-5.384c0.392-1.719,0.995-3.346,1.732-4.874c0.183-0.379,0.39-0.763,0.595-1.146
		c0.221-0.392,0.354-0.642,0.634-1.098c0.505-0.818,1.107-1.549,1.751-2.194c1.298-1.28,2.71-2.26,4.089-3.113
		c2.749-1.695,5.411-3.113,6.449-5.446c0.597-1.25,0.892-2.579,0.669-3.758c-0.2-1.18-1.049-2.219-2.272-2.743
		c-1.2-0.552-2.724-0.564-3.952,0.119C173.191,65.434,172.409,66.907,172.213,68.49z"/>
</g>
<ellipse transform="matrix(0.9992 -0.0392 0.0392 0.9992 -7.5569 6.1713)" fill="#FFFFFF" cx="153.472" cy="195.642" rx="1.718" ry="2.552"/>
<g>
	<g>
		<path fill="#FDBD56" d="M94.373,184.134c-10.819,24.26-20.731,49.145-28.586,74.525c-3.889,12.567-9.027,27.489-6.838,40.829
			c0.737,4.492,4.885,8.401,7.908,11.483c5.669,5.781,12.005,10.932,18.306,16c23.611,18.993,48.698,36.035,73.153,53.898
			c3.467,2.532,6.775-3.237,3.354-5.737c-14.94-10.913-30.106-21.514-45.022-32.462c-15.087-11.074-30.526-22.209-43.974-35.284
			c-2.916-2.835-6.982-6.427-7.412-10.353c-0.665-6.068,0.699-12.392,1.985-18.285c3.757-17.208,9.878-33.953,16.111-50.391
			c5.218-13.761,10.757-27.428,16.753-40.87C101.84,183.61,96.116,180.227,94.373,184.134L94.373,184.134z"/>
	</g>
</g>
<g>
	<g>
		<path fill="#FDBD56" d="M278.578,225.114c7.831,4.972,15.31,10.574,22.505,16.416c12.415,10.079,25.185,21.623,32.563,36.048
			c2.917,5.704,4.413,12.18,2.284,18.379c-2.004,5.839-6.924,11.675-10.232,16.853c-10.775,16.868-23.764,32.21-40.504,43.427
			c-8.458,5.667-17.722,9.976-27.387,13.128c-4.055,1.322-2.319,7.739,1.766,6.407c21.807-7.111,40.54-20.119,55.535-37.388
			c5.825-6.708,10.992-13.977,15.817-21.427c3.562-5.5,7.678-11.137,10.509-17.052c6.346-13.257-2.066-27.602-10.101-37.959
			c-9.816-12.655-22.492-23.109-35.244-32.668c-4.603-3.449-9.3-6.816-14.157-9.9C278.303,217.073,274.973,222.825,278.578,225.114
			L278.578,225.114z"/>
	</g>
</g>
<g>
	<defs>
		<rect id="SVGID_1_" x="861.89" y="39.72" width="250.44" height="482"/>
	</defs>
	<clipPath id="SVGID_2_">
		<use xlink:href="#SVGID_1_"  overflow="visible"/>
	</clipPath>
	<g clip-path="url(#SVGID_2_)">
		<path fill="#FDBD56" d="M1018.262,388.07c-4.077,2.398-45.971,15.339-91.286,11.333c-45.312-4.004-92.89-28.14-93.826-36.922
			c-2.005-18.718,19.743-203.387,31.604-228.645c8.257-17.584,51.916-65.377,106.384-53.612c0,0,70.882,24.884,71.109,92.68
			C1042.469,240.635,1026.469,383.245,1018.262,388.07z"/>
		<g>
			<g>
				<path fill="#FDBD56" d="M887.307,367.286c-7.905,17.524-15.812,35.049-23.717,52.573c-3.118,6.912-6.236,13.824-9.354,20.735
					c-0.053,0.117,0.675-0.568,0.332-0.333c-0.736,0.506-1.38,0.611-2.659,0.599c-7.406-0.068-14.695-8.083-19.383-12.807
					c-3.021-3.044-7.718,1.655-4.697,4.698c6.369,6.419,21.045,20.722,31.101,12.487c1.132-0.927,1.567-2.453,2.149-3.742
					c1.917-4.25,3.834-8.499,5.751-12.748c8.738-19.37,17.477-38.739,26.216-58.109
					C894.791,366.767,889.066,363.386,887.307,367.286L887.307,367.286z"/>
			</g>
		</g>
		<g>
			<g>
				<path fill="#FDBD56" d="M859.313,167.059c-14.95,22.033-29.105,44.866-41.255,68.565c-5.814,11.341-13.768,25.303-13.558,38.481
					c0.074,4.66,3.542,9.277,6.073,12.919c4.636,6.669,9.954,12.884,15.283,19c19.718,22.633,41.231,43.609,61.97,65.287
					c2.967,3.101,7.659-1.604,4.699-4.698c-12.791-13.369-25.857-26.471-38.616-39.87c-12.896-13.543-26.206-27.198-37.138-42.421
					c-2.532-3.526-5.771-7.82-5.605-11.758c0.246-5.903,2.822-11.926,5.012-17.32c6.621-16.317,15.709-31.744,24.729-46.821
					c7.701-12.875,15.719-25.596,24.145-38.012C867.463,166.855,861.703,163.536,859.313,167.059L859.313,167.059z"/>
			</g>
		</g>
	</g>
</g>
</svg>
