<?xml version="1.0" encoding="utf-8"?>
<!-- Generator: Adobe Illustrator 16.0.0, SVG Export Plug-In . SVG Version: 6.00 Build 0)  -->
<!DOCTYPE svg PUBLIC "-//W3C//DTD SVG 1.1//EN" "http://www.w3.org/Graphics/SVG/1.1/DTD/svg11.dtd">
<svg version="1.1" id="Layer_1" xmlns="http://www.w3.org/2000/svg" xmlns:xlink="http://www.w3.org/1999/xlink" x="0px" y="0px"
	 width="841.89px" height="595.28px" viewBox="0 0 841.89 595.28" enable-background="new 0 0 841.89 595.28" xml:space="preserve">
<g>
	<defs>
		<rect id="SVGID_1_" y="39.72" width="250.44" height="482"/>
	</defs>
	<clipPath id="SVGID_2_">
		<use xlink:href="#SVGID_1_"  overflow="visible"/>
	</clipPath>
	<g clip-path="url(#SVGID_2_)">
		<path fill="#FDBD56" d="M156.372,388.07c-4.077,2.398-45.971,15.339-91.286,11.333c-45.312-4.004-92.89-28.14-93.826-36.922
			c-2.005-18.718,19.743-203.387,31.604-228.645c8.257-17.584,51.916-65.377,106.384-53.612c0,0,70.882,24.884,71.109,92.68
			C180.579,240.635,164.579,383.245,156.372,388.07z"/>
		<g>
			<g>
				<path fill="#FDBD56" d="M25.417,367.286C17.512,384.811,9.605,402.335,1.7,419.859c-3.118,6.912-6.236,13.824-9.354,20.735
					c-0.053,0.117,0.675-0.568,0.332-0.333c-0.736,0.506-1.38,0.611-2.659,0.599c-7.406-0.068-14.695-8.083-19.383-12.807
					c-3.021-3.044-7.718,1.655-4.697,4.698c6.369,6.419,21.045,20.722,31.101,12.487c1.132-0.927,1.567-2.453,2.149-3.742
					c1.917-4.25,3.834-8.499,5.751-12.748c8.738-19.37,17.477-38.739,26.216-58.109C32.901,366.767,27.177,363.386,25.417,367.286
					L25.417,367.286z"/>
			</g>
		</g>
		<g>
			<g>
				<path fill="#FDBD56" d="M110.89,366.279c2.781,21.067,5.563,42.134,8.344,63.2c0.592,4.484,1.185,8.969,1.776,13.453
					c0.218,1.646,0.202,3.92,1.089,5.358c6.844,11.09,25.92,1.112,33.522-3.009c3.768-2.042,0.413-7.779-3.354-5.737
					c-6.072,3.292-14.387,8.059-21.681,6.72c-1.281-0.235-2.242-0.809-2.764-1.349c-0.416-0.431,0.309,0.555-0.116-0.195
					c-0.435-0.768,0.482,2.267,0.368,1.4c-0.998-7.554-1.995-15.108-2.992-22.662c-2.517-19.06-5.033-38.12-7.549-57.179
					C116.981,362.095,110.33,362.041,110.89,366.279L110.89,366.279z"/>
			</g>
		</g>
		<path fill="#FFFFFF" stroke="#FFFFFF" stroke-width="2.4614" stroke-miterlimit="10" d="M95.261,320.329
			c-1.04,15.719-14.631,27.618-30.35,26.575c-15.719-1.042-27.62-14.629-26.58-30.348c1.047-15.721,14.635-27.618,30.354-26.574
			C84.405,291.022,96.302,304.61,95.261,320.329z"/>
		<circle fill="#FFFFFF" cx="129.313" cy="216.296" r="30.613"/>
		<path d="M137.899,217.477c-1.936,13.993-10.02,24.436-18.057,23.325c-8.039-1.111-14.109-13.51-12.174-27.504
			c1.934-13.993,10.989-23.192,19.026-22.081C134.733,192.329,139.833,203.482,137.899,217.477z"/>
		<path fill="#FFFFFF" d="M131.271,193.09c-0.032,1.411-0.829,2.533-1.778,2.511c-0.945-0.022-1.689-1.182-1.657-2.592
			c0.035-1.409,0.831-2.533,1.777-2.511C130.563,190.521,131.306,191.682,131.271,193.09z"/>
		<path opacity="0.65" fill="#FFFFFF" d="M116.845,230.557c0,0,2.756,2.997,7.344,0.172
			C124.188,230.729,120.247,238.148,116.845,230.557z"/>
		<circle fill="#FFFFFF" cx="35.842" cy="203.924" r="30.613"/>
		<path d="M58.28,206.793c-1.934,13.994-10.02,24.436-18.058,23.325c-8.039-1.111-14.105-13.51-12.171-27.504
			c1.934-13.992,10.988-23.191,19.024-22.081C55.115,181.645,60.216,192.801,58.28,206.793z"/>
		<path opacity="0.65" fill="#FFFFFF" d="M37.145,223.496c0,0,2.397,3.288,7.277,1.006
			C44.422,224.501,39.661,231.424,37.145,223.496z"/>
		<g>
			<path fill="#E1A046" d="M17.562,163.668c2.244-1.438,4.613-2.642,7.025-3.798c2.427-1.121,4.934-2.098,7.538-2.862
				c1.302-0.383,2.613-0.786,3.966-1.101c1.354-0.306,2.76-0.431,4.178-0.33c1.414,0.11,2.845,0.384,4.193,0.936
				c1.344,0.535,2.628,1.331,3.533,2.467l-0.186,0.331c-1.392-0.154-2.635-0.198-3.868-0.179c-1.232,0.036-2.44,0.126-3.655,0.242
				c-1.214,0.118-2.435,0.208-3.688,0.257c-1.254,0.042-2.529,0.128-3.792,0.336c-2.522,0.42-5.052,1.002-7.568,1.685
				c-2.527,0.655-5.022,1.475-7.504,2.354L17.562,163.668z"/>
		</g>
		<g>
			<path fill="#E1A046" d="M151.326,176.427c-2.31-1.265-4.642-2.474-7.032-3.525c-2.374-1.076-4.778-2.056-7.201-2.875
				c-1.213-0.407-2.458-0.697-3.689-0.938c-1.23-0.249-2.421-0.534-3.601-0.844c-1.181-0.309-2.358-0.591-3.569-0.824
				c-1.215-0.215-2.448-0.372-3.847-0.442l-0.131-0.356c1.076-0.976,2.472-1.557,3.883-1.87c1.42-0.329,2.876-0.37,4.29-0.252
				c1.415,0.127,2.784,0.475,4.07,0.994c1.285,0.527,2.516,1.134,3.739,1.721c2.449,1.171,4.768,2.537,6.983,4.031
				c2.196,1.527,4.343,3.096,6.327,4.874L151.326,176.427z"/>
		</g>
		<g>
			<path fill="#594A42" d="M94.717,66.418c0.042-0.796,0.232-1.609,0.62-2.361c0.396-0.746,1.019-1.406,1.792-1.853
				c1.563-0.91,3.573-0.873,5.251-0.099c1.69,0.763,3.07,2.5,3.326,4.493c0.29,1.996-0.421,3.863-1.292,5.394
				c-0.126,0.208-0.201,0.347-0.376,0.604c-0.117,0.169-0.199,0.309-0.387,0.537c-0.336,0.434-0.644,0.738-0.994,1.075
				c-0.695,0.635-1.454,1.134-2.205,1.575c-1.511,0.869-3.02,1.497-4.428,2.151c-1.404,0.651-2.744,1.271-3.838,2.072
				c-0.546,0.398-1.029,0.832-1.438,1.306c-0.171,0.194-0.487,0.594-0.699,0.865c-0.216,0.286-0.434,0.569-0.646,0.875
				c-1.729,2.375-3.028,5.024-3.214,7.685c-0.108,1.326,0.098,2.643,0.596,3.883c0.509,1.234,1.293,2.396,2.269,3.44
				c1.985,2.069,4.652,3.647,7.501,4.789c2.852,1.188,5.925,1.916,9.076,2.447c-3.188,0.311-6.449,0.077-9.645-0.671
				c-3.17-0.795-6.344-2.104-8.979-4.422c-1.314-1.146-2.484-2.561-3.263-4.232c-0.788-1.66-1.193-3.542-1.147-5.388
				c0.039-1.851,0.509-3.629,1.168-5.26c0.688-1.623,1.568-3.12,2.563-4.494c0.246-0.341,0.518-0.683,0.787-1.024
				c0.286-0.347,0.462-0.57,0.817-0.97c0.64-0.716,1.362-1.33,2.108-1.852c1.504-1.032,3.065-1.748,4.573-2.346
				c3.005-1.186,5.874-2.113,7.307-4.227c0.807-1.126,1.331-2.382,1.318-3.582c0.011-1.197-0.642-2.369-1.754-3.1
				c-1.086-0.754-2.583-1.034-3.913-0.578C96.217,63.582,95.188,64.895,94.717,66.418z"/>
		</g>
		
			<ellipse transform="matrix(0.9906 0.137 -0.137 0.9906 26.3132 -5.6126)" fill="#FFFFFF" cx="53.919" cy="188.297" rx="1.717" ry="2.551"/>
		<g>
			<g>
				<path fill="#FDBD56" d="M-2.577,167.059c-14.95,22.033-29.105,44.866-41.255,68.565c-5.814,11.341-13.768,25.303-13.558,38.481
					c0.074,4.66,3.542,9.277,6.073,12.919c4.636,6.669,9.954,12.884,15.283,19c19.718,22.633,41.231,43.609,61.97,65.287
					c2.967,3.101,7.659-1.604,4.699-4.698c-12.791-13.369-25.857-26.471-38.616-39.87c-12.896-13.543-26.206-27.198-37.138-42.421
					c-2.532-3.526-5.771-7.82-5.605-11.758c0.246-5.903,2.822-11.926,5.012-17.32c6.621-16.317,15.709-31.744,24.729-46.821
					c7.701-12.875,15.719-25.596,24.145-38.012C5.573,166.855-0.187,163.536-2.577,167.059L-2.577,167.059z"/>
			</g>
		</g>
		<g>
			<g>
				<path fill="#FDBD56" d="M171.702,239.119c6.814,6.251,13.164,13.063,19.228,20.036c10.478,12.046,21.149,25.729,25.872,41.208
					c1.852,6.071,2.413,12.793-0.768,18.514c-3.055,5.493-8.878,10.396-13.123,14.991c-13.688,14.818-29.223,27.587-47.787,35.8
					c-9.381,4.15-19.472,6.678-29.605,8.091c-4.229,0.59-2.422,6.991,1.766,6.407c22.974-3.205,43.692-13.136,61.594-27.707
					c6.948-5.656,13.298-12.012,19.371-18.587c4.414-4.777,9.538-9.57,13.135-15.004c8.01-12.104,1.383-28.262-4.818-39.534
					c-7.652-13.909-18.201-26.332-29.055-37.833c-3.586-3.799-7.259-7.546-11.109-11.08
					C173.251,231.53,168.539,236.216,171.702,239.119L171.702,239.119z"/>
			</g>
		</g>
	</g>
</g>
</svg>
