<?xml version="1.0" encoding="utf-8"?>
<!-- Generator: Adobe Illustrator 16.0.0, SVG Export Plug-In . SVG Version: 6.00 Build 0)  -->
<!DOCTYPE svg PUBLIC "-//W3C//DTD SVG 1.1//EN" "http://www.w3.org/Graphics/SVG/1.1/DTD/svg11.dtd">
<svg version="1.1" id="Layer_1" xmlns="http://www.w3.org/2000/svg" xmlns:xlink="http://www.w3.org/1999/xlink" x="0px" y="0px"
	 width="841.89px" height="595.28px" viewBox="0 0 841.89 595.28" enable-background="new 0 0 841.89 595.28" xml:space="preserve">
<path fill="#FCC04E" d="M532.436,479.572c-3.91,3.09-45.764,22.641-93.633,24.998c-47.868,2.357-101-15.969-103.248-24.998
	c-4.791-19.246-8.734-215.107,0-243.177c6.081-19.542,44.749-75.719,103.291-71.298c0,0,77.563,15.744,87.58,86.465
	C536.433,322.214,540.303,473.352,532.436,479.572z"/>
<g>
	<g>
		<path fill="#F8B74F" d="M528.767,326.109c-5.906-11.318-10.266-23.569-13.959-35.756c-3.704-12.222-6.359-24.782-7.701-37.484
			c-1.051-9.947-0.479-19.937-1.483-29.884c-1.816-17.985-5.508-35.722-6.474-53.803c-0.812-15.196-0.401-35.458,14.03-44.596
			c3.254-2.06,0.25-7.247-3.024-5.173c-14.374,9.101-17.124,26.796-17.188,42.537c-0.081,19.802,4.167,39.338,6.436,58.932
			c1.167,10.068,0.691,20.164,1.547,30.252c1.09,12.851,3.74,25.556,7.243,37.952c3.86,13.658,8.818,27.432,15.401,40.047
			C525.382,332.56,530.552,329.53,528.767,326.109L528.767,326.109z"/>
	</g>
</g>
<g>
	<g>
		<path fill="#FCC04E" d="M399.838,481.408c0,20.29,0,40.58,0,60.87c0,7.997,0,15.994,0,23.992c0-0.317,0.734-1.82-0.032-0.612
			c-0.096,0.152-1.188,1.077-2.398,1.5c-7.514,2.625-17.256-1.486-24.14-4.125c-4.222-1.618-6.031,5.151-1.86,6.75
			c8.509,3.262,28.614,10.546,34.75-1.12c0.859-1.633,0.68-3.298,0.68-5.083c0-4.791,0-9.582,0-14.373c0-22.6,0-45.199,0-67.799
			C406.838,476.895,399.838,476.895,399.838,481.408L399.838,481.408z"/>
	</g>
</g>
<g>
	<g>
		<path fill="#FCC04E" d="M443.664,481.408c0,22.324,0,44.649,0,66.974c0,4.791,0,9.583,0,14.374c0,2.021-0.205,3.889,0.613,5.767
			c5.264,12.1,26.974,4.268,34.817,1.261c4.17-1.599,2.361-8.368-1.86-6.75c-7.064,2.708-15.858,6.22-23.565,4.296
			c-1.353-0.337-2.238-0.878-3.027-1.736c0.523,0.569-0.141-0.248-0.254-0.463c-0.004-0.007,0.276,0.824,0.276,1.217
			c0-7.722,0-15.443,0-23.165c0-20.591,0-41.183,0-61.773C450.664,476.895,443.664,476.895,443.664,481.408L443.664,481.408z"/>
	</g>
</g>
<circle fill="#FFFFFF" cx="479.416" cy="304.209" r="32.252"/>
<path d="M488.547,304.203c0,14.883-6.93,26.947-15.48,26.947c-8.549,0-16.672-12.064-16.672-26.947
	c0-14.882,8.123-25.789,16.672-25.789C481.617,278.414,488.547,289.321,488.547,304.203z"/>
<ellipse fill="#FFFFFF" cx="481.361" cy="284.866" rx="1.811" ry="2.688"/>
<path opacity="0.65" fill="#FFFFFF" d="M468.898,324.683c0,0,2.977,3.088,7.74,0C476.639,324.683,472.67,332.595,468.898,324.683z"
	/>
<circle fill="#FFFFFF" cx="380.083" cy="304.782" r="32.252"/>
<path d="M403.914,304.539c0,14.883-6.931,26.947-15.48,26.947s-16.672-12.064-16.672-26.947c0-14.882,8.122-25.789,16.672-25.789
	S403.914,289.657,403.914,304.539z"/>
<path opacity="0.65" fill="#FFFFFF" d="M384.265,325.019c0,0,2.977,3.088,7.74,0C392.005,325.019,388.036,332.931,384.265,325.019z"
	/>
<g>
	<path fill="#E5A43B" d="M355.198,265.407c2.134-1.824,4.434-3.423,6.783-4.978c2.371-1.52,4.846-2.901,7.455-4.074
		c1.303-0.587,2.614-1.197,3.98-1.721c1.368-0.515,2.818-0.848,4.312-0.946c1.492-0.089,3.025-0.01,4.512,0.372
		c1.479,0.364,2.934,1.01,4.043,2.065l-0.147,0.372c-1.474,0.04-2.777,0.174-4.062,0.371c-1.281,0.215-2.528,0.483-3.779,0.78
		c-1.25,0.298-2.511,0.568-3.813,0.8c-1.303,0.224-2.622,0.499-3.909,0.897c-1.289,0.393-2.571,0.84-3.843,1.328
		c-1.28,0.469-2.552,0.979-3.813,1.522c-2.543,1.048-5.029,2.264-7.492,3.54L355.198,265.407z"/>
</g>
<g>
	<g>
		<path fill="#FFFFFF" d="M470.228,381.209c0.461,0.423,0.912,0.856,1.356,1.295c0.344,0.339,0.68,0.685,1.004,1.042
			c0.122,0.134,0.238,0.272,0.352,0.414c-0.14-0.175,0.008,0.024,0.029,0.057c0.101,0.155-0.045-0.271-0.049-0.3
			c0.065,0.568,0.429,1.05,1.05,1.05c0.523,0,1.116-0.479,1.05-1.05c-0.113-0.981-1.006-1.742-1.664-2.411
			c-0.534-0.541-1.084-1.067-1.644-1.581C470.717,378.811,469.229,380.292,470.228,381.209L470.228,381.209z"/>
	</g>
</g>
<g>
	<g>
		<path fill="#FFFFFF" d="M381.97,383.335c0.423-0.461,0.855-0.912,1.294-1.357c0.339-0.343,0.684-0.68,1.041-1.004
			c0.135-0.122,0.272-0.239,0.414-0.353c-0.174,0.141,0.024-0.008,0.057-0.029c0.155-0.1-0.271,0.046-0.3,0.049
			c0.568-0.065,1.05-0.428,1.05-1.05c0-0.522-0.48-1.115-1.05-1.05c-0.982,0.113-1.741,1.006-2.41,1.665
			c-0.541,0.533-1.067,1.084-1.58,1.645C379.573,382.847,381.054,384.336,381.97,383.335L381.97,383.335z"/>
	</g>
</g>
<g>
	<path fill="#E5A43B" d="M503.883,266.82c-2.464-1.275-4.949-2.492-7.493-3.54c-1.261-0.543-2.532-1.054-3.813-1.522
		c-1.272-0.487-2.553-0.935-3.842-1.328c-1.287-0.399-2.606-0.673-3.909-0.897c-1.302-0.232-2.563-0.502-3.813-0.801
		c-1.251-0.296-2.498-0.564-3.779-0.78c-1.284-0.197-2.588-0.331-4.063-0.371l-0.146-0.372c1.109-1.055,2.564-1.701,4.043-2.065
		c1.487-0.381,3.021-0.46,4.513-0.371c1.493,0.099,2.943,0.431,4.311,0.946c1.367,0.523,2.678,1.133,3.981,1.721
		c2.608,1.173,5.083,2.554,7.454,4.073c2.351,1.555,4.65,3.154,6.784,4.978L503.883,266.82z"/>
</g>
<g>
	<path fill="#EC6749" d="M445.398,414.527c4.496,6.185,13.854,7.033,20.922,1.894c7.068-5.138,9.15-14.3,4.656-20.485l-1.92-2.231
		C469.057,393.704,450.672,414.816,445.398,414.527z"/>
</g>
<g>
	<path fill="#634E42" d="M421.689,152.785c-0.071-0.837,0.01-1.713,0.307-2.554c0.305-0.835,0.86-1.614,1.603-2.192
		c1.499-1.175,3.602-1.426,5.466-0.861c0.937,0.291,1.825,0.814,2.555,1.541c0.73,0.726,1.278,1.666,1.564,2.668
		c0.591,2.042,0.118,4.092-0.57,5.815c-0.102,0.234-0.161,0.391-0.305,0.686c-0.099,0.193-0.164,0.351-0.326,0.615
		c-0.289,0.502-0.565,0.863-0.883,1.266c-0.634,0.762-1.355,1.393-2.074,1.962c-1.451,1.125-2.936,1.998-4.311,2.883
		c-1.371,0.882-2.673,1.734-3.692,2.731c-0.508,0.496-0.956,1.011-1.314,1.563c-0.152,0.226-0.426,0.688-0.609,1
		c-0.186,0.329-0.374,0.654-0.553,1.004c-1.463,2.727-2.437,5.679-2.246,8.482c0.079,1.399,0.483,2.745,1.182,3.967
		c0.709,1.214,1.696,2.313,2.864,3.263c2.37,1.873,5.382,3.135,8.519,3.916c3.148,0.828,6.46,1.144,9.825,1.244
		c-3.281,0.785-6.719,1.011-10.162,0.69c-3.423-0.373-6.924-1.28-10.008-3.319c-1.537-1.005-2.961-2.314-4.016-3.946
		c-1.062-1.619-1.756-3.524-1.975-5.457c-0.227-1.937,0.007-3.86,0.46-5.658c0.484-1.793,1.187-3.481,2.025-5.06
		c0.206-0.392,0.438-0.79,0.669-1.185c0.247-0.405,0.396-0.664,0.708-1.133c0.563-0.842,1.223-1.594,1.93-2.245
		c1.426-1.292,2.961-2.252,4.447-3.094c2.965-1.671,5.826-3.053,7.016-5.465c0.68-1.292,1.045-2.678,0.859-3.928
		c-0.161-1.25-1.012-2.379-2.278-2.982c-1.241-0.63-2.844-0.706-4.166-0.039C422.846,149.608,421.961,151.126,421.689,152.785z"/>
</g>
<ellipse fill="#FFFFFF" cx="396.695" cy="285.866" rx="1.81" ry="2.688"/>
<g>
	<g>
		<path fill="#FFFFFF" d="M469.271,380.467c-0.427,22.182-21.078,36.036-41.748,36.341c-20.672,0.305-41.329-14.608-41.747-36.341
			c-0.037-1.932-3.037-1.936-3,0c0.459,23.836,22.41,39.012,44.747,39.341c22.339,0.329,44.298-15.987,44.748-39.341
			C472.309,378.531,469.309,378.535,469.271,380.467L469.271,380.467z"/>
	</g>
</g>
<g>
	<path fill="#E5A43B" d="M478.189,384.307c2.17-2.062,2.02-5.738-0.338-8.22c-2.358-2.48-6.021-2.819-8.192-0.758
		C469.659,375.329,478.074,377.631,478.189,384.307z"/>
</g>
<g>
	<path fill="#E5A43B" d="M376.291,384.182c-2.072-2.161-1.75-5.827,0.722-8.195c2.471-2.367,6.146-2.534,8.219-0.373
		C385.231,375.613,376.717,377.519,376.291,384.182z"/>
</g>
<g>
	<g>
		<path fill="#F8B74F" d="M339.125,347.023c-13.898-26.662-21.34-60.151-16.86-89.954c1.741-11.581,5.811-22.363,11.695-32.451
			c6.909-11.846,13.079-24.104,18.29-36.791c8.631-21.018,13.1-43.184,14.29-65.829c0.203-3.863-5.79-3.843-5.991,0
			c-1.238,23.547-6.358,46.24-15.626,67.941c-5.534,12.959-12.758,24.888-19.309,37.316c-5.441,10.324-8.389,21.689-9.806,33.217
			c-3.656,29.752,4.332,63.073,18.146,89.572C335.739,353.475,340.909,350.444,339.125,347.023L339.125,347.023z"/>
	</g>
</g>
</svg>
