<?xml version="1.0" encoding="utf-8"?>
<!-- Generator: Adobe Illustrator 16.0.0, SVG Export Plug-In . SVG Version: 6.00 Build 0)  -->
<!DOCTYPE svg PUBLIC "-//W3C//DTD SVG 1.1//EN" "http://www.w3.org/Graphics/SVG/1.1/DTD/svg11.dtd">
<svg version="1.1" id="Layer_1" xmlns="http://www.w3.org/2000/svg" xmlns:xlink="http://www.w3.org/1999/xlink" x="0px" y="0px"
	 width="841.89px" height="595.28px" viewBox="0 0 841.89 595.28" enable-background="new 0 0 841.89 595.28" xml:space="preserve">
<path fill="#FCC04E" d="M527.325,379.354c-3.712,2.934-43.438,21.49-88.874,23.727c-45.436,2.238-95.867-15.157-98-23.727
	c-4.548-18.268-8.291-204.175,0-230.819c5.771-18.549,42.475-71.87,98.041-67.674c0,0,73.62,14.943,83.128,82.07
	C531.117,229.993,534.792,373.451,527.325,379.354z"/>
<g>
	<g>
		<path fill="#FCC04E" d="M515.782,222.053c14.907,11.758,27.394,27.541,37.119,43.695c9.268,15.394,15.719,32.346,18.449,50.128
			c3.352,21.833-0.428,44.043-8.771,64.337c-1.629,3.964,4.801,5.672,6.407,1.767c15.99-38.899,11.824-80.62-8.768-116.881
			c-10.035-17.671-23.674-35.07-39.739-47.743C517.155,214.732,512.419,219.401,515.782,222.053L515.782,222.053z"/>
	</g>
</g>
<g>
	<g>
		<path fill="#FCC04E" d="M401.467,381.096c0,19.226,0,38.451,0,57.677c0,7.583,0,15.165,0,22.748c0,0.367,0.696-1.649,0.023-0.54
			c-0.084,0.14-1.056,1.034-2.054,1.414c-7.147,2.715-16.62-1.309-23.188-3.823c-4.009-1.534-5.726,4.892-1.767,6.407
			c7.936,3.037,27.442,10.099,33.028-1.153c0.793-1.598,0.602-3.257,0.602-4.994c0-4.662,0-9.324,0-13.986c0-21.25,0-42.5,0-63.75
			C408.111,376.812,401.467,376.812,401.467,381.096L401.467,381.096z"/>
	</g>
</g>
<g>
	<g>
		<path fill="#FCC04E" d="M472.489,381.096c0,19.226,0,38.451,0,57.677c0,7.583,0,15.165,0,22.748c0,0.367,0.696-1.649,0.023-0.54
			c-0.084,0.14-1.056,1.034-2.054,1.414c-7.147,2.715-16.62-1.309-23.189-3.823c-4.009-1.534-5.726,4.892-1.767,6.407
			c7.935,3.036,27.443,10.099,33.028-1.153c0.793-1.598,0.602-3.257,0.602-4.994c0-4.662,0-9.324,0-13.986c0-21.25,0-42.5,0-63.75
			C479.134,376.812,472.489,376.812,472.489,381.096L472.489,381.096z"/>
	</g>
</g>
<circle fill="#FFFFFF" cx="477" cy="212.903" r="30.613"/>
<path d="M485.666,212.896c0,14.127-6.577,25.578-14.692,25.578c-8.114,0-15.825-11.451-15.825-25.578
	c0-14.126,7.711-24.478,15.825-24.478C479.089,188.418,485.666,198.771,485.666,212.896z"/>
<ellipse fill="#FFFFFF" cx="478.847" cy="194.542" rx="1.718" ry="2.552"/>
<path opacity="0.65" fill="#FFFFFF" d="M467.018,232.335c0,0,2.825,2.931,7.347,0C474.364,232.335,470.596,239.846,467.018,232.335z
	"/>
<circle fill="#FFFFFF" cx="382.715" cy="213.447" r="30.613"/>
<path d="M405.336,213.216c0,14.126-6.58,25.578-14.694,25.578s-15.823-11.451-15.823-25.578s7.709-24.479,15.823-24.479
	S405.336,199.09,405.336,213.216z"/>
<path opacity="0.65" fill="#FFFFFF" d="M386.686,232.655c0,0,2.825,2.93,7.346,0C394.031,232.655,390.264,240.165,386.686,232.655z"
	/>
<g>
	<path fill="#E5A43B" d="M359.096,176.072c2.025-1.73,4.207-3.248,6.438-4.724c2.252-1.442,4.601-2.753,7.076-3.868
		c1.237-0.557,2.482-1.135,3.779-1.632c1.297-0.489,2.674-0.805,4.092-0.898c1.416-0.084,2.871-0.009,4.283,0.353
		c1.402,0.345,2.785,0.958,3.838,1.96l-0.141,0.354c-1.398,0.038-2.636,0.165-3.855,0.352c-1.216,0.205-2.4,0.459-3.587,0.739
		c-1.187,0.284-2.384,0.54-3.618,0.761c-1.238,0.213-2.49,0.474-3.711,0.852c-2.441,0.762-4.867,1.685-7.268,2.705
		c-2.414,0.995-4.771,2.15-7.11,3.36L359.096,176.072z"/>
</g>
<g>
	<g>
		<path fill="#FFFFFF" d="M468.28,285.99c0.437,0.401,0.865,0.812,1.288,1.229c0.326,0.321,0.645,0.649,0.953,0.988
			c0.115,0.127,0.227,0.259,0.334,0.393c-0.133-0.166,0.008,0.023,0.028,0.054c0.095,0.147-0.043-0.258-0.046-0.285
			c0.062,0.54,0.406,0.997,0.997,0.997c0.496,0,1.059-0.456,0.997-0.997c-0.107-0.932-0.954-1.653-1.58-2.288
			c-0.506-0.514-1.028-1.014-1.56-1.501C468.744,283.713,467.331,285.119,468.28,285.99L468.28,285.99z"/>
	</g>
</g>
<g>
	<g>
		<path fill="#FFFFFF" d="M384.507,288.007c0.401-0.438,0.812-0.866,1.228-1.289c0.321-0.326,0.649-0.646,0.988-0.953
			c0.127-0.115,0.259-0.227,0.393-0.334c-0.166,0.133,0.023-0.008,0.054-0.028c0.146-0.095-0.257,0.043-0.285,0.046
			c0.54-0.062,0.997-0.406,0.997-0.997c0-0.496-0.456-1.059-0.997-0.997c-0.932,0.107-1.653,0.955-2.288,1.581
			c-0.514,0.506-1.013,1.029-1.5,1.561C382.231,287.543,383.637,288.957,384.507,288.007L384.507,288.007z"/>
	</g>
</g>
<g>
	<path fill="#E5A43B" d="M500.223,177.415c-2.338-1.211-4.697-2.366-7.111-3.36c-2.398-1.02-4.824-1.944-7.266-2.705
		c-1.223-0.379-2.475-0.64-3.711-0.852c-1.234-0.22-2.432-0.477-3.619-0.76c-1.188-0.281-2.371-0.535-3.588-0.74
		c-1.219-0.187-2.455-0.314-3.855-0.352l-0.139-0.354c1.053-1.001,2.434-1.614,3.838-1.96c1.411-0.362,2.866-0.437,4.282-0.352
		c1.417,0.093,2.794,0.41,4.093,0.898c1.297,0.496,2.541,1.075,3.778,1.633c2.476,1.113,4.825,2.424,7.075,3.866
		c2.23,1.476,4.414,2.994,6.439,4.725L500.223,177.415z"/>
</g>
<g>
	<path fill="#634E42" d="M422.207,69.175c-0.068-0.794,0.01-1.626,0.291-2.424c0.289-0.792,0.816-1.532,1.521-2.081
		c1.424-1.115,3.42-1.354,5.188-0.818c1.779,0.524,3.384,2.056,3.91,3.996c0.561,1.938,0.111,3.883-0.541,5.519
		c-0.097,0.223-0.152,0.372-0.289,0.651c-0.094,0.183-0.156,0.333-0.311,0.584c-0.273,0.476-0.537,0.818-0.838,1.201
		c-0.602,0.724-1.285,1.321-1.969,1.863c-1.377,1.067-2.785,1.895-4.092,2.737c-1.301,0.837-2.543,1.634-3.518,2.578
		c-0.484,0.47-0.904,0.965-1.244,1.492c-0.143,0.215-0.4,0.654-0.574,0.952c-0.174,0.313-0.351,0.623-0.52,0.956
		c-1.387,2.588-2.313,5.39-2.131,8.052c0.074,1.327,0.459,2.605,1.121,3.765c0.674,1.152,1.609,2.196,2.719,3.097
		c2.25,1.777,5.107,2.975,8.086,3.717c2.988,0.786,6.131,1.086,9.325,1.182c-3.114,0.745-6.378,0.959-9.646,0.655
		c-3.249-0.354-6.572-1.215-9.5-3.15c-1.458-0.954-2.811-2.197-3.811-3.746c-1.008-1.537-1.666-3.345-1.875-5.18
		c-0.214-1.838,0.008-3.664,0.438-5.371c0.46-1.702,1.127-3.305,1.924-4.802c0.197-0.371,0.418-0.747,0.639-1.122
		c0.236-0.383,0.38-0.628,0.676-1.073c0.537-0.798,1.168-1.504,1.836-2.124c1.348-1.229,2.797-2.152,4.208-2.95
		c2.813-1.586,5.53-2.898,6.659-5.188c0.645-1.226,0.992-2.542,0.814-3.729c-0.152-1.186-0.959-2.258-2.161-2.83
		c-1.179-0.599-2.7-0.67-3.954-0.036C423.305,66.159,422.466,67.601,422.207,69.175z"/>
</g>
<ellipse fill="#FFFFFF" cx="398.483" cy="195.491" rx="1.718" ry="2.551"/>
<g>
	<g>
		<path fill="#FFFFFF" d="M467.371,285.285c-0.423,21.065-19.993,34.192-39.625,34.494c-19.635,0.302-39.212-13.873-39.626-34.494
			c-0.037-1.834-2.884-1.837-2.848,0c0.455,22.632,21.258,37.015,42.474,37.341c21.217,0.326,42.028-15.188,42.473-37.341
			C470.255,283.448,467.408,283.451,467.371,285.285L467.371,285.285z"/>
	</g>
</g>
<g>
	<path fill="#E5A43B" d="M475.834,288.93c2.063-1.958,1.919-5.446-0.318-7.802c-2.238-2.354-5.717-2.676-7.776-0.719
		C467.739,280.408,475.727,282.593,475.834,288.93z"/>
</g>
<g>
	<path fill="#E5A43B" d="M379.115,288.811c-1.967-2.05-1.66-5.53,0.686-7.778c2.346-2.247,5.834-2.406,7.802-0.354
		C387.603,280.678,379.521,282.487,379.115,288.811z"/>
</g>
<g>
	<g>
		<path fill="#FCC04E" d="M333.19,227.181c-15.85,12.503-29.096,29.536-39.215,46.834c-21.197,36.234-25.349,78.727-9.292,117.791
			c1.606,3.906,8.037,2.197,6.407-1.767c-8.229-20.019-11.625-41.239-8.989-62.772c2.201-17.98,9.039-35.245,18.138-50.799
			c9.667-16.524,22.521-32.655,37.649-44.588C341.251,229.227,336.515,224.558,333.19,227.181L333.19,227.181z"/>
	</g>
</g>
</svg>
