<?xml version="1.0" encoding="utf-8"?>
<!-- Generator: Adobe Illustrator 16.0.0, SVG Export Plug-In . SVG Version: 6.00 Build 0)  -->
<!DOCTYPE svg PUBLIC "-//W3C//DTD SVG 1.1//EN" "http://www.w3.org/Graphics/SVG/1.1/DTD/svg11.dtd">
<svg version="1.1" id="Layer_1" xmlns="http://www.w3.org/2000/svg" xmlns:xlink="http://www.w3.org/1999/xlink" x="0px" y="0px"
	 width="841.89px" height="595.28px" viewBox="0 0 841.89 595.28" enable-background="new 0 0 841.89 595.28" xml:space="preserve">
<g>
	<defs>
		<rect id="SVGID_3_" y="63.439" width="278" height="465"/>
	</defs>
	<clipPath id="SVGID_2_">
		<use xlink:href="#SVGID_3_"  overflow="visible"/>
	</clipPath>
	<g clip-path="url(#SVGID_2_)">
		<path fill="#FCC04E" d="M112.261,434.371c-4.408,1.718-47.828,7.821-91.926-3.351c-44.096-11.171-87.222-42.577-86.747-51.396
			c1.002-18.799,51.885-197.646,67.617-220.692c10.953-16.044,61.667-56.273,113.565-35.983c0,0,66.014,35.856,55.439,102.823
			C159.642,292.673,121.131,430.914,112.261,434.371z"/>
		<g>
			<g>
				<path fill="#FCC04E" d="M70.788,406.143c-0.61,21.241-1.22,42.481-1.83,63.723c-0.13,4.521-0.259,9.043-0.389,13.564
					c-0.055,1.892-0.313,3.639,0.488,5.396c5.184,11.39,25.135,4.777,33.035,2.009c4.016-1.406,2.288-7.827-1.767-6.406
					c-6.82,2.389-15.154,5.412-22.45,3.392c-1.014-0.281-2.5-1.357-2.562-1.44c-0.785-1.045-0.173-0.435-0.195,0.343
					c0.211-7.343,0.422-14.686,0.633-22.028c0.56-19.517,1.121-39.034,1.681-58.552C77.555,401.855,70.911,401.867,70.788,406.143
					L70.788,406.143z"/>
			</g>
		</g>
		<path fill="#FFFFFF" stroke="#FFFFFF" stroke-width="2.4614" stroke-miterlimit="10" d="M62.718,357.76
			c-3.53,15.354-18.842,24.936-34.195,21.402C13.171,375.63,3.587,360.32,7.117,344.969c3.538-15.354,18.847-24.936,34.2-21.401
			C56.67,327.099,66.25,342.408,62.718,357.76z"/>
		<circle fill="#FFFFFF" cx="112.907" cy="260.479" r="30.613"/>
		<path d="M121.195,263.012c-4.139,13.506-13.783,22.528-21.541,20.151c-7.759-2.377-11.777-15.584-7.638-29.091
			c4.138-13.507,14.543-21.146,22.301-18.769C122.075,237.682,125.333,249.505,121.195,263.012z"/>
		<path fill="#FFFFFF" d="M118.536,237.882c-0.257,1.387-1.222,2.369-2.156,2.196c-0.93-0.172-1.48-1.436-1.223-2.823
			c0.259-1.386,1.224-2.368,2.155-2.196C118.246,235.232,118.794,236.497,118.536,237.882z"/>
		<path opacity="0.65" fill="#FFFFFF" d="M98.326,272.572c0,0,2.244,3.397,7.223,1.339
			C105.548,273.912,100.476,280.608,98.326,272.572z"/>
		<circle fill="#FFFFFF" cx="22.599" cy="233.377" r="30.613"/>
		<path d="M44.294,239.784c-4.138,13.508-13.783,22.527-21.542,20.15c-7.76-2.377-11.774-15.584-7.636-29.091
			c4.139-13.506,14.542-21.146,22.299-18.769C45.175,214.452,48.434,226.278,44.294,239.784z"/>
		<path opacity="0.65" fill="#FFFFFF" d="M20.768,252.906c0,0,1.843,3.628,7.024,2.152C27.792,255.059,21.99,261.135,20.768,252.906
			z"/>
		<g>
			<path fill="#E5A43B" d="M10.964,190.725c2.444-1.063,4.976-1.874,7.541-2.631c2.574-0.72,5.205-1.285,7.898-1.625
				c1.346-0.171,2.706-0.359,4.091-0.455c1.384-0.087,2.793,0.015,4.176,0.34c1.379,0.334,2.748,0.832,3.992,1.591
				c1.241,0.742,2.382,1.733,3.095,2.999l-0.237,0.297c-1.349-0.374-2.569-0.615-3.79-0.793c-1.223-0.161-2.429-0.264-3.647-0.343
				c-1.217-0.077-2.437-0.182-3.683-0.333c-1.245-0.159-2.518-0.276-3.797-0.272c-2.557,0.013-5.147,0.185-7.74,0.458
				c-2.6,0.244-5.194,0.657-7.784,1.129L10.964,190.725z"/>
		</g>
		<g>
			<path fill="#E5A43B" d="M140.989,224.625c-2.078-1.617-4.188-3.182-6.38-4.6c-2.173-1.44-4.39-2.791-6.652-3.984
				c-1.132-0.595-2.316-1.08-3.493-1.514c-1.175-0.441-2.305-0.912-3.42-1.407c-1.116-0.493-2.234-0.959-3.393-1.382
				c-1.165-0.406-2.358-0.757-3.728-1.05l-0.072-0.372c1.218-0.793,2.688-1.144,4.131-1.228c1.454-0.098,2.898,0.093,4.275,0.435
				c1.377,0.351,2.673,0.912,3.86,1.629c1.185,0.725,2.303,1.521,3.418,2.294c2.231,1.546,4.303,3.264,6.252,5.092
				c1.924,1.858,3.794,3.748,5.47,5.82L140.989,224.625z"/>
		</g>
		<g>
			<path fill="#634E42" d="M102.624,107.005c0.168-0.779,0.485-1.552,0.988-2.232c0.509-0.674,1.229-1.226,2.064-1.544
				c1.687-0.649,3.667-0.292,5.2,0.739c1.546,1.023,2.633,2.957,2.567,4.966c-0.031,2.017-1.031,3.746-2.134,5.119
				c-0.157,0.185-0.254,0.311-0.467,0.537c-0.144,0.148-0.246,0.273-0.467,0.468c-0.401,0.375-0.753,0.625-1.153,0.903
				c-0.787,0.516-1.617,0.888-2.428,1.204c-1.629,0.617-3.219,0.996-4.714,1.418c-1.489,0.419-2.911,0.817-4.119,1.435
				c-0.602,0.306-1.148,0.657-1.627,1.061c-0.199,0.164-0.575,0.509-0.827,0.742c-0.259,0.248-0.519,0.493-0.777,0.762
				c-2.085,2.069-3.79,4.477-4.396,7.074c-0.318,1.292-0.325,2.625-0.031,3.928c0.307,1.3,0.896,2.571,1.692,3.758
				c1.63,2.359,4.012,4.342,6.642,5.923c2.626,1.626,5.544,2.834,8.57,3.861c-3.196-0.2-6.378-0.951-9.414-2.199
				c-3.003-1.29-5.928-3.087-8.16-5.796c-1.115-1.34-2.044-2.923-2.547-4.698c-0.513-1.765-0.613-3.687-0.274-5.501
				c0.333-1.821,1.08-3.501,1.991-5.007c0.938-1.493,2.044-2.83,3.245-4.028c0.297-0.297,0.62-0.592,0.94-0.885
				c0.337-0.297,0.546-0.489,0.961-0.828c0.747-0.605,1.557-1.096,2.377-1.492c1.648-0.779,3.305-1.237,4.888-1.587
				c3.155-0.692,6.136-1.15,7.886-3.01c0.976-0.983,1.693-2.14,1.873-3.327c0.201-1.179-0.256-2.44-1.238-3.339
				c-0.951-0.917-2.385-1.432-3.771-1.193C104.557,104.443,103.333,105.576,102.624,107.005z"/>
		</g>
		
			<ellipse transform="matrix(0.9561 0.2929 -0.2929 0.9561 66.5724 -2.8898)" fill="#FFFFFF" cx="42.935" cy="220.829" rx="1.718" ry="2.552"/>
		<g>
			<g>
				<path fill="#FCC04E" d="M151.464,290.167c0.635,0.804,0.027,0.022,0.898,1.17c1.279,1.685,2.527,3.392,3.762,5.108
					c3.902,5.426,7.597,11,11.103,16.689c8.312,13.489,16.838,28.779,18.744,44.768c0.742,6.228,0.164,13.04-4.058,17.992
					c-4.333,5.083-10.917,9.164-16.164,13.256c-17.05,13.296-36.088,23.7-57.406,28.099c-8.069,1.664-16.316,2.182-24.54,2.009
					c-4.287-0.09-4.278,6.555,0,6.645c24.062,0.506,46.986-6.381,67.536-18.706c7.789-4.672,15.075-10.124,22.18-15.765
					c5.124-4.068,11.11-7.927,14.989-13.259c8.505-11.691,3.335-28.973-1.456-41.003c-5.774-14.499-13.991-28.006-22.87-40.793
					c-2.573-3.705-5.225-7.368-8.021-10.909C153.508,282.107,148.84,286.843,151.464,290.167L151.464,290.167z"/>
			</g>
		</g>
	</g>
</g>
<g>
	<defs>
		<rect id="SVGID_5_" x="861.89" y="63.439" width="190.11" height="478"/>
	</defs>
	<clipPath id="SVGID_4_">
		<use xlink:href="#SVGID_5_"  overflow="visible"/>
	</clipPath>
	<g clip-path="url(#SVGID_4_)">
		<path fill="#FCC04E" d="M908.311,434.371c-4.408,1.719-47.828,7.822-91.926-3.35c-44.096-11.172-87.222-42.578-86.747-51.396
			c1.002-18.799,51.885-197.646,67.617-220.692c10.953-16.044,61.667-56.273,113.565-35.983c0,0,66.014,35.856,55.439,102.823
			C955.691,292.673,917.181,430.914,908.311,434.371z"/>
		<g>
			<g>
				<path fill="#FCC04E" d="M782.035,393.43c-10.429,15.787-20.858,31.576-31.287,47.365c-4.32,6.539-8.641,13.08-12.962,19.621
					c-0.627,0.949,1.787-1.225,0.327-0.455c0.813-0.43-0.488,0.115-0.793,0.178c0.198-0.041-1.004-0.021-1.293-0.072
					c-7.396-1.264-13.323-10.021-17.274-15.539c-2.471-3.449-8.238-0.137-5.737,3.354c5.335,7.449,17.193,23.75,28.623,17.727
					c1.44-0.76,2.211-2.33,3.075-3.637c2.491-3.771,4.981-7.543,7.472-11.313c11.862-17.959,23.725-35.918,35.587-53.875
					C790.141,393.195,784.385,389.871,782.035,393.43L782.035,393.43z"/>
			</g>
		</g>
		<path fill="#FFFFFF" stroke="#FFFFFF" stroke-width="2.4614" stroke-miterlimit="10" d="M858.768,357.76
			c-3.53,15.354-18.842,24.936-34.195,21.402c-15.352-3.531-24.937-18.842-21.407-34.193c3.538-15.354,18.847-24.936,34.2-21.4
			C852.72,327.1,862.3,342.408,858.768,357.76z"/>
		<circle fill="#FFFFFF" cx="818.649" cy="233.378" r="30.613"/>
		<path d="M840.344,239.785c-4.138,13.508-13.783,22.527-21.542,20.15c-7.76-2.377-11.774-15.584-7.636-29.091
			c4.139-13.506,14.542-21.146,22.299-18.769C841.225,214.453,844.484,226.279,840.344,239.785z"/>
		<path opacity="0.65" fill="#FFFFFF" d="M816.818,252.907c0,0,1.843,3.628,7.024,2.152
			C823.842,255.059,818.04,261.136,816.818,252.907z"/>
		<g>
			<path fill="#E5A43B" d="M807.014,190.725c2.444-1.063,4.976-1.874,7.541-2.631c2.574-0.72,5.205-1.285,7.898-1.625
				c1.346-0.171,2.706-0.359,4.091-0.455c1.384-0.087,2.793,0.015,4.176,0.34c1.379,0.334,2.748,0.832,3.992,1.591
				c1.241,0.742,2.382,1.733,3.095,2.999l-0.237,0.297c-1.349-0.374-2.569-0.615-3.79-0.793c-1.223-0.161-2.429-0.264-3.647-0.343
				c-1.217-0.077-2.437-0.182-3.683-0.333c-1.245-0.159-2.518-0.276-3.797-0.272c-2.557,0.013-5.147,0.185-7.74,0.458
				c-2.6,0.244-5.194,0.657-7.784,1.129L807.014,190.725z"/>
		</g>
		
			<ellipse transform="matrix(0.9561 0.2929 -0.2929 0.9561 101.4939 -236.0823)" fill="#FFFFFF" cx="838.985" cy="220.829" rx="1.718" ry="2.552"/>
		<g>
			<g>
				<path fill="#FCC04E" d="M786.809,190.627c-18.226,19.325-35.743,39.572-51.54,60.934c-7.562,10.225-17.874,22.868-19.764,35.898
					c-0.692,4.776,1.786,9.659,3.755,13.852c3.442,7.328,7.72,14.283,11.993,21.148c15.862,25.484,33.76,49.619,50.781,74.324
					c2.414,3.502,8.175,0.184,5.737-3.354c-10.498-15.236-21.311-30.252-31.772-45.512c-10.594-15.453-21.451-31.074-29.949-47.811
					c-1.837-3.62-4.645-8.619-3.872-12.399c1.198-5.856,4.572-11.321,7.63-16.36c9.148-15.075,20.485-28.873,31.808-42.342
					c9.654-11.484,19.595-22.765,29.891-33.681C794.444,192.211,789.754,187.504,786.809,190.627L786.809,190.627z"/>
			</g>
		</g>
	</g>
</g>
</svg>
