<?xml version="1.0" encoding="utf-8"?>
<!-- Generator: Adobe Illustrator 16.0.0, SVG Export Plug-In . SVG Version: 6.00 Build 0)  -->
<!DOCTYPE svg PUBLIC "-//W3C//DTD SVG 1.1//EN" "http://www.w3.org/Graphics/SVG/1.1/DTD/svg11.dtd">
<svg version="1.1" id="Layer_1" xmlns="http://www.w3.org/2000/svg" xmlns:xlink="http://www.w3.org/1999/xlink" x="0px" y="0px"
	 width="841.89px" height="595.28px" viewBox="0 0 841.89 595.28" enable-background="new 0 0 841.89 595.28" xml:space="preserve">
<g>
	<defs>
		<rect id="SVGID_5_" y="63.439" width="190.11" height="478"/>
	</defs>
	<clipPath id="SVGID_2_">
		<use xlink:href="#SVGID_5_"  overflow="visible"/>
	</clipPath>
	<g clip-path="url(#SVGID_2_)">
		<path fill="#FCC04E" d="M46.42,434.371c-4.408,1.719-47.828,7.822-91.926-3.35c-44.096-11.172-87.222-42.578-86.747-51.396
			c1.002-18.799,51.885-197.646,67.617-220.692c10.953-16.044,61.667-56.273,113.565-35.983c0,0,66.014,35.856,55.439,102.823
			C93.801,292.673,55.291,430.914,46.42,434.371z"/>
		<g>
			<g>
				<path fill="#FCC04E" d="M4.947,406.143c-0.61,21.242-1.22,42.482-1.83,63.723c-0.129,4.521-0.259,9.043-0.389,13.564
					c-0.055,1.893-0.313,3.639,0.488,5.396c5.184,11.391,25.135,4.777,33.035,2.01c4.016-1.408,2.288-7.828-1.767-6.406
					c-6.82,2.389-15.154,5.412-22.45,3.391c-1.014-0.281-2.5-1.357-2.563-1.439c-0.784-1.045-0.172-0.436-0.194,0.342
					c0.21-7.342,0.421-14.686,0.632-22.027c0.56-19.518,1.121-39.035,1.681-58.553C11.715,401.855,5.07,401.867,4.947,406.143
					L4.947,406.143z"/>
			</g>
		</g>
		<circle fill="#FFFFFF" cx="47.066" cy="260.48" r="30.613"/>
		<path d="M55.354,263.013c-4.139,13.506-13.783,22.528-21.541,20.151c-7.759-2.377-11.777-15.584-7.638-29.091
			c4.138-13.507,14.543-21.146,22.301-18.769C56.235,237.682,59.493,249.505,55.354,263.013z"/>
		<path fill="#FFFFFF" d="M52.696,237.882c-0.257,1.387-1.222,2.369-2.156,2.196c-0.93-0.172-1.48-1.436-1.223-2.823
			c0.259-1.386,1.224-2.368,2.155-2.196C52.405,235.232,52.954,236.497,52.696,237.882z"/>
		<path opacity="0.65" fill="#FFFFFF" d="M32.485,272.573c0,0,2.244,3.397,7.223,1.339
			C39.708,273.912,34.635,280.609,32.485,272.573z"/>
		<g>
			<path fill="#E5A43B" d="M75.148,224.626c-2.078-1.617-4.188-3.182-6.38-4.6c-2.173-1.44-4.39-2.791-6.652-3.984
				c-1.132-0.595-2.316-1.08-3.493-1.514c-1.175-0.441-2.305-0.912-3.42-1.407c-1.116-0.493-2.234-0.959-3.393-1.382
				c-1.165-0.406-2.358-0.757-3.728-1.05l-0.072-0.372c1.218-0.793,2.688-1.144,4.131-1.228c1.454-0.098,2.898,0.093,4.275,0.435
				c1.377,0.351,2.673,0.912,3.86,1.629c1.185,0.725,2.303,1.521,3.418,2.294c2.231,1.546,4.303,3.264,6.252,5.092
				c1.924,1.858,3.794,3.748,5.47,5.82L75.148,224.626z"/>
		</g>
		<g>
			<path fill="#634E42" d="M36.784,107.005c0.168-0.779,0.485-1.552,0.988-2.232c0.509-0.674,1.229-1.226,2.064-1.544
				c1.687-0.649,3.667-0.292,5.2,0.739c1.546,1.023,2.633,2.957,2.567,4.966c-0.031,2.017-1.031,3.746-2.134,5.119
				c-0.157,0.185-0.254,0.311-0.467,0.537c-0.144,0.148-0.246,0.273-0.467,0.468c-0.401,0.375-0.753,0.625-1.153,0.903
				c-0.787,0.516-1.617,0.888-2.428,1.204c-1.629,0.617-3.219,0.996-4.714,1.418c-1.489,0.419-2.911,0.817-4.119,1.435
				c-0.602,0.306-1.148,0.657-1.627,1.061c-0.199,0.164-0.575,0.509-0.827,0.742c-0.259,0.248-0.519,0.493-0.777,0.762
				c-2.085,2.069-3.79,4.477-4.396,7.074c-0.318,1.292-0.325,2.625-0.031,3.928c0.307,1.3,0.896,2.571,1.692,3.758
				c1.63,2.359,4.012,4.342,6.642,5.923c2.626,1.626,5.544,2.834,8.57,3.861c-3.196-0.2-6.378-0.951-9.414-2.199
				c-3.003-1.29-5.928-3.087-8.16-5.796c-1.115-1.34-2.044-2.923-2.547-4.698c-0.513-1.765-0.613-3.687-0.274-5.501
				c0.333-1.821,1.08-3.501,1.991-5.007c0.938-1.493,2.044-2.83,3.245-4.028c0.297-0.297,0.62-0.592,0.94-0.885
				c0.337-0.297,0.546-0.489,0.961-0.828c0.747-0.605,1.557-1.096,2.377-1.492c1.648-0.779,3.305-1.237,4.888-1.587
				c3.155-0.692,6.136-1.15,7.886-3.01c0.976-0.983,1.693-2.14,1.873-3.327c0.201-1.179-0.256-2.44-1.238-3.339
				c-0.951-0.917-2.385-1.432-3.771-1.193C38.716,104.444,37.492,105.576,36.784,107.005z"/>
		</g>
		<g>
			<g>
				<path fill="#FCC04E" d="M85.624,290.167c0.635,0.804,0.027,0.022,0.898,1.17c1.279,1.685,2.527,3.392,3.762,5.108
					c3.902,5.425,7.597,11,11.103,16.689c8.312,13.49,16.838,28.779,18.744,44.768c0.742,6.229,0.164,13.041-4.058,17.992
					c-4.333,5.084-10.916,9.164-16.164,13.256c-17.05,13.297-36.088,23.701-57.406,28.1c-8.069,1.664-16.316,2.182-24.54,2.008
					c-4.287-0.09-4.278,6.555,0,6.645c24.062,0.506,46.986-6.381,67.536-18.705c7.789-4.672,15.075-10.125,22.18-15.766
					c5.124-4.068,11.11-7.926,14.989-13.258c8.505-11.691,3.335-28.973-1.456-41.004c-5.774-14.498-13.991-28.006-22.87-40.792
					c-2.573-3.705-5.224-7.368-8.021-10.909C87.667,282.107,83,286.844,85.624,290.167L85.624,290.167z"/>
			</g>
		</g>
	</g>
</g>
<g>
	<defs>
		<rect id="SVGID_7_" x="862.736" y="82.439" width="200.374" height="477"/>
	</defs>
	<clipPath id="SVGID_4_">
		<use xlink:href="#SVGID_7_"  overflow="visible"/>
	</clipPath>
	<g clip-path="url(#SVGID_4_)">
		<path fill="#FCC04E" d="M861.11,459.564c-4.407,1.719-47.827,7.822-91.927-3.35c-44.096-11.172-87.221-42.578-86.746-51.396
			c1.002-18.799,51.885-197.646,67.617-220.692c10.952-16.044,61.666-56.273,113.564-35.983c0,0,66.014,35.856,55.439,102.823
			C908.491,317.867,869.98,456.107,861.11,459.564z"/>
		<g>
			<g>
				<path fill="#FCC04E" d="M734.833,418.623c-10.429,15.787-20.857,31.576-31.286,47.365c-4.321,6.541-8.642,13.082-12.962,19.623
					c-0.627,0.949,1.786-1.227,0.326-0.457c0.813-0.428-0.487,0.115-0.793,0.178c0.197-0.041-1.004-0.021-1.293-0.07
					c-7.396-1.264-13.322-10.023-17.273-15.539c-2.472-3.451-8.238-0.139-5.738,3.354c5.336,7.447,17.193,23.748,28.623,17.725
					c1.44-0.758,2.211-2.33,3.074-3.637c2.491-3.771,4.981-7.541,7.473-11.313c11.862-17.959,23.725-35.916,35.588-53.875
					C742.941,418.389,737.184,415.064,734.833,418.623L734.833,418.623z"/>
			</g>
		</g>
		<g>
			<g>
				<path fill="#FCC04E" d="M819.636,431.336c-0.609,21.242-1.219,42.482-1.828,63.723c-0.131,4.521-0.26,9.043-0.39,13.564
					c-0.055,1.893-0.313,3.639,0.487,5.396c5.184,11.391,25.136,4.777,33.035,2.01c4.017-1.406,2.289-7.826-1.766-6.406
					c-6.82,2.389-15.154,5.412-22.45,3.391c-1.014-0.281-2.5-1.357-2.563-1.439c-0.784-1.045-0.173-0.436-0.194,0.342
					c0.211-7.342,0.421-14.686,0.632-22.027c0.561-19.518,1.12-39.035,1.681-58.553
					C826.404,427.049,819.759,427.061,819.636,431.336L819.636,431.336z"/>
			</g>
		</g>
		<path fill="#FFFFFF" stroke="#FFFFFF" stroke-width="2.4614" stroke-miterlimit="10" d="M811.568,382.953
			c-3.531,15.354-18.842,24.936-34.195,21.402c-15.352-3.531-24.937-18.842-21.406-34.193c3.537-15.354,18.847-24.936,34.199-21.4
			C805.519,352.293,815.099,367.602,811.568,382.953z"/>
		<circle fill="#FFFFFF" cx="861.756" cy="285.674" r="30.613"/>
		<path d="M870.044,288.207c-4.139,13.506-13.783,22.528-21.541,20.151c-7.76-2.377-11.777-15.584-7.639-29.091
			s14.543-21.146,22.301-18.769C870.924,262.876,874.182,274.699,870.044,288.207z"/>
		<circle fill="#FFFFFF" cx="771.449" cy="258.572" r="30.613"/>
		<path d="M793.144,264.979c-4.139,13.508-13.783,22.527-21.543,20.15s-11.773-15.584-7.635-29.091
			c4.139-13.506,14.541-21.146,22.299-18.769C794.025,239.646,797.283,251.473,793.144,264.979z"/>
		<path opacity="0.65" fill="#FFFFFF" d="M769.617,278.101c0,0,1.844,3.628,7.025,2.152
			C776.642,280.253,770.839,286.33,769.617,278.101z"/>
		<g>
			<path fill="#E5A43B" d="M759.813,215.919c2.444-1.063,4.976-1.874,7.54-2.631c2.574-0.72,5.205-1.285,7.898-1.625
				c1.346-0.171,2.705-0.359,4.092-0.455c1.384-0.087,2.793,0.015,4.176,0.34c1.379,0.334,2.748,0.832,3.992,1.591
				c1.24,0.742,2.381,1.733,3.095,2.999l-0.237,0.297c-1.349-0.374-2.568-0.615-3.789-0.793c-1.223-0.161-2.43-0.264-3.647-0.343
				c-1.218-0.077-2.437-0.182-3.683-0.333c-1.244-0.159-2.518-0.276-3.797-0.272c-2.558,0.013-5.148,0.185-7.74,0.458
				c-2.6,0.244-5.194,0.657-7.784,1.129L759.813,215.919z"/>
		</g>
		<g>
			<path fill="#634E42" d="M851.473,132.199c0.168-0.779,0.485-1.552,0.988-2.232c0.509-0.674,1.229-1.226,2.063-1.544
				c1.688-0.649,3.667-0.292,5.201,0.739c1.546,1.023,2.633,2.957,2.566,4.966c-0.031,2.017-1.03,3.746-2.134,5.119
				c-0.157,0.185-0.255,0.311-0.467,0.537c-0.144,0.148-0.246,0.273-0.468,0.468c-0.4,0.375-0.752,0.625-1.152,0.903
				c-0.787,0.516-1.617,0.888-2.428,1.204c-1.63,0.617-3.22,0.996-4.715,1.418c-1.488,0.419-2.91,0.817-4.119,1.435
				c-0.602,0.306-1.148,0.657-1.627,1.061c-0.199,0.164-0.574,0.509-0.827,0.742c-0.259,0.248-0.519,0.493-0.776,0.762
				c-2.086,2.069-3.791,4.477-4.396,7.074c-0.318,1.292-0.326,2.625-0.031,3.928c0.307,1.3,0.895,2.571,1.691,3.758
				c1.631,2.359,4.012,4.342,6.643,5.923c2.626,1.626,5.544,2.834,8.57,3.861c-3.196-0.2-6.379-0.951-9.414-2.199
				c-3.004-1.29-5.928-3.087-8.16-5.796c-1.115-1.34-2.044-2.923-2.547-4.698c-0.514-1.765-0.613-3.687-0.273-5.501
				c0.332-1.821,1.08-3.501,1.99-5.007c0.938-1.493,2.045-2.83,3.246-4.028c0.297-0.297,0.619-0.592,0.939-0.885
				c0.338-0.297,0.547-0.489,0.961-0.828c0.747-0.605,1.558-1.096,2.377-1.492c1.648-0.779,3.305-1.237,4.889-1.587
				c3.154-0.692,6.136-1.15,7.886-3.01c0.976-0.983,1.693-2.14,1.872-3.327c0.201-1.179-0.256-2.44-1.238-3.339
				c-0.951-0.917-2.385-1.432-3.77-1.193C853.406,129.638,852.181,130.77,851.473,132.199z"/>
		</g>
		
			<ellipse transform="matrix(0.9561 0.293 -0.293 0.9561 106.8229 -221.1788)" fill="#FFFFFF" cx="791.784" cy="246.023" rx="1.717" ry="2.552"/>
		<g>
			<g>
				<path fill="#FCC04E" d="M739.609,215.821c-18.227,19.325-35.744,39.572-51.54,60.934c-7.562,10.225-17.874,22.868-19.764,35.898
					c-0.693,4.776,1.786,9.658,3.755,13.852c3.441,7.328,7.721,14.283,11.993,21.148c15.862,25.484,33.76,49.619,50.78,74.324
					c2.414,3.502,8.176,0.184,5.738-3.354c-10.498-15.236-21.311-30.252-31.772-45.512c-10.595-15.453-21.451-31.072-29.949-47.811
					c-1.838-3.619-4.646-8.618-3.872-12.398c1.197-5.857,4.572-11.322,7.63-16.36c9.147-15.075,20.485-28.873,31.808-42.342
					c9.654-11.484,19.596-22.765,29.891-33.681C747.244,217.405,742.553,212.698,739.609,215.821L739.609,215.821z"/>
			</g>
		</g>
		<g>
			<g>
				<path fill="#FCC04E" d="M900.314,315.361c0.635,0.804,0.027,0.021,0.898,1.17c1.278,1.684,2.526,3.392,3.762,5.108
					c3.902,5.425,7.597,11.001,11.103,16.69c8.312,13.488,16.839,28.779,18.744,44.768c0.742,6.227,0.164,13.039-4.059,17.992
					c-4.333,5.082-10.916,9.162-16.164,13.256c-17.05,13.295-36.088,23.699-57.405,28.098c-8.068,1.664-16.316,2.182-24.539,2.008
					c-4.287-0.09-4.278,6.555,0,6.645c24.063,0.508,46.986-6.381,67.535-18.705c7.788-4.672,15.074-10.125,22.18-15.766
					c5.123-4.066,11.11-7.926,14.988-13.258c8.506-11.691,3.336-28.973-1.455-41.004c-5.773-14.498-13.99-28.006-22.869-40.792
					c-2.573-3.705-5.225-7.368-8.021-10.909C902.357,307.301,897.689,312.037,900.314,315.361L900.314,315.361z"/>
			</g>
		</g>
	</g>
</g>
</svg>
