<?xml version="1.0" encoding="utf-8"?>
<!-- Generator: Adobe Illustrator 16.0.0, SVG Export Plug-In . SVG Version: 6.00 Build 0)  -->
<!DOCTYPE svg PUBLIC "-//W3C//DTD SVG 1.1//EN" "http://www.w3.org/Graphics/SVG/1.1/DTD/svg11.dtd">
<svg version="1.1" id="Layer_1" xmlns="http://www.w3.org/2000/svg" xmlns:xlink="http://www.w3.org/1999/xlink" x="0px" y="0px"
	 width="841.89px" height="595.28px" viewBox="0 0 841.89 595.28" enable-background="new 0 0 841.89 595.28" xml:space="preserve">
<g>
	<defs>
		<rect id="SVGID_9_" y="125.151" width="191.617" height="443.288"/>
	</defs>
	<clipPath id="SVGID_2_">
		<use xlink:href="#SVGID_9_"  overflow="visible"/>
	</clipPath>
	<g clip-path="url(#SVGID_2_)">
		<path fill="#FCC04E" d="M-42.012,455.965c-4.408,1.719-47.828,7.822-91.928-3.35c-44.096-11.172-87.221-42.578-86.746-51.396
			c1.002-18.799,51.885-197.645,67.617-220.691c10.953-16.044,61.666-56.273,113.564-35.983c0,0,66.014,35.856,55.439,102.823
			C5.369,314.268-33.143,452.508-42.012,455.965z"/>
		<g>
			<g>
				<path fill="#FCC04E" d="M-2.809,311.762c0.636,0.805,0.027,0.021,0.899,1.17c1.278,1.686,2.526,3.393,3.761,5.109
					c3.902,5.426,7.598,11,11.104,16.689c8.312,13.488,16.838,28.779,18.743,44.768c0.742,6.227,0.164,13.039-4.059,17.992
					c-4.333,5.082-10.916,9.162-16.164,13.256c-17.05,13.295-36.088,23.699-57.405,28.098c-8.068,1.664-16.316,2.182-24.539,2.008
					c-4.287-0.09-4.278,6.555,0,6.645c24.063,0.508,46.986-6.381,67.535-18.705c7.788-4.672,15.074-10.125,22.18-15.766
					c5.123-4.066,11.11-7.926,14.988-13.258c8.506-11.691,3.337-28.973-1.454-41.002c-5.774-14.5-13.99-28.008-22.869-40.793
					c-2.573-3.705-5.225-7.369-8.021-10.91C-0.765,303.703-5.433,308.438-2.809,311.762L-2.809,311.762z"/>
			</g>
		</g>
	</g>
</g>
</svg>
