<?xml version="1.0" encoding="utf-8"?>
<!-- Generator: Adobe Illustrator 16.0.0, SVG Export Plug-In . SVG Version: 6.00 Build 0)  -->
<!DOCTYPE svg PUBLIC "-//W3C//DTD SVG 1.1//EN" "http://www.w3.org/Graphics/SVG/1.1/DTD/svg11.dtd">
<svg version="1.1" id="Layer_1" xmlns="http://www.w3.org/2000/svg" xmlns:xlink="http://www.w3.org/1999/xlink" x="0px" y="0px"
	 width="841.89px" height="595.28px" viewBox="0 0 841.89 595.28" enable-background="new 0 0 841.89 595.28" xml:space="preserve">
<g>
	<defs>
		<rect id="SVGID_11_" x="862.736" y="82.439" width="200.374" height="477"/>
	</defs>
	<clipPath id="SVGID_2_">
		<use xlink:href="#SVGID_11_"  overflow="visible"/>
	</clipPath>
	<g clip-path="url(#SVGID_2_)">
		<path fill="#FCC04E" d="M861.11,459.564c-4.407,1.719-47.827,7.822-91.927-3.35c-44.096-11.172-87.221-42.578-86.746-51.396
			c1.002-18.799,51.885-197.646,67.617-220.692c10.952-16.044,61.666-56.272,113.564-35.982c0,0,66.014,35.855,55.439,102.822
			C908.491,317.867,869.98,456.107,861.11,459.564z"/>
		<g>
			<g>
				<path fill="#FCC04E" d="M734.834,418.622c-10.429,15.789-20.858,31.577-31.287,47.365c-4.32,6.541-8.641,13.082-12.961,19.623
					c-0.627,0.949,1.786-1.226,0.326-0.456c0.813-0.429-0.487,0.115-0.793,0.178c0.198-0.04-1.004-0.021-1.293-0.071
					c-7.396-1.264-13.323-10.021-17.274-15.539c-2.471-3.45-8.238-0.138-5.737,3.354c5.335,7.449,17.193,23.748,28.623,17.726
					c1.44-0.759,2.211-2.33,3.074-3.637c2.491-3.771,4.982-7.542,7.473-11.313c11.862-17.959,23.725-35.917,35.587-53.876
					C742.94,418.389,737.184,415.064,734.834,418.622L734.834,418.622z"/>
			</g>
		</g>
		<g>
			<g>
				<path fill="#FCC04E" d="M819.636,431.336c-0.609,21.241-1.219,42.481-1.829,63.723c-0.13,4.521-0.259,9.043-0.389,13.564
					c-0.055,1.892-0.313,3.639,0.488,5.396c5.184,11.39,25.135,4.778,33.035,2.01c4.016-1.407,2.288-7.827-1.767-6.406
					c-6.819,2.389-15.154,5.411-22.449,3.391c-1.014-0.281-2.5-1.357-2.563-1.44c-0.784-1.045-0.172-0.435-0.194,0.343
					c0.21-7.343,0.421-14.686,0.632-22.028c0.56-19.518,1.12-39.034,1.681-58.552C826.404,427.049,819.759,427.061,819.636,431.336
					L819.636,431.336z"/>
			</g>
		</g>
		<path fill="#FFFFFF" stroke="#FFFFFF" stroke-width="2.4614" stroke-miterlimit="10" d="M811.568,382.953
			c-3.531,15.354-18.842,24.936-34.195,21.402c-15.352-3.531-24.937-18.842-21.406-34.193c3.537-15.354,18.847-24.936,34.199-21.4
			C805.519,352.293,815.099,367.602,811.568,382.953z"/>
		<circle fill="#FFFFFF" cx="861.756" cy="285.674" r="30.613"/>
		<path d="M870.044,288.206c-4.139,13.507-13.783,22.528-21.541,20.151c-7.76-2.377-11.777-15.584-7.639-29.091
			s14.543-21.146,22.301-18.769C870.924,262.876,874.182,274.699,870.044,288.206z"/>
		<circle fill="#FFFFFF" cx="771.449" cy="258.572" r="30.613"/>
		<path d="M793.144,264.979c-4.139,13.508-13.783,22.527-21.543,20.15s-11.773-15.584-7.635-29.091
			c4.139-13.506,14.541-21.146,22.299-18.769C794.025,239.646,797.283,251.473,793.144,264.979z"/>
		<path opacity="0.65" fill="#FFFFFF" d="M769.617,278.101c0,0,1.844,3.629,7.025,2.152
			C776.642,280.253,770.839,286.329,769.617,278.101z"/>
		<g>
			<path fill="#E5A43B" d="M759.813,215.919c2.444-1.063,4.976-1.874,7.541-2.632c2.574-0.72,5.204-1.284,7.898-1.624
				c1.346-0.171,2.706-0.359,4.091-0.455c1.384-0.087,2.793,0.015,4.176,0.34c1.379,0.334,2.748,0.832,3.992,1.592
				c1.241,0.742,2.382,1.733,3.095,2.999l-0.236,0.297c-1.35-0.374-2.569-0.614-3.79-0.793c-1.223-0.161-2.429-0.265-3.647-0.343
				c-1.217-0.077-2.437-0.182-3.683-0.334c-1.244-0.158-2.518-0.276-3.797-0.271c-2.558,0.012-5.147,0.185-7.74,0.457
				c-2.6,0.244-5.194,0.656-7.784,1.129L759.813,215.919z"/>
		</g>
		<g>
			<path fill="#634E42" d="M851.473,132.199c0.168-0.779,0.485-1.552,0.988-2.232c0.509-0.674,1.229-1.226,2.064-1.544
				c1.688-0.649,3.667-0.293,5.2,0.738c1.546,1.022,2.633,2.957,2.568,4.966c-0.031,2.017-1.031,3.746-2.134,5.118
				c-0.157,0.186-0.254,0.312-0.467,0.538c-0.143,0.147-0.246,0.272-0.467,0.468c-0.401,0.375-0.753,0.626-1.153,0.903
				c-0.787,0.516-1.617,0.888-2.429,1.204c-1.629,0.617-3.219,0.996-4.713,1.418c-1.489,0.42-2.911,0.817-4.119,1.435
				c-0.602,0.306-1.148,0.657-1.627,1.061c-0.199,0.164-0.575,0.509-0.828,0.742c-0.259,0.248-0.519,0.493-0.777,0.762
				c-2.086,2.068-3.79,4.477-4.397,7.073c-0.318,1.292-0.325,2.625-0.031,3.929c0.306,1.3,0.896,2.571,1.691,3.758
				c1.63,2.358,4.013,4.342,6.643,5.923c2.626,1.627,5.544,2.835,8.57,3.861c-3.196-0.2-6.379-0.951-9.414-2.199
				c-3.003-1.29-5.928-3.087-8.16-5.795c-1.115-1.341-2.044-2.924-2.546-4.698c-0.514-1.765-0.614-3.687-0.274-5.502
				c0.333-1.82,1.08-3.501,1.992-5.007c0.938-1.492,2.044-2.83,3.245-4.027c0.297-0.298,0.62-0.592,0.94-0.886
				c0.337-0.297,0.546-0.489,0.961-0.828c0.746-0.604,1.557-1.095,2.377-1.492c1.648-0.779,3.305-1.237,4.888-1.587
				c3.155-0.692,6.136-1.15,7.886-3.01c0.976-0.983,1.693-2.141,1.872-3.326c0.201-1.18-0.256-2.44-1.238-3.34
				c-0.952-0.917-2.385-1.432-3.771-1.193C853.406,129.638,852.182,130.771,851.473,132.199z"/>
		</g>
		
			<ellipse transform="matrix(0.9562 0.2928 -0.2928 0.9562 106.7595 -221.0857)" fill="#FFFFFF" cx="791.784" cy="246.023" rx="1.717" ry="2.552"/>
		<g>
			<g>
				<path fill="#FCC04E" d="M739.608,215.821c-18.226,19.324-35.743,39.571-51.54,60.933c-7.562,10.225-17.874,22.868-19.764,35.898
					c-0.692,4.776,1.787,9.658,3.755,13.851c3.442,7.33,7.72,14.284,11.993,21.148c15.862,25.484,33.76,49.62,50.781,74.324
					c2.414,3.503,8.175,0.186,5.737-3.354c-10.498-15.235-21.31-30.251-31.772-45.512c-10.594-15.453-21.451-31.072-29.949-47.811
					c-1.838-3.619-4.645-8.617-3.872-12.398c1.198-5.856,4.572-11.321,7.629-16.359c9.148-15.075,20.485-28.873,31.809-42.343
					c9.654-11.483,19.595-22.765,29.891-33.681C747.244,217.405,742.554,212.698,739.608,215.821L739.608,215.821z"/>
			</g>
		</g>
		<g>
			<g>
				<path fill="#FCC04E" d="M900.313,315.36c0.635,0.805,0.027,0.023,0.899,1.171c1.278,1.685,2.526,3.392,3.761,5.108
					c3.902,5.426,7.597,11,11.103,16.689c8.312,13.489,16.839,28.779,18.744,44.768c0.742,6.228,0.164,13.039-4.059,17.992
					c-4.333,5.083-10.916,9.163-16.164,13.256c-17.05,13.295-36.088,23.699-57.405,28.098c-8.068,1.665-16.316,2.182-24.539,2.009
					c-4.287-0.09-4.278,6.554,0,6.645c24.062,0.507,46.986-6.38,67.535-18.706c7.788-4.671,15.074-10.124,22.18-15.765
					c5.124-4.067,11.11-7.926,14.989-13.258c8.505-11.691,3.336-28.973-1.455-41.003c-5.774-14.499-13.991-28.006-22.87-40.793
					c-2.573-3.705-5.225-7.368-8.021-10.908C902.357,307.302,897.689,312.038,900.313,315.36L900.313,315.36z"/>
			</g>
		</g>
	</g>
</g>
</svg>
