<?xml version="1.0" encoding="utf-8"?>
<!-- Generator: Adobe Illustrator 16.0.0, SVG Export Plug-In . SVG Version: 6.00 Build 0)  -->
<!DOCTYPE svg PUBLIC "-//W3C//DTD SVG 1.1//EN" "http://www.w3.org/Graphics/SVG/1.1/DTD/svg11.dtd">
<svg version="1.1" id="Layer_1" xmlns="http://www.w3.org/2000/svg" xmlns:xlink="http://www.w3.org/1999/xlink" x="0px" y="0px"
	 width="841.89px" height="595.28px" viewBox="0 0 841.89 595.28" enable-background="new 0 0 841.89 595.28" xml:space="preserve">
<g>
	<defs>
		<rect id="SVGID_13_" x="0.847" y="82.439" width="200.373" height="477"/>
	</defs>
	<clipPath id="SVGID_2_">
		<use xlink:href="#SVGID_13_"  overflow="visible"/>
	</clipPath>
	<g clip-path="url(#SVGID_2_)">
		<path fill="#FCC04E" d="M-0.78,459.564c-4.407,1.719-47.827,7.822-91.927-3.35c-44.096-11.172-87.221-42.578-86.746-51.396
			c1.002-18.799,51.885-197.646,67.617-220.692c10.952-16.044,61.666-56.272,113.564-35.982c0,0,66.014,35.855,55.439,102.822
			C46.601,317.867,8.09,456.107-0.78,459.564z"/>
		<circle fill="#FFFFFF" cx="-0.134" cy="285.674" r="30.613"/>
		<path d="M8.154,288.206c-4.139,13.507-13.783,22.528-21.541,20.151c-7.76-2.377-11.777-15.584-7.639-29.091
			s14.543-21.146,22.301-18.769C9.034,262.876,12.292,274.699,8.154,288.206z"/>
		
			<ellipse transform="matrix(0.9832 0.1824 -0.1824 0.9832 48.001 3.7154)" fill="#FFFFFF" cx="3.806" cy="262.763" rx="1.718" ry="2.553"/>
		<g>
			<path fill="#E5A43B" d="M27.947,249.819c-2.078-1.616-4.188-3.182-6.38-4.6c-2.173-1.44-4.39-2.791-6.651-3.984
				c-1.133-0.596-2.316-1.08-3.494-1.514c-1.174-0.441-2.305-0.912-3.42-1.407c-1.115-0.493-2.233-0.959-3.393-1.382
				c-1.164-0.406-2.357-0.757-3.727-1.05l-0.072-0.372c1.217-0.793,2.688-1.144,4.131-1.229c1.453-0.098,2.898,0.094,4.275,0.436
				c1.377,0.35,2.673,0.911,3.859,1.629c1.186,0.725,2.304,1.521,3.418,2.294c2.232,1.546,4.303,3.264,6.253,5.092
				c1.925,1.858,3.794,3.748,5.47,5.819L27.947,249.819z"/>
		</g>
		<g>
			<path fill="#634E42" d="M-10.417,132.199c0.168-0.779,0.485-1.552,0.988-2.232c0.509-0.674,1.229-1.226,2.063-1.544
				c1.688-0.65,3.667-0.293,5.201,0.738c1.546,1.023,2.633,2.957,2.566,4.966c-0.031,2.017-1.03,3.746-2.134,5.118
				c-0.157,0.186-0.255,0.312-0.467,0.537c-0.144,0.148-0.246,0.273-0.468,0.469c-0.4,0.375-0.752,0.625-1.152,0.903
				c-0.787,0.516-1.617,0.888-2.428,1.204c-1.63,0.617-3.22,0.996-4.715,1.418c-1.488,0.42-2.91,0.817-4.119,1.435
				c-0.602,0.306-1.148,0.657-1.627,1.061c-0.199,0.163-0.574,0.509-0.827,0.741c-0.259,0.248-0.519,0.493-0.776,0.762
				c-2.086,2.069-3.791,4.478-4.396,7.074c-0.318,1.292-0.326,2.625-0.031,3.929c0.307,1.3,0.895,2.571,1.691,3.758
				c1.631,2.358,4.012,4.342,6.643,5.923c2.626,1.627,5.544,2.835,8.57,3.861c-3.196-0.199-6.379-0.951-9.414-2.199
				c-3.004-1.289-5.928-3.087-8.16-5.795c-1.115-1.341-2.044-2.924-2.547-4.698c-0.514-1.765-0.613-3.687-0.273-5.501
				c0.332-1.821,1.08-3.502,1.99-5.008c0.938-1.492,2.045-2.83,3.246-4.028c0.297-0.297,0.619-0.592,0.939-0.886
				c0.338-0.297,0.547-0.488,0.961-0.827c0.747-0.605,1.558-1.096,2.377-1.492c1.648-0.779,3.305-1.237,4.889-1.587
				c3.154-0.692,6.136-1.15,7.886-3.01c0.976-0.983,1.693-2.141,1.872-3.326c0.201-1.18-0.256-2.44-1.238-3.34
				c-0.951-0.918-2.385-1.432-3.77-1.193C-8.484,129.638-9.709,130.771-10.417,132.199z"/>
		</g>
		<g>
			<g>
				<path fill="#FCC04E" d="M38.423,315.36c0.636,0.805,0.027,0.023,0.899,1.171c1.278,1.685,2.526,3.392,3.761,5.108
					c3.902,5.426,7.598,11,11.104,16.689c8.312,13.489,16.839,28.779,18.744,44.768c0.742,6.228,0.164,13.039-4.059,17.992
					c-4.333,5.083-10.916,9.163-16.164,13.256c-17.05,13.295-36.088,23.699-57.405,28.098c-8.068,1.665-16.315,2.182-24.539,2.009
					c-4.287-0.09-4.278,6.554,0,6.645c24.062,0.507,46.986-6.38,67.535-18.706c7.788-4.671,15.074-10.124,22.18-15.765
					c5.123-4.067,11.11-7.926,14.989-13.258c8.505-11.691,3.336-28.973-1.456-41.003c-5.774-14.499-13.99-28.006-22.869-40.793
					c-2.573-3.705-5.225-7.368-8.021-10.908C40.467,307.302,35.799,312.038,38.423,315.36L38.423,315.36z"/>
			</g>
		</g>
	</g>
</g>
</svg>
