<?xml version="1.0" encoding="utf-8"?>
<!-- Generator: Adobe Illustrator 16.0.0, SVG Export Plug-In . SVG Version: 6.00 Build 0)  -->
<!DOCTYPE svg PUBLIC "-//W3C//DTD SVG 1.1//EN" "http://www.w3.org/Graphics/SVG/1.1/DTD/svg11.dtd">
<svg version="1.1" id="Layer_1" xmlns="http://www.w3.org/2000/svg" xmlns:xlink="http://www.w3.org/1999/xlink" x="0px" y="0px"
	 width="841.89px" height="595.28px" viewBox="0 0 841.89 595.28" enable-background="new 0 0 841.89 595.28" xml:space="preserve">
<g>
	<defs>
		<rect id="SVGID_19_" y="63.439" width="190.109" height="478"/>
	</defs>
	<clipPath id="SVGID_2_">
		<use xlink:href="#SVGID_19_"  overflow="visible"/>
	</clipPath>
	<g clip-path="url(#SVGID_2_)">
		<path fill="#FCC04E" d="M46.42,434.371c-4.407,1.719-47.827,7.822-91.926-3.35c-44.096-11.172-87.222-42.578-86.747-51.396
			c1.002-18.799,51.886-197.646,67.617-220.692c10.952-16.045,61.667-56.273,113.565-35.983c0,0,66.014,35.856,55.439,102.823
			C93.801,292.673,55.291,430.914,46.42,434.371z"/>
		<g>
			<g>
				<path fill="#FCC04E" d="M4.947,406.143c-0.61,21.241-1.22,42.481-1.83,63.723c-0.13,4.521-0.259,9.043-0.389,13.564
					c-0.055,1.893-0.313,3.639,0.488,5.396c5.184,11.391,25.135,4.777,33.035,2.01c4.016-1.406,2.288-7.827-1.767-6.406
					c-6.82,2.389-15.154,5.411-22.45,3.391c-1.014-0.281-2.5-1.357-2.562-1.44c-0.785-1.045-0.173-0.435-0.195,0.343
					c0.211-7.343,0.422-14.686,0.633-22.028c0.56-19.517,1.121-39.034,1.681-58.552C11.715,401.855,5.07,401.867,4.947,406.143
					L4.947,406.143z"/>
			</g>
		</g>
		<circle fill="#FFFFFF" cx="47.066" cy="260.48" r="30.613"/>
		<path d="M55.354,263.013c-4.139,13.506-13.783,22.528-21.541,20.151c-7.759-2.378-11.776-15.585-7.638-29.091
			c4.139-13.508,14.543-21.146,22.301-18.77C56.234,237.683,59.492,249.505,55.354,263.013z"/>
		
			<ellipse transform="matrix(0.9832 0.1824 -0.1824 0.9832 44.1968 -5.3184)" fill="#FFFFFF" cx="51.006" cy="237.568" rx="1.718" ry="2.553"/>
		<path opacity="0.65" fill="#FFFFFF" d="M32.485,272.573c0,0,2.244,3.396,7.223,1.339
			C39.708,273.912,34.635,280.608,32.485,272.573z"/>
		<g>
			<path fill="#E5A43B" d="M75.148,224.626c-2.078-1.617-4.188-3.182-6.381-4.6c-2.172-1.441-4.39-2.791-6.651-3.984
				c-1.132-0.596-2.315-1.08-3.493-1.515c-1.175-0.441-2.305-0.912-3.42-1.407c-1.116-0.492-2.234-0.959-3.393-1.381
				c-1.165-0.406-2.358-0.758-3.728-1.051l-0.072-0.371c1.218-0.793,2.688-1.145,4.131-1.229c1.454-0.098,2.898,0.094,4.275,0.435
				c1.377,0.351,2.673,0.911,3.86,1.629c1.186,0.726,2.303,1.521,3.418,2.294c2.231,1.547,4.303,3.264,6.252,5.092
				c1.925,1.859,3.795,3.748,5.471,5.82L75.148,224.626z"/>
		</g>
		<g>
			<path fill="#634E42" d="M36.783,107.005c0.168-0.779,0.486-1.551,0.988-2.232c0.51-0.674,1.229-1.225,2.064-1.544
				c1.688-0.649,3.666-0.292,5.2,0.739c1.546,1.022,2.633,2.956,2.567,4.965c-0.031,2.018-1.031,3.746-2.135,5.119
				c-0.156,0.185-0.254,0.311-0.467,0.537c-0.143,0.148-0.246,0.273-0.467,0.469c-0.401,0.375-0.753,0.625-1.152,0.902
				c-0.787,0.516-1.617,0.889-2.429,1.205c-1.63,0.617-3.22,0.996-4.714,1.418c-1.489,0.419-2.911,0.816-4.119,1.434
				c-0.602,0.307-1.148,0.657-1.627,1.061c-0.199,0.164-0.575,0.51-0.828,0.742c-0.258,0.248-0.518,0.492-0.776,0.762
				c-2.085,2.068-3.79,4.477-4.396,7.074c-0.318,1.291-0.325,2.625-0.031,3.928c0.307,1.301,0.896,2.572,1.692,3.758
				c1.63,2.359,4.012,4.342,6.642,5.924c2.626,1.627,5.544,2.834,8.57,3.861c-3.196-0.2-6.378-0.951-9.414-2.199
				c-3.003-1.29-5.928-3.088-8.159-5.796c-1.115-1.341-2.045-2.923-2.547-4.698c-0.514-1.764-0.613-3.687-0.274-5.501
				c0.333-1.821,1.08-3.501,1.991-5.007c0.938-1.493,2.045-2.83,3.245-4.029c0.298-0.297,0.62-0.592,0.94-0.885
				c0.337-0.297,0.546-0.488,0.961-0.828c0.746-0.605,1.557-1.096,2.377-1.492c1.648-0.779,3.305-1.236,4.889-1.586
				c3.154-0.693,6.135-1.15,7.885-3.01c0.977-0.984,1.693-2.141,1.873-3.327c0.201-1.179-0.256-2.44-1.238-3.339
				c-0.951-0.918-2.385-1.433-3.771-1.193C38.717,104.444,37.492,105.576,36.783,107.005z"/>
		</g>
		<g>
			<g>
				<path fill="#FCC04E" d="M85.624,290.166c0.635,0.805,0.027,0.023,0.898,1.171c1.279,1.685,2.527,3.392,3.762,5.108
					c3.902,5.426,7.598,11,11.103,16.689c8.312,13.49,16.839,28.78,18.745,44.769c0.742,6.228,0.164,13.04-4.058,17.992
					c-4.333,5.083-10.917,9.163-16.164,13.256c-17.05,13.296-36.088,23.699-57.406,28.098c-8.069,1.665-16.316,2.183-24.54,2.009
					c-4.287-0.09-4.278,6.555,0,6.645c24.062,0.506,46.986-6.381,67.536-18.706c7.789-4.671,15.075-10.124,22.18-15.765
					c5.124-4.067,11.11-7.926,14.989-13.258c8.505-11.691,3.335-28.973-1.456-41.004c-5.774-14.499-13.99-28.006-22.87-40.793
					c-2.573-3.705-5.225-7.368-8.021-10.908C87.667,282.107,82.999,286.844,85.624,290.166L85.624,290.166z"/>
			</g>
		</g>
	</g>
</g>
<g>
	<defs>
		<rect id="SVGID_21_" x="861.89" y="63.439" width="190.109" height="478"/>
	</defs>
	<clipPath id="SVGID_4_">
		<use xlink:href="#SVGID_21_"  overflow="visible"/>
	</clipPath>
	<g clip-path="url(#SVGID_4_)">
		<path fill="#FCC04E" d="M908.31,434.371c-4.407,1.719-47.827,7.822-91.926-3.35c-44.096-11.172-87.222-42.578-86.747-51.396
			c1.002-18.799,51.886-197.646,67.617-220.692c10.952-16.045,61.667-56.273,113.565-35.983c0,0,66.014,35.856,55.439,102.823
			C955.691,292.673,917.181,430.914,908.31,434.371z"/>
		<g>
			<g>
				<path fill="#FCC04E" d="M782.035,393.429c-10.429,15.788-20.858,31.577-31.287,47.365c-4.32,6.541-8.641,13.082-12.962,19.623
					c-0.626,0.949,1.787-1.226,0.327-0.456c0.813-0.429-0.488,0.115-0.794,0.178c0.198-0.041-1.003-0.021-1.293-0.07
					c-7.396-1.264-13.322-10.023-17.273-15.54c-2.471-3.45-8.238-0.138-5.737,3.354c5.335,7.449,17.192,23.748,28.623,17.726
					c1.44-0.759,2.211-2.33,3.075-3.637c2.491-3.771,4.981-7.542,7.472-11.313c11.862-17.959,23.725-35.918,35.587-53.876
					C790.142,393.195,784.385,389.871,782.035,393.429L782.035,393.429z"/>
			</g>
		</g>
		<path fill="#FFFFFF" stroke="#FFFFFF" stroke-width="2.4614" stroke-miterlimit="10" d="M858.768,357.76
			c-3.53,15.354-18.842,24.936-34.194,21.402c-15.353-3.531-24.938-18.842-21.407-34.193c3.538-15.354,18.847-24.936,34.2-21.4
			C852.72,327.1,862.3,342.408,858.768,357.76z"/>
		<circle fill="#FFFFFF" cx="818.649" cy="233.378" r="30.613"/>
		<path d="M840.344,239.784c-4.138,13.508-13.783,22.527-21.542,20.15c-7.76-2.377-11.773-15.584-7.636-29.09
			c4.139-13.506,14.542-21.146,22.299-18.77C841.225,214.452,844.484,226.278,840.344,239.784z"/>
		<path opacity="0.65" fill="#FFFFFF" d="M816.818,252.907c0,0,1.843,3.628,7.024,2.152
			C823.842,255.06,818.04,261.136,816.818,252.907z"/>
		<g>
			<path fill="#E5A43B" d="M807.013,190.726c2.444-1.063,4.977-1.875,7.541-2.632c2.574-0.72,5.205-1.285,7.898-1.624
				c1.346-0.172,2.705-0.359,4.091-0.455c1.384-0.088,2.793,0.014,4.176,0.34c1.38,0.334,2.748,0.832,3.992,1.592
				c1.241,0.742,2.382,1.732,3.095,2.998l-0.236,0.297c-1.35-0.373-2.569-0.614-3.79-0.793c-1.223-0.16-2.429-0.264-3.647-0.343
				c-1.217-0.077-2.437-0.182-3.682-0.333c-1.245-0.159-2.519-0.277-3.798-0.272c-2.558,0.013-5.147,0.185-7.74,0.458
				c-2.6,0.244-5.194,0.656-7.784,1.129L807.013,190.726z"/>
		</g>
		
			<ellipse transform="matrix(0.9561 0.2931 -0.2931 0.9561 101.5751 -236.2131)" fill="#FFFFFF" cx="838.984" cy="220.83" rx="1.718" ry="2.552"/>
		<g>
			<g>
				<path fill="#FCC04E" d="M786.809,190.627c-18.226,19.324-35.743,39.572-51.54,60.934c-7.561,10.225-17.874,22.867-19.764,35.898
					c-0.693,4.775,1.787,9.658,3.756,13.851c3.442,7.329,7.72,14.284,11.993,21.149c15.862,25.484,33.76,49.62,50.781,74.323
					c2.414,3.503,8.175,0.185,5.737-3.354c-10.498-15.235-21.311-30.251-31.773-45.511c-10.594-15.454-21.451-31.073-29.949-47.812
					c-1.838-3.618-4.646-8.618-3.873-12.398c1.198-5.856,4.572-11.321,7.63-16.36c9.148-15.074,20.485-28.873,31.809-42.342
					c9.654-11.484,19.595-22.766,29.89-33.682C794.443,192.211,789.754,187.504,786.809,190.627L786.809,190.627z"/>
			</g>
		</g>
	</g>
</g>
</svg>
