<?xml version="1.0" encoding="utf-8"?>
<!-- Generator: Adobe Illustrator 16.0.0, SVG Export Plug-In . SVG Version: 6.00 Build 0)  -->
<!DOCTYPE svg PUBLIC "-//W3C//DTD SVG 1.1//EN" "http://www.w3.org/Graphics/SVG/1.1/DTD/svg11.dtd">
<svg version="1.1" id="Layer_1" xmlns="http://www.w3.org/2000/svg" xmlns:xlink="http://www.w3.org/1999/xlink" x="0px" y="0px"
	 width="841.89px" height="595.28px" viewBox="0 0 841.89 595.28" enable-background="new 0 0 841.89 595.28" xml:space="preserve">
<path fill="#FCC04E" d="M445.373,396.499c-4.254,2.073-47.027,11.715-91.893,4.194c-44.864-7.519-90.417-35.285-90.669-44.114
	c-0.541-18.817,35.515-201.233,49.306-225.491c9.601-16.888,56.847-61.138,110.234-45.169c0,0,68.729,30.325,63.678,97.933
	C480.981,251.396,453.929,392.327,445.373,396.499z"/>
<g>
	<g>
		<path fill="#FCC04E" d="M466.588,221.381c0.591,1.323,0.726,1.679,1.511,3.648c1.487,3.73,2.85,7.511,4.136,11.315
			c4.001,11.834,7.086,23.997,9.015,36.342c4.497,28.78,1.304,62.458-25.989,78.944c-3.661,2.212-0.324,7.958,3.354,5.737
			c28.493-17.211,33.589-50.965,29.73-81.535c-2.486-19.705-7.899-39.637-16.02-57.806
			C470.579,214.122,464.855,217.504,466.588,221.381L466.588,221.381z"/>
	</g>
</g>
<g>
	<g>
		<path fill="#FCC04E" d="M316.295,365.803c-9.247,16.856-18.493,33.712-27.74,50.568c-3.646,6.648-7.293,13.296-10.94,19.944
			c-0.181,0.329,1.391-1.051,0.268-0.402c-0.12,0.07-1.317,0.451-2.396,0.3c-7.63-1.065-13.983-9.087-18.574-14.499
			c-2.776-3.272-7.453,1.452-4.699,4.698c5.472,6.449,19.219,22.097,29.514,14.928c1.467-1.021,2.079-2.5,2.918-4.029
			c2.242-4.087,4.484-8.175,6.727-12.262c10.221-18.631,20.44-37.262,30.66-55.893C324.094,365.398,318.355,362.046,316.295,365.803
			L316.295,365.803z"/>
	</g>
</g>
<g>
	<g>
		<path fill="#FCC04E" d="M401.713,371.492c1.134,21.22,2.267,42.439,3.4,63.659c0.241,4.517,0.482,9.034,0.724,13.551
			c0.096,1.808-0.046,3.75,0.801,5.396c5.903,11.483,26.135,2.651,33.76-0.743c3.908-1.74,0.524-7.464-3.354-5.737
			c-6.4,2.85-14.939,6.728-22.156,4.813c-0.671-0.178-1.237-0.493-1.817-0.868c0.22,0.142-0.97-1.103-0.388-0.326
			c-1.042-1.391-0.026,0.754-0.036,0.564c-0.404-7.572-0.809-15.144-1.213-22.716c-1.025-19.198-2.051-38.396-3.076-57.594
			C408.13,367.231,401.484,367.208,401.713,371.492L401.713,371.492z"/>
	</g>
</g>
<circle fill="#FFFFFF" cx="431.765" cy="223.14" r="30.613"/>
<path d="M440.232,224.985c-3.019,13.8-11.89,23.583-19.817,21.849c-7.927-1.733-13.014-14.567-9.995-28.368
	c3.017-13.8,12.761-22.266,20.688-20.533C439.035,199.667,443.25,211.185,440.232,224.985z"/>
<ellipse transform="matrix(0.9949 0.1011 -0.1011 0.9949 22.4292 -42.8139)" fill="#FFFFFF" cx="433.814" cy="199.983" rx="1.718" ry="2.553"/>
<path opacity="0.65" fill="#FFFFFF" d="M418.224,236.387c0,0,2.515,3.202,7.309,0.743
	C425.532,237.13,421.023,244.22,418.224,236.387z"/>
<circle fill="#FFFFFF" cx="339.54" cy="203.531" r="30.613"/>
<path d="M361.688,208.138c-3.018,13.801-11.892,23.582-19.818,21.848c-7.928-1.733-13.012-14.567-9.995-28.368
	c3.019-13.8,12.761-22.266,20.687-20.533C360.488,182.818,364.705,194.337,361.688,208.138z"/>
<path opacity="0.65" fill="#FFFFFF" d="M339.315,223.143c0,0,2.134,3.466,7.177,1.57
	C346.492,224.713,341.207,231.245,339.315,223.143z"/>
<g>
	<path fill="#E5A43B" d="M324.448,161.974c2.349-1.258,4.806-2.275,7.3-3.24c2.506-0.928,5.082-1.707,7.738-2.266
		c1.327-0.281,2.667-0.581,4.04-0.789c1.372-0.2,2.785-0.215,4.19-0.003c1.401,0.22,2.807,0.604,4.108,1.259
		c1.298,0.638,2.516,1.532,3.331,2.735l-0.213,0.315c-1.375-0.262-2.61-0.402-3.842-0.48c-1.231-0.06-2.442-0.064-3.662-0.043
		c-1.22,0.023-2.444,0.019-3.698-0.031c-1.253-0.056-2.532-0.069-3.807,0.04c-2.548,0.222-5.115,0.606-7.677,1.09
		c-2.571,0.456-5.123,1.08-7.665,1.763L324.448,161.974z"/>
</g>
<g>
	<path fill="#E5A43B" d="M456.813,185.105c-2.204-1.441-4.435-2.828-6.735-4.062c-2.283-1.258-4.604-2.422-6.956-3.426
		c-1.177-0.5-2.396-0.886-3.604-1.223c-1.207-0.344-2.372-0.72-3.523-1.122c-1.153-0.4-2.306-0.773-3.494-1.099
		c-1.195-0.31-2.412-0.562-3.801-0.741l-0.104-0.365c1.148-0.89,2.585-1.36,4.017-1.563c1.441-0.217,2.896-0.145,4.297,0.083
		c1.4,0.237,2.738,0.69,3.98,1.308c1.24,0.625,2.42,1.327,3.594,2.007c2.351,1.358,4.556,2.899,6.648,4.562
		c2.069,1.694,4.088,3.424,5.928,5.352L456.813,185.105z"/>
</g>
<g>
	<path fill="#634E42" d="M408.938,71.024c0.104-0.791,0.356-1.586,0.802-2.306c0.452-0.713,1.125-1.322,1.931-1.708
		c1.629-0.785,3.631-0.591,5.243,0.31c1.625,0.893,2.867,2.731,2.967,4.739c0.134,2.012-0.721,3.818-1.708,5.277
		c-0.142,0.197-0.228,0.33-0.422,0.574c-0.13,0.159-0.223,0.292-0.427,0.504c-0.369,0.407-0.699,0.685-1.075,0.995
		c-0.743,0.578-1.539,1.017-2.322,1.398c-1.573,0.749-3.126,1.257-4.581,1.799c-1.45,0.541-2.834,1.054-3.987,1.768
		c-0.575,0.354-1.091,0.749-1.535,1.19c-0.185,0.18-0.531,0.555-0.764,0.808c-0.237,0.269-0.477,0.534-0.712,0.823
		c-1.909,2.233-3.41,4.773-3.802,7.411c-0.211,1.313-0.108,2.643,0.292,3.918c0.411,1.27,1.103,2.489,1.994,3.606
		c1.817,2.217,4.354,3.998,7.104,5.359c2.751,1.406,5.759,2.371,8.858,3.146c-3.201,0.063-6.436-0.425-9.563-1.42
		c-3.099-1.04-6.161-2.591-8.607-5.107c-1.222-1.244-2.277-2.746-2.924-4.473c-0.656-1.716-0.913-3.625-0.725-5.46
		c0.183-1.842,0.789-3.579,1.574-5.154c0.813-1.564,1.806-2.988,2.904-4.281c0.271-0.32,0.569-0.641,0.864-0.959
		c0.312-0.324,0.505-0.532,0.89-0.904c0.694-0.664,1.462-1.219,2.247-1.682c1.579-0.912,3.192-1.505,4.741-1.983
		c3.088-0.949,6.021-1.65,7.613-3.645c0.893-1.061,1.513-2.272,1.594-3.469c0.104-1.192-0.455-2.412-1.508-3.227
		c-1.023-0.836-2.494-1.232-3.855-0.881C410.655,68.313,409.527,69.542,408.938,71.024z"/>
</g>
<ellipse transform="matrix(0.9769 0.2137 -0.2137 0.9769 48.7438 -72.2851)" fill="#FFFFFF" cx="358.779" cy="189.358" rx="1.717" ry="2.551"/>
<g>
	<g>
		<path fill="#FCC04E" d="M285.98,226.326c-9.845,2.3-19.256,9.049-24.393,17.705c-14.643,24.674,8.08,55.833,22.926,74.169
			c2.697,3.332,7.369-1.4,4.699-4.698c-13.146-16.237-34.621-44.659-21.572-66.649c4.222-7.114,12.374-12.313,20.105-14.12
			C291.918,231.759,290.148,225.353,285.98,226.326L285.98,226.326z"/>
	</g>
</g>
<circle fill="#FFFFFF" stroke="#FFFFFF" stroke-width="1.2082" stroke-miterlimit="10" cx="368.762" cy="329.855" r="14.003"/>
</svg>
