<?xml version="1.0" encoding="utf-8"?>
<!-- Generator: Adobe Illustrator 16.0.0, SVG Export Plug-In . SVG Version: 6.00 Build 0)  -->
<!DOCTYPE svg PUBLIC "-//W3C//DTD SVG 1.1//EN" "http://www.w3.org/Graphics/SVG/1.1/DTD/svg11.dtd">
<svg version="1.1" id="Layer_1" xmlns="http://www.w3.org/2000/svg" xmlns:xlink="http://www.w3.org/1999/xlink" x="0px" y="0px"
	 width="841.89px" height="595.28px" viewBox="0 0 841.89 595.28" enable-background="new 0 0 841.89 595.28" xml:space="preserve">
<path fill="#FCC04E" d="M421.167,381.267c-3.758,2.875-43.771,20.808-89.236,22.333c-45.464,1.527-95.619-16.655-97.616-25.258
	c-4.261-18.336-5.095-204.279,3.612-230.79c6.061-18.457,43.594-71.196,99.088-66.131c0,0,73.378,16.094,81.834,83.361
	C427.294,231.984,428.726,375.481,421.167,381.267z"/>
<g>
	<g>
		<path fill="#FCC04E" d="M288.505,376.968c-5.63,18.065-11.26,36.13-16.89,54.195c-2.333,7.484-4.665,14.968-6.998,22.452
			c-0.324,1.04,1.205-1.46,0.228-0.519c0.003-0.003-0.967,0.627-1.991,0.744c-7.457,0.842-15.542-5.848-20.894-10.068
			c-3.325-2.622-8.062,2.046-4.698,4.698c7.107,5.604,23.142,18.128,32.421,9.189c1.203-1.159,1.505-2.805,1.983-4.338
			c1.345-4.314,2.689-8.629,4.034-12.943c6.404-20.548,12.808-41.096,19.211-61.644C296.19,374.633,289.775,372.892,288.505,376.968
			L288.505,376.968z"/>
	</g>
</g>
<g>
	<g>
		<path fill="#FCC04E" d="M373.468,365.639c5.319,20.573,10.637,41.146,15.956,61.72c1.132,4.379,2.264,8.759,3.396,13.138
			c0.476,1.842,0.727,3.537,1.932,5.043c7.805,9.761,25.733-2.513,32.277-7.169c3.459-2.461,0.146-8.228-3.354-5.737
			c-5.931,4.221-13.277,9.611-20.937,9.528c-1.068-0.011-2.697-0.728-2.707-0.735c-1.072-0.87-0.107,0.006-0.001,0.417
			c-1.907-7.377-3.814-14.754-5.721-22.131c-4.812-18.613-9.624-37.227-14.435-55.84
			C378.803,359.727,372.395,361.487,373.468,365.639L373.468,365.639z"/>
	</g>
</g>
<path fill="#FFFFFF" stroke="#FFFFFF" stroke-width="2.4614" stroke-miterlimit="10" d="M352.281,321.446
	c0.877,15.729-11.169,29.19-26.898,30.063c-15.729,0.874-29.19-11.168-30.067-26.896c-0.871-15.732,11.173-29.191,26.902-30.064
	C337.948,293.675,351.406,305.718,352.281,321.446z"/>
<circle fill="#FFFFFF" cx="373.452" cy="214.049" r="30.613"/>
<path d="M382.118,214.178c-0.222,14.125-6.978,25.472-15.091,25.345c-8.114-0.127-15.645-11.697-15.423-25.822
	c0.221-14.125,8.093-24.354,16.206-24.228C375.923,189.601,382.338,200.053,382.118,214.178z"/>
<ellipse transform="matrix(0.9952 -0.0982 0.0982 0.9952 -16.9576 37.3403)" fill="#FFFFFF" cx="370.869" cy="190.946" rx="1.718" ry="2.552"/>
<path opacity="0.65" fill="#FFFFFF" d="M362.807,229.718c0,0,3.1,2.64,7.311-0.721C370.118,228.997,367.104,236.84,362.807,229.718z
	"/>
<circle fill="#FFFFFF" cx="279.17" cy="213.117" r="30.613"/>
<path d="M301.791,213.241c-0.221,14.125-6.979,25.471-15.092,25.344c-8.115-0.127-15.642-11.697-15.422-25.822
	c0.222-14.124,8.092-24.354,16.203-24.228C295.596,188.662,302.013,199.116,301.791,213.241z"/>
<path opacity="0.65" fill="#FFFFFF" d="M282.839,232.385c0,0,2.779,2.974,7.346,0.115C290.185,232.5,286.3,239.95,282.839,232.385z"
	/>
<g>
	<path fill="#E5A43B" d="M256.137,175.378c2.052-1.699,4.259-3.183,6.512-4.624c2.272-1.407,4.642-2.681,7.135-3.755
		c1.246-0.539,2.499-1.098,3.804-1.574c1.306-0.468,2.687-0.763,4.106-0.834c1.417-0.063,2.871,0.035,4.277,0.419
		c1.398,0.368,2.77,1.002,3.807,2.021l-0.146,0.351c-1.399,0.016-2.639,0.124-3.861,0.292c-1.219,0.186-2.407,0.421-3.598,0.684
		c-1.191,0.265-2.392,0.503-3.631,0.703c-1.24,0.194-2.496,0.435-3.723,0.794c-2.453,0.723-4.893,1.608-7.308,2.591
		c-2.43,0.957-4.807,2.074-7.164,3.248L256.137,175.378z"/>
</g>
<g>
	<path fill="#E5A43B" d="M390.461,171.802c-2.445-0.975-4.907-1.893-7.407-2.645c-2.487-0.78-4.992-1.461-7.497-1.979
		c-1.253-0.257-2.524-0.394-3.776-0.484c-1.251-0.098-2.467-0.236-3.676-0.401c-1.209-0.163-2.413-0.3-3.643-0.384
		c-1.232-0.067-2.476-0.072-3.872,0.028l-0.174-0.338c0.95-1.1,2.264-1.846,3.627-2.328c1.37-0.499,2.81-0.716,4.228-0.771
		c1.42-0.046,2.821,0.133,4.161,0.492c1.339,0.367,2.635,0.821,3.92,1.254c2.573,0.865,5.04,1.939,7.421,3.153
		c2.365,1.25,4.687,2.546,6.872,4.07L390.461,171.802z"/>
</g>
<g>
	<path fill="#634E42" d="M320.915,69.48c-0.055-0.795,0.035-1.626,0.329-2.419c0.302-0.788,0.84-1.519,1.553-2.057
		c1.44-1.093,3.441-1.3,5.201-0.736c1.77,0.553,3.352,2.108,3.847,4.056c0.531,1.946,0.051,3.885-0.627,5.511
		c-0.1,0.221-0.158,0.369-0.3,0.646c-0.096,0.182-0.16,0.331-0.318,0.579c-0.281,0.472-0.55,0.811-0.856,1.188
		c-0.613,0.714-1.306,1.302-1.998,1.831c-1.394,1.046-2.815,1.852-4.134,2.672c-1.314,0.817-2.569,1.595-3.559,2.523
		c-0.493,0.461-0.921,0.951-1.269,1.471c-0.146,0.212-0.411,0.648-0.588,0.942c-0.18,0.311-0.361,0.617-0.535,0.948
		c-1.428,2.567-2.396,5.354-2.257,8.018c0.054,1.329,0.418,2.612,1.063,3.782c0.656,1.163,1.575,2.221,2.67,3.14
		c2.222,1.813,5.061,3.055,8.027,3.843c2.975,0.833,6.114,1.183,9.306,1.328c-3.125,0.696-6.392,0.859-9.655,0.504
		c-3.243-0.405-6.552-1.318-9.449-3.299c-1.444-0.978-2.776-2.241-3.752-3.805c-0.983-1.552-1.614-3.371-1.793-5.208
		c-0.186-1.842,0.064-3.664,0.521-5.363c0.486-1.695,1.177-3.287,1.998-4.771c0.203-0.368,0.431-0.741,0.657-1.112
		c0.241-0.379,0.389-0.621,0.693-1.063c0.549-0.789,1.191-1.485,1.869-2.093c1.367-1.207,2.831-2.107,4.254-2.883
		c2.838-1.542,5.575-2.811,6.739-5.083c0.664-1.216,1.031-2.526,0.874-3.716c-0.135-1.189-0.925-2.273-2.118-2.863
		c-1.168-0.617-2.689-0.713-3.954-0.099C322.06,66.482,321.198,67.911,320.915,69.48z"/>
</g>
<path fill="#FFFFFF" d="M296.934,195.437c-0.02,1.409-0.809,2.539-1.754,2.524c-0.95-0.015-1.702-1.168-1.681-2.578
	c0.022-1.41,0.81-2.541,1.76-2.525C296.205,192.873,296.957,194.028,296.934,195.437z"/>
<g>
	<g>
		<path fill="#FCC04E" d="M231.018,246.177c-11.484,6.314-22.429,15.229-29.921,26.011c-4.262,6.134-8.017,15.411-5.707,22.968
			c1.309,4.279,6.342,6.316,10.085,7.844c15.045,6.143,32.011,8.314,47.79,11.842c17.081,3.82,35.602,7.512,50.792,16.618
			c1.34,0.804,2.644,1.688,3.863,2.665c3.31,2.649,8.044-2.021,4.698-4.698c-12.312-9.853-28.884-13.976-43.876-17.758
			c-16.97-4.281-34.26-7.233-51.167-11.764c-5.054-1.354-10.583-2.728-14.94-5.757c-0.535-0.371-0.764-0.738-0.914-0.983
			c-0.049-0.081-0.206-2.714-0.191-3.654c0.069-4.334,1.964-8.477,4.124-12.136c6.373-10.795,17.841-19.48,28.716-25.459
			C238.126,249.85,234.774,244.112,231.018,246.177L231.018,246.177z"/>
	</g>
</g>
<g>
	<g>
		<path fill="#FCC04E" d="M418.67,231.808c7.546,5.395,14.676,11.436,21.54,17.664c11.859,10.762,23.911,22.98,30.494,37.81
			c2.508,5.65,3.791,12.55,1.158,18.379c-2.505,5.544-7.948,7.276-13.469,8.696c-19.524,5.02-40.8,4.46-60.798,5.571
			c-21.477,1.193-43.296,2.556-64.218,7.872c-4.15,1.055-2.389,7.463,1.767,6.407c22.655-5.757,46.306-6.783,69.55-8.02
			c19.079-1.015,39.399-0.766,57.909-6.088c5.581-1.605,10.665-4.121,13.899-9.084c3.57-5.479,3.96-12.178,2.801-18.436
			c-2.799-15.105-14.859-28.363-25.203-38.967c-9.801-10.047-20.65-19.373-32.076-27.542
			C418.53,223.573,415.217,229.339,418.67,231.808L418.67,231.808z"/>
	</g>
</g>
</svg>
