<?xml version="1.0" encoding="utf-8"?>
<!-- Generator: Adobe Illustrator 16.0.0, SVG Export Plug-In . SVG Version: 6.00 Build 0)  -->
<!DOCTYPE svg PUBLIC "-//W3C//DTD SVG 1.1//EN" "http://www.w3.org/Graphics/SVG/1.1/DTD/svg11.dtd">
<svg version="1.1" id="Layer_1" xmlns="http://www.w3.org/2000/svg" xmlns:xlink="http://www.w3.org/1999/xlink" x="0px" y="0px"
	 width="960px" height="560px" viewBox="0 0 960 560" enable-background="new 0 0 960 560" xml:space="preserve">
<path fill="#8FB25E" d="M411.846,362.327l-6.953,10.063h-15.995l-30.265-202.738l-5.203-34.864l13.909-10.834h221.147l13.91,10.834
	l-5.155,34.542l-30.313,203.06h-15.994l-6.955-10.063C543.979,362.327,478.609,326.727,411.846,362.327z"/>
<path fill="#5D6633" d="M461.407,200.407c0,0-0.349,29.773-4.288,33.334c-3.119,2.819-43.663,0.032-49.348-1.869"/>
<g>
	<path fill="#BED685" d="M373.443,188.791c0,0,0.373-0.193,1.072-0.494c0.697-0.28,1.723-0.763,3.027-1.233
		c1.303-0.495,2.887-1.033,4.703-1.594c1.815-0.558,3.865-1.116,6.1-1.66c2.234-0.53,4.656-1.037,7.219-1.49
		c2.561-0.438,5.262-0.845,8.055-1.151c1.398-0.188,2.818-0.29,4.256-0.415c0.719-0.062,1.442-0.124,2.169-0.186
		c0.728-0.038,1.458-0.076,2.19-0.113c2.934-0.193,5.914-0.208,8.895-0.255c2.98,0.048,5.961,0.075,8.895,0.268
		c1.467,0.057,2.922,0.174,4.36,0.305c1.438,0.119,2.858,0.235,4.255,0.419c2.794,0.305,5.494,0.715,8.057,1.154
		c2.561,0.45,4.982,0.958,7.217,1.487c4.471,1.066,8.197,2.264,10.805,3.239c1.304,0.467,2.328,0.948,3.026,1.226
		c0.698,0.299,1.071,0.491,1.071,0.491v1.011c0,0-1.49,0.031-4.098,0.084c-2.607,0.038-6.334,0.167-10.805,0.187
		c-8.94,0.063-20.861,0.148-32.783,0.233c-11.92-0.084-23.842-0.169-32.783-0.232c-4.471-0.019-8.195-0.15-10.803-0.188
		c-2.609-0.054-4.1-0.085-4.1-0.085V188.791z"/>
</g>
<g>
	<path fill="#BED685" d="M488.26,189.717c0,0,0.369-0.193,1.061-0.494c0.691-0.28,1.707-0.763,2.998-1.233
		c1.291-0.495,2.859-1.033,4.657-1.594c1.798-0.558,3.827-1.116,6.041-1.66c2.214-0.53,4.612-1.037,7.147-1.49
		c2.537-0.438,5.211-0.845,7.979-1.151c1.383-0.188,2.79-0.29,4.214-0.415c0.712-0.062,1.429-0.124,2.147-0.186
		c0.721-0.038,1.443-0.076,2.17-0.113c2.905-0.193,5.857-0.208,8.809-0.255c2.951,0.048,5.902,0.075,8.808,0.268
		c1.452,0.057,2.894,0.174,4.317,0.305c1.424,0.119,2.83,0.235,4.214,0.419c2.767,0.305,5.442,0.715,7.978,1.154
		c2.537,0.45,4.935,0.958,7.148,1.487c4.428,1.066,8.115,2.264,10.699,3.239c1.291,0.467,2.305,0.948,2.996,1.226
		c0.693,0.299,1.061,0.491,1.061,0.491v1.011c0,0-1.475,0.031-4.057,0.084c-2.584,0.038-6.271,0.167-10.699,0.187
		c-8.854,0.063-20.66,0.148-32.465,0.233c-11.807-0.084-23.611-0.169-32.466-0.232c-4.427-0.019-8.116-0.15-10.698-0.188
		c-2.584-0.054-4.059-0.085-4.059-0.085V189.717z"/>
</g>
<path fill="#FFFFFF" d="M451.172,230.965c-3.119,2.819-43.662,1.901-49.348,0c-5.686-1.899-12.639-28.706-12.639-28.706
	l72.222-1.852C461.407,200.407,455.113,227.404,451.172,230.965z"/>
<path fill="#5D6633" d="M558.629,229.111c-3.116,2.818-47.092,10.234-52.777,8.333c-5.684-1.901-14.23-35.11-14.23-35.11"/>
<path fill="#1D1D1B" d="M443.969,200.897c0,8.779-9.161,15.897-20.459,15.897c-11.3,0-20.459-7.118-20.459-15.897"/>
<path fill="#FFFFFF" d="M434,213.702c0.098,0.47-1.12,1.261-2.725,1.767c-1.604,0.508-2.985,0.538-3.084,0.068
	c-0.099-0.469,1.119-1.259,2.725-1.767C432.52,213.263,433.9,213.232,434,213.702z"/>
<path fill="#FFFFFF" d="M559.018,233.254c-3.115,2.819-43.659,1.901-49.346,0c-5.686-1.9-18.051-30.919-18.051-30.919l78.119,0.851
	C569.74,203.185,562.96,229.693,559.018,233.254z"/>
<path fill="#1D1D1B" d="M517.649,202.334c0,8.78,9.159,15.896,20.459,15.896s20.46-7.116,20.46-15.896"/>
<path fill="#FFFFFF" d="M527.618,215.139c-0.099,0.47,1.12,1.26,2.726,1.768c1.604,0.508,2.982,0.537,3.084,0.067
	c0.098-0.469-1.123-1.26-2.727-1.767C529.098,214.7,527.717,214.67,527.618,215.139z"/>
<path fill="#FFFFFF" d="M411.818,287.235l127.379-15.756c0,0,2.222,37.15-22.219,37.614
	c-24.438,0.461-102.197-12.331-102.197-12.331L411.818,287.235z"/>
<path fill="#5D6633" d="M538.701,282.533l-11.717,0.896l-3.518,7.96l-5.555-7.035l-104.158,9.106l1.027,3.302
	c0,0,77.76,12.792,102.197,12.331c15.615-0.297,20.348-15.57,21.728-26.561H538.701z"/>
<path fill="#71882E" d="M597.428,168.792l-13.795-17.102l-0.606-19.427c0,0-26.761,8.062-37.333,8.326
	c-10.574,0.264-30.66,4.758-30.66,4.758l-46,13.233c0,0-35.449-10.723-35.014-10.59c0.439,0.132-23.98-2.158-29.383-2.643
	c-5.402-0.486-29.39-13.02-27.614-13.282c1.774-0.262-7.745,18.667-9.747,20.682c-2.001,2.016-8.43,16.425-8.43,16.425l-0.213,0.481
	c0,0-6.938-30.553-5.203-34.864c1.736-4.31,6.953-7.746,13.909-10.834c6.954-3.089,213.724-2.363,221.147,0
	c7.425,2.362,12.566,7.414,13.91,10.834s-5.155,34.542-5.155,34.542L597.428,168.792z"/>
<path fill="#BED685" d="M375.488,149.129"/>
<path fill="#8FB25E" d="M562.309,253.765h73.781l63.166-82.028c0,0-5.082-8.698-4.27-12.224s26.521,4.49,27.643,6.431
	c1.123,1.941-15.447,9.757-15.447,9.757l-61.133,94.119l-83.74,13.822"/>
<path fill="#8FB25E" d="M412.568,276.476h-73.781l-63.166,82.027c0,0,5.082,8.699,4.269,12.226
	c-0.812,3.526-26.521-4.491-27.643-6.432c-1.122-1.941,15.448-9.756,15.448-9.756l61.132-94.12l83.741-13.822"/>
<path fill="#8FB25E" d="M550.912,371.266l12.463,55.758l18.439,39.81h35.889c0,0,4.486-3.109,0-4.665
	c-4.486-1.554-28.555-5.802-28.555-5.802l-14.893-36.786l-7.328-47.984"/>
<path fill="#8FB25E" d="M405.916,368.36l-12.461,55.758l-18.441,39.81h-35.889c0,0-4.486-3.11,0-4.666
	c4.486-1.555,28.557-5.802,28.557-5.802l14.891-36.786l7.328-47.984"/>
</svg>
