<?xml version="1.0" encoding="utf-8"?>
<!-- Generator: Adobe Illustrator 16.0.0, SVG Export Plug-In . SVG Version: 6.00 Build 0)  -->
<!DOCTYPE svg PUBLIC "-//W3C//DTD SVG 1.1//EN" "http://www.w3.org/Graphics/SVG/1.1/DTD/svg11.dtd">
<svg version="1.1" id="Layer_1" xmlns="http://www.w3.org/2000/svg" xmlns:xlink="http://www.w3.org/1999/xlink" x="0px" y="0px"
	 width="960px" height="560px" viewBox="0 0 960 560" enable-background="new 0 0 960 560" xml:space="preserve">
<path fill="#8FB25E" d="M411.846,362.327l-6.953,10.063h-15.995l-30.264-202.738l-5.204-34.863l13.909-10.834h221.147l13.91,10.834
	l-5.155,34.541l-30.313,203.061h-15.994l-6.955-10.063C543.979,362.327,478.609,326.727,411.846,362.327z"/>
<path fill="#5D6633" d="M454,201.334c0,0,7.06,28.846,3.119,32.407c-3.12,2.819-43.663,0.032-49.348-1.869"/>
<g>
	<path fill="#BED685" d="M397.334,189.717c0,0,0.23-0.193,0.665-0.494c0.435-0.28,1.07-0.763,1.881-1.232
		c0.81-0.495,1.794-1.033,2.923-1.594c1.128-0.559,2.401-1.117,3.79-1.66c1.389-0.53,2.894-1.037,4.485-1.49
		c1.591-0.438,3.27-0.844,5.006-1.15c0.867-0.188,1.75-0.289,2.644-0.415c0.446-0.062,0.896-0.124,1.348-0.187
		c0.452-0.037,0.905-0.075,1.361-0.113c1.823-0.193,3.675-0.207,5.526-0.254c1.852,0.048,3.704,0.074,5.527,0.268
		c0.911,0.057,1.815,0.174,2.709,0.305c0.893,0.119,1.775,0.234,2.644,0.42c1.736,0.305,3.414,0.715,5.006,1.154
		c1.591,0.449,3.096,0.957,4.485,1.486c2.777,1.066,5.092,2.265,6.713,3.24c0.81,0.467,1.446,0.947,1.881,1.226
		c0.434,0.3,0.665,0.491,0.665,0.491v1.011c0,0-0.926,0.03-2.546,0.085c-1.621,0.043-3.936,0.154-6.713,0.199
		c-2.778,0.041-6.02,0.135-9.491,0.154c-3.472,0.021-7.176,0.043-10.88,0.066c-3.703-0.022-7.407-0.045-10.879-0.066
		c-3.473-0.017-6.713-0.112-9.491-0.154c-2.778-0.043-5.093-0.156-6.713-0.199c-1.62-0.054-2.546-0.085-2.546-0.085V189.717z"/>
</g>
<g>
	<path fill="#BED685" d="M512.008,189.865c0-0.001,0.234-0.19,0.674-0.484c0.438-0.273,1.082-0.746,1.899-1.203
		c0.817-0.481,1.811-1.004,2.947-1.548c1.138-0.54,2.419-1.079,3.816-1.601c1.397-0.508,2.91-0.992,4.509-1.419
		c1.598-0.413,3.283-0.794,5.023-1.073c0.871-0.174,1.755-0.262,2.65-0.373c0.447-0.055,0.898-0.109,1.351-0.164
		c0.452-0.031,0.907-0.063,1.363-0.094c1.826-0.164,3.678-0.15,5.53-0.168c1.852,0.078,3.703,0.133,5.522,0.354
		c0.911,0.072,1.813,0.203,2.704,0.349c0.893,0.132,1.772,0.263,2.638,0.46c1.731,0.332,3.403,0.769,4.987,1.232
		c1.585,0.475,3.082,1.006,4.463,1.558c2.761,1.109,5.057,2.344,6.662,3.344c0.803,0.479,1.432,0.971,1.861,1.255
		c0.43,0.307,0.658,0.502,0.658,0.502l-0.016,1.011c0,0-0.927,0.017-2.549,0.045c-1.62,0.018-3.938,0.093-6.715,0.094
		c-2.779-0.002-6.021,0.041-9.494,0.006c-3.473-0.032-7.176-0.067-10.881-0.103c-3.703-0.08-7.406-0.161-10.878-0.236
		c-3.472-0.071-6.712-0.218-9.488-0.303c-2.777-0.087-5.091-0.236-6.71-0.305c-1.619-0.079-2.545-0.125-2.545-0.125L512.008,189.865
		z"/>
</g>
<path fill="#FFFFFF" d="M451.172,230.965c-3.119,2.819-39.635,0.048-45.32-1.854c-5.685-1.899-14.814-27.777-14.814-27.777
	l65.74-1.853C456.777,199.481,455.113,227.404,451.172,230.965z"/>
<path fill="#5D6633" d="M562.309,233.396c-3.117,2.818-45.216,3.171-50.901,1.27c-5.685-1.9-2.777-32.406-2.777-32.406"/>
<path fill="#1D1D1B" d="M456.777,199.481c0,12.784-7.725,24.074-18.813,24.074s-21.002-10.364-21.002-23.148"/>
<path fill="#FFFFFF" d="M445.824,207.781c0.547-0.198,1.764,1.258,2.721,3.256c0.959,1.996,1.294,3.778,0.748,3.978
	c-0.545,0.198-1.762-1.258-2.721-3.257C445.615,209.761,445.279,207.98,445.824,207.781z"/>
<path fill="#FFFFFF" d="M563.26,230.963c-3.116,2.819-41.15,3.342-46.837,1.44c-5.685-1.899-7.793-30.144-7.793-30.144h62.963
	C571.593,202.26,567.201,227.402,563.26,230.963z"/>
<path fill="#1D1D1B" d="M530.926,202.334c0,14.278,8.233,25.85,19.533,25.85s20.46-11.571,20.46-25.85"/>
<path fill="#FFFFFF" d="M563.528,209.252c-0.538,0.282-0.324,2.112,0.481,4.094c0.804,1.979,1.892,3.352,2.433,3.072
	c0.538-0.283,0.321-2.114-0.482-4.094C565.156,210.346,564.068,208.97,563.528,209.252z"/>
<path fill="#71882E" d="M597.428,168.791l-13.795-17.102l-0.606-19.426c0,0-26.76,8.062-37.333,8.325
	c-10.574,0.265-30.66,4.758-30.66,4.758l-46,13.233c0,0-35.45-10.723-35.014-10.59c0.438,0.131-23.98-2.158-29.383-2.644
	s-29.39-13.021-27.614-13.282c1.774-0.262-7.745,18.667-9.747,20.682c-2.001,2.017-8.43,16.426-8.43,16.426l-0.212,0.48
	c0,0-6.939-30.553-5.204-34.863c1.735-4.31,6.953-7.746,13.909-10.834c6.955-3.09,213.724-2.363,221.147,0
	c7.425,2.361,12.566,7.413,13.91,10.834c1.345,3.421-5.155,34.541-5.155,34.541L597.428,168.791z"/>
<path fill="#BED685" d="M375.488,149.129"/>
<path fill="#8FB25E" d="M573.42,276.672l53.729,6.143l-47.223,37.963c0,0-8.22,12.215-7.407,15.741
	c0.812,3.526,30.358-1.763,31.481-3.704c1.121-1.941-6.482-9.259-6.482-9.259l61.111-45.37l-85.209-31.392"/>
<path fill="#8FB25E" d="M412.568,276.477h-73.78l-45.899,41.524c0,0-11.224,6.657-12.037,10.185
	c-0.812,3.525-19.248-16.578-20.37-18.519c-1.122-1.941,23.148-0.926,23.148-0.926l45.197-48.32l83.741-13.822"/>
<path fill="#8FB25E" d="M550.912,371.266l12.462,55.758l18.441,39.811h35.889c0,0,4.485-3.109,0-4.665
	c-4.486-1.554-28.556-5.802-28.556-5.802l-14.893-36.786l-7.328-47.983"/>
<path fill="#8FB25E" d="M405.916,368.36l-12.461,55.759l-18.441,39.809h-35.889c0,0-4.486-3.109,0-4.665
	c4.486-1.555,28.557-5.802,28.557-5.802l14.891-36.785l7.328-47.984"/>
<path fill="#FFFFFF" d="M411.818,287.235l127.379-15.756c0,0,2.222,37.15-22.219,37.614
	c-24.438,0.461-102.197-12.331-102.197-12.331L411.818,287.235z"/>
<path fill="#5D6633" d="M538.701,282.533l-11.717,0.896l-3.518,7.96l-5.555-7.035l-104.158,9.106l1.027,3.302
	c0,0,77.76,12.792,102.197,12.331c15.616-0.297,20.348-15.57,21.728-26.561H538.701z"/>
</svg>
