<?xml version="1.0" encoding="utf-8"?>
<!-- Generator: Adobe Illustrator 16.0.0, SVG Export Plug-In . SVG Version: 6.00 Build 0)  -->
<!DOCTYPE svg PUBLIC "-//W3C//DTD SVG 1.1//EN" "http://www.w3.org/Graphics/SVG/1.1/DTD/svg11.dtd">
<svg version="1.1" id="Layer_1" xmlns="http://www.w3.org/2000/svg" xmlns:xlink="http://www.w3.org/1999/xlink" x="0px" y="0px"
	 width="960px" height="560px" viewBox="0 0 960 560" enable-background="new 0 0 960 560" xml:space="preserve">
<path fill="#8FB25E" d="M411.845,362.327l-6.953,10.063h-15.995l-30.264-202.738l-5.204-34.864l13.909-10.834h221.148l13.91,10.834
	l-5.156,34.542l-30.313,203.06h-15.995l-6.955-10.063C543.979,362.327,478.609,326.727,411.845,362.327z"/>
<path fill="#5D6633" d="M454,201.333c0,0,7.06,28.847,3.119,32.408c-3.12,2.819-43.663,0.032-49.348-1.869"/>
<g>
	<path fill="#BED685" d="M397.333,189.717c0,0,0.231-0.193,0.666-0.494c0.434-0.28,1.07-0.763,1.881-1.233
		c0.81-0.495,1.794-1.033,2.922-1.594c1.128-0.558,2.402-1.116,3.791-1.66c1.389-0.53,2.894-1.037,4.485-1.49
		c1.591-0.438,3.27-0.845,5.006-1.151c0.868-0.188,1.75-0.29,2.644-0.415c0.447-0.062,0.896-0.124,1.348-0.186
		c0.452-0.038,0.906-0.076,1.361-0.113c1.823-0.193,3.675-0.208,5.526-0.255c1.852,0.048,3.704,0.075,5.527,0.268
		c0.912,0.057,1.816,0.174,2.709,0.305c0.894,0.119,1.776,0.235,2.644,0.419c1.736,0.305,3.414,0.715,5.006,1.154
		c1.591,0.45,3.096,0.958,4.485,1.487c2.778,1.066,5.093,2.264,6.713,3.239c0.81,0.467,1.447,0.948,1.881,1.226
		c0.434,0.299,0.666,0.491,0.666,0.491v1.011c0,0-0.926,0.031-2.546,0.084c-1.62,0.043-3.935,0.154-6.713,0.199
		c-2.778,0.042-6.019,0.135-9.491,0.154c-3.472,0.021-7.176,0.044-10.88,0.067c-3.704-0.022-7.407-0.045-10.879-0.066
		c-3.472-0.017-6.713-0.112-9.491-0.154c-2.778-0.043-5.093-0.156-6.713-0.2c-1.621-0.054-2.546-0.085-2.546-0.085V189.717z"/>
</g>
<g>
	<path fill="#BED685" d="M512.008,189.865c0,0,0.234-0.19,0.673-0.483c0.438-0.273,1.083-0.746,1.9-1.204
		c0.818-0.481,1.811-1.004,2.947-1.548c1.138-0.54,2.419-1.079,3.816-1.6c1.397-0.509,2.91-0.992,4.509-1.419
		c1.598-0.413,3.283-0.793,5.023-1.073c0.871-0.174,1.755-0.262,2.65-0.374c0.448-0.055,0.898-0.109,1.351-0.165
		c0.452-0.031,0.907-0.062,1.363-0.093c1.826-0.165,3.678-0.15,5.531-0.168c1.851,0.077,3.703,0.133,5.522,0.354
		c0.911,0.071,1.813,0.203,2.705,0.348c0.892,0.132,1.772,0.262,2.637,0.46c1.731,0.332,3.403,0.768,4.988,1.232
		c1.584,0.475,3.081,1.006,4.462,1.557c2.761,1.109,5.057,2.344,6.662,3.344c0.803,0.48,1.432,0.971,1.862,1.255
		c0.429,0.306,0.658,0.501,0.658,0.501l-0.016,1.011c0,0-0.926,0.016-2.548,0.045c-1.621,0.018-3.938,0.093-6.716,0.094
		c-2.779-0.002-6.021,0.041-9.493,0.006c-3.473-0.033-7.177-0.068-10.881-0.103c-3.703-0.08-7.407-0.161-10.878-0.236
		c-3.472-0.071-6.711-0.217-9.488-0.302c-2.777-0.087-5.09-0.236-6.71-0.304c-1.62-0.08-2.545-0.125-2.545-0.125L512.008,189.865z"
		/>
</g>
<path fill="#FFFFFF" d="M451.172,230.965c-3.12,2.819-43.663,1.901-49.348,0c-5.685-1.899-10.787-29.632-10.787-29.632l65.741-1.852
	C456.778,199.481,455.113,227.404,451.172,230.965z"/>
<path fill="#5D6633" d="M562.309,233.397c-3.118,2.818-45.216,3.17-50.901,1.27c-5.685-1.901-2.777-32.407-2.777-32.407"/>
<path fill="#1D1D1B" d="M443.969,200.897c0,8.779-9.161,15.897-20.459,15.897c-11.3,0-20.458-7.118-20.458-15.897"/>
<path fill="#FFFFFF" d="M434,213.702c0.098,0.47-1.12,1.261-2.725,1.767c-1.604,0.508-2.985,0.538-3.083,0.068
	c-0.099-0.469,1.119-1.259,2.724-1.767C432.52,213.263,433.9,213.232,434,213.702z"/>
<path fill="#FFFFFF" d="M565.77,232.403c-3.117,2.819-43.661,1.901-49.347,0c-5.684-1.9-7.793-30.144-7.793-30.144h62.963
	C571.593,202.259,569.711,228.843,565.77,232.403z"/>
<path fill="#1D1D1B" d="M517.649,202.334c0,8.78,9.16,15.896,20.459,15.896s20.459-7.116,20.459-15.896"/>
<path fill="#FFFFFF" d="M527.618,215.139c-0.099,0.47,1.121,1.26,2.726,1.768c1.604,0.508,2.982,0.537,3.083,0.067
	c0.098-0.469-1.122-1.26-2.727-1.767C529.097,214.7,527.717,214.67,527.618,215.139z"/>
<path fill="#FFFFFF" d="M411.819,287.235l127.378-15.756c0,0,2.222,37.15-22.218,37.614
	c-24.438,0.461-102.198-12.331-102.198-12.331L411.819,287.235z"/>
<path fill="#5D6633" d="M538.702,282.533l-11.717,0.896l-3.518,7.96l-5.555-7.035l-104.158,9.106l1.027,3.302
	c0,0,77.76,12.792,102.198,12.331c15.616-0.297,20.347-15.57,21.727-26.561H538.702z"/>
<path fill="#71882E" d="M597.428,168.792l-13.794-17.102l-0.607-19.427c0,0-26.76,8.062-37.333,8.326
	c-10.574,0.264-30.66,4.758-30.66,4.758l-46,13.233c0,0-35.451-10.723-35.014-10.59c0.438,0.132-23.981-2.158-29.383-2.643
	c-5.402-0.486-29.39-13.02-27.615-13.282c1.775-0.262-7.745,18.667-9.747,20.682c-2.001,2.016-8.43,16.425-8.43,16.425l-0.212,0.481
	c0,0-6.939-30.553-5.204-34.864c1.735-4.31,6.953-7.746,13.909-10.834c6.955-3.089,213.724-2.363,221.148,0
	c7.424,2.362,12.566,7.414,13.91,10.834s-5.156,34.542-5.156,34.542L597.428,168.792z"/>
<path fill="#BED685" d="M375.488,149.129"/>
<path fill="#8FB25E" d="M562.309,253.765h73.781l77.869-39.231c0,0-5.081-8.698-4.268-12.224c0.812-3.526,26.521,4.49,27.643,6.431
	c1.122,1.941-15.448,9.757-15.448,9.757L646.05,269.82l-83.741,13.822"/>
<path fill="#8FB25E" d="M412.568,276.476h-73.78l-63.167,82.027c0,0,5.082,8.699,4.268,12.226
	c-0.811,3.526-26.52-4.491-27.643-6.432c-1.122-1.941,15.448-9.756,15.448-9.756l61.132-94.12l83.741-13.822"/>
<path fill="#8FB25E" d="M550.913,371.266l12.461,55.758l18.441,39.81h35.889c0,0,4.486-3.109,0-4.665
	c-4.486-1.554-28.556-5.802-28.556-5.802l-14.892-36.786l-7.328-47.984"/>
<path fill="#8FB25E" d="M405.916,368.36l-12.461,55.758l-18.441,39.81h-35.889c0,0-4.486-3.11,0-4.666
	c4.486-1.555,28.556-5.802,28.556-5.802l14.892-36.786l7.328-47.984"/>
</svg>
