<?xml version="1.0" encoding="utf-8"?>
<!-- Generator: Adobe Illustrator 16.0.0, SVG Export Plug-In . SVG Version: 6.00 Build 0)  -->
<!DOCTYPE svg PUBLIC "-//W3C//DTD SVG 1.1//EN" "http://www.w3.org/Graphics/SVG/1.1/DTD/svg11.dtd">
<svg version="1.1" id="Layer_1" xmlns="http://www.w3.org/2000/svg" xmlns:xlink="http://www.w3.org/1999/xlink" x="0px" y="0px"
	 width="960px" height="560px" viewBox="0 0 960 560" enable-background="new 0 0 960 560" xml:space="preserve">
<path fill="#8FB25E" d="M411.846,362.327l-6.953,10.063h-15.995l-30.265-202.738l-5.203-34.864l13.909-10.834h221.147l13.91,10.834
	l-5.155,34.542l-30.313,203.06h-15.994l-6.955-10.063C543.979,362.327,478.609,326.727,411.846,362.327z"/>
<path fill="#5D6633" d="M467.447,200.897c0,0-6.388,29.283-10.328,32.844c-3.119,2.819-43.663,0.032-49.348-1.869"/>
<g>
	<path fill="#BED685" d="M365.69,189.341c0,0,0.428-0.192,1.229-0.493c0.803-0.281,1.98-0.763,3.478-1.234
		c1.497-0.494,3.316-1.032,5.403-1.593c2.086-0.558,4.439-1.117,7.006-1.659c2.568-0.53,5.35-1.038,8.291-1.49
		c2.942-0.438,6.045-0.845,9.254-1.151c1.604-0.188,3.236-0.29,4.889-0.416c0.825-0.062,1.656-0.123,2.49-0.186
		c0.836-0.038,1.675-0.076,2.517-0.114c3.37-0.193,6.794-0.208,10.218-0.255c3.422,0.048,6.846,0.075,10.217,0.268
		c1.684,0.057,3.355,0.174,5.008,0.305c1.65,0.119,3.283,0.235,4.887,0.42c3.209,0.305,6.313,0.715,9.254,1.154
		c2.942,0.45,5.723,0.958,8.291,1.488c5.135,1.065,9.414,2.264,12.41,3.239c1.498,0.466,2.674,0.947,3.477,1.226
		c0.803,0.299,1.23,0.491,1.23,0.491v1.011c0,0-1.712,0.03-4.707,0.084c-2.996,0.039-7.275,0.167-12.41,0.187
		c-10.27,0.063-23.963,0.149-37.656,0.233c-13.693-0.084-27.387-0.169-37.658-0.232c-5.135-0.019-9.414-0.149-12.409-0.187
		c-2.995-0.055-4.707-0.085-4.707-0.085V189.341z"/>
</g>
<g>
	<path fill="#BED685" d="M483.334,189.292c0,0,0.428-0.193,1.23-0.494c0.803-0.28,1.979-0.763,3.477-1.233
		c1.498-0.494,3.316-1.033,5.402-1.594c2.086-0.558,4.439-1.116,7.008-1.66c2.566-0.53,5.349-1.037,8.291-1.49
		c2.941-0.437,6.043-0.844,9.254-1.15c1.604-0.188,3.236-0.29,4.887-0.415c0.826-0.062,1.657-0.124,2.492-0.187
		c0.834-0.037,1.674-0.075,2.516-0.112c3.371-0.194,6.794-0.208,10.217-0.255c3.424,0.049,6.848,0.075,10.217,0.268
		c1.686,0.056,3.357,0.174,5.008,0.305c1.652,0.119,3.283,0.235,4.889,0.419c3.209,0.306,6.311,0.716,9.254,1.154
		c2.941,0.45,5.723,0.958,8.291,1.487c5.135,1.066,9.414,2.265,12.409,3.239c1.497,0.467,2.675,0.949,3.476,1.226
		c0.803,0.3,1.23,0.491,1.23,0.491v1.011c0,0-1.711,0.032-4.706,0.085c-2.995,0.039-7.274,0.167-12.409,0.188
		c-10.271,0.063-23.965,0.148-37.658,0.232c-13.693-0.084-27.387-0.168-37.656-0.232c-5.135-0.019-9.414-0.149-12.41-0.187
		c-2.995-0.054-4.707-0.086-4.707-0.086V189.292z"/>
</g>
<path fill="#FFFFFF" d="M451.172,230.965c-3.119,2.819-43.662,1.901-49.348,0c-5.685-1.899-24.802-30.068-24.802-30.068h90.425
	C467.447,200.897,455.113,227.404,451.172,230.965z"/>
<path fill="#5D6633" d="M562.309,233.397c-3.117,2.818-42.076,5.039-47.762,3.138c-5.685-1.901-22.926-34.201-22.926-34.201"/>
<path fill="#1D1D1B" d="M443.969,200.897c0,8.779-9.161,15.897-20.459,15.897c-11.3,0-20.459-7.118-20.459-15.897"/>
<path fill="#FFFFFF" d="M434,213.702c0.098,0.47-1.12,1.261-2.725,1.767c-1.604,0.508-2.985,0.538-3.084,0.068
	c-0.099-0.469,1.119-1.259,2.725-1.767C432.52,213.263,433.9,213.232,434,213.702z"/>
<path fill="#FFFFFF" d="M565.77,232.403c-3.117,2.819-43.66,1.901-49.347,0c-5.685-1.9-24.802-30.069-24.802-30.069h90.426
	C582.047,202.334,569.711,228.843,565.77,232.403z"/>
<path fill="#1D1D1B" d="M517.649,202.334c0,8.78,9.159,15.896,20.459,15.896s20.46-7.116,20.46-15.896"/>
<path fill="#FFFFFF" d="M527.618,215.139c-0.099,0.47,1.12,1.26,2.726,1.768c1.604,0.508,2.982,0.537,3.084,0.067
	c0.098-0.469-1.122-1.26-2.727-1.767C529.098,214.7,527.717,214.67,527.618,215.139z"/>
<path fill="#FFFFFF" d="M411.818,287.235l127.379-15.756c0,0,2.221,37.15-22.219,37.614
	c-24.438,0.461-102.197-12.331-102.197-12.331L411.818,287.235z"/>
<path fill="#5D6633" d="M538.701,282.533l-11.717,0.896l-3.518,7.96l-5.555-7.035l-104.158,9.106l1.027,3.302
	c0,0,77.76,12.792,102.197,12.331c15.616-0.297,20.348-15.57,21.728-26.561H538.701z"/>
<path fill="#71882E" d="M597.428,168.792l-13.795-17.102l-0.606-19.427c0,0-26.761,8.062-37.333,8.326
	c-10.574,0.264-30.66,4.758-30.66,4.758l-46,13.233c0,0-35.449-10.723-35.014-10.59c0.439,0.132-23.98-2.158-29.383-2.643
	c-5.402-0.486-29.39-13.02-27.614-13.282c1.774-0.262-7.745,18.667-9.747,20.682c-2.001,2.016-8.43,16.425-8.43,16.425l-0.213,0.481
	c0,0-6.938-30.553-5.203-34.864c1.736-4.31,6.953-7.746,13.909-10.834c6.955-3.089,213.724-2.363,221.147,0
	c7.425,2.362,12.566,7.414,13.91,10.834c1.345,3.421-5.155,34.542-5.155,34.542L597.428,168.792z"/>
<path fill="#BED685" d="M375.488,149.129"/>
<path fill="#8FB25E" d="M562.309,253.765h73.781l63.166-82.028c0,0-5.081-8.698-4.27-12.224c0.813-3.526,26.521,4.49,27.644,6.431
	c1.122,1.941-15.448,9.757-15.448,9.757l-61.133,94.119l-83.74,13.822"/>
<path fill="#8FB25E" d="M412.568,276.476h-73.78l-63.167,82.027c0,0,5.082,8.699,4.269,12.226
	c-0.812,3.526-26.521-4.491-27.643-6.432c-1.122-1.941,15.448-9.756,15.448-9.756l61.132-94.12l83.741-13.822"/>
<path fill="#8FB25E" d="M550.912,371.266l12.463,55.758l18.439,39.81h35.889c0,0,4.486-3.109,0-4.665
	c-4.486-1.554-28.555-5.802-28.555-5.802l-14.893-36.786l-7.328-47.984"/>
<path fill="#8FB25E" d="M405.916,368.36l-12.461,55.758l-18.441,39.81h-35.889c0,0-4.486-3.11,0-4.666
	c4.486-1.555,28.557-5.802,28.557-5.802l14.891-36.786l7.328-47.984"/>
</svg>
