<?xml version="1.0" encoding="utf-8"?>
<!-- Generator: Adobe Illustrator 16.0.0, SVG Export Plug-In . SVG Version: 6.00 Build 0)  -->
<!DOCTYPE svg PUBLIC "-//W3C//DTD SVG 1.1//EN" "http://www.w3.org/Graphics/SVG/1.1/DTD/svg11.dtd">
<svg version="1.1" id="Layer_1" xmlns="http://www.w3.org/2000/svg" xmlns:xlink="http://www.w3.org/1999/xlink" x="0px" y="0px"
	 width="960px" height="560px" viewBox="0 0 960 560" enable-background="new 0 0 960 560" xml:space="preserve">
<path fill="#8FB25E" d="M411.846,362.327l-6.953,10.063h-15.995l-30.264-202.738l-5.204-34.864l13.909-10.834h221.147l13.91,10.834
	l-5.155,34.542l-30.313,203.06h-15.994l-6.955-10.063C543.979,362.327,478.609,326.727,411.846,362.327z"/>
<path fill="#5D6633" d="M454,201.333c0,0,7.06,28.847,3.119,32.408c-3.12,2.819-43.663,0.032-49.348-1.869"/>
<g>
	<path fill="#BED685" d="M397.334,189.717c0,0,0.23-0.193,0.665-0.494c0.435-0.28,1.07-0.763,1.881-1.233
		c0.81-0.495,1.794-1.033,2.923-1.594c1.128-0.558,2.401-1.116,3.79-1.66c1.389-0.53,2.894-1.037,4.485-1.49
		c1.591-0.438,3.27-0.845,5.006-1.151c0.867-0.188,1.75-0.29,2.644-0.415c0.446-0.062,0.896-0.124,1.348-0.186
		c0.452-0.038,0.905-0.076,1.361-0.113c1.823-0.193,3.675-0.208,5.526-0.255c1.852,0.048,3.704,0.075,5.527,0.268
		c0.911,0.057,1.815,0.174,2.709,0.305c0.893,0.119,1.775,0.235,2.644,0.419c1.736,0.305,3.414,0.715,5.006,1.154
		c1.591,0.45,3.096,0.958,4.485,1.487c2.777,1.066,5.092,2.264,6.713,3.239c0.81,0.467,1.446,0.948,1.881,1.226
		c0.434,0.299,0.665,0.491,0.665,0.491v1.011c0,0-0.926,0.031-2.546,0.084c-1.621,0.043-3.936,0.154-6.713,0.199
		c-2.778,0.042-6.02,0.135-9.491,0.154c-3.472,0.021-7.176,0.044-10.88,0.067c-3.703-0.022-7.407-0.045-10.879-0.066
		c-3.473-0.017-6.713-0.112-9.491-0.154c-2.778-0.043-5.093-0.156-6.713-0.2c-1.62-0.054-2.546-0.085-2.546-0.085V189.717z"/>
</g>
<g>
	<path fill="#BED685" d="M512.008,189.865c0,0,0.234-0.19,0.674-0.483c0.438-0.273,1.082-0.746,1.899-1.204
		c0.817-0.481,1.811-1.004,2.947-1.548c1.138-0.54,2.419-1.079,3.816-1.6c1.397-0.509,2.91-0.992,4.509-1.419
		c1.598-0.413,3.283-0.793,5.023-1.073c0.871-0.174,1.755-0.262,2.65-0.374c0.447-0.055,0.898-0.109,1.351-0.165
		c0.452-0.031,0.907-0.062,1.363-0.093c1.826-0.165,3.678-0.15,5.53-0.168c1.852,0.077,3.703,0.133,5.522,0.354
		c0.911,0.071,1.813,0.203,2.704,0.348c0.893,0.132,1.772,0.262,2.638,0.46c1.731,0.332,3.403,0.768,4.987,1.232
		c1.585,0.475,3.082,1.006,4.463,1.557c2.761,1.109,5.057,2.344,6.662,3.344c0.803,0.48,1.432,0.971,1.861,1.255
		c0.43,0.306,0.658,0.501,0.658,0.501l-0.016,1.011c0,0-0.927,0.016-2.549,0.045c-1.62,0.018-3.938,0.093-6.715,0.094
		c-2.779-0.002-6.021,0.041-9.494,0.006c-3.473-0.033-7.176-0.068-10.881-0.103c-3.703-0.08-7.406-0.161-10.878-0.236
		c-3.472-0.071-6.712-0.217-9.488-0.302c-2.777-0.087-5.091-0.236-6.71-0.304c-1.619-0.08-2.545-0.125-2.545-0.125L512.008,189.865z
		"/>
</g>
<path fill="#FFFFFF" d="M451.172,230.965c-3.119,2.819-39.635,0.047-45.32-1.854c-5.685-1.899-14.814-27.778-14.814-27.778
	l65.74-1.852C456.777,199.481,455.113,227.404,451.172,230.965z"/>
<path fill="#5D6633" d="M562.309,233.397c-3.117,2.818-45.216,3.17-50.901,1.27c-5.685-1.901-2.777-32.407-2.777-32.407"/>
<path fill="#1D1D1B" d="M443.969,200.897c0,14.048-9.161,25.437-20.459,25.437c-11.3,0-20.459-11.389-20.459-25.437"/>
<path fill="#FFFFFF" d="M429.005,210.656c0.519,0.263,0.292,2.147-0.508,4.213c-0.798,2.066-1.866,3.531-2.386,3.27
	c-0.518-0.261-0.29-2.145,0.509-4.213C427.419,211.859,428.486,210.395,429.005,210.656z"/>
<path fill="#FFFFFF" d="M563.26,230.963c-3.116,2.819-41.15,3.341-46.837,1.44c-5.685-1.9-7.793-30.144-7.793-30.144h62.963
	C571.593,202.259,567.201,227.402,563.26,230.963z"/>
<path fill="#1D1D1B" d="M517.649,202.334c0,14.279,9.159,25.851,20.459,25.851s20.46-11.572,20.46-25.851"/>
<path fill="#FFFFFF" d="M529.528,215.252c-0.538,0.282-0.324,2.112,0.481,4.093c0.804,1.979,1.892,3.352,2.433,3.073
	c0.538-0.283,0.321-2.114-0.482-4.094C531.156,216.346,530.068,214.97,529.528,215.252z"/>
<path fill="#FFFFFF" d="M411.818,287.235l127.379-15.756c0,0,4.058,29.39-20.383,29.854c-24.438,0.461-108.333,3.704-108.333,3.704
	L411.818,287.235z"/>
<path fill="#5D6633" d="M538.701,282.533l-11.717,0.896l-3.518,7.96l-5.555-7.035l-107.431,9.571v11.111
	c0,0,86.674-2.316,111.111-2.778c15.616-0.297,15.733-8.736,17.113-19.726H538.701z"/>
<path fill="#71882E" d="M597.428,168.792l-13.795-17.102l-0.606-19.427c0,0-26.76,8.062-37.333,8.326
	c-10.574,0.264-30.66,4.758-30.66,4.758l-46,13.233c0,0-35.45-10.723-35.014-10.59c0.438,0.132-23.98-2.158-29.383-2.643
	c-5.402-0.486-29.39-13.02-27.614-13.282c1.774-0.262-7.745,18.667-9.747,20.682c-2.001,2.016-8.43,16.425-8.43,16.425l-0.212,0.481
	c0,0-6.939-30.553-5.204-34.864c1.735-4.31,6.953-7.746,13.909-10.834c6.955-3.089,213.724-2.363,221.147,0
	c7.425,2.362,12.566,7.414,13.91,10.834c1.345,3.421-5.155,34.542-5.155,34.542L597.428,168.792z"/>
<path fill="#BED685" d="M375.488,149.129"/>
<path fill="#8FB25E" d="M568.79,274.82h73.781l54.721,28.128c0,0-5.08,8.698-4.268,12.224c0.812,3.526,26.52-4.49,27.643-6.431
	c1.121-1.941-15.448-9.757-15.448-9.757l-52.688-40.219l-83.741-13.822"/>
<path fill="#8FB25E" d="M412.568,276.476h-73.78l-64.191,43.138c0,0,5.082,8.699,4.269,12.226
	c-0.812,3.526-26.521-4.491-27.643-6.432c-1.122-1.941,15.448-9.756,15.448-9.756l62.156-55.23l83.741-13.822"/>
<path fill="#8FB25E" d="M550.912,371.266l12.462,55.758l18.441,39.81h35.889c0,0,4.485-3.109,0-4.665
	c-4.486-1.554-28.556-5.802-28.556-5.802l-14.893-36.786l-7.328-47.984"/>
<path fill="#8FB25E" d="M405.916,368.36l-12.461,55.758l-18.441,39.81h-35.889c0,0-4.486-3.11,0-4.666
	c4.486-1.555,28.557-5.802,28.557-5.802l14.891-36.786l7.328-47.984"/>
</svg>
