<?xml version="1.0" encoding="utf-8"?>
<!-- Generator: Adobe Illustrator 16.0.0, SVG Export Plug-In . SVG Version: 6.00 Build 0)  -->
<!DOCTYPE svg PUBLIC "-//W3C//DTD SVG 1.1//EN" "http://www.w3.org/Graphics/SVG/1.1/DTD/svg11.dtd">
<svg version="1.1" id="Layer_1" xmlns="http://www.w3.org/2000/svg" xmlns:xlink="http://www.w3.org/1999/xlink" x="0px" y="0px"
	 width="841.89px" height="595.28px" viewBox="0 0 841.89 595.28" enable-background="new 0 0 841.89 595.28" xml:space="preserve">
<path fill="#70A3C1" d="M496.693,429.14c111.77-41.399,27.932-113.598,27.932-113.598c57.639-38.77,36.107-160.432,36.107-160.432
	c6.578-1.488,12.941-6.204,15.551-9.255c4.375-5.12,7.018-11.767,7.018-19.03c0-16.187-13.121-29.308-29.309-29.308
	c-16.186,0-29.307,13.122-29.307,29.308c0,3.9,0.82,7.609,2.203,11.012c-113.137-25.4-208.275,0-208.275,0
	c1.383-3.403,2.352-7.028,2.352-10.929c0-16.187-13.121-29.308-29.309-29.308c-16.186,0-29.309,13.122-29.309,29.308
	c0,7.264,2.645,13.91,7.02,19.031c4.031,4.717,9.535,8.14,15.799,9.556c0,0-22.184,121.663,35.457,160.434
	c0,0-83.396,82.029,31.883,112.314C352.506,428.244,464.797,440.955,496.693,429.14z"/>
<path fill="none" stroke="#5D6733" stroke-width="0.6513" stroke-miterlimit="10" d="M583.301,488.167"/>
<circle fill="#FFFFFF" cx="363.806" cy="233.261" r="26.704"/>
<circle fill="#FFFFFF" cx="475.627" cy="233.261" r="26.705"/>
<circle cx="363.164" cy="232.852" r="17.953"/>
<circle cx="475.665" cy="233.852" r="17.954"/>
<circle fill="#FFFFFF" cx="373.454" cy="224.348" r="2.554"/>
<circle fill="#FFFFFF" cx="483.728" cy="223.815" r="2.553"/>
<g>
	<g>
		<path fill="#558AA5" d="M455.625,203.792c8.02-14.869,35.752-16.102,45.213-1.864c1.388,2.088,4.773,0.133,3.375-1.973
			c-11.023-16.588-42.421-15.827-51.963,1.864C451.055,204.037,454.428,206.01,455.625,203.792L455.625,203.792z"/>
	</g>
</g>
<g>
	<g>
		<path fill="#558AA5" d="M340.742,201.967c8.02-14.869,35.752-16.102,45.213-1.864c1.388,2.088,4.773,0.133,3.375-1.973
			c-11.023-16.587-42.422-15.827-51.963,1.864C336.172,202.212,339.545,204.185,340.742,201.967L340.742,201.967z"/>
	</g>
</g>
<g>
	<g>
		<path fill="#558AA5" d="M393.147,363.75c0.693-0.871,1.411-1.687,2.179-2.492c0.234-0.245,3.114-2.685,0.879-0.977
			c2.465-1.882,5.248-3.324,8.046-4.63c-2.074,0.969,2.399-0.825,2.226-0.765c1.457-0.507,2.949-0.908,4.438-1.31
			c3.607-0.975,6.133-1.369,9.441-1.665c7.102-0.635,13.795-0.204,20.014,1.197c1.49,0.336,2.953,0.779,4.414,1.225
			c0.932,0.297,1.854,0.619,2.769,0.965c-1.024-0.476-0.812-0.377,0.639,0.296c1.2,0.557,2.345,1.223,3.483,1.892
			c0.715,0.436,1.414,0.896,2.095,1.383c-1.126-0.892-1.113-0.848,0.039,0.132c5.516,4.861,13.646,5.446,19.092,0
			c4.956-4.956,5.523-14.224,0-19.092c-13.783-12.148-32.866-15.956-50.813-15.115c-16.774,0.786-37.073,6.104-48.03,19.864
			c-4.579,5.75-5.64,13.452,0,19.092C378.816,368.512,388.557,369.517,393.147,363.75L393.147,363.75z"/>
	</g>
</g>
<path fill="#FFFFFF" d="M382.305,340.323c0,0,8.104,11.074,14.166,8.033c2.755-1.381,3.664-5.428,5.699-15.198
	c0,0-12.158,2.606-19.865,6.296l-0.489,0.164L382.305,340.323z"/>
<g>
	<g>
		<path fill="#70A3C1" d="M539.947,281.64c17.078-1.354,43.668,1.747,50.07,20.619c3.033,8.944,0.209,18.911,0.432,28.112
			c0.216,8.913,2.023,17.813,6.055,25.796c3.302,6.539,9.273,13.255,16.479,15.567c5.615,1.801,8-7.004,2.424-8.793
			c-1.275-0.409,0.899,0.465-0.499-0.222c-1.24-0.609-2.801-1.656-3.387-2.129c-4.411-3.562-7.321-8.532-9.175-13.828
			c-3.427-9.789-3.211-20.502-2.155-30.676c0.821-7.907-0.334-15.834-4.281-22.802c-10.285-18.156-36.949-22.269-55.963-20.763
			C534.126,272.982,534.081,282.104,539.947,281.64L539.947,281.64z"/>
	</g>
</g>
<circle fill="#70A3C1" cx="626.505" cy="370.979" r="12.243"/>
<circle fill="#70A3C1" cx="235.6" cy="402.268" r="12.242"/>
<g>
	<g>
		<path fill="#70A3C1" d="M302.886,266.454c-18.409,3.38-36.547,14.618-48.926,28.338c-12.247,13.574-18.853,30.624-21.146,48.6
			c-1.879,14.729-0.717,30.347-0.756,45.181c-0.006,2.298-0.012,4.596-0.018,6.894c-0.016,5.881,9.103,5.879,9.117,0
			c0.079-29.828-3.617-61.876,14.146-87.78c11.186-16.308,30.395-28.492,49.799-32.399c0.068-0.014,0.137-0.027,0.206-0.04
			C311.088,274.186,308.633,265.399,302.886,266.454L302.886,266.454z"/>
	</g>
</g>
<circle fill="#70A3C1" cx="352.082" cy="426.886" r="12.375"/>
<circle fill="#70A3C1" cx="478.232" cy="432.966" r="12.375"/>
<g>
	<line fill="#70A3C1" x1="352.082" y1="432.966" x2="352.082" y2="511.988"/>
	<g>
		<path fill="#70A3C1" d="M347.523,432.966c0,26.34,0,52.681,0,79.021c0,5.88,9.117,5.88,9.117,0c0-26.34,0-52.681,0-79.021
			C356.641,427.086,347.523,427.086,347.523,432.966L347.523,432.966z"/>
	</g>
</g>
<g>
	<line fill="#70A3C1" x1="478.232" y1="432.966" x2="478.232" y2="511.988"/>
	<g>
		<path fill="#70A3C1" d="M473.674,432.966c0,26.34,0,52.681,0,79.021c0,5.88,9.117,5.88,9.117,0c0-26.34,0-52.681,0-79.021
			C482.791,427.086,473.674,427.086,473.674,432.966L473.674,432.966z"/>
	</g>
</g>
<ellipse fill="#70A3C1" cx="338.141" cy="514.917" rx="17.197" ry="2.932"/>
<ellipse fill="#70A3C1" cx="491.259" cy="514.267" rx="17.196" ry="2.932"/>
</svg>
