<?xml version="1.0" encoding="utf-8"?>
<!-- Generator: Adobe Illustrator 16.0.0, SVG Export Plug-In . SVG Version: 6.00 Build 0)  -->
<!DOCTYPE svg PUBLIC "-//W3C//DTD SVG 1.1//EN" "http://www.w3.org/Graphics/SVG/1.1/DTD/svg11.dtd">
<svg version="1.1" id="Layer_1" xmlns="http://www.w3.org/2000/svg" xmlns:xlink="http://www.w3.org/1999/xlink" x="0px" y="0px"
	 width="841.89px" height="595.28px" viewBox="0 0 841.89 595.28" enable-background="new 0 0 841.89 595.28" xml:space="preserve">
<path fill="#70A3C1" d="M496.692,429.141c111.77-41.4,27.932-113.598,27.932-113.598c57.639-38.771,36.107-160.432,36.107-160.432
	c6.578-1.488,12.941-6.204,15.551-9.255c4.375-5.12,7.018-11.767,7.018-19.03c0-16.187-13.121-29.308-29.309-29.308
	c-16.186,0-29.307,13.122-29.307,29.308c0,3.9,0.82,7.609,2.203,11.012c-113.137-25.4-208.275,0-208.275,0
	c1.383-3.403,2.352-7.028,2.352-10.929c0-16.187-13.121-29.308-29.309-29.308c-16.186,0-29.309,13.122-29.309,29.308
	c0,7.264,2.645,13.91,7.02,19.031c4.031,4.717,9.535,8.14,15.799,9.556c0,0-22.184,121.663,35.457,160.434
	c0,0-83.396,82.029,31.883,112.314C352.505,428.244,464.796,440.955,496.692,429.141z"/>
<path fill="none" stroke="#5D6733" stroke-width="0.6513" stroke-miterlimit="10" d="M583.3,488.168"/>
<circle fill="#FFFFFF" cx="363.805" cy="233.261" r="26.704"/>
<circle fill="#FFFFFF" cx="475.626" cy="233.261" r="26.705"/>
<circle cx="363.163" cy="232.852" r="17.953"/>
<circle cx="475.664" cy="233.852" r="17.954"/>
<circle fill="#FFFFFF" cx="373.453" cy="224.348" r="2.554"/>
<circle fill="#FFFFFF" cx="483.728" cy="223.815" r="2.553"/>
<g>
	<g>
		<path fill="#558AA5" d="M455.624,203.792c8.02-14.869,35.752-16.102,45.214-1.864c1.388,2.088,4.773,0.133,3.374-1.973
			c-11.023-16.588-42.42-15.827-51.962,1.864C451.054,204.037,454.428,206.01,455.624,203.792L455.624,203.792z"/>
	</g>
</g>
<g>
	<g>
		<path fill="#558AA5" d="M340.741,201.967c8.02-14.869,35.752-16.102,45.214-1.864c1.388,2.088,4.773,0.133,3.374-1.973
			c-11.023-16.587-42.421-15.827-51.962,1.864C336.171,202.212,339.545,204.185,340.741,201.967L340.741,201.967z"/>
	</g>
</g>
<g>
	<g>
		<path fill="#558AA5" d="M398.45,369.055c1.151-1.446,6.783-6.302,1.541-2.297c2.463-1.882,5.246-3.323,8.045-4.63
			c-5.239,2.447-0.706,0.388,0.434-0.009c1.457-0.507,2.949-0.907,4.438-1.31c1.551-0.419,3.127-0.731,4.701-1.046
			c2.375-0.39,2.157-0.393-0.652-0.011c1.131-0.138,2.264-0.251,3.399-0.341c3.505-0.313,7.032-0.29,10.545-0.149
			c1.702,0.067,3.396,0.247,5.089,0.428c-5.712-0.609,1.25,0.396,2.385,0.651c1.491,0.336,2.955,0.779,4.415,1.225
			c0.932,0.297,1.854,0.619,2.769,0.965c-2.813-1.242-3.196-1.396-1.153-0.46c1.2,0.558,2.345,1.223,3.484,1.892
			c0.715,0.436,1.413,0.896,2.094,1.383c-2.616-2.098-3.11-2.444-1.479-1.041c8.58,7.561,21.227,8.472,29.698,0
			c7.709-7.709,8.593-22.127,0-29.699c-15.305-13.487-36.072-18.249-56.117-17.311c-18.58,0.87-41.184,6.803-53.333,22.061
			c-7.124,8.946-8.772,20.926,0,29.699C376.159,376.461,391.308,378.023,398.45,369.055L398.45,369.055z"/>
	</g>
</g>
<path fill="#FFFFFF" d="M382.304,340.323c0,0,8.105,11.074,14.166,8.033c2.756-1.381,3.664-5.428,5.699-15.198
	c0,0-12.158,2.606-19.865,6.296l-0.488,0.164L382.304,340.323z"/>
<g>
	<g>
		<path fill="#70A3C1" d="M539.946,281.64c17.078-1.354,43.668,1.747,50.07,20.62c3.033,8.943,0.209,18.91,0.432,28.111
			c0.217,8.912,2.023,17.813,6.055,25.796c3.303,6.539,9.273,13.256,16.48,15.567c5.615,1.802,8-7.004,2.424-8.793
			c-1.275-0.409,0.898,0.465-0.5-0.223c-1.239-0.608-2.801-1.656-3.387-2.129c-4.41-3.563-7.32-8.533-9.174-13.828
			c-3.427-9.789-3.211-20.502-2.154-30.676c0.82-7.906-0.335-15.835-4.283-22.803c-10.285-18.156-36.949-22.269-55.963-20.763
			C534.126,272.982,534.081,282.104,539.946,281.64L539.946,281.64z"/>
	</g>
</g>
<circle fill="#70A3C1" cx="626.504" cy="370.979" r="12.243"/>
<circle fill="#70A3C1" cx="235.599" cy="402.268" r="12.242"/>
<g>
	<g>
		<path fill="#70A3C1" d="M302.886,266.454c-18.41,3.38-36.547,14.618-48.926,28.338c-12.248,13.574-18.854,30.624-21.146,48.601
			c-1.878,14.729-0.717,30.347-0.756,45.181c-0.006,2.298-0.012,4.596-0.018,6.894c-0.016,5.881,9.104,5.88,9.118,0
			c0.079-29.827-3.618-61.877,14.146-87.78c11.185-16.308,30.395-28.492,49.798-32.399c0.068-0.014,0.138-0.027,0.207-0.04
			C311.087,274.186,308.632,265.399,302.886,266.454L302.886,266.454z"/>
	</g>
</g>
<circle fill="#70A3C1" cx="352.081" cy="426.887" r="12.375"/>
<circle fill="#70A3C1" cx="478.231" cy="432.967" r="12.375"/>
<g>
	<line fill="#70A3C1" x1="352.081" y1="432.967" x2="352.081" y2="511.988"/>
	<g>
		<path fill="#70A3C1" d="M347.522,432.967c0,26.341,0,52.681,0,79.021c0,5.88,9.118,5.88,9.118,0c0-26.341,0-52.681,0-79.021
			C356.641,427.087,347.522,427.087,347.522,432.967L347.522,432.967z"/>
	</g>
</g>
<g>
	<line fill="#70A3C1" x1="478.231" y1="432.967" x2="478.231" y2="511.988"/>
	<g>
		<path fill="#70A3C1" d="M473.673,432.967c0,26.341,0,52.681,0,79.021c0,5.88,9.118,5.88,9.118,0c0-26.341,0-52.681,0-79.021
			C482.791,427.087,473.673,427.087,473.673,432.967L473.673,432.967z"/>
	</g>
</g>
<ellipse fill="#70A3C1" cx="338.14" cy="514.918" rx="17.197" ry="2.932"/>
<ellipse fill="#70A3C1" cx="491.258" cy="514.268" rx="17.196" ry="2.932"/>
</svg>
