<?xml version="1.0" encoding="utf-8"?>
<!-- Generator: Adobe Illustrator 16.0.0, SVG Export Plug-In . SVG Version: 6.00 Build 0)  -->
<!DOCTYPE svg PUBLIC "-//W3C//DTD SVG 1.1//EN" "http://www.w3.org/Graphics/SVG/1.1/DTD/svg11.dtd">
<svg version="1.1" id="Layer_1" xmlns="http://www.w3.org/2000/svg" xmlns:xlink="http://www.w3.org/1999/xlink" x="0px" y="0px"
	 width="841.89px" height="595.28px" viewBox="0 0 841.89 595.28" enable-background="new 0 0 841.89 595.28" xml:space="preserve">
<path fill="#70A3C1" d="M496.692,429.141c111.77-41.4,27.932-113.598,27.932-113.598c57.639-38.771,36.107-160.433,36.107-160.433
	c6.578-1.487,12.941-6.203,15.551-9.255c4.375-5.12,7.018-11.767,7.018-19.03c0-16.187-13.121-29.309-29.309-29.309
	c-16.186,0-29.307,13.122-29.307,29.309c0,3.9,0.82,7.609,2.203,11.012c-113.137-25.4-208.275,0-208.275,0
	c1.383-3.402,2.352-7.027,2.352-10.928c0-16.188-13.121-29.309-29.309-29.309c-16.186,0-29.309,13.121-29.309,29.309
	c0,7.264,2.645,13.91,7.02,19.03c4.031,4.718,9.535,8.14,15.799,9.556c0,0-22.184,121.663,35.457,160.435
	c0,0-83.396,82.029,31.883,112.314C352.505,428.244,464.796,440.955,496.692,429.141z"/>
<path fill="none" stroke="#5D6733" stroke-width="0.6513" stroke-miterlimit="10" d="M583.3,488.168"/>
<circle fill="#FFFFFF" cx="363.805" cy="233.261" r="26.704"/>
<circle fill="#FFFFFF" cx="475.626" cy="233.261" r="26.705"/>
<circle cx="363.163" cy="232.853" r="17.953"/>
<circle cx="475.664" cy="233.853" r="17.954"/>
<circle fill="#FFFFFF" cx="373.453" cy="224.348" r="2.554"/>
<circle fill="#FFFFFF" cx="483.728" cy="223.815" r="2.553"/>
<g>
	<g>
		<path fill="#558AA5" d="M455.624,203.792c8.02-14.87,35.752-16.104,45.214-1.864c1.388,2.088,4.773,0.133,3.374-1.973
			c-11.023-16.589-42.42-15.827-51.962,1.864C451.054,204.037,454.428,206.011,455.624,203.792L455.624,203.792z"/>
	</g>
</g>
<g>
	<g>
		<path fill="#558AA5" d="M340.741,201.967c8.02-14.869,35.752-16.102,45.214-1.864c1.388,2.088,4.773,0.133,3.374-1.973
			c-11.023-16.587-42.421-15.826-51.962,1.864C336.171,202.212,339.545,204.186,340.741,201.967L340.741,201.967z"/>
	</g>
</g>
<g>
	<g>
		<path fill="#558AA5" d="M402.692,373.297c1.615-2.027,7.797-7.064,0.326-1.358c2.464-1.881,5.247-3.322,8.045-4.63
			c-8.396,3.922,1.043-0.065,3.439-0.714c1.549-0.419,3.127-0.731,4.699-1.045c2.903-0.486,2.154-0.418-2.246,0.203
			c1.131-0.138,2.264-0.251,3.399-0.34c3.505-0.314,7.032-0.291,10.545-0.15c1.702,0.068,3.396,0.247,5.089,0.428
			c-8.645-0.922-1.156-0.002,0.79,0.438c1.491,0.336,2.954,0.778,4.415,1.225c0.932,0.297,1.854,0.618,2.768,0.965
			c-4.238-1.863-5.1-2.218-2.586-1.065c1.2,0.558,2.344,1.223,3.484,1.892c5.791,3.398-3.737-3.362-0.6-0.597
			c11.031,9.722,27.291,10.893,38.184,0c9.912-9.911,11.049-28.448,0-38.184c-16.516-14.556-38.645-20.085-60.359-19.068
			c-20.029,0.938-44.469,7.358-57.576,23.818c-4.668,5.862-7.908,11.29-7.908,19.092c0,7.132,2.868,14.052,7.908,19.092
			C374.032,382.82,393.511,384.829,402.692,373.297L402.692,373.297z"/>
	</g>
</g>
<path fill="#FFFFFF" d="M382.304,340.323c0,0,8.105,11.074,14.166,8.033c2.756-1.381,3.664-5.428,5.699-15.198
	c0,0-12.158,2.606-19.865,6.296l-0.488,0.164L382.304,340.323z"/>
<g>
	<g>
		<path fill="#558AA5" d="M539.946,281.64c19.146-1.518,49.265,3.074,51.311,26.831c0.283,3.276,0.18,6.588-0.633,9.603
			c-0.484,1.796-0.82,2.303-2.188,3.502c0.837-0.734-1.774,0.844-0.747,0.43c-0.789,0.318-1.629,0.498-2.465,0.643
			c-0.552,0.096-3.807-0.077-5.042-0.299c-12.085-2.166-23.419-9.366-33.636-15.787c-23.063-14.493-44.736-31.734-65.09-49.819
			c-4.379-3.892-10.852,2.534-6.448,6.447c15.052,13.376,30.902,25.969,47.19,37.798c11.881,8.628,24.181,16.93,37.365,23.45
			c8.686,4.296,20.274,9.644,30.161,6.5c8.142-2.589,10.343-10.573,10.72-18.249c0.607-12.367-4.986-23.264-14.996-30.331
			c-12.432-8.779-30.6-11.018-45.502-9.837C534.126,272.981,534.081,282.104,539.946,281.64L539.946,281.64z"/>
	</g>
</g>
<path fill="#558AA5" d="M508.628,243.778c0,18.227-14.777,33.004-33.004,33.004c-18.219,0-32.998-14.777-32.998-33.004
	c0-18.22,14.779-32.996,32.998-32.996C493.851,210.782,508.628,225.559,508.628,243.778z"/>
<circle fill="#558AA5" cx="370.9" cy="240.665" r="29.884"/>
<g>
	<g>
		<path fill="#558AA5" d="M301.796,266.914c-19.597,13.101-47.006,39.071-34.902,64.927c5.846,12.488,18.857,19.175,31.75,13.678
			c12.53-5.342,21.811-17.475,29.561-28.179c12.299-16.985,22.578-35.903,31.07-55.073c2.359-5.324-5.496-9.969-7.874-4.602
			c-9.114,20.575-20.259,40.87-33.845,58.823c-6.32,8.351-16.357,21.175-27.607,22.101c-5.492,0.451-9.919-3.43-13.117-7.859
			c-4.682-6.484-4.613-13.935-1.958-21.194c5.196-14.209,19.204-26.511,31.525-34.748C311.26,271.538,306.7,263.636,301.796,266.914
			L301.796,266.914z"/>
	</g>
</g>
<circle fill="#70A3C1" cx="352.081" cy="426.887" r="12.375"/>
<circle fill="#70A3C1" cx="478.231" cy="432.967" r="12.375"/>
<g>
	<line fill="#70A3C1" x1="352.081" y1="432.967" x2="352.081" y2="511.988"/>
	<g>
		<path fill="#70A3C1" d="M347.522,432.967c0,26.341,0,52.681,0,79.021c0,5.88,9.118,5.88,9.118,0c0-26.341,0-52.681,0-79.021
			C356.641,427.087,347.522,427.087,347.522,432.967L347.522,432.967z"/>
	</g>
</g>
<g>
	<line fill="#70A3C1" x1="478.231" y1="432.967" x2="478.231" y2="511.988"/>
	<g>
		<path fill="#70A3C1" d="M473.673,432.967c0,26.341,0,52.681,0,79.021c0,5.88,9.118,5.88,9.118,0c0-26.341,0-52.681,0-79.021
			C482.791,427.087,473.673,427.087,473.673,432.967L473.673,432.967z"/>
	</g>
</g>
<ellipse fill="#70A3C1" cx="338.14" cy="514.918" rx="17.197" ry="2.932"/>
<ellipse fill="#70A3C1" cx="491.258" cy="514.268" rx="17.196" ry="2.932"/>
</svg>
