<?xml version="1.0" encoding="utf-8"?>
<!-- Generator: Adobe Illustrator 16.0.0, SVG Export Plug-In . SVG Version: 6.00 Build 0)  -->
<!DOCTYPE svg PUBLIC "-//W3C//DTD SVG 1.1//EN" "http://www.w3.org/Graphics/SVG/1.1/DTD/svg11.dtd">
<svg version="1.1" id="Layer_1" xmlns="http://www.w3.org/2000/svg" xmlns:xlink="http://www.w3.org/1999/xlink" x="0px" y="0px"
	 width="841.89px" height="595.28px" viewBox="0 0 841.89 595.28" enable-background="new 0 0 841.89 595.28" xml:space="preserve">
<path fill="#70A3C1" d="M496.693,429.141c111.77-41.4,27.932-113.598,27.932-113.598c57.639-38.771,36.107-160.432,36.107-160.432
	c6.578-1.488,12.941-6.204,15.551-9.256c4.375-5.12,7.018-11.767,7.018-19.03c0-16.187-13.121-29.308-29.309-29.308
	c-16.186,0-29.307,13.121-29.307,29.308c0,3.9,0.82,7.608,2.203,11.013c-113.137-25.4-208.275,0-208.275,0
	c1.383-3.404,2.352-7.029,2.352-10.93c0-16.186-13.121-29.308-29.309-29.308c-16.186,0-29.309,13.122-29.309,29.308
	c0,7.264,2.645,13.91,7.02,19.031c4.031,4.717,9.535,8.141,15.799,9.557c0,0-22.184,121.662,35.457,160.434
	c0,0-83.396,82.029,31.883,112.314C352.506,428.244,464.797,440.955,496.693,429.141z"/>
<path fill="none" stroke="#5D6733" stroke-width="0.6513" stroke-miterlimit="10" d="M583.301,488.168"/>
<circle fill="#FFFFFF" cx="363.806" cy="233.261" r="26.704"/>
<circle fill="#FFFFFF" cx="475.627" cy="233.261" r="26.705"/>
<circle cx="363.164" cy="232.852" r="17.953"/>
<circle cx="475.665" cy="233.852" r="17.954"/>
<circle fill="#FFFFFF" cx="373.454" cy="224.348" r="2.554"/>
<circle fill="#FFFFFF" cx="483.728" cy="223.814" r="2.553"/>
<g>
	<g>
		<path fill="#558AA5" d="M455.625,203.791c8.02-14.868,35.752-16.101,45.213-1.863c1.388,2.088,4.773,0.134,3.375-1.973
			c-11.023-16.587-42.421-15.826-51.963,1.863C451.055,204.036,454.428,206.009,455.625,203.791L455.625,203.791z"/>
	</g>
</g>
<g>
	<g>
		<path fill="#558AA5" d="M340.742,201.967c8.02-14.87,35.752-16.103,45.213-1.863c1.388,2.088,4.773,0.134,3.375-1.973
			c-11.023-16.589-42.422-15.827-51.963,1.863C336.172,202.212,339.545,204.185,340.742,201.967L340.742,201.967z"/>
	</g>
</g>
<g>
	<g>
		<path fill="#558AA5" d="M402.693,373.297c1.614-2.026,7.796-7.064,0.326-1.358c2.463-1.881,5.246-3.322,8.045-4.63
			c-8.396,3.922,1.043-0.065,3.438-0.714c1.55-0.419,3.127-0.731,4.7-1.045c2.902-0.486,2.154-0.418-2.246,0.203
			c1.131-0.138,2.264-0.251,3.398-0.34c3.506-0.314,7.033-0.291,10.545-0.15c1.702,0.068,3.396,0.247,5.089,0.428
			c-8.644-0.922-1.156-0.002,0.79,0.438c1.491,0.336,2.955,0.779,4.416,1.225c0.931,0.297,1.854,0.618,2.768,0.965
			c-4.238-1.863-5.101-2.218-2.586-1.065c1.199,0.558,2.344,1.224,3.484,1.892c5.791,3.398-3.738-3.362-0.6-0.597
			c11.031,9.722,27.291,10.893,38.184,0c9.911-9.911,11.047-28.448,0-38.184c-16.516-14.556-38.645-20.085-60.359-19.068
			c-20.029,0.938-44.469,7.358-57.576,23.818c-4.668,5.862-7.908,11.29-7.908,19.092c0,7.132,2.867,14.052,7.908,19.092
			C374.033,382.819,393.511,384.829,402.693,373.297L402.693,373.297z"/>
	</g>
</g>
<path fill="#FFFFFF" d="M382.305,340.323c0,0,8.104,11.074,14.166,8.033c2.755-1.381,3.664-5.428,5.699-15.198
	c0,0-12.158,2.606-19.865,6.296l-0.489,0.164L382.305,340.323z"/>
<g>
	<g>
		<path fill="#558AA5" d="M539.947,281.64c19.146-1.518,49.264,3.074,51.311,26.832c0.516,5.979-0.137,12.495-4.764,16.737
			c-3.775,3.462-9.727,4.147-14.598,4.33c-14.845,0.558-29.943-4.204-43.815-8.974c-11.979-4.119-23.833-8.953-35.173-14.619
			c-5.243-2.621-9.863,5.244-4.602,7.873c20.516,10.253,42.834,19.037,65.428,23.182c12.326,2.261,27.752,3.766,38.262-4.566
			c11.252-8.922,10.393-27.716,3.914-39.15c-10.285-18.157-36.949-22.27-55.963-20.764
			C534.126,272.981,534.081,282.104,539.947,281.64L539.947,281.64z"/>
	</g>
</g>
<circle fill="#558AA5" cx="490.608" cy="309.882" r="12.243"/>
<circle fill="#558AA5" cx="320.943" cy="348.885" r="12.242"/>
<g>
	<g>
		<path fill="#558AA5" d="M301.797,266.913c-19.457,12.189-38.33,26.543-54.336,43.013c-9.269,9.537-19.393,21.451-21.033,35.166
			c-1.872,15.657,12.51,26.601,26.333,29.959c23.471,5.704,50.027-8.335,67.683-22.942c4.535-3.752-1.954-10.166-6.447-6.447
			c-1.884,1.559-5.268,3.945-8.338,5.965c-6.752,4.441-13.943,8.318-21.504,11.188c-14.895,5.655-37.844,7.708-47.266-8.61
			c-5.722-9.91,4.238-23.017,10.211-30.268c9.887-12,22.033-22.242,34.344-31.658c8.057-6.162,16.355-12.104,24.955-17.49
			C311.368,271.675,306.795,263.782,301.797,266.913L301.797,266.913z"/>
	</g>
</g>
<circle fill="#70A3C1" cx="352.082" cy="426.887" r="12.375"/>
<circle fill="#70A3C1" cx="478.232" cy="432.967" r="12.375"/>
<g>
	<line fill="#70A3C1" x1="352.082" y1="432.967" x2="352.082" y2="511.988"/>
	<g>
		<path fill="#70A3C1" d="M347.523,432.967c0,26.341,0,52.681,0,79.021c0,5.88,9.117,5.88,9.117,0c0-26.341,0-52.681,0-79.021
			C356.641,427.087,347.523,427.087,347.523,432.967L347.523,432.967z"/>
	</g>
</g>
<g>
	<line fill="#70A3C1" x1="478.232" y1="432.967" x2="478.232" y2="511.988"/>
	<g>
		<path fill="#70A3C1" d="M473.674,432.967c0,26.341,0,52.681,0,79.021c0,5.88,9.117,5.88,9.117,0c0-26.341,0-52.681,0-79.021
			C482.791,427.087,473.674,427.087,473.674,432.967L473.674,432.967z"/>
	</g>
</g>
<ellipse fill="#70A3C1" cx="338.141" cy="514.918" rx="17.197" ry="2.932"/>
<ellipse fill="#70A3C1" cx="491.259" cy="514.268" rx="17.196" ry="2.932"/>
</svg>
