<?xml version="1.0" encoding="utf-8"?>
<!-- Generator: Adobe Illustrator 16.0.0, SVG Export Plug-In . SVG Version: 6.00 Build 0)  -->
<!DOCTYPE svg PUBLIC "-//W3C//DTD SVG 1.1//EN" "http://www.w3.org/Graphics/SVG/1.1/DTD/svg11.dtd">
<svg version="1.1" id="Layer_1" xmlns="http://www.w3.org/2000/svg" xmlns:xlink="http://www.w3.org/1999/xlink" x="0px" y="0px"
	 width="841.89px" height="595.28px" viewBox="0 0 841.89 595.28" enable-background="new 0 0 841.89 595.28" xml:space="preserve">
<path fill="#70A3C1" d="M496.693,429.141c111.77-41.4,27.932-113.598,27.932-113.598c57.639-38.771,36.107-160.432,36.107-160.432
	c6.578-1.488,12.941-6.204,15.551-9.256c4.375-5.12,7.018-11.767,7.018-19.03c0-16.187-13.121-29.308-29.309-29.308
	c-16.186,0-29.307,13.121-29.307,29.308c0,3.9,0.82,7.608,2.203,11.013c-113.137-25.4-208.275,0-208.275,0
	c1.383-3.404,2.352-7.029,2.352-10.93c0-16.186-13.121-29.308-29.309-29.308c-16.186,0-29.309,13.122-29.309,29.308
	c0,7.264,2.645,13.91,7.02,19.031c4.031,4.717,9.535,8.141,15.799,9.557c0,0-22.184,121.662,35.457,160.434
	c0,0-83.396,82.029,31.883,112.314C352.506,428.244,464.797,440.955,496.693,429.141z"/>
<path fill="none" stroke="#5D6733" stroke-width="0.6513" stroke-miterlimit="10" d="M583.301,488.168"/>
<circle fill="#FFFFFF" cx="363.806" cy="233.261" r="26.704"/>
<circle fill="#FFFFFF" cx="475.627" cy="233.261" r="26.705"/>
<circle cx="345.254" cy="227.359" r="11.447"/>
<circle cx="457.074" cy="227.359" r="11.447"/>
<circle fill="#FFFFFF" cx="351.815" cy="221.937" r="1.628"/>
<circle fill="#FFFFFF" cx="462.216" cy="220.959" r="1.628"/>
<g>
	<g>
		<path fill="#558AA5" d="M455.625,203.791c8.02-14.868,35.752-16.101,45.213-1.863c1.388,2.088,4.774,0.133,3.375-1.973
			c-11.023-16.587-42.421-15.826-51.963,1.863C451.054,204.036,454.428,206.01,455.625,203.791L455.625,203.791z"/>
	</g>
</g>
<g>
	<g>
		<path fill="#558AA5" d="M340.742,201.967c8.02-14.869,35.752-16.102,45.213-1.863c1.388,2.088,4.774,0.133,3.375-1.973
			c-11.022-16.588-42.421-15.827-51.963,1.863C336.171,202.212,339.546,204.186,340.742,201.967L340.742,201.967z"/>
	</g>
</g>
<g>
	<g>
		<path fill="#558AA5" d="M393.147,363.751c0.693-0.87,1.41-1.688,2.18-2.491c0.233-0.245,3.113-2.685,0.879-0.978
			c2.463-1.882,5.246-3.323,8.045-4.631c-2.074,0.97,2.399-0.824,2.227-0.764c1.457-0.507,2.948-0.908,4.437-1.311
			c3.607-0.976,6.133-1.369,9.442-1.665c7.102-0.635,13.795-0.203,20.012,1.197c1.491,0.336,2.955,0.779,4.415,1.225
			c0.932,0.297,1.854,0.619,2.769,0.965c-1.024-0.477-0.812-0.377,0.639,0.297c1.2,0.557,2.344,1.223,3.484,1.891
			c0.715,0.436,1.412,0.896,2.094,1.383c-1.126-0.892-1.113-0.848,0.039,0.132c5.516,4.86,13.646,5.446,19.092,0
			c4.955-4.956,5.523-14.224,0-19.092c-13.783-12.147-32.867-15.955-50.813-15.114c-16.774,0.785-37.073,6.104-48.03,19.864
			c-4.58,5.751-5.64,13.452,0,19.092C378.817,368.513,388.556,369.517,393.147,363.751L393.147,363.751z"/>
	</g>
</g>
<path fill="#FFFFFF" d="M382.305,340.323c0,0,8.104,11.074,14.166,8.033c2.755-1.381,3.664-5.428,5.699-15.198
	c0,0-12.158,2.606-19.865,6.296l-0.489,0.164L382.305,340.323z"/>
<g>
	<g>
		<path fill="#70A3C1" d="M539.947,281.64c17.078-1.354,43.668,1.747,50.069,20.62c3.034,8.943,0.21,18.91,0.433,28.111
			c0.216,8.912,2.022,17.813,6.055,25.796c3.302,6.539,9.273,13.255,16.479,15.567c5.615,1.802,8-7.004,2.424-8.793
			c-1.275-0.409,0.899,0.465-0.5-0.223c-1.238-0.608-2.8-1.656-3.386-2.129c-4.411-3.563-7.321-8.533-9.175-13.828
			c-3.427-9.789-3.211-20.502-2.154-30.676c0.82-7.906-0.335-15.834-4.282-22.803c-10.286-18.156-36.949-22.269-55.963-20.763
			C534.126,272.982,534.081,282.104,539.947,281.64L539.947,281.64z"/>
	</g>
</g>
<circle fill="#70A3C1" cx="626.505" cy="370.979" r="12.243"/>
<circle fill="#70A3C1" cx="235.6" cy="402.268" r="12.242"/>
<g>
	<g>
		<path fill="#70A3C1" d="M302.886,266.454c-18.41,3.381-36.547,14.618-48.926,28.339c-12.247,13.573-18.853,30.623-21.146,48.6
			c-1.878,14.729-0.717,30.347-0.756,45.181c-0.006,2.298-0.013,4.596-0.019,6.894c-0.016,5.881,9.104,5.879,9.119,0
			c0.078-29.827-3.619-61.877,14.146-87.779c11.185-16.309,30.396-28.492,49.798-32.4c0.069-0.014,0.139-0.027,0.207-0.04
			C311.088,274.186,308.633,265.398,302.886,266.454L302.886,266.454z"/>
	</g>
</g>
<circle fill="#70A3C1" cx="352.082" cy="426.887" r="12.375"/>
<circle fill="#70A3C1" cx="478.232" cy="432.967" r="12.375"/>
<g>
	<line fill="#70A3C1" x1="352.082" y1="432.967" x2="352.082" y2="511.988"/>
	<g>
		<path fill="#70A3C1" d="M347.522,432.967c0,26.341,0,52.681,0,79.021c0,5.881,9.119,5.881,9.119,0c0-26.341,0-52.681,0-79.021
			C356.642,427.086,347.522,427.086,347.522,432.967L347.522,432.967z"/>
	</g>
</g>
<g>
	<line fill="#70A3C1" x1="478.232" y1="432.967" x2="478.232" y2="511.988"/>
	<g>
		<path fill="#70A3C1" d="M473.673,432.967c0,26.341,0,52.681,0,79.021c0,5.881,9.119,5.881,9.119,0c0-26.341,0-52.681,0-79.021
			C482.792,427.086,473.673,427.086,473.673,432.967L473.673,432.967z"/>
	</g>
</g>
<ellipse fill="#70A3C1" cx="338.141" cy="514.918" rx="17.197" ry="2.932"/>
<ellipse fill="#70A3C1" cx="491.259" cy="514.268" rx="17.196" ry="2.932"/>
</svg>
