<?xml version="1.0" encoding="utf-8"?>
<!-- Generator: Adobe Illustrator 16.0.0, SVG Export Plug-In . SVG Version: 6.00 Build 0)  -->
<!DOCTYPE svg PUBLIC "-//W3C//DTD SVG 1.1//EN" "http://www.w3.org/Graphics/SVG/1.1/DTD/svg11.dtd">
<svg version="1.1" id="Layer_1" xmlns="http://www.w3.org/2000/svg" xmlns:xlink="http://www.w3.org/1999/xlink" x="0px" y="0px"
	 width="841.89px" height="595.28px" viewBox="0 0 841.89 595.28" enable-background="new 0 0 841.89 595.28" xml:space="preserve">
<path fill="#70A3C1" d="M496.693,429.141c111.77-41.4,27.931-113.598,27.931-113.598c57.64-38.771,36.108-160.432,36.108-160.432
	c6.578-1.488,12.941-6.204,15.551-9.256c4.374-5.12,7.018-11.767,7.018-19.03c0-16.187-13.121-29.308-29.31-29.308
	c-16.185,0-29.306,13.121-29.306,29.308c0,3.9,0.82,7.608,2.202,11.013c-113.136-25.4-208.274,0-208.274,0
	c1.383-3.404,2.352-7.029,2.352-10.93c0-16.186-13.121-29.308-29.309-29.308c-16.186,0-29.309,13.122-29.309,29.308
	c0,7.264,2.644,13.91,7.02,19.031c4.032,4.717,9.535,8.141,15.799,9.557c0,0-22.184,121.662,35.456,160.434
	c0,0-83.396,82.029,31.884,112.314C352.506,428.244,464.797,440.955,496.693,429.141z"/>
<path fill="none" stroke="#5D6733" stroke-width="0.6513" stroke-miterlimit="10" d="M583.301,488.168"/>
<path fill="#FFFFFF" d="M390.509,233.261c0,14.749-11.954,26.704-26.702,26.704c-14.751,0-26.705-11.955-26.705-26.704
	c0-14.748,11.954-26.704,26.705-26.704C378.555,206.557,390.509,218.513,390.509,233.261z"/>
<circle fill="#FFFFFF" cx="475.627" cy="233.261" r="26.705"/>
<circle cx="363.261" cy="234.852" r="13.954"/>
<circle cx="475.568" cy="234.852" r="13.954"/>
<circle fill="#FFFFFF" cx="371.259" cy="228.242" r="1.984"/>
<circle fill="#FFFFFF" cx="481.835" cy="227.051" r="1.984"/>
<g>
	<g>
		<path fill="#558AA5" d="M455.624,203.791c8.021-14.868,35.753-16.101,45.214-1.863c1.388,2.088,4.773,0.133,3.375-1.973
			c-11.022-16.587-42.421-15.826-51.963,1.863C451.054,204.036,454.428,206.01,455.624,203.791L455.624,203.791z"/>
	</g>
</g>
<g>
	<g>
		<path fill="#558AA5" d="M340.741,201.967c8.021-14.869,35.753-16.102,45.213-1.863c1.389,2.088,4.774,0.133,3.376-1.973
			c-11.023-16.588-42.423-15.827-51.963,1.863C336.171,202.212,339.545,204.186,340.741,201.967L340.741,201.967z"/>
	</g>
</g>
<g>
	<g>
		<path fill="#558AA5" d="M393.147,363.751c0.693-0.87,1.41-1.688,2.178-2.491c0.235-0.245,3.115-2.685,0.881-0.978
			c2.463-1.882,5.247-3.323,8.045-4.631c-2.074,0.97,2.399-0.824,2.226-0.764c1.457-0.507,2.948-0.908,4.438-1.311
			c3.607-0.976,6.133-1.369,9.442-1.665c7.102-0.635,13.794-0.203,20.013,1.197c1.489,0.336,2.952,0.779,4.414,1.225
			c0.932,0.297,1.854,0.619,2.769,0.965c-1.024-0.477-0.812-0.377,0.639,0.297c1.2,0.557,2.345,1.223,3.483,1.891
			c0.714,0.436,1.413,0.896,2.095,1.383c-1.127-0.892-1.113-0.848,0.039,0.132c5.516,4.86,13.646,5.446,19.092,0
			c4.957-4.956,5.523-14.224,0-19.092c-13.784-12.147-32.866-15.955-50.813-15.114c-16.774,0.785-37.073,6.104-48.03,19.864
			c-4.579,5.751-5.64,13.452,0,19.092C378.817,368.513,388.556,369.517,393.147,363.751L393.147,363.751z"/>
	</g>
</g>
<path fill="#FFFFFF" d="M382.304,340.323c0,0,8.105,11.074,14.167,8.033c2.755-1.381,3.664-5.428,5.699-15.198
	c0,0-12.158,2.606-19.866,6.296l-0.488,0.164L382.304,340.323z"/>
<g>
	<g>
		<path fill="#70A3C1" d="M539.947,281.64c17.077-1.354,43.668,1.747,50.069,20.62c3.034,8.943,0.209,18.91,0.433,28.111
			c0.216,8.912,2.022,17.813,6.054,25.796c3.303,6.539,9.274,13.255,16.48,15.567c5.615,1.802,8-7.004,2.424-8.793
			c-1.275-0.409,0.899,0.465-0.5-0.223c-1.239-0.608-2.799-1.656-3.385-2.129c-4.412-3.563-7.322-8.533-9.176-13.828
			c-3.427-9.789-3.211-20.502-2.154-30.676c0.82-7.906-0.334-15.834-4.282-22.803c-10.286-18.156-36.949-22.269-55.963-20.763
			C534.126,272.982,534.081,282.104,539.947,281.64L539.947,281.64z"/>
	</g>
</g>
<path fill="#70A3C1" d="M638.748,370.979c0,6.762-5.482,12.244-12.245,12.244c-6.759,0-12.241-5.482-12.241-12.244
	c0-6.76,5.482-12.242,12.241-12.242C633.266,358.736,638.748,364.219,638.748,370.979z"/>
<circle fill="#70A3C1" cx="235.6" cy="402.268" r="12.241"/>
<g>
	<g>
		<path fill="#70A3C1" d="M302.886,266.454c-18.409,3.381-36.547,14.618-48.926,28.339c-12.247,13.573-18.852,30.623-21.145,48.6
			c-1.88,14.729-0.718,30.347-0.758,45.181c-0.005,2.298-0.011,4.596-0.018,6.894c-0.016,5.881,9.104,5.879,9.119,0
			c0.078-29.827-3.618-61.877,14.145-87.779c11.186-16.309,30.396-28.492,49.8-32.4c0.067-0.014,0.137-0.027,0.206-0.04
			C311.087,274.186,308.633,265.398,302.886,266.454L302.886,266.454z"/>
	</g>
</g>
<circle fill="#70A3C1" cx="352.082" cy="426.887" r="12.375"/>
<circle fill="#70A3C1" cx="478.233" cy="432.967" r="12.375"/>
<g>
	<line fill="#70A3C1" x1="352.082" y1="432.967" x2="352.082" y2="511.988"/>
	<g>
		<path fill="#70A3C1" d="M347.522,432.967c0,26.341,0,52.681,0,79.021c0,5.881,9.119,5.881,9.119,0c0-26.341,0-52.681,0-79.021
			C356.642,427.086,347.522,427.086,347.522,432.967L347.522,432.967z"/>
	</g>
</g>
<g>
	<line fill="#70A3C1" x1="478.232" y1="432.967" x2="478.232" y2="511.988"/>
	<g>
		<path fill="#70A3C1" d="M473.673,432.967c0,26.341,0,52.681,0,79.021c0,5.881,9.119,5.881,9.119,0c0-26.341,0-52.681,0-79.021
			C482.792,427.086,473.673,427.086,473.673,432.967L473.673,432.967z"/>
	</g>
</g>
<ellipse fill="#70A3C1" cx="338.141" cy="514.918" rx="17.197" ry="2.932"/>
<ellipse fill="#70A3C1" cx="491.258" cy="514.268" rx="17.196" ry="2.932"/>
</svg>
