<?xml version="1.0" encoding="utf-8"?>
<!-- Generator: Adobe Illustrator 16.0.0, SVG Export Plug-In . SVG Version: 6.00 Build 0)  -->
<!DOCTYPE svg PUBLIC "-//W3C//DTD SVG 1.1//EN" "http://www.w3.org/Graphics/SVG/1.1/DTD/svg11.dtd">
<svg version="1.1" id="Layer_1" xmlns="http://www.w3.org/2000/svg" xmlns:xlink="http://www.w3.org/1999/xlink" x="0px" y="0px"
	 width="841.89px" height="595.28px" viewBox="0 0 841.89 595.28" enable-background="new 0 0 841.89 595.28" xml:space="preserve">
<path fill="#70A3C1" d="M496.692,429.14c111.77-41.4,27.933-113.598,27.933-113.598c57.638-38.77,36.107-160.432,36.107-160.432
	c6.578-1.488,12.941-6.203,15.551-9.256c4.375-5.119,7.018-11.766,7.018-19.029c0-16.188-13.122-29.309-29.309-29.309
	c-16.186,0-29.307,13.121-29.307,29.309c0,3.9,0.82,7.609,2.203,11.012c-113.137-25.4-208.276,0-208.276,0
	c1.385-3.402,2.353-7.027,2.353-10.928c0-16.188-13.122-29.309-29.309-29.309c-16.186,0-29.309,13.121-29.309,29.309
	c0,7.264,2.645,13.91,7.02,19.029c4.031,4.719,9.535,8.141,15.799,9.557c0,0-22.184,121.662,35.457,160.434
	c0,0-83.396,82.029,31.883,112.314C352.506,428.243,464.796,440.954,496.692,429.14z"/>
<path fill="none" stroke="#5D6733" stroke-width="0.6513" stroke-miterlimit="10" d="M583.301,488.167"/>
<circle fill="#FFFFFF" cx="363.806" cy="233.261" r="26.704"/>
<circle fill="#FFFFFF" cx="475.627" cy="233.261" r="26.705"/>
<circle cx="363.164" cy="232.853" r="17.954"/>
<circle cx="475.665" cy="233.853" r="17.955"/>
<circle fill="#FFFFFF" cx="373.454" cy="224.347" r="2.554"/>
<circle fill="#FFFFFF" cx="483.728" cy="223.815" r="2.553"/>
<g>
	<g>
		<path fill="#558AA5" d="M455.625,203.792c8.019-14.871,35.751-16.104,45.213-1.865c1.388,2.088,4.774,0.135,3.375-1.973
			c-11.023-16.588-42.421-15.826-51.963,1.865C451.054,204.036,454.427,206.011,455.625,203.792L455.625,203.792z"/>
	</g>
</g>
<g>
	<g>
		<path fill="#558AA5" d="M340.742,201.966c8.02-14.869,35.751-16.102,45.213-1.863c1.388,2.088,4.774,0.133,3.374-1.973
			c-11.022-16.588-42.421-15.826-51.962,1.863C336.171,202.212,339.545,204.185,340.742,201.966L340.742,201.966z"/>
	</g>
</g>
<g>
	<g>
		<path fill="#558AA5" d="M402.692,373.296c1.615-2.027,7.797-7.064,0.327-1.357c2.464-1.883,5.247-3.324,8.045-4.631
			c-8.396,3.922,1.043-0.066,3.438-0.713c1.55-0.42,3.127-0.732,4.7-1.045c2.903-0.486,2.154-0.42-2.247,0.203
			c1.131-0.139,2.265-0.252,3.399-0.342c3.505-0.313,7.033-0.289,10.546-0.148c1.701,0.066,3.395,0.246,5.088,0.426
			c-8.644-0.92-1.156,0,0.79,0.438c1.491,0.336,2.955,0.779,4.415,1.225c0.932,0.297,1.854,0.619,2.768,0.965
			c-4.237-1.861-5.1-2.217-2.585-1.064c1.2,0.559,2.344,1.223,3.483,1.893c5.791,3.398-3.737-3.363-0.599-0.598
			c11.031,9.723,27.291,10.893,38.183,0c9.912-9.91,11.049-28.447,0-38.184c-16.516-14.555-38.644-20.084-60.358-19.068
			c-20.029,0.939-44.47,7.359-57.576,23.818c-4.668,5.861-7.908,11.291-7.908,19.092c0,7.133,2.867,14.051,7.908,19.092
			C374.032,382.819,393.511,384.827,402.692,373.296L402.692,373.296z"/>
	</g>
</g>
<path fill="#FFFFFF" d="M382.305,340.323c0,0,8.104,11.074,14.166,8.033c2.755-1.381,3.664-5.428,5.699-15.199
	c0,0-12.159,2.607-19.865,6.297l-0.489,0.164L382.305,340.323z"/>
<g>
	<g>
		<path fill="#558AA5" d="M539.946,281.64c19.146-1.518,49.264,3.074,51.312,26.83c0.282,3.277,0.179,6.588-0.634,9.604
			c-0.484,1.795-0.82,2.301-2.188,3.502c0.838-0.736-1.772,0.844-0.747,0.43c-0.789,0.318-1.629,0.496-2.464,0.643
			c-0.553,0.096-3.807-0.078-5.042-0.299c-12.086-2.166-23.42-9.367-33.637-15.787c-23.063-14.494-44.736-31.734-65.09-49.82
			c-4.379-3.891-10.852,2.535-6.447,6.449c15.051,13.375,30.902,25.969,47.189,37.797c11.881,8.627,24.182,16.93,37.365,23.449
			c8.686,4.295,20.274,9.645,30.161,6.5c8.142-2.588,10.344-10.572,10.72-18.248c0.608-12.367-4.986-23.264-14.995-30.332
			c-12.432-8.777-30.601-11.018-45.503-9.836C534.126,272.981,534.081,282.104,539.946,281.64L539.946,281.64z"/>
	</g>
</g>
<path fill="#558AA5" d="M508.628,243.778c0,18.227-14.777,33.004-33.003,33.004c-18.22,0-32.999-14.777-32.999-33.004
	c0-18.221,14.779-32.996,32.999-32.996C493.851,210.782,508.628,225.558,508.628,243.778z"/>
<circle fill="#558AA5" cx="381.117" cy="259.966" r="29.883"/>
<g>
	<g>
		<path fill="#558AA5" d="M301.796,266.913c-19.597,13.102-47.006,39.072-34.902,64.926c6.096,13.021,19.758,19.246,33.237,14.566
			c13.796-4.791,25.017-16.324,34.476-26.99c12.73-14.355,24.113-30.375,33.787-46.955c2.969-5.09-4.912-9.678-7.873-4.602
			c-11.637,19.943-25.6,39.477-42.286,55.482c-7.692,7.377-19.909,18.303-31.615,15.195c-6.411-1.703-11.314-8.582-13.058-14.627
			c-2.082-7.227,0.967-14.75,4.621-20.898c6.672-11.229,17.395-20.988,28.216-28.223C311.259,271.538,306.7,263.636,301.796,266.913
			L301.796,266.913z"/>
	</g>
</g>
<circle fill="#70A3C1" cx="352.082" cy="426.886" r="12.375"/>
<circle fill="#70A3C1" cx="478.232" cy="432.966" r="12.375"/>
<g>
	<line fill="#70A3C1" x1="352.082" y1="432.966" x2="352.082" y2="511.987"/>
	<g>
		<path fill="#70A3C1" d="M347.522,432.966c0,26.34,0,52.682,0,79.021c0,5.881,9.119,5.881,9.119,0c0-26.34,0-52.682,0-79.021
			C356.642,427.085,347.522,427.085,347.522,432.966L347.522,432.966z"/>
	</g>
</g>
<g>
	<line fill="#70A3C1" x1="478.232" y1="432.966" x2="478.232" y2="511.987"/>
	<g>
		<path fill="#70A3C1" d="M473.673,432.966c0,26.34,0,52.682,0,79.021c0,5.881,9.119,5.881,9.119,0c0-26.34,0-52.682,0-79.021
			C482.792,427.085,473.673,427.085,473.673,432.966L473.673,432.966z"/>
	</g>
</g>
<ellipse fill="#70A3C1" cx="338.141" cy="514.917" rx="17.197" ry="2.932"/>
<ellipse fill="#70A3C1" cx="491.259" cy="514.267" rx="17.196" ry="2.932"/>
</svg>
