<?xml version="1.0" encoding="utf-8"?>
<!-- Generator: Adobe Illustrator 16.0.0, SVG Export Plug-In . SVG Version: 6.00 Build 0)  -->
<!DOCTYPE svg PUBLIC "-//W3C//DTD SVG 1.1//EN" "http://www.w3.org/Graphics/SVG/1.1/DTD/svg11.dtd">
<svg version="1.1" id="Layer_1" xmlns="http://www.w3.org/2000/svg" xmlns:xlink="http://www.w3.org/1999/xlink" x="0px" y="0px"
	 width="841.89px" height="595.28px" viewBox="0 0 841.89 595.28" enable-background="new 0 0 841.89 595.28" xml:space="preserve">
<path fill="#70A3C1" d="M496.691,429.141c111.77-41.4,27.933-113.598,27.933-113.598c57.638-38.771,36.107-160.432,36.107-160.432
	c6.578-1.488,12.941-6.204,15.551-9.255c4.375-5.12,7.018-11.767,7.018-19.03c0-16.187-13.122-29.308-29.309-29.308
	c-16.186,0-29.307,13.122-29.307,29.308c0,3.9,0.82,7.609,2.203,11.012c-113.137-25.4-208.276,0-208.276,0
	c1.385-3.403,2.353-7.028,2.353-10.929c0-16.187-13.122-29.308-29.309-29.308c-16.186,0-29.309,13.122-29.309,29.308
	c0,7.264,2.645,13.91,7.02,19.031c4.031,4.717,9.535,8.14,15.799,9.556c0,0-22.184,121.663,35.457,160.434
	c0,0-83.396,82.029,31.883,112.314C352.505,428.244,464.795,440.955,496.691,429.141z"/>
<path fill="none" stroke="#5D6733" stroke-width="0.6513" stroke-miterlimit="10" d="M583.3,488.168"/>
<circle fill="#FFFFFF" cx="363.805" cy="233.261" r="26.704"/>
<circle fill="#FFFFFF" cx="475.626" cy="233.261" r="26.705"/>
<circle cx="363.163" cy="232.852" r="17.954"/>
<circle cx="475.664" cy="233.852" r="17.955"/>
<circle fill="#FFFFFF" cx="373.453" cy="224.348" r="2.554"/>
<circle fill="#FFFFFF" cx="483.727" cy="223.815" r="2.553"/>
<g>
	<g>
		<path fill="#558AA5" d="M455.624,203.792c8.019-14.869,35.752-16.102,45.213-1.864c1.389,2.088,4.774,0.133,3.375-1.973
			c-11.023-16.588-42.42-15.827-51.963,1.864C451.054,204.037,454.428,206.01,455.624,203.792L455.624,203.792z"/>
	</g>
</g>
<g>
	<g>
		<path fill="#558AA5" d="M340.741,201.967c8.02-14.869,35.752-16.102,45.213-1.864c1.388,2.088,4.774,0.133,3.374-1.973
			c-11.022-16.587-42.42-15.827-51.962,1.864C336.171,202.212,339.545,204.185,340.741,201.967L340.741,201.967z"/>
	</g>
</g>
<g>
	<g>
		<path fill="#558AA5" d="M402.691,373.297c1.616-2.027,7.798-7.064,0.327-1.357c2.464-1.883,5.248-3.324,8.045-4.631
			c-8.395,3.922,1.043-0.065,3.439-0.714c1.549-0.419,3.126-0.731,4.699-1.045c2.904-0.486,2.154-0.418-2.246,0.203
			c1.131-0.138,2.264-0.251,3.399-0.341c3.504-0.313,7.032-0.29,10.546-0.149c1.701,0.067,3.394,0.247,5.088,0.428
			c-8.645-0.922-1.156-0.002,0.79,0.437c1.491,0.336,2.954,0.779,4.415,1.225c0.931,0.298,1.854,0.619,2.767,0.966
			c-4.237-1.862-5.1-2.218-2.585-1.065c1.2,0.558,2.344,1.223,3.483,1.892c5.792,3.399-3.737-3.362-0.599-0.597
			c11.031,9.722,27.291,10.893,38.183,0c9.913-9.911,11.05-28.448,0-38.184c-16.515-14.555-38.644-20.086-60.358-19.068
			c-20.029,0.938-44.469,7.359-57.576,23.818c-4.668,5.862-7.908,11.291-7.908,19.092c0,7.133,2.867,14.051,7.908,19.092
			C374.032,382.82,393.51,384.828,402.691,373.297L402.691,373.297z"/>
	</g>
</g>
<path fill="#FFFFFF" d="M382.304,340.323c0,0,8.105,11.074,14.166,8.033c2.756-1.381,3.664-5.428,5.699-15.198
	c0,0-12.159,2.606-19.865,6.296l-0.488,0.164L382.304,340.323z"/>
<g>
	<g>
		<path fill="#558AA5" d="M539.945,281.64c19.147-1.517,49.266,3.074,51.312,26.831c0.516,5.979-0.137,12.496-4.764,16.738
			c-3.775,3.461-9.727,4.147-14.599,4.33c-14.843,0.558-29.942-4.203-43.813-8.974c-11.98-4.119-23.832-8.952-35.172-14.619
			c-5.244-2.62-9.864,5.244-4.604,7.873c20.516,10.253,42.834,19.037,65.428,23.182c12.328,2.261,27.753,3.766,38.263-4.566
			c11.252-8.922,10.392-27.716,3.913-39.151c-10.285-18.156-36.949-22.269-55.964-20.763
			C534.125,272.982,534.081,282.104,539.945,281.64L539.945,281.64z"/>
	</g>
</g>
<circle fill="#558AA5" cx="490.607" cy="309.882" r="12.243"/>
<circle fill="#558AA5" cx="320.943" cy="348.885" r="12.242"/>
<g>
	<g>
		<path fill="#558AA5" d="M301.795,266.914c-19.456,12.188-38.329,26.542-54.335,43.012c-9.269,9.537-19.393,21.451-21.032,35.166
			c-1.872,15.658,12.51,26.6,26.333,29.959c23.471,5.704,50.027-8.334,67.682-22.942c4.535-3.752-1.953-10.165-6.446-6.447
			c-1.885,1.558-5.27,3.945-8.339,5.965c-6.752,4.442-13.943,8.317-21.504,11.188c-14.894,5.654-37.844,7.709-47.266-8.61
			c-5.721-9.91,4.237-23.017,10.211-30.268c9.887-12,22.033-22.242,34.345-31.658c8.056-6.162,16.355-12.104,24.955-17.491
			C311.368,271.674,306.795,263.782,301.795,266.914L301.795,266.914z"/>
	</g>
</g>
<circle fill="#70A3C1" cx="352.081" cy="426.887" r="12.375"/>
<circle fill="#70A3C1" cx="478.231" cy="432.967" r="12.375"/>
<g>
	<line fill="#70A3C1" x1="352.081" y1="432.967" x2="352.081" y2="511.988"/>
	<g>
		<path fill="#70A3C1" d="M347.522,432.967c0,26.341,0,52.681,0,79.021c0,5.88,9.119,5.88,9.119,0c0-26.341,0-52.681,0-79.021
			C356.642,427.087,347.522,427.087,347.522,432.967L347.522,432.967z"/>
	</g>
</g>
<g>
	<line fill="#70A3C1" x1="478.231" y1="432.967" x2="478.231" y2="511.988"/>
	<g>
		<path fill="#70A3C1" d="M473.673,432.967c0,26.341,0,52.681,0,79.021c0,5.88,9.119,5.88,9.119,0c0-26.341,0-52.681,0-79.021
			C482.792,427.087,473.673,427.087,473.673,432.967L473.673,432.967z"/>
	</g>
</g>
<ellipse fill="#70A3C1" cx="338.14" cy="514.918" rx="17.197" ry="2.932"/>
<ellipse fill="#70A3C1" cx="491.258" cy="514.268" rx="17.196" ry="2.932"/>
</svg>
