<?xml version="1.0" encoding="utf-8"?>
<!-- Generator: Adobe Illustrator 16.0.0, SVG Export Plug-In . SVG Version: 6.00 Build 0)  -->
<!DOCTYPE svg PUBLIC "-//W3C//DTD SVG 1.1//EN" "http://www.w3.org/Graphics/SVG/1.1/DTD/svg11.dtd">
<svg version="1.1" id="Layer_1" xmlns="http://www.w3.org/2000/svg" xmlns:xlink="http://www.w3.org/1999/xlink" x="0px" y="0px"
	 width="841.89px" height="595.28px" viewBox="0 0 841.89 595.28" enable-background="new 0 0 841.89 595.28" xml:space="preserve">
<path fill="#689FBB" d="M486.587,419.097c111.77-41.399,27.931-113.598,27.931-113.598c57.64-38.77,36.107-160.432,36.107-160.432
	c6.579-1.488,12.942-6.204,15.551-9.255c4.376-5.12,7.019-11.767,7.019-19.03c0-16.187-13.122-29.308-29.309-29.308
	c-16.186,0-29.308,13.122-29.308,29.308c0,3.9,0.82,7.609,2.204,11.012c-113.137-25.4-208.275,0-208.275,0
	c1.383-3.403,2.352-7.028,2.352-10.929c0-16.187-13.122-29.308-29.309-29.308c-16.186,0-29.309,13.122-29.309,29.308
	c0,7.264,2.644,13.91,7.02,19.031c4.031,4.717,9.535,8.14,15.799,9.556c0,0-22.184,121.663,35.456,160.434
	c0,0-83.396,82.029,31.883,112.314C342.398,418.201,454.69,430.912,486.587,419.097z"/>
<path fill="none" stroke="#556337" stroke-width="0.6513" stroke-miterlimit="10" d="M573.194,478.125"/>
<ellipse fill="#FFFFFF" cx="353.699" cy="232.551" rx="26.705" ry="17.372"/>
<ellipse fill="#FFFFFF" cx="465.52" cy="232.551" rx="26.705" ry="17.372"/>
<circle cx="466.967" cy="237.316" r="11.447"/>
<circle fill="#FFFFFF" cx="472.109" cy="230.917" r="1.628"/>
<g>
	<g>
		<path fill="#5388A0" d="M445.519,193.749c3.338-5.89,15.301-6.765,21.114-7.272c6.898-0.603,19.597-1.24,24.099,5.409
			c1.404,2.074,4.792,0.121,3.375-1.973c-5.355-7.91-17.941-7.897-26.379-7.423c-7.628,0.429-21.275,1.686-25.584,9.287
			C440.899,193.972,444.276,195.94,445.519,193.749L445.519,193.749z"/>
	</g>
</g>
<g>
	<g>
		<path fill="#5388A0" d="M330.636,191.924c3.338-5.891,15.301-6.765,21.114-7.272c6.898-0.603,19.597-1.24,24.099,5.409
			c1.404,2.074,4.792,0.121,3.375-1.973c-5.355-7.91-17.941-7.897-26.379-7.423c-7.628,0.429-21.276,1.686-25.584,9.287
			C326.017,192.147,329.394,194.116,330.636,191.924L330.636,191.924z"/>
	</g>
</g>
<g>
	<g>
		<path fill="#5388A0" d="M386.222,356.89c0.693-0.871,1.411-1.688,2.179-2.492c0.704-0.737,3.814-3.211-0.031-0.273
			c2.464-1.882,5.247-3.324,8.045-4.631c-4.031,1.883,0.449-0.066,1.151-0.311c1.457-0.507,2.949-0.908,4.438-1.31
			c1.55-0.419,3.126-0.731,4.7-1.045c2.111-0.339,2.159-0.378,0.146-0.119c1.13-0.137,2.264-0.25,3.399-0.34
			c3.505-0.313,7.032-0.291,10.545-0.15c1.701,0.068,3.396,0.247,5.088,0.427c-4.047-0.431,2.445,0.593,3.184,0.759
			c1.49,0.336,2.954,0.779,4.415,1.225c0.931,0.297,1.854,0.619,2.769,0.965c-2.099-0.933-2.244-0.985-0.438-0.157
			c1.2,0.557,2.345,1.223,3.484,1.892c0.715,0.436,1.412,0.896,2.094,1.383c-2.021-1.615-2.311-1.806-0.871-0.572
			c7.354,6.481,18.194,7.261,25.455,0c6.608-6.608,7.365-18.965,0-25.456c-14.696-12.953-34.789-17.333-53.995-16.433
			c-17.858,0.836-39.539,6.525-51.212,21.182c-6.106,7.667-7.519,17.937,0,25.456C367.115,363.239,380.1,364.577,386.222,356.89
			L386.222,356.89z"/>
	</g>
</g>
<path fill="#FFFFFF" d="M379.051,327.417c0,0,8.104,11.074,14.166,8.033c2.755-1.381,3.664-5.428,5.699-15.198
	c0,0-12.158,2.606-19.865,6.296l-0.489,0.164L379.051,327.417z"/>
<g>
	<g>
		<path fill="#5388A0" d="M526.585,286.937c1.123,0.55-0.79-0.769,0.205,0.128c1.344,1.211,0.997,0.895,2.097,2.864
			c3.157,5.654,3.731,12.925,4.046,19.294c0.297,6.022-0.014,12.067-0.492,18.07c-0.227,2.839-0.609,7.325-1.492,9.179
			c-0.594,1.246-0.191,0.607-0.855,1.307c0.209-0.22-1.012,0.625-0.311,0.337c-1.387,0.568-2.023,0.399-3.273,0.13
			c-9.811-2.114-19.382-11.653-26.766-18.485c-10.811-10.003-20.801-20.9-30.494-31.976c-7.615-8.699-15.076-17.564-22.194-26.677
			c-3.616-4.63-10.021,1.872-6.447,6.448c12.539,16.053,25.943,31.545,40.07,46.215c9.488,9.853,19.479,19.619,30.876,27.268
			c6.988,4.69,17.211,9.875,24.727,3.435c3.828-3.281,4.441-8.902,4.938-13.551c1.162-10.873,1.421-21.888-0.307-32.711
			c-0.973-6.092-3.423-16.063-9.724-19.15C525.929,276.487,521.306,284.35,526.585,286.937L526.585,286.937z"/>
	</g>
</g>
<circle fill="#5388A0" stroke="#5388A0" stroke-miterlimit="10" cx="443.831" cy="268.043" r="12.243"/>
<circle fill="#5388A0" cx="304.941" cy="209.725" r="16.963"/>
<g>
	<g>
		<path fill="#5388A0" d="M284.086,273.803c-7.737,5.318-15.904,10.095-24.248,14.386c-6.228,3.204-12.665,6.064-19.447,7.873
			c-4.105,1.094-9.76,2.016-12.336-0.579c-1.055-1.062-1.33-3.604-1.345-5.488c-0.016-1.947-0.125-1.499,1.299-3.86
			c2.905-4.817,7.007-8.977,10.856-13.031c11.458-12.069,23.941-23.195,36.435-34.171c9.149-8.039,18.404-15.97,27.81-23.708
			c4.544-3.739-1.946-10.152-6.448-6.448c-19.63,16.152-38.956,32.859-57.112,50.659c-5.032,4.933-9.977,9.99-14.475,15.419
			c-2.796,3.375-6.161,7.304-7.174,11.7c-1.243,5.393,0.214,12.319,4.442,16.072c4.472,3.97,10.574,3.915,16.142,3.131
			c11.263-1.585,22.217-7.513,32.039-12.941c6.207-3.43,12.318-7.121,18.165-11.139
			C293.501,278.369,288.947,270.462,284.086,273.803L284.086,273.803z"/>
	</g>
</g>
<circle fill="#689FBB" cx="341.975" cy="416.843" r="12.375"/>
<circle fill="#689FBB" cx="468.125" cy="422.923" r="12.375"/>
<g>
	<line fill="#689FBB" x1="341.975" y1="422.923" x2="341.975" y2="501.945"/>
	<g>
		<path fill="#689FBB" d="M337.415,422.923c0,26.34,0,52.681,0,79.021c0,5.88,9.119,5.88,9.119,0c0-26.34,0-52.681,0-79.021
			C346.534,417.043,337.415,417.043,337.415,422.923L337.415,422.923z"/>
	</g>
</g>
<g>
	<line fill="#689FBB" x1="468.125" y1="422.923" x2="468.125" y2="501.945"/>
	<g>
		<path fill="#689FBB" d="M463.565,422.923c0,26.34,0,52.681,0,79.021c0,5.88,9.119,5.88,9.119,0c0-26.34,0-52.681,0-79.021
			C472.685,417.043,463.565,417.043,463.565,422.923L463.565,422.923z"/>
	</g>
</g>
<ellipse fill="#689FBB" cx="328.034" cy="504.875" rx="17.197" ry="2.932"/>
<ellipse fill="#689FBB" cx="481.152" cy="504.224" rx="17.197" ry="2.932"/>
<circle cx="355.146" cy="237.316" r="11.447"/>
<circle fill="#FFFFFF" cx="361.708" cy="231.894" r="1.628"/>
</svg>
