<?xml version="1.0" encoding="utf-8"?>
<!-- Generator: Adobe Illustrator 16.0.0, SVG Export Plug-In . SVG Version: 6.00 Build 0)  -->
<!DOCTYPE svg PUBLIC "-//W3C//DTD SVG 1.1//EN" "http://www.w3.org/Graphics/SVG/1.1/DTD/svg11.dtd">
<svg version="1.1" id="Layer_1" xmlns="http://www.w3.org/2000/svg" xmlns:xlink="http://www.w3.org/1999/xlink" x="0px" y="0px"
	 width="841.89px" height="595.28px" viewBox="0 0 841.89 595.28" enable-background="new 0 0 841.89 595.28" xml:space="preserve">
<path fill="#70A3C1" d="M496.693,429.141c111.77-41.4,27.932-113.598,27.932-113.598c57.639-38.771,36.107-160.432,36.107-160.432
	c6.578-1.488,12.941-6.204,15.551-9.256c4.375-5.12,7.018-11.767,7.018-19.03c0-16.187-13.121-29.308-29.309-29.308
	c-16.186,0-29.307,13.121-29.307,29.308c0,3.9,0.82,7.608,2.203,11.013c-113.137-25.4-208.275,0-208.275,0
	c1.383-3.404,2.352-7.029,2.352-10.93c0-16.186-13.121-29.308-29.309-29.308c-16.186,0-29.309,13.122-29.309,29.308
	c0,7.264,2.645,13.91,7.02,19.031c4.031,4.717,9.535,8.141,15.799,9.557c0,0-22.184,121.662,35.457,160.434
	c0,0-83.396,82.029,31.883,112.314C352.506,428.244,464.797,440.955,496.693,429.141z"/>
<path fill="none" stroke="#5D6733" stroke-width="0.6513" stroke-miterlimit="10" d="M583.301,488.168"/>
<circle fill="#FFFFFF" cx="363.806" cy="233.261" r="26.704"/>
<circle fill="#FFFFFF" cx="475.627" cy="233.261" r="26.705"/>
<circle cx="363.164" cy="232.852" r="17.953"/>
<circle cx="475.665" cy="233.852" r="17.954"/>
<circle fill="#FFFFFF" cx="373.454" cy="224.348" r="2.554"/>
<circle fill="#FFFFFF" cx="483.728" cy="223.814" r="2.553"/>
<g>
	<g>
		<path fill="#558AA5" d="M455.625,203.791c8.02-14.868,35.752-16.101,45.213-1.863c1.388,2.088,4.773,0.133,3.375-1.973
			c-11.023-16.587-42.421-15.826-51.963,1.863C451.055,204.036,454.428,206.01,455.625,203.791L455.625,203.791z"/>
	</g>
</g>
<g>
	<g>
		<path fill="#558AA5" d="M340.742,201.967c8.02-14.869,35.752-16.102,45.213-1.863c1.388,2.088,4.773,0.133,3.375-1.973
			c-11.023-16.588-42.422-15.827-51.963,1.863C336.172,202.212,339.545,204.186,340.742,201.967L340.742,201.967z"/>
	</g>
</g>
<g>
	<g>
		<path fill="#558AA5" d="M402.693,373.297c1.614-2.027,7.796-7.064,0.326-1.357c2.463-1.883,5.246-3.324,8.045-4.631
			c-8.396,3.922,1.043-0.065,3.438-0.714c1.55-0.419,3.127-0.731,4.7-1.045c2.902-0.486,2.154-0.419-2.246,0.203
			c1.131-0.138,2.264-0.251,3.398-0.341c3.506-0.313,7.033-0.29,10.545-0.149c1.702,0.067,3.396,0.247,5.089,0.428
			c-8.644-0.922-1.156-0.002,0.79,0.437c1.491,0.336,2.955,0.779,4.416,1.225c0.931,0.297,1.854,0.619,2.768,0.966
			c-4.238-1.862-5.101-2.218-2.586-1.065c1.199,0.558,2.344,1.223,3.484,1.892c5.791,3.399-3.738-3.362-0.6-0.597
			c11.031,9.722,27.291,10.893,38.184,0c9.911-9.911,11.047-28.448,0-38.184c-16.516-14.555-38.645-20.086-60.359-19.068
			c-20.029,0.938-44.469,7.359-57.576,23.818c-4.668,5.862-7.908,11.291-7.908,19.092c0,7.133,2.867,14.051,7.908,19.092
			C374.033,382.82,393.511,384.828,402.693,373.297L402.693,373.297z"/>
	</g>
</g>
<path fill="#FFFFFF" d="M382.305,340.323c0,0,8.104,11.074,14.166,8.033c2.755-1.381,3.664-5.428,5.699-15.198
	c0,0-12.158,2.606-19.865,6.296l-0.489,0.164L382.305,340.323z"/>
<g>
	<g>
		<path fill="#558AA5" d="M539.947,281.64c19.146-1.517,49.264,3.074,51.311,26.831c0.454,5.268,0.086,10.458-2.973,13.233
			c-0.678,0.615-1.98,1.153-3.498,1.543c-1.762,0.452-3.81,0.475-6.125,0.356c-12.246-0.622-24.611-6.529-35.49-11.707
			c-26.273-12.504-51.364-28.356-75.014-45.285c-4.792-3.431-9.338,4.483-4.602,7.873c16.188,11.588,33.093,22.303,50.347,32.221
			c13.17,7.57,26.718,14.623,40.904,20.102c10.005,3.865,22.077,7.885,32.862,5.115c7.672-1.971,11.592-8.366,12.521-15.836
			c1.584-12.711-3.096-25.116-13.443-32.788c-12.748-9.452-31.258-12.009-46.801-10.777
			C534.126,272.982,534.081,282.104,539.947,281.64L539.947,281.64z"/>
	</g>
</g>
<path fill="#558AA5" d="M486.306,259.977c0,12.277-9.954,22.232-22.231,22.232c-12.273,0-22.229-9.955-22.229-22.232
	c0-12.273,9.955-22.228,22.229-22.228C476.352,237.749,486.306,247.703,486.306,259.977z"/>
<circle fill="#558AA5" cx="362.838" cy="250.807" r="19.742"/>
<g>
	<g>
		<path fill="#558AA5" d="M301.797,266.914c-19.598,13.101-47.006,39.072-34.903,64.926c5.847,12.49,18.858,19.176,31.751,13.679
			c12.529-5.343,21.81-17.476,29.561-28.18c12.299-16.984,22.577-35.902,31.07-55.073c2.358-5.324-5.496-9.969-7.875-4.602
			c-9.114,20.575-20.259,40.871-33.845,58.823c-6.319,8.351-16.356,21.176-27.606,22.101c-5.492,0.452-9.92-3.429-13.117-7.858
			c-4.683-6.484-4.613-13.935-1.959-21.194c5.196-14.209,19.204-26.511,31.525-34.748
			C311.26,271.537,306.701,263.635,301.797,266.914L301.797,266.914z"/>
	</g>
</g>
<circle fill="#70A3C1" cx="352.082" cy="426.887" r="12.375"/>
<circle fill="#70A3C1" cx="478.232" cy="432.967" r="12.375"/>
<g>
	<line fill="#70A3C1" x1="352.082" y1="432.967" x2="352.082" y2="511.988"/>
	<g>
		<path fill="#70A3C1" d="M347.523,432.967c0,26.341,0,52.681,0,79.021c0,5.881,9.117,5.881,9.117,0c0-26.341,0-52.681,0-79.021
			C356.641,427.086,347.523,427.086,347.523,432.967L347.523,432.967z"/>
	</g>
</g>
<g>
	<line fill="#70A3C1" x1="478.232" y1="432.967" x2="478.232" y2="511.988"/>
	<g>
		<path fill="#70A3C1" d="M473.674,432.967c0,26.341,0,52.681,0,79.021c0,5.881,9.117,5.881,9.117,0c0-26.341,0-52.681,0-79.021
			C482.791,427.086,473.674,427.086,473.674,432.967L473.674,432.967z"/>
	</g>
</g>
<ellipse fill="#70A3C1" cx="338.141" cy="514.918" rx="17.197" ry="2.932"/>
<ellipse fill="#70A3C1" cx="491.259" cy="514.268" rx="17.196" ry="2.932"/>
</svg>
