<?xml version="1.0" encoding="utf-8"?>
<!-- Generator: Adobe Illustrator 16.0.0, SVG Export Plug-In . SVG Version: 6.00 Build 0)  -->
<!DOCTYPE svg PUBLIC "-//W3C//DTD SVG 1.1//EN" "http://www.w3.org/Graphics/SVG/1.1/DTD/svg11.dtd">
<svg version="1.1" id="Layer_1" xmlns="http://www.w3.org/2000/svg" xmlns:xlink="http://www.w3.org/1999/xlink" x="0px" y="0px"
	 width="841.891px" height="595.28px" viewBox="0 0 841.891 595.28" enable-background="new 0 0 841.891 595.28"
	 xml:space="preserve">
<path fill="#70A3C1" d="M496.693,429.141c111.77-41.4,27.932-113.598,27.932-113.598c57.639-38.771,36.107-160.433,36.107-160.433
	c6.578-1.487,12.941-6.203,15.551-9.255c4.375-5.12,7.018-11.767,7.018-19.03c0-16.187-13.121-29.309-29.309-29.309
	c-16.186,0-29.307,13.122-29.307,29.309c0,3.9,0.82,7.609,2.203,11.012c-113.137-25.4-208.275,0-208.275,0
	c1.383-3.402,2.352-7.027,2.352-10.928c0-16.188-13.121-29.309-29.309-29.309c-16.186,0-29.309,13.121-29.309,29.309
	c0,7.264,2.645,13.91,7.02,19.03c4.031,4.718,9.535,8.14,15.799,9.556c0,0-22.184,121.663,35.457,160.435
	c0,0-83.396,82.029,31.883,112.314C352.506,428.244,464.797,440.955,496.693,429.141z"/>
<path fill="none" stroke="#5D6733" stroke-width="0.6513" stroke-miterlimit="10" d="M583.301,488.168"/>
<circle fill="#FFFFFF" cx="363.806" cy="233.261" r="26.704"/>
<circle fill="#FFFFFF" cx="475.627" cy="233.261" r="26.705"/>
<circle cx="363.164" cy="232.853" r="17.953"/>
<circle cx="475.665" cy="233.853" r="17.954"/>
<circle fill="#FFFFFF" cx="373.454" cy="224.348" r="2.554"/>
<circle fill="#FFFFFF" cx="483.729" cy="223.815" r="2.553"/>
<g>
	<g>
		<path fill="#558AA5" d="M455.625,203.792c8.02-14.87,35.752-16.104,45.213-1.864c1.389,2.088,4.774,0.133,3.375-1.973
			c-11.023-16.588-42.42-15.827-51.963,1.864C451.055,204.037,454.429,206.011,455.625,203.792L455.625,203.792z"/>
	</g>
</g>
<g>
	<g>
		<path fill="#558AA5" d="M340.742,201.967c8.02-14.869,35.752-16.102,45.213-1.864c1.389,2.088,4.775,0.133,3.375-1.973
			c-11.023-16.587-42.421-15.826-51.963,1.864C336.172,202.212,339.546,204.186,340.742,201.967L340.742,201.967z"/>
	</g>
</g>
<g>
	<g>
		<path fill="#558AA5" d="M402.693,373.297c1.615-2.027,7.797-7.064,0.326-1.357c2.464-1.883,5.248-3.324,8.045-4.631
			c-8.395,3.922,1.043-0.065,3.439-0.714c1.549-0.419,3.127-0.731,4.699-1.045c2.904-0.486,2.154-0.419-2.246,0.203
			c1.131-0.138,2.264-0.251,3.399-0.341c3.505-0.313,7.032-0.29,10.546-0.149c1.701,0.067,3.395,0.247,5.088,0.428
			c-8.645-0.922-1.156-0.002,0.79,0.437c1.491,0.336,2.954,0.779,4.415,1.225c0.932,0.297,1.854,0.619,2.768,0.966
			c-4.238-1.862-5.1-2.218-2.586-1.065c1.2,0.558,2.344,1.223,3.484,1.892c5.791,3.399-3.738-3.362-0.6-0.597
			c11.031,9.722,27.291,10.893,38.184,0c9.912-9.911,11.049-28.448,0-38.184c-16.516-14.555-38.645-20.086-60.359-19.068
			c-20.029,0.938-44.469,7.359-57.576,23.818c-4.668,5.862-7.908,11.291-7.908,19.092c0,7.133,2.867,14.051,7.908,19.092
			C374.033,382.82,393.512,384.828,402.693,373.297L402.693,373.297z"/>
	</g>
</g>
<path fill="#FFFFFF" d="M382.305,340.323c0,0,8.105,11.074,14.166,8.033c2.756-1.381,3.664-5.428,5.699-15.198
	c0,0-12.158,2.606-19.865,6.296l-0.488,0.164L382.305,340.323z"/>
<g>
	<g>
		<path fill="#558AA5" d="M539.947,281.64c19.146-1.518,49.265,3.073,51.311,26.831c0.457,5.3,0.073,10.583-3.122,13.513
			c-2.021,1.853-6.259,2.411-10.107,2.33c-12.556-0.267-25.363-5.739-36.688-10.679c-25.502-11.124-50.029-25.373-73.181-40.789
			c-4.91-3.27-9.47,4.632-4.603,7.873c16.766,11.165,34.277,21.371,52.141,30.662c13.393,6.967,27.215,13.466,41.625,18.042
			c10.105,3.209,22.709,6.418,32.896,1.865c7.957-3.557,10.065-11.661,10.252-19.687c0.279-11.987-5.34-22.407-15.021-29.244
			c-12.432-8.779-30.6-11.018-45.502-9.837C534.127,272.982,534.082,282.104,539.947,281.64L539.947,281.64z"/>
	</g>
</g>
<path fill="#558AA5" d="M498.859,270.544c0,18.227-14.777,33.004-33.004,33.004c-18.219,0-32.998-14.777-32.998-33.004
	c0-18.22,14.779-32.996,32.998-32.996C484.082,237.548,498.859,252.324,498.859,270.544z"/>
<circle fill="#558AA5" cx="370.901" cy="240.665" r="29.884"/>
<g>
	<g>
		<path fill="#558AA5" d="M301.797,266.914c-19.597,13.101-47.006,39.072-34.902,64.926c5.846,12.49,18.857,19.176,31.75,13.679
			c12.53-5.343,21.811-17.476,29.561-28.179c12.299-16.985,22.578-35.902,31.07-55.072c2.359-5.326-5.496-9.97-7.873-4.604
			c-9.115,20.576-20.26,40.871-33.846,58.824c-6.32,8.351-16.357,21.175-27.607,22.1c-5.492,0.452-9.918-3.429-13.117-7.858
			c-4.682-6.484-4.613-13.935-1.958-21.194c5.196-14.209,19.204-26.511,31.525-34.748
			C311.261,271.537,306.701,263.635,301.797,266.914L301.797,266.914z"/>
	</g>
</g>
<circle fill="#70A3C1" cx="352.082" cy="426.887" r="12.375"/>
<circle fill="#70A3C1" cx="478.232" cy="432.967" r="12.375"/>
<g>
	<line fill="#70A3C1" x1="352.082" y1="432.967" x2="352.082" y2="511.988"/>
	<g>
		<path fill="#70A3C1" d="M347.523,432.967c0,26.341,0,52.681,0,79.021c0,5.881,9.119,5.881,9.119,0c0-26.341,0-52.681,0-79.021
			C356.643,427.086,347.523,427.086,347.523,432.967L347.523,432.967z"/>
	</g>
</g>
<g>
	<line fill="#70A3C1" x1="478.232" y1="432.967" x2="478.232" y2="511.988"/>
	<g>
		<path fill="#70A3C1" d="M473.674,432.967c0,26.341,0,52.681,0,79.021c0,5.881,9.119,5.881,9.119,0c0-26.341,0-52.681,0-79.021
			C482.793,427.086,473.674,427.086,473.674,432.967L473.674,432.967z"/>
	</g>
</g>
<ellipse fill="#70A3C1" cx="338.141" cy="514.918" rx="17.197" ry="2.932"/>
<ellipse fill="#70A3C1" cx="491.259" cy="514.268" rx="17.196" ry="2.932"/>
</svg>
