<?xml version="1.0" encoding="utf-8"?>
<!-- Generator: Adobe Illustrator 16.0.0, SVG Export Plug-In . SVG Version: 6.00 Build 0)  -->
<!DOCTYPE svg PUBLIC "-//W3C//DTD SVG 1.1//EN" "http://www.w3.org/Graphics/SVG/1.1/DTD/svg11.dtd">
<svg version="1.1" id="Layer_1" xmlns="http://www.w3.org/2000/svg" xmlns:xlink="http://www.w3.org/1999/xlink" x="0px" y="0px"
	 width="841.89px" height="595.28px" viewBox="0 0 841.89 595.28" enable-background="new 0 0 841.89 595.28" xml:space="preserve">
<path fill="#70A3C1" d="M496.693,429.141c111.77-41.4,27.932-113.598,27.932-113.598c57.639-38.771,36.107-160.433,36.107-160.433
	c6.578-1.487,12.941-6.203,15.551-9.255c4.375-5.12,7.018-11.767,7.018-19.03c0-16.187-13.121-29.309-29.309-29.309
	c-16.186,0-29.307,13.122-29.307,29.309c0,3.9,0.82,7.609,2.203,11.012c-113.137-25.4-208.275,0-208.275,0
	c1.383-3.402,2.352-7.027,2.352-10.928c0-16.188-13.121-29.309-29.309-29.309c-16.186,0-29.309,13.121-29.309,29.309
	c0,7.264,2.645,13.91,7.02,19.03c4.031,4.718,9.535,8.14,15.799,9.556c0,0-22.184,121.663,35.457,160.435
	c0,0-83.396,82.029,31.883,112.314C352.506,428.244,464.797,440.955,496.693,429.141z"/>
<path fill="none" stroke="#5D6733" stroke-width="0.6513" stroke-miterlimit="10" d="M583.301,488.168"/>
<circle fill="#FFFFFF" cx="363.806" cy="233.261" r="26.704"/>
<circle fill="#FFFFFF" cx="475.627" cy="233.261" r="26.705"/>
<circle cx="363.164" cy="232.853" r="17.953"/>
<circle cx="475.665" cy="233.853" r="17.954"/>
<circle fill="#FFFFFF" cx="373.454" cy="224.348" r="2.554"/>
<circle fill="#FFFFFF" cx="483.728" cy="223.815" r="2.553"/>
<g>
	<g>
		<path fill="#558AA5" d="M455.625,203.792c8.02-14.87,35.751-16.104,45.213-1.864c1.388,2.088,4.773,0.133,3.375-1.973
			c-11.023-16.589-42.421-15.827-51.963,1.864C451.055,204.037,454.428,206.011,455.625,203.792L455.625,203.792z"/>
	</g>
</g>
<g>
	<g>
		<path fill="#558AA5" d="M340.742,201.967c8.02-14.869,35.751-16.102,45.213-1.864c1.388,2.088,4.773,0.133,3.375-1.973
			c-11.023-16.587-42.422-15.826-51.963,1.864C336.172,202.212,339.545,204.186,340.742,201.967L340.742,201.967z"/>
	</g>
</g>
<g>
	<g>
		<path fill="#558AA5" d="M402.693,373.297c1.614-2.027,7.796-7.064,0.326-1.358c2.463-1.881,5.246-3.322,8.045-4.63
			c-8.396,3.922,1.043-0.065,3.438-0.714c1.55-0.419,3.127-0.731,4.7-1.045c2.902-0.486,2.154-0.418-2.246,0.203
			c1.131-0.138,2.264-0.251,3.398-0.34c3.506-0.314,7.033-0.291,10.545-0.15c1.702,0.068,3.396,0.247,5.089,0.428
			c-8.644-0.922-1.156-0.002,0.79,0.438c1.491,0.336,2.955,0.778,4.416,1.225c0.931,0.297,1.854,0.618,2.768,0.965
			c-4.238-1.863-5.101-2.218-2.586-1.065c1.199,0.558,2.344,1.223,3.484,1.892c5.791,3.398-3.738-3.362-0.6-0.597
			c11.031,9.722,27.291,10.893,38.184,0c9.911-9.911,11.047-28.448,0-38.184c-16.516-14.556-38.645-20.085-60.359-19.068
			c-20.029,0.938-44.469,7.358-57.576,23.818c-4.668,5.862-7.908,11.29-7.908,19.092c0,7.132,2.867,14.052,7.908,19.092
			C374.033,382.82,393.511,384.829,402.693,373.297L402.693,373.297z"/>
	</g>
</g>
<path fill="#FFFFFF" d="M382.305,340.323c0,0,8.104,11.074,14.166,8.033c2.755-1.381,3.664-5.428,5.699-15.198
	c0,0-12.158,2.606-19.865,6.296l-0.489,0.164L382.305,340.323z"/>
<g>
	<g>
		<path fill="#558AA5" d="M539.947,281.64c19.146-1.518,49.264,3.074,51.311,26.831c0.282,3.276,0.179,6.588-0.634,9.603
			c-0.484,1.796-0.82,2.303-2.188,3.502c0.838-0.734-1.773,0.844-0.746,0.43c-0.789,0.318-1.629,0.498-2.465,0.643
			c-0.553,0.096-3.807-0.077-5.043-0.299c-12.084-2.166-23.418-9.366-33.637-15.787c-23.063-14.493-44.735-31.734-65.088-49.819
			c-4.38-3.892-10.853,2.534-6.449,6.447c15.053,13.376,30.902,25.969,47.19,37.798c11.881,8.628,24.181,16.93,37.365,23.45
			c8.686,4.296,20.274,9.644,30.161,6.5c8.142-2.589,10.344-10.573,10.721-18.249c0.607-12.367-4.987-23.264-14.996-30.331
			c-12.432-8.779-30.601-11.018-45.502-9.837C534.126,272.981,534.081,282.104,539.947,281.64L539.947,281.64z"/>
	</g>
</g>
<path fill="#558AA5" d="M508.628,243.778c0,18.227-14.777,33.004-33.003,33.004c-18.22,0-32.999-14.777-32.999-33.004
	c0-18.22,14.779-32.996,32.999-32.996C493.851,210.782,508.628,225.559,508.628,243.778z"/>
<circle fill="#558AA5" cx="370.901" cy="240.665" r="29.883"/>
<g>
	<g>
		<path fill="#558AA5" d="M301.797,266.914c-19.598,13.101-47.006,39.071-34.903,64.927c5.847,12.488,18.858,19.175,31.751,13.678
			c12.529-5.342,21.81-17.475,29.561-28.179c12.299-16.985,22.577-35.903,31.07-55.073c2.358-5.324-5.496-9.969-7.875-4.602
			c-9.114,20.575-20.259,40.87-33.845,58.823c-6.319,8.351-16.356,21.175-27.606,22.101c-5.492,0.451-9.92-3.43-13.117-7.859
			c-4.683-6.484-4.613-13.935-1.959-21.194c5.196-14.209,19.204-26.511,31.525-34.748
			C311.26,271.538,306.701,263.636,301.797,266.914L301.797,266.914z"/>
	</g>
</g>
<circle fill="#70A3C1" cx="352.082" cy="426.887" r="12.375"/>
<circle fill="#70A3C1" cx="478.232" cy="432.967" r="12.375"/>
<g>
	<line fill="#70A3C1" x1="352.082" y1="432.967" x2="352.082" y2="511.988"/>
	<g>
		<path fill="#70A3C1" d="M347.523,432.967c0,26.341,0,52.681,0,79.021c0,5.88,9.117,5.88,9.117,0c0-26.341,0-52.681,0-79.021
			C356.641,427.087,347.523,427.087,347.523,432.967L347.523,432.967z"/>
	</g>
</g>
<g>
	<line fill="#70A3C1" x1="478.232" y1="432.967" x2="478.232" y2="511.988"/>
	<g>
		<path fill="#70A3C1" d="M473.674,432.967c0,26.341,0,52.681,0,79.021c0,5.88,9.117,5.88,9.117,0c0-26.341,0-52.681,0-79.021
			C482.791,427.087,473.674,427.087,473.674,432.967L473.674,432.967z"/>
	</g>
</g>
<ellipse fill="#70A3C1" cx="338.141" cy="514.918" rx="17.197" ry="2.932"/>
<ellipse fill="#70A3C1" cx="491.259" cy="514.268" rx="17.196" ry="2.932"/>
</svg>
