<?xml version="1.0" encoding="utf-8"?>
<!-- Generator: Adobe Illustrator 16.0.0, SVG Export Plug-In . SVG Version: 6.00 Build 0)  -->
<!DOCTYPE svg PUBLIC "-//W3C//DTD SVG 1.1//EN" "http://www.w3.org/Graphics/SVG/1.1/DTD/svg11.dtd">
<svg version="1.1" id="Layer_1" xmlns="http://www.w3.org/2000/svg" xmlns:xlink="http://www.w3.org/1999/xlink" x="0px" y="0px"
	 width="841.89px" height="595.28px" viewBox="0 0 841.89 595.28" enable-background="new 0 0 841.89 595.28" xml:space="preserve">
<g>
	<defs>
		<rect id="SVGID_7_" x="4.984" y="18.799" width="443.058" height="508.484"/>
	</defs>
	<clipPath id="SVGID_2_">
		<use xlink:href="#SVGID_7_"  overflow="visible"/>
	</clipPath>
	<g clip-path="url(#SVGID_2_)">
		<path fill="#70A3C1" d="M146.415,422.516c113.176-37.384,31.97-112.529,31.97-112.529c58.987-36.687,41.813-159.04,41.813-159.04
			c6.626-1.252,13.152-5.739,15.869-8.695c4.557-4.96,7.435-11.507,7.695-18.768c0.578-16.177-12.068-29.758-28.244-30.336
			c-16.175-0.577-29.758,12.066-30.335,28.243c-0.14,3.898,0.548,7.634,1.809,11.084c-112.157-29.424-208.142-7.438-208.142-7.438
			c1.502-3.352,2.6-6.939,2.74-10.837c0.578-16.176-12.067-29.757-28.244-30.336c-16.176-0.578-29.759,12.066-30.336,28.244
			c-0.26,7.258,2.145,13.996,6.335,19.269c3.861,4.859,9.239,8.476,15.448,10.115c0,0-26.514,120.792,29.706,161.597
			c0,0-86.272,79.001,27.851,113.382C2.351,416.471,114.118,433.183,146.415,422.516z"/>
		<circle fill="#FFFFFF" cx="20.605" cy="222.015" r="26.705"/>
		<circle fill="#FFFFFF" cx="132.355" cy="226.008" r="26.705"/>
		<g>
			<g>
				<path fill="#558AA5" d="M111.249,196.681c9.83,3.263,17.707-2.014,27.399-2.607c2.557-0.157,4.629,1.085,6.812,2.287
					c4.732,2.607,9.118,5.87,13.426,9.11c2.016,1.517,3.96-1.879,1.973-3.374c-5.7-4.288-12.312-9.977-19.435-11.768
					c-3.724-0.937-8.393,0.473-11.96,1.48c-5.976,1.688-11.014,3.148-17.175,1.103C109.889,192.116,108.87,195.891,111.249,196.681
					L111.249,196.681z"/>
			</g>
		</g>
		<g>
			<g>
				<path fill="#558AA5" d="M-5.964,202.262c4.446-7.71,11.678-10.631,20.314-10.79c3.707-0.068,8.144,1.24,12.074,1.819
					c5.317,0.784,20.128,3.825,21.178-4.548c0.313-2.496-3.599-2.466-3.908,0c-0.563,4.486-22.627-0.275-25.635-0.826
					c-10.879-1.99-21.898,2.836-27.397,12.372C-10.6,202.476-7.222,204.443-5.964,202.262L-5.964,202.262z"/>
			</g>
		</g>
		<g>
			<path fill="#558AA5" d="M124.21,353.27c9.896-4.173-30.541-24.233-47.361-24.227c-18.168,0.01-33.785,5.974-40.779,14.545
				c0,0,18.28,32.881,45.887,30.498C92.928,373.137,107.779,360.2,124.21,353.27z"/>
			<g>
				<path fill="#558AA5" d="M133.295,368.813c8.628-4.148,11.494-13.987,9.728-22.736c-1.355-6.718-7.085-11.352-12.177-15.239
					c-8.537-6.52-19.08-10.756-29.049-14.475c-11.394-4.251-23.043-6.101-35.167-4.669c-15.576,1.841-32.682,6.786-43.289,19.167
					c-5.393,6.295-7.016,14.317-2.814,21.813c7.573,13.511,19.906,26.394,33.787,33.321c12.276,6.128,27.14,8.601,40.161,3.293
					C108.1,383.734,119.817,374.664,133.295,368.813c9.005-3.91,10.966-16.931,6.458-24.628
					c-5.394-9.207-15.627-10.365-24.627-6.458c-10.832,4.703-20.45,11.548-30.901,16.964c-0.802,0.409-1.613,0.8-2.432,1.175
					c4.249-1.996,0.655-0.344-0.328-0.02c-1.272,0.42-5.066,0.9,0.494,0.24c-1.244,0.147-2.513,0.122-3.762,0.111
					c-1.163-0.01-5.258-0.652-0.036,0.16c-1.171-0.183-2.319-0.484-3.463-0.784c-1.131-0.297-2.23-0.7-3.327-1.101
					c4.731,1.729,1.127,0.443,0.086-0.077c-1.699-0.848-3.309-1.865-4.893-2.909c-0.902-0.596-4.052-3.039,0.043,0.166
					c-0.86-0.674-1.684-1.394-2.507-2.111c-3.013-2.627-5.729-5.589-8.275-8.663c-3.031-3.66,2.399,3.28-0.196-0.258
					c-0.763-1.04-1.49-2.107-2.202-3.184c-0.634-0.958-1.251-1.932-1.813-2.934c-0.938,7.271-1.876,14.542-2.814,21.813
					c0.849-0.99,5.461-4.993,1.343-1.845c1.692-1.294,3.567-2.337,5.445-3.33c0.812-0.414,1.635-0.804,2.469-1.171
					c-4.115,1.881,0.355,0.022,1.084-0.222c2.945-0.988,5.993-1.644,9.043-2.208c2.106-0.334,2.139-0.348,0.1-0.042
					c1.688-0.199,3.387-0.289,5.083-0.38c2.236-0.119,4.456-0.104,6.681,0.125c-6.612-0.682-0.837-0.009,0.734,0.342
					c2.063,0.46,4.095,1.056,6.115,1.675c1.795,0.55,3.566,1.177,5.33,1.816c1.154,0.418,7.31,2.944,2.114,0.741
					c3.703,1.57,7.318,3.347,10.842,5.282c1.402,0.77,2.77,1.6,4.122,2.454c0.723,0.457,1.424,0.945,2.124,1.437
					c2.64,1.854-3.589-2.916-1.297-0.979c1.519,1.284,3.268,4.306-0.521-1.152c-3.843-5.535-0.564-18.209,5.514-21.132
					c-8.84,4.25-11.111,16.684-6.458,24.628C113.92,371.32,124.452,373.063,133.295,368.813z"/>
			</g>
		</g>
		<path fill="#FFFFFF" d="M37.046,326.888c0,0,7.705,11.354,13.87,8.532c2.805-1.281,3.856-5.293,6.238-14.984
			c0,0-12.244,2.171-20.076,5.583l-0.495,0.146L37.046,326.888z"/>
		<g>
			<g>
				<path fill="#558AA5" d="M195.002,275.854c16.824-10.978,33.106-23.096,48.293-36.239c10.602-9.174,44.194-37.66,23.023-52.021
					c-6.201-4.207-14.875-4.288-21.957-5.25c-13.823-1.878-27.602-4.097-41.297-6.753c-19.854-3.852-39.729-8.655-58.55-16.166
					c-10.885-4.344-21.984-9.982-30.193-18.528c-5.211-5.426-8.119-11.935-8.199-18.766c-0.17-14.582,11.244-29.224,20.995-40.697
					c10.792-12.698,23.368-24.175,32.77-38.001c3.095-4.552,5.835-9.798,5.991-15.415c0.162-5.884-8.957-5.868-9.119,0
					c-0.011,0.394-0.245,2.181-0.006,0.627c-0.085,0.553-0.217,1.098-0.36,1.639c-0.152,0.574-0.346,1.137-0.548,1.694
					c-0.302,0.831,0.144-0.191-0.545,1.253c-1.333,2.798-3.082,5.394-4.902,7.894c-3.896,5.35-9.886,11.86-15.008,17.452
					c-11.87,12.958-24.66,26.073-32.625,41.926c-7.804,15.533-7.765,32.131,4.006,45.639c7.698,8.833,18.589,14.775,29.143,19.474
					c17.442,7.765,36.067,12.667,54.675,16.706c12.881,2.796,25.88,5.039,38.909,7.025c7.012,1.069,14.041,2.026,21.074,2.94
					c2.922,0.38,6.232,0.832,8.858,1.954c0.944,0.404,1.833,0.921,2.681,1.497c-0.56-0.38,1.43,1.578,0.833,0.775
					c1.176,1.582,0.975,1.39,0.91,3.342c-0.01,0.297-0.734,3.183-1.122,4.053c-1.042,2.341-2.442,4.518-3.906,6.612
					c-7.446,10.661-17.99,19.451-27.93,27.683c-9.745,8.071-19.933,15.605-30.303,22.85c-3.368,2.353-6.754,4.685-10.196,6.931
					C185.497,271.179,190.061,279.078,195.002,275.854L195.002,275.854z"/>
			</g>
		</g>
		<path fill="#558AA5" d="M180.02,45.161c-1.426,11.366-11.8,19.427-23.168,18c-11.369-1.428-19.43-11.804-18.003-23.171
			c1.431-11.366,11.806-19.427,23.173-18C173.392,23.418,181.448,33.793,180.02,45.161z"/>
		<circle fill="#70A3C1" cx="-0.268" cy="415.93" r="12.375"/>
		<circle fill="#70A3C1" cx="96.404" cy="429.188" r="12.375"/>
		<g>
			<line fill="#70A3C1" x1="0.418" y1="423.027" x2="-9.43" y2="501.433"/>
			<g>
				<path fill="#70A3C1" d="M-4.142,423.027c-3.282,26.135-6.565,52.271-9.848,78.405c-0.731,5.824,8.396,5.754,9.119,0
					c3.282-26.135,6.565-52.271,9.848-78.405C5.709,417.203-3.419,417.273-4.142,423.027L-4.142,423.027z"/>
			</g>
		</g>
		<g>
			<line fill="#70A3C1" x1="96.403" y1="429.187" x2="100.615" y2="508.096"/>
			<g>
				<path fill="#70A3C1" d="M91.844,429.187c1.404,26.303,2.808,52.606,4.212,78.909c0.312,5.849,9.432,5.879,9.118,0
					c-1.403-26.303-2.808-52.606-4.211-78.909C100.65,423.338,91.53,423.308,91.844,429.187L91.844,429.187z"/>
			</g>
		</g>
		<circle cx="18.099" cy="232.713" r="13.115"/>
		<circle cx="130.25" cy="236.662" r="13.172"/>
		<path fill="#FFFFFF" d="M17.699,243.954c-0.037,1.03-0.903,1.834-1.935,1.798c-1.027-0.037-1.833-0.901-1.796-1.932
			c0.037-1.03,0.902-1.834,1.93-1.797C16.929,242.06,17.734,242.924,17.699,243.954z"/>
		<circle fill="#FFFFFF" cx="127.975" cy="247.885" r="1.873"/>
		
			<ellipse transform="matrix(-0.9998 -0.0185 0.0185 -0.9998 217.9981 1023.2858)" fill="#70A3C1" cx="113.743" cy="510.632" rx="17.197" ry="2.932"/>
	</g>
</g>
<g>
	<defs>
		<rect id="SVGID_9_" x="860.89" y="45.233" width="388.995" height="513.051"/>
	</defs>
	<clipPath id="SVGID_4_">
		<use xlink:href="#SVGID_9_"  overflow="visible"/>
	</clipPath>
	<g clip-path="url(#SVGID_4_)">
		<path fill="#70A3C1" d="M941.114,428.795c117.85-17.839,50.421-105.56,50.421-105.56c64.313-26.255,67.938-149.754,67.938-149.754
			c6.742-0.122,13.929-3.448,17.104-5.905c5.325-4.125,9.262-10.095,10.738-17.208c3.288-15.85-6.897-31.362-22.746-34.65
			c-15.849-3.287-31.362,6.896-34.649,22.746c-0.792,3.819-0.742,7.617-0.078,11.23c-105.62-47.849-203.935-42.3-203.935-42.3
			c2.044-3.051,3.729-6.404,4.522-10.222c3.286-15.849-6.896-31.362-22.746-34.65c-15.85-3.288-31.363,6.895-34.65,22.746
			c-1.476,7.111-0.237,14.157,3.008,20.059c2.99,5.438,7.684,9.907,13.529,12.566c0,0-46.431,114.621,2.136,164.291
			c0,0-98.319,63.384,8.407,116.449C800.114,398.633,907.483,433.884,941.114,428.795z"/>
		<circle fill="#FFFFFF" cx="850.778" cy="210.008" r="26.704"/>
		<g>
			<g>
				<path fill="#558AA5" d="M827.789,186.197c6.077-7.315,14.237-8.808,23.292-7.102c3.241,0.61,6.518,2.344,9.643,3.387
					c4.892,1.632,19.795,7.461,22.215-0.546c0.73-2.419-3.042-3.445-3.77-1.039c-1.368,4.529-21.402-3.549-24.41-4.651
					c-10.58-3.88-22.429-1.604-29.733,7.188C823.428,185.357,826.177,188.138,827.789,186.197L827.789,186.197z"/>
			</g>
		</g>
		<g>
			<g>
				<path fill="#558AA5" d="M935.646,374.16c9.478-2.719,13.877-9.812,15.064-19.146c0.834-6.557-3.997-12.975-7.895-17.598
					c-6.729-7.984-16.5-14.146-25.406-19.422c-11.602-6.875-23.053-10.74-36.476-11.937c-17.097-1.524-34.769,2.646-48.063,13.666
					c-4.555,3.774-6.59,12.003-4.629,17.513c5.103,14.338,13.859,28.776,25.939,38.194c11.971,9.332,25.545,14.378,40.842,11.981
					C909.077,385.211,921.848,377.553,935.646,374.16c9.525-2.343,15.118-12.885,12.572-22.143
					c-2.654-9.647-12.622-14.913-22.143-12.572c-12.234,3.009-23.494,8.763-35.579,12.192c-0.854,0.233-1.716,0.442-2.582,0.628
					c-4.275,0.976,4.086-0.269-0.01,0c-1.146,0.075-4.923-0.391,0.192,0.315c-1.166-0.161-2.311-0.445-3.45-0.729
					c-1.114-0.277-2.196-0.669-3.275-1.059c4.758,1.718,1.286,0.509,0.201-0.047c-1.306-0.668-7.256-4.919-2.8-1.445
					c-3.092-2.41-5.793-5.304-8.281-8.319c-2.41-2.92,2.537,3.416,0.35,0.413c-0.575-0.789-1.117-1.601-1.66-2.411
					c-1.01-1.508-1.938-3.068-2.843-4.642c-1.406-2.448-2.661-4.985-3.809-7.564c-0.936-2.104,2.165,5.355,0.72,1.67
					c-0.102-0.259-0.2-0.52-0.293-0.781c-1.543,5.838-3.086,11.676-4.629,17.513c-4.044,3.352,1.226-0.514,2.507-1.164
					c-4.242,2.155,2.268-0.656,3.573-1.012c0.977-0.249,1.959-0.471,2.947-0.664c5.026-1.06-3.787,0.295,1.516-0.244
					c2.825-0.287,5.672-0.287,8.506-0.231c1.188,0.037,2.373,0.103,3.558,0.194c5.819,0.385-3.382-0.672,2.522,0.263
					c1.344,0.212,2.655,0.593,3.954,0.987c1.308,0.397,6.579,2.575,1.073,0.228c1.974,0.842,3.894,1.806,5.799,2.79
					c3.385,1.749,6.652,3.721,9.858,5.775c1.589,1.018,3.144,2.089,4.687,3.175c0.893,0.628,1.768,1.279,2.642,1.932
					c-4.239-3.161-1.274-0.978-0.39-0.259c2.236,1.815,4.367,3.77,6.28,5.923c1.656,1.864-2.772-4.441-0.726-0.699
					c-4.333-7.919,0.633-20.199,9.441-22.727c-9.425,2.703-15.194,12.608-12.572,22.143
					C916.083,370.966,926.218,376.864,935.646,374.16z"/>
			</g>
		</g>
		<circle fill="#70A3C1" cx="797.623" cy="397.66" r="12.375"/>
		<g>
			<line fill="#70A3C1" x1="797.106" y1="404.771" x2="774.228" y2="480.408"/>
			<g>
				<path fill="#70A3C1" d="M792.71,403.56c-7.626,25.212-15.252,50.425-22.879,75.637c-1.707,5.644,7.096,8.037,8.793,2.424
					c7.626-25.212,15.252-50.425,22.879-75.637C803.21,400.34,794.407,397.946,792.71,403.56L792.71,403.56z"/>
			</g>
		</g>
		<path d="M859.351,222.796c-1.47,7.092-8.415,11.647-15.504,10.177c-7.092-1.471-11.649-8.412-10.179-15.504
			c1.47-7.092,8.413-11.648,15.506-10.177C856.263,208.763,860.821,215.704,859.351,222.796z"/>
		<path fill="#FFFFFF" d="M844.228,231.146c-0.21,1.01-1.199,1.657-2.211,1.448c-1.006-0.208-1.654-1.196-1.444-2.206
			c0.208-1.009,1.196-1.657,2.204-1.447C843.786,229.15,844.435,230.137,844.228,231.146z"/>
		
			<ellipse transform="matrix(-0.9807 -0.1956 0.1956 -0.9807 1587.1055 970.4661)" fill="#70A3C1" cx="841.464" cy="406.879" rx="17.197" ry="2.933"/>
	</g>
</g>
</svg>
