<?xml version="1.0" encoding="utf-8"?>
<!-- Generator: Adobe Illustrator 16.0.0, SVG Export Plug-In . SVG Version: 6.00 Build 0)  -->
<!DOCTYPE svg PUBLIC "-//W3C//DTD SVG 1.1//EN" "http://www.w3.org/Graphics/SVG/1.1/DTD/svg11.dtd">
<svg version="1.1" id="Layer_1" xmlns="http://www.w3.org/2000/svg" xmlns:xlink="http://www.w3.org/1999/xlink" x="0px" y="0px"
	 width="841.89px" height="595.28px" viewBox="0 0 841.89 595.28" enable-background="new 0 0 841.89 595.28" xml:space="preserve">
<path fill="#70A3C1" d="M496.693,429.141c111.77-41.4,27.932-113.598,27.932-113.598c57.639-38.771,36.107-160.432,36.107-160.432
	c6.578-1.488,12.941-6.204,15.551-9.256c4.375-5.12,7.018-11.767,7.018-19.03c0-16.187-13.121-29.308-29.309-29.308
	c-16.186,0-29.307,13.121-29.307,29.308c0,3.9,0.82,7.608,2.203,11.013c-113.137-25.4-208.275,0-208.275,0
	c1.383-3.404,2.352-7.029,2.352-10.93c0-16.186-13.121-29.308-29.309-29.308c-16.186,0-29.309,13.122-29.309,29.308
	c0,7.264,2.645,13.91,7.02,19.031c4.031,4.717,9.535,8.141,15.799,9.557c0,0-22.184,121.662,35.457,160.434
	c0,0-83.396,82.029,31.883,112.314C352.506,428.244,464.797,440.955,496.693,429.141z"/>
<path fill="none" stroke="#5D6733" stroke-width="0.6513" stroke-miterlimit="10" d="M583.301,488.168"/>
<circle fill="#FFFFFF" cx="363.806" cy="233.261" r="26.704"/>
<circle fill="#FFFFFF" cx="475.627" cy="233.261" r="26.705"/>
<circle cx="363.164" cy="232.852" r="17.953"/>
<circle cx="475.665" cy="233.852" r="17.954"/>
<circle fill="#FFFFFF" cx="373.454" cy="224.348" r="2.554"/>
<circle fill="#FFFFFF" cx="483.728" cy="223.814" r="2.553"/>
<g>
	<g>
		<path fill="#558AA5" d="M455.625,203.791c8.02-14.868,35.752-16.101,45.213-1.863c1.388,2.088,4.773,0.133,3.375-1.973
			c-11.023-16.587-42.421-15.826-51.963,1.863C451.054,204.036,454.428,206.01,455.625,203.791L455.625,203.791z"/>
	</g>
</g>
<g>
	<g>
		<path fill="#558AA5" d="M340.742,201.967c8.02-14.869,35.752-16.102,45.213-1.863c1.388,2.088,4.773,0.133,3.375-1.973
			c-11.023-16.588-42.422-15.827-51.963,1.863C336.172,202.212,339.545,204.186,340.742,201.967L340.742,201.967z"/>
	</g>
</g>
<g>
	<g>
		<path fill="#558AA5" d="M398.451,369.055c1.15-1.446,6.782-6.302,1.54-2.297c2.464-1.882,5.247-3.323,8.045-4.63
			c-5.239,2.447-0.706,0.388,0.435-0.009c1.457-0.507,2.949-0.907,4.438-1.31c1.55-0.419,3.127-0.731,4.7-1.046
			c2.375-0.39,2.157-0.393-0.651-0.011c1.13-0.138,2.264-0.251,3.398-0.341c3.506-0.313,7.033-0.29,10.546-0.149
			c1.701,0.067,3.396,0.247,5.088,0.428c-5.712-0.609,1.251,0.396,2.386,0.651c1.49,0.336,2.954,0.779,4.415,1.225
			c0.931,0.297,1.854,0.619,2.769,0.965c-2.813-1.242-3.197-1.396-1.153-0.46c1.2,0.558,2.344,1.223,3.483,1.892
			c0.715,0.436,1.413,0.896,2.095,1.383c-2.617-2.098-3.11-2.444-1.479-1.041c8.58,7.561,21.227,8.472,29.699,0
			c7.708-7.709,8.592-22.127,0-29.699c-15.307-13.487-36.073-18.249-56.117-17.311c-18.581,0.87-41.184,6.803-53.334,22.061
			c-7.123,8.946-8.772,20.926,0,29.699C376.159,376.461,391.309,378.023,398.451,369.055L398.451,369.055z"/>
	</g>
</g>
<path fill="#FFFFFF" d="M382.305,340.323c0,0,8.104,11.074,14.166,8.033c2.755-1.381,3.664-5.428,5.699-15.198
	c0,0-12.158,2.606-19.865,6.296l-0.489,0.164L382.305,340.323z"/>
<g>
	<g>
		<path fill="#70A3C1" d="M539.947,281.64c17.078-1.354,43.668,1.747,50.069,20.62c3.034,8.943,0.21,18.91,0.433,28.111
			c0.215,8.912,2.022,17.813,6.055,25.796c3.302,6.539,9.273,13.255,16.479,15.567c5.614,1.802,8-7.004,2.424-8.793
			c-1.276-0.409,0.899,0.465-0.499-0.223c-1.24-0.608-2.801-1.656-3.387-2.129c-4.412-3.563-7.321-8.533-9.175-13.828
			c-3.427-9.789-3.211-20.502-2.154-30.676c0.819-7.906-0.335-15.834-4.282-22.803c-10.286-18.156-36.949-22.269-55.963-20.763
			C534.126,272.982,534.08,282.104,539.947,281.64L539.947,281.64z"/>
	</g>
</g>
<circle fill="#70A3C1" cx="626.505" cy="370.979" r="12.243"/>
<circle fill="#70A3C1" cx="235.6" cy="402.268" r="12.242"/>
<g>
	<g>
		<path fill="#70A3C1" d="M302.886,266.454c-18.409,3.381-36.547,14.618-48.926,28.339c-12.247,13.573-18.853,30.623-21.146,48.6
			c-1.879,14.729-0.717,30.347-0.756,45.181c-0.006,2.298-0.012,4.596-0.019,6.894c-0.015,5.881,9.104,5.879,9.119,0
			c0.078-29.827-3.618-61.877,14.146-87.779c11.185-16.309,30.395-28.492,49.799-32.4c0.068-0.014,0.137-0.027,0.206-0.04
			C311.088,274.186,308.633,265.398,302.886,266.454L302.886,266.454z"/>
	</g>
</g>
<circle fill="#70A3C1" cx="352.082" cy="426.887" r="12.375"/>
<circle fill="#70A3C1" cx="478.232" cy="432.967" r="12.375"/>
<g>
	<line fill="#70A3C1" x1="352.082" y1="432.967" x2="352.082" y2="511.988"/>
	<g>
		<path fill="#70A3C1" d="M347.522,432.967c0,26.341,0,52.681,0,79.021c0,5.881,9.119,5.881,9.119,0c0-26.341,0-52.681,0-79.021
			C356.642,427.086,347.522,427.086,347.522,432.967L347.522,432.967z"/>
	</g>
</g>
<g>
	<line fill="#70A3C1" x1="478.232" y1="432.967" x2="478.232" y2="511.988"/>
	<g>
		<path fill="#70A3C1" d="M473.673,432.967c0,26.341,0,52.681,0,79.021c0,5.881,9.119,5.881,9.119,0c0-26.341,0-52.681,0-79.021
			C482.792,427.086,473.673,427.086,473.673,432.967L473.673,432.967z"/>
	</g>
</g>
<ellipse fill="#70A3C1" cx="338.141" cy="514.918" rx="17.197" ry="2.932"/>
<ellipse fill="#70A3C1" cx="491.259" cy="514.268" rx="17.196" ry="2.932"/>
</svg>
