<?xml version="1.0" encoding="utf-8"?>
<!-- Generator: Adobe Illustrator 16.0.0, SVG Export Plug-In . SVG Version: 6.00 Build 0)  -->
<!DOCTYPE svg PUBLIC "-//W3C//DTD SVG 1.1//EN" "http://www.w3.org/Graphics/SVG/1.1/DTD/svg11.dtd">
<svg version="1.1" id="Layer_1" xmlns="http://www.w3.org/2000/svg" xmlns:xlink="http://www.w3.org/1999/xlink" x="0px" y="0px"
	 width="841.89px" height="595.28px" viewBox="0 0 841.89 595.28" enable-background="new 0 0 841.89 595.28" xml:space="preserve">
<g>
	<defs>
		<rect id="SVGID_5_" x="-0.156" y="28.017" width="350.689" height="500.266"/>
	</defs>
	<clipPath id="SVGID_2_">
		<use xlink:href="#SVGID_5_"  overflow="visible"/>
	</clipPath>
	<g clip-path="url(#SVGID_2_)">
		<path fill="#70A3C1" d="M110.517,428.089c118.37-13.965,53.854-103.849,53.854-103.849
			c65.139-24.133,72.812-147.446,72.812-147.446c6.743,0.1,14.036-2.989,17.29-5.341c5.458-3.948,9.588-9.786,11.297-16.847
			c3.806-15.733-5.865-31.572-21.598-35.376s-31.571,5.863-35.376,21.597c-0.917,3.791-0.992,7.589-0.447,11.222
			C104.354,100.762,5.911,103.084,5.911,103.084c2.143-2.983,3.937-6.278,4.854-10.069c3.805-15.732-5.864-31.571-21.598-35.376
			c-15.732-3.806-31.573,5.863-35.377,21.597c-1.708,7.06-0.701,14.142,2.349,20.147c2.81,5.533,7.354,10.154,13.11,13.003
			c0,0-50.164,113.037-3.253,164.272c0,0-100.344,60.126,4.585,116.662C-29.419,393.32,76.738,432.073,110.517,428.089z"/>
		<circle fill="#FFFFFF" cx="27.402" cy="206.458" r="26.705"/>
		<circle fill="#FFFFFF" cx="136.09" cy="232.746" r="26.705"/>
		<g>
			<g>
				<path fill="#558AA5" d="M121.182,199.732c9.461,5.417,18.88,1.221,28.928,3.286c2.004,0.412,4.01,2.643,5.459,3.921
					c3.794,3.347,7.201,7.141,10.548,10.924c1.673,1.891,4.427-0.884,2.764-2.764c-4.707-5.32-10.065-12.269-16.663-15.439
					c-3.217-1.546-7.581-1.273-11.026-1.077c-6.542,0.374-12.031,1.213-18.037-2.226
					C120.964,195.104,118.997,198.48,121.182,199.732L121.182,199.732z"/>
			</g>
		</g>
		<g>
			<g>
				<path fill="#558AA5" d="M5.252,181.862c6.316-7.114,14.55-8.27,23.528-6.272c3.22,0.716,6.438,2.557,9.526,3.701
					c4.907,1.817,19.477,8.082,22.177,0.103c0.81-2.394-2.965-3.413-3.769-1.039c-1.484,4.386-21.397-4.36-24.289-5.529
					c-10.465-4.232-22.351-2.273-29.938,6.272C0.822,180.976,3.576,183.75,5.252,181.862L5.252,181.862z"/>
			</g>
		</g>
		<g>
			<path fill="#558AA5" d="M102.627,355.8c10.532-2.107-25.07-29.858-41.551-33.22c-17.802-3.628-34.297-0.912-42.866,6.085
				c0,0,11.326,35.876,38.851,39.068C68,369.001,85.142,359.3,102.627,355.8z"/>
			<g>
				<path fill="#558AA5" d="M107.413,373.157c8.668-2.182,15.101-10.093,15.123-19.085c0.018-7.211-3.515-12.329-7.733-17.682
					c-6.47-8.208-16.139-14.571-24.85-20.126c-4.237-2.702-8.666-5.129-13.286-7.109c-7.714-3.307-14.436-4.688-22.864-5.72
					c-17.243-2.109-34.599,1.871-48.319,12.502c-4.752,3.682-6.375,12.047-4.629,17.513c4.607,14.429,13.263,29.145,24.937,38.877
					c10.18,8.487,23.636,14.96,37.23,13.205C78.418,383.545,92.292,376.359,107.413,373.157
					c9.602-2.034,15.054-13.118,12.572-22.143c-2.717-9.876-12.552-14.603-22.142-12.572c-12.66,2.682-24.39,8.357-36.97,11.248
					c-2.07,0.378-1.776,0.38,0.882,0.006c-1.189,0.153-2.382,0.15-3.578,0.128c4.933,0.092,1.599,0.253,0.122-0.056
					c-1.142-0.238-2.254-0.597-3.362-0.953c-3.867-1.245,3.729,1.79,0.103,0.064c-1.011-0.48-1.975-1.054-2.937-1.624
					c-0.953-0.565-1.856-1.211-2.758-1.854c4.162,2.965,1.113,0.813,0.239,0.049c-1.356-1.186-2.604-2.491-3.825-3.813
					c-0.72-0.779-1.395-1.598-2.07-2.415c3.37,4.077,1.001,1.303,0.312,0.349c-2.192-3.031-4.078-6.281-5.799-9.6
					c-0.595-1.146-1.147-2.313-1.688-3.485c-2.146-4.647,1.431,3.608,0.141,0.367c-0.39-0.979-0.764-1.97-1.085-2.975
					c-1.543,5.838-3.086,11.676-4.629,17.513c-5.556,4.305,5.503-2.17-0.446,0.34c2.167-0.914,4.46-1.51,6.742-2.051
					c0.984-0.218,1.973-0.407,2.968-0.568c-4.33,0.766,0.891,0.009,1.542-0.036c2.833-0.194,5.678-0.102,8.509,0.048
					c1.186,0.076,2.368,0.18,3.549,0.311c-3.645-0.361,2.344,0.474,2.489,0.502c1.336,0.256,2.635,0.68,3.92,1.117
					c4.488,1.526-3.579-1.731,1.003,0.402c1.944,0.905,3.832,1.932,5.703,2.978c3.326,1.859,6.527,3.938,9.664,6.096
					c1.555,1.069,3.073,2.191,4.58,3.327c-4.544-3.426,1.069,0.967,2.102,1.863c2.175,1.887,4.24,3.91,6.083,6.126
					c-3.969-4.773-1.59-2.15-0.823-0.633c-4.541-8.985,0.397-20.525,9.319-22.771c-9.512,2.395-15.129,12.845-12.572,22.143
					C87.914,370.194,97.904,375.55,107.413,373.157z"/>
			</g>
		</g>
		<path fill="#FFFFFF" d="M22.511,312.499c0,0,5.275,12.667,11.881,11.137c3.004-0.694,4.837-4.414,9.112-13.432
			c0,0-12.431-0.325-20.788,1.449l-0.514,0.044L22.511,312.499z"/>
		<g>
			<g>
				<path fill="#558AA5" d="M186.02,294.367c16.764-0.416,33.748-2.534,50.106-6.15c18.591-4.11,48.938-13.048,48.884-36.851
					c-0.032-14.452-11.771-26.757-21.447-36.069c-16.521-15.9-28.991-35.743-37.696-56.874
					c-13.045-31.665-18.327-66.588-17.817-100.725c0.065-4.375,0.188-8.778,0.62-13.135c0.579-5.851-8.545-5.795-9.119,0
					c-2.156,21.795-0.112,44.435,3.47,65.935c7.2,43.207,25.371,83.078,56.845,113.908c7.838,7.678,18.421,19.699,15.542,31.072
					c-2.143,8.462-11.977,14.009-19.965,17.346c-19.864,8.297-42.352,10.921-63.69,12.166c-1.909,0.111-3.821,0.212-5.732,0.26
					C180.15,285.395,180.136,294.514,186.02,294.367L186.02,294.367z"/>
			</g>
		</g>
		<circle fill="#558AA5" cx="204.109" cy="44.563" r="12.243"/>
		<circle fill="#558AA5" cx="-7.619" cy="5.153" r="12.243"/>
		<circle fill="#70A3C1" cx="60.183" cy="424.612" r="12.375"/>
		<g>
			<line fill="#70A3C1" x1="60.183" y1="424.611" x2="48.508" y2="502.766"/>
			<g>
				<path fill="#70A3C1" d="M55.786,423.399c-3.892,26.052-7.783,52.103-11.674,78.154c-0.859,5.75,7.927,8.224,8.793,2.424
					c3.892-26.052,7.783-52.103,11.674-78.154C65.438,420.073,56.652,417.6,55.786,423.399L55.786,423.399z"/>
			</g>
		</g>
		<circle cx="22.804" cy="216.437" r="13.115"/>
		<circle cx="131.894" cy="242.762" r="13.172"/>
		<path fill="#FFFFFF" d="M20.161,227.371c-0.242,1.002-1.251,1.617-2.255,1.375c-0.999-0.242-1.615-1.25-1.373-2.252
			c0.242-1.001,1.25-1.616,2.25-1.374C19.787,225.36,20.402,226.368,20.161,227.371z"/>
		<circle fill="#FFFFFF" cx="127.417" cy="253.303" r="1.873"/>
		
			<ellipse transform="matrix(-0.9998 -0.0185 0.0185 -0.9998 110.5109 1013.9025)" fill="#70A3C1" cx="59.956" cy="506.439" rx="17.197" ry="2.932"/>
	</g>
</g>
<g>
	<defs>
		<rect id="SVGID_7_" x="866.875" y="18.799" width="443.058" height="508.484"/>
	</defs>
	<clipPath id="SVGID_4_">
		<use xlink:href="#SVGID_7_"  overflow="visible"/>
	</clipPath>
	<g clip-path="url(#SVGID_4_)">
		<path fill="#70A3C1" d="M1008.305,422.516c113.176-37.384,31.97-112.529,31.97-112.529c58.987-36.687,41.813-159.04,41.813-159.04
			c6.626-1.252,13.152-5.739,15.869-8.695c4.557-4.96,7.435-11.507,7.695-18.768c0.578-16.177-12.068-29.758-28.244-30.336
			c-16.175-0.577-29.758,12.066-30.335,28.243c-0.14,3.898,0.548,7.634,1.809,11.084c-112.157-29.424-208.142-7.438-208.142-7.438
			c1.502-3.352,2.6-6.939,2.74-10.837c0.578-16.176-12.067-29.757-28.244-30.336c-16.176-0.578-29.759,12.066-30.336,28.244
			c-0.26,7.258,2.145,13.996,6.335,19.269c3.861,4.859,9.239,8.476,15.448,10.115c0,0-26.514,120.792,29.706,161.597
			c0,0-86.272,79.001,27.851,113.382C864.241,416.471,976.008,433.183,1008.305,422.516z"/>
		<circle fill="#558AA5" cx="807.876" cy="31.799" r="12.244"/>
		<g>
			<g>
				<path fill="#558AA5" d="M823.299,242.127c-16.043-3.239-33.433-12.031-42.689-25.858c-8.918-13.324-7.167-29.308-1.668-43.612
					c4.313-11.217,11.466-21.086,16.108-32.188c4.722-11.294,8.094-23.033,10.509-35.024c4.81-23.881,6.547-49.509,3.88-73.806
					c-0.635-5.779-9.76-5.841-9.119,0c3.561,32.428-0.007,67.382-10.824,98.094c-7.367,20.918-22.168,38.229-24.223,60.95
					c-1.287,14.227,4.042,27.83,13.778,38.09c10.66,11.232,26.676,19.09,41.824,22.148
					C826.616,252.08,829.061,243.291,823.299,242.127L823.299,242.127z"/>
			</g>
		</g>
		
			<ellipse transform="matrix(-0.9807 -0.1956 0.1956 -0.9807 1565.4927 1141.9902)" fill="#70A3C1" cx="839.125" cy="493.708" rx="17.197" ry="2.933"/>
	</g>
</g>
</svg>
