<?xml version="1.0" encoding="utf-8"?>
<!-- Generator: Adobe Illustrator 16.0.0, SVG Export Plug-In . SVG Version: 6.00 Build 0)  -->
<!DOCTYPE svg PUBLIC "-//W3C//DTD SVG 1.1//EN" "http://www.w3.org/Graphics/SVG/1.1/DTD/svg11.dtd">
<svg version="1.1" id="Layer_1" xmlns="http://www.w3.org/2000/svg" xmlns:xlink="http://www.w3.org/1999/xlink" x="0px" y="0px"
	 width="841.89px" height="595.28px" viewBox="0 0 841.89 595.28" enable-background="new 0 0 841.89 595.28" xml:space="preserve">
<path fill="#70A3C1" d="M496.693,429.141c111.77-41.4,27.932-113.598,27.932-113.598c57.639-38.771,36.107-160.434,36.107-160.434
	c6.578-1.486,12.941-6.203,15.551-9.254c4.375-5.121,7.018-11.768,7.018-19.031c0-16.186-13.121-29.309-29.309-29.309
	c-16.186,0-29.307,13.123-29.307,29.309c0,3.9,0.82,7.609,2.203,11.012c-113.137-25.4-208.275,0-208.275,0
	c1.383-3.402,2.352-7.027,2.352-10.928c0-16.188-13.121-29.309-29.309-29.309c-16.186,0-29.309,13.121-29.309,29.309
	c0,7.264,2.645,13.91,7.02,19.031c4.031,4.717,9.535,8.139,15.799,9.555c0,0-22.184,121.664,35.457,160.436
	c0,0-83.396,82.029,31.883,112.314C352.506,428.244,464.797,440.955,496.693,429.141z"/>
<path fill="none" stroke="#5D6733" stroke-width="0.6513" stroke-miterlimit="10" d="M583.301,488.168"/>
<circle fill="#FFFFFF" cx="363.806" cy="233.26" r="26.704"/>
<circle fill="#FFFFFF" cx="475.627" cy="233.26" r="26.705"/>
<circle cx="363.164" cy="232.852" r="17.953"/>
<circle cx="475.665" cy="233.852" r="17.954"/>
<circle fill="#FFFFFF" cx="373.454" cy="224.348" r="2.554"/>
<circle fill="#FFFFFF" cx="483.728" cy="223.814" r="2.554"/>
<g>
	<g>
		<path fill="#558AA5" d="M455.625,203.791c8.02-14.869,35.751-16.102,45.213-1.863c1.387,2.088,4.774,0.133,3.375-1.973
			c-11.023-16.588-42.422-15.828-51.963,1.863C451.054,204.037,454.428,206.01,455.625,203.791L455.625,203.791z"/>
	</g>
</g>
<g>
	<g>
		<path fill="#558AA5" d="M340.742,201.967c8.02-14.869,35.751-16.102,45.213-1.865c1.388,2.088,4.775,0.135,3.375-1.973
			c-11.023-16.586-42.422-15.826-51.963,1.865C336.17,202.211,339.545,204.186,340.742,201.967L340.742,201.967z"/>
	</g>
</g>
<g>
	<g>
		<path fill="#558AA5" d="M402.693,373.297c1.613-2.027,7.795-7.064,0.326-1.357c2.464-1.883,5.247-3.324,8.045-4.631
			c-8.396,3.922,1.043-0.066,3.438-0.713c1.551-0.42,3.128-0.732,4.701-1.047c2.904-0.484,2.154-0.418-2.247,0.203
			c1.13-0.137,2.265-0.25,3.399-0.34c3.506-0.313,7.033-0.291,10.546-0.15c1.701,0.068,3.396,0.248,5.087,0.428
			c-8.643-0.92-1.155,0,0.791,0.438c1.491,0.336,2.955,0.779,4.415,1.225c0.932,0.297,1.854,0.619,2.769,0.965
			c-4.238-1.861-5.101-2.217-2.586-1.064c1.2,0.557,2.344,1.223,3.483,1.891c5.791,3.4-3.737-3.361-0.599-0.596
			c11.031,9.721,27.291,10.893,38.184,0c9.912-9.912,11.048-28.449,0-38.184c-16.517-14.555-38.645-20.086-60.359-19.068
			c-20.029,0.938-44.47,7.359-57.576,23.818c-4.668,5.861-7.908,11.291-7.908,19.092c0,7.133,2.867,14.051,7.908,19.092
			C374.032,382.82,393.511,384.828,402.693,373.297L402.693,373.297z"/>
	</g>
</g>
<path fill="#FFFFFF" d="M382.305,340.322c0,0,8.104,11.074,14.166,8.033c2.755-1.381,3.664-5.428,5.699-15.197
	c0,0-12.158,2.605-19.865,6.295l-0.489,0.164L382.305,340.322z"/>
<g>
	<g>
		<path fill="#558AA5" d="M539.947,281.639c19.146-1.516,49.264,3.074,51.311,26.832c0.282,3.275,0.179,6.588-0.635,9.602
			c-0.484,1.797-0.82,2.303-2.188,3.502c0.838-0.734-1.773,0.844-0.746,0.43c-0.79,0.318-1.63,0.498-2.465,0.643
			c-0.553,0.096-3.807-0.076-5.042-0.299c-12.085-2.166-23.419-9.365-33.637-15.787c-23.063-14.492-44.736-31.732-65.09-49.818
			c-4.379-3.893-10.851,2.533-6.448,6.447c15.053,13.375,30.903,25.969,47.19,37.797c11.881,8.629,24.182,16.93,37.366,23.451
			c8.685,4.295,20.273,9.643,30.16,6.5c8.142-2.59,10.344-10.572,10.721-18.248c0.607-12.369-4.988-23.264-14.996-30.332
			c-12.432-8.779-30.601-11.018-45.502-9.836C534.126,272.982,534.081,282.104,539.947,281.639L539.947,281.639z"/>
	</g>
</g>
<path fill="#558AA5" d="M508.628,243.777c0,18.227-14.777,33.004-33.003,33.004c-18.221,0-32.999-14.777-32.999-33.004
	c0-18.219,14.778-32.996,32.999-32.996C493.851,210.781,508.628,225.559,508.628,243.777z"/>
<circle fill="#558AA5" cx="381.117" cy="259.965" r="29.883"/>
<g>
	<g>
		<path fill="#558AA5" d="M301.797,266.914c-19.598,13.1-47.008,39.072-34.903,64.926c6.095,13.021,19.758,19.246,33.237,14.566
			c13.797-4.791,25.018-16.324,34.477-26.99c12.729-14.357,24.111-30.375,33.786-46.955c2.97-5.09-4.912-9.678-7.873-4.604
			c-11.637,19.943-25.6,39.479-42.286,55.482c-7.691,7.379-19.91,18.305-31.615,15.197c-6.412-1.703-11.314-8.582-13.058-14.629
			c-2.081-7.227,0.968-14.75,4.621-20.898c6.673-11.227,17.395-20.988,28.216-28.223C311.26,271.537,306.7,263.635,301.797,266.914
			L301.797,266.914z"/>
	</g>
</g>
<circle fill="#70A3C1" cx="352.082" cy="426.887" r="12.375"/>
<circle fill="#70A3C1" cx="478.232" cy="432.967" r="12.375"/>
<g>
	<line fill="#70A3C1" x1="352.082" y1="432.967" x2="352.082" y2="511.988"/>
	<g>
		<path fill="#70A3C1" d="M347.523,432.967c0,26.34,0,52.682,0,79.021c0,5.881,9.117,5.881,9.117,0c0-26.34,0-52.682,0-79.021
			C356.641,427.086,347.523,427.086,347.523,432.967L347.523,432.967z"/>
	</g>
</g>
<g>
	<line fill="#70A3C1" x1="478.232" y1="432.967" x2="478.232" y2="511.988"/>
	<g>
		<path fill="#70A3C1" d="M473.673,432.967c0,26.34,0,52.682,0,79.021c0,5.881,9.118,5.881,9.118,0c0-26.34,0-52.682,0-79.021
			C482.791,427.086,473.673,427.086,473.673,432.967L473.673,432.967z"/>
	</g>
</g>
<ellipse fill="#70A3C1" cx="338.141" cy="514.918" rx="17.197" ry="2.932"/>
<ellipse fill="#70A3C1" cx="491.259" cy="514.268" rx="17.196" ry="2.932"/>
</svg>
