<?xml version="1.0" encoding="utf-8"?>
<!-- Generator: Adobe Illustrator 16.0.0, SVG Export Plug-In . SVG Version: 6.00 Build 0)  -->
<!DOCTYPE svg PUBLIC "-//W3C//DTD SVG 1.1//EN" "http://www.w3.org/Graphics/SVG/1.1/DTD/svg11.dtd">
<svg version="1.1" id="Layer_1" xmlns="http://www.w3.org/2000/svg" xmlns:xlink="http://www.w3.org/1999/xlink" x="0px" y="0px"
	 width="841.89px" height="595.28px" viewBox="0 0 841.89 595.28" enable-background="new 0 0 841.89 595.28" xml:space="preserve">
<path fill="#70A3C1" d="M221.818,424.491c115.569-29.157,39.968-109.941,39.968-109.941c61.47-32.355,53.127-155.626,53.127-155.626
	c6.701-0.773,13.533-4.778,16.455-7.532c4.9-4.621,8.241-10.945,9.022-18.167c1.739-16.093-9.899-30.548-25.992-32.286
	c-16.092-1.738-30.547,9.897-32.285,25.991c-0.419,3.878-0.002,7.653,1.008,11.185c-109.754-37.403-207.07-22.367-207.07-22.367
	c1.739-3.235,3.093-6.735,3.511-10.613C81.3,89.043,69.663,74.588,53.57,72.85c-16.092-1.738-30.548,9.898-32.286,25.992
	c-0.78,7.221,1.134,14.114,4.935,19.674c3.501,5.123,8.606,9.117,14.681,11.198c0,0-35.121,118.576,18.023,163.313
	c0,0-91.723,72.599,19.636,115.088C78.56,408.115,188.837,432.811,221.818,424.491z"/>
<path fill="none" stroke="#5D6733" stroke-width="0.6513" stroke-miterlimit="10" d="M280.039,503.299"/>
<g>
	<g>
		<path fill="#558AA5" d="M203.096,196.757c9.536,3.946,17.837-0.774,27.521-0.669c2.517,0.027,4.566,1.516,6.608,2.84
			c4.396,2.851,8.399,6.31,12.341,9.746c1.891,1.647,4.667-1.105,2.764-2.764c-5.5-4.793-11.827-11.06-18.95-13.406
			c-3.634-1.197-8.407-0.057-12.039,0.692c-6.11,1.26-11.219,2.271-17.207-0.208C201.807,192.025,200.802,195.808,203.096,196.757
			L203.096,196.757z"/>
	</g>
</g>
<g>
	<g>
		<path fill="#558AA5" d="M85.727,193.744c4.985-7.367,12.522-9.639,21.102-9.179c3.66,0.196,7.399,1.694,10.957,2.508
			c4.872,1.115,20.598,5.58,22.2-2.467c0.49-2.461-3.277-3.509-3.769-1.039c-0.997,5.008-21.767-1.304-25.184-2.193
			c-10.958-2.85-22.341,1.031-28.68,10.397C80.936,193.865,84.323,195.818,85.727,193.744L85.727,193.744z"/>
	</g>
</g>
<g>
	<path fill="#558AA5" d="M204.644,353.831c10.17-3.453-28.722-26.366-45.5-27.567c-18.121-1.295-34.126,3.532-41.717,11.58
		c0,0,15.871,34.109,43.578,33.713C172.016,371.399,187.758,359.562,204.644,353.831z"/>
	<g>
		<path fill="#558AA5" d="M209.429,371.188c7.879-3.113,16.074-10.009,14.84-19.655c-0.916-7.16-3.508-12.532-8.845-17.479
			c-7.88-7.303-17.709-12.778-27.42-17.22c-12.337-5.643-24.005-9.097-37.715-8.721c-16.237,0.446-33.865,5.173-45.59,17.002
			c-6.082,6.136-6.309,14.37-2.814,21.813c6.552,13.956,17.997,26.709,31.05,34.782c11.356,7.022,25.578,9.63,38.537,6.291
			c7.103-1.831,13.881-5.485,20.41-8.765c3.016-1.516,6.026-3.041,9.064-4.512c1.559-0.754,3.136-1.468,4.716-2.176
			C202.656,373.896,208.828,371.399,209.429,371.188c9.247-3.25,15.311-12.185,12.572-22.142
			c-2.465-8.963-12.88-15.827-22.142-12.572c-6.905,2.427-13.601,5.439-20.164,8.67c-2.969,1.461-5.912,2.978-8.875,4.453
			c-1.389,0.691-2.79,1.356-4.195,2.016c-4.499,2.111,3.388-1.281-0.998,0.438c-1.976,0.774-4.009,1.35-6.082,1.792
			c4.916-1.048,1.723-0.284,0.208-0.291c-1.157-0.005-5.285-0.626-0.056,0.174c-2.317-0.354-4.565-1.072-6.757-1.885
			c5.128,1.903-1.468-0.987-2.798-1.809c-0.633-0.403-1.256-0.82-1.869-1.253c-3.293-2.265,3.18,2.616,0.122,0.094
			c-1.671-1.378-3.221-2.898-4.73-4.447c-1.429-1.466-2.757-3.028-4.053-4.611c-2.315-2.828,2.603,3.471,0.498,0.63
			c-0.525-0.71-1.028-1.437-1.531-2.163c-2.085-3.013-4.051-6.2-5.611-9.523c-0.938,7.271-1.876,14.542-2.814,21.813
			c0.518-0.548,1.061-1.07,1.628-1.566c-3.502,3.211-0.808,0.641,0.242-0.039c0.998-0.646,7.196-3.367,2.931-1.692
			c2.308-0.906,4.715-1.541,7.12-2.125c1.541-0.374,3.107-0.631,4.67-0.891c-4.141,0.688,1.332-0.025,1.829-0.061
			c2.917-0.211,5.845-0.156,8.764-0.044c6.562,0.253-3.791-0.905,1.051,0.067c3.615,0.726,7.127,1.99,10.558,3.317
			c1.775,0.718,1.375,0.538-1.198-0.539c1.051,0.445,2.089,0.921,3.127,1.396c1.746,0.798,3.462,1.659,5.171,2.533
			c3.581,1.832,7.059,3.863,10.435,6.047c1.343,0.869,2.648,1.795,3.936,2.744c-4.913-3.624-0.997-0.716,0.084,0.285
			c0.327,0.311,0.645,0.63,0.954,0.959c1.965,2.036-2.858-4.011-1.404-1.874c0.081,0.135,0.161,0.271,0.241,0.406
			c-1.357-2.356-2.018-4.898-1.981-7.625c-0.948-7.414,5.602-13.048,11.547-15.397c-9.117,3.603-15.387,11.91-12.572,22.142
			C189.678,367.308,200.29,374.799,209.429,371.188z"/>
	</g>
</g>
<path fill="#FFFFFF" d="M119.6,321.255c0,0,6.869,11.88,13.221,9.507c2.889-1.077,4.226-5.002,7.298-14.498
	c0,0-12.369,1.286-20.426,4.126l-0.504,0.11L119.6,321.255z"/>
<g>
	<g>
		<path fill="#558AA5" d="M283.359,277.606c-0.551-18.083,3.053-37.949,12.059-53.713c6.979-12.218,18.406-20.564,32.584-21.952
			c8.222-0.805,16.142,1.655,24.291,1.213c6.258-0.339,12.294-2.515,17.424-6.085c19.289-13.425,25.707-41.006,29.492-62.72
			c2.686-15.413,4.315-31.273,4.327-46.938c0.004-5.88-9.114-5.88-9.119,0c-0.015,19.845-2.375,40.071-7.075,59.334
			c-3.193,13.083-7.737,27.035-16.752,37.352c-3.73,4.268-8.318,7.585-13.799,9.151c-7.088,2.026-14.353-0.269-21.509-0.597
			c-45.166-2.07-62.184,47.421-61.041,84.956C274.419,283.472,283.538,283.489,283.359,277.606L283.359,277.606z"/>
	</g>
</g>
<circle fill="#558AA5" cx="398.977" cy="92.613" r="12.243"/>
<circle fill="#558AA5" cx="49.968" cy="20.389" r="12.243"/>
<g>
	<g>
		<path fill="#558AA5" d="M49.933,231.184c-4.334-0.978-7.665-2.96-12.062-6.222c-9.378-6.957-15.246-18.526-18.13-29.939
			c-5.95-23.54-0.506-48.284,4.502-71.437c5.637-26.057,12.409-51.873,19.745-77.5c2.379-8.311,4.806-16.613,7.399-24.859
			c1.769-5.625-7.036-8.013-8.793-2.424C30.051,58.694,19.396,99.439,11.489,140.5c-6.069,31.519-6.272,71.526,22.198,92.646
			c4.002,2.969,8.909,5.723,13.822,6.832C53.236,241.27,55.668,232.479,49.933,231.184L49.933,231.184z"/>
	</g>
</g>
<circle fill="#70A3C1" cx="75.986" cy="407.388" r="12.376"/>
<circle fill="#70A3C1" cx="171.456" cy="427.555" r="12.375"/>
<g>
	<line fill="#70A3C1" x1="76.161" y1="414.517" x2="60.708" y2="492.013"/>
	<g>
		<path fill="#70A3C1" d="M71.764,413.305c-5.151,25.832-10.302,51.664-15.453,77.496c-1.145,5.742,7.644,8.188,8.793,2.424
			c5.151-25.832,10.302-51.664,15.453-77.496C81.702,409.987,72.914,407.541,71.764,413.305L71.764,413.305z"/>
	</g>
</g>
<g>
	<line fill="#70A3C1" x1="171.456" y1="427.555" x2="169.989" y2="506.563"/>
	<g>
		<path fill="#70A3C1" d="M166.896,427.555c-0.489,26.336-0.978,52.672-1.467,79.008c-0.109,5.884,9.01,5.873,9.119,0
			c0.489-26.336,0.978-52.672,1.467-79.008C176.125,421.671,167.006,421.682,166.896,427.555L166.896,427.555z"/>
	</g>
</g>
<ellipse transform="matrix(-0.9807 -0.1956 0.1956 -0.9807 -4.2143 983.9028)" fill="#70A3C1" cx="46.464" cy="492.159" rx="17.197" ry="2.932"/>
<ellipse transform="matrix(-0.9998 -0.0186 0.0186 -0.9998 356.4648 1021.4739)" fill="#70A3C1" cx="182.971" cy="509.083" rx="17.197" ry="2.931"/>
<g>
	<g>
		<path fill="#558AA5" d="M85.946,225.133c3.037,4.91,7.851,8.981,13.061,11.375c11.58,5.32,23.37,0.087,32.628-7.308
			c2.821-2.254-1.168-6.189-3.96-3.96c-8.179,6.533-18.326,10.661-28.153,5.269c-3.417-1.874-6.675-4.865-8.74-8.202
			C88.886,219.243,84.04,222.053,85.946,225.133L85.946,225.133z"/>
	</g>
</g>
<g>
	<g>
		<path fill="#558AA5" d="M198.615,234.102c3.037,4.91,7.851,8.981,13.061,11.375c11.58,5.32,23.37,0.087,32.628-7.308
			c2.821-2.254-1.168-6.189-3.96-3.96c-8.179,6.533-18.326,10.661-28.153,5.269c-3.417-1.874-6.675-4.865-8.74-8.202
			C201.554,228.211,196.708,231.021,198.615,234.102L198.615,234.102z"/>
	</g>
</g>
</svg>
