<?xml version="1.0" encoding="utf-8"?>
<!-- Generator: Adobe Illustrator 16.0.0, SVG Export Plug-In . SVG Version: 6.00 Build 0)  -->
<!DOCTYPE svg PUBLIC "-//W3C//DTD SVG 1.1//EN" "http://www.w3.org/Graphics/SVG/1.1/DTD/svg11.dtd">
<svg version="1.1" id="Layer_1" xmlns="http://www.w3.org/2000/svg" xmlns:xlink="http://www.w3.org/1999/xlink" x="0px" y="0px"
	 width="841.89px" height="595.28px" viewBox="0 0 841.89 595.28" enable-background="new 0 0 841.89 595.28" xml:space="preserve">
<path fill="#70A3C1" d="M496.693,429.141c111.77-41.4,27.932-113.598,27.932-113.598c57.639-38.771,36.107-160.433,36.107-160.433
	c6.578-1.487,12.941-6.203,15.551-9.255c4.375-5.12,7.018-11.767,7.018-19.03c0-16.187-13.121-29.309-29.309-29.309
	c-16.186,0-29.307,13.122-29.307,29.309c0,3.9,0.82,7.609,2.203,11.012c-113.137-25.4-208.275,0-208.275,0
	c1.383-3.402,2.352-7.027,2.352-10.928c0-16.188-13.121-29.309-29.309-29.309c-16.186,0-29.309,13.121-29.309,29.309
	c0,7.264,2.645,13.91,7.02,19.03c4.031,4.718,9.535,8.14,15.799,9.556c0,0-22.184,121.663,35.457,160.435
	c0,0-83.396,82.029,31.883,112.314C352.506,428.244,464.797,440.955,496.693,429.141z"/>
<path fill="none" stroke="#5D6733" stroke-width="0.6513" stroke-miterlimit="10" d="M583.301,488.168"/>
<circle fill="#FFFFFF" cx="363.806" cy="233.261" r="26.704"/>
<circle fill="#FFFFFF" cx="475.627" cy="233.261" r="26.705"/>
<circle cx="363.164" cy="232.853" r="17.953"/>
<circle cx="475.665" cy="233.853" r="17.954"/>
<circle fill="#FFFFFF" cx="373.454" cy="224.348" r="2.554"/>
<circle fill="#FFFFFF" cx="483.728" cy="223.815" r="2.553"/>
<g>
	<g>
		<path fill="#558AA5" d="M455.624,203.792c8.021-14.87,35.752-16.103,45.215-1.864c1.387,2.088,4.773,0.133,3.373-1.973
			c-11.023-16.588-42.42-15.827-51.961,1.864C451.054,204.037,454.429,206.01,455.624,203.792L455.624,203.792z"/>
	</g>
</g>
<g>
	<g>
		<path fill="#558AA5" d="M340.741,201.967c8.02-14.869,35.752-16.102,45.215-1.864c1.387,2.088,4.773,0.134,3.373-1.973
			c-11.023-16.587-42.42-15.826-51.961,1.864C336.171,202.212,339.546,204.186,340.741,201.967L340.741,201.967z"/>
	</g>
</g>
<g>
	<g>
		<path fill="#558AA5" d="M402.693,373.297c1.614-2.027,7.796-7.064,0.326-1.357c2.464-1.883,5.247-3.324,8.045-4.631
			c-8.396,3.922,1.043-0.066,3.438-0.713c1.551-0.42,3.127-0.732,4.7-1.046c2.903-0.485,2.154-0.419-2.247,0.203
			c1.131-0.138,2.264-0.251,3.4-0.341c3.505-0.313,7.031-0.29,10.545-0.149c1.701,0.067,3.396,0.247,5.088,0.427
			c-8.645-0.92-1.156,0,0.791,0.438c1.49,0.336,2.953,0.779,4.414,1.225c0.932,0.297,1.854,0.619,2.769,0.965
			c-4.238-1.861-5.101-2.217-2.587-1.064c1.201,0.558,2.345,1.223,3.484,1.892c5.791,3.399-3.736-3.362-0.599-0.597
			c11.031,9.722,27.291,10.893,38.184,0c9.911-9.911,11.048-28.448,0-38.184c-16.517-14.555-38.645-20.086-60.359-19.068
			c-20.03,0.938-44.47,7.359-57.576,23.818c-4.668,5.861-7.908,11.291-7.908,19.092c0,7.133,2.868,14.051,7.908,19.092
			C374.032,382.82,393.511,384.828,402.693,373.297L402.693,373.297z"/>
	</g>
</g>
<path fill="#FFFFFF" d="M382.305,340.323c0,0,8.104,11.074,14.166,8.033c2.755-1.381,3.664-5.428,5.699-15.198
	c0,0-12.158,2.606-19.865,6.296l-0.489,0.164L382.305,340.323z"/>
<g>
	<g>
		<path fill="#558AA5" d="M539.947,281.639c19.146-1.516,49.265,3.074,51.311,26.832c0.282,3.276,0.179,6.588-0.634,9.603
			c-0.484,1.796-0.82,2.302-2.188,3.502c0.838-0.735-1.774,0.844-0.748,0.43c-0.789,0.318-1.629,0.497-2.464,0.643
			c-0.552,0.096-3.806-0.077-5.042-0.299c-12.085-2.166-23.419-9.366-33.637-15.788c-23.063-14.492-44.736-31.732-65.09-49.818
			c-4.379-3.892-10.852,2.534-6.447,6.447c15.052,13.375,30.902,25.969,47.189,37.798c11.881,8.628,24.182,16.929,37.365,23.45
			c8.686,4.295,20.275,9.644,30.162,6.5c8.141-2.589,10.343-10.572,10.72-18.248c0.607-12.368-4.987-23.264-14.996-30.332
			c-12.432-8.779-30.601-11.018-45.502-9.836C534.126,272.982,534.081,282.104,539.947,281.639L539.947,281.639z"/>
	</g>
</g>
<path fill="#558AA5" d="M508.628,243.778c0,18.227-14.777,33.004-33.003,33.004c-18.22,0-32.999-14.777-32.999-33.004
	c0-18.22,14.779-32.996,32.999-32.996C493.851,210.782,508.628,225.559,508.628,243.778z"/>
<circle fill="#558AA5" cx="370.901" cy="240.665" r="29.883"/>
<g>
	<g>
		<path fill="#558AA5" d="M301.796,266.914c-19.596,13.101-47.006,39.072-34.902,64.926c5.846,12.49,18.859,19.176,31.751,13.679
			c12.53-5.343,21.81-17.476,29.561-28.179c12.299-16.984,22.577-35.902,31.069-55.072c2.359-5.326-5.496-9.97-7.873-4.604
			c-9.115,20.576-20.26,40.871-33.846,58.824c-6.32,8.351-16.357,21.175-27.607,22.1c-5.491,0.452-9.918-3.429-13.116-7.857
			c-4.683-6.486-4.614-13.936-1.958-21.195c5.195-14.209,19.203-26.511,31.525-34.748
			C311.261,271.537,306.7,263.635,301.796,266.914L301.796,266.914z"/>
	</g>
</g>
<circle fill="#70A3C1" cx="352.082" cy="426.887" r="12.375"/>
<circle fill="#70A3C1" cx="478.232" cy="432.967" r="12.375"/>
<g>
	<line fill="#70A3C1" x1="352.082" y1="432.967" x2="352.082" y2="511.988"/>
	<g>
		<path fill="#70A3C1" d="M347.522,432.967c0,26.34,0,52.682,0,79.021c0,5.881,9.119,5.881,9.119,0c0-26.34,0-52.682,0-79.021
			C356.642,427.086,347.522,427.086,347.522,432.967L347.522,432.967z"/>
	</g>
</g>
<g>
	<line fill="#70A3C1" x1="478.232" y1="432.967" x2="478.232" y2="511.988"/>
	<g>
		<path fill="#70A3C1" d="M473.673,432.967c0,26.34,0,52.682,0,79.021c0,5.881,9.119,5.881,9.119,0c0-26.34,0-52.682,0-79.021
			C482.792,427.086,473.673,427.086,473.673,432.967L473.673,432.967z"/>
	</g>
</g>
<ellipse fill="#70A3C1" cx="338.141" cy="514.918" rx="17.197" ry="2.932"/>
<ellipse fill="#70A3C1" cx="491.259" cy="514.268" rx="17.196" ry="2.932"/>
</svg>
