<?xml version="1.0" encoding="utf-8"?>
<!-- Generator: Adobe Illustrator 16.0.0, SVG Export Plug-In . SVG Version: 6.00 Build 0)  -->
<!DOCTYPE svg PUBLIC "-//W3C//DTD SVG 1.1//EN" "http://www.w3.org/Graphics/SVG/1.1/DTD/svg11.dtd">
<svg version="1.1" id="Layer_1" xmlns="http://www.w3.org/2000/svg" xmlns:xlink="http://www.w3.org/1999/xlink" x="0px" y="0px"
	 width="841.89px" height="595.28px" viewBox="0 0 841.89 595.28" enable-background="new 0 0 841.89 595.28" xml:space="preserve">
<path fill="#70A3C1" d="M486.587,419.097c111.77-41.399,27.931-113.598,27.931-113.598c57.64-38.77,36.107-160.432,36.107-160.432
	c6.579-1.488,12.942-6.204,15.551-9.255c4.376-5.12,7.019-11.767,7.019-19.03c0-16.187-13.122-29.308-29.309-29.308
	c-16.186,0-29.308,13.122-29.308,29.308c0,3.9,0.82,7.609,2.204,11.012c-113.137-25.4-208.275,0-208.275,0
	c1.383-3.403,2.352-7.028,2.352-10.929c0-16.187-13.122-29.308-29.309-29.308c-16.186,0-29.309,13.122-29.309,29.308
	c0,7.264,2.644,13.91,7.02,19.031c4.031,4.717,9.535,8.14,15.799,9.556c0,0-22.184,121.663,35.456,160.434
	c0,0-83.396,82.029,31.883,112.314C342.398,418.201,454.69,430.912,486.587,419.097z"/>
<path fill="none" stroke="#5D6733" stroke-width="0.6513" stroke-miterlimit="10" d="M573.194,478.125"/>
<circle fill="#FFFFFF" cx="353.699" cy="223.218" r="26.705"/>
<circle fill="#FFFFFF" cx="465.52" cy="223.218" r="26.705"/>
<circle cx="353.242" cy="235.665" r="11.447"/>
<circle cx="465.521" cy="235.665" r="11.447"/>
<circle fill="#FFFFFF" cx="351.614" cy="245.484" r="1.628"/>
<circle fill="#FFFFFF" cx="463.892" cy="245.484" r="1.628"/>
<g>
	<g>
		<path fill="#558AA5" d="M445.518,193.749c8.019-14.87,35.752-16.102,45.214-1.864c1.387,2.088,4.773,0.133,3.374-1.973
			c-11.022-16.587-42.422-15.828-51.962,1.864C440.948,193.994,444.322,195.967,445.518,193.749L445.518,193.749z"/>
	</g>
</g>
<g>
	<g>
		<path fill="#558AA5" d="M330.635,191.924c8.019-14.87,35.752-16.101,45.214-1.864c1.387,2.088,4.773,0.133,3.374-1.973
			c-11.022-16.587-42.422-15.828-51.962,1.864C326.065,192.169,329.439,194.143,330.635,191.924L330.635,191.924z"/>
	</g>
</g>
<g>
	<g>
		<path fill="#558AA5" d="M376.676,347.344c7.853-9.86,21.562-13.401,33.572-14.475c13.185-1.179,29.47,0.607,39.815,9.726
			c4.336,3.821,10.727-2.52,6.364-6.364c-11.942-10.525-29.041-13.201-44.45-12.479c-14.616,0.684-32.134,5.259-41.667,17.228
			C366.736,345.47,373.061,351.883,376.676,347.344L376.676,347.344z"/>
	</g>
</g>
<path fill="#FFFFFF" d="M384.051,335.44c0,0,8.104,11.074,14.166,8.033c2.755-1.381,3.664-5.428,5.699-15.198
	c0,0-12.158,2.606-19.865,6.296l-0.489,0.164L384.051,335.44z"/>
<g>
	<g>
		<path fill="#70A3C1" d="M529.841,271.596c17.078-1.353,43.667,1.748,50.069,20.62c3.034,8.944,0.21,18.911,0.433,28.112
			c0.216,8.913,2.023,17.813,6.054,25.796c3.302,6.539,9.274,13.255,16.48,15.567c5.615,1.801,8-7.004,2.424-8.793
			c-1.275-0.409,0.899,0.465-0.5-0.222c-1.239-0.609-2.8-1.656-3.386-2.129c-4.411-3.562-7.321-8.532-9.175-13.828
			c-3.426-9.789-3.211-20.502-2.154-30.676c0.82-7.907-0.335-15.834-4.282-22.802c-10.286-18.156-36.949-22.269-55.963-20.762
			C524.02,262.939,523.975,272.061,529.841,271.596L529.841,271.596z"/>
	</g>
</g>
<circle fill="#70A3C1" cx="616.397" cy="360.936" r="12.243"/>
<circle fill="#70A3C1" cx="225.493" cy="392.225" r="12.243"/>
<g>
	<g>
		<path fill="#70A3C1" d="M292.779,256.411c-18.41,3.38-36.547,14.618-48.926,28.338c-12.247,13.574-18.853,30.624-21.146,48.6
			c-1.879,14.729-0.717,30.347-0.756,45.181c-0.006,2.298-0.012,4.596-0.018,6.894c-0.016,5.881,9.103,5.879,9.118,0
			c0.078-29.828-3.619-61.876,14.146-87.78c11.185-16.308,30.395-28.492,49.798-32.399c0.069-0.014,0.138-0.027,0.207-0.04
			C300.981,264.143,298.526,255.356,292.779,256.411L292.779,256.411z"/>
	</g>
</g>
<circle fill="#70A3C1" cx="341.975" cy="416.843" r="12.375"/>
<circle fill="#70A3C1" cx="468.125" cy="422.923" r="12.375"/>
<g>
	<line fill="#70A3C1" x1="341.975" y1="422.923" x2="341.975" y2="501.945"/>
	<g>
		<path fill="#70A3C1" d="M337.416,422.923c0,26.34,0,52.681,0,79.021c0,5.88,9.118,5.88,9.118,0c0-26.34,0-52.681,0-79.021
			C346.534,417.043,337.416,417.043,337.416,422.923L337.416,422.923z"/>
	</g>
</g>
<g>
	<line fill="#70A3C1" x1="468.125" y1="422.923" x2="468.125" y2="501.945"/>
	<g>
		<path fill="#70A3C1" d="M463.566,422.923c0,26.34,0,52.681,0,79.021c0,5.88,9.118,5.88,9.118,0c0-26.34,0-52.681,0-79.021
			C472.684,417.043,463.566,417.043,463.566,422.923L463.566,422.923z"/>
	</g>
</g>
<ellipse fill="#70A3C1" cx="328.034" cy="504.875" rx="17.197" ry="2.932"/>
<ellipse fill="#70A3C1" cx="481.152" cy="504.224" rx="17.197" ry="2.932"/>
</svg>
