<?xml version="1.0" encoding="utf-8"?>
<!-- Generator: Adobe Illustrator 16.0.0, SVG Export Plug-In . SVG Version: 6.00 Build 0)  -->
<!DOCTYPE svg PUBLIC "-//W3C//DTD SVG 1.1//EN" "http://www.w3.org/Graphics/SVG/1.1/DTD/svg11.dtd">
<svg version="1.1" id="Layer_1" xmlns="http://www.w3.org/2000/svg" xmlns:xlink="http://www.w3.org/1999/xlink" x="0px" y="0px"
	 width="841.89px" height="595.28px" viewBox="0 0 841.89 595.28" enable-background="new 0 0 841.89 595.28" xml:space="preserve">
<ellipse transform="matrix(-0.9998 -0.0185 0.0185 -0.9998 247.9722 1019.2297)" fill="#70A3C1" cx="128.711" cy="508.465" rx="17.197" ry="2.932"/>
<g>
	<defs>
		<rect id="SVGID_3_" x="-3.026" y="56.81" width="382.867" height="483.473"/>
	</defs>
	<clipPath id="SVGID_2_">
		<use xlink:href="#SVGID_3_"  overflow="visible"/>
	</clipPath>
	<g clip-path="url(#SVGID_2_)">
		<path fill="#70A3C1" d="M170.156,426.084c115.969-27.524,41.517-109.367,41.517-109.367c61.92-31.485,55.319-154.86,55.319-154.86
			c6.709-0.679,13.597-4.587,16.558-7.299c4.966-4.551,8.395-10.827,9.278-18.038c1.965-16.067-9.467-30.685-25.534-32.649
			s-30.685,9.466-32.649,25.533c-0.474,3.872-0.111,7.652,0.85,11.198C126.28,101.652,28.762,115.314,28.762,115.314
			c1.785-3.21,3.187-6.69,3.661-10.562c1.965-16.066-9.467-30.684-25.534-32.649c-16.066-1.966-30.686,9.465-32.65,25.533
			c-0.882,7.209,0.935,14.128,4.657,19.742c3.429,5.172,8.477,9.238,14.522,11.404c0,0-36.792,118.068,15.716,163.551
			c0,0-92.739,71.298,18.01,115.354C27.144,407.688,137.062,433.938,170.156,426.084z"/>
		<circle fill="#FFFFFF" cx="62.033" cy="215.519" r="26.705"/>
		<circle fill="#FFFFFF" cx="173.027" cy="229.095" r="26.704"/>
		<g>
			<g>
				<path fill="#558AA5" d="M154.21,197.919c9.272,3.991,16.949,0.19,26.434-0.131c7.719-0.261,15.14,8.261,20.325,12.911
					c1.871,1.677,4.644-1.078,2.764-2.764c-5.475-4.909-11.444-10.71-18.382-13.527c-3.297-1.338-7.668-0.421-11.052,0.14
					c-6.375,1.058-11.837,2.699-18.115-0.004C153.894,193.559,151.901,196.925,154.21,197.919L154.21,197.919z"/>
			</g>
		</g>
		<g>
			<g>
				<path fill="#558AA5" d="M37.349,193.415c5.081-7.283,12.686-9.436,21.244-8.856c3.654,0.248,7.376,1.806,10.918,2.67
					c4.87,1.188,20.494,5.855,22.214-2.188c0.525-2.458-3.242-3.503-3.769-1.039c-1.058,4.95-21.792-1.652-25.17-2.582
					c-10.927-3.007-22.342,0.75-28.812,10.023C32.529,193.515,35.919,195.465,37.349,193.415L37.349,193.415z"/>
			</g>
		</g>
		<g>
			<path fill="#558AA5" d="M153.981,355.188c10.218-3.309-28.347-26.768-45.105-28.206c-18.101-1.55-34.173,3.05-41.877,10.989
				c0,0,15.388,34.33,43.098,34.326C121.108,372.294,137.016,360.681,153.981,355.188z"/>
			<g>
				<path fill="#558AA5" d="M158.767,372.545c7.998-3.031,15.963-10.027,14.872-19.633c-0.813-7.16-3.553-12.548-8.777-17.528
					c-7.745-7.384-17.604-12.994-27.214-17.554c-12.29-5.832-23.895-9.308-37.624-9.124c-16.293,0.218-33.856,4.868-45.753,16.537
					c-6.214,6.094-6.171,14.39-2.814,21.813c6.283,13.892,17.334,26.311,29.949,34.684c11.372,7.548,25.932,10.295,39.17,7.081
					c7.13-1.73,13.935-5.352,20.506-8.536c3.037-1.473,6.069-2.955,9.127-4.384c0.177-0.082,5.382-2.348,2.051-0.962
					C154.396,374.051,156.575,373.28,158.767,372.545c9.292-3.12,15.283-12.287,12.572-22.143
					c-2.493-9.063-12.838-15.695-22.142-12.572c-6.938,2.33-13.653,5.309-20.259,8.446c-2.99,1.42-5.954,2.895-8.937,4.327
					c-1.398,0.672-2.809,1.317-4.223,1.957c3.896-1.762-0.362,0.111-1.029,0.362c-1.987,0.746-4.028,1.293-6.106,1.706
					c4.994-0.992,1.685-0.328,0.222-0.354c-1.201-0.022-5.205-0.741,0.021,0.121c-2.28-0.376-4.489-1.104-6.642-1.927
					c5.187,1.979-1.356-0.989-2.668-1.814c-0.621-0.401-1.232-0.817-1.833-1.248c-3.246-2.268,3.202,2.627,0.189,0.106
					c-1.641-1.372-3.161-2.885-4.642-4.425c-1.406-1.463-2.71-3.021-3.983-4.599c3.827,4.746-0.157-0.334-0.982-1.544
					c-2.164-3.179-4.195-6.549-5.782-10.06c-0.938,7.271-1.876,14.542-2.814,21.813c0.525-0.54,1.076-1.054,1.65-1.542
					c-3.583,3.194-0.745,0.661,0.282,0.017c0.736-0.441,1.487-0.856,2.252-1.245c3.983-2.112-3.675,1.313,0.728-0.345
					c2.32-0.873,4.736-1.474,7.149-2.023c0.556-0.127,5.678-0.919,1.515-0.389c1.662-0.212,3.335-0.307,5.006-0.404
					c2.919-0.169,5.847-0.073,8.763,0.08c2.891,0.256,2.408,0.147-1.448-0.325c0.837,0.113,1.664,0.297,2.489,0.475
					c3.604,0.777,7.098,2.091,10.51,3.466c-5.35-2.157,0.742,0.399,1.891,0.944c1.734,0.823,3.438,1.708,5.135,2.606
					c3.555,1.882,7.003,3.962,10.349,6.193c1.182,0.788,5.916,4.421,0.949,0.53c1.042,0.815,2.03,1.693,2.987,2.606
					c0.323,0.314,0.636,0.639,0.94,0.972c1.936,2.064-2.854-4.012-1.43-1.854c0.078,0.137,0.157,0.273,0.235,0.41
					c-1.365-2.353-2.032-4.892-2.002-7.618c-0.835-7.354,5.476-13.132,11.519-15.422c-9.167,3.474-15.358,12.012-12.572,22.143
					C139.043,368.765,149.581,376.025,158.767,372.545z"/>
			</g>
		</g>
		<path fill="#FFFFFF" d="M69.405,321.416c0,0,6.701,11.975,13.086,9.692c2.904-1.036,4.296-4.942,7.502-14.394
			c0,0-12.385,1.111-20.481,3.838l-0.506,0.103L69.405,321.416z"/>
		<g>
			<g>
				<path fill="#558AA5" d="M227.994,284.414c14.213,3.189,30.248,1.524,43.353-4.714c11.764-5.6,19.963-15.87,24.819-27.744
					c8.234-20.136,4.295-41.304,3.46-62.248c-0.574-14.427,1.309-29.746,9.195-42.154c1.878-2.956,4.214-5.582,6.884-7.844
					c0.276-0.233,1.45-1.207,2.822-1.876c5.284-2.579,0.66-10.442-4.603-7.874c-6.491,3.168-11.521,10.117-14.89,16.22
					c-10.435,18.904-8.789,40.698-7.043,61.378c1.46,17.3,0.448,36.333-9.606,51.131c-6.096,8.972-15.831,14.323-26.216,16.672
					c-5.868,1.328-12.03,1.59-18.238,1.21c-1.12-0.068-2.237-0.17-3.353-0.289c-0.521-0.056-1.041-0.12-1.561-0.188
					c1.5,0.195-0.011-0.01-0.342-0.062c-0.755-0.117-1.512-0.244-2.258-0.412C224.69,274.336,222.257,283.127,227.994,284.414
					L227.994,284.414z"/>
			</g>
		</g>
		<circle fill="#558AA5" cx="322" cy="128.963" r="12.244"/>
		<circle fill="#558AA5" cx="4.027" cy="19.596" r="12.243"/>
		<g>
			<g>
				<path fill="#558AA5" d="M0.954,230.352c-16.123-4.729-33.8-16.034-41.409-32.239c-7.455-15.875-0.87-33.817,7.573-47.796
					c6.398-10.593,13.543-20.223,18.726-31.56c4.862-10.636,8.569-21.763,11.498-33.075C2.877,64.297,6.133,41.336,5.614,19.18
					c-0.137-5.87-9.256-5.884-9.118,0c0.735,31.425-5.395,64.895-17.937,93.655c-8.97,20.57-25.911,37.173-30.319,59.679
					c-2.917,14.89,0.967,29.208,10.304,41.003c9.647,12.186,25.129,21.27,39.986,25.627C4.186,240.803,6.584,232.003,0.954,230.352
					L0.954,230.352z"/>
			</g>
		</g>
		<circle fill="#70A3C1" cx="24.58" cy="406.924" r="12.375"/>
		<circle fill="#70A3C1" cx="119.757" cy="428.437" r="12.375"/>
		<g>
			<line fill="#70A3C1" x1="24.654" y1="414.055" x2="8.108" y2="491.324"/>
			<g>
				<path fill="#70A3C1" d="M20.258,412.843c-5.515,25.757-11.031,51.513-16.546,77.27c-1.228,5.734,7.562,8.173,8.793,2.424
					c5.515-25.757,11.031-51.513,16.546-77.27C30.279,409.532,21.489,407.094,20.258,412.843L20.258,412.843z"/>
			</g>
		</g>
		<g>
			<line fill="#70A3C1" x1="119.756" y1="428.436" x2="117.174" y2="507.414"/>
			<g>
				<path fill="#70A3C1" d="M115.197,428.436c-0.861,26.326-1.722,52.652-2.582,78.979c-0.192,5.883,8.927,5.865,9.118,0
					c0.861-26.326,1.722-52.652,2.582-78.979C124.508,422.553,115.389,422.57,115.197,428.436L115.197,428.436z"/>
			</g>
		</g>
		<circle cx="58.617" cy="225.962" r="13.115"/>
		<circle cx="170.015" cy="239.529" r="13.172"/>
		<circle fill="#FFFFFF" cx="55.4" cy="236.9" r="1.866"/>
		<circle fill="#FFFFFF" cx="166.783" cy="250.516" r="1.873"/>
		
			<ellipse transform="matrix(-0.9807 -0.1956 0.1956 -0.9807 -111.573 972.0655)" fill="#70A3C1" cx="-7.796" cy="491.541" rx="17.197" ry="2.933"/>
	</g>
</g>
<g>
	<defs>
		<rect id="SVGID_5_" x="861.734" y="28.017" width="350.689" height="500.266"/>
	</defs>
	<clipPath id="SVGID_4_">
		<use xlink:href="#SVGID_5_"  overflow="visible"/>
	</clipPath>
	<g clip-path="url(#SVGID_4_)">
		<path fill="#70A3C1" d="M972.407,428.089c118.37-13.965,53.854-103.849,53.854-103.849
			c65.139-24.133,72.812-147.446,72.812-147.446c6.743,0.1,14.036-2.989,17.29-5.341c5.458-3.948,9.588-9.786,11.297-16.847
			c3.806-15.733-5.865-31.572-21.598-35.376s-31.571,5.863-35.376,21.597c-0.917,3.791-0.992,7.589-0.447,11.222
			c-103.995-51.286-202.438-48.963-202.438-48.963c2.143-2.983,3.937-6.278,4.854-10.069c3.805-15.732-5.864-31.571-21.598-35.376
			c-15.732-3.806-31.573,5.863-35.377,21.597c-1.708,7.06-0.701,14.142,2.349,20.147c2.81,5.533,7.354,10.154,13.11,13.003
			c0,0-50.164,113.037-3.253,164.272c0,0-100.344,60.126,4.585,116.662C832.471,393.32,938.628,432.073,972.407,428.089z"/>
		<g>
			<g>
				<path fill="#558AA5" d="M827.5,214.438c-17.542-7.437-35.276-22.355-39.127-41.719c-4.133-20.779,11.116-38.137,23.367-52.749
					c14.7-17.532,24.647-38.62,31.924-60.171c6.007-17.791,10.529-36.658,12.262-55.403c0.541-5.856-8.583-5.804-9.119,0
					c-2.697,29.181-12.517,61.467-27.125,87.812c-5.98,10.786-13.428,20.02-21.4,29.353c-7.182,8.407-13.188,17.797-16.822,28.277
					c-5.169,14.909-2.69,30.946,6.062,43.933c8.333,12.364,21.637,22.715,35.375,28.541
					C828.246,224.579,832.898,216.727,827.5,214.438L827.5,214.438z"/>
			</g>
		</g>
		<circle fill="#70A3C1" cx="830.013" cy="392.267" r="12.376"/>
		<g>
			<line fill="#70A3C1" x1="829.264" y1="399.357" x2="803.917" y2="474.203"/>
			<g>
				<path fill="#70A3C1" d="M824.868,398.146c-8.449,24.948-16.898,49.897-25.348,74.846c-1.892,5.585,6.917,7.962,8.793,2.424
					c8.449-24.948,16.898-49.897,25.348-74.846C835.552,394.984,826.743,392.607,824.868,398.146L824.868,398.146z"/>
			</g>
		</g>
	</g>
</g>
</svg>
