<?xml version="1.0" encoding="utf-8"?>
<!-- Generator: Adobe Illustrator 16.0.0, SVG Export Plug-In . SVG Version: 6.00 Build 0)  -->
<!DOCTYPE svg PUBLIC "-//W3C//DTD SVG 1.1//EN" "http://www.w3.org/Graphics/SVG/1.1/DTD/svg11.dtd">
<svg version="1.1" id="Layer_1" xmlns="http://www.w3.org/2000/svg" xmlns:xlink="http://www.w3.org/1999/xlink" x="0px" y="0px"
	 width="841.89px" height="595.28px" viewBox="0 0 841.89 595.28" enable-background="new 0 0 841.89 595.28" xml:space="preserve">
<g>
	<defs>
		<rect id="SVGID_11_" y="45.233" width="405.985" height="513.051"/>
	</defs>
	<clipPath id="SVGID_2_">
		<use xlink:href="#SVGID_11_"  overflow="visible"/>
	</clipPath>
	<g clip-path="url(#SVGID_2_)">
		<path fill="#70A3C1" d="M59.453,428.815c114.235-34.014,35.29-111.533,35.29-111.533c60.049-34.923,46.509-157.73,46.509-157.73
			c6.66-1.056,13.315-5.347,16.12-8.221c4.701-4.823,7.771-11.282,8.247-18.531c1.058-16.152-11.181-30.102-27.333-31.159
			c-16.15-1.057-30.102,11.179-31.158,27.332c-0.255,3.892,0.321,7.646,1.48,11.132C-2.628,107.37-99.223,126.503-99.223,126.503
			c1.601-3.305,2.805-6.859,3.061-10.75c1.056-16.152-11.181-30.102-27.333-31.16c-16.152-1.057-30.104,11.179-31.16,27.332
			c-0.475,7.248,1.729,14.054,5.762,19.448c3.716,4.971,8.983,8.746,15.142,10.567c0,0-30.082,119.954,24.905,162.406
			c0,0-88.576,76.41,24.479,114.157C-84.368,418.504,26.854,438.521,59.453,428.815z"/>
		<circle fill="#FFFFFF" cx="51.223" cy="231.977" r="26.705"/>
		<g>
			<g>
				<path fill="#558AA5" d="M31.051,202.054c9.712,3.546,17.776-1.504,27.467-1.81c2.546-0.08,4.602,1.26,6.732,2.517
					c4.509,2.66,8.677,5.937,12.754,9.198c1.947,1.557,4.731-1.189,2.764-2.764c-5.726-4.579-12.235-10.578-19.479-12.63
					c-3.682-1.043-8.419,0.259-11.999,1.156c-6.046,1.515-11.097,2.792-17.2,0.563C29.717,197.419,28.704,201.197,31.051,202.054
					L31.051,202.054z"/>
			</g>
		</g>
		<g>
			<path fill="#558AA5" d="M39.312,358.941c10.016-3.877-29.81-25.128-46.623-25.619c-18.16-0.528-33.947,4.97-41.192,13.331
				c0,0,17.297,33.407,44.963,31.844C7.453,377.873,22.681,365.383,39.312,358.941z"/>
			<g>
				<path fill="#558AA5" d="M48.396,374.484c8.682-3.861,11.315-13.83,9.856-22.355c-0.853-4.979-4.728-9.7-8.457-12.875
					c-9.262-7.883-20.114-12.935-31.244-17.584c-11.158-4.662-22.595-6.971-34.717-6.124c-16.085,1.122-33.848,6.063-45.066,18.38
					c-5.683,6.238-6.723,14.328-2.814,21.813c7.083,13.567,18.898,26.235,32.224,33.718c11.819,6.636,26.641,9.313,39.679,4.913
					c6.916-2.333,13.403-5.915,19.755-9.458c2.864-1.598,5.728-3.195,8.619-4.742c1.48-0.792,2.981-1.544,4.483-2.291
					c0.592-0.294,6.732-2.917,3.383-1.579c9.104-3.637,15.394-11.884,12.572-22.143c-2.385-8.666-13.017-16.217-22.143-12.572
					c-12.473,4.981-23.643,12.058-35.691,17.855c-1.865,0.843-1.654,0.768,0.632-0.225c-1.136,0.461-2.304,0.821-3.478,1.17
					c-1.372,0.408-4.972,0.596,0.47,0.112c-1.229,0.109-2.478,0.048-3.708,0.003c-4.247-0.156,4.161,0.789,0.049,0.039
					c-1.148-0.21-2.273-0.535-3.393-0.859c-1.051-0.303-4.787-1.842-0.003,0.202c-1.046-0.446-2.052-0.98-3.057-1.511
					c-1.655-0.875-3.22-1.913-4.757-2.978c-3.27-2.263,3.197,2.617,0.15,0.122c-0.835-0.684-1.633-1.413-2.43-2.14
					c-2.933-2.675-5.562-5.677-8.019-8.787c3.923,4.965,0.313,0.284-0.535-0.953c-0.71-1.036-1.386-2.097-2.046-3.165
					c-0.586-0.949-1.157-1.913-1.674-2.902c-0.938,7.271-1.876,14.542-2.814,21.813c0.495-0.568,1.016-1.113,1.562-1.633
					c2.878-2.871-3.353,2.26,0.118-0.2c1.807-1.28,3.798-2.285,5.789-3.239c-2.141,0.87-2.244,0.933-0.314,0.188
					c1.416-0.532,2.874-0.948,4.326-1.366c1.523-0.438,3.078-0.762,4.629-1.087c0.462-0.098,5.77-0.797,1.793-0.34
					c2.905-0.334,5.834-0.403,8.755-0.414c1.546-0.006,7.894,0.892,1.075-0.18c3.643,0.572,7.205,1.687,10.688,2.868
					c1.778,0.603,3.529,1.281,5.274,1.974c1.79,0.733,1.418,0.572-1.116-0.484c1.059,0.453,2.105,0.934,3.151,1.415
					c3.655,1.679,7.216,3.562,10.682,5.601c1.379,0.812,2.722,1.681,4.048,2.575c1.095,0.738,3.791,2.846-0.936-0.828
					c0.575,0.447,1.121,0.93,1.663,1.416c0.314,0.289,0.619,0.589,0.913,0.898c1.923,1.958-2.873-4.079-1.509-1.983
					c-3.561-5.468-0.934-18.341,5.411-21.162c-8.969,3.988-10.999,16.875-6.458,24.628C29.13,377.179,39.431,378.471,48.396,374.484
					z"/>
			</g>
		</g>
		<g>
			<g>
				<path fill="#558AA5" d="M110.183,284.214c20.812-0.019,40.795-12.063,43.665-33.773c1.379-10.426-1.786-20.98-5.142-30.709
					c-4.558-13.214-9.418-26.329-14.72-39.263c-6.413-15.646-13.386-31.314-22.615-45.536c-5.235-8.066-11.359-14.524-18.541-20.774
					c-0.595-0.518-2.659-2.899-1.67-1.571c-0.336-0.451-0.62-0.937-0.874-1.437c-0.5-0.989,0.347,0.902,0.063,0.178
					c-0.13-0.332-0.234-0.674-0.335-1.016c-0.709-2.435-0.424-1.269-0.563-3.955c-0.129-2.506-0.042-5.022,0.069-7.527
					c0.261-5.881-8.858-5.856-9.119,0c-0.252,5.676-0.544,11.881,2.098,17.093c1.793,3.538,5.339,5.815,8.231,8.359
					c6.067,5.336,10.415,11.398,14.643,18.21c9.734,15.687,16.979,32.942,23.698,50.081c3.364,8.583,6.517,17.247,9.573,25.943
					c2.601,7.397,5.327,14.83,6.144,22.679c0.932,8.955-0.978,17.794-7.561,24.208c-7.022,6.841-18.325,9.684-27.046,9.691
					C104.303,275.1,104.302,284.219,110.183,284.214L110.183,284.214z"/>
			</g>
		</g>
		<path fill="#558AA5" d="M98.428,102.024c-1.762,11.318-12.371,19.069-23.69,17.305c-11.322-1.764-19.072-12.374-17.309-23.694
			c1.766-11.319,12.376-19.068,23.695-17.305C92.448,80.095,100.193,90.704,98.428,102.024z"/>
		<circle fill="#70A3C1" cx="9.267" cy="434.003" r="12.375"/>
		<g>
			<line fill="#70A3C1" x1="9.267" y1="434.001" x2="11.139" y2="513"/>
			<g>
				<path fill="#70A3C1" d="M4.707,434.001C5.331,460.334,5.955,486.667,6.579,513c0.14,5.87,9.258,5.884,9.119,0
					c-0.624-26.333-1.248-52.666-1.872-78.999C13.687,428.131,4.567,428.117,4.707,434.001L4.707,434.001z"/>
			</g>
		</g>
		<path d="M61.948,243.424c-0.479,7.26-6.747,12.759-14.005,12.284c-7.261-0.475-12.759-6.745-12.284-14.004
			c0.475-7.259,6.746-12.759,14.005-12.283C56.922,229.895,62.422,236.166,61.948,243.424z"/>
		<circle fill="#FFFFFF" cx="46.196" cy="253.715" r="1.873"/>
	</g>
</g>
</svg>
