<?xml version="1.0" encoding="utf-8"?>
<!-- Generator: Adobe Illustrator 16.0.0, SVG Export Plug-In . SVG Version: 6.00 Build 0)  -->
<!DOCTYPE svg PUBLIC "-//W3C//DTD SVG 1.1//EN" "http://www.w3.org/Graphics/SVG/1.1/DTD/svg11.dtd">
<svg version="1.1" id="Layer_1" xmlns="http://www.w3.org/2000/svg" xmlns:xlink="http://www.w3.org/1999/xlink" x="0px" y="0px"
	 width="841.891px" height="595.28px" viewBox="0 0 841.891 595.28" enable-background="new 0 0 841.891 595.28"
	 xml:space="preserve">
<path fill="#70A3C1" d="M496.693,429.14c111.77-41.398,27.932-113.598,27.932-113.598c57.639-38.77,36.107-160.432,36.107-160.432
	c6.578-1.487,12.941-6.203,15.551-9.255c4.375-5.12,7.018-11.767,7.018-19.03c0-16.187-13.121-29.309-29.309-29.309
	c-16.186,0-29.307,13.122-29.307,29.309c0,3.9,0.82,7.609,2.203,11.012c-113.137-25.4-208.275,0-208.275,0
	c1.383-3.402,2.352-7.027,2.352-10.928c0-16.188-13.121-29.309-29.309-29.309c-16.186,0-29.309,13.121-29.309,29.309
	c0,7.264,2.645,13.91,7.02,19.03c4.031,4.718,9.535,8.14,15.799,9.556c0,0-22.184,121.663,35.457,160.434
	c0,0-83.396,82.029,31.883,112.314C352.506,428.243,464.797,440.954,496.693,429.14z"/>
<path fill="none" stroke="#5D6733" stroke-width="0.6513" stroke-miterlimit="10" d="M583.301,488.167"/>
<circle fill="#FFFFFF" cx="363.806" cy="233.261" r="26.704"/>
<circle fill="#FFFFFF" cx="475.627" cy="233.261" r="26.705"/>
<circle cx="345.254" cy="227.358" r="11.447"/>
<circle cx="457.074" cy="227.358" r="11.447"/>
<circle fill="#FFFFFF" cx="351.815" cy="221.937" r="1.628"/>
<circle fill="#FFFFFF" cx="462.216" cy="220.96" r="1.628"/>
<g>
	<g>
		<path fill="#558AA5" d="M455.625,203.792c8.02-14.869,35.752-16.103,45.213-1.864c1.389,2.088,4.774,0.134,3.375-1.973
			c-11.023-16.588-42.42-15.827-51.962,1.864C451.055,204.036,454.429,206.01,455.625,203.792L455.625,203.792z"/>
	</g>
</g>
<g>
	<g>
		<path fill="#558AA5" d="M340.742,201.967c8.02-14.869,35.752-16.103,45.214-1.864c1.388,2.088,4.774,0.134,3.374-1.973
			c-11.023-16.587-42.421-15.826-51.962,1.864C336.172,202.212,339.546,204.185,340.742,201.967L340.742,201.967z"/>
	</g>
</g>
<g>
	<g>
		<path fill="#558AA5" d="M393.148,363.751c0.693-0.871,1.41-1.688,2.179-2.492c0.234-0.245,3.114-2.685,0.878-0.977
			c2.465-1.883,5.248-3.324,8.046-4.631c-2.073,0.969,2.399-0.824,2.227-0.765c1.457-0.507,2.949-0.907,4.437-1.31
			c3.607-0.976,6.133-1.369,9.443-1.665c7.1-0.635,13.794-0.204,20.012,1.197c1.49,0.336,2.954,0.779,4.415,1.225
			c0.931,0.297,1.854,0.618,2.769,0.965c-1.025-0.476-0.813-0.378,0.639,0.296c1.199,0.558,2.344,1.223,3.482,1.893
			c0.716,0.436,1.414,0.896,2.096,1.383c-1.127-0.893-1.113-0.848,0.039,0.131c5.515,4.861,13.645,5.446,19.092,0
			c4.955-4.955,5.523-14.223,0-19.092c-13.783-12.147-32.867-15.955-50.814-15.115c-16.774,0.786-37.072,6.105-48.029,19.865
			c-4.58,5.75-5.641,13.451,0,19.092C378.817,368.513,388.557,369.517,393.148,363.751L393.148,363.751z"/>
	</g>
</g>
<path fill="#FFFFFF" d="M382.305,340.323c0,0,8.105,11.074,14.166,8.033c2.756-1.381,3.664-5.428,5.699-15.198
	c0,0-12.158,2.606-19.865,6.296l-0.488,0.164L382.305,340.323z"/>
<g>
	<g>
		<path fill="#70A3C1" d="M539.947,281.64c17.078-1.354,43.668,1.747,50.07,20.619c3.033,8.943,0.21,18.91,0.433,28.111
			c0.216,8.913,2.022,17.814,6.054,25.797c3.303,6.539,9.273,13.256,16.48,15.566c5.615,1.802,8-7.004,2.424-8.793
			c-1.275-0.408,0.898,0.465-0.5-0.222c-1.239-0.608-2.801-1.656-3.387-2.13c-4.41-3.562-7.32-8.531-9.174-13.827
			c-3.427-9.789-3.211-20.502-2.156-30.677c0.822-7.906-0.334-15.834-4.28-22.802c-10.286-18.156-36.95-22.269-55.964-20.763
			C534.127,272.981,534.082,282.104,539.947,281.64L539.947,281.64z"/>
	</g>
</g>
<circle fill="#70A3C1" cx="626.505" cy="370.979" r="12.243"/>
<circle fill="#70A3C1" cx="235.6" cy="402.269" r="12.242"/>
<g>
	<g>
		<path fill="#70A3C1" d="M302.887,266.454c-18.41,3.381-36.547,14.618-48.926,28.338c-12.248,13.574-18.854,30.623-21.146,48.6
			c-1.878,14.729-0.717,30.347-0.756,45.181c-0.006,2.298-0.012,4.597-0.018,6.894c-0.016,5.881,9.104,5.88,9.118,0
			c0.079-29.827-3.618-61.876,14.146-87.779c11.185-16.309,30.395-28.492,49.798-32.399c0.068-0.015,0.137-0.027,0.207-0.04
			C311.088,274.187,308.634,265.399,302.887,266.454L302.887,266.454z"/>
	</g>
</g>
<circle fill="#70A3C1" cx="352.082" cy="426.886" r="12.375"/>
<circle fill="#70A3C1" cx="478.232" cy="432.966" r="12.375"/>
<g>
	<line fill="#70A3C1" x1="352.082" y1="432.966" x2="352.082" y2="511.987"/>
	<g>
		<path fill="#70A3C1" d="M347.523,432.966c0,26.341,0,52.682,0,79.021c0,5.881,9.117,5.881,9.117,0c0-26.34,0-52.681,0-79.021
			C356.641,427.086,347.523,427.086,347.523,432.966L347.523,432.966z"/>
	</g>
</g>
<g>
	<line fill="#70A3C1" x1="478.232" y1="432.966" x2="478.232" y2="511.987"/>
	<g>
		<path fill="#70A3C1" d="M473.674,432.966c0,26.341,0,52.682,0,79.021c0,5.881,9.117,5.881,9.117,0c0-26.34,0-52.681,0-79.021
			C482.791,427.086,473.674,427.086,473.674,432.966L473.674,432.966z"/>
	</g>
</g>
<ellipse fill="#70A3C1" cx="338.141" cy="514.917" rx="17.197" ry="2.932"/>
<ellipse fill="#70A3C1" cx="491.259" cy="514.267" rx="17.196" ry="2.932"/>
</svg>
