<?xml version="1.0" encoding="utf-8"?>
<!-- Generator: Adobe Illustrator 16.0.0, SVG Export Plug-In . SVG Version: 6.00 Build 0)  -->
<!DOCTYPE svg PUBLIC "-//W3C//DTD SVG 1.1//EN" "http://www.w3.org/Graphics/SVG/1.1/DTD/svg11.dtd">
<svg version="1.1" id="Layer_1" xmlns="http://www.w3.org/2000/svg" xmlns:xlink="http://www.w3.org/1999/xlink" x="0px" y="0px"
	 width="841.89px" height="595.28px" viewBox="0 0 841.89 595.28" enable-background="new 0 0 841.89 595.28" xml:space="preserve">
<path fill="#689FBB" d="M485.477,419.097c111.77-41.399,27.931-113.598,27.931-113.598c57.64-38.77,36.107-160.432,36.107-160.432
	c6.579-1.488,12.942-6.204,15.551-9.255c4.376-5.12,7.019-11.767,7.019-19.03c0-16.187-13.122-29.308-29.309-29.308
	c-16.186,0-29.308,13.122-29.308,29.308c0,3.9,0.82,7.609,2.204,11.012c-113.137-25.4-208.275,0-208.275,0
	c1.383-3.403,2.352-7.028,2.352-10.929c0-16.187-13.122-29.308-29.309-29.308c-16.186,0-29.309,13.122-29.309,29.308
	c0,7.264,2.644,13.91,7.02,19.031c4.031,4.717,9.535,8.14,15.799,9.556c0,0-22.184,121.663,35.456,160.434
	c0,0-83.396,82.029,31.883,112.314C341.289,418.201,453.581,430.912,485.477,419.097z"/>
<path fill="none" stroke="#556337" stroke-width="0.6513" stroke-miterlimit="10" d="M572.084,478.125"/>
<circle fill="#FFFFFF" cx="352.589" cy="223.218" r="26.705"/>
<circle fill="#FFFFFF" cx="464.41" cy="223.218" r="26.705"/>
<circle cx="364.037" cy="227.316" r="11.447"/>
<circle cx="475.857" cy="227.316" r="11.447"/>
<circle fill="#FFFFFF" cx="370.599" cy="221.894" r="1.628"/>
<circle fill="#FFFFFF" cx="480.999" cy="220.917" r="1.628"/>
<g>
	<g>
		<path fill="#5388A0" d="M444.409,193.749c3.338-5.89,15.301-6.765,21.114-7.272c6.899-0.603,19.597-1.24,24.099,5.409
			c1.404,2.074,4.792,0.121,3.375-1.973c-5.356-7.91-17.941-7.897-26.379-7.423c-7.628,0.429-21.276,1.686-25.584,9.287
			C439.79,193.972,443.166,195.94,444.409,193.749L444.409,193.749z"/>
	</g>
</g>
<g>
	<g>
		<path fill="#5388A0" d="M329.526,191.924c3.338-5.891,15.301-6.765,21.114-7.272c6.899-0.603,19.597-1.24,24.099,5.409
			c1.404,2.074,4.792,0.121,3.375-1.973c-5.356-7.91-17.941-7.897-26.379-7.423c-7.628,0.429-21.276,1.686-25.584,9.287
			C324.907,192.147,328.284,194.116,329.526,191.924L329.526,191.924z"/>
	</g>
</g>
<g>
	<g>
		<path fill="#5388A0" d="M381.93,353.708c0.693-0.871,1.411-1.687,2.18-2.492c0.234-0.245,3.114-2.684,0.879-0.977
			c2.464-1.882,5.247-3.323,8.045-4.63c-2.074,0.969,2.399-0.825,2.226-0.765c1.457-0.507,2.949-0.908,4.438-1.31
			c3.607-0.975,6.132-1.369,9.441-1.665c7.102-0.635,13.795-0.204,20.013,1.197c1.491,0.336,2.954,0.779,4.415,1.225
			c0.932,0.297,1.854,0.619,2.769,0.965c-1.025-0.476-0.812-0.377,0.638,0.296c1.2,0.557,2.344,1.223,3.484,1.892
			c0.715,0.436,1.413,0.896,2.094,1.383c-1.126-0.892-1.113-0.848,0.039,0.132c5.516,4.861,13.646,5.446,19.092,0
			c4.956-4.956,5.523-14.224,0-19.092c-13.783-12.148-32.867-15.956-50.813-15.115c-16.775,0.786-37.072,6.105-48.03,19.864
			c-4.58,5.75-5.64,13.453,0,19.092C367.6,358.469,377.338,359.473,381.93,353.708L381.93,353.708z"/>
	</g>
</g>
<path fill="#FFFFFF" d="M377.941,327.417c0,0,8.104,11.074,14.166,8.033c2.755-1.381,3.664-5.428,5.699-15.198
	c0,0-12.158,2.606-19.865,6.296l-0.489,0.164L377.941,327.417z"/>
<g>
	<g>
		<path fill="#5388A0" d="M537.794,269.338c6.381,8.77,8.328,21.459,9.294,31.889c0.565,6.097,0.568,12.234,0.317,18.347
			c-0.237,5.768-1.349,11.535-1.095,17.312c0.255,5.827,2.496,11.642,8.25,13.905c10.714,4.213,24.355-6.299,32.353-12.174
			c7.384-5.424,14.49-11.361,21.087-17.726c4.238-4.089-2.217-10.53-6.447-6.448c-5.646,5.447-11.67,10.578-17.919,15.313
			c-4.916,3.725-10.057,7.215-15.565,10.006c-2.233,1.132-4.559,2.004-7.006,2.545c-1.528,0.338-3.016,0.171-3.793-0.262
			c-0.596-0.332-1.25-1.689-1.64-3.437c-0.852-3.823,0.049-8.168,0.412-11.981c1.087-11.422,0.785-22.899-0.917-34.24
			c-1.373-9.143-3.881-19.988-9.458-27.651C542.245,260.032,534.328,264.574,537.794,269.338L537.794,269.338z"/>
	</g>
</g>
<circle fill="#5388A0" stroke="#5388A0" stroke-miterlimit="10" cx="609.955" cy="315.873" r="12.243"/>
<circle fill="#5388A0" cx="206.716" cy="337.225" r="12.243"/>
<g>
	<g>
		<path fill="#5388A0" d="M274.322,260.808c1.129,18.676,1.088,37.604-0.539,56.241c-0.907,10.397-2.037,22.544-7.269,31.566
			c-0.49,0.846-0.949,1.472-1.14,1.701c-0.263,0.316-1.822,1.738-1.156,1.237c-1.465,1.104-1.495,1.02-2.973,0.969
			c-0.592-0.02-2.308-0.698-3.716-1.558c-2.384-1.456-4.367-3.534-6.252-5.565c-3.048-3.286-5.607-5.969-9.897-7.644
			c-4.939-1.929-10.279-2.554-15.541-2.869c-7.094-0.424-14.303,0.056-21.335,1.05c-5.803,0.821-3.325,9.606,2.424,8.793
			c-1.996,0.282-0.026,0.01,0.497-0.052c1.244-0.146,2.492-0.261,3.74-0.368c4.155-0.358,8.327-0.48,12.495-0.391
			c4.25,0.091,8.446,0.547,12.551,1.674c3.973,1.09,5.962,3.311,8.619,6.254c6.344,7.027,16.454,13.777,25.225,6.632
			c7.542-6.143,9.611-18.184,11.093-27.186c2.151-13.058,2.76-26.359,2.928-39.574c0.131-10.296-0.014-20.63-0.635-30.912
			C283.087,254.966,273.967,254.932,274.322,260.808L274.322,260.808z"/>
	</g>
</g>
<circle fill="#689FBB" cx="340.865" cy="416.843" r="12.375"/>
<circle fill="#689FBB" cx="467.016" cy="422.923" r="12.375"/>
<g>
	<line fill="#689FBB" x1="340.865" y1="422.923" x2="340.865" y2="501.945"/>
	<g>
		<path fill="#689FBB" d="M336.305,422.923c0,26.34,0,52.681,0,79.021c0,5.88,9.119,5.88,9.119,0c0-26.34,0-52.681,0-79.021
			C345.424,417.043,336.305,417.043,336.305,422.923L336.305,422.923z"/>
	</g>
</g>
<g>
	<line fill="#689FBB" x1="467.015" y1="422.923" x2="467.015" y2="501.945"/>
	<g>
		<path fill="#689FBB" d="M462.456,422.923c0,26.34,0,52.681,0,79.021c0,5.88,9.119,5.88,9.119,0c0-26.34,0-52.681,0-79.021
			C471.575,417.043,462.456,417.043,462.456,422.923L462.456,422.923z"/>
	</g>
</g>
<ellipse fill="#689FBB" cx="326.924" cy="504.875" rx="17.197" ry="2.932"/>
<ellipse fill="#689FBB" cx="480.042" cy="504.224" rx="17.197" ry="2.932"/>
<ellipse fill="#689FBB" cx="328.034" cy="504.875" rx="17.197" ry="2.932"/>
<ellipse fill="#689FBB" cx="481.152" cy="504.225" rx="17.197" ry="2.932"/>
</svg>
