<?xml version="1.0" encoding="utf-8"?>
<!-- Generator: Adobe Illustrator 16.0.0, SVG Export Plug-In . SVG Version: 6.00 Build 0)  -->
<!DOCTYPE svg PUBLIC "-//W3C//DTD SVG 1.1//EN" "http://www.w3.org/Graphics/SVG/1.1/DTD/svg11.dtd">
<svg version="1.1" id="Layer_1" xmlns="http://www.w3.org/2000/svg" xmlns:xlink="http://www.w3.org/1999/xlink" x="0px" y="0px"
	 width="841.89px" height="595.28px" viewBox="0 0 841.89 595.28" enable-background="new 0 0 841.89 595.28" xml:space="preserve">
<g>
	<defs>
		<rect id="SVGID_9_" x="-1" y="45.233" width="388.995" height="513.051"/>
	</defs>
	<clipPath id="SVGID_2_">
		<use xlink:href="#SVGID_9_"  overflow="visible"/>
	</clipPath>
	<g clip-path="url(#SVGID_2_)">
		<path fill="#70A3C1" d="M79.225,428.795c117.85-17.839,50.421-105.56,50.421-105.56c64.313-26.255,67.938-149.754,67.938-149.754
			c6.742-0.122,13.929-3.448,17.104-5.905c5.325-4.125,9.262-10.095,10.738-17.208c3.288-15.85-6.897-31.362-22.746-34.65
			c-15.849-3.287-31.362,6.896-34.649,22.746c-0.792,3.819-0.742,7.617-0.078,11.23c-105.62-47.849-203.935-42.3-203.935-42.3
			c2.044-3.051,3.729-6.404,4.522-10.222c3.286-15.849-6.896-31.362-22.746-34.65c-15.85-3.288-31.363,6.895-34.65,22.746
			c-1.476,7.111-0.237,14.157,3.008,20.059c2.99,5.438,7.684,9.907,13.529,12.566c0,0-46.431,114.621,2.136,164.291
			c0,0-98.319,63.384,8.407,116.449C-61.775,398.633,45.594,433.884,79.225,428.795z"/>
		<circle fill="#FFFFFF" cx="-11.112" cy="210.008" r="26.704"/>
		<path fill="#FFFFFF" d="M124.527,238.142c-2.995,14.44-17.129,23.72-31.571,20.724c-14.44-2.995-23.72-17.13-20.726-31.572
			c2.996-14.439,17.13-23.719,31.574-20.725C118.243,209.565,127.521,223.701,124.527,238.142z"/>
		<g>
			<g>
				<path fill="#558AA5" d="M82.342,200.179c9.656,5.117,18.887,0.614,29.014,2.352c1.997,0.342,4.141,2.507,5.601,3.711
					c3.901,3.221,7.432,6.901,10.9,10.572c1.734,1.835,4.493-0.934,2.764-2.764c-4.866-5.149-10.466-11.951-17.15-14.898
					c-3.306-1.457-7.564-1.061-11.048-0.747c-6.506,0.586-12.01,1.63-18.107-1.601C82.089,195.625,80.114,198.999,82.342,200.179
					L82.342,200.179z"/>
			</g>
		</g>
		<g>
			<g>
				<path fill="#558AA5" d="M-34.101,186.197c6.077-7.315,14.237-8.808,23.292-7.102c3.241,0.61,6.518,2.344,9.643,3.387
					c4.892,1.632,19.795,7.461,22.215-0.546c0.73-2.419-3.042-3.445-3.77-1.039c-1.368,4.529-21.402-3.549-24.41-4.651
					c-10.58-3.88-22.429-1.604-29.733,7.188C-38.462,185.357-35.713,188.138-34.101,186.197L-34.101,186.197z"/>
			</g>
		</g>
		<g>
			<path fill="#558AA5" d="M68.971,356.803c10.456-2.451-26.036-29.021-42.619-31.84c-17.911-3.042-34.309,0.213-42.643,7.488
				c0,0,12.495,35.484,40.11,37.773C34.794,371.132,51.607,360.874,68.971,356.803z"/>
			<g>
				<path fill="#558AA5" d="M73.756,374.16c9.478-2.719,13.877-9.812,15.064-19.146c0.834-6.557-3.997-12.975-7.895-17.598
					c-6.729-7.984-16.5-14.146-25.406-19.422c-11.602-6.875-23.053-10.74-36.476-11.937c-17.097-1.524-34.769,2.646-48.063,13.666
					c-4.555,3.774-6.59,12.003-4.629,17.513c5.103,14.338,13.859,28.776,25.939,38.194c11.971,9.332,25.545,14.378,40.842,11.981
					C47.188,385.211,59.958,377.553,73.756,374.16c9.525-2.343,15.118-12.885,12.572-22.143
					c-2.654-9.647-12.622-14.913-22.143-12.572c-12.234,3.009-23.494,8.763-35.579,12.192c-0.854,0.233-1.716,0.442-2.582,0.628
					c-4.275,0.976,4.086-0.269-0.01,0c-1.146,0.075-4.923-0.391,0.192,0.315c-1.166-0.161-2.311-0.445-3.45-0.729
					c-1.114-0.277-2.196-0.669-3.275-1.059c4.758,1.718,1.286,0.509,0.201-0.047c-1.306-0.668-7.256-4.919-2.8-1.445
					c-3.092-2.41-5.793-5.304-8.281-8.319c-2.41-2.92,2.537,3.416,0.35,0.413c-0.575-0.789-1.117-1.601-1.66-2.411
					c-1.01-1.508-1.938-3.068-2.843-4.642c-1.406-2.448-2.661-4.985-3.809-7.564c-0.936-2.104,2.165,5.355,0.72,1.67
					c-0.102-0.259-0.2-0.52-0.293-0.781c-1.543,5.838-3.086,11.676-4.629,17.513c-4.044,3.352,1.226-0.514,2.507-1.164
					c-4.242,2.155,2.268-0.656,3.573-1.012c0.977-0.249,1.959-0.471,2.947-0.664c5.026-1.06-3.787,0.295,1.516-0.244
					c2.825-0.287,5.672-0.287,8.506-0.231c1.188,0.037,2.373,0.103,3.558,0.194c5.819,0.385-3.382-0.672,2.522,0.263
					c1.344,0.212,2.655,0.593,3.954,0.987c1.308,0.397,6.579,2.575,1.073,0.228c1.974,0.842,3.894,1.806,5.799,2.79
					c3.385,1.749,6.652,3.721,9.858,5.775c1.589,1.018,3.144,2.089,4.687,3.175c0.893,0.628,1.768,1.279,2.642,1.932
					c-4.239-3.161-1.274-0.978-0.39-0.259c2.236,1.815,4.367,3.77,6.28,5.923c1.656,1.864-2.772-4.441-0.726-0.699
					c-4.333-7.919,0.633-20.199,9.441-22.727c-9.425,2.703-15.194,12.608-12.572,22.143
					C54.193,370.966,64.328,376.864,73.756,374.16z"/>
			</g>
		</g>
		<path fill="#FFFFFF" d="M-12.523,316.151c0,0,5.687,12.487,12.239,10.741c2.979-0.791,4.689-4.569,8.667-13.723
			c0,0-12.436,0.082-20.729,2.131l-0.513,0.06L-12.523,316.151z"/>
		<g>
			<g>
				<path fill="#558AA5" d="M151.366,292.509c17.052-2.681,34.046-5.797,50.977-9.152c25.656-5.084,52.558-9.908,76.789-20.08
					c6.036-2.534,15.526-6.297,15.894-14.049c0.171-3.596-2.665-6.389-5.457-8.148c-6.727-4.239-15.628-5.679-23.049-8.012
					c-23.043-7.242-46.112-14.885-68.282-24.524c-10.991-4.779-23.259-10.137-31.997-18.23c-1.241-1.149-2.494-2.607-2.849-3.107
					c-1.247-1.762-1.157-1.756-1.489-2.939c-0.421-1.502-0.065,0.439-0.13-0.69c-0.069-1.223-0.017-0.699-0.03-0.62
					c0.332-1.936-0.098-0.677,0.997-2.379c0.595-0.927-0.44,0.42,0.567-0.721c0.427-0.483,0.895-0.929,1.369-1.364
					c0.791-0.726,0.902-0.778,0.971-0.83c0.708-0.532,1.447-1.02,2.194-1.495c2.865-1.824,6.802-3.676,9.324-4.722
					c17.999-7.463,37.287-11.531,55.809-17.456c8.261-2.643,16.639-5.543,24.217-9.817c5.287-2.981,11.147-7.429,12.433-13.745
					c1.168-5.74-7.621-8.184-8.793-2.424c-0.434,2.128-0.862,2.666-2.959,4.629c-1.389,1.3-1.043,0.984-2.845,2.179
					c-1.519,1.008-3.118,1.891-4.735,2.726c-7.41,3.827-15.818,6.477-24.219,9.063c-18.537,5.704-37.784,9.889-55.539,17.856
					c-5.985,2.686-12.455,6.227-15.969,12c-3.711,6.098-1.367,12.706,2.828,17.792c6.805,8.25,17.773,13.478,27.176,18.024
					c19.14,9.254,39.355,16.349,59.485,23.094c12.428,4.164,25.187,7.529,37.511,11.966c1.148,0.414,2.572,1.056,4.001,2.011
					c0.116,0.077-0.095-0.177,0.672,0.669c-0.318-0.352-0.263-0.365-0.222-0.188c-0.105-0.458,0.042-1.329-0.132-0.767
					c0.548-1.774-0.814,0.93,0.183-0.325c-1.283,1.615-1.381,1.437-2.698,2.292c-3.508,2.278-7.255,3.773-11.063,5.209
					c-25.259,9.52-52.51,14.5-78.928,19.613c-14.765,2.857-29.577,5.535-44.435,7.871
					C143.146,284.627,145.615,293.413,151.366,292.509L151.366,292.509z"/>
			</g>
		</g>
		<path fill="#558AA5" d="M285.084,135.222c-3.314,10.964-14.896,17.168-25.862,13.851c-10.968-3.317-17.171-14.9-13.854-25.866
			c3.319-10.964,14.901-17.167,25.867-13.851C282.204,112.674,288.402,124.256,285.084,135.222z"/>
		<circle fill="#70A3C1" cx="28.804" cy="426.971" r="12.375"/>
		<g>
			<line fill="#70A3C1" x1="28.804" y1="426.969" x2="19.699" y2="505.464"/>
			<g>
				<path fill="#70A3C1" d="M24.244,426.969c-3.035,26.165-6.069,52.33-9.104,78.495c-0.677,5.835,8.45,5.77,9.119,0
					c3.034-26.165,6.069-52.33,9.104-78.495C34.04,421.134,24.914,421.199,24.244,426.969L24.244,426.969z"/>
			</g>
		</g>
		<path d="M107.412,245.542c-1.48,7.124-8.451,11.7-15.573,10.223c-7.124-1.477-11.7-8.449-10.223-15.573
			c1.477-7.123,8.451-11.7,15.573-10.221C104.312,231.446,108.889,238.419,107.412,245.542z"/>
		<circle fill="#FFFFFF" cx="90.385" cy="253.548" r="1.873"/>
		
			<ellipse transform="matrix(-0.9998 -0.0185 0.0185 -0.9998 57.8109 1017.3593)" fill="#70A3C1" cx="33.622" cy="508.412" rx="17.197" ry="2.932"/>
	</g>
</g>
<g>
	<defs>
		<rect id="SVGID_11_" x="861.89" y="45.233" width="405.985" height="513.051"/>
	</defs>
	<clipPath id="SVGID_4_">
		<use xlink:href="#SVGID_11_"  overflow="visible"/>
	</clipPath>
	<g clip-path="url(#SVGID_4_)">
		<path fill="#70A3C1" d="M921.343,428.815c114.235-34.014,35.29-111.533,35.29-111.533c60.049-34.923,46.509-157.73,46.509-157.73
			c6.66-1.056,13.315-5.347,16.12-8.221c4.701-4.823,7.771-11.282,8.247-18.531c1.058-16.152-11.181-30.102-27.333-31.159
			c-16.15-1.057-30.102,11.179-31.158,27.332c-0.255,3.892,0.321,7.646,1.48,11.132c-111.236-32.734-207.831-13.602-207.831-13.602
			c1.601-3.305,2.805-6.859,3.061-10.75c1.056-16.152-11.181-30.102-27.333-31.16c-16.152-1.057-30.104,11.179-31.16,27.332
			c-0.475,7.248,1.729,14.054,5.762,19.448c3.716,4.971,8.983,8.746,15.142,10.567c0,0-30.082,119.954,24.905,162.406
			c0,0-88.576,76.41,24.479,114.157C777.521,418.504,888.743,438.521,921.343,428.815z"/>
		<circle fill="#FFFFFF" cx="801.53" cy="224.675" r="26.704"/>
		<g>
			<g>
				<path fill="#558AA5" d="M775.588,204.093c4.666-7.564,12.029-10.229,20.652-10.133c3.402,0.039,7.453,1.355,11.056,2.021
					c4.854,0.897,20.884,4.746,22.136-3.302c0.383-2.464-3.383-3.523-3.77-1.039c-0.803,5.165-21.706-0.275-25.193-1.027
					c-11.037-2.377-22.309,1.868-28.256,11.507C770.886,204.272,774.268,206.233,775.588,204.093L775.588,204.093z"/>
			</g>
		</g>
		<g>
			<path fill="#558AA5" d="M901.201,358.941c10.016-3.877-29.81-25.128-46.623-25.619c-18.16-0.528-33.947,4.97-41.192,13.331
				c0,0,17.297,33.407,44.963,31.844C869.343,377.873,884.57,365.383,901.201,358.941z"/>
			<g>
				<path fill="#558AA5" d="M910.286,374.484c8.682-3.861,11.315-13.83,9.856-22.355c-0.853-4.979-4.728-9.7-8.457-12.875
					c-9.262-7.883-20.114-12.935-31.244-17.584c-11.158-4.662-22.595-6.971-34.717-6.124c-16.085,1.122-33.848,6.063-45.066,18.38
					c-5.683,6.238-6.723,14.328-2.814,21.813c7.083,13.567,18.898,26.235,32.224,33.718c11.819,6.636,26.641,9.313,39.679,4.913
					c6.916-2.333,13.403-5.915,19.755-9.458c2.864-1.598,5.728-3.195,8.619-4.742c1.48-0.792,2.981-1.544,4.483-2.291
					c0.592-0.294,6.732-2.917,3.383-1.579c9.104-3.637,15.394-11.884,12.572-22.143c-2.385-8.666-13.017-16.217-22.143-12.572
					c-12.473,4.981-23.643,12.058-35.691,17.855c-1.865,0.843-1.654,0.768,0.632-0.225c-1.136,0.461-2.304,0.821-3.478,1.17
					c-1.372,0.408-4.972,0.596,0.47,0.112c-1.229,0.109-2.478,0.048-3.708,0.003c-4.247-0.156,4.161,0.789,0.049,0.039
					c-1.148-0.21-2.273-0.535-3.393-0.859c-1.051-0.303-4.787-1.842-0.003,0.202c-1.046-0.446-2.052-0.98-3.057-1.511
					c-1.655-0.875-3.22-1.913-4.757-2.978c-3.27-2.263,3.197,2.617,0.15,0.122c-0.835-0.684-1.633-1.413-2.43-2.14
					c-2.933-2.675-5.562-5.677-8.019-8.787c3.923,4.965,0.313,0.284-0.535-0.953c-0.71-1.036-1.386-2.097-2.046-3.165
					c-0.586-0.949-1.157-1.913-1.674-2.902c-0.938,7.271-1.876,14.542-2.814,21.813c0.495-0.568,1.016-1.113,1.562-1.633
					c2.878-2.871-3.353,2.26,0.118-0.2c1.807-1.28,3.798-2.285,5.789-3.239c-2.141,0.87-2.244,0.933-0.314,0.188
					c1.416-0.532,2.874-0.948,4.326-1.366c1.523-0.438,3.078-0.762,4.629-1.087c0.462-0.098,5.77-0.797,1.793-0.34
					c2.905-0.334,5.834-0.403,8.755-0.414c1.546-0.006,7.894,0.892,1.075-0.18c3.643,0.572,7.205,1.687,10.688,2.868
					c1.778,0.603,3.529,1.281,5.274,1.974c1.79,0.733,1.418,0.572-1.116-0.484c1.059,0.453,2.105,0.934,3.151,1.415
					c3.655,1.679,7.216,3.562,10.682,5.601c1.379,0.812,2.722,1.681,4.048,2.575c1.095,0.738,3.791,2.846-0.936-0.828
					c0.575,0.447,1.121,0.93,1.663,1.416c0.314,0.289,0.619,0.589,0.913,0.898c1.923,1.958-2.873-4.079-1.509-1.983
					c-3.561-5.468-0.934-18.341,5.411-21.162c-8.969,3.988-10.999,16.875-6.458,24.628
					C891.02,377.179,901.32,378.471,910.286,374.484z"/>
			</g>
		</g>
		<path fill="#FFFFFF" d="M814.856,329.988c0,0,7.363,11.578,13.61,8.939c2.842-1.196,4.011-5.176,6.68-14.792
			c0,0-12.304,1.806-20.232,4.985l-0.499,0.13L814.856,329.988z"/>
		<path d="M811.794,236.15c-0.472,7.227-6.718,12.702-13.942,12.229c-7.227-0.474-12.703-6.715-12.23-13.942
			c0.472-7.228,6.716-12.703,13.944-12.229C806.789,222.681,812.267,228.923,811.794,236.15z"/>
		<path fill="#FFFFFF" d="M797.976,246.518c-0.067,1.029-0.958,1.808-1.989,1.741c-1.024-0.067-1.804-0.955-1.736-1.984
			c0.066-1.028,0.955-1.807,1.982-1.739C797.262,244.602,798.041,245.489,797.976,246.518z"/>
	</g>
</g>
</svg>
