<?xml version="1.0" encoding="utf-8"?>
<!-- Generator: Adobe Illustrator 16.0.0, SVG Export Plug-In . SVG Version: 6.00 Build 0)  -->
<!DOCTYPE svg PUBLIC "-//W3C//DTD SVG 1.1//EN" "http://www.w3.org/Graphics/SVG/1.1/DTD/svg11.dtd">
<svg version="1.1" id="Layer_1" xmlns="http://www.w3.org/2000/svg" xmlns:xlink="http://www.w3.org/1999/xlink" x="0px" y="0px"
	 width="841.891px" height="595.28px" viewBox="0 0 841.891 595.28" enable-background="new 0 0 841.891 595.28"
	 xml:space="preserve">
<path fill="#70A3C1" d="M496.693,429.141c111.77-41.4,27.932-113.598,27.932-113.598c57.639-38.771,36.107-160.432,36.107-160.432
	c6.578-1.488,12.941-6.204,15.551-9.255c4.375-5.12,7.018-11.767,7.018-19.03c0-16.187-13.121-29.308-29.309-29.308
	c-16.186,0-29.307,13.122-29.307,29.308c0,3.9,0.82,7.609,2.203,11.012c-113.137-25.4-208.275,0-208.275,0
	c1.383-3.403,2.352-7.028,2.352-10.929c0-16.187-13.121-29.308-29.309-29.308c-16.186,0-29.309,13.122-29.309,29.308
	c0,7.264,2.645,13.91,7.02,19.031c4.031,4.717,9.535,8.14,15.799,9.556c0,0-22.184,121.663,35.457,160.434
	c0,0-83.396,82.029,31.883,112.314C352.506,428.244,464.797,440.955,496.693,429.141z"/>
<path fill="none" stroke="#5D6733" stroke-width="0.6513" stroke-miterlimit="10" d="M583.301,488.168"/>
<circle fill="#FFFFFF" cx="363.806" cy="233.261" r="26.704"/>
<circle fill="#FFFFFF" cx="475.627" cy="233.261" r="26.705"/>
<circle cx="363.164" cy="232.852" r="17.953"/>
<circle cx="475.665" cy="233.852" r="17.954"/>
<circle fill="#FFFFFF" cx="373.454" cy="224.348" r="2.554"/>
<circle fill="#FFFFFF" cx="483.729" cy="223.815" r="2.553"/>
<g>
	<g>
		<path fill="#558AA5" d="M455.625,203.792c8.02-14.869,35.752-16.102,45.214-1.864c1.388,2.088,4.773,0.133,3.374-1.973
			c-11.023-16.588-42.42-15.827-51.962,1.864C451.055,204.037,454.429,206.01,455.625,203.792L455.625,203.792z"/>
	</g>
</g>
<g>
	<g>
		<path fill="#558AA5" d="M340.742,201.967c8.02-14.869,35.752-16.102,45.214-1.864c1.388,2.088,4.773,0.133,3.374-1.973
			c-11.023-16.587-42.421-15.827-51.962,1.864C336.172,202.212,339.546,204.185,340.742,201.967L340.742,201.967z"/>
	</g>
</g>
<g>
	<g>
		<path fill="#558AA5" d="M402.693,373.297c1.615-2.027,7.797-7.064,0.326-1.357c2.464-1.883,5.247-3.324,8.045-4.631
			c-8.396,3.922,1.043-0.065,3.439-0.714c1.55-0.419,3.126-0.731,4.699-1.045c2.903-0.486,2.154-0.418-2.246,0.203
			c1.131-0.138,2.264-0.251,3.399-0.341c3.506-0.313,7.032-0.29,10.545-0.149c1.702,0.067,3.396,0.247,5.088,0.428
			c-8.644-0.922-1.156-0.002,0.791,0.437c1.491,0.336,2.954,0.779,4.415,1.225c0.932,0.298,1.854,0.619,2.768,0.966
			c-4.238-1.862-5.1-2.218-2.586-1.065c1.2,0.558,2.345,1.223,3.484,1.892c5.791,3.399-3.737-3.362-0.6-0.597
			c11.031,9.722,27.291,10.893,38.184,0c9.912-9.911,11.048-28.448,0-38.184c-16.516-14.555-38.645-20.086-60.359-19.068
			c-20.029,0.938-44.469,7.359-57.576,23.818c-4.668,5.862-7.908,11.291-7.908,19.092c0,7.133,2.868,14.051,7.908,19.092
			C374.033,382.82,393.512,384.828,402.693,373.297L402.693,373.297z"/>
	</g>
</g>
<path fill="#FFFFFF" d="M382.305,340.323c0,0,8.105,11.074,14.166,8.033c2.756-1.381,3.664-5.428,5.699-15.198
	c0,0-12.158,2.606-19.865,6.296l-0.488,0.164L382.305,340.323z"/>
<g>
	<g>
		<path fill="#70A3C1" d="M539.947,281.64c17.078-1.354,43.668,1.747,50.07,20.62c3.033,8.943,0.21,18.91,0.433,28.111
			c0.216,8.912,2.022,17.813,6.054,25.796c3.303,6.539,9.273,13.256,16.48,15.567c5.615,1.802,8-7.004,2.424-8.793
			c-1.275-0.409,0.899,0.465-0.5-0.223c-1.239-0.608-2.8-1.656-3.387-2.129c-4.41-3.563-7.32-8.533-9.174-13.828
			c-3.427-9.789-3.211-20.502-2.155-30.676c0.821-7.906-0.334-15.835-4.281-22.803c-10.286-18.156-36.95-22.269-55.964-20.763
			C534.127,272.982,534.082,282.104,539.947,281.64L539.947,281.64z"/>
	</g>
</g>
<circle fill="#70A3C1" cx="626.505" cy="370.979" r="12.243"/>
<circle fill="#70A3C1" cx="235.6" cy="402.268" r="12.242"/>
<g>
	<g>
		<path fill="#70A3C1" d="M302.887,266.454c-18.41,3.38-36.547,14.618-48.926,28.338c-12.248,13.574-18.854,30.624-21.146,48.601
			c-1.878,14.729-0.717,30.347-0.756,45.181c-0.006,2.298-0.012,4.596-0.018,6.894c-0.016,5.881,9.104,5.88,9.118,0
			c0.079-29.827-3.618-61.877,14.146-87.78c11.185-16.308,30.395-28.492,49.798-32.399c0.068-0.014,0.138-0.027,0.207-0.04
			C311.088,274.186,308.634,265.399,302.887,266.454L302.887,266.454z"/>
	</g>
</g>
<circle fill="#70A3C1" cx="352.082" cy="426.887" r="12.375"/>
<circle fill="#70A3C1" cx="478.232" cy="432.967" r="12.375"/>
<g>
	<line fill="#70A3C1" x1="352.082" y1="432.967" x2="352.082" y2="511.988"/>
	<g>
		<path fill="#70A3C1" d="M347.523,432.967c0,26.341,0,52.681,0,79.021c0,5.88,9.118,5.88,9.118,0c0-26.341,0-52.681,0-79.021
			C356.642,427.087,347.523,427.087,347.523,432.967L347.523,432.967z"/>
	</g>
</g>
<g>
	<line fill="#70A3C1" x1="478.232" y1="432.967" x2="478.232" y2="511.988"/>
	<g>
		<path fill="#70A3C1" d="M473.674,432.967c0,26.341,0,52.681,0,79.021c0,5.88,9.118,5.88,9.118,0c0-26.341,0-52.681,0-79.021
			C482.792,427.087,473.674,427.087,473.674,432.967L473.674,432.967z"/>
	</g>
</g>
<ellipse fill="#70A3C1" cx="338.141" cy="514.918" rx="17.197" ry="2.932"/>
<ellipse fill="#70A3C1" cx="491.259" cy="514.268" rx="17.196" ry="2.932"/>
</svg>
