<?xml version="1.0" encoding="utf-8"?>
<!-- Generator: Adobe Illustrator 16.0.0, SVG Export Plug-In . SVG Version: 6.00 Build 0)  -->
<!DOCTYPE svg PUBLIC "-//W3C//DTD SVG 1.1//EN" "http://www.w3.org/Graphics/SVG/1.1/DTD/svg11.dtd">
<svg version="1.1" id="Layer_1" xmlns="http://www.w3.org/2000/svg" xmlns:xlink="http://www.w3.org/1999/xlink" x="0px" y="0px"
	 width="841.89px" height="595.28px" viewBox="0 0 841.89 595.28" enable-background="new 0 0 841.89 595.28" xml:space="preserve">
<path fill="#70A3C1" d="M357.323,408.025c105.39-55.671,12.824-116.276,12.824-116.276c52.07-45.979,14.801-163.777,14.801-163.777
	c6.328-2.336,12.019-7.844,14.206-11.211c3.668-5.649,5.418-12.584,4.468-19.785c-2.118-16.047-16.845-27.339-32.892-25.22
	c-16.046,2.118-27.338,16.844-25.22,32.891c0.51,3.867,1.809,7.437,3.626,10.629c-115.488-10.375-206.484,27.257-206.484,27.257
	c0.925-3.555,1.412-7.276,0.901-11.143c-2.118-16.047-16.845-27.338-32.892-25.22c-16.046,2.118-27.339,16.844-25.221,32.892
	c0.951,7.201,4.441,13.445,9.45,17.949c4.614,4.149,10.519,6.822,16.914,7.406c0,0-6.071,123.519,56.147,154.414
	c0,0-71.943,92.238,46.307,107.176C214.257,426.007,327.247,423.913,357.323,408.025z"/>
<path fill="none" stroke="#5D6733" stroke-width="0.6513" stroke-miterlimit="10" d="M423.194,478.125"/>
<circle fill="#FFFFFF" cx="199.942" cy="231.222" r="26.705"/>
<circle fill="#FFFFFF" cx="310.802" cy="216.588" r="26.705"/>
<g>
	<g>
		<path fill="#558AA5" d="M284.794,191.117c9.562,1.513,15.885-3.559,24.514-6.449c7.983-2.673,17.164,3.604,23.948,7.12
			c2.234,1.158,4.211-2.214,1.973-3.374c-6.487-3.361-14.121-7.93-21.614-8.525c-3.553-0.282-7.554,1.716-10.705,3.157
			c-5.719,2.615-10.538,5.338-17.077,4.303C283.368,186.958,282.311,190.724,284.794,191.117L284.794,191.117z"/>
	</g>
</g>
<g>
	<g>
		<path fill="#558AA5" d="M170.516,215.986c2.894-7.808,9.118-11.868,17.021-13.634c3.96-0.885,8.22-0.34,12.247-0.386
			c5.042-0.059,21.646,0.611,21.276-7.714c-0.112-2.51-4.021-2.521-3.908,0c0.223,5.004-21.659,3.82-25.123,3.767
			c-11.292-0.175-21.374,6.384-25.281,16.928C165.87,217.315,169.648,218.327,170.516,215.986L170.516,215.986z"/>
	</g>
</g>
<g>
	<path fill="#558AA5" d="M323.918,343.435c9.065-5.76-34.144-18.822-50.729-16.02c-17.913,3.028-32.322,11.505-37.793,21.12
		c0,0,23.49,29.387,50.317,22.446C296.374,368.224,308.869,352.998,323.918,343.435z"/>
	<g>
		<path fill="#558AA5" d="M333.003,358.977c7.104-5.02,12.788-13.868,9.307-22.945c-2.531-6.602-6.708-11.095-12.867-14.528
			c-9.349-5.212-20.361-8.175-30.81-10.186c-13.327-2.564-25.405-2.941-38.601,0.612c-15.725,4.234-31.607,13.261-40.18,27.52
			c-4.5,7.484-2.284,15.483,2.814,21.813c10.218,12.685,25.713,23.191,41.498,27.139c13.157,3.291,27.282,1.602,38.72-5.824
			c5.654-3.671,10.809-8.203,15.932-12.571c2.426-2.068,4.857-4.13,7.325-6.149c4.146-3.393-2.801,2.039,1.501-1.186
			C329.38,361.369,331.183,360.16,333.003,358.977c8.21-5.335,11.593-15.86,6.458-24.627c-4.78-8.16-16.391-11.81-24.627-6.458
			c-5.83,3.788-11.295,8.127-16.641,12.564c-2.021,1.678-4.01,3.395-6.008,5.099c-1.147,0.978-2.3,1.947-3.457,2.913
			c-0.544,0.454-4.394,3.491-0.8,0.729c-1.698,1.305-3.471,2.496-5.298,3.61c-0.997,0.608-4.685,2.233,0.257,0.183
			c-1.061,0.44-2.185,0.688-3.297,0.952c-2.043,0.371-1.774,0.359,0.809-0.037c-1.296,0.144-2.604,0.135-3.906,0.127
			c-1.077-0.007-5.365-0.61-0.288,0.152c-1.244-0.187-2.466-0.495-3.684-0.799c-1.206-0.302-7.569-2.787-2.691-0.68
			c-2.21-0.955-4.319-2.133-6.387-3.36c-1.645-0.975-3.219-2.066-4.775-3.176c-3.226-2.302,3.219,2.589,0.232,0.191
			c-0.781-0.627-1.539-1.283-2.295-1.939c-3.028-2.621-5.964-5.488-8.481-8.613c0.938,7.271,1.876,14.542,2.814,21.813
			c0.361-0.633,0.751-1.249,1.169-1.846c-2.708,4.066-0.7,0.984,0.159,0.065c0.576-0.594,1.171-1.167,1.786-1.719
			c3.2-2.975-3.21,2.214,0.485-0.447c1.931-1.391,4.017-2.557,6.112-3.676c0.5-0.267,5.045-2.315,1.266-0.738
			c1.481-0.618,3.004-1.134,4.522-1.651c2.654-0.903,5.382-1.57,8.114-2.183c1.136-0.242,2.277-0.459,3.422-0.653
			c-6.06,1.09-3.152,0.409-1.598,0.309c3.604-0.232,7.252,0.12,10.828,0.547c-6.078-0.727,0.524,0.16,1.859,0.404
			c1.887,0.345,3.762,0.759,5.631,1.188c3.96,0.908,7.869,2.04,11.719,3.336c1.552,0.523,3.082,1.109,4.601,1.721
			c-5.841-2.353-0.466-0.092,0.895,0.667c0.391,0.224,0.776,0.459,1.153,0.706c2.392,1.513-3.772-3.162-1.854-1.43
			c-6.356-5.739-4.492-18.593,3.625-24.328c-7.996,5.65-11.739,15.611-6.458,24.627
			C313.013,360.435,324.976,364.649,333.003,358.977z"/>
	</g>
</g>
<path fill="#FFFFFF" d="M233.583,331.903c0,0,9.485,9.918,15.095,6.11c2.552-1.729,2.922-5.86,3.661-15.813
	c0,0-11.712,4.175-18.87,8.842l-0.463,0.227L233.583,331.903z"/>
<g>
	<g>
		<path fill="#70A3C1" d="M382.142,270.974c9.185-5.682,17.732-12.751,25.426-20.296c12.368-12.129,23.866-28.1,23.553-46.167
			c-0.134-7.699-3.82-13.714-5.428-20.585c-1.482-6.333-1.643-12.99-1.755-19.462c-0.307-17.722,1.256-35.5,3.068-53.111
			c1.749-17.006,3.901-34,6.61-50.882c0.922-5.75-7.863-8.218-8.793-2.424c-4.054,25.271-7.141,50.791-8.963,76.319
			c-1.135,15.895-2.019,32.166,0.298,47.995c0.939,6.417,4.113,11.891,5.427,18.168c1.765,8.426-1.247,17.177-5.272,24.476
			c-8.596,15.588-23.728,28.79-38.773,38.096C372.551,266.187,377.126,274.077,382.142,270.974L382.142,270.974z"/>
	</g>
</g>
<circle fill="#70A3C1" cx="429.219" cy="59.258" r="12.243"/>
<circle fill="#70A3C1" cx="67.595" cy="71.5" r="12.243"/>
<g>
	<g>
		<path fill="#70A3C1" d="M145.203,256.411c-0.407-0.152-1.865-0.77-0.381-0.139c-1.359-0.578-2.694-1.211-4.018-1.865
			c-4.419-2.184-8.65-4.74-12.716-7.523c-12.461-8.53-22.779-19.995-29.717-33.413c-4.477-8.658-7.196-18.301-8.34-27.962
			c-0.854-7.21,0.617-14.815-0.691-21.855c-2.101-11.307-4.202-22.613-6.303-33.92c-3.682-19.815-7.364-39.63-11.046-59.445
			c-1.073-5.776-9.861-3.323-8.793,2.424c4.52,24.321,9.039,48.642,13.558,72.963c1.04,5.595,2.08,11.19,3.119,16.786
			c0.83,4.464,0.449,7.643,0.433,12.308c-0.067,19.55,5.851,38.846,17.196,54.776c10.988,15.428,27.367,28.971,45.275,35.659
			C148.299,267.266,150.66,258.449,145.203,256.411L145.203,256.411z"/>
	</g>
</g>
<circle fill="#70A3C1" cx="204.326" cy="423.967" r="12.375"/>
<circle fill="#70A3C1" cx="301.896" cy="425.075" r="12.375"/>
<g>
	<line fill="#70A3C1" x1="205.891" y1="430.923" x2="205.891" y2="509.945"/>
	<g>
		<path fill="#70A3C1" d="M201.332,430.923c0,26.34,0,52.681,0,79.021c0,5.88,9.118,5.88,9.118,0c0-26.34,0-52.681,0-79.021
			C210.45,425.043,201.332,425.043,201.332,430.923L201.332,430.923z"/>
	</g>
</g>
<g>
	<line fill="#70A3C1" x1="301.896" y1="425.075" x2="315.907" y2="502.845"/>
	<g>
		<path fill="#70A3C1" d="M297.5,426.287c4.67,25.923,9.341,51.847,14.011,77.77c1.042,5.781,9.829,3.324,8.793-2.424
			c-4.67-25.923-9.341-51.847-14.011-77.77C305.251,418.082,296.464,420.539,297.5,426.287L297.5,426.287z"/>
	</g>
</g>
<ellipse fill="#70A3C1" cx="191.95" cy="512.875" rx="17.197" ry="2.932"/>
<ellipse transform="matrix(-0.9842 0.1773 -0.1773 -0.9842 742.2005 939.2263)" fill="#70A3C1" cx="329.132" cy="502.778" rx="17.197" ry="2.932"/>
<path d="M212.25,240.471c0.948,7.181-4.106,13.77-11.284,14.718c-7.182,0.948-13.771-4.104-14.719-11.285
	c-0.948-7.18,4.104-13.77,11.286-14.717C204.71,228.239,211.301,233.291,212.25,240.471z"/>
<circle cx="310.497" cy="227.444" r="13.171"/>
<circle fill="#FFFFFF" cx="198.871" cy="253.583" r="1.866"/>
<circle fill="#FFFFFF" cx="310.117" cy="238.89" r="1.874"/>
</svg>
