<?xml version="1.0" encoding="utf-8"?>
<!-- Generator: Adobe Illustrator 16.0.0, SVG Export Plug-In . SVG Version: 6.00 Build 0)  -->
<!DOCTYPE svg PUBLIC "-//W3C//DTD SVG 1.1//EN" "http://www.w3.org/Graphics/SVG/1.1/DTD/svg11.dtd">
<svg version="1.1" id="Layer_1" xmlns="http://www.w3.org/2000/svg" xmlns:xlink="http://www.w3.org/1999/xlink" x="0px" y="0px"
	 width="841.89px" height="595.28px" viewBox="0 0 841.89 595.28" enable-background="new 0 0 841.89 595.28" xml:space="preserve">
<path fill="#689FBB" d="M486.587,419.098c111.77-41.4,27.931-113.598,27.931-113.598c57.64-38.771,36.107-160.433,36.107-160.433
	c6.579-1.487,12.942-6.203,15.551-9.255c4.376-5.12,7.019-11.767,7.019-19.03c0-16.187-13.122-29.309-29.309-29.309
	c-16.186,0-29.308,13.122-29.308,29.309c0,3.9,0.82,7.609,2.204,11.012c-113.137-25.4-208.275,0-208.275,0
	c1.383-3.402,2.352-7.027,2.352-10.928c0-16.188-13.122-29.309-29.309-29.309c-16.186,0-29.309,13.121-29.309,29.309
	c0,7.264,2.644,13.91,7.02,19.03c4.031,4.718,9.535,8.14,15.799,9.556c0,0-22.184,121.663,35.456,160.435
	c0,0-83.396,82.029,31.883,112.314C342.398,418.201,454.69,430.912,486.587,419.098z"/>
<path fill="none" stroke="#556337" stroke-width="0.6513" stroke-miterlimit="10" d="M573.194,478.125"/>
<g>
	<path fill="#5388A0" d="M455.75,339.216c9.728-4.552-25.57,1.344-42.38,1.951c-18.155,0.658-34.224-9.746-40.906-0.93
		C372.464,340.237,400.06,365.272,455.75,339.216z"/>
</g>
<path fill="#FFFFFF" d="M377.974,340.062c0,0,2.735,13.445,9.513,13.217c3.079-0.104,5.596-3.399,11.528-11.426
	c0,0-12.134-2.713-20.679-2.582l-0.513-0.055L377.974,340.062z"/>
<g>
	<g>
		<path fill="#5388A0" d="M533.387,265.383c-1.426-1.825,0.352,0.525,0.683,1c1.11,1.588,2.146,3.227,3.153,4.882
			c3.408,5.598,6.284,11.527,8.66,17.632c3.354,8.616,5.656,17.708,6.734,26.89c1.27,10.797-0.433,21.261-0.486,32.028
			c-0.127,25.092,11.742,52.232,29.643,69.901c4.187,4.134,10.637-2.312,6.447-6.447c-18.73-18.491-29.112-46.751-26.475-72.789
			c2.766-27.311-4.825-57.663-21.912-79.544C536.218,254.305,529.813,260.807,533.387,265.383L533.387,265.383z"/>
	</g>
</g>
<circle fill="#5388A0" stroke="#5388A0" stroke-width="2.018" stroke-miterlimit="10" cx="578.79" cy="408.493" r="24.706"/>
<path fill="#5388A0" d="M271.233,392.587c0,13.374-10.843,24.212-24.213,24.212c-13.374,0-24.215-10.838-24.215-24.212
	c0-13.373,10.841-24.212,24.215-24.212C260.391,368.375,271.233,379.214,271.233,392.587z"/>
<g>
	<g>
		<path fill="#5388A0" d="M312.816,301.95c-7.031-3.575-14.457-6.558-21.961-8.966c-9.555-3.066-23.588-6.809-32.2,0.441
			c-4.351,3.664-5.386,9.549-4.838,14.945c1.076,10.612,6.816,20.09,9.153,30.431c3.202,14.163,0.551,29.716-10.822,39.469
			c-0.446,0.384-0.94,0.85-2.209,1.579c-5.095,2.929-0.504,10.809,4.604,7.873c7.969-4.581,13.476-13.313,16.415-21.756
			c3.148-9.039,2.799-18.906,1.094-28.186c-1.904-10.364-8.133-19.719-9.195-30.189c-0.212-2.09-0.048-4.548,0.759-6.063
			c0.71-1.332,1.832-1.962,3.474-2.461c4.405-1.34,9.854-0.272,14.454,0.789c9.025,2.082,17.684,5.563,25.927,9.596
			c0.249,0.122,0.497,0.245,0.745,0.37C313.443,312.481,318.06,304.615,312.816,301.95L312.816,301.95z"/>
	</g>
</g>
<circle fill="#689FBB" cx="341.975" cy="416.844" r="12.375"/>
<circle fill="#689FBB" cx="468.125" cy="422.924" r="12.375"/>
<g>
	<line fill="#689FBB" x1="341.975" y1="422.924" x2="341.975" y2="501.945"/>
	<g>
		<path fill="#689FBB" d="M337.415,422.924c0,26.341,0,52.681,0,79.021c0,5.881,9.119,5.881,9.119,0c0-26.341,0-52.681,0-79.021
			C346.534,417.043,337.415,417.043,337.415,422.924L337.415,422.924z"/>
	</g>
</g>
<g>
	<line fill="#689FBB" x1="468.125" y1="422.924" x2="468.125" y2="501.945"/>
	<g>
		<path fill="#689FBB" d="M463.565,422.924c0,26.341,0,52.681,0,79.021c0,5.881,9.119,5.881,9.119,0c0-26.341,0-52.681,0-79.021
			C472.685,417.043,463.565,417.043,463.565,422.924L463.565,422.924z"/>
	</g>
</g>
<ellipse fill="#689FBB" cx="328.034" cy="504.875" rx="17.197" ry="2.932"/>
<ellipse fill="#689FBB" cx="481.152" cy="504.225" rx="17.197" ry="2.932"/>
<g>
	<g>
		<path fill="#5388A0" d="M369.351,182.353c-17.561-1.378-35.323,0.968-52.91,1.034c-2.515,0.01-2.516,3.91,0,3.9
			c17.587-0.067,35.35-2.412,52.91-1.034C371.859,186.449,371.841,182.548,369.351,182.353L369.351,182.353z"/>
	</g>
</g>
<g>
	<g>
		<path fill="#5388A0" d="M452.708,190.123c6.817-3.861,16.832-2.973,24.244-2.624c8.032,0.378,16.247,0.588,24.268-0.212
			c2.478-0.248,2.502-4.15,0-3.9c-9.302,0.928-18.755,0.426-28.067,0.045c-6.949-0.283-16.092-0.256-22.413,3.324
			C448.552,187.994,450.517,191.364,452.708,190.123L452.708,190.123z"/>
	</g>
</g>
<path fill="#FFFFFF" d="M501.22,232.54c0,15.123-13.649,27.383-30.485,27.383c-16.838,0-30.487-12.26-30.487-27.383
	c0-15.12,13.649-27.381,30.487-27.381C487.57,205.159,501.22,217.42,501.22,232.54z"/>
<ellipse cx="470.733" cy="244.887" rx="13.597" ry="15.975"/>
<ellipse fill="#FFFFFF" cx="481.843" cy="239.848" rx="1.935" ry="2.272"/>
<path fill="#FFFFFF" d="M328.381,233.54c0,15.123,13.65,27.383,30.486,27.383c16.838,0,30.486-12.26,30.486-27.383
	c0-15.12-13.648-27.381-30.486-27.381C342.031,206.159,328.381,218.42,328.381,233.54z"/>
<ellipse cx="358.867" cy="244.887" rx="13.597" ry="15.975"/>
<ellipse fill="#FFFFFF" cx="369.529" cy="238.576" rx="1.935" ry="2.272"/>
</svg>
