<?xml version="1.0" encoding="utf-8"?>
<!-- Generator: Adobe Illustrator 16.0.0, SVG Export Plug-In . SVG Version: 6.00 Build 0)  -->
<!DOCTYPE svg PUBLIC "-//W3C//DTD SVG 1.1//EN" "http://www.w3.org/Graphics/SVG/1.1/DTD/svg11.dtd">
<svg version="1.1" id="Layer_1" xmlns="http://www.w3.org/2000/svg" xmlns:xlink="http://www.w3.org/1999/xlink" x="0px" y="0px"
	 width="841.89px" height="595.28px" viewBox="0 0 841.89 595.28" enable-background="new 0 0 841.89 595.28" xml:space="preserve">
<path fill="#70A3C1" d="M496.693,429.141c111.77-41.4,27.932-113.598,27.932-113.598c57.639-38.771,36.107-160.432,36.107-160.432
	c6.578-1.488,12.941-6.204,15.551-9.256c4.375-5.12,7.018-11.767,7.018-19.03c0-16.187-13.121-29.308-29.309-29.308
	c-16.186,0-29.307,13.121-29.307,29.308c0,3.9,0.82,7.608,2.203,11.013c-113.137-25.4-208.275,0-208.275,0
	c1.383-3.404,2.352-7.029,2.352-10.93c0-16.186-13.121-29.308-29.309-29.308c-16.186,0-29.309,13.122-29.309,29.308
	c0,7.264,2.645,13.91,7.02,19.031c4.031,4.717,9.535,8.141,15.799,9.557c0,0-22.184,121.662,35.457,160.434
	c0,0-83.396,82.029,31.883,112.314C352.506,428.244,464.797,440.955,496.693,429.141z"/>
<path fill="none" stroke="#5D6733" stroke-width="0.6513" stroke-miterlimit="10" d="M583.301,488.168"/>
<circle fill="#FFFFFF" cx="363.806" cy="233.261" r="26.704"/>
<circle fill="#FFFFFF" cx="475.627" cy="233.261" r="26.705"/>
<circle cx="363.164" cy="232.852" r="17.953"/>
<circle cx="475.665" cy="233.852" r="17.954"/>
<circle fill="#FFFFFF" cx="373.454" cy="224.348" r="2.554"/>
<circle fill="#FFFFFF" cx="483.728" cy="223.814" r="2.553"/>
<g>
	<g>
		<path fill="#558AA5" d="M455.624,203.791c8.021-14.868,35.753-16.101,45.215-1.863c1.387,2.088,4.773,0.134,3.373-1.973
			c-11.021-16.587-42.42-15.826-51.961,1.863C451.054,204.036,454.429,206.009,455.624,203.791L455.624,203.791z"/>
	</g>
</g>
<g>
	<g>
		<path fill="#558AA5" d="M340.741,201.967c8.021-14.87,35.753-16.103,45.215-1.863c1.387,2.088,4.773,0.134,3.373-1.973
			c-11.021-16.589-42.42-15.827-51.961,1.863C336.171,202.212,339.546,204.185,340.741,201.967L340.741,201.967z"/>
	</g>
</g>
<g>
	<g>
		<path fill="#558AA5" d="M402.693,373.297c1.614-2.026,7.796-7.064,0.326-1.358c2.464-1.881,5.247-3.322,8.045-4.63
			c-8.396,3.922,1.043-0.065,3.438-0.714c1.551-0.419,3.127-0.731,4.7-1.045c2.903-0.486,2.154-0.418-2.247,0.203
			c1.131-0.138,2.264-0.251,3.4-0.34c3.505-0.314,7.031-0.291,10.545-0.15c1.701,0.068,3.396,0.247,5.088,0.428
			c-8.645-0.922-1.156-0.002,0.791,0.438c1.49,0.336,2.953,0.779,4.414,1.225c0.932,0.297,1.854,0.618,2.769,0.965
			c-4.238-1.863-5.101-2.218-2.587-1.065c1.201,0.558,2.345,1.224,3.484,1.892c5.791,3.398-3.736-3.362-0.599-0.597
			c11.031,9.722,27.291,10.893,38.184,0c9.911-9.911,11.048-28.448,0-38.184c-16.517-14.556-38.645-20.085-60.359-19.068
			c-20.03,0.938-44.47,7.358-57.576,23.818c-4.668,5.862-7.908,11.29-7.908,19.092c0,7.132,2.868,14.052,7.908,19.092
			C374.032,382.819,393.511,384.829,402.693,373.297L402.693,373.297z"/>
	</g>
</g>
<path fill="#FFFFFF" d="M382.305,340.323c0,0,8.104,11.074,14.166,8.033c2.755-1.381,3.664-5.428,5.699-15.198
	c0,0-12.158,2.606-19.865,6.296l-0.489,0.164L382.305,340.323z"/>
<g>
	<g>
		<path fill="#558AA5" d="M539.947,281.64c19.146-1.518,49.265,3.074,51.311,26.832c0.515,5.979-0.137,12.495-4.765,16.737
			c-3.774,3.462-9.726,4.147-14.597,4.33c-14.845,0.558-29.944-4.204-43.815-8.974c-11.98-4.119-23.832-8.953-35.172-14.619
			c-5.244-2.621-9.863,5.244-4.604,7.873c20.516,10.253,42.834,19.037,65.429,23.182c12.327,2.261,27.753,3.766,38.261-4.566
			c11.254-8.922,10.394-27.716,3.915-39.15c-10.286-18.157-36.949-22.27-55.963-20.764
			C534.126,272.981,534.081,282.104,539.947,281.64L539.947,281.64z"/>
	</g>
</g>
<circle fill="#558AA5" cx="490.608" cy="309.882" r="12.243"/>
<circle fill="#558AA5" cx="320.943" cy="348.885" r="12.242"/>
<g>
	<g>
		<path fill="#558AA5" d="M301.796,266.913c-19.457,12.189-38.329,26.543-54.336,43.013c-9.268,9.537-19.392,21.451-21.031,35.166
			c-1.873,15.657,12.51,26.601,26.332,29.959c23.471,5.704,50.027-8.335,67.684-22.942c4.534-3.752-1.955-10.166-6.449-6.447
			c-1.883,1.559-5.267,3.945-8.338,5.965c-6.752,4.441-13.943,8.318-21.504,11.188c-14.893,5.655-37.843,7.708-47.265-8.61
			c-5.722-9.91,4.237-23.017,10.211-30.268c9.887-12,22.032-22.242,34.345-31.658c8.056-6.162,16.355-12.104,24.955-17.49
			C311.368,271.675,306.796,263.782,301.796,266.913L301.796,266.913z"/>
	</g>
</g>
<circle fill="#70A3C1" cx="352.082" cy="426.887" r="12.375"/>
<circle fill="#70A3C1" cx="478.232" cy="432.967" r="12.375"/>
<g>
	<line fill="#70A3C1" x1="352.082" y1="432.967" x2="352.082" y2="511.988"/>
	<g>
		<path fill="#70A3C1" d="M347.522,432.967c0,26.341,0,52.681,0,79.021c0,5.88,9.119,5.88,9.119,0c0-26.341,0-52.681,0-79.021
			C356.642,427.087,347.522,427.087,347.522,432.967L347.522,432.967z"/>
	</g>
</g>
<g>
	<line fill="#70A3C1" x1="478.232" y1="432.967" x2="478.232" y2="511.988"/>
	<g>
		<path fill="#70A3C1" d="M473.673,432.967c0,26.341,0,52.681,0,79.021c0,5.88,9.119,5.88,9.119,0c0-26.341,0-52.681,0-79.021
			C482.792,427.087,473.673,427.087,473.673,432.967L473.673,432.967z"/>
	</g>
</g>
<ellipse fill="#70A3C1" cx="338.141" cy="514.918" rx="17.197" ry="2.932"/>
<ellipse fill="#70A3C1" cx="491.259" cy="514.268" rx="17.196" ry="2.932"/>
</svg>
