<?xml version="1.0" encoding="utf-8"?>
<!-- Generator: Adobe Illustrator 16.0.0, SVG Export Plug-In . SVG Version: 6.00 Build 0)  -->
<!DOCTYPE svg PUBLIC "-//W3C//DTD SVG 1.1//EN" "http://www.w3.org/Graphics/SVG/1.1/DTD/svg11.dtd">
<svg version="1.1" id="Layer_1" xmlns="http://www.w3.org/2000/svg" xmlns:xlink="http://www.w3.org/1999/xlink" x="0px" y="0px"
	 width="960px" height="560px" viewBox="0 0 960 560" enable-background="new 0 0 960 560" xml:space="preserve">
<path fill="#8FB25E" d="M405.513,352.131l-6.953,10.063h-15.995l-30.264-202.737l-5.203-34.864l13.908-10.834h221.148l13.91,10.834
	l-5.156,34.542l-30.313,203.06h-15.994l-6.955-10.063C537.646,352.131,472.276,316.529,405.513,352.131z"/>
<g>
	<path fill="#BED685" d="M360.191,183.503c1.047-0.825,2.128-1.514,3.193-2.272c1.078-0.708,2.16-1.399,3.25-2.058
		c1.087-0.675,2.19-1.287,3.285-1.929c1.107-0.6,2.208-1.221,3.318-1.804l3.346-1.708l3.368-1.62l3.395-1.523
		c1.128-0.522,2.276-0.966,3.415-1.448c1.141-0.472,2.278-0.958,3.432-1.383l3.449-1.318l3.476-1.228
		c1.161-0.4,2.313-0.828,3.486-1.184l3.505-1.113c1.164-0.386,2.346-0.71,3.523-1.047l3.533-1.009
		c1.178-0.336,2.37-0.613,3.557-0.923l2.663-0.695l2.422,0.803l3.194,1.06l3.167,1.145l3.166,1.155l3.138,1.243
		c1.042,0.422,2.098,0.81,3.129,1.269l3.108,1.333c1.04,0.432,2.063,0.918,3.091,1.391c1.024,0.479,2.057,0.937,3.076,1.434
		l3.052,1.512c1.022,0.489,2.02,1.052,3.032,1.576c1.009,0.525,2.016,1.068,3.012,1.641c0.997,0.565,2.002,1.112,2.987,1.716
		c1.982,1.173,3.952,2.388,5.891,3.697c0.976,0.64,1.937,1.322,2.894,2.014c0.947,0.728,1.912,1.397,2.841,2.184l-0.305,0.964
		l-12.907-3.832l-6.436-1.976l-6.432-1.989l-25.724-7.955l0.558,0.012c-4.72,1.319-9.472,2.515-14.203,3.778l-14.213,3.742
		l-14.213,3.743l-14.255,3.583L360.191,183.503z"/>
</g>
<g>
	<path fill="#BED685" d="M479.119,183.501c0.982-0.771,1.999-1.409,2.997-2.118c1.013-0.658,2.026-1.307,3.051-1.915
		c2.042-1.242,4.112-2.371,6.19-3.475l3.135-1.583l3.155-1.493c1.051-0.51,2.119-0.943,3.179-1.414
		c1.06-0.467,2.121-0.929,3.194-1.347l3.209-1.29l3.233-1.193c1.075-0.408,2.156-0.792,3.246-1.145l3.257-1.095
		c1.088-0.362,2.188-0.672,3.281-1.011l3.285-0.986l3.31-0.895c1.106-0.288,2.201-0.619,3.314-0.872l2.551-0.579l2.146,0.637
		l3.196,0.949c1.063,0.322,2.135,0.616,3.187,0.979c2.106,0.718,4.238,1.347,6.323,2.141l3.142,1.143
		c1.049,0.377,2.08,0.815,3.119,1.22c1.036,0.423,2.084,0.802,3.11,1.261l3.088,1.332c1.031,0.436,2.045,0.939,3.067,1.406
		c1.022,0.468,2.042,0.951,3.051,1.468c1.009,0.516,2.03,0.989,3.03,1.541c1.001,0.543,2.01,1.059,3.006,1.624
		c0.992,0.575,1.995,1.116,2.979,1.718c0.987,0.598,1.978,1.183,2.951,1.822c0.981,0.617,1.95,1.274,2.916,1.942
		c0.956,0.712,1.929,1.358,2.866,2.131l-0.273,0.974l-12.904-3.37l-12.861-3.517l-25.721-7.046l0.52,0.006l-26.617,6.599
		l-13.31,3.293l-13.351,3.136L479.119,183.501z"/>
</g>
<path fill="#71882E" d="M591.096,158.595l-13.795-17.102l-0.607-19.427c0,0-26.76,8.062-37.332,8.326
	c-10.574,0.264-30.661,4.758-30.661,4.758l-46,13.233c0,0-35.45-10.723-35.014-10.59c0.438,0.132-23.979-2.158-29.382-2.643
	c-5.402-0.486-29.391-13.02-27.615-13.282s-7.744,18.667-9.746,20.682c-2.002,2.016-8.43,16.425-8.43,16.425l-0.213,0.481
	c0,0-6.939-30.553-5.203-34.864c1.734-4.31,6.953-7.746,13.908-10.834s213.725-2.363,221.148,0
	c7.424,2.362,12.566,7.414,13.91,10.834s-5.156,34.542-5.156,34.542L591.096,158.595z"/>
<path fill="#BED685" d="M369.156,138.932"/>
<path fill="#8FB25E" d="M406.235,236.402"/>
<path fill="#8FB25E" d="M544.58,361.068l12.461,55.759l18.441,39.81h35.889c0,0,4.486-3.108,0-4.664
	c-4.486-1.555-28.556-5.803-28.556-5.803l-14.892-36.785l-7.328-47.984"/>
<path fill="#8FB25E" d="M399.584,358.164l-12.461,55.758l-18.441,39.81h-35.889c0,0-4.486-3.11,0-4.665s28.556-5.803,28.556-5.803
	l14.892-36.785l7.327-47.984"/>
<path fill="#5D6633" d="M461.115,190.7c0,0-31.986,23.063-35.926,26.624c-3.121,2.819-48.815-24.723-54.5-26.624"/>
<path fill="#FFFFFF" d="M439.435,205.454c-3.119,2.819-43.662,1.901-49.348,0c-5.686-1.899-19.397-14.753-19.397-14.753h90.426
	C461.115,190.7,443.375,201.893,439.435,205.454z"/>
<path fill="#5D6633" d="M572.937,193.901c-3.118,2.818-42.963,28.027-48.648,26.126s-39-27.889-39-27.889"/>
<path fill="#1D1D1B" d="M437.637,190.7c0,8.779-6.556,17.615-17.853,17.615c-11.301,0-23.066-8.836-23.066-17.615"/>
<path fill="#FFFFFF" d="M427.668,195.505c0.098,0.47-1.121,1.261-2.725,1.767c-1.604,0.508-2.986,0.538-3.084,0.068
	c-0.1-0.469,1.119-1.259,2.725-1.767C426.187,195.066,427.567,195.035,427.668,195.505z"/>
<path fill="#FFFFFF" d="M555.834,206.891c-3.117,2.819-43.662,1.901-49.348,0c-5.685-1.9-21.198-14.753-21.198-14.753h90.427
	C575.715,192.138,559.775,203.331,555.834,206.891z"/>
<path fill="#1D1D1B" d="M511.316,192.138c0,8.78,10.682,16.178,21.98,16.178c11.3,0,18.938-7.397,18.938-16.178"/>
<path fill="#FFFFFF" d="M521.284,197.942c-0.098,0.47,1.122,1.26,2.728,1.768c1.604,0.508,2.982,0.537,3.082,0.067
	c0.1-0.469-1.121-1.26-2.726-1.767C522.765,197.503,521.385,197.473,521.284,197.942z"/>
<path fill="#8FB25E" d="M555.977,243.568l73.717,7.99l38.788,31.018c0,0,7.247-7.671,8.06-11.198s15.995,31.393,17.116,33.333
	c1.122,1.941-18.919-6.307-18.919-6.307l-51.351-35.135l-67.411,10.175"/>
<path fill="#8FB25E" d="M374.738,251.558l-30.631,9.91l56.758,16.216c0,0,17.932-12.535,17.117-9.009
	c-0.811,3.526-9.01,35.136-3.605,23.424c0.94-2.035-16.215-2.703-16.215-2.703l-80.18-29.729l56.723-25.967"/>
<path fill="#FFFFFF" d="M408.973,262.369h120.721c0,0,6.293,32.46-18.146,32.923c-24.438,0.463-98.069-13.104-98.069-13.104
	L408.973,262.369z"/>
<path fill="#5D6633" d="M532.368,272.336l-11.717,0.896l-3.518,7.96l-5.554-7.036l-101.706,0.824V293.9
	c0,0,76.335,5.458,100.772,4.996c15.615-0.297,20.347-15.57,21.727-26.56H532.368z"/>
</svg>
