<?xml version="1.0" encoding="utf-8"?>
<!-- Generator: Adobe Illustrator 16.0.0, SVG Export Plug-In . SVG Version: 6.00 Build 0)  -->
<!DOCTYPE svg PUBLIC "-//W3C//DTD SVG 1.1//EN" "http://www.w3.org/Graphics/SVG/1.1/DTD/svg11.dtd">
<svg version="1.1" id="Layer_1" xmlns="http://www.w3.org/2000/svg" xmlns:xlink="http://www.w3.org/1999/xlink" x="0px" y="0px"
	 width="960px" height="560px" viewBox="0 0 960 560" enable-background="new 0 0 960 560" xml:space="preserve">
<path fill="#8FB25E" d="M352.301,159.456l-5.203-34.864l13.908-10.834h221.148l13.91,10.834l-5.156,34.542l-30.313,203.06h-15.994
	l-6.955-10.063c0,0-65.37-35.602-132.134,0l-6.953,10.063h-15.995"/>
<g>
	<path fill="#BED685" d="M361.184,186.694c1.215-0.626,2.44-1.113,3.66-1.671c1.225-0.506,2.449-0.995,3.678-1.449
		c1.228-0.471,2.46-0.878,3.689-1.316l3.7-1.188l3.708-1.088l3.716-0.997l3.724-0.898c1.24-0.314,2.487-0.547,3.73-0.819
		c1.245-0.263,2.488-0.539,3.736-0.753l3.742-0.686l3.749-0.592c1.251-0.188,2.499-0.405,3.753-0.547l3.76-0.474
		c1.251-0.173,2.508-0.284,3.764-0.406l3.769-0.367c1.256-0.122,2.517-0.183,3.775-0.277l1.037-0.078l0.824,0.116l2.979,0.417
		l2.967,0.506l2.966,0.517l2.955,0.608c0.984,0.211,1.973,0.386,2.951,0.635l2.943,0.702c0.982,0.221,1.958,0.498,2.936,0.762
		c0.977,0.271,1.956,0.519,2.93,0.807l2.921,0.888c0.975,0.281,1.94,0.638,2.911,0.955c0.971,0.319,1.939,0.655,2.904,1.022
		c0.965,0.36,1.933,0.701,2.894,1.101c1.925,0.765,3.845,1.571,5.753,2.478c0.956,0.437,1.906,0.918,2.855,1.41
		c0.944,0.528,1.896,0.997,2.834,1.587l-0.125,1.003l-11.965-1.246l-5.976-0.686l-5.974-0.699l-23.894-2.796l0.204,0.004
		c-5.026,0.462-10.063,0.796-15.095,1.2l-15.097,1.163l-15.098,1.163l-15.111,0.998L361.184,186.694z"/>
</g>
<g>
	<path fill="#BED685" d="M479.234,183.486c0,0,0.405-0.195,1.166-0.503c0.762-0.284,1.876-0.78,3.298-1.263
		c2.842-1.01,6.905-2.262,11.788-3.401c2.44-0.569,5.086-1.122,7.886-1.613c1.399-0.275,2.839-0.468,4.31-0.701
		c1.47-0.243,2.973-0.423,4.501-0.609c1.528-0.201,3.083-0.377,4.657-0.507c1.574-0.137,3.166-0.322,4.773-0.4
		c1.606-0.097,3.226-0.194,4.852-0.292c1.626-0.052,3.259-0.104,4.892-0.157l1.225-0.033l1.089,0.006l0.611,0.031l2.441,0.126
		c1.626,0.065,3.243,0.189,4.848,0.335c3.209,0.237,6.362,0.62,9.412,1.023c1.524,0.233,3.024,0.426,4.49,0.68
		c1.466,0.265,2.899,0.524,4.295,0.777c1.395,0.295,2.75,0.582,4.063,0.858c1.311,0.318,2.576,0.625,3.791,0.919
		c2.43,0.639,4.654,1.28,6.623,1.914c1.97,0.641,3.685,1.247,5.096,1.798c1.411,0.53,2.516,1.055,3.271,1.37
		c0.755,0.332,1.155,0.543,1.155,0.543l-0.035,1.011c0,0-1.634-0.027-4.493-0.074c-2.858-0.065-6.944-0.074-11.842-0.235
		c-4.898-0.143-10.613-0.309-16.737-0.487c-3.061-0.089-6.225-0.181-9.439-0.274c-1.607-0.046-3.228-0.094-4.854-0.141l-2.444-0.071
		l-0.611-0.018l-0.56,0.012l-1.225,0.015c-13.068,0.134-26.136,0.269-35.937,0.37c-4.9,0.056-8.985,0.001-11.845,0.011
		c-2.858-0.005-4.492-0.008-4.492-0.008L479.234,183.486z"/>
</g>
<path fill="#71882E" d="M591.096,158.595l-13.795-17.102l-0.607-19.427c0,0-26.76,8.062-37.332,8.326
	c-10.574,0.264-30.66,4.758-30.66,4.758l-46,13.233c0,0-35.451-10.723-35.014-10.59c0.438,0.132-23.98-2.158-29.383-2.643
	c-5.402-0.486-29.391-13.02-27.615-13.282s-7.744,18.667-9.746,20.682c-2.002,2.016-8.43,16.425-8.43,16.425l-0.213,0.481
	c0,0-6.939-30.553-5.203-34.864c1.734-4.31,6.953-7.746,13.908-10.834s213.725-2.363,221.148,0
	c7.424,2.362,12.566,7.414,13.91,10.834s-5.156,34.542-5.156,34.542L591.096,158.595z"/>
<path fill="#BED685" d="M369.156,138.932"/>
<path fill="#8FB25E" d="M406.236,236.402"/>
<path fill="#8FB25E" d="M544.58,361.068l12.461,55.759l18.441,39.81h35.889c0,0,4.486-3.108,0-4.664
	c-4.486-1.555-28.556-5.803-28.556-5.803l-14.892-36.785l-7.328-47.984"/>
<path fill="#8FB25E" d="M399.584,358.164l-12.461,55.758l-18.441,39.81h-35.889c0,0-4.486-3.11,0-4.665s28.556-5.803,28.556-5.803
	l14.892-36.785l7.328-47.984"/>
<path fill="#5D6633" d="M461.115,190.7c0,0-31.986,23.063-35.926,26.624c-3.121,2.819-48.815-24.723-54.5-26.624"/>
<path fill="#FFFFFF" d="M439.435,205.454c-3.119,2.819-43.662,1.901-49.348,0c-5.686-1.899-19.397-14.753-19.397-14.753h90.426
	C461.115,190.7,443.375,201.893,439.435,205.454z"/>
<path fill="#5D6633" d="M572.937,193.901c-3.118,2.818-42.963,28.027-48.648,26.126s-39-27.889-39-27.889"/>
<path fill="#1D1D1B" d="M437.637,190.7c0,8.779-6.556,17.615-17.853,17.615c-11.301,0-23.065-8.836-23.065-17.615"/>
<path fill="#FFFFFF" d="M427.668,195.505c0.098,0.47-1.121,1.261-2.725,1.767c-1.604,0.508-2.986,0.538-3.084,0.068
	c-0.1-0.469,1.119-1.259,2.725-1.767C426.188,195.066,427.568,195.035,427.668,195.505z"/>
<path fill="#FFFFFF" d="M555.834,206.891c-3.117,2.819-43.662,1.901-49.348,0c-5.684-1.9-21.198-14.753-21.198-14.753h90.427
	C575.715,192.138,559.775,203.331,555.834,206.891z"/>
<path fill="#1D1D1B" d="M511.316,192.138c0,8.78,10.682,16.178,21.98,16.178c11.3,0,18.938-7.397,18.938-16.178"/>
<path fill="#FFFFFF" d="M521.285,197.942c-0.099,0.47,1.121,1.26,2.727,1.768c1.604,0.508,2.982,0.537,3.083,0.067
	c0.099-0.469-1.122-1.26-2.727-1.767C522.765,197.503,521.385,197.473,521.285,197.942z"/>
<path fill="#8FB25E" d="M555.977,243.568l73.717,7.99l38.788,31.018c0,0,7.247-7.671,8.06-11.198s15.995,31.393,17.116,33.333
	c1.122,1.941-18.919-6.307-18.919-6.307l-51.351-35.135l-67.411,10.175"/>
<path fill="#8FB25E" d="M406.236,236.402"/>
<path fill="#8FB25E" d="M406.236,266.279l-63.029,10.504l44.145,27.928c0,0,12.525-0.824,11.711,2.702
	c-0.811,3.526-34.234,30.631-28.828,18.919c0.939-2.035-5.406-17.117-5.406-17.117l-49.549-41.441l90.957-31.373"/>
<path fill="#FFFFFF" d="M408.973,262.369h120.721c0,0,6.293,32.46-18.146,32.923c-24.438,0.463-98.069-13.104-98.069-13.104
	L408.973,262.369z"/>
<path fill="#5D6633" d="M532.369,272.336l-11.717,0.896l-3.518,7.96l-5.555-7.036l-101.706,0.824V293.9
	c0,0,76.335,5.458,100.772,4.996c15.615-0.297,20.347-15.57,21.727-26.56H532.369z"/>
</svg>
