<?xml version="1.0" encoding="utf-8"?>
<!-- Generator: Adobe Illustrator 16.0.0, SVG Export Plug-In . SVG Version: 6.00 Build 0)  -->
<!DOCTYPE svg PUBLIC "-//W3C//DTD SVG 1.1//EN" "http://www.w3.org/Graphics/SVG/1.1/DTD/svg11.dtd">
<svg version="1.1" id="Layer_1" xmlns="http://www.w3.org/2000/svg" xmlns:xlink="http://www.w3.org/1999/xlink" x="0px" y="0px"
	 width="960px" height="560px" viewBox="0 0 960 560" enable-background="new 0 0 960 560" xml:space="preserve">
<path fill="#8FB25E" d="M405.513,352.131l-6.953,10.063h-15.995l-30.264-202.737l-5.203-34.864l13.908-10.834h221.148l13.91,10.834
	l-5.156,34.542l-30.313,203.06h-15.994l-6.955-10.063C537.646,352.131,472.276,316.529,405.513,352.131z"/>
<g>
	<path fill="#BED685" d="M359.305,185.148c1.201-0.674,2.416-1.221,3.625-1.816c1.213-0.559,2.431-1.08,3.65-1.584
		c1.221-0.491,2.441-0.978,3.667-1.429c1.227-0.436,2.449-0.907,3.681-1.3c1.23-0.402,2.457-0.834,3.692-1.191
		c1.234-0.361,2.464-0.771,3.702-1.093l3.713-1.006l3.723-0.903c1.239-0.318,2.488-0.545,3.732-0.821
		c1.245-0.263,2.488-0.544,3.738-0.755l3.747-0.685c1.249-0.226,2.505-0.392,3.757-0.59c1.254-0.179,2.503-0.409,3.762-0.546
		l3.771-0.461c2.511-0.338,5.04-0.494,7.56-0.75l1.098-0.111l1.039,0.137c1.023,0.136,2.036,0.348,3.055,0.519l3.053,0.54
		c1.019,0.168,2.028,0.408,3.043,0.609l3.04,0.631l3.03,0.711c1.008,0.246,2.021,0.464,3.026,0.734
		c2.01,0.553,4.027,1.042,6.027,1.666c2.007,0.575,4.004,1.221,5.998,1.887c0.999,0.317,1.99,0.7,2.985,1.048
		c0.996,0.345,1.986,0.729,2.977,1.116c1.982,0.755,3.955,1.594,5.92,2.48c0.982,0.443,1.963,0.908,2.938,1.404
		c0.974,0.518,1.952,0.983,2.918,1.56l-0.132,1.002l-12.31-1.398c-2.053-0.222-4.099-0.499-6.147-0.751l-6.146-0.771l-24.581-3.085
		l0.231,0.004c-2.518,0.275-5.03,0.592-7.551,0.832l-7.559,0.763l-15.116,1.524l-15.116,1.523c-2.521,0.251-5.044,0.457-7.566,0.687
		l-7.567,0.673L359.305,185.148z"/>
</g>
<g>
	<path fill="#BED685" d="M476.959,185.098c1.112-0.6,2.236-1.063,3.354-1.598c1.121-0.484,2.244-0.957,3.37-1.391
		c2.25-0.891,4.51-1.664,6.771-2.413l3.399-1.048l3.406-0.955c1.135-0.332,2.275-0.584,3.413-0.875
		c1.138-0.287,2.276-0.568,3.419-0.805l3.424-0.746l3.433-0.647c1.144-0.226,2.288-0.427,3.437-0.598l3.441-0.546
		c1.146-0.179,2.298-0.305,3.447-0.459l3.45-0.434l3.458-0.34c1.153-0.104,2.303-0.251,3.46-0.317l0.962-0.056l0.565,0.057
		l3.38,0.34c1.127,0.118,2.256,0.208,3.378,0.369c2.246,0.314,4.5,0.537,6.739,0.93l3.363,0.538
		c1.121,0.177,2.237,0.415,3.355,0.619c1.118,0.224,2.239,0.401,3.354,0.661l3.347,0.734c1.116,0.238,2.226,0.543,3.34,0.813
		c1.113,0.27,2.226,0.555,3.335,0.875c1.108,0.319,2.222,0.594,3.328,0.951c1.105,0.347,2.215,0.666,3.32,1.036
		c1.104,0.38,2.211,0.726,3.313,1.134c1.102,0.405,2.205,0.795,3.303,1.242c1.101,0.424,2.197,0.89,3.293,1.365
		c1.092,0.523,2.189,0.977,3.275,1.563l-0.086,1.007l-13.559-0.913l-13.545-1.064l-27.092-2.143h0.17l-27.711,2.147l-13.856,1.067
		l-13.87,0.906L476.959,185.098z"/>
</g>
<path fill="#FFFFFF" d="M405.369,270.478l127.496-9.194c0,0,2.221,37.15-22.219,37.613c-24.438,0.462-102.198-12.33-102.198-12.33
	L405.369,270.478z"/>
<path fill="#5D6633" d="M532.369,272.336l-11.717,0.896l-3.518,7.961l-5.555-7.035l-104.158,9.105l2.452,10.637
	c0,0,76.335,5.458,100.772,4.996c15.615-0.297,20.347-15.57,21.727-26.561H532.369z"/>
<path fill="#71882E" d="M591.096,158.595l-13.795-17.102l-0.607-19.427c0,0-26.76,8.063-37.332,8.326
	c-10.574,0.264-30.66,4.758-30.66,4.758l-46,13.232c0,0-35.451-10.723-35.014-10.59c0.438,0.132-23.98-2.158-29.383-2.643
	c-5.402-0.486-29.391-13.021-27.615-13.282s-7.744,18.667-9.746,20.682c-2.002,2.017-8.43,16.425-8.43,16.425l-0.213,0.481
	c0,0-6.939-30.554-5.203-34.864c1.734-4.309,6.953-7.745,13.908-10.834s213.725-2.363,221.148,0
	c7.424,2.362,12.566,7.414,13.91,10.834c1.344,3.422-5.156,34.542-5.156,34.542L591.096,158.595z"/>
<path fill="#BED685" d="M369.156,138.932"/>
<path fill="#8FB25E" d="M406.236,236.402"/>
<path fill="#8FB25E" d="M242.307,318.225"/>
<path fill="#8FB25E" d="M544.58,361.068l12.461,55.759l18.441,39.81h35.889c0,0,4.486-3.108,0-4.664
	c-4.486-1.555-28.556-5.803-28.556-5.803l-14.892-36.785l-7.328-47.984"/>
<path fill="#8FB25E" d="M399.584,358.164l-12.461,55.758l-18.441,39.81h-35.889c0,0-4.486-3.11,0-4.665s28.556-5.803,28.556-5.803
	l14.892-36.785l7.328-47.984"/>
<path fill="#5D6633" d="M461.115,190.7c0,0-35.59,5.945-39.53,9.507c-3.121,2.818-45.211-7.605-50.896-9.507"/>
<path fill="#5D6633" d="M572.937,193.9c-3.118,2.818-41.161,10.911-46.847,9.01c-5.686-1.9-40.802-10.772-40.802-10.772"/>
<path fill="#8FB25E" d="M555.977,243.568l73.717,7.99l38.788,31.018c0,0,7.247-7.672,8.06-11.197
	c0.813-3.527,15.995,31.393,17.116,33.333c1.122,1.941-18.919-6.307-18.919-6.307l-51.351-35.135l-67.411,10.175"/>
<path fill="#8FB25E" d="M406.236,266.279h-73.781l-63.166,82.027c0,0,5.082,8.699,4.268,12.226
	c-0.811,3.526-26.52-4.491-27.643-6.433c-1.121-1.941,15.449-9.756,15.449-9.756l61.131-94.119l83.742-13.822"/>
</svg>
