<?xml version="1.0" encoding="utf-8"?>
<!-- Generator: Adobe Illustrator 16.0.0, SVG Export Plug-In . SVG Version: 6.00 Build 0)  -->
<!DOCTYPE svg PUBLIC "-//W3C//DTD SVG 1.1//EN" "http://www.w3.org/Graphics/SVG/1.1/DTD/svg11.dtd">
<svg version="1.1" id="Layer_1" xmlns="http://www.w3.org/2000/svg" xmlns:xlink="http://www.w3.org/1999/xlink" x="0px" y="0px"
	 width="960px" height="560px" viewBox="0 0 960 560" enable-background="new 0 0 960 560" xml:space="preserve">
<path fill="#8FB25E" d="M405.513,352.131l-6.953,10.063h-15.995l-30.264-202.737l-5.204-34.864l13.909-10.834h221.148l13.91,10.834
	l-5.156,34.542l-30.313,203.06h-15.995l-6.955-10.063C537.646,352.131,472.276,316.529,405.513,352.131z"/>
<path fill="#5D6633" d="M461.115,190.7c0,0-6.388,29.283-10.329,32.845c-3.12,2.818-43.663,0.031-49.348-1.869"/>
<g>
	<path fill="#BED685" d="M359.358,179.145c0,0,0.428-0.192,1.23-0.493c0.802-0.28,1.979-0.763,3.477-1.233
		c1.498-0.494,3.316-1.032,5.403-1.594c2.086-0.558,4.439-1.117,7.007-1.659c2.568-0.53,5.349-1.038,8.291-1.489
		c2.942-0.438,6.044-0.846,9.254-1.151c1.604-0.188,3.236-0.29,4.888-0.415c0.826-0.063,1.656-0.123,2.491-0.186
		c0.835-0.038,1.674-0.076,2.516-0.114c3.371-0.193,6.794-0.208,10.217-0.255c3.423,0.048,6.847,0.075,10.217,0.268
		c1.685,0.057,3.356,0.175,5.008,0.305c1.651,0.119,3.283,0.236,4.888,0.42c3.209,0.305,6.312,0.716,9.253,1.154
		c2.942,0.45,5.724,0.957,8.292,1.488c5.135,1.064,9.414,2.264,12.41,3.238c1.498,0.467,2.674,0.947,3.477,1.227
		c0.802,0.299,1.23,0.49,1.23,0.49v1.012c0,0-1.712,0.03-4.707,0.084c-2.996,0.039-7.275,0.166-12.41,0.188
		c-10.271,0.063-23.964,0.148-37.657,0.232c-13.693-0.084-27.387-0.169-37.657-0.232c-5.135-0.018-9.414-0.148-12.41-0.187
		c-2.995-0.055-4.707-0.085-4.707-0.085V179.145z"/>
</g>
<g>
	<path fill="#BED685" d="M477.001,179.096c0,0,0.428-0.193,1.23-0.494c0.802-0.281,1.979-0.764,3.477-1.233
		c1.498-0.494,3.316-1.032,5.403-1.594c2.086-0.558,4.439-1.116,7.007-1.659c2.567-0.53,5.349-1.037,8.291-1.49
		c2.942-0.438,6.044-0.845,9.254-1.15c1.604-0.188,3.236-0.289,4.888-0.415c0.826-0.062,1.657-0.124,2.491-0.187
		c0.835-0.037,1.675-0.075,2.517-0.113c3.37-0.193,6.793-0.207,10.217-0.255c3.423,0.049,6.847,0.075,10.217,0.269
		c1.685,0.056,3.356,0.174,5.008,0.305c1.651,0.119,3.283,0.234,4.888,0.419c3.209,0.306,6.312,0.716,9.254,1.154
		c2.942,0.45,5.723,0.958,8.291,1.487c5.135,1.066,9.414,2.265,12.41,3.239c1.498,0.468,2.674,0.948,3.477,1.226
		c0.803,0.3,1.23,0.491,1.23,0.491v1.011c0,0-1.712,0.031-4.707,0.085c-2.996,0.038-7.275,0.167-12.41,0.188
		c-10.271,0.063-23.964,0.147-37.657,0.232c-13.694-0.085-27.387-0.169-37.657-0.231c-5.135-0.02-9.414-0.15-12.41-0.188
		c-2.995-0.054-4.707-0.086-4.707-0.086V179.096z"/>
</g>
<path fill="#FFFFFF" d="M444.84,220.769c-3.12,2.819-43.663,1.901-49.348,0c-5.685-1.899-24.802-30.068-24.802-30.068h90.425
	C461.115,190.7,448.78,217.207,444.84,220.769z"/>
<path fill="#5D6633" d="M555.976,223.2c-3.118,2.818-42.076,5.039-47.762,3.138c-5.685-1.9-22.926-34.2-22.926-34.2"/>
<path fill="#1D1D1B" d="M437.636,190.7c0,8.779-9.161,15.897-20.459,15.897c-11.3,0-20.458-7.118-20.458-15.897"/>
<path fill="#FFFFFF" d="M427.667,203.505c0.098,0.47-1.12,1.261-2.725,1.767c-1.604,0.508-2.985,0.537-3.083,0.068
	c-0.099-0.469,1.119-1.26,2.724-1.768C426.188,203.066,427.568,203.035,427.667,203.505z"/>
<path fill="#FFFFFF" d="M559.438,222.207c-3.117,2.818-43.661,1.9-49.347,0c-5.684-1.9-24.802-30.069-24.802-30.069h90.427
	C575.715,192.138,563.378,218.646,559.438,222.207z"/>
<path fill="#1D1D1B" d="M511.317,192.138c0,8.78,9.16,15.896,20.459,15.896s20.459-7.115,20.459-15.896"/>
<path fill="#FFFFFF" d="M521.286,204.942c-0.099,0.47,1.121,1.261,2.726,1.768c1.604,0.508,2.982,0.536,3.083,0.067
	c0.098-0.47-1.122-1.26-2.727-1.768C522.765,204.504,521.385,204.473,521.286,204.942z"/>
<path fill="#FFFFFF" d="M405.486,277.039l127.378-15.756c0,0,2.222,37.15-22.218,37.613c-24.438,0.462-102.198-12.33-102.198-12.33
	L405.486,277.039z"/>
<path fill="#5D6633" d="M532.369,272.336l-11.717,0.896l-3.518,7.961l-5.555-7.035l-104.158,9.105l1.027,3.303
	c0,0,77.76,12.792,102.198,12.33c15.616-0.297,20.347-15.57,21.727-26.561H532.369z"/>
<path fill="#71882E" d="M591.095,158.595l-13.794-17.102l-0.607-19.427c0,0-26.76,8.063-37.333,8.326
	c-10.574,0.264-30.66,4.758-30.66,4.758l-46,13.232c0,0-35.451-10.723-35.014-10.59c0.438,0.132-23.981-2.158-29.383-2.643
	c-5.402-0.486-29.39-13.021-27.615-13.282c1.775-0.262-7.745,18.667-9.747,20.682c-2.001,2.017-8.43,16.425-8.43,16.425
	l-0.212,0.481c0,0-6.939-30.554-5.204-34.864c1.735-4.309,6.953-7.745,13.909-10.834c6.955-3.089,213.724-2.363,221.148,0
	c7.424,2.362,12.566,7.414,13.91,10.834c1.344,3.422-5.156,34.542-5.156,34.542L591.095,158.595z"/>
<path fill="#BED685" d="M369.156,138.932"/>
<path fill="#8FB25E" d="M555.976,243.568h73.781l63.166-82.027c0,0-5.081-8.698-4.268-12.225c0.812-3.526,26.521,4.49,27.643,6.432
	c1.122,1.941-15.448,9.756-15.448,9.756l-61.132,94.119l-83.741,13.822"/>
<path fill="#8FB25E" d="M406.236,266.279h-73.78l-63.167,82.027c0,0,5.082,8.699,4.268,12.226
	c-0.811,3.526-26.52-4.491-27.643-6.433c-1.122-1.941,15.448-9.756,15.448-9.756l61.132-94.119l83.741-13.822"/>
<path fill="#8FB25E" d="M544.58,361.068l12.461,55.759l18.441,39.81h35.889c0,0,4.486-3.108,0-4.664
	c-4.486-1.555-28.556-5.803-28.556-5.803l-14.892-36.785l-7.328-47.984"/>
<path fill="#8FB25E" d="M399.583,358.164l-12.461,55.758l-18.441,39.81h-35.889c0,0-4.486-3.11,0-4.665
	c4.486-1.555,28.556-5.803,28.556-5.803l14.892-36.785l7.328-47.984"/>
</svg>
