<?xml version="1.0" encoding="utf-8"?>
<!-- Generator: Adobe Illustrator 16.0.0, SVG Export Plug-In . SVG Version: 6.00 Build 0)  -->
<!DOCTYPE svg PUBLIC "-//W3C//DTD SVG 1.1//EN" "http://www.w3.org/Graphics/SVG/1.1/DTD/svg11.dtd">
<svg version="1.1" id="Layer_1" xmlns="http://www.w3.org/2000/svg" xmlns:xlink="http://www.w3.org/1999/xlink" x="0px" y="0px"
	 width="960px" height="560px" viewBox="0 0 960 560" enable-background="new 0 0 960 560" xml:space="preserve">
<path fill="#8FB25E" d="M405.513,352.13l-6.953,10.063h-15.995l-30.264-202.738l-5.203-34.864l13.908-10.834h221.148l13.91,10.834
	l-5.156,34.542l-30.313,203.06h-15.994l-6.955-10.063C537.646,352.13,472.276,316.53,405.513,352.13z"/>
<g>
	<path fill="#BED685" d="M376.488,177.182c0.845-0.633,1.702-1.138,2.556-1.692c0.856-0.518,1.717-0.999,2.58-1.462
		c0.864-0.451,1.728-0.896,2.596-1.307c0.87-0.395,1.735-0.826,2.609-1.177c0.873-0.362,1.743-0.752,2.621-1.068
		c0.877-0.321,1.75-0.69,2.631-0.971l2.64-0.883l2.651-0.781c0.882-0.277,1.773-0.463,2.659-0.699
		c0.888-0.222,1.773-0.461,2.666-0.632l2.674-0.562c0.891-0.184,1.789-0.309,2.683-0.467c0.896-0.138,1.787-0.327,2.688-0.423
		l2.697-0.337c1.794-0.257,3.607-0.331,5.411-0.505l0.992-0.096l0.911,0.099c0.694,0.076,1.38,0.229,2.071,0.339l2.068,0.362
		c0.69,0.108,1.374,0.29,2.061,0.431l2.059,0.452l2.05,0.533c0.682,0.188,1.368,0.345,2.047,0.557
		c1.358,0.433,2.723,0.804,4.074,1.31c1.356,0.457,2.704,0.984,4.049,1.531c0.675,0.258,1.343,0.583,2.014,0.871
		c0.672,0.286,1.339,0.611,2.006,0.939c1.336,0.637,2.663,1.357,3.985,2.127c0.661,0.384,1.319,0.79,1.975,1.228
		c0.653,0.458,1.311,0.865,1.958,1.383l-0.108,1.005l-8.358-0.681c-1.394-0.103-2.783-0.26-4.173-0.392l-4.171-0.413l-16.683-1.65
		l0.206,0c-1.801,0.193-3.598,0.428-5.403,0.587l-5.41,0.516l-10.82,1.033l-10.82,1.033c-1.805,0.168-3.612,0.292-5.418,0.44
		l-5.419,0.428L376.488,177.182z"/>
</g>
<g>
	<path fill="#BED685" d="M497.197,178.985c0.668-0.595,1.353-1.053,2.029-1.584c0.683-0.479,1.367-0.949,2.056-1.377
		c1.375-0.883,2.765-1.649,4.158-2.391l2.099-1.037c0.701-0.332,1.407-0.629,2.11-0.945c0.703-0.328,1.415-0.577,2.122-0.865
		c0.708-0.284,1.416-0.562,2.13-0.795l2.137-0.737l2.151-0.638c0.715-0.224,1.434-0.421,2.156-0.589l2.164-0.538
		c0.721-0.176,1.449-0.299,2.174-0.451c0.726-0.141,1.449-0.3,2.178-0.426l2.189-0.333c0.731-0.101,1.456-0.246,2.192-0.31
		l1.382-0.121l0.75,0.1l2.078,0.275c0.692,0.097,1.387,0.166,2.074,0.307c1.376,0.271,2.762,0.452,4.129,0.801l2.057,0.475
		c0.686,0.155,1.364,0.372,2.047,0.555c0.681,0.202,1.367,0.358,2.043,0.597l2.035,0.67c0.679,0.216,1.351,0.5,2.027,0.747
		c0.675,0.249,1.35,0.512,2.02,0.811c0.67,0.298,1.345,0.551,2.012,0.886c0.668,0.326,1.338,0.623,2.002,0.972
		c0.664,0.358,1.332,0.683,1.992,1.069c0.661,0.383,1.324,0.751,1.981,1.176c0.659,0.402,1.314,0.846,1.967,1.3
		c0.648,0.5,1.304,0.933,1.945,1.496l-0.108,1.005l-8.359-0.659l-8.349-0.761c-2.784-0.241-5.561-0.547-8.341-0.828l-8.338-0.856
		l0.236-0.002l-8.789,1.085c-2.931,0.35-5.856,0.743-8.793,1.057l-8.801,0.986l-8.816,0.878L497.197,178.985z"/>
</g>
<path fill="#FFFFFF" d="M405.369,270.478l127.496-9.195c0,0,2.221,37.15-22.219,37.614c-24.438,0.461-102.198-12.331-102.198-12.331
	L405.369,270.478z"/>
<path fill="#5D6633" d="M532.369,272.336l-11.717,0.896l-3.518,7.96l-5.555-7.035l-104.158,9.106l2.452,10.637
	c0,0,76.335,5.458,100.772,4.996c15.615-0.297,20.347-15.57,21.727-26.561H532.369z"/>
<path fill="#71882E" d="M591.096,158.595l-13.795-17.102l-0.607-19.427c0,0-26.76,8.062-37.332,8.326
	c-10.574,0.264-30.66,4.758-30.66,4.758l-46,13.233c0,0-35.451-10.723-35.014-10.59c0.438,0.132-23.98-2.158-29.383-2.643
	c-5.402-0.486-29.391-13.02-27.615-13.282s-7.744,18.667-9.746,20.682c-2.002,2.016-8.43,16.425-8.43,16.425l-0.213,0.481
	c0,0-6.939-30.553-5.203-34.864c1.734-4.31,6.953-7.746,13.908-10.834s213.725-2.363,221.148,0
	c7.424,2.362,12.566,7.414,13.91,10.834s-5.156,34.542-5.156,34.542L591.096,158.595z"/>
<path fill="#BED685" d="M369.156,138.932"/>
<path fill="#8FB25E" d="M555.977,243.568l73.717,7.99l25.226,50.45c0,0,5.495-10.888,6.308-14.415s15.995,31.393,17.116,33.333
	c1.122,1.941-29.73-5.405-29.73-5.405l-25.225-52.252l-67.411,10.175"/>
<path fill="#8FB25E" d="M406.236,266.279h-73.781l-42.401-41.748c0,0-9.096,9.086-9.91,12.612
	c-0.811,3.526-3.381-32.293-4.504-34.234c-1.121-1.941,10.944,5.559,10.944,5.559l47.614,37.684l72.038-9.751"/>
<path fill="#8FB25E" d="M544.58,361.069l12.461,55.758l18.441,39.81h35.889c0,0,4.486-3.109,0-4.665
	c-4.486-1.554-28.556-5.802-28.556-5.802l-14.892-36.786l-7.328-47.984"/>
<path fill="#8FB25E" d="M399.584,358.164l-12.461,55.758l-18.441,39.81h-35.889c0,0-4.486-3.11,0-4.666
	c4.486-1.555,28.556-5.802,28.556-5.802l14.892-36.786l7.328-47.984"/>
<path fill="#5D6633" d="M461.115,190.7c0,0-6.389,29.283-10.328,32.844c-3.121,2.819-74.413-30.943-80.098-32.844"/>
<path fill="#FFFFFF" d="M444.84,209.057c-3.119,2.819-43.662,1.901-49.348,0c-5.686-1.899-24.803-18.357-24.803-18.357h90.426
	C461.115,190.7,448.78,205.496,444.84,209.057z"/>
<path fill="#5D6633" d="M572.937,193.901c-3.118,2.818-59.036,34.338-64.722,32.438s-22.927-34.201-22.927-34.201"/>
<path fill="#1D1D1B" d="M437.637,190.7c0,8.779-6.556,17.615-17.853,17.615c-11.301,0-23.065-8.836-23.065-17.615"/>
<path fill="#FFFFFF" d="M427.668,203.505c0.098,0.47-1.121,1.261-2.725,1.767c-1.604,0.508-2.986,0.538-3.084,0.068
	c-0.1-0.469,1.119-1.259,2.725-1.767C426.188,203.066,427.568,203.035,427.668,203.505z"/>
<path fill="#FFFFFF" d="M554.933,210.495c-3.117,2.819-43.661,1.901-49.348,0c-5.684-1.9-20.297-18.357-20.297-18.357h90.427
	C575.715,192.138,558.874,206.934,554.933,210.495z"/>
<path fill="#1D1D1B" d="M511.316,192.138c0,8.78,10.682,16.178,21.98,16.178c11.3,0,18.938-7.397,18.938-16.178"/>
<path fill="#FFFFFF" d="M521.285,204.942c-0.099,0.47,1.121,1.26,2.727,1.768c1.604,0.508,2.982,0.537,3.083,0.067
	c0.099-0.469-1.122-1.26-2.727-1.767C522.765,204.503,521.385,204.473,521.285,204.942z"/>
</svg>
