<?xml version="1.0" encoding="utf-8"?>
<!-- Generator: Adobe Illustrator 16.0.0, SVG Export Plug-In . SVG Version: 6.00 Build 0)  -->
<!DOCTYPE svg PUBLIC "-//W3C//DTD SVG 1.1//EN" "http://www.w3.org/Graphics/SVG/1.1/DTD/svg11.dtd">
<svg version="1.1" id="Layer_1" xmlns="http://www.w3.org/2000/svg" xmlns:xlink="http://www.w3.org/1999/xlink" x="0px" y="0px"
	 width="841.89px" height="595.28px" viewBox="0 0 841.89 595.28" enable-background="new 0 0 841.89 595.28" xml:space="preserve">
<path fill="#70A3C1" d="M518.404,431.097c111.77-41.399,27.931-113.598,27.931-113.598c57.64-38.77,36.107-160.432,36.107-160.432
	c6.579-1.488,12.942-6.204,15.551-9.255c4.376-5.12,7.019-11.767,7.019-19.03c0-16.187-13.122-29.308-29.309-29.308
	c-16.186,0-29.308,13.122-29.308,29.308c0,3.9,0.82,7.609,2.204,11.012c-113.137-25.4-208.275,0-208.275,0
	c1.383-3.403,2.352-7.028,2.352-10.929c0-16.187-13.122-29.308-29.309-29.308c-16.186,0-29.309,13.122-29.309,29.308
	c0,7.264,2.644,13.91,7.02,19.031c4.031,4.717,9.535,8.14,15.799,9.556c0,0-22.184,121.663,35.456,160.434
	c0,0-83.396,82.029,31.883,112.314C374.215,430.201,486.507,442.912,518.404,431.097z"/>
<path fill="none" stroke="#5D6733" stroke-width="0.6513" stroke-miterlimit="10" d="M608.178,478.125"/>
<circle fill="#FFFFFF" cx="388.683" cy="223.218" r="26.705"/>
<circle fill="#FFFFFF" cx="500.504" cy="223.218" r="26.705"/>
<circle cx="400.13" cy="217.316" r="11.447"/>
<circle cx="511.951" cy="217.316" r="11.447"/>
<circle fill="#FFFFFF" cx="406.692" cy="211.894" r="1.628"/>
<circle fill="#FFFFFF" cx="517.093" cy="210.917" r="1.628"/>
<g>
	<g>
		<path fill="#558AA5" d="M477.829,194.449c7.014,4.489,13.979,2.392,21.33-0.368c7.65-2.872,20.369-11.204,26.558-2.196
			c1.417,2.063,4.806,0.111,3.374-1.973c-12.519-18.221-34.147,10.853-49.289,1.163
			C477.671,189.712,475.714,193.096,477.829,194.449L477.829,194.449z"/>
	</g>
</g>
<g>
	<g>
		<path fill="#558AA5" d="M366.354,202.153c2.136-4.085,4.724-7.103,9.206-8.573c4.432-1.454,8.992-0.68,13.514-1.042
			c6.912-0.552,16.573-10.161,21.759-2.479c1.401,2.076,4.789,0.123,3.374-1.973c-6.575-9.74-14.897-2.258-23.366,0.176
			c-5.585,1.605-11.637,0.012-17.36,1.889c-4.926,1.616-8.179,5.585-10.502,10.028C361.813,202.411,365.186,204.387,366.354,202.153
			L366.354,202.153z"/>
	</g>
</g>
<g>
	<g>
		<path fill="#558AA5" d="M403.936,335.298c6.766,3.262,13.55,1.622,20.346-0.713c7.865-2.702,15.731-6.293,24.055-7.348
			c8.772-1.112,17.162,1.495,25.539,3.707c6.92,1.827,14.961,3.479,21.401-0.672c9.718-6.265,0.703-21.853-9.085-15.543
			c-1.463,0.944-0.14,0.211,0.468,0.142c-0.864,0.099-2.486-0.037-2.953-0.116c-3.601-0.613-7.132-1.728-10.658-2.663
			c-8.048-2.134-16.372-3.625-24.713-2.854c-8.174,0.755-15.912,3.291-23.578,6.086c-2.938,1.072-5.868,2.157-8.856,3.084
			c-0.413,0.128-3.879,0.953-2.791,0.812c-1.982,0.257-1.814-0.294-0.091,0.537c-4.419-2.131-9.69-1.251-12.313,3.229
			C398.378,326.96,399.518,333.168,403.936,335.298L403.936,335.298z"/>
	</g>
</g>
<path fill="#FFFFFF" d="M418.035,325.139c0,0,8.104,11.074,14.166,8.033c2.755-1.381,3.664-5.428,5.699-15.198
	c0,0-12.158,2.606-19.865,6.296l-0.489,0.164L418.035,325.139z"/>
<g>
	<g>
		<path fill="#70A3C1" d="M564.825,271.596c17.078-1.353,43.667,1.748,50.069,20.62c3.034,8.944,0.21,18.911,0.433,28.112
			c0.216,8.912,2.022,17.813,6.055,25.797c3.302,6.538,9.273,13.255,16.479,15.566c5.615,1.801,8-7.004,2.424-8.793
			c-1.275-0.409,0.899,0.465-0.5-0.223c-1.238-0.608-2.8-1.655-3.386-2.129c-4.411-3.562-7.321-8.532-9.175-13.827
			c-3.427-9.789-3.211-20.503-2.154-30.677c0.82-7.906-0.335-15.834-4.282-22.802c-10.286-18.156-36.949-22.269-55.963-20.762
			C559.003,262.939,558.958,272.061,564.825,271.596L564.825,271.596z"/>
	</g>
</g>
<circle fill="#70A3C1" cx="651.381" cy="360.936" r="12.243"/>
<circle fill="#70A3C1" cx="260.477" cy="392.225" r="12.243"/>
<g>
	<g>
		<path fill="#70A3C1" d="M327.763,256.411c-18.41,3.38-36.547,14.618-48.926,28.338c-12.247,13.574-18.853,30.624-21.146,48.6
			c-1.879,14.729-0.717,30.347-0.756,45.181c-0.006,2.298-0.012,4.596-0.018,6.894c-0.015,5.881,9.104,5.88,9.119,0
			c0.077-29.828-3.62-61.876,14.146-87.779c11.185-16.309,30.395-28.492,49.798-32.4c0.069-0.014,0.138-0.027,0.207-0.04
			C335.965,264.143,333.51,255.356,327.763,256.411L327.763,256.411z"/>
	</g>
</g>
<circle fill="#70A3C1" cx="376.959" cy="416.843" r="12.375"/>
<circle fill="#70A3C1" cx="503.109" cy="422.923" r="12.375"/>
<g>
	<line fill="#70A3C1" x1="376.958" y1="422.923" x2="376.958" y2="501.945"/>
	<g>
		<path fill="#70A3C1" d="M372.399,422.923c0,26.341,0,52.681,0,79.021c0,5.88,9.119,5.88,9.119,0c0-26.341,0-52.681,0-79.021
			C381.518,417.043,372.399,417.043,372.399,422.923L372.399,422.923z"/>
	</g>
</g>
<g>
	<line fill="#70A3C1" x1="503.109" y1="422.923" x2="503.109" y2="501.945"/>
	<g>
		<path fill="#70A3C1" d="M498.549,422.923c0,26.341,0,52.681,0,79.021c0,5.88,9.119,5.88,9.119,0c0-26.341,0-52.681,0-79.021
			C507.668,417.043,498.549,417.043,498.549,422.923L498.549,422.923z"/>
	</g>
</g>
<ellipse fill="#70A3C1" cx="363.018" cy="504.875" rx="17.197" ry="2.932"/>
<ellipse fill="#70A3C1" cx="516.136" cy="504.224" rx="17.197" ry="2.932"/>
</svg>
