<?xml version="1.0" encoding="utf-8"?>
<!-- Generator: Adobe Illustrator 16.0.0, SVG Export Plug-In . SVG Version: 6.00 Build 0)  -->
<!DOCTYPE svg PUBLIC "-//W3C//DTD SVG 1.1//EN" "http://www.w3.org/Graphics/SVG/1.1/DTD/svg11.dtd">
<svg version="1.1" id="Layer_1" xmlns="http://www.w3.org/2000/svg" xmlns:xlink="http://www.w3.org/1999/xlink" x="0px" y="0px"
	 width="841.89px" height="595.28px" viewBox="0 0 841.89 595.28" enable-background="new 0 0 841.89 595.28" xml:space="preserve">
<path fill="#70A3C1" d="M518.404,431.097c111.77-41.399,27.931-113.598,27.931-113.598c57.64-38.77,36.107-160.432,36.107-160.432
	c6.579-1.488,12.942-6.204,15.551-9.255c4.376-5.12,7.019-11.767,7.019-19.03c0-16.187-13.122-29.308-29.309-29.308
	c-16.186,0-29.308,13.122-29.308,29.308c0,3.9,0.82,7.609,2.204,11.012c-113.137-25.4-208.275,0-208.275,0
	c1.383-3.403,2.352-7.028,2.352-10.929c0-16.187-13.122-29.308-29.309-29.308c-16.186,0-29.309,13.122-29.309,29.308
	c0,7.264,2.644,13.91,7.02,19.031c4.031,4.717,9.535,8.14,15.799,9.556c0,0-22.184,121.663,35.456,160.434
	c0,0-83.396,82.029,31.883,112.314C374.215,430.201,486.507,442.912,518.404,431.097z"/>
<path fill="none" stroke="#5D6733" stroke-width="0.6513" stroke-miterlimit="10" d="M608.178,478.125"/>
<circle fill="#FFFFFF" cx="388.683" cy="223.218" r="26.705"/>
<circle fill="#FFFFFF" cx="500.504" cy="223.218" r="26.705"/>
<circle cx="400.13" cy="217.316" r="11.447"/>
<circle cx="511.951" cy="217.316" r="11.447"/>
<circle fill="#FFFFFF" cx="406.692" cy="211.894" r="1.628"/>
<circle fill="#FFFFFF" cx="517.093" cy="210.917" r="1.628"/>
<g>
	<g>
		<path fill="#558AA5" d="M477.829,194.449c7.014,4.489,13.979,2.392,21.33-0.368c7.65-2.872,20.369-11.204,26.557-2.196
			c1.417,2.063,4.806,0.111,3.375-1.973c-12.52-18.221-34.147,10.853-49.289,1.163C477.671,189.712,475.714,193.096,477.829,194.449
			L477.829,194.449z"/>
	</g>
</g>
<g>
	<g>
		<path fill="#558AA5" d="M366.354,202.153c2.136-4.085,4.724-7.103,9.206-8.573c4.432-1.454,8.992-0.68,13.514-1.042
			c6.912-0.552,16.573-10.161,21.759-2.479c1.402,2.076,4.789,0.123,3.375-1.973c-6.576-9.74-14.897-2.258-23.366,0.176
			c-5.585,1.605-11.638,0.012-17.36,1.889c-4.926,1.616-8.179,5.585-10.502,10.028C361.813,202.411,365.186,204.387,366.354,202.153
			L366.354,202.153z"/>
	</g>
</g>
<g>
	<g>
		<path fill="#558AA5" d="M403.936,335.298c6.766,3.262,13.55,1.622,20.345-0.713c7.866-2.702,15.732-6.293,24.056-7.348
			c8.772-1.112,17.162,1.495,25.539,3.707c6.92,1.827,14.961,3.479,21.401-0.672c9.718-6.265,0.703-21.853-9.085-15.543
			c-1.463,0.944-0.14,0.211,0.468,0.142c-0.864,0.099-2.486-0.037-2.953-0.116c-3.601-0.613-7.132-1.728-10.658-2.663
			c-8.048-2.134-16.372-3.625-24.712-2.854c-8.175,0.755-15.912,3.291-23.578,6.086c-2.938,1.072-5.868,2.157-8.856,3.084
			c-0.413,0.128-3.879,0.953-2.791,0.812c-1.982,0.257-1.814-0.294-0.091,0.537c-4.419-2.131-9.69-1.251-12.314,3.229
			C398.378,326.96,399.518,333.168,403.936,335.298L403.936,335.298z"/>
	</g>
</g>
<path fill="#FFFFFF" d="M418.035,325.139c0,0,8.104,11.074,14.166,8.033c2.755-1.381,3.664-5.428,5.699-15.198
	c0,0-12.158,2.606-19.865,6.296l-0.489,0.164L418.035,325.139z"/>
<g>
	<g>
		<path fill="#558AA5" d="M564.825,271.596c19.146-1.517,49.264,3.075,51.311,26.832c1.619,18.787-11.439,35.646-23.978,48.102
			c-11.804,11.727-25.575,21.459-39.858,29.922c-2.96,1.754-5.956,3.475-9.025,5.032c-5.245,2.662-0.628,10.529,4.603,7.874
			c24.879-12.628,49.652-30.975,65.646-54.005c9.899-14.253,15.879-33.277,8.436-49.884c-5.8-12.938-20.487-19.07-33.555-21.515
			c-7.669-1.436-15.777-2.094-23.58-1.476C559.003,262.939,558.958,272.061,564.825,271.596L564.825,271.596z"/>
	</g>
</g>
<circle fill="#558AA5" cx="545.576" cy="385.421" r="12.243"/>
<circle fill="#558AA5" cx="345.821" cy="373.179" r="12.243"/>
<g>
	<g>
		<path fill="#558AA5" d="M326.674,256.871c-7.906,4.573-15.432,9.895-22.639,15.489c-11.574,8.985-23.925,19.714-29.855,33.461
			c-4.911,11.385-2.79,25.189,8.296,32.275c10.615,6.785,21.231,13.571,31.846,20.356c9.733,6.221,19.465,12.442,29.198,18.663
			c4.971,3.177,9.54-4.718,4.603-7.874c-20.108-12.853-40.216-25.706-60.324-38.558c-9.719-6.213-7.931-17.773-2.287-26.766
			c7.77-12.381,20.322-22.033,32.126-30.337c4.423-3.112,8.955-6.127,13.639-8.836C336.363,261.802,331.773,253.921,326.674,256.871
			L326.674,256.871z"/>
	</g>
</g>
<circle fill="#70A3C1" cx="376.959" cy="416.843" r="12.375"/>
<circle fill="#70A3C1" cx="503.109" cy="422.923" r="12.375"/>
<g>
	<g>
		<path fill="#70A3C1" d="M372.562,424.135c2.826,13.16,5.652,26.32,8.478,39.479c-0.566-2.637,0.117-2.906-0.303-0.951
			c-0.326,1.517-0.651,3.034-0.977,4.551c-0.951,4.426-1.901,8.852-2.851,13.277c-1.449,6.747-2.898,13.494-4.347,20.241
			c-1.231,5.734,7.559,8.172,8.793,2.424c1.449-6.747,2.897-13.494,4.347-20.241c0.95-4.425,1.9-8.851,2.851-13.277
			c0.485-2.259,1.45-4.859,1.45-7.205c0-2.117-0.861-4.462-1.299-6.5c-1-4.66-2.001-9.321-3.002-13.981
			c-1.449-6.747-2.898-13.494-4.347-20.241C380.121,415.963,371.331,418.401,372.562,424.135L372.562,424.135z"/>
	</g>
</g>
<g>
	<g>
		<path fill="#70A3C1" d="M498.712,421.711c-4.083,14.101-8.165,28.203-12.248,42.304c-0.609,2.103,0.185,3.777,0.85,5.727
			c1.418,4.157,2.836,8.314,4.254,12.471c2.381,6.981,4.763,13.963,7.144,20.944c1.887,5.533,10.697,3.157,8.793-2.424
			c-2.275-6.671-4.551-13.342-6.827-20.013c-1.393-4.083-2.786-8.167-4.178-12.25c-0.4-1.174-0.801-2.348-1.202-3.522
			c-0.59-1.73-0.58,3.351,0.028,1.252c4.06-14.022,8.119-28.043,12.179-42.065C509.144,418.474,500.344,416.074,498.712,421.711
			L498.712,421.711z"/>
	</g>
</g>
<ellipse fill="#70A3C1" cx="363.018" cy="504.875" rx="17.197" ry="2.932"/>
<ellipse fill="#70A3C1" cx="516.136" cy="504.224" rx="17.197" ry="2.932"/>
</svg>
