<?xml version="1.0" encoding="utf-8"?>
<!-- Generator: Adobe Illustrator 16.0.0, SVG Export Plug-In . SVG Version: 6.00 Build 0)  -->
<!DOCTYPE svg PUBLIC "-//W3C//DTD SVG 1.1//EN" "http://www.w3.org/Graphics/SVG/1.1/DTD/svg11.dtd">
<svg version="1.1" id="Layer_1" xmlns="http://www.w3.org/2000/svg" xmlns:xlink="http://www.w3.org/1999/xlink" x="0px" y="0px"
	 width="841.89px" height="595.28px" viewBox="0 0 841.89 595.28" enable-background="new 0 0 841.89 595.28" xml:space="preserve">
<path fill="#70A3C1" d="M520.908,430.551c111.015-43.381,25.908-114.078,25.908-114.078
	c56.938-39.788,33.249-161.047,33.249-161.047c6.55-1.604,12.829-6.433,15.383-9.531c4.283-5.196,6.808-11.889,6.679-19.152
	c-0.288-16.184-13.64-29.07-29.826-28.782c-16.183,0.287-29.068,13.64-28.78,29.824c0.069,3.9,0.956,7.593,2.398,10.972
	c-113.57-23.385-208.242,3.703-208.242,3.703c1.321-3.427,2.228-7.069,2.157-10.969c-0.288-16.184-13.641-29.07-29.824-28.782
	c-16.184,0.288-29.071,13.641-28.783,29.825c0.129,7.263,2.891,13.861,7.356,18.903c4.115,4.645,9.679,7.969,15.967,9.273
	c0,0-20.017,122.038,38.303,159.777c0,0-81.925,83.5,33.873,111.73C376.726,432.217,489.227,442.93,520.908,430.551z"/>
<path fill="none" stroke="#5D6733" stroke-width="0.6513" stroke-miterlimit="10" d="M608.179,478.125"/>
<circle fill="#FFFFFF" cx="387.511" cy="225.01" r="26.705"/>
<circle fill="#FFFFFF" cx="499.315" cy="223.022" r="26.705"/>
<circle cx="395.853" cy="228.905" r="11.447"/>
<circle cx="507.655" cy="226.917" r="11.446"/>
<circle fill="#FFFFFF" cx="402.317" cy="223.367" r="1.628"/>
<circle fill="#FFFFFF" cx="512.683" cy="220.427" r="1.628"/>
<g>
	<g>
		<path fill="#558AA5" d="M476.103,194.644c7.099,4.367,14,2.175,21.315-0.721c7.562-2.994,20.206-11.572,26.532-2.708
			c1.45,2.032,4.841,0.083,3.374-1.973c-12.876-18.044-33.929,11.452-49.249,2.027C475.922,189.945,473.961,193.326,476.103,194.644
			L476.103,194.644z"/>
	</g>
</g>
<g>
	<g>
		<path fill="#558AA5" d="M364.794,204.375c5-10.016,12.752-9.09,22.528-10.047c6.87-0.672,16.445-10.429,21.729-2.895
			c1.435,2.046,4.825,0.096,3.374-1.973c-7.065-10.074-15.645-1.331-24.473,0.829c-3.053,0.747-6.561,0.186-9.704,0.498
			c-2.417,0.239-4.768,0.764-7.032,1.642c-4.639,1.798-7.638,5.651-9.796,9.974C360.298,204.65,363.669,206.63,364.794,204.375
			L364.794,204.375z"/>
	</g>
</g>
<g>
	<g>
		<path fill="#558AA5" d="M404.616,336.722c6.863,3.158,13.506,1.523,20.315-0.952c8.177-2.973,16.095-6.383,24.716-7.908
			c8.25-1.459,16.886,1.36,24.804,3.301c6.898,1.69,15.065,3.318,21.403-0.93c9.587-6.426,0.588-22.025-9.085-15.543
			c-1.392,0.933-0.151,0.3,0.493,0.214c-0.837,0.111-2.499,0.05-2.96-0.021c-3.611-0.549-7.162-1.602-10.704-2.474
			c-8.087-1.991-16.424-3.376-24.754-2.456c-8.178,0.902-15.835,3.521-23.472,6.461c-2.919,1.124-5.829,2.261-8.8,3.24
			c-1.383,0.457-2.79,0.803-4.216,1.086c0.829-0.124,0.728-0.154-0.305-0.09c0.603,0.007,1.152,0.184,1.648,0.528
			c-4.457-2.051-9.657-1.307-12.314,3.229C399.092,328.326,400.159,334.67,404.616,336.722L404.616,336.722z"/>
	</g>
</g>
<path fill="#FFFFFF" d="M418.671,326.393c0,0,8.3,10.928,14.308,7.779c2.73-1.43,3.566-5.491,5.428-15.297
	c0,0-12.11,2.822-19.75,6.648l-0.487,0.172L418.671,326.393z"/>
<g>
	<g>
		<path fill="#558AA5" d="M563.613,271.434c1.836,0.452,2.897,1.054,5.423,2.828c4.451,3.125,7.716,8.609,9.568,13.872
			c3.334,9.477,3.705,21.123,1.68,30.903c-1.38,6.668-5.391,12.263-10.161,16.961c-11.229,11.059-26.989,17.389-41.696,22.265
			c-12.552,4.163-25.501,7.207-38.528,9.452c-1.592,0.273-3.187,0.529-4.784,0.77c-1.056,0.158-2.356,0.322-0.896,0.135
			c-5.749,0.738-5.821,9.866,0,9.119c23.248-2.985,46.758-9.146,67.975-19.135c13.418-6.318,27.299-15.454,34.037-29.157
			c4.178-8.498,4.5-18.437,4.046-27.722c-0.428-8.757-2.516-17.598-7.097-25.139c-3.689-6.072-10.007-12.189-17.143-13.945
			C560.327,261.236,557.905,270.029,563.613,271.434L563.613,271.434z"/>
	</g>
</g>
<circle fill="#558AA5" cx="478.815" cy="373.179" r="12.243"/>
<circle fill="#558AA5" cx="420.945" cy="373.179" r="12.243"/>
<g>
	<g>
		<path fill="#558AA5" d="M325.038,258.506c-16.848,23.693-28.831,61.729-4.537,84.537c2.375,2.229,5.541,2.94,8.558,3.996
			c5.531,1.936,11.062,3.87,16.593,5.806c15.071,5.273,30.142,10.546,45.212,15.819c8.49,2.971,16.979,5.94,25.469,8.911
			c5.565,1.947,7.937-6.864,2.424-8.793c-23.287-8.147-46.574-16.296-69.861-24.443c-5.643-1.975-11.286-3.948-16.928-5.923
			c-1.522-0.533-3.044-1.065-4.566-1.598c-0.384-0.135-0.768-0.269-1.151-0.403c-0.086-0.03-0.173-0.061-0.26-0.091
			c2.37,0.829-0.429-1.059-0.913-1.542c-13.943-13.942-9.888-35.702-2.952-51.995c2.908-6.832,6.473-13.614,10.786-19.679
			C336.328,258.305,328.415,253.758,325.038,258.506L325.038,258.506z"/>
	</g>
</g>
<circle fill="#70A3C1" cx="391.107" cy="422.48" r="12.375"/>
<circle fill="#70A3C1" cx="517.276" cy="416.807" r="12.376"/>
<g>
	<g>
		<path fill="#70A3C1" d="M373.735,426.147c11.26,13.171,22.52,26.341,33.779,39.511c0-2.149,0-4.298,0-6.447
			c-11.26,13.17-22.52,26.34-33.779,39.511c-3.798,4.442,2.621,10.924,6.448,6.447c11.26-13.17,22.52-26.34,33.779-39.511
			c1.713-2.004,1.713-4.443,0-6.447c-11.26-13.171-22.52-26.341-33.779-39.511C376.356,415.224,369.937,421.705,373.735,426.147
			L373.735,426.147z"/>
	</g>
</g>
<g>
	<g>
		<path fill="#70A3C1" d="M499.171,420.623c-3.291,6.884-6.582,13.769-9.874,20.652c-2.177,4.555-4.354,9.109-6.531,13.663
			c-0.981,2.053-3.106,5.118-3.106,7.496s2.125,5.443,3.106,7.496c2.177,4.554,4.354,9.108,6.531,13.663
			c3.292,6.884,6.583,13.769,9.874,20.652c2.536,5.304,10.396,0.675,7.874-4.602c-6.296-13.171-12.593-26.341-18.889-39.511
			c0,1.534,0,3.067,0,4.602c6.296-13.17,12.592-26.34,18.889-39.511C509.568,419.948,501.707,415.319,499.171,420.623
			L499.171,420.623z"/>
	</g>
</g>
<ellipse fill="#70A3C1" cx="363.018" cy="504.875" rx="17.197" ry="2.932"/>
<ellipse fill="#70A3C1" cx="516.136" cy="504.225" rx="17.197" ry="2.932"/>
</svg>
