<?xml version="1.0" encoding="utf-8"?>
<!-- Generator: Adobe Illustrator 16.0.0, SVG Export Plug-In . SVG Version: 6.00 Build 0)  -->
<!DOCTYPE svg PUBLIC "-//W3C//DTD SVG 1.1//EN" "http://www.w3.org/Graphics/SVG/1.1/DTD/svg11.dtd">
<svg version="1.1" id="Layer_1" xmlns="http://www.w3.org/2000/svg" xmlns:xlink="http://www.w3.org/1999/xlink" x="0px" y="0px"
	 width="841.89px" height="595.28px" viewBox="0 0 841.89 595.28" enable-background="new 0 0 841.89 595.28" xml:space="preserve">
<path fill="#70A3C1" d="M533.264,423.523c107.437-51.61,17.251-115.703,17.251-115.703c53.784-43.959,21.037-163.093,21.037-163.093
	c6.411-2.093,12.309-7.38,14.623-10.661c3.88-5.504,5.894-12.368,5.218-19.6c-1.505-16.116-15.788-27.961-31.906-26.457
	c-16.115,1.504-27.96,15.789-26.455,31.905c0.362,3.884,1.524,7.5,3.218,10.76c-115.009-14.773-207.374,19.361-207.374,19.361
	c1.061-3.517,1.688-7.216,1.326-11.1c-1.505-16.116-15.79-27.961-31.906-26.457c-16.115,1.505-27.962,15.79-26.457,31.906
	c0.675,7.232,3.925,13.604,8.758,18.296c4.453,4.322,10.251,7.218,16.619,8.046c0,0-10.777,123.198,50.217,156.443
	c0,0-75.409,89.427,42.185,108.864C389.616,436.034,502.604,438.252,533.264,423.523z"/>
<circle fill="#FFFFFF" cx="384.78" cy="228.603" r="26.704"/>
<circle fill="#FFFFFF" cx="496.117" cy="218.208" r="26.704"/>
<circle cx="395.63" cy="221.662" r="11.447"/>
<circle cx="506.966" cy="211.268" r="11.446"/>
<circle fill="#FFFFFF" cx="401.659" cy="215.653" r="1.628"/>
<circle fill="#FFFFFF" cx="511.491" cy="204.418" r="1.629"/>
<g>
	<g>
		<path fill="#558AA5" d="M470.705,191.588c7.604,3.922,14.398,1.121,21.658-2.406c7.577-3.681,18.988-12.86,26.15-4.272
			c1.616,1.938,4.365-0.843,2.764-2.764c-13.86-16.62-32.973,14.127-48.6,6.067C470.441,187.06,468.465,190.432,470.705,191.588
			L470.705,191.588z"/>
	</g>
</g>
<g>
	<g>
		<path fill="#558AA5" d="M360.703,209.399c4.157-10.181,12.384-9.833,21.833-11.416c7.156-1.199,15.238-11.775,21.422-4.211
			c1.597,1.952,4.345-0.83,2.764-2.764c-7.601-9.296-15.814,0.317-24.129,2.939c-5.583,1.76-11.319,0.912-16.84,3.545
			c-4.467,2.131-7.023,6.472-8.819,10.868C355.98,210.694,359.763,211.7,360.703,209.399L360.703,209.399z"/>
	</g>
</g>
<g>
	<g>
		<path fill="#558AA5" d="M411.794,339.299c6.563,2.457,13.741-0.911,19.657-3.549c7.463-3.328,14.538-7.074,22.516-9.089
			c15.722-3.972,34.155,8.506,48.016-2.328c3.872-3.027,3.15-9.577,0-12.729c-3.783-3.782-8.867-3.018-12.729,0
			c0.539-0.421,0.553-0.669,1.262-0.751c-1.52,0.175-3.09,0.01-4.604-0.121c-3.53-0.304-7.059-1.151-10.561-1.695
			c-8.851-1.374-17.372-1.672-26.169,0.267c-7.65,1.686-14.917,5.276-21.949,8.621c-2.344,1.114-4.671,2.275-7.096,3.201
			c-1.244,0.476-2.521,0.824-3.82,1.104c0.4-0.086,0.931-0.038,0.263-0.288c-4.6-1.722-9.858,1.876-11.071,6.286
			C404.119,333.278,407.204,337.58,411.794,339.299L411.794,339.299z"/>
	</g>
</g>
<path fill="#FFFFFF" d="M423.479,327.354c0,0,9.1,10.273,14.852,6.682c2.615-1.631,3.144-5.744,4.262-15.662
	c0,0-11.863,3.726-19.193,8.115l-0.473,0.209L423.479,327.354z"/>
<g>
	<g>
		<path fill="#558AA5" d="M563.613,271.434c1.836,0.452,2.896,1.054,5.423,2.828c4.451,3.125,7.716,8.609,9.568,13.872
			c3.335,9.477,3.705,21.123,1.68,30.903c-1.38,6.668-5.391,12.263-10.161,16.961c-11.229,11.059-26.988,17.389-41.695,22.265
			c-12.553,4.163-25.502,7.207-38.529,9.452c-1.592,0.273-3.186,0.529-4.783,0.77c-1.056,0.158-2.356,0.322-0.896,0.135
			c-5.749,0.738-5.821,9.866,0,9.119c23.248-2.985,46.758-9.146,67.975-19.135c13.419-6.318,27.299-15.454,34.037-29.157
			c4.178-8.498,4.5-18.437,4.046-27.722c-0.428-8.757-2.516-17.598-7.098-25.139c-3.688-6.072-10.007-12.189-17.143-13.945
			C560.327,261.236,557.905,270.029,563.613,271.434L563.613,271.434z"/>
	</g>
</g>
<circle fill="#558AA5" cx="478.815" cy="373.179" r="12.243"/>
<circle fill="#558AA5" cx="420.945" cy="373.179" r="12.243"/>
<g>
	<g>
		<path fill="#558AA5" d="M325.038,258.506c-16.849,23.693-28.831,61.729-4.537,84.537c2.375,2.229,5.541,2.94,8.558,3.996
			c5.531,1.936,11.063,3.87,16.594,5.806c15.07,5.273,30.141,10.546,45.212,15.819c8.489,2.971,16.979,5.94,25.469,8.911
			c5.565,1.947,7.937-6.864,2.424-8.793c-23.287-8.147-46.573-16.296-69.86-24.443c-5.643-1.975-11.286-3.948-16.929-5.923
			c-1.522-0.533-3.044-1.065-4.566-1.598c-0.384-0.135-0.768-0.269-1.151-0.403c-0.086-0.03-0.174-0.061-0.26-0.091
			c2.37,0.829-0.43-1.059-0.913-1.542c-13.943-13.942-9.888-35.702-2.952-51.995c2.908-6.832,6.474-13.614,10.786-19.679
			C336.327,258.305,328.414,253.758,325.038,258.506L325.038,258.506z"/>
	</g>
</g>
<g>
	<g>
		<path fill="#70A3C1" d="M373.022,413.225c8.233,13.837,16.467,27.674,24.7,41.511c0-1.534,0-3.067,0-4.602
			c-8.233,12.503-16.467,25.007-24.7,37.511c-3.245,4.927,4.655,9.489,7.873,4.602c8.233-12.503,16.467-25.007,24.7-37.511
			c0.879-1.334,0.799-3.261,0-4.602c-8.233-13.837-16.467-27.674-24.7-41.511C377.893,403.576,370.008,408.159,373.022,413.225
			L373.022,413.225z"/>
	</g>
</g>
<g>
	<g>
		<path fill="#70A3C1" d="M498.712,409.712c-2.81,6.737-5.618,13.474-8.428,20.211c-1.849,4.433-3.696,8.864-5.544,13.296
			c-0.879,2.108-2.667,4.84-2.667,7.216c0,2.176,1.585,4.623,2.391,6.554c1.94,4.652,3.88,9.305,5.82,13.958
			c2.81,6.737,5.618,13.474,8.428,20.211c2.229,5.345,11.056,3.003,8.793-2.424c-5.488-13.161-10.976-26.322-16.464-39.483
			c0.807,1.935-0.348,3.203,0.676,0.748c0.605-1.451,1.211-2.903,1.816-4.354c1.848-4.433,3.695-8.864,5.544-13.297
			c2.81-6.736,5.618-13.474,8.428-20.211C509.768,406.709,500.94,404.367,498.712,409.712L498.712,409.712z"/>
	</g>
</g>
<ellipse fill="#70A3C1" cx="363.018" cy="492.875" rx="17.197" ry="2.932"/>
<ellipse fill="#70A3C1" cx="516.136" cy="492.225" rx="17.197" ry="2.932"/>
</svg>
