<?xml version="1.0" encoding="utf-8"?>
<!-- Generator: Adobe Illustrator 16.0.0, SVG Export Plug-In . SVG Version: 6.00 Build 0)  -->
<!DOCTYPE svg PUBLIC "-//W3C//DTD SVG 1.1//EN" "http://www.w3.org/Graphics/SVG/1.1/DTD/svg11.dtd">
<svg version="1.1" id="Layer_1" xmlns="http://www.w3.org/2000/svg" xmlns:xlink="http://www.w3.org/1999/xlink" x="0px" y="0px"
	 width="841.89px" height="595.28px" viewBox="0 0 841.89 595.28" enable-background="new 0 0 841.89 595.28" xml:space="preserve">
<path fill="#70A3C1" d="M542.898,417.042c104.099-58.049,10.183-116.538,10.183-116.538c51.01-47.149,11.078-164.07,11.078-164.07
	c6.271-2.479,11.837-8.115,13.947-11.531c3.539-5.73,5.131-12.703,4.017-19.881c-2.482-15.995-17.46-26.95-33.456-24.467
	c-15.994,2.482-26.948,17.46-24.466,33.455c0.598,3.854,1.978,7.394,3.866,10.544c-115.694-7.751-205.813,31.938-205.813,31.938
	c0.844-3.575,1.246-7.306,0.648-11.16c-2.482-15.995-17.461-26.949-33.456-24.467c-15.994,2.482-26.95,17.461-24.468,33.456
	c1.113,7.178,4.745,13.34,9.854,17.729c4.708,4.044,10.671,6.582,17.077,7.021c0,0-3.264,123.626,59.639,153.099
	c0,0-69.83,93.848,48.729,106.098C400.278,438.267,513.19,433.608,542.898,417.042z"/>
<circle fill="#FFFFFF" cx="382.835" cy="231.513" r="26.705"/>
<circle fill="#FFFFFF" cx="493.333" cy="214.366" r="26.705"/>
<circle cx="393.242" cy="223.926" r="11.447"/>
<circle cx="503.74" cy="206.779" r="11.446"/>
<circle fill="#FFFFFF" cx="398.895" cy="217.561" r="1.628"/>
<circle fill="#FFFFFF" cx="507.84" cy="199.667" r="1.629"/>
<g>
	<g>
		<path fill="#558AA5" d="M466.245,189.284c7.859,3.465,14.381,0.398,21.475-3.599c7.258-4.089,18.249-14.069,25.856-6
			c1.732,1.837,4.49-0.932,2.764-2.764c-15.006-15.916-31.973,16.109-48.122,8.987C465.935,184.902,463.943,188.269,466.245,189.284
			L466.245,189.284z"/>
	</g>
</g>
<g>
	<g>
		<path fill="#558AA5" d="M357.606,213.925c3.545-10.46,11.619-10.634,21.013-12.803c6.958-1.606,14.63-12.678,21.152-5.623
			c1.714,1.854,4.472-0.917,2.764-2.764c-8.225-8.895-15.639,1.124-23.878,4.285c-5.436,2.085-11.29,1.589-16.605,4.534
			c-4.324,2.396-6.686,6.82-8.215,11.332C353.026,215.28,356.802,216.298,357.606,213.925L357.606,213.925z"/>
	</g>
</g>
<g>
	<g>
		<path fill="#558AA5" d="M415.999,340.231c6.619,2.043,13.258-1.113,19.037-4.089c6.954-3.58,13.544-7.81,20.973-10.38
			c8.848-3.061,18.06-1.939,27.171-0.95c7.918,0.86,15.766,1.089,22.088-4.476c8.729-7.685-4.053-20.365-12.729-12.729
			c0.497-0.438,1.694-0.725-0.179-0.264c-0.044,0.011-2.676-0.013-3.492-0.041c-4.018-0.142-8.03-0.767-12.028-1.154
			c-8.646-0.84-17.297-0.367-25.616,2.257c-7.279,2.295-14.082,6.053-20.731,9.73c-2.524,1.396-5.053,2.775-7.661,4.008
			c0.238-0.112-1.912,0.634-2.445,0.777c0.424-0.114,1.137,0.181,0.398-0.048C409.662,319.442,404.943,336.819,415.999,340.231
			L415.999,340.231z"/>
	</g>
</g>
<path fill="#FFFFFF" d="M427.469,327.728c0,0,9.707,9.701,15.229,5.766c2.512-1.786,2.789-5.925,3.302-15.892
	c0,0-11.614,4.439-18.664,9.268l-0.459,0.236L427.469,327.728z"/>
<g>
	<g>
		<path fill="#558AA5" d="M563.672,263.322c2.679,0.488,3.156,0.916,5.611,2.426c4.838,2.975,8.377,7.968,10.556,13.132
			c6.662,15.792,6.394,35.44-5.398,48.481c-10.645,11.771-26.037,19.168-40.549,24.942c-12.259,4.878-24.975,8.68-37.815,11.685
			c-2.126,0.497-4.259,0.979-6.404,1.389c-5.772,1.102-3.321,9.89,2.424,8.793c23.047-4.398,46.467-12.204,66.915-23.716
			c13.225-7.445,25.946-17.595,31.635-32.081c3.461-8.813,2.785-19.482,1.428-28.631c-1.238-8.35-3.888-16.641-9.07-23.412
			c-4.024-5.258-10.137-10.566-16.907-11.801C560.349,253.481,557.893,262.268,563.672,263.322L563.672,263.322z"/>
	</g>
</g>
<circle fill="#558AA5" cx="478.815" cy="373.179" r="12.243"/>
<circle fill="#558AA5" cx="420.945" cy="373.179" r="12.243"/>
<g>
	<g>
		<path fill="#558AA5" d="M325.154,264.751c-15.079,24.196-25.132,62.311-0.712,83.887c3.01,2.66,5.535,3.234,9.23,4.28
			c5.522,1.563,11.044,3.124,16.566,4.687c15.349,4.343,30.697,8.685,46.047,13.027c8.944,2.53,17.889,5.062,26.834,7.592
			c5.67,1.604,8.073-7.194,2.424-8.793c-23.739-6.716-47.479-13.433-71.219-20.148c-5.752-1.628-11.504-3.255-17.257-4.883
			c-1.552-0.438-3.104-0.878-4.655-1.316c-0.391-0.111-0.782-0.222-1.174-0.332c-0.088-0.025-0.177-0.051-0.265-0.075
			c2.287,0.647-0.435-0.794-1.043-1.333c-14.831-13.104-12.259-34.429-6.542-51.28c2.429-7.162,5.63-14.278,9.638-20.71
			C336.147,264.348,328.256,259.774,325.154,264.751L325.154,264.751z"/>
	</g>
</g>
<g>
	<g>
		<path fill="#70A3C1" d="M373.022,413.225c6.298,13.837,12.596,27.674,18.894,41.511c0-1.534,0-3.067,0-4.602
			c-6.298,12.503-12.596,25.007-18.894,37.511c-2.638,5.236,5.228,9.854,7.873,4.602c3.444-6.837,6.888-13.674,10.332-20.511
			c2.18-4.329,4.359-8.657,6.54-12.985c1.378-2.735,3.438-5.506,2.021-8.616c-6.298-13.837-12.596-27.674-18.894-41.511
			C378.463,403.277,370.605,407.916,373.022,413.225L373.022,413.225z"/>
	</g>
</g>
<g>
	<g>
		<path fill="#70A3C1" d="M499.172,408.623c-8.098,13.837-16.195,27.674-24.293,41.511c-0.795,1.357-0.875,3.251,0,4.602
			c8.098,12.504,16.195,25.008,24.293,37.511c3.183,4.916,11.08,0.35,7.873-4.602c-8.098-12.504-16.195-25.008-24.293-37.511
			c0,1.534,0,3.067,0,4.602c8.098-13.837,16.195-27.674,24.293-41.511C510.021,408.139,502.139,403.552,499.172,408.623
			L499.172,408.623z"/>
	</g>
</g>
<ellipse fill="#70A3C1" cx="363.018" cy="492.875" rx="17.197" ry="2.932"/>
<ellipse fill="#70A3C1" cx="516.136" cy="492.225" rx="17.197" ry="2.932"/>
</svg>
