<?xml version="1.0" encoding="utf-8"?>
<!-- Generator: Adobe Illustrator 16.0.0, SVG Export Plug-In . SVG Version: 6.00 Build 0)  -->
<!DOCTYPE svg PUBLIC "-//W3C//DTD SVG 1.1//EN" "http://www.w3.org/Graphics/SVG/1.1/DTD/svg11.dtd">
<svg version="1.1" id="Layer_1" xmlns="http://www.w3.org/2000/svg" xmlns:xlink="http://www.w3.org/1999/xlink" x="0px" y="0px"
	 width="841.89px" height="595.28px" viewBox="0 0 841.89 595.28" enable-background="new 0 0 841.89 595.28" xml:space="preserve">
<path fill="#70A3C1" d="M520.908,430.55c111.015-43.38,25.908-114.076,25.908-114.076c56.938-39.789,33.249-161.049,33.249-161.049
	c6.55-1.604,12.829-6.432,15.383-9.53c4.283-5.196,6.808-11.89,6.679-19.151c-0.288-16.184-13.64-29.07-29.826-28.782
	c-16.183,0.287-29.068,13.64-28.78,29.823c0.069,3.9,0.956,7.594,2.398,10.973c-113.57-23.386-208.242,3.702-208.242,3.702
	c1.321-3.427,2.228-7.069,2.157-10.97c-0.288-16.184-13.641-29.069-29.824-28.781c-16.184,0.287-29.071,13.641-28.783,29.824
	c0.129,7.263,2.891,13.861,7.356,18.903c4.115,4.645,9.679,7.969,15.967,9.273c0,0-20.017,122.038,38.303,159.777
	c0,0-81.925,83.499,33.873,111.73C376.726,432.217,489.227,442.929,520.908,430.55z"/>
<circle fill="#FFFFFF" cx="387.511" cy="225.009" r="26.705"/>
<circle fill="#FFFFFF" cx="499.315" cy="223.022" r="26.705"/>
<circle cx="395.853" cy="228.905" r="11.447"/>
<circle cx="507.655" cy="226.917" r="11.446"/>
<circle fill="#FFFFFF" cx="402.317" cy="223.367" r="1.628"/>
<circle fill="#FFFFFF" cx="512.683" cy="220.427" r="1.628"/>
<g>
	<g>
		<path fill="#558AA5" d="M476.103,194.644c7.098,4.367,14,2.175,21.315-0.721c7.562-2.994,20.206-11.572,26.532-2.707
			c1.45,2.032,4.841,0.084,3.374-1.973c-12.876-18.045-33.929,11.452-49.249,2.025C475.922,189.944,473.961,193.325,476.103,194.644
			L476.103,194.644z"/>
	</g>
</g>
<g>
	<g>
		<path fill="#558AA5" d="M364.794,204.375c5-10.016,12.752-9.091,22.528-10.047c6.87-0.672,16.445-10.43,21.729-2.896
			c1.435,2.046,4.825,0.097,3.374-1.973c-7.065-10.074-15.645-1.33-24.473,0.829c-3.053,0.746-6.561,0.186-9.704,0.497
			c-2.417,0.239-4.768,0.765-7.032,1.642c-4.639,1.799-7.638,5.651-9.796,9.975C360.298,204.649,363.669,206.63,364.794,204.375
			L364.794,204.375z"/>
	</g>
</g>
<g>
	<g>
		<path fill="#558AA5" d="M404.616,336.722c6.862,3.159,13.507,1.523,20.315-0.951c8.177-2.974,16.095-6.383,24.716-7.909
			c8.25-1.46,16.886,1.36,24.804,3.302c6.898,1.69,15.065,3.318,21.403-0.93c9.587-6.426,0.588-22.025-9.085-15.543
			c-1.392,0.933-0.151,0.3,0.493,0.214c-0.837,0.111-2.499,0.05-2.96-0.021c-3.611-0.549-7.162-1.602-10.704-2.474
			c-8.086-1.991-16.424-3.377-24.754-2.458c-8.178,0.903-15.835,3.523-23.472,6.463c-2.919,1.123-5.829,2.26-8.8,3.24
			c-1.383,0.456-2.79,0.803-4.216,1.086c0.829-0.124,0.728-0.154-0.305-0.091c0.603,0.007,1.152,0.184,1.648,0.528
			c-4.457-2.051-9.657-1.307-12.314,3.229C399.091,328.326,400.159,334.67,404.616,336.722L404.616,336.722z"/>
	</g>
</g>
<path fill="#FFFFFF" d="M418.671,326.393c0,0,8.3,10.929,14.308,7.78c2.73-1.43,3.566-5.492,5.428-15.298
	c0,0-12.11,2.822-19.75,6.648l-0.487,0.173L418.671,326.393z"/>
<g>
	<g>
		<path fill="#558AA5" d="M563.613,271.434c1.836,0.452,2.897,1.054,5.423,2.828c4.451,3.126,7.716,8.608,9.568,13.872
			c3.334,9.477,3.705,21.123,1.68,30.903c-1.38,6.668-5.391,12.263-10.161,16.961c-11.229,11.06-26.989,17.389-41.696,22.265
			c-12.552,4.162-25.501,7.207-38.528,9.452c-1.592,0.274-3.187,0.529-4.784,0.77c-1.056,0.158-2.356,0.323-0.896,0.135
			c-5.749,0.738-5.821,9.866,0,9.119c23.248-2.985,46.758-9.146,67.975-19.135c13.418-6.318,27.299-15.454,34.037-29.157
			c4.178-8.498,4.5-18.437,4.046-27.722c-0.428-8.757-2.516-17.598-7.097-25.14c-3.689-6.071-10.007-12.188-17.143-13.944
			C560.327,261.235,557.905,270.029,563.613,271.434L563.613,271.434z"/>
	</g>
</g>
<circle fill="#558AA5" cx="478.815" cy="373.179" r="12.243"/>
<circle fill="#558AA5" cx="420.945" cy="373.179" r="12.243"/>
<g>
	<g>
		<path fill="#558AA5" d="M325.038,258.507c-16.848,23.692-28.831,61.729-4.537,84.535c2.375,2.229,5.541,2.94,8.558,3.996
			c5.531,1.936,11.062,3.871,16.593,5.806c15.071,5.273,30.142,10.547,45.212,15.819c8.49,2.971,16.979,5.941,25.469,8.912
			c5.565,1.947,7.937-6.864,2.424-8.793c-23.287-8.148-46.574-16.296-69.861-24.444c-5.643-1.974-11.286-3.948-16.928-5.923
			c-1.522-0.533-3.044-1.065-4.566-1.598c-0.384-0.135-0.768-0.269-1.151-0.403c-0.086-0.03-0.173-0.061-0.26-0.091
			c2.371,0.829-0.429-1.059-0.913-1.542c-13.944-13.941-9.887-35.702-2.952-51.993c2.908-6.832,6.473-13.614,10.786-19.68
			C336.328,258.305,328.415,253.758,325.038,258.507L325.038,258.507z"/>
	</g>
</g>
<g>
	<g>
		<path fill="#70A3C1" d="M373.563,411.711c-4.086,14.616-8.171,29.232-12.257,43.849c-1.451,5.191,2.661,11.744,4.424,16.496
			c2.611,7.033,5.222,14.067,7.833,21.101c2.028,5.462,10.844,3.101,8.793-2.424c-2.499-6.731-4.998-13.464-7.497-20.194
			c-1.401-3.773-2.801-7.547-4.202-11.32c-0.296-0.799-0.593-1.598-0.89-2.396c0.732,1.972-0.236,3.19,0.432,0.803
			c4.052-14.496,8.104-28.992,12.157-43.489C383.941,408.461,375.143,406.056,373.563,411.711L373.563,411.711z"/>
	</g>
</g>
<g>
	<g>
		<path fill="#70A3C1" d="M499.712,414.135c3.189,13.16,6.378,26.32,9.566,39.48c-0.595-2.456,0.151-2.984-0.341-0.951
			c-0.368,1.517-0.735,3.034-1.103,4.551c-1.072,4.426-2.145,8.852-3.217,13.276c-1.635,6.747-3.27,13.494-4.905,20.241
			c-1.384,5.714,7.408,8.138,8.793,2.424c1.635-6.747,3.27-13.493,4.905-20.24c1.072-4.426,2.145-8.852,3.217-13.277
			c0.542-2.238,1.615-4.858,1.615-7.204c0-2.119-0.955-4.479-1.444-6.5c-1.129-4.661-2.259-9.321-3.388-13.982
			c-1.635-6.747-3.27-13.494-4.905-20.241C507.121,405.997,498.328,408.421,499.712,414.135L499.712,414.135z"/>
	</g>
</g>
<ellipse fill="#70A3C1" cx="364.018" cy="494.874" rx="17.197" ry="2.932"/>
<ellipse fill="#70A3C1" cx="517.136" cy="494.224" rx="17.197" ry="2.932"/>
</svg>
