<?xml version="1.0" encoding="utf-8"?>
<!-- Generator: Adobe Illustrator 16.0.0, SVG Export Plug-In . SVG Version: 6.00 Build 0)  -->
<!DOCTYPE svg PUBLIC "-//W3C//DTD SVG 1.1//EN" "http://www.w3.org/Graphics/SVG/1.1/DTD/svg11.dtd">
<svg version="1.1" id="Layer_1" xmlns="http://www.w3.org/2000/svg" xmlns:xlink="http://www.w3.org/1999/xlink" x="0px" y="0px"
	 width="841.89px" height="595.28px" viewBox="0 0 841.89 595.28" enable-background="new 0 0 841.89 595.28" xml:space="preserve">
<path fill="#70A3C1" d="M498.536,439.62c115.79-28.266,40.817-109.631,40.817-109.631c61.715-31.881,54.325-155.211,54.325-155.211
	c6.705-0.722,13.569-4.674,16.512-7.406c4.935-4.582,8.325-10.88,9.161-18.096c1.862-16.078-9.661-30.623-25.743-32.485
	c-16.078-1.862-30.621,9.663-32.483,25.741c-0.448,3.875-0.06,7.652,0.921,11.193c-109.463-38.25-206.892-23.964-206.892-23.964
	c1.765-3.222,3.146-6.71,3.594-10.586c1.862-16.079-9.662-30.622-25.741-32.485c-16.078-1.861-30.624,9.663-32.486,25.742
	c-0.836,7.215,1.025,14.121,4.783,19.712c3.463,5.149,8.535,9.183,14.595,11.31c0,0-36.033,118.303,16.763,163.447
	c0,0-92.281,71.891,18.747,115.238C355.408,422.14,465.492,447.685,498.536,439.62z"/>
<path fill="none" stroke="#5D6733" stroke-width="0.6513" stroke-miterlimit="10" d="M608.179,478.124"/>
<circle fill="#FFFFFF" cx="393.594" cy="218.195" r="26.705"/>
<circle fill="#FFFFFF" cx="504.673" cy="231.062" r="26.705"/>
<circle cx="401.345" cy="223.164" r="11.447"/>
<circle cx="512.422" cy="236.029" r="11.446"/>
<circle fill="#FFFFFF" cx="408.487" cy="218.532" r="1.628"/>
<circle fill="#FFFFFF" cx="518.267" cy="230.264" r="1.628"/>
<g>
	<g>
		<path fill="#558AA5" d="M485.251,199.694c7.111,5.805,14.96,3.98,23.281,1.795c7.81-2.051,19.936-7.899,24.895,1.549
			c1.171,2.232,4.544,0.257,3.374-1.973c-10.115-19.276-35.192,6.963-48.786-4.135C486.08,195.352,483.298,198.1,485.251,199.694
			L485.251,199.694z"/>
	</g>
</g>
<g>
	<g>
		<path fill="#558AA5" d="M373.961,194.514c5.792-8.518,13.532-7.777,22.782-6.765c3.823,0.418,7.838-1.064,11.388-2.257
			c4.741-1.592,8.64-2.73,11.384,2.515c1.168,2.233,4.541,0.258,3.374-1.973c-5.734-10.963-15.889-2.696-24.882-2.168
			c-5.793,0.341-11.104-1.525-16.957,0.061c-4.602,1.246-7.879,4.814-10.463,8.614C369.166,194.632,372.554,196.584,373.961,194.514
			L373.961,194.514z"/>
	</g>
</g>
<g>
	<g>
		<path fill="#558AA5" d="M396.714,331.86c6.133,3.884,13.82,2.291,20.443,0.84c8.247-1.806,16.254-4.162,24.761-4.254
			c15.383-0.166,31.069,15.355,46.168,7.885c10.404-5.148,1.281-20.672-9.085-15.543c0.526-0.26,2.496-0.355,0.49-0.331
			c1.129-0.014-2.103-0.468-2.651-0.622c-3.359-0.942-6.597-2.383-9.835-3.664c-7.619-3.014-15.263-5.195-23.482-5.688
			c-8.099-0.485-16.432,1.392-24.268,3.23c-3.524,0.826-7.03,1.719-10.589,2.387c-1.161,0.219-1.42,0.188-2.887,0.209
			c-2.305,0.031,1.522,0.96,0.019,0.008C395.961,310.087,386.939,325.669,396.714,331.86L396.714,331.86z"/>
	</g>
</g>
<path fill="#FFFFFF" d="M411.024,322.816c0,0,6.776,11.933,13.149,9.61c2.896-1.055,4.263-4.971,7.409-14.442
	c0,0-12.377,1.19-20.457,3.969l-0.506,0.106L411.024,322.816z"/>
<g>
	<g>
		<path fill="#558AA5" d="M563.613,271.434c1.836,0.452,2.897,1.054,5.423,2.828c4.452,3.126,7.716,8.608,9.568,13.872
			c3.335,9.477,3.706,21.123,1.681,30.903c-1.381,6.668-5.392,12.263-10.161,16.961c-11.229,11.06-26.989,17.389-41.696,22.265
			c-12.553,4.162-25.501,7.207-38.528,9.452c-1.592,0.274-3.187,0.529-4.784,0.77c-1.056,0.158-2.356,0.323-0.896,0.135
			c-5.749,0.738-5.821,9.866,0,9.119c23.248-2.985,46.758-9.146,67.975-19.135c13.418-6.318,27.299-15.454,34.037-29.157
			c4.178-8.498,4.5-18.437,4.046-27.722c-0.428-8.757-2.515-17.598-7.097-25.14c-3.689-6.071-10.007-12.188-17.143-13.944
			C560.327,261.235,557.905,270.029,563.613,271.434L563.613,271.434z"/>
	</g>
</g>
<circle fill="#558AA5" cx="478.815" cy="373.179" r="12.243"/>
<circle fill="#558AA5" cx="420.945" cy="373.179" r="12.243"/>
<g>
	<g>
		<path fill="#558AA5" d="M325.038,258.507c-16.848,23.692-28.831,61.729-4.537,84.535c2.375,2.229,5.541,2.94,8.558,3.996
			c5.531,1.936,11.062,3.871,16.593,5.806c15.071,5.273,30.142,10.547,45.212,15.819c8.49,2.971,16.979,5.941,25.469,8.912
			c5.565,1.947,7.937-6.864,2.424-8.793c-23.287-8.148-46.574-16.296-69.861-24.444c-5.643-1.974-11.286-3.948-16.928-5.923
			c-1.522-0.533-3.044-1.065-4.566-1.598c-0.384-0.135-0.768-0.269-1.151-0.403c-0.087-0.03-0.174-0.061-0.261-0.091
			c2.37,0.829-0.429-1.059-0.913-1.542c-13.944-13.941-9.887-35.702-2.952-51.993c2.908-6.832,6.473-13.614,10.786-19.68
			C336.328,258.305,328.415,253.758,325.038,258.507L325.038,258.507z"/>
	</g>
</g>
<circle fill="#70A3C1" cx="370.954" cy="414.396" r="12.375"/>
<circle fill="#70A3C1" cx="496.761" cy="425.516" r="12.376"/>
<g>
	<g>
		<path fill="#70A3C1" d="M373.563,411.711c-4.085,14.616-8.171,29.232-12.257,43.849c-1.451,5.191,2.661,11.744,4.424,16.496
			c2.611,7.033,5.222,14.067,7.833,21.101c2.028,5.462,10.844,3.101,8.793-2.424c-2.499-6.731-4.998-13.464-7.497-20.194
			c-1.401-3.773-2.802-7.547-4.202-11.32c-0.297-0.799-0.593-1.598-0.89-2.396c0.732,1.972-0.236,3.19,0.432,0.803
			c4.052-14.496,8.104-28.992,12.157-43.489C383.941,408.461,375.143,406.056,373.563,411.711L373.563,411.711z"/>
	</g>
</g>
<g>
	<g>
		<path fill="#70A3C1" d="M499.712,414.135c3.189,13.16,6.378,26.32,9.567,39.48c-0.596-2.456,0.15-2.984-0.342-0.951
			c-0.368,1.517-0.735,3.034-1.103,4.551c-1.072,4.426-2.145,8.852-3.217,13.276c-1.635,6.747-3.27,13.494-4.905,20.241
			c-1.384,5.714,7.409,8.138,8.793,2.424c1.635-6.747,3.27-13.493,4.905-20.24c1.072-4.426,2.145-8.852,3.217-13.277
			c0.542-2.238,1.615-4.858,1.615-7.204c0-2.119-0.954-4.479-1.444-6.5c-1.129-4.661-2.258-9.321-3.388-13.982
			c-1.635-6.747-3.27-13.494-4.905-20.241C507.121,405.997,498.328,408.421,499.712,414.135L499.712,414.135z"/>
	</g>
</g>
<ellipse fill="#70A3C1" cx="364.018" cy="494.874" rx="17.197" ry="2.932"/>
<ellipse fill="#70A3C1" cx="517.136" cy="494.224" rx="17.197" ry="2.932"/>
</svg>
