<?xml version="1.0" encoding="utf-8"?>
<!-- Generator: Adobe Illustrator 16.0.0, SVG Export Plug-In . SVG Version: 6.00 Build 0)  -->
<!DOCTYPE svg PUBLIC "-//W3C//DTD SVG 1.1//EN" "http://www.w3.org/Graphics/SVG/1.1/DTD/svg11.dtd">
<svg version="1.1" id="Layer_1" xmlns="http://www.w3.org/2000/svg" xmlns:xlink="http://www.w3.org/1999/xlink" x="0px" y="0px"
	 width="841.89px" height="595.28px" viewBox="0 0 841.89 595.28" enable-background="new 0 0 841.89 595.28" xml:space="preserve">
<path fill="#70A3C1" d="M520.908,430.551c111.015-43.381,25.908-114.078,25.908-114.078
	c56.938-39.788,33.249-161.048,33.249-161.048c6.55-1.604,12.829-6.432,15.383-9.53c4.283-5.196,6.808-11.89,6.679-19.151
	c-0.288-16.184-13.64-29.07-29.826-28.782c-16.183,0.287-29.068,13.64-28.78,29.823c0.069,3.9,0.956,7.594,2.398,10.973
	c-113.57-23.386-208.242,3.702-208.242,3.702c1.321-3.427,2.228-7.069,2.157-10.97c-0.288-16.184-13.641-29.069-29.824-28.781
	c-16.184,0.287-29.071,13.641-28.783,29.824c0.129,7.263,2.891,13.861,7.356,18.903c4.115,4.645,9.679,7.969,15.967,9.273
	c0,0-20.017,122.038,38.303,159.777c0,0-81.925,83.5,33.873,111.73C376.726,432.217,489.227,442.93,520.908,430.551z"/>
<circle fill="#FFFFFF" cx="387.511" cy="225.009" r="26.705"/>
<circle fill="#FFFFFF" cx="499.315" cy="223.022" r="26.705"/>
<circle cx="385.853" cy="218.905" r="11.447"/>
<circle cx="497.655" cy="216.917" r="11.446"/>
<circle fill="#FFFFFF" cx="392.317" cy="213.367" r="1.628"/>
<circle fill="#FFFFFF" cx="502.683" cy="210.427" r="1.628"/>
<g>
	<g>
		<path fill="#558AA5" d="M476.103,194.644c7.098,4.367,14,2.175,21.315-0.721c7.562-2.994,20.206-11.572,26.531-2.707
			c1.45,2.032,4.842,0.084,3.375-1.973c-12.877-18.045-33.93,11.452-49.249,2.025C475.923,189.944,473.961,193.325,476.103,194.644
			L476.103,194.644z"/>
	</g>
</g>
<g>
	<g>
		<path fill="#558AA5" d="M364.795,204.375c5-10.016,12.752-9.091,22.527-10.047c6.869-0.672,16.445-10.43,21.729-2.896
			c1.436,2.046,4.825,0.097,3.375-1.973c-7.065-10.074-15.646-1.33-24.474,0.829c-3.053,0.746-6.561,0.186-9.704,0.497
			c-2.416,0.239-4.768,0.765-7.031,1.642c-4.639,1.799-7.638,5.651-9.797,9.975C360.298,204.649,363.669,206.63,364.795,204.375
			L364.795,204.375z"/>
	</g>
</g>
<g>
	<g>
		<path fill="#558AA5" d="M404.616,336.722c6.862,3.158,13.506,1.523,20.314-0.952c8.178-2.974,16.095-6.382,24.716-7.908
			c8.25-1.46,16.886,1.36,24.804,3.301c6.898,1.69,15.066,3.317,21.404-0.93c9.587-6.426,0.588-22.026-9.086-15.543
			c-1.391,0.933-0.15,0.3,0.494,0.214c-0.838,0.111-2.499,0.05-2.961-0.021c-3.61-0.549-7.162-1.602-10.703-2.474
			c-8.087-1.99-16.424-3.376-24.754-2.457c-8.178,0.903-15.835,3.523-23.472,6.462c-2.919,1.124-5.829,2.261-8.8,3.241
			c-1.383,0.455-2.79,0.802-4.217,1.086c0.83-0.125,0.729-0.155-0.305-0.092c0.604,0.008,1.152,0.185,1.648,0.529
			c-4.456-2.051-9.656-1.307-12.313,3.229C399.092,328.326,400.159,334.67,404.616,336.722L404.616,336.722z"/>
	</g>
</g>
<path fill="#FFFFFF" d="M418.671,326.393c0,0,8.3,10.928,14.308,7.779c2.73-1.43,3.566-5.491,5.428-15.297
	c0,0-12.11,2.822-19.75,6.648l-0.487,0.172L418.671,326.393z"/>
<g>
	<g>
		<path fill="#558AA5" d="M563.613,271.434c1.837,0.452,2.897,1.054,5.423,2.828c4.451,3.126,7.716,8.608,9.568,13.872
			c3.334,9.477,3.705,21.123,1.68,30.903c-1.381,6.668-5.391,12.263-10.161,16.961c-11.228,11.06-26.989,17.389-41.696,22.265
			c-12.552,4.162-25.501,7.207-38.528,9.452c-1.591,0.274-3.187,0.529-4.783,0.77c-1.056,0.158-2.356,0.323-0.896,0.135
			c-5.749,0.738-5.821,9.866,0,9.119c23.248-2.985,46.758-9.146,67.975-19.135c13.418-6.318,27.299-15.454,34.037-29.157
			c4.178-8.498,4.5-18.437,4.046-27.722c-0.428-8.757-2.516-17.598-7.097-25.14c-3.689-6.071-10.008-12.188-17.144-13.944
			C560.327,261.235,557.905,270.029,563.613,271.434L563.613,271.434z"/>
	</g>
</g>
<g>
	<g>
		<path fill="#558AA5" d="M325.038,258.507c-16.849,23.692-28.831,61.729-4.537,84.536c2.375,2.229,5.541,2.94,8.558,3.996
			c5.531,1.936,11.063,3.87,16.593,5.806c15.071,5.273,30.142,10.546,45.213,15.819c8.489,2.97,16.979,5.94,25.469,8.911
			c5.565,1.947,7.937-6.864,2.424-8.793c-23.287-8.147-46.574-16.296-69.861-24.443c-5.643-1.975-11.285-3.949-16.928-5.923
			c-1.522-0.532-3.044-1.065-4.566-1.598c-0.384-0.135-0.768-0.269-1.151-0.403c-0.087-0.03-0.173-0.061-0.26-0.091
			c2.37,0.829-0.429-1.059-0.913-1.542c-13.943-13.942-9.888-35.702-2.951-51.994c2.908-6.832,6.473-13.614,10.785-19.68
			C336.327,258.305,328.415,253.758,325.038,258.507L325.038,258.507z"/>
	</g>
</g>
<g>
	<g>
		<path fill="#70A3C1" d="M372.563,411.712c-4.157,14.024-8.314,28.049-12.472,42.073c-0.623,2.104,0.193,3.794,0.865,5.742
			c1.444,4.184,2.889,8.368,4.332,12.552c2.425,7.025,4.85,14.052,7.274,21.078c1.906,5.523,10.717,3.15,8.793-2.424
			c-2.317-6.714-4.634-13.428-6.951-20.142c-1.418-4.109-2.836-8.219-4.255-12.328c-0.407-1.182-0.815-2.363-1.223-3.545
			c-0.598-1.732-0.591,3.341,0.028,1.252c4.134-13.944,8.267-27.89,12.4-41.835C383.03,408.484,374.229,406.087,372.563,411.712
			L372.563,411.712z"/>
	</g>
</g>
<g>
	<g>
		<path fill="#70A3C1" d="M498.712,414.136c5.331,21.733,10.662,43.467,15.993,65.2c0.391-1.479,0.782-2.957,1.173-4.436
			c-5.331,4.606-10.662,9.214-15.993,13.821c-4.457,3.852,2.022,10.271,6.447,6.447c5.331-4.607,10.662-9.214,15.993-13.821
			c1.23-1.063,1.541-2.935,1.173-4.436c-5.331-21.733-10.662-43.467-15.993-65.2C506.104,406.003,497.312,408.425,498.712,414.136
			L498.712,414.136z"/>
	</g>
</g>
<ellipse fill="#70A3C1" cx="363.018" cy="494.875" rx="17.197" ry="2.932"/>
<ellipse fill="#70A3C1" cx="516.136" cy="494.225" rx="17.197" ry="2.932"/>
<circle fill="#558AA5" cx="478.815" cy="373.179" r="12.243"/>
<circle fill="#558AA5" cx="420.945" cy="373.179" r="12.243"/>
</svg>
