<?xml version="1.0" encoding="utf-8"?>
<!-- Generator: Adobe Illustrator 16.0.0, SVG Export Plug-In . SVG Version: 6.00 Build 0)  -->
<!DOCTYPE svg PUBLIC "-//W3C//DTD SVG 1.1//EN" "http://www.w3.org/Graphics/SVG/1.1/DTD/svg11.dtd">
<svg version="1.1" id="Layer_1" xmlns="http://www.w3.org/2000/svg" xmlns:xlink="http://www.w3.org/1999/xlink" x="0px" y="0px"
	 width="841.89px" height="595.28px" viewBox="0 0 841.89 595.28" enable-background="new 0 0 841.89 595.28" xml:space="preserve">
<path fill="#70A3C1" d="M533.264,423.523c107.437-51.61,17.251-115.703,17.251-115.703c53.784-43.96,21.037-163.093,21.037-163.093
	c6.411-2.093,12.309-7.38,14.623-10.661c3.88-5.504,5.894-12.368,5.218-19.6c-1.505-16.116-15.788-27.961-31.906-26.457
	c-16.115,1.504-27.96,15.789-26.455,31.905c0.362,3.884,1.524,7.5,3.218,10.76c-115.009-14.773-207.374,19.361-207.374,19.361
	c1.061-3.517,1.688-7.216,1.326-11.1c-1.505-16.116-15.79-27.961-31.906-26.457c-16.116,1.505-27.962,15.79-26.457,31.906
	c0.675,7.232,3.925,13.604,8.758,18.296c4.453,4.322,10.251,7.218,16.619,8.046c0,0-10.778,123.198,50.216,156.443
	c0,0-75.409,89.427,42.185,108.864C389.616,436.034,502.604,438.251,533.264,423.523z"/>
<path fill="none" stroke="#5D6733" stroke-width="0.6513" stroke-miterlimit="10" d="M608.179,478.125"/>
<circle fill="#FFFFFF" cx="384.78" cy="228.603" r="26.704"/>
<circle fill="#FFFFFF" cx="496.117" cy="218.208" r="26.704"/>
<circle cx="395.63" cy="221.662" r="11.447"/>
<circle cx="506.966" cy="211.268" r="11.446"/>
<circle fill="#FFFFFF" cx="401.659" cy="215.653" r="1.628"/>
<circle fill="#FFFFFF" cx="511.491" cy="204.418" r="1.629"/>
<g>
	<g>
		<path fill="#558AA5" d="M470.705,191.587c7.604,3.922,14.399,1.121,21.657-2.406c7.578-3.681,18.99-12.86,26.151-4.272
			c1.616,1.938,4.365-0.843,2.764-2.764c-13.86-16.62-32.973,14.127-48.6,6.067C470.442,187.06,468.465,190.432,470.705,191.587
			L470.705,191.587z"/>
	</g>
</g>
<g>
	<g>
		<path fill="#558AA5" d="M360.702,209.399c4.158-10.181,12.385-9.833,21.834-11.416c7.156-1.199,15.239-11.775,21.423-4.211
			c1.596,1.952,4.344-0.83,2.763-2.764c-7.601-9.296-15.814,0.317-24.129,2.939c-5.583,1.76-11.32,0.912-16.84,3.545
			c-4.467,2.131-7.023,6.472-8.819,10.868C355.981,210.694,359.763,211.7,360.702,209.399L360.702,209.399z"/>
	</g>
</g>
<g>
	<g>
		<path fill="#558AA5" d="M411.794,339.299c6.564,2.457,13.742-0.912,19.657-3.549c7.462-3.328,14.538-7.073,22.516-9.088
			c15.722-3.972,34.155,8.505,48.016-2.329c3.872-3.027,3.15-9.577,0-12.728c-3.783-3.783-8.867-3.019-12.729,0
			c0.539-0.421,0.552-0.669,1.262-0.751c-1.521,0.175-3.09,0.009-4.604-0.121c-3.529-0.304-7.059-1.152-10.561-1.696
			c-8.851-1.374-17.371-1.671-26.169,0.268c-7.65,1.685-14.917,5.276-21.95,8.621c-2.343,1.114-4.67,2.275-7.096,3.202
			c-1.244,0.475-2.52,0.823-3.82,1.103c0.4-0.086,0.931-0.038,0.263-0.288c-4.6-1.722-9.858,1.876-11.071,6.286
			C404.118,333.279,407.204,337.581,411.794,339.299L411.794,339.299z"/>
	</g>
</g>
<path fill="#FFFFFF" d="M423.479,327.354c0,0,9.1,10.272,14.852,6.681c2.615-1.631,3.144-5.745,4.262-15.662
	c0,0-11.863,3.726-19.193,8.115l-0.473,0.209L423.479,327.354z"/>
<g>
	<g>
		<path fill="#558AA5" d="M563.613,271.434c1.837,0.452,2.897,1.054,5.423,2.828c4.451,3.125,7.716,8.609,9.568,13.872
			c3.334,9.477,3.705,21.123,1.68,30.903c-1.381,6.668-5.391,12.263-10.161,16.96c-11.228,11.06-26.989,17.389-41.696,22.266
			c-12.552,4.162-25.501,7.207-38.528,9.451c-1.591,0.274-3.187,0.53-4.783,0.77c-1.056,0.159-2.356,0.323-0.896,0.136
			c-5.749,0.738-5.821,9.866,0,9.118c23.248-2.985,46.758-9.145,67.975-19.134c13.418-6.318,27.299-15.454,34.037-29.158
			c4.178-8.498,4.5-18.436,4.046-27.721c-0.428-8.757-2.516-17.598-7.097-25.139c-3.689-6.072-10.008-12.189-17.144-13.945
			C560.327,261.236,557.905,270.029,563.613,271.434L563.613,271.434z"/>
	</g>
</g>
<circle fill="#558AA5" cx="478.815" cy="373.179" r="12.243"/>
<circle fill="#558AA5" cx="420.945" cy="373.179" r="12.243"/>
<g>
	<g>
		<path fill="#558AA5" d="M325.038,258.506c-16.848,23.692-28.832,61.729-4.537,84.536c2.375,2.229,5.541,2.94,8.558,3.996
			c5.531,1.935,11.063,3.871,16.594,5.806c15.07,5.273,30.141,10.546,45.212,15.819c8.49,2.971,16.979,5.941,25.469,8.912
			c5.565,1.947,7.938-6.864,2.425-8.793c-23.287-8.148-46.574-16.296-69.861-24.444c-5.644-1.974-11.286-3.949-16.929-5.923
			c-1.522-0.533-3.044-1.065-4.566-1.598c-0.384-0.134-0.768-0.269-1.151-0.403c-0.086-0.03-0.174-0.061-0.26-0.091
			c2.37,0.83-0.43-1.059-0.913-1.542c-13.944-13.942-9.888-35.702-2.952-51.994c2.909-6.832,6.473-13.614,10.787-19.679
			C336.328,258.305,328.415,253.758,325.038,258.506L325.038,258.506z"/>
	</g>
</g>
<circle fill="#70A3C1" cx="391.106" cy="422.48" r="12.376"/>
<circle fill="#70A3C1" cx="517.276" cy="416.807" r="12.376"/>
<g>
	<g>
		<path fill="#70A3C1" d="M372.399,422.923c1.91,14.53,3.819,29.06,5.729,43.589c0.124,0.946,0.248,1.892,0.373,2.838
			c0.218,1.656,0.432-1.513,0.131,0.041c-0.65,3.36-1.302,6.721-1.952,10.081c-1.373,7.087-2.746,14.174-4.119,21.261
			c-1.113,5.744,7.675,8.193,8.793,2.424c1.373-7.087,2.746-14.173,4.119-21.26c0.962-4.967,2.505-9.819,1.843-14.857
			c-1.933-14.705-3.865-29.41-5.799-44.116C380.763,417.18,371.635,417.106,372.399,422.923L372.399,422.923z"/>
	</g>
</g>
<g>
	<g>
		<path fill="#70A3C1" d="M498.712,421.711c-1.031,6.585-2.063,13.17-3.094,19.755c-1.053,6.721-3.257,14.138-3.257,20.967
			c0,6.509,2.1,13.576,3.103,19.98c1.082,6.914,2.165,13.829,3.248,20.743c0.908,5.796,9.693,3.327,8.793-2.424
			c-2.061-13.16-4.121-26.319-6.183-39.479c0.498,3.179-0.046,2.652,0.228,0.904c0.245-1.562,0.49-3.124,0.734-4.686
			c0.709-4.527,1.418-9.055,2.127-13.582c1.031-6.585,2.063-13.17,3.094-19.755C508.405,418.385,499.62,415.915,498.712,421.711
			L498.712,421.711z"/>
	</g>
</g>
<ellipse fill="#70A3C1" cx="363.018" cy="504.875" rx="17.197" ry="2.932"/>
<ellipse fill="#70A3C1" cx="516.136" cy="504.224" rx="17.197" ry="2.932"/>
</svg>
