<?xml version="1.0" encoding="utf-8"?>
<!-- Generator: Adobe Illustrator 16.0.0, SVG Export Plug-In . SVG Version: 6.00 Build 0)  -->
<!DOCTYPE svg PUBLIC "-//W3C//DTD SVG 1.1//EN" "http://www.w3.org/Graphics/SVG/1.1/DTD/svg11.dtd">
<svg version="1.1" id="Layer_1" xmlns="http://www.w3.org/2000/svg" xmlns:xlink="http://www.w3.org/1999/xlink" x="0px" y="0px"
	 width="841.89px" height="595.28px" viewBox="0 0 841.89 595.28" enable-background="new 0 0 841.89 595.28" xml:space="preserve">
<path fill="#70A3C1" d="M518.404,431.098c111.77-41.4,27.93-113.598,27.93-113.598c57.641-38.771,36.107-160.432,36.107-160.432
	c6.58-1.488,12.943-6.204,15.551-9.256c4.377-5.12,7.02-11.767,7.02-19.03c0-16.187-13.123-29.308-29.309-29.308
	s-29.309,13.121-29.309,29.308c0,3.9,0.82,7.608,2.205,11.013c-113.137-25.4-208.275,0-208.275,0
	c1.383-3.404,2.352-7.029,2.352-10.93c0-16.186-13.123-29.308-29.309-29.308s-29.309,13.122-29.309,29.308
	c0,7.264,2.643,13.91,7.02,19.031c4.031,4.717,9.535,8.141,15.799,9.557c0,0-22.184,121.662,35.455,160.434
	c0,0-83.395,82.029,31.883,112.314C374.215,430.201,486.508,442.912,518.404,431.098z"/>
<path fill="none" stroke="#5D6733" stroke-width="0.6513" stroke-miterlimit="10" d="M608.178,478.125"/>
<circle fill="#FFFFFF" cx="388.683" cy="223.218" r="26.704"/>
<circle fill="#FFFFFF" cx="500.504" cy="223.218" r="26.705"/>
<circle cx="400.131" cy="217.316" r="11.447"/>
<circle cx="511.951" cy="217.316" r="11.447"/>
<circle fill="#FFFFFF" cx="406.692" cy="211.894" r="1.628"/>
<circle fill="#FFFFFF" cx="517.093" cy="210.916" r="1.628"/>
<g>
	<g>
		<path fill="#558AA5" d="M477.828,194.449c7.014,4.489,13.979,2.393,21.33-0.367c7.65-2.873,20.368-11.205,26.557-2.197
			c1.418,2.063,4.807,0.11,3.375-1.973c-12.52-18.221-34.147,10.854-49.289,1.162C477.671,189.711,475.713,193.096,477.828,194.449
			L477.828,194.449z"/>
	</g>
</g>
<g>
	<g>
		<path fill="#558AA5" d="M366.354,202.153c2.137-4.085,4.725-7.104,9.206-8.573c4.433-1.453,8.992-0.68,13.515-1.041
			c6.911-0.553,16.572-10.162,21.758-2.479c1.401,2.076,4.789,0.123,3.375-1.973c-6.576-9.74-14.896-2.259-23.365,0.176
			c-5.586,1.605-11.638,0.012-17.36,1.889c-4.927,1.616-8.179,5.586-10.503,10.028C361.813,202.411,365.185,204.387,366.354,202.153
			L366.354,202.153z"/>
	</g>
</g>
<g>
	<g>
		<path fill="#558AA5" d="M403.936,335.299c6.766,3.262,13.55,1.621,20.346-0.714c7.865-2.702,15.731-6.293,24.055-7.349
			c8.772-1.111,17.162,1.496,25.539,3.707c6.921,1.827,14.962,3.479,21.402-0.672c9.717-6.266,0.702-21.854-9.086-15.543
			c-1.463,0.943-0.14,0.212,0.469,0.142c-0.864,0.1-2.486-0.036-2.953-0.116c-3.602-0.612-7.133-1.729-10.658-2.663
			c-8.048-2.134-16.371-3.625-24.713-2.854c-8.174,0.756-15.912,3.291-23.578,6.087c-2.938,1.071-5.867,2.156-8.855,3.083
			c-0.413,0.129-3.879,0.954-2.791,0.813c-1.982,0.258-1.813-0.293-0.09,0.537c-4.42-2.131-9.69-1.25-12.314,3.229
			C398.378,326.961,399.519,333.169,403.936,335.299L403.936,335.299z"/>
	</g>
</g>
<path fill="#FFFFFF" d="M418.035,325.139c0,0,8.104,11.074,14.166,8.033c2.754-1.381,3.664-5.428,5.699-15.198
	c0,0-12.158,2.606-19.865,6.296l-0.49,0.164L418.035,325.139z"/>
<g>
	<g>
		<path fill="#558AA5" d="M564.824,271.597c19.146-1.517,49.264,3.074,51.311,26.831c1.619,18.787-11.439,35.646-23.978,48.102
			c-11.804,11.727-25.574,21.459-39.857,29.922c-2.96,1.754-5.956,3.475-9.024,5.033c-5.245,2.662-0.629,10.528,4.602,7.873
			c24.88-12.628,49.652-30.975,65.646-54.004c9.898-14.254,15.879-33.277,8.436-49.885c-5.8-12.938-20.487-19.07-33.555-21.516
			c-7.67-1.435-15.777-2.094-23.58-1.476C559.003,262.939,558.958,272.061,564.824,271.597L564.824,271.597z"/>
	</g>
</g>
<circle fill="#558AA5" cx="545.575" cy="385.421" r="12.243"/>
<circle fill="#558AA5" cx="345.821" cy="373.179" r="12.243"/>
<g>
	<g>
		<path fill="#558AA5" d="M326.674,256.871c-7.906,4.573-15.433,9.895-22.64,15.488c-11.574,8.985-23.925,19.715-29.854,33.462
			c-4.911,11.386-2.79,25.189,8.296,32.276c10.616,6.785,21.231,13.57,31.847,20.355c9.732,6.221,19.465,12.441,29.197,18.662
			c4.971,3.178,9.539-4.718,4.602-7.873c-20.107-12.854-40.215-25.705-60.322-38.559c-9.72-6.212-7.932-17.772-2.288-26.766
			c7.771-12.381,20.322-22.033,32.126-30.337c4.424-3.112,8.955-6.127,13.639-8.837
			C336.362,261.802,331.773,253.921,326.674,256.871L326.674,256.871z"/>
	</g>
</g>
<circle fill="#70A3C1" cx="376.959" cy="416.844" r="12.375"/>
<circle fill="#70A3C1" cx="503.109" cy="422.924" r="12.375"/>
<g>
	<g>
		<path fill="#70A3C1" d="M372.563,424.136c2.826,13.159,5.652,26.319,8.478,39.479c-0.566-2.638,0.117-2.906-0.303-0.951
			c-0.325,1.517-0.651,3.034-0.978,4.551c-0.95,4.426-1.9,8.853-2.851,13.278c-1.449,6.746-2.897,13.494-4.347,20.241
			c-1.231,5.733,7.559,8.172,8.793,2.424c1.449-6.747,2.897-13.494,4.347-20.241c0.95-4.426,1.9-8.852,2.851-13.277
			c0.485-2.26,1.45-4.859,1.45-7.205c0-2.116-0.861-4.463-1.299-6.5c-1.001-4.66-2.001-9.32-3.002-13.981
			c-1.449-6.747-2.897-13.493-4.347-20.24C380.121,415.964,371.331,418.402,372.563,424.136L372.563,424.136z"/>
	</g>
</g>
<g>
	<g>
		<path fill="#70A3C1" d="M498.713,421.712c-4.082,14.101-8.165,28.202-12.248,42.304c-0.609,2.103,0.186,3.776,0.85,5.726
			c1.418,4.157,2.836,8.314,4.254,12.472c2.382,6.981,4.764,13.963,7.145,20.944c1.887,5.532,10.696,3.157,8.793-2.424
			c-2.275-6.671-4.551-13.343-6.826-20.014c-1.394-4.083-2.786-8.166-4.179-12.249c-0.4-1.175-0.802-2.349-1.202-3.523
			c-0.59-1.729-0.579,3.351,0.028,1.252c4.06-14.021,8.119-28.042,12.179-42.063C509.145,418.475,500.345,416.074,498.713,421.712
			L498.713,421.712z"/>
	</g>
</g>
<ellipse fill="#70A3C1" cx="363.018" cy="504.875" rx="17.197" ry="2.932"/>
<ellipse fill="#70A3C1" cx="516.136" cy="504.225" rx="17.196" ry="2.932"/>
</svg>
