<?xml version="1.0" encoding="utf-8"?>
<!-- Generator: Adobe Illustrator 16.0.0, SVG Export Plug-In . SVG Version: 6.00 Build 0)  -->
<!DOCTYPE svg PUBLIC "-//W3C//DTD SVG 1.1//EN" "http://www.w3.org/Graphics/SVG/1.1/DTD/svg11.dtd">
<svg version="1.1" id="Layer_1" xmlns="http://www.w3.org/2000/svg" xmlns:xlink="http://www.w3.org/1999/xlink" x="0px" y="0px"
	 width="841.89px" height="595.28px" viewBox="0 0 841.89 595.28" enable-background="new 0 0 841.89 595.28" xml:space="preserve">
<path fill="#70A3C1" d="M518.403,431.098c111.77-41.4,27.932-113.598,27.932-113.598c57.639-38.771,36.107-160.432,36.107-160.432
	c6.578-1.488,12.941-6.204,15.551-9.256c4.375-5.12,7.018-11.767,7.018-19.03c0-16.187-13.121-29.308-29.309-29.308
	c-16.186,0-29.307,13.121-29.307,29.308c0,3.9,0.82,7.608,2.203,11.013c-113.137-25.4-208.275,0-208.275,0
	c1.383-3.404,2.352-7.029,2.352-10.93c0-16.186-13.121-29.308-29.309-29.308c-16.186,0-29.309,13.122-29.309,29.308
	c0,7.264,2.645,13.91,7.02,19.031c4.031,4.717,9.535,8.141,15.799,9.557c0,0-22.184,121.662,35.457,160.434
	c0,0-83.396,82.029,31.883,112.314C374.216,430.201,486.507,442.912,518.403,431.098z"/>
<path fill="none" stroke="#5D6733" stroke-width="0.6513" stroke-miterlimit="10" d="M608.179,478.125"/>
<circle fill="#FFFFFF" cx="388.683" cy="223.218" r="26.705"/>
<circle fill="#FFFFFF" cx="500.504" cy="223.218" r="26.704"/>
<circle cx="400.13" cy="217.316" r="11.447"/>
<circle cx="511.951" cy="217.316" r="11.446"/>
<circle fill="#FFFFFF" cx="406.692" cy="211.894" r="1.629"/>
<circle fill="#FFFFFF" cx="517.093" cy="210.916" r="1.629"/>
<g>
	<g>
		<path fill="#558AA5" d="M477.829,194.449c7.013,4.489,13.979,2.393,21.33-0.367c7.649-2.873,20.368-11.205,26.557-2.197
			c1.418,2.063,4.807,0.11,3.375-1.973c-12.52-18.222-34.148,10.855-49.289,1.162C477.673,189.711,475.714,193.095,477.829,194.449
			L477.829,194.449z"/>
	</g>
</g>
<g>
	<g>
		<path fill="#558AA5" d="M366.354,202.153c2.136-4.085,4.723-7.104,9.205-8.573c4.432-1.453,8.992-0.68,13.514-1.041
			c6.912-0.553,16.574-10.162,21.76-2.479c1.402,2.076,4.789,0.123,3.375-1.973c-6.576-9.74-14.897-2.258-23.366,0.176
			c-5.586,1.605-11.638,0.012-17.36,1.889c-4.927,1.616-8.179,5.585-10.502,10.028C361.813,202.411,365.187,204.387,366.354,202.153
			L366.354,202.153z"/>
	</g>
</g>
<g>
	<g>
		<path fill="#558AA5" d="M403.935,335.299c6.768,3.262,13.551,1.621,20.347-0.714c7.865-2.702,15.731-6.293,24.055-7.349
			c8.772-1.111,17.162,1.495,25.539,3.707c6.92,1.827,14.962,3.48,21.401-0.672c9.717-6.266,0.702-21.854-9.086-15.543
			c-1.463,0.943-0.14,0.212,0.469,0.142c-0.863,0.1-2.486-0.036-2.953-0.116c-3.601-0.612-7.132-1.729-10.657-2.663
			c-8.048-2.134-16.372-3.625-24.713-2.854c-8.174,0.756-15.912,3.291-23.577,6.087c-2.938,1.071-5.868,2.156-8.856,3.083
			c-0.413,0.129-3.879,0.954-2.791,0.813c-1.981,0.258-1.814-0.293-0.091,0.537c-4.42-2.13-9.689-1.251-12.314,3.229
			C398.378,326.961,399.518,333.169,403.935,335.299L403.935,335.299z"/>
	</g>
</g>
<path fill="#FFFFFF" d="M418.034,325.139c0,0,8.105,11.074,14.166,8.033c2.756-1.381,3.664-5.428,5.699-15.198
	c0,0-12.158,2.606-19.865,6.296l-0.488,0.164L418.034,325.139z"/>
<g>
	<g>
		<path fill="#70A3C1" d="M564.825,271.597c17.078-1.354,43.667,1.748,50.069,20.62c3.034,8.943,0.21,18.91,0.433,28.111
			c0.216,8.912,2.022,17.813,6.055,25.796c3.302,6.539,9.273,13.255,16.479,15.567c5.615,1.802,8-7.004,2.424-8.793
			c-1.275-0.409,0.899,0.465-0.499-0.223c-1.24-0.608-2.801-1.656-3.387-2.129c-4.411-3.563-7.321-8.533-9.175-13.828
			c-3.427-9.789-3.211-20.502-2.154-30.676c0.82-7.906-0.335-15.835-4.282-22.803c-10.287-18.155-36.949-22.269-55.963-20.763
			C559.004,262.939,558.959,272.061,564.825,271.597L564.825,271.597z"/>
	</g>
</g>
<circle fill="#70A3C1" cx="651.381" cy="360.936" r="12.243"/>
<circle fill="#70A3C1" cx="260.477" cy="392.225" r="12.243"/>
<g>
	<g>
		<path fill="#70A3C1" d="M327.764,256.411c-18.41,3.381-36.547,14.618-48.926,28.339c-12.247,13.573-18.854,30.623-21.147,48.6
			c-1.879,14.729-0.717,30.347-0.754,45.181c-0.006,2.298-0.013,4.596-0.019,6.894c-0.015,5.881,9.104,5.88,9.119,0
			c0.076-29.828-3.62-61.876,14.146-87.779c11.185-16.309,30.395-28.492,49.799-32.4c0.068-0.014,0.137-0.027,0.206-0.04
			C335.966,264.143,333.511,255.355,327.764,256.411L327.764,256.411z"/>
	</g>
</g>
<circle fill="#70A3C1" cx="376.959" cy="416.844" r="12.376"/>
<circle fill="#70A3C1" cx="503.109" cy="422.924" r="12.376"/>
<g>
	<line fill="#70A3C1" x1="376.958" y1="422.924" x2="376.958" y2="501.945"/>
	<g>
		<path fill="#70A3C1" d="M372.398,422.924c0,26.341,0,52.681,0,79.021c0,5.881,9.119,5.881,9.119,0c0-26.341,0-52.681,0-79.021
			C381.518,417.043,372.398,417.043,372.398,422.924L372.398,422.924z"/>
	</g>
</g>
<g>
	<line fill="#70A3C1" x1="503.108" y1="422.924" x2="503.108" y2="501.945"/>
	<g>
		<path fill="#70A3C1" d="M498.549,422.924c0,26.341,0,52.681,0,79.021c0,5.881,9.119,5.881,9.119,0c0-26.341,0-52.681,0-79.021
			C507.668,417.043,498.549,417.043,498.549,422.924L498.549,422.924z"/>
	</g>
</g>
<ellipse fill="#70A3C1" cx="363.019" cy="504.875" rx="17.197" ry="2.932"/>
<ellipse fill="#70A3C1" cx="516.136" cy="504.225" rx="17.197" ry="2.932"/>
</svg>
