<?xml version="1.0" encoding="utf-8"?>
<!-- Generator: Adobe Illustrator 16.0.0, SVG Export Plug-In . SVG Version: 6.00 Build 0)  -->
<!DOCTYPE svg PUBLIC "-//W3C//DTD SVG 1.1//EN" "http://www.w3.org/Graphics/SVG/1.1/DTD/svg11.dtd">
<svg version="1.1" id="Layer_1" xmlns="http://www.w3.org/2000/svg" xmlns:xlink="http://www.w3.org/1999/xlink" x="0px" y="0px"
	 width="841.89px" height="595.28px" viewBox="0 0 841.89 595.28" enable-background="new 0 0 841.89 595.28" xml:space="preserve">
<path fill="#70A3C1" d="M533.264,423.523c107.437-51.61,17.251-115.703,17.251-115.703c53.784-43.96,21.037-163.093,21.037-163.093
	c6.411-2.093,12.309-7.38,14.623-10.661c3.88-5.504,5.894-12.368,5.218-19.6c-1.505-16.116-15.788-27.961-31.906-26.457
	c-16.115,1.504-27.96,15.789-26.455,31.905c0.362,3.884,1.524,7.5,3.218,10.76c-115.009-14.773-207.374,19.361-207.374,19.361
	c1.061-3.517,1.688-7.216,1.326-11.1c-1.505-16.116-15.79-27.961-31.906-26.457c-16.115,1.505-27.962,15.79-26.457,31.906
	c0.675,7.232,3.925,13.604,8.758,18.296c4.453,4.322,10.251,7.218,16.619,8.046c0,0-10.777,123.198,50.217,156.443
	c0,0-75.409,89.427,42.185,108.864C389.616,436.034,502.604,438.251,533.264,423.523z"/>
<path fill="none" stroke="#5D6733" stroke-width="0.6513" stroke-miterlimit="10" d="M608.179,478.125"/>
<circle fill="#FFFFFF" cx="384.78" cy="228.603" r="26.704"/>
<circle fill="#FFFFFF" cx="496.117" cy="218.208" r="26.704"/>
<circle cx="395.63" cy="221.662" r="11.447"/>
<circle cx="506.966" cy="211.268" r="11.446"/>
<circle fill="#FFFFFF" cx="401.659" cy="215.653" r="1.628"/>
<circle fill="#FFFFFF" cx="511.491" cy="204.418" r="1.629"/>
<g>
	<g>
		<path fill="#558AA5" d="M470.705,191.587c7.604,3.922,14.399,1.121,21.657-2.406c7.578-3.681,18.99-12.86,26.151-4.272
			c1.616,1.938,4.365-0.843,2.764-2.764c-13.86-16.62-32.973,14.127-48.6,6.067C470.442,187.06,468.465,190.432,470.705,191.587
			L470.705,191.587z"/>
	</g>
</g>
<g>
	<g>
		<path fill="#558AA5" d="M360.702,209.399c4.158-10.181,12.385-9.833,21.834-11.416c7.156-1.199,15.238-11.775,21.422-4.211
			c1.597,1.952,4.344-0.83,2.764-2.764c-7.602-9.296-15.814,0.317-24.129,2.939c-5.582,1.76-11.32,0.912-16.84,3.545
			c-4.467,2.131-7.023,6.472-8.818,10.868C355.981,210.694,359.763,211.7,360.702,209.399L360.702,209.399z"/>
	</g>
</g>
<g>
	<g>
		<path fill="#558AA5" d="M411.794,339.299c6.564,2.457,13.742-0.912,19.657-3.549c7.462-3.328,14.538-7.073,22.516-9.088
			c15.722-3.972,34.155,8.505,48.016-2.329c3.872-3.027,3.15-9.577,0-12.728c-3.783-3.783-8.867-3.019-12.729,0
			c0.539-0.421,0.552-0.669,1.262-0.751c-1.521,0.175-3.09,0.009-4.604-0.121c-3.529-0.304-7.059-1.152-10.561-1.696
			c-8.851-1.374-17.371-1.671-26.169,0.268c-7.65,1.685-14.917,5.276-21.95,8.621c-2.343,1.114-4.67,2.275-7.095,3.202
			c-1.244,0.475-2.521,0.823-3.821,1.103c0.4-0.086,0.932-0.038,0.264-0.288c-4.6-1.721-9.857,1.876-11.071,6.286
			C404.118,333.279,407.204,337.581,411.794,339.299L411.794,339.299z"/>
	</g>
</g>
<path fill="#FFFFFF" d="M423.479,327.354c0,0,9.1,10.272,14.852,6.681c2.615-1.631,3.144-5.745,4.262-15.662
	c0,0-11.863,3.726-19.193,8.115l-0.473,0.209L423.479,327.354z"/>
<g>
	<g>
		<path fill="#558AA5" d="M563.613,271.434c1.837,0.452,2.897,1.054,5.423,2.828c4.451,3.125,7.716,8.609,9.568,13.872
			c3.334,9.477,3.705,21.123,1.68,30.903c-1.381,6.668-5.391,12.263-10.161,16.96c-11.228,11.06-26.989,17.389-41.696,22.266
			c-12.552,4.162-25.501,7.207-38.528,9.451c-1.591,0.274-3.187,0.53-4.783,0.77c-1.056,0.159-2.356,0.323-0.896,0.136
			c-5.749,0.738-5.821,9.866,0,9.118c23.248-2.985,46.758-9.145,67.975-19.134c13.418-6.318,27.299-15.454,34.037-29.158
			c4.178-8.498,4.5-18.436,4.046-27.721c-0.428-8.757-2.516-17.598-7.097-25.139c-3.689-6.072-10.008-12.189-17.144-13.945
			C560.327,261.236,557.905,270.029,563.613,271.434L563.613,271.434z"/>
	</g>
</g>
<circle fill="#558AA5" cx="478.815" cy="373.179" r="12.243"/>
<circle fill="#558AA5" cx="420.945" cy="373.179" r="12.243"/>
<g>
	<g>
		<path fill="#558AA5" d="M325.038,258.506c-16.849,23.693-28.831,61.729-4.537,84.536c2.375,2.229,5.541,2.94,8.558,3.996
			c5.531,1.935,11.063,3.871,16.593,5.806c15.071,5.273,30.142,10.546,45.213,15.819c8.489,2.971,16.979,5.941,25.469,8.912
			c5.565,1.947,7.937-6.864,2.424-8.793c-23.287-8.148-46.574-16.296-69.861-24.444c-5.643-1.974-11.285-3.949-16.928-5.923
			c-1.522-0.533-3.044-1.065-4.566-1.598c-0.384-0.134-0.768-0.269-1.151-0.403c-0.087-0.03-0.173-0.061-0.26-0.091
			c2.37,0.83-0.429-1.059-0.913-1.542c-13.943-13.942-9.888-35.702-2.951-51.994c2.908-6.832,6.473-13.614,10.785-19.679
			C336.327,258.305,328.415,253.758,325.038,258.506L325.038,258.506z"/>
	</g>
</g>
<circle fill="#70A3C1" cx="391.107" cy="422.48" r="12.375"/>
<circle fill="#70A3C1" cx="517.276" cy="416.807" r="12.376"/>
<g>
	<g>
		<path fill="#70A3C1" d="M372.563,411.711c-2.15,6.742-4.3,13.484-6.45,20.226c-1.449,4.544-2.898,9.088-4.348,13.632
			c-0.664,2.082-1.966,4.619-1.966,6.865s1.302,4.783,1.966,6.865c1.449,4.544,2.898,9.088,4.348,13.632
			c2.15,6.742,4.3,13.484,6.45,20.226c1.779,5.58,10.585,3.194,8.793-2.424c-4.197-13.161-8.394-26.321-12.591-39.481
			c0.657,2.063-0.254,3.159,0.422,1.04c0.457-1.433,0.914-2.865,1.371-4.298c1.449-4.544,2.898-9.088,4.348-13.632
			c2.15-6.742,4.3-13.484,6.45-20.226C383.147,408.517,374.342,406.131,372.563,411.711L372.563,411.711z"/>
	</g>
</g>
<g>
	<g>
		<path fill="#70A3C1" d="M498.712,414.135c4.506,13.161,9.013,26.321,13.52,39.481c-0.682-1.989,0.281-3.188-0.454-1.04
			c-0.491,1.433-0.981,2.865-1.472,4.298c-1.557,4.544-3.112,9.088-4.668,13.632c-2.309,6.742-4.617,13.484-6.926,20.226
			c-1.91,5.579,6.899,7.954,8.793,2.424c2.309-6.742,4.617-13.484,6.926-20.226c1.556-4.544,3.111-9.088,4.668-13.632
			c0.707-2.065,2.099-4.614,2.099-6.865s-1.392-4.799-2.099-6.865c-1.557-4.544-3.112-9.088-4.668-13.632
			c-2.309-6.742-4.617-13.484-6.926-20.226C505.611,406.182,496.802,408.557,498.712,414.135L498.712,414.135z"/>
	</g>
</g>
<ellipse fill="#70A3C1" cx="363.018" cy="494.875" rx="17.197" ry="2.932"/>
<ellipse fill="#70A3C1" cx="516.136" cy="494.224" rx="17.197" ry="2.932"/>
</svg>
