<?xml version="1.0" encoding="utf-8"?>
<!-- Generator: Adobe Illustrator 16.0.0, SVG Export Plug-In . SVG Version: 6.00 Build 0)  -->
<!DOCTYPE svg PUBLIC "-//W3C//DTD SVG 1.1//EN" "http://www.w3.org/Graphics/SVG/1.1/DTD/svg11.dtd">
<svg version="1.1" id="Layer_1" xmlns="http://www.w3.org/2000/svg" xmlns:xlink="http://www.w3.org/1999/xlink" x="0px" y="0px"
	 width="841.89px" height="595.28px" viewBox="0 0 841.89 595.28" enable-background="new 0 0 841.89 595.28" xml:space="preserve">
<path fill="#70A3C1" d="M498.536,439.62c115.79-28.265,40.817-109.63,40.817-109.63c61.715-31.88,54.325-155.211,54.325-155.211
	c6.705-0.721,13.569-4.673,16.512-7.405c4.935-4.582,8.325-10.88,9.161-18.096c1.862-16.079-9.661-30.623-25.743-32.485
	c-16.078-1.862-30.621,9.663-32.483,25.741c-0.448,3.875-0.06,7.653,0.921,11.193c-109.463-38.249-206.892-23.963-206.892-23.963
	c1.765-3.221,3.146-6.71,3.594-10.586c1.862-16.079-9.662-30.623-25.741-32.485c-16.078-1.862-30.624,9.663-32.486,25.742
	c-0.836,7.216,1.025,14.122,4.783,19.712c3.463,5.149,8.535,9.183,14.595,11.31c0,0-36.033,118.303,16.763,163.447
	c0,0-92.281,71.89,18.747,115.237C355.408,422.139,465.492,447.685,498.536,439.62z"/>
<path fill="none" stroke="#5D6733" stroke-width="0.6513" stroke-miterlimit="10" d="M608.179,478.125"/>
<circle fill="#FFFFFF" cx="393.594" cy="218.195" r="26.705"/>
<circle fill="#FFFFFF" cx="504.673" cy="231.061" r="26.705"/>
<circle cx="391.345" cy="223.163" r="11.447"/>
<circle cx="502.422" cy="236.029" r="11.446"/>
<circle fill="#FFFFFF" cx="398.487" cy="218.532" r="1.628"/>
<circle fill="#FFFFFF" cx="508.267" cy="230.264" r="1.628"/>
<g>
	<g>
		<path fill="#558AA5" d="M485.251,199.694c7.111,5.805,14.96,3.98,23.28,1.795c7.81-2.051,19.937-7.9,24.895,1.548
			c1.172,2.232,4.545,0.256,3.375-1.973c-10.116-19.276-35.192,6.964-48.786-4.134C486.08,195.352,483.298,198.1,485.251,199.694
			L485.251,199.694z"/>
	</g>
</g>
<g>
	<g>
		<path fill="#558AA5" d="M373.962,194.514c5.792-8.518,13.531-7.777,22.782-6.765c3.822,0.418,7.838-1.064,11.388-2.256
			c4.74-1.592,8.64-2.73,11.383,2.515c1.169,2.233,4.541,0.258,3.375-1.973c-5.735-10.963-15.89-2.697-24.882-2.168
			c-5.793,0.341-11.104-1.525-16.958,0.06c-4.602,1.247-7.879,4.815-10.463,8.615C369.166,194.631,372.554,196.584,373.962,194.514
			L373.962,194.514z"/>
	</g>
</g>
<g>
	<g>
		<path fill="#558AA5" d="M396.715,331.86c6.133,3.884,13.819,2.291,20.443,0.84c8.246-1.806,16.254-4.163,24.761-4.254
			c15.382-0.166,31.069,15.356,46.169,7.885c10.404-5.148,1.28-20.672-9.086-15.543c0.526-0.26,2.497-0.355,0.49-0.331
			c1.13-0.014-2.103-0.467-2.651-0.621c-3.359-0.943-6.597-2.384-9.835-3.665c-7.619-3.014-15.263-5.195-23.481-5.687
			c-8.1-0.485-16.433,1.392-24.268,3.23c-3.524,0.827-7.03,1.719-10.59,2.387c-1.161,0.218-1.42,0.188-2.887,0.208
			c-2.305,0.032,1.522,0.96,0.019,0.009C395.961,310.089,386.938,325.671,396.715,331.86L396.715,331.86z"/>
	</g>
</g>
<path fill="#FFFFFF" d="M411.024,322.816c0,0,6.776,11.933,13.149,9.61c2.896-1.055,4.263-4.97,7.409-14.442
	c0,0-12.377,1.19-20.457,3.969l-0.506,0.106L411.024,322.816z"/>
<g>
	<g>
		<path fill="#558AA5" d="M563.613,271.434c1.836,0.452,2.896,1.054,5.423,2.828c4.451,3.125,7.716,8.609,9.568,13.872
			c3.335,9.477,3.705,21.123,1.68,30.903c-1.38,6.668-5.391,12.263-10.161,16.96c-11.229,11.06-26.988,17.389-41.695,22.266
			c-12.553,4.162-25.502,7.207-38.529,9.451c-1.592,0.274-3.186,0.53-4.783,0.77c-1.056,0.159-2.356,0.323-0.896,0.135
			c-5.749,0.738-5.821,9.866,0,9.119c23.248-2.985,46.758-9.146,67.975-19.135c13.419-6.318,27.299-15.454,34.037-29.158
			c4.178-8.498,4.5-18.436,4.046-27.721c-0.428-8.757-2.516-17.598-7.098-25.139c-3.688-6.072-10.007-12.189-17.143-13.945
			C560.327,261.236,557.905,270.029,563.613,271.434L563.613,271.434z"/>
	</g>
</g>
<circle fill="#558AA5" cx="478.815" cy="373.179" r="12.243"/>
<circle fill="#558AA5" cx="420.945" cy="373.179" r="12.243"/>
<g>
	<g>
		<path fill="#558AA5" d="M325.038,258.506c-16.849,23.693-28.831,61.729-4.537,84.536c2.375,2.229,5.541,2.94,8.558,3.996
			c5.531,1.935,11.063,3.871,16.594,5.806c15.07,5.273,30.141,10.546,45.212,15.819c8.489,2.971,16.979,5.941,25.469,8.912
			c5.565,1.947,7.937-6.864,2.424-8.793c-23.287-8.148-46.573-16.296-69.86-24.444c-5.643-1.974-11.286-3.949-16.929-5.923
			c-1.522-0.533-3.044-1.065-4.566-1.598c-0.384-0.134-0.768-0.269-1.151-0.403c-0.086-0.03-0.174-0.061-0.26-0.091
			c2.37,0.83-0.43-1.059-0.913-1.542c-13.943-13.942-9.888-35.702-2.952-51.994c2.908-6.832,6.474-13.614,10.786-19.679
			C336.327,258.305,328.414,253.758,325.038,258.506L325.038,258.506z"/>
	</g>
</g>
<circle fill="#70A3C1" cx="370.954" cy="414.396" r="12.375"/>
<circle fill="#70A3C1" cx="496.761" cy="425.516" r="12.376"/>
<g>
	<g>
		<path fill="#70A3C1" d="M373.563,411.711c-4.086,14.616-8.172,29.232-12.258,43.849c-1.451,5.191,2.661,11.744,4.425,16.496
			c2.611,7.034,5.222,14.067,7.833,21.101c2.027,5.462,10.844,3.101,8.793-2.424c-2.499-6.732-4.998-13.463-7.496-20.195
			c-1.401-3.773-2.802-7.547-4.203-11.32c-0.296-0.799-0.593-1.597-0.889-2.396c0.731,1.972-0.236,3.19,0.432,0.803
			c4.052-14.496,8.104-28.992,12.156-43.489C383.941,408.461,375.144,406.057,373.563,411.711L373.563,411.711z"/>
	</g>
</g>
<g>
	<g>
		<path fill="#70A3C1" d="M499.712,414.135c3.188,13.16,6.378,26.32,9.566,39.479c-0.595-2.457,0.151-2.984-0.342-0.951
			c-0.367,1.517-0.735,3.034-1.103,4.551c-1.072,4.426-2.145,8.852-3.217,13.277c-1.635,6.747-3.271,13.494-4.905,20.241
			c-1.385,5.713,7.408,8.137,8.793,2.424c1.635-6.747,3.27-13.494,4.905-20.241c1.072-4.426,2.145-8.852,3.217-13.277
			c0.543-2.239,1.615-4.859,1.615-7.205c0-2.119-0.955-4.479-1.444-6.5c-1.13-4.66-2.259-9.321-3.388-13.981
			c-1.636-6.747-3.271-13.494-4.905-20.241C507.12,405.998,498.327,408.422,499.712,414.135L499.712,414.135z"/>
	</g>
</g>
<ellipse fill="#70A3C1" cx="364.018" cy="494.875" rx="17.197" ry="2.932"/>
<ellipse fill="#70A3C1" cx="517.136" cy="494.224" rx="17.197" ry="2.932"/>
</svg>
