<?xml version="1.0" encoding="utf-8"?>
<!-- Generator: Adobe Illustrator 16.0.0, SVG Export Plug-In . SVG Version: 6.00 Build 0)  -->
<!DOCTYPE svg PUBLIC "-//W3C//DTD SVG 1.1//EN" "http://www.w3.org/Graphics/SVG/1.1/DTD/svg11.dtd">
<svg version="1.1" id="Layer_1" xmlns="http://www.w3.org/2000/svg" xmlns:xlink="http://www.w3.org/1999/xlink" x="0px" y="0px"
	 width="960px" height="560px" viewBox="0 0 960 560" enable-background="new 0 0 960 560" xml:space="preserve">
<path fill="#8FB25E" d="M427.254,340.19l-6.109,8.841h-14.051l-26.586-178.105l-4.572-30.627l12.219-9.519h194.279l12.22,9.519
	l-4.53,30.344l-26.63,178.389h-14.052l-6.11-8.841C543.334,340.19,485.906,308.916,427.254,340.19z"/>
<path fill="#5D6633" d="M476.102,198.374c0,0-5.612,25.725-9.074,28.854c-2.74,2.476-38.357,0.027-43.353-1.642"/>
<g>
	<path fill="#BED685" d="M386.707,188.161c0,0,0.376-0.193,1.081-0.494c0.705-0.28,1.738-0.763,3.054-1.233
		c1.316-0.495,2.914-1.033,4.746-1.594c1.833-0.558,3.9-1.116,6.156-1.66c2.256-0.53,4.699-1.037,7.284-1.49
		c2.585-0.438,5.31-0.845,8.13-1.151c1.41-0.188,2.843-0.29,4.294-0.415c0.726-0.062,1.455-0.124,2.189-0.186
		c0.733-0.038,1.47-0.076,2.211-0.113c2.96-0.193,5.968-0.208,8.975-0.255c3.007,0.048,6.015,0.075,8.975,0.268
		c1.48,0.057,2.949,0.174,4.4,0.305c1.451,0.119,2.884,0.235,4.294,0.419c2.82,0.305,5.545,0.715,8.13,1.154
		c2.584,0.45,5.028,0.958,7.284,1.487c4.511,1.066,8.27,2.264,10.902,3.239c1.316,0.467,2.35,0.948,3.054,1.226
		c0.705,0.299,1.081,0.491,1.081,0.491v1.011c0,0-1.504,0.031-4.135,0.084c-2.632,0.038-6.391,0.167-10.902,0.187
		c-9.022,0.063-21.052,0.148-33.082,0.233c-12.03-0.084-24.06-0.169-33.082-0.232c-4.511-0.019-8.271-0.15-10.902-0.188
		c-2.631-0.054-4.135-0.085-4.135-0.085V188.161z"/>
</g>
<g>
	<path fill="#BED685" d="M490.057,188.118c0,0,0.376-0.193,1.081-0.494c0.705-0.28,1.739-0.763,3.054-1.233
		c1.316-0.495,2.913-1.033,4.746-1.594c1.833-0.558,3.901-1.116,6.156-1.66c2.256-0.53,4.699-1.037,7.284-1.49
		c2.585-0.438,5.31-0.845,8.13-1.151c1.41-0.188,2.843-0.29,4.294-0.415c0.726-0.062,1.455-0.124,2.189-0.186
		c0.733-0.038,1.47-0.076,2.211-0.113c2.96-0.193,5.968-0.208,8.975-0.255c3.007,0.048,6.015,0.075,8.975,0.268
		c1.48,0.057,2.949,0.174,4.4,0.305c1.451,0.119,2.884,0.235,4.294,0.419c2.82,0.305,5.545,0.715,8.13,1.154
		c2.584,0.45,5.028,0.958,7.284,1.487c4.511,1.066,8.27,2.264,10.902,3.239c1.316,0.467,2.35,0.948,3.054,1.226
		c0.705,0.299,1.081,0.491,1.081,0.491v1.011c0,0-1.504,0.031-4.135,0.084c-2.632,0.038-6.391,0.167-10.902,0.187
		c-9.022,0.063-21.052,0.148-33.082,0.233c-12.03-0.084-24.06-0.169-33.082-0.232c-4.511-0.019-8.27-0.15-10.902-0.188
		c-2.632-0.054-4.135-0.085-4.135-0.085V188.118z"/>
</g>
<path fill="#FFFFFF" d="M461.803,224.79c-2.74,2.476-38.357,1.669-43.352,0c-4.994-1.669-21.788-26.416-21.788-26.416h79.439
	C476.102,198.374,465.266,221.661,461.803,224.79z"/>
<path fill="#5D6633" d="M559.437,226.925c-2.738,2.476-36.964,4.427-41.959,2.757c-4.993-1.669-20.141-30.045-20.141-30.045"/>
<path fill="#1D1D1B" d="M455.475,198.374c0,7.713-8.047,13.965-17.973,13.965c-9.927,0-17.973-6.252-17.973-13.965"/>
<path fill="#FFFFFF" d="M446.718,209.623c0.085,0.413-0.984,1.107-2.394,1.553c-1.409,0.445-2.622,0.472-2.708,0.059
	c-0.087-0.413,0.983-1.107,2.393-1.553C445.417,209.237,446.63,209.21,446.718,209.623z"/>
<path fill="#FFFFFF" d="M562.478,226.052c-2.738,2.476-38.356,1.67-43.352,0c-4.993-1.669-21.789-26.416-21.789-26.416h79.44
	C576.777,199.637,565.939,222.924,562.478,226.052z"/>
<path fill="#1D1D1B" d="M520.203,199.637c0,7.713,8.047,13.965,17.974,13.965c9.926,0,17.974-6.252,17.974-13.965"/>
<path fill="#FFFFFF" d="M528.961,210.886c-0.087,0.413,0.984,1.107,2.395,1.553c1.409,0.445,2.62,0.471,2.709,0.059
	c0.086-0.413-0.985-1.107-2.396-1.553C530.26,210.5,529.048,210.473,528.961,210.886z"/>
<path fill="#FFFFFF" d="M427.231,274.222l111.901-13.841c0,0,1.952,32.637-19.518,33.043c-21.469,0.406-89.782-10.832-89.782-10.832
	L427.231,274.222z"/>
<path fill="#5D6633" d="M538.698,270.092l-10.294,0.787l-3.09,6.993l-4.881-6.181l-91.502,8l0.902,2.9
	c0,0,68.314,11.238,89.782,10.832c13.718-0.261,17.874-13.678,19.087-23.332H538.698z"/>
<path fill="#71882E" d="M590.289,170.169l-12.119-15.024l-0.533-17.066c0,0-23.508,7.082-32.797,7.314
	c-9.289,0.231-26.934,4.179-26.934,4.179l-40.412,11.625c0,0-31.143-9.42-30.759-9.304s-21.068-1.895-25.813-2.322
	c-4.746-0.427-25.818-11.438-24.259-11.667s-6.804,16.398-8.562,18.168c-1.759,1.771-7.406,14.429-7.406,14.429l-0.186,0.423
	c0,0-6.096-26.841-4.572-30.627s6.108-6.805,12.219-9.519s187.757-2.076,194.279,0c6.521,2.075,11.038,6.513,12.22,9.519
	c1.18,3.005-4.53,30.344-4.53,30.344L590.289,170.169z"/>
<path fill="#BED685" d="M395.315,152.896"/>
<path fill="#8FB25E" d="M559.437,244.818h64.817l55.49-72.061c0,0-4.463-7.642-3.749-10.74c0.713-3.098,23.298,3.945,24.283,5.65
	c0.986,1.705-13.571,8.571-13.571,8.571l-53.704,82.685l-73.567,12.143"/>
<path fill="#8FB25E" d="M427.89,264.771h-64.816l-55.492,72.061c0,0,4.464,7.643,3.75,10.74c-0.713,3.098-23.298-3.945-24.284-5.65
	c-0.985-1.706,13.571-8.571,13.571-8.571l53.704-82.685l73.567-12.143"/>
<path fill="#8FB25E" d="M549.426,348.043l10.946,48.983L576.573,432h31.528c0,0,3.94-2.731,0-4.099
	c-3.941-1.366-25.087-5.097-25.087-5.097l-13.082-32.316l-6.438-42.154"/>
<path fill="#8FB25E" d="M422.046,345.49l-10.947,48.983l-16.201,34.974H363.37c0,0-3.941-2.732,0-4.099s25.086-5.097,25.086-5.097
	l13.083-32.316l6.438-42.154"/>
</svg>
