<?xml version="1.0" encoding="utf-8"?>
<!-- Generator: Adobe Illustrator 16.0.0, SVG Export Plug-In . SVG Version: 6.00 Build 0)  -->
<!DOCTYPE svg PUBLIC "-//W3C//DTD SVG 1.1//EN" "http://www.w3.org/Graphics/SVG/1.1/DTD/svg11.dtd">
<svg version="1.1" id="Layer_1" xmlns="http://www.w3.org/2000/svg" xmlns:xlink="http://www.w3.org/1999/xlink" x="0px" y="0px"
	 width="960px" height="560px" viewBox="0 0 960 560" enable-background="new 0 0 960 560" xml:space="preserve">
<path fill="#8FB25E" d="M413.203,346.331l-6.735,9.749h-15.497l-29.321-196.422l-5.041-33.777l13.476-10.498h214.259l13.477,10.498
	l-4.995,33.465L563.456,356.08h-15.497l-6.737-9.749C541.222,346.331,477.888,311.84,413.203,346.331z"/>
<path fill="#5D6633" d="M466.725,186.853c0,0-14.913,23.477-18.731,26.927c-3.021,2.731-36.399-3.305-41.908-5.146"/>
<g>
	<path fill="#BED685" d="M368.489,178.718c0,0,0.396-0.192,1.139-0.489c0.743-0.277,1.833-0.754,3.219-1.218
		c1.387-0.488,3.07-1.019,5-1.571c1.931-0.549,4.108-1.097,6.484-1.629c2.375-0.519,4.948-1.014,7.669-1.454
		c2.721-0.425,5.59-0.819,8.557-1.111c1.484-0.181,2.992-0.276,4.519-0.394c0.763-0.058,1.532-0.117,2.303-0.175
		c0.772-0.034,1.548-0.068,2.326-0.103c3.115-0.179,6.279-0.179,9.443-0.211c3.163,0.063,6.327,0.105,9.44,0.312
		c1.557,0.064,3.101,0.189,4.626,0.327c1.526,0.126,3.033,0.249,4.515,0.44c2.964,0.319,5.83,0.742,8.546,1.194
		c2.716,0.463,5.285,0.982,7.655,1.523c4.741,1.088,8.69,2.305,11.454,3.293c1.382,0.474,2.467,0.959,3.208,1.241
		c0.74,0.303,1.135,0.496,1.135,0.497l-0.005,1.011c0,0-1.582,0.023-4.351,0.064c-2.769,0.025-6.724,0.135-11.469,0.133
		c-9.492,0.02-22.146,0.045-34.802,0.071c-12.655-0.144-25.309-0.287-34.8-0.394c-4.746-0.041-8.7-0.19-11.467-0.241
		c-2.769-0.067-4.35-0.105-4.35-0.105L368.489,178.718z"/>
</g>
<g>
	<path fill="#BED685" d="M487.926,179.741c0,0,0.353-0.189,1.013-0.481c0.66-0.272,1.629-0.742,2.861-1.197
		c1.231-0.479,2.727-0.998,4.441-1.538c1.714-0.536,3.647-1.07,5.755-1.587c2.108-0.503,4.391-0.981,6.804-1.403
		c2.413-0.407,4.957-0.782,7.588-1.055c1.315-0.171,2.652-0.256,4.005-0.364c0.677-0.053,1.357-0.106,2.041-0.16
		c0.684-0.029,1.371-0.058,2.062-0.087c2.76-0.158,5.562-0.138,8.364-0.149c2.801,0.084,5.603,0.146,8.357,0.373
		c1.378,0.074,2.745,0.209,4.095,0.357c1.35,0.136,2.684,0.269,3.995,0.47c2.622,0.338,5.156,0.78,7.559,1.25
		c2.401,0.48,4.672,1.017,6.766,1.573c4.189,1.12,7.676,2.362,10.115,3.368c1.22,0.482,2.177,0.976,2.83,1.262
		c0.653,0.308,1,0.503,1,0.503l-0.013,1.011c0,0-1.401,0.013-3.853,0.036c-2.452,0.007-5.956,0.091-10.159,0.059
		c-8.406-0.043-19.613-0.1-30.821-0.158c-11.206-0.226-22.411-0.453-30.815-0.622c-4.202-0.072-7.702-0.247-10.153-0.316
		c-2.451-0.085-3.851-0.134-3.851-0.134L487.926,179.741z"/>
</g>
<path fill="#FFFFFF" d="M447.993,205.692c-3.021,2.73-36.4,4.782-41.908,2.941c-5.508-1.842-34.555-22.057-34.555-22.057
	l95.194,0.276C466.725,186.853,451.813,202.242,447.993,205.692z"/>
<path fill="#5D6633" d="M559.749,209.368c-3.02,2.731-38.604,11.4-44.114,9.559c-5.506-1.841-25.141-27.604-25.141-27.604"/>
<path fill="#1D1D1B" d="M444.326,189.929c0,8.506-8.874,15.402-19.821,15.402c-10.949,0-19.821-6.896-19.821-15.402"/>
<path fill="#FFFFFF" d="M434.669,202.335c0.094,0.455-1.086,1.221-2.64,1.712c-1.554,0.491-2.893,0.521-2.988,0.064
	c-0.097-0.454,1.084-1.221,2.639-1.712C433.235,201.909,434.572,201.881,434.669,202.335z"/>
<path fill="#FFFFFF" d="M559.749,209.368c-3.02,2.731-37.135,2.579-42.644,0.736c-5.507-1.841-26.971-20.309-26.971-20.309
	l96.083-0.278C586.217,189.517,563.567,205.917,559.749,209.368z"/>
<path fill="#1D1D1B" d="M515.712,191.322c0,8.506,8.874,15.401,19.822,15.401c10.946,0,19.822-6.895,19.822-15.401"/>
<path fill="#FFFFFF" d="M525.37,203.728c-0.096,0.456,1.086,1.22,2.641,1.713c1.555,0.491,2.89,0.519,2.988,0.065
	c0.095-0.456-1.087-1.222-2.642-1.712C526.803,203.303,525.466,203.272,525.37,203.728z"/>
<path fill="#FFFFFF" d="M413.179,273.578l142.894-12.744c0,0-17.331,33.471-41.009,33.919
	c-23.677,0.448-99.016-11.945-99.016-11.945L413.179,273.578z"/>
<path fill="#5D6633" d="M536.109,269.022l-11.353,0.868l-3.408,7.713l-5.383-6.817l-100.912,8.823l0.994,3.199
	c0,0,75.41,13.828,99.016,11.945c19.688-1.57,39.671-23.271,41.009-33.919L536.109,269.022z"/>
<path fill="#71882E" d="M593.006,158.825l-13.366-16.569l-0.588-18.821c0,0-25.925,7.811-36.169,8.066
	c-10.245,0.255-29.704,4.608-29.704,4.608l-44.568,12.822c0,0-34.345-10.389-33.922-10.261c0.423,0.128-23.234-2.089-28.469-2.561
	c-5.234-0.47-28.474-12.613-26.754-12.867c1.72-0.254-7.502,18.083-9.442,20.037c-1.939,1.953-8.168,15.912-8.168,15.912
	l-0.206,0.467c0,0-6.723-29.602-5.041-33.777c1.681-4.176,6.736-7.505,13.476-10.498c6.738-2.993,207.066-2.289,214.259,0
	c7.192,2.289,12.173,7.183,13.477,10.498c1.302,3.314-4.995,33.465-4.995,33.465L593.006,158.825z"/>
<path fill="#BED685" d="M377.979,139.774"/>
<path fill="#8FB25E" d="M555.672,227.917h71.483l26.146-79c0,0-4.922-8.429-4.134-11.845c0.786-3.417,25.693,4.351,26.78,6.231
	c1.088,1.88-14.966,9.452-14.966,9.452l-24.177,90.718l-81.133,13.391"/>
<path fill="#8FB25E" d="M413.904,263.154h-71.481l-29.769,89.396c0,0,4.923,8.429,4.136,11.845
	c-0.786,3.417-25.695-4.351-26.782-6.231c-1.087-1.88,14.967-9.451,14.967-9.451l27.796-101.113l81.134-13.392"/>
<path fill="#8FB25E" d="M547.94,354.99l12.072,54.022l17.867,38.569h34.771c0,0,4.346-3.012,0-4.52
	c-4.347-1.508-27.667-5.621-27.667-5.621l-14.428-35.641l-7.1-46.489"/>
<path fill="#8FB25E" d="M407.46,352.175l-12.073,54.022l-17.866,38.569h-34.772c0,0-4.346-3.014,0-4.519
	c4.347-1.508,27.667-5.622,27.667-5.622l14.429-35.64l7.1-46.49"/>
</svg>
