<?xml version="1.0" encoding="utf-8"?>
<!-- Generator: Adobe Illustrator 16.0.0, SVG Export Plug-In . SVG Version: 6.00 Build 0)  -->
<!DOCTYPE svg PUBLIC "-//W3C//DTD SVG 1.1//EN" "http://www.w3.org/Graphics/SVG/1.1/DTD/svg11.dtd">
<svg version="1.1" id="Layer_1" xmlns="http://www.w3.org/2000/svg" xmlns:xlink="http://www.w3.org/1999/xlink" x="0px" y="0px"
	 width="960px" height="560px" viewBox="0 0 960 560" enable-background="new 0 0 960 560" xml:space="preserve">
<path fill="#8FB25E" d="M405.708,349.166l-7.919,11.461H379.57l-34.471-230.923l-5.928-39.711l15.842-12.343h251.896l15.843,12.343
	l-5.872,39.343l-34.527,231.291h-18.219l-7.921-11.461C556.213,349.166,481.754,308.615,405.708,349.166z"/>
<path fill="#5D6633" d="M468.63,161.675c0,0-18.995,21.765-23.483,25.821c-12.78,11.551-62.865-14.035-67.422-15.558"/>
<g>
	<path fill="#BED685" d="M352.985,159.399c0,0,0.45-0.228,1.297-0.591c0.849-0.344,2.089-0.918,3.677-1.506
		c1.587-0.612,3.518-1.294,5.738-2.02c2.22-0.722,4.729-1.466,7.471-2.212c2.744-0.733,5.72-1.46,8.875-2.145
		c3.156-0.671,6.488-1.323,9.943-1.884c1.725-0.314,3.485-0.546,5.266-0.803c0.89-0.127,1.786-0.255,2.686-0.384
		c0.902-0.104,1.809-0.208,2.719-0.313c3.637-0.46,7.346-0.747,11.052-1.066c3.713-0.224,7.425-0.469,11.09-0.545
		c1.83-0.078,3.65-0.093,5.449-0.094c1.798-0.013,3.574-0.027,5.327,0.029c3.5,0.05,6.892,0.212,10.112,0.416
		c3.221,0.215,6.272,0.5,9.093,0.824c5.642,0.654,10.367,1.51,13.684,2.244c1.657,0.347,2.967,0.732,3.857,0.945
		c0.892,0.235,1.369,0.393,1.369,0.393l0.074,1.008c0,0-1.853,0.167-5.095,0.459c-3.243,0.275-7.87,0.744-13.433,1.173
		c-11.124,0.88-25.956,2.053-40.788,3.227c-14.844,1.004-29.688,2.009-40.822,2.763c-5.565,0.389-10.212,0.599-13.46,0.8
		c-3.25,0.184-5.107,0.289-5.107,0.289L352.985,159.399z"/>
</g>
<g>
	<path fill="#BED685" d="M493.79,155.226c0,0,0.418-0.175,1.2-0.441c0.78-0.245,1.928-0.677,3.383-1.083
		c1.456-0.431,3.22-0.891,5.242-1.362c2.022-0.469,4.299-0.926,6.781-1.359c2.481-0.421,5.167-0.809,8.002-1.135
		c2.836-0.313,5.824-0.587,8.909-0.756c1.544-0.119,3.111-0.151,4.697-0.207c0.793-0.026,1.591-0.053,2.393-0.079
		c0.801-0.002,1.606-0.004,2.414-0.006c3.234-0.05,6.512,0.081,9.791,0.181c3.275,0.194,6.551,0.366,9.768,0.702
		c1.61,0.129,3.206,0.317,4.78,0.519c1.576,0.188,3.132,0.374,4.66,0.627c3.059,0.441,6.01,0.983,8.807,1.548
		c2.796,0.574,5.436,1.2,7.87,1.839c4.868,1.283,8.911,2.663,11.735,3.765c1.413,0.53,2.518,1.062,3.273,1.373
		c0.755,0.333,1.156,0.543,1.156,0.543l-0.045,1.01c0,0-1.64-0.042-4.51-0.116c-2.869-0.09-6.971-0.144-11.887-0.342
		c-9.834-0.374-22.945-0.873-36.057-1.371c-13.104-0.668-26.208-1.336-36.036-1.837c-4.915-0.237-9.005-0.55-11.871-0.716
		c-2.865-0.182-4.502-0.285-4.502-0.285L493.79,155.226z"/>
</g>
<path fill="#FFFFFF" d="M447.74,177.772c-3.553,3.209-44.09,4.758-50.566,2.593c-6.475-2.164-40.459-19.016-40.459-19.016
	l111.916,0.325C468.63,161.675,452.229,173.715,447.74,177.772z"/>
<path fill="#5D6633" d="M605.272,164.807c4.643-4.198-54.329,33.769-70.015,28.524c-6.474-2.164-38.683-26.402-38.683-26.402"/>
<path fill="#1D1D1B" d="M442.297,165.291c0,10-9.565,12.481-22.434,12.481c-12.872,0-24.171-2.481-24.171-12.481"/>
<path fill="#FFFFFF" d="M437.435,168.948c0.109,0.535-1.276,1.437-3.103,2.014c-1.827,0.576-3.402,0.611-3.513,0.075
	c-0.114-0.534,1.275-1.436,3.102-2.013C435.749,168.447,437.32,168.414,437.435,168.948z"/>
<path fill="#FFFFFF" d="M581.934,178.421c-3.551,3.21-49.276,6.704-55.752,4.537c-6.474-2.163-30.03-17.824-30.03-17.824
	l112.96-0.327C609.112,164.807,586.422,174.364,581.934,178.421z"/>
<path fill="#1D1D1B" d="M526.223,166.929c0,10.001,12.372,13.437,25.243,13.437c12.869,0,21.365-3.436,21.365-13.437"/>
<path fill="#FFFFFF" d="M531.3,168.947c-0.112,0.536,1.276,1.436,3.105,2.016c1.827,0.577,3.396,0.609,3.512,0.075
	c0.112-0.536-1.277-1.436-3.106-2.013C532.984,168.447,531.414,168.412,531.3,168.947z"/>
<path fill="#FFFFFF" d="M405.679,263.634l167.993-14.982c0,0-20.375,39.351-48.212,39.878
	c-27.835,0.526-116.409-14.045-116.409-14.045L405.679,263.634z"/>
<path fill="#5D6633" d="M550.202,258.278l-13.347,1.021l-4.006,9.067l-6.329-8.015l-118.638,10.373l1.168,3.76
	c0,0,88.657,16.258,116.409,14.045c23.146-1.847,46.639-27.36,48.212-39.878L550.202,258.278z"/>
<path fill="#71882E" d="M617.093,128.724l-15.713-19.48l-0.692-22.126c0,0-30.479,9.182-42.523,9.482
	c-12.044,0.3-34.921,5.418-34.921,5.418l-52.396,15.073c0,0-40.379-12.214-39.88-12.063c0.498,0.151-27.316-2.457-33.469-3.011
	c-6.153-0.552-33.475-14.83-31.455-15.127c2.022-0.299-8.819,21.26-11.1,23.557c-2.28,2.296-9.603,18.707-9.603,18.707l-0.241,0.55
	c0,0-7.904-34.803-5.928-39.711c1.977-4.91,7.92-8.824,15.842-12.343c7.923-3.517,243.438-2.689,251.896,0
	c8.456,2.692,14.311,8.446,15.843,12.343c1.531,3.896-5.872,39.343-5.872,39.343L617.093,128.724z"/>
<path fill="#BED685" d="M364.296,106.326"/>
<path fill="#8FB25E" d="M568.014,198.931h84.04l-44.522-59.743c0,0-5.787-9.91-4.861-13.926c0.925-4.016,30.207,5.115,31.485,7.325
	c1.277,2.212-12.685,7.585-12.685,7.585l47.973,60.938l-101.43,31.853"/>
<path fill="#8FB25E" d="M406.533,251.379h-84.038l-86.534-29.09c0,0-0.804,7.22-1.73,11.235c-0.925,4.016-24.653-7.298-25.932-9.508
	c-1.277-2.212,25.932-8.644,25.932-8.644l76.916,17.717l95.385-15.743"/>
<path fill="#8FB25E" d="M564.112,359.346l14.192,63.512l21.006,45.344L621.213,480c0,0,5.108-3.544,0-5.315
	c-5.11-1.771-13.552-18.406-13.552-18.406L590.7,414.379l-8.347-54.655"/>
<path fill="#8FB25E" d="M398.956,356.036l-14.194,63.511l-21.004,45.345l-25.195,12.515c0,0-5.108-3.543,0-5.315
	c5.111-1.77,16.842-19.122,16.842-19.122l16.962-41.899l8.347-54.655"/>
</svg>
