<?xml version="1.0" encoding="utf-8"?>
<!-- Generator: Adobe Illustrator 16.0.0, SVG Export Plug-In . SVG Version: 6.00 Build 0)  -->
<!DOCTYPE svg PUBLIC "-//W3C//DTD SVG 1.1//EN" "http://www.w3.org/Graphics/SVG/1.1/DTD/svg11.dtd">
<svg version="1.1" id="Layer_1" xmlns="http://www.w3.org/2000/svg" xmlns:xlink="http://www.w3.org/1999/xlink" x="0px" y="0px"
	 width="960px" height="560px" viewBox="0 0 960 560" enable-background="new 0 0 960 560" xml:space="preserve">
<path fill="#8FB25E" d="M438.984,347.592l-7.94,11.493h-18.267l-34.565-231.547l-5.943-39.816l15.886-12.377h252.574l15.886,12.377
	l-5.889,39.448l-34.619,231.915h-18.269l-7.942-11.493C589.896,347.592,515.235,306.933,438.984,347.592z"/>
<path fill="#5D6633" d="M502.076,159.595c0,0-17.58,27.674-22.08,31.742c-3.563,3.22-42.908-3.896-49.402-6.066"/>
<g>
	<path fill="#BED685" d="M386.395,154.744c0,0,0.451-0.228,1.301-0.591c0.852-0.344,2.095-0.918,3.688-1.507
		c1.591-0.612,3.527-1.295,5.753-2.021c2.226-0.723,4.742-1.467,7.491-2.214c2.752-0.733,5.736-1.461,8.899-2.146
		c3.165-0.671,6.506-1.325,9.97-1.886c1.73-0.314,3.495-0.547,5.28-0.805c0.894-0.127,1.791-0.254,2.693-0.383
		c0.905-0.104,1.813-0.209,2.727-0.314c3.647-0.461,7.365-0.749,11.081-1.068c3.724-0.225,7.445-0.471,11.12-0.549
		c1.835-0.077,3.659-0.094,5.464-0.094c1.803-0.014,3.584-0.027,5.341,0.028c3.51,0.048,6.91,0.21,10.139,0.413
		c3.229,0.215,6.289,0.499,9.117,0.822c5.657,0.654,10.395,1.508,13.72,2.241c1.662,0.347,2.976,0.732,3.867,0.945
		c0.895,0.234,1.373,0.392,1.373,0.392l0.074,1.008c0,0-1.857,0.168-5.108,0.461c-3.252,0.275-7.892,0.745-13.47,1.176
		c-11.153,0.882-26.025,2.059-40.896,3.234c-14.885,1.008-29.769,2.016-40.932,2.771c-5.58,0.391-10.239,0.602-13.497,0.803
		c-3.259,0.185-5.12,0.29-5.12,0.29L386.395,154.744z"/>
</g>
<g>
	<path fill="#BED685" d="M527.437,146.138c0,0,0.432-0.146,1.234-0.359c0.8-0.193,1.982-0.547,3.47-0.855
		c1.491-0.332,3.295-0.673,5.357-1.008c2.062-0.332,4.38-0.637,6.902-0.903c2.521-0.253,5.243-0.461,8.114-0.597
		c2.869-0.121,5.89-0.195,9.001-0.158c1.559-0.016,3.135,0.057,4.732,0.108c0.799,0.026,1.602,0.054,2.409,0.081
		c0.805,0.051,1.614,0.104,2.426,0.154c3.253,0.168,6.537,0.518,9.825,0.836c3.277,0.413,6.557,0.805,9.767,1.354
		c1.609,0.236,3.199,0.531,4.769,0.837c1.57,0.295,3.122,0.584,4.641,0.938c3.044,0.646,5.974,1.384,8.746,2.134
		c2.771,0.761,5.382,1.562,7.785,2.362c4.807,1.605,8.777,3.253,11.543,4.541c1.384,0.625,2.459,1.229,3.198,1.59
		c0.736,0.383,1.125,0.619,1.125,0.619l-0.111,1.004c0,0-1.645-0.151-4.523-0.417c-2.876-0.282-6.993-0.61-11.92-1.137
		c-9.854-1.031-22.995-2.406-36.135-3.781c-13.122-1.543-26.243-3.086-36.084-4.243c-4.922-0.566-9.011-1.152-11.879-1.509
		c-2.866-0.373-4.504-0.586-4.504-0.586L527.437,146.138z"/>
</g>
<path fill="#FFFFFF" d="M479.996,181.804c-3.563,3.219-42.91,5.637-49.402,3.467s-40.734-26-40.734-26l112.217,0.324
	C502.076,159.595,484.498,177.735,479.996,181.804z"/>
<path fill="#5D6633" d="M611.736,186.137c-3.561,3.22-45.509,13.438-52.003,11.268c-6.491-2.169-29.637-32.541-29.637-32.541"/>
<path fill="#1D1D1B" d="M475.673,163.221c0,10.027-10.461,18.156-23.366,18.156c-12.906,0-23.365-8.129-23.365-18.156"/>
<path fill="#FFFFFF" d="M464.289,177.847c0.11,0.535-1.28,1.439-3.112,2.019s-3.409,0.612-3.521,0.076
	c-0.114-0.536,1.278-1.44,3.11-2.019C462.599,177.343,464.175,177.311,464.289,177.847z"/>
<path fill="#FFFFFF" d="M611.736,186.137c-3.561,3.22-43.776,3.04-50.27,0.867c-6.491-2.169-31.794-23.94-31.794-23.94
	l113.265-0.328C642.938,162.735,616.237,182.069,611.736,186.137z"/>
<path fill="#1D1D1B" d="M559.824,164.863c0,10.027,10.461,18.155,23.366,18.155s23.366-8.128,23.366-18.155"/>
<path fill="#FFFFFF" d="M571.209,179.487c-0.112,0.538,1.279,1.439,3.113,2.021c1.832,0.579,3.406,0.612,3.521,0.076
	c0.112-0.537-1.28-1.439-3.113-2.019C572.898,178.986,571.323,178.95,571.209,179.487z"/>
<path fill="#FFFFFF" d="M438.956,261.828l168.445-15.021c0,0-20.43,39.457-48.343,39.984
	c-27.91,0.528-116.721-14.081-116.721-14.081L438.956,261.828z"/>
<path fill="#5D6633" d="M583.869,256.459l-13.383,1.023l-4.018,9.092l-6.346-8.035l-118.957,10.399l1.172,3.771
	c0,0,88.895,16.301,116.721,14.081c23.209-1.85,46.767-27.433,48.343-39.984L583.869,256.459z"/>
<path fill="#71882E" d="M650.939,126.556l-15.756-19.533l-0.692-22.186c0,0-30.562,9.207-42.639,9.508
	c-12.075,0.301-35.015,5.432-35.015,5.432l-52.539,15.115c0,0-40.486-12.246-39.986-12.096c0.498,0.15-27.391-2.463-33.561-3.02
	c-6.17-0.553-33.565-14.869-31.539-15.167c2.028-0.299-8.844,21.317-11.13,23.62s-9.628,18.758-9.628,18.758l-0.243,0.551
	c0,0-7.925-34.896-5.943-39.816c1.982-4.924,7.942-8.849,15.886-12.377c7.943-3.527,244.094-2.697,252.574,0
	c8.479,2.699,14.351,8.469,15.886,12.377c1.535,3.906-5.889,39.448-5.889,39.448L650.939,126.556z"/>
<path fill="#BED685" d="M397.461,104.097"/>
<path fill="#8FB25E" d="M618.929,201.737l72.565-31.201l-44.643-59.905c0,0-5.802-9.935-4.874-13.962
	c0.927-4.027,30.289,5.128,31.569,7.346c1.283,2.217-12.719,7.605-12.719,7.605l48.103,61.102l-87.402,58.917"/>
<path fill="#8FB25E" d="M439.811,249.541h-84.264l-86.768-29.169c0,0-0.807,7.24-1.734,11.267
	c-0.926,4.027-24.72-7.317-26.001-9.533c-1.281-2.218,26.001-8.667,26.001-8.667l77.124,17.766l95.642-15.787"/>
<path fill="#8FB25E" d="M597.814,357.799l14.231,63.684l21.062,45.467l21.963,11.83c0,0,5.123-3.553,0-5.33
	c-5.123-1.775-13.588-18.455-13.588-18.455l-17.008-42.013l-8.368-54.804"/>
<path fill="#8FB25E" d="M432.214,354.481l-14.231,63.682l-21.062,45.467l-25.263,12.549c0,0-5.123-3.552,0-5.329
	c5.123-1.775,16.887-19.174,16.887-19.174l17.009-42.014l8.368-54.803"/>
</svg>
