<?xml version="1.0" encoding="utf-8"?>
<!-- Generator: Adobe Illustrator 16.0.0, SVG Export Plug-In . SVG Version: 6.00 Build 0)  -->
<!DOCTYPE svg PUBLIC "-//W3C//DTD SVG 1.1//EN" "http://www.w3.org/Graphics/SVG/1.1/DTD/svg11.dtd">
<svg version="1.1" id="Layer_1" xmlns="http://www.w3.org/2000/svg" xmlns:xlink="http://www.w3.org/1999/xlink" x="0px" y="0px"
	 width="960px" height="560px" viewBox="0 0 960 560" enable-background="new 0 0 960 560" xml:space="preserve">
<path fill="#8FB25E" d="M407.82,351.169l-7.653,11.079H382.56l-33.313-223.171l-5.729-38.376l15.312-11.928h243.436l15.313,11.928
	l-5.676,38.021l-33.367,223.526h-17.607l-7.656-11.079C553.271,351.169,481.313,311.982,407.82,351.169z"/>
<path fill="#5D6633" d="M468.63,169.974c0,0-16.943,26.673-21.281,30.594c-3.434,3.104-41.356-3.755-47.615-5.846"/>
<g>
	<path fill="#BED685" d="M357.132,165.281c0,0,0.434-0.226,1.252-0.587c0.82-0.341,2.018-0.913,3.55-1.497
		c1.533-0.608,3.398-1.285,5.542-2.005c2.144-0.717,4.566-1.455,7.217-2.194c2.649-0.726,5.524-1.445,8.572-2.123
		c3.049-0.663,6.267-1.307,9.606-1.859c1.667-0.31,3.368-0.538,5.087-0.79c0.86-0.125,1.727-0.25,2.597-0.377
		c0.872-0.102,1.746-0.204,2.627-0.307c3.515-0.452,7.099-0.729,10.681-1.039c3.588-0.215,7.175-0.451,10.718-0.519
		c1.769-0.073,3.527-0.084,5.267-0.08c1.739-0.009,3.454-0.019,5.148,0.042c3.384,0.058,6.662,0.228,9.775,0.44
		c3.113,0.223,6.063,0.515,8.791,0.846c5.455,0.668,10.024,1.535,13.232,2.277c1.603,0.351,2.87,0.74,3.73,0.955
		c0.862,0.237,1.324,0.395,1.324,0.395l0.074,1.008c0,0-1.791,0.163-4.924,0.446c-3.133,0.268-7.605,0.725-12.981,1.14
		c-10.749,0.853-25.084,1.989-39.417,3.126c-14.346,0.968-28.691,1.936-39.45,2.662c-5.379,0.376-9.87,0.575-13.009,0.767
		c-3.141,0.176-4.936,0.277-4.936,0.277L357.132,165.281z"/>
</g>
<g>
	<path fill="#BED685" d="M493.074,156.986c0,0,0.417-0.148,1.191-0.365c0.772-0.196,1.913-0.554,3.35-0.868
		c1.438-0.337,3.179-0.686,5.168-1.029c1.991-0.34,4.228-0.653,6.661-0.93c2.433-0.263,5.058-0.481,7.826-0.629
		c2.768-0.133,5.68-0.219,8.68-0.193c1.504-0.021,3.023,0.044,4.563,0.089c0.77,0.023,1.545,0.047,2.323,0.071
		c0.775,0.048,1.555,0.097,2.338,0.146c3.137,0.154,6.301,0.491,9.471,0.796c3.158,0.399,6.319,0.778,9.413,1.315
		c1.55,0.229,3.083,0.518,4.595,0.818c1.514,0.288,3.008,0.57,4.471,0.919c2.933,0.633,5.754,1.359,8.425,2.098
		c2.668,0.75,5.185,1.54,7.499,2.33c4.627,1.587,8.45,3.217,11.111,4.494c1.332,0.618,2.367,1.217,3.078,1.576
		c0.707,0.379,1.081,0.614,1.081,0.614l-0.11,1.005c0,0-1.586-0.146-4.359-0.399c-2.773-0.27-6.742-0.582-11.49-1.089
		c-9.499-0.992-22.164-2.314-34.828-3.636c-12.646-1.49-25.293-2.98-34.778-4.099c-4.743-0.546-8.686-1.115-11.448-1.46
		c-2.762-0.361-4.341-0.568-4.341-0.568L493.074,156.986z"/>
</g>
<path fill="#FFFFFF" d="M447.349,191.38c-3.434,3.102-41.357,5.433-47.615,3.342c-6.258-2.093-39.262-25.061-39.262-25.061
	l108.158,0.313C468.63,169.974,451.687,187.459,447.349,191.38z"/>
<path fill="#5D6633" d="M574.321,195.556c-3.431,3.103-43.861,12.952-50.122,10.86c-6.255-2.091-28.564-31.364-28.564-31.364"/>
<path fill="#1D1D1B" d="M443.182,173.469c0,9.664-10.084,17.499-22.521,17.499c-12.439,0-22.52-7.835-22.52-17.499"/>
<path fill="#FFFFFF" d="M432.209,187.565c0.105,0.517-1.233,1.388-2.999,1.946s-3.287,0.591-3.396,0.073
	c-0.109-0.516,1.233-1.388,2.999-1.946C430.58,187.081,432.098,187.049,432.209,187.565z"/>
<path fill="#FFFFFF" d="M574.321,195.556c-3.431,3.103-42.191,2.929-48.45,0.835c-6.257-2.091-30.644-23.074-30.644-23.074
	l109.166-0.316C604.394,173.001,578.659,191.635,574.321,195.556z"/>
<path fill="#1D1D1B" d="M524.288,175.052c0,9.665,10.082,17.499,22.521,17.499c12.437,0,22.521-7.834,22.521-17.499"/>
<path fill="#FFFFFF" d="M535.261,189.147c-0.108,0.518,1.234,1.387,3,1.947c1.767,0.558,3.283,0.59,3.396,0.073
	c0.108-0.518-1.235-1.388-3.001-1.946C536.889,188.665,535.37,188.63,535.261,189.147z"/>
<path fill="#FFFFFF" d="M407.792,268.508l162.352-14.478c0,0-19.69,38.031-46.592,38.54s-112.5-13.573-112.5-13.573L407.792,268.508
	z"/>
<path fill="#5D6633" d="M547.462,263.335l-12.898,0.986l-3.871,8.761l-6.115-7.744l-114.654,10.024l1.129,3.634
	c0,0,85.679,15.711,112.5,13.573c22.366-1.784,45.072-26.443,46.592-38.54L547.462,263.335z"/>
<path fill="#71882E" d="M612.106,138.13l-15.186-18.826l-0.669-21.383c0,0-29.454,8.874-41.094,9.164
	c-11.641,0.29-33.749,5.236-33.749,5.236l-50.637,14.567c0,0-39.022-11.803-38.542-11.658c0.481,0.146-26.397-2.374-32.346-2.91
	c-5.946-0.534-32.35-14.332-30.396-14.619c1.954-0.288-8.524,20.546-10.728,22.766c-2.204,2.218-9.281,18.078-9.281,18.078
	l-0.232,0.531c0,0-7.639-33.633-5.729-38.376c1.911-4.745,7.655-8.528,15.312-11.928c7.656-3.399,235.264-2.6,243.436,0
	c8.171,2.602,13.832,8.162,15.313,11.928c1.479,3.765-5.676,38.021-5.676,38.021L612.106,138.13z"/>
<path fill="#BED685" d="M367.8,116.485"/>
<path fill="#8FB25E" d="M564.677,205.979h81.218l-43.027-57.737c0,0-5.593-9.576-4.699-13.458c0.896-3.881,29.194,4.944,30.429,7.08
	c1.236,2.137-12.258,7.33-12.258,7.33l46.36,58.892l-98.022,30.782"/>
<path fill="#8FB25E" d="M408.615,256.667h-81.214l-83.628-28.113c0,0-0.776,6.977-1.672,10.858
	c-0.893,3.881-23.825-7.052-25.06-9.188c-1.234-2.138,25.06-8.354,25.06-8.354l74.334,17.123l92.18-15.215"/>
<path fill="#8FB25E" d="M560.904,361.01l13.716,61.376l20.301,43.823l21.168,11.399c0,0,4.938-3.421,0-5.134
	c-4.939-1.713-13.098-17.787-13.098-17.787L586.6,414.194l-8.065-52.82"/>
<path fill="#8FB25E" d="M401.294,357.811l-13.717,61.376l-20.299,43.824l-24.348,12.092c0,0-4.938-3.424,0-5.134
	c4.937-1.714,16.275-18.48,16.275-18.48l16.392-40.493l8.067-52.819"/>
</svg>
