<?xml version="1.0" encoding="utf-8"?>
<!-- Generator: Adobe Illustrator 16.0.0, SVG Export Plug-In . SVG Version: 6.00 Build 0)  -->
<!DOCTYPE svg PUBLIC "-//W3C//DTD SVG 1.1//EN" "http://www.w3.org/Graphics/SVG/1.1/DTD/svg11.dtd">
<svg version="1.1" id="Layer_1" xmlns="http://www.w3.org/2000/svg" xmlns:xlink="http://www.w3.org/1999/xlink" x="0px" y="0px"
	 width="960px" height="560px" viewBox="0 0 960 560" enable-background="new 0 0 960 560" xml:space="preserve">
<path fill="#8FB25E" d="M409.752,349.246l-7.328,10.611h-16.863l-31.905-213.734l-5.485-36.753l14.662-11.424h233.143l14.665,11.424
	l-5.437,36.414l-31.956,214.074h-16.862l-7.332-10.611C549.053,349.246,480.138,311.717,409.752,349.246z"/>
<path fill="#5D6633" d="M467.99,175.714c0,0-16.227,25.545-20.381,29.3c-3.289,2.972-39.607-3.597-45.602-5.6"/>
<g>
	<path fill="#BED685" d="M361.205,171.197c0,0,0.414-0.225,1.197-0.583c0.785-0.338,1.93-0.906,3.397-1.485
		c1.466-0.604,3.251-1.274,5.302-1.987c2.051-0.709,4.371-1.44,6.906-2.171c2.535-0.718,5.288-1.428,8.205-2.096
		c2.918-0.653,6-1.288,9.197-1.829c1.596-0.305,3.225-0.527,4.871-0.773c0.824-0.123,1.652-0.245,2.484-0.369
		c0.836-0.099,1.675-0.199,2.516-0.299c3.367-0.44,6.799-0.708,10.229-1.006c3.438-0.204,6.873-0.429,10.266-0.485
		c1.695-0.067,3.38-0.073,5.045-0.064c1.666-0.003,3.311-0.007,4.934,0.059c3.24,0.068,6.383,0.249,9.365,0.47
		c2.984,0.232,5.811,0.534,8.424,0.873c5.229,0.685,9.607,1.565,12.684,2.317c1.535,0.356,2.752,0.749,3.576,0.967
		c0.826,0.239,1.27,0.399,1.27,0.399l0.074,1.008c0,0-1.715,0.157-4.715,0.431c-3.002,0.258-7.283,0.701-12.432,1.1
		c-10.297,0.819-24.023,1.912-37.75,3.004c-13.74,0.923-27.479,1.847-37.785,2.54c-5.15,0.359-9.451,0.544-12.459,0.727
		c-3.008,0.167-4.727,0.261-4.727,0.261L361.205,171.197z"/>
</g>
<g>
	<path fill="#BED685" d="M491.402,163.253c0,0,0.4-0.15,1.145-0.37c0.741-0.2,1.836-0.563,3.214-0.883
		c1.38-0.344,3.05-0.7,4.958-1.053c1.908-0.349,4.053-0.672,6.387-0.96c2.33-0.274,4.848-0.505,7.502-0.665
		c2.652-0.146,5.443-0.245,8.318-0.234c1.441-0.028,2.896,0.031,4.371,0.068c0.738,0.02,1.48,0.04,2.227,0.061
		c0.742,0.044,1.49,0.089,2.24,0.134c3.004,0.14,6.035,0.461,9.07,0.752c3.025,0.385,6.053,0.748,9.014,1.271
		c1.486,0.222,2.952,0.503,4.399,0.796c1.448,0.28,2.88,0.556,4.28,0.897c2.807,0.619,5.508,1.332,8.063,2.058
		c2.554,0.737,4.96,1.515,7.175,2.293c4.427,1.565,8.082,3.177,10.626,4.44c1.274,0.612,2.263,1.206,2.942,1.561
		c0.676,0.376,1.033,0.609,1.033,0.609l-0.11,1.005c0,0-1.519-0.138-4.177-0.379c-2.654-0.257-6.457-0.55-11.004-1.035
		c-9.098-0.947-21.229-2.209-33.357-3.472c-12.111-1.431-24.223-2.862-33.307-3.935c-4.543-0.524-8.316-1.075-10.963-1.407
		c-2.646-0.348-4.156-0.547-4.156-0.547L491.402,163.253z"/>
</g>
<path fill="#FFFFFF" d="M447.609,196.214c-3.289,2.971-39.609,5.204-45.602,3.201c-5.994-2.004-37.602-24-37.602-24l103.584,0.3
	C467.99,175.714,451.764,192.459,447.609,196.214z"/>
<path fill="#5D6633" d="M569.213,200.214c-3.285,2.972-42.006,12.405-48.001,10.401c-5.991-2.003-27.356-30.038-27.356-30.038"/>
<path fill="#1D1D1B" d="M443.619,179.061c0,9.255-9.658,16.759-21.568,16.759c-11.914,0-21.568-7.504-21.568-16.759"/>
<path fill="#FFFFFF" d="M433.109,192.561c0.103,0.495-1.181,1.329-2.871,1.864c-1.691,0.534-3.148,0.566-3.252,0.07
	c-0.105-0.495,1.182-1.329,2.871-1.864C431.551,192.097,433.004,192.067,433.109,192.561z"/>
<path fill="#FFFFFF" d="M569.213,200.214c-3.285,2.972-40.406,2.806-46.4,0.8c-5.992-2.003-29.35-22.099-29.35-22.099l104.551-0.302
	C598.014,178.613,573.367,196.459,569.213,200.214z"/>
<path fill="#1D1D1B" d="M521.295,180.577c0,9.256,9.656,16.758,21.568,16.758s21.57-7.502,21.57-16.758"/>
<path fill="#FFFFFF" d="M531.805,194.077c-0.104,0.496,1.182,1.328,2.873,1.864c1.691,0.535,3.145,0.565,3.252,0.07
	c0.102-0.496-1.183-1.329-2.875-1.863C533.363,193.614,531.909,193.581,531.805,194.077z"/>
<path fill="#FFFFFF" d="M409.726,270.082l155.487-13.866c0,0-18.859,36.423-44.623,36.911s-107.742-12.999-107.742-12.999
	L409.726,270.082z"/>
<path fill="#5D6633" d="M543.49,265.126l-12.354,0.945l-3.707,8.391l-5.857-7.416l-109.807,9.6l1.082,3.48
	c0,0,82.057,15.048,107.742,12.999c21.422-1.709,43.168-25.325,44.623-36.911L543.49,265.126z"/>
<path fill="#71882E" d="M605.4,145.216l-14.543-18.03l-0.641-20.479c0,0-28.209,8.499-39.357,8.776
	c-11.146,0.278-32.32,5.015-32.32,5.015l-48.496,13.952c0,0-37.373-11.304-36.912-11.165c0.461,0.14-25.281-2.273-30.977-2.787
	c-5.695-0.511-30.983-13.726-29.113-14.001c1.871-0.275-8.164,19.678-10.273,21.804c-2.111,2.125-8.889,17.313-8.889,17.313
	l-0.224,0.509c0,0-7.315-32.211-5.485-36.753c1.828-4.545,7.33-8.167,14.662-11.424c7.334-3.256,225.316-2.49,233.143,0
	c7.826,2.491,13.247,7.816,14.665,11.424c1.417,3.606-5.437,36.414-5.437,36.414L605.4,145.216z"/>
<path fill="#BED685" d="M371.424,124.486"/>
<path fill="#8FB25E" d="M575.854,214.614l66.982-28.801l-41.209-55.297c0,0-5.355-9.17-4.498-12.888
	c0.855-3.717,27.957,4.733,29.141,6.781c1.184,2.046-11.74,7.02-11.74,7.02l44.4,56.402l-80.678,54.384"/>
<path fill="#8FB25E" d="M410.516,258.74h-77.781l-80.092-26.924c0,0-0.744,6.683-1.602,10.4c-0.855,3.717-22.818-6.755-24-8.8
	c-1.183-2.047,24-8.001,24-8.001l71.191,16.398l88.283-14.571"/>
<path fill="#8FB25E" d="M556.363,358.671l13.137,58.781l19.441,41.971l20.273,10.918c0,0,4.729-3.277,0-4.918
	c-4.73-1.641-12.543-17.035-12.543-17.035l-15.699-38.78l-7.726-50.587"/>
<path fill="#8FB25E" d="M403.502,355.607l-13.137,58.781l-19.44,41.971l-23.319,11.581c0,0-4.729-3.279,0-4.918
	c4.73-1.641,15.588-17.698,15.588-17.698l15.7-38.78l7.726-50.587"/>
</svg>
