<?xml version="1.0" encoding="utf-8"?>
<!-- Generator: Adobe Illustrator 16.0.0, SVG Export Plug-In . SVG Version: 6.00 Build 0)  -->
<!DOCTYPE svg PUBLIC "-//W3C//DTD SVG 1.1//EN" "http://www.w3.org/Graphics/SVG/1.1/DTD/svg11.dtd">
<svg version="1.1" id="Layer_1" xmlns="http://www.w3.org/2000/svg" xmlns:xlink="http://www.w3.org/1999/xlink" x="0px" y="0px"
	 width="960px" height="560px" viewBox="0 0 960 560" enable-background="new 0 0 960 560" xml:space="preserve">
<path fill="#8FB25E" d="M421.027,336.443l-6.701,9.697h-15.414l-29.168-195.386l-5.014-33.6l13.404-10.441h213.129l13.406,10.441
	l-4.971,33.289l-29.213,195.696h-15.414l-6.703-9.697C548.369,336.443,485.369,302.133,421.027,336.443z"/>
<path fill="#5D6633" d="M474.266,177.806c0,0-14.834,23.353-18.633,26.785c-3.006,2.716-36.207-3.288-41.688-5.12"/>
<g>
	<path fill="#BED685" d="M376.644,173.632c0,0,0.378-0.222,1.091-0.576c0.717-0.333,1.76-0.894,3.1-1.463
		c1.336-0.594,2.964-1.253,4.836-1.953c1.871-0.697,3.988-1.412,6.303-2.127c2.314-0.701,4.828-1.394,7.492-2.043
		c2.664-0.634,5.479-1.249,8.4-1.771c1.457-0.294,2.945-0.506,4.449-0.743c0.754-0.117,1.511-0.234,2.271-0.353
		c0.763-0.094,1.529-0.188,2.299-0.283c3.076-0.419,6.213-0.664,9.349-0.941c3.142-0.182,6.282-0.386,9.386-0.421
		c1.549-0.057,3.091-0.052,4.614-0.032c1.522,0.007,3.028,0.013,4.511,0.089c2.966,0.088,5.84,0.289,8.57,0.528
		c2.729,0.251,5.316,0.57,7.71,0.925c4.786,0.718,8.796,1.625,11.614,2.396c1.408,0.365,2.521,0.766,3.277,0.989
		c0.758,0.244,1.164,0.407,1.164,0.407l0.074,1.008c0,0-1.568,0.146-4.311,0.401c-2.742,0.239-6.656,0.655-11.363,1.021
		c-9.412,0.754-21.959,1.76-34.508,2.766c-12.561,0.837-25.121,1.674-34.543,2.302c-4.709,0.327-8.641,0.484-11.391,0.648
		c-2.75,0.148-4.32,0.232-4.32,0.232L376.644,173.632z"/>
</g>
<g>
	<path fill="#BED685" d="M495.674,166.371c0,0,0.367-0.154,1.051-0.38c0.68-0.207,1.686-0.58,2.949-0.913
		c1.266-0.357,2.797-0.729,4.547-1.098c1.75-0.367,3.716-0.71,5.854-1.02c2.136-0.296,4.442-0.55,6.873-0.735
		c2.428-0.17,4.984-0.296,7.615-0.312c1.318-0.042,2.65,0.003,4,0.027c0.676,0.013,1.354,0.026,2.037,0.04
		c0.68,0.038,1.361,0.075,2.049,0.113c2.748,0.111,5.52,0.404,8.295,0.666c2.764,0.356,5.531,0.69,8.236,1.185
		c1.357,0.208,2.697,0.475,4.019,0.754c1.323,0.267,2.63,0.528,3.909,0.856c2.563,0.592,5.027,1.278,7.359,1.979
		c2.33,0.712,4.525,1.466,6.545,2.224c4.037,1.521,7.367,3.097,9.682,4.335c1.162,0.599,2.061,1.183,2.68,1.531
		c0.615,0.37,0.939,0.599,0.939,0.599l-0.11,1.005c0,0-1.39-0.124-3.817-0.339c-2.43-0.232-5.906-0.489-10.063-0.93
		c-8.318-0.86-19.406-2.008-30.496-3.155c-11.07-1.315-22.141-2.631-30.443-3.618c-4.154-0.48-7.602-0.995-10.021-1.302
		c-2.418-0.323-3.799-0.508-3.799-0.508L495.674,166.371z"/>
</g>
<path fill="#FFFFFF" d="M455.633,196.546c-3.006,2.717-36.207,4.757-41.688,2.925c-5.477-1.83-34.372-21.94-34.372-21.94
	l94.692,0.275C474.266,177.806,459.432,193.114,455.633,196.546z"/>
<path fill="#5D6633" d="M566.799,200.203c-3.004,2.716-38.4,11.34-43.881,9.508c-5.477-1.832-25.008-27.459-25.008-27.459"/>
<path fill="#1D1D1B" d="M451.986,180.866c0,8.461-8.828,15.32-19.717,15.32c-10.891,0-19.717-6.858-19.717-15.32"/>
<path fill="#FFFFFF" d="M442.379,193.207c0.094,0.453-1.08,1.215-2.625,1.703c-1.547,0.487-2.879,0.518-2.973,0.065
	c-0.096-0.453,1.079-1.215,2.625-1.705C440.953,192.784,442.283,192.754,442.379,193.207z"/>
<path fill="#FFFFFF" d="M566.799,200.203c-3.004,2.716-36.938,2.563-42.418,0.731c-5.479-1.832-26.828-20.203-26.828-20.203
	l95.574-0.275C593.127,180.456,570.598,196.771,566.799,200.203z"/>
<path fill="#1D1D1B" d="M522.994,182.251c0,8.461,8.828,15.32,19.717,15.32c10.89,0,19.719-6.858,19.719-15.32"/>
<path fill="#FFFFFF" d="M532.602,194.592c-0.096,0.452,1.08,1.215,2.627,1.703c1.547,0.489,2.875,0.517,2.973,0.064
	c0.094-0.452-1.082-1.214-2.629-1.704C534.027,194.169,532.697,194.14,532.602,194.592z"/>
<path fill="#FFFFFF" d="M421.002,264.073l142.141-12.676c0,0-17.24,33.295-40.793,33.74c-23.553,0.446-98.494-11.883-98.494-11.883
	L421.002,264.073z"/>
<path fill="#5D6633" d="M543.283,259.542l-11.293,0.863l-3.389,7.673l-5.355-6.781l-100.379,8.776l0.988,3.182
	c0,0,75.014,13.756,98.494,11.883c19.584-1.562,39.461-23.149,40.793-33.74L543.283,259.542z"/>
<path fill="#71882E" d="M599.881,149.925l-13.295-16.481L586,114.721c0,0-25.789,7.77-35.979,8.024
	c-10.19,0.254-29.547,4.585-29.547,4.585l-44.334,12.753c0,0-34.164-10.333-33.742-10.206c0.42,0.127-23.111-2.08-28.318-2.547
	c-5.205-0.469-28.323-12.547-26.613-12.8c1.711-0.253-7.463,17.989-9.393,19.931c-1.93,1.943-8.125,15.83-8.125,15.83l-0.205,0.464
	c0,0-6.686-29.445-5.014-33.6c1.672-4.152,6.701-7.465,13.404-10.441c6.703-2.977,205.974-2.278,213.129,0
	c7.154,2.275,12.109,7.145,13.406,10.441c1.295,3.298-4.971,33.289-4.971,33.289L599.881,149.925z"/>
<path fill="#BED685" d="M385.988,130.975"/>
<path fill="#8FB25E" d="M580.295,218.653h71.107l-13.484-65.42c0,0-4.896-8.382-4.113-11.781c0.782-3.398,25.559,4.327,26.639,6.199
	c1.082,1.871-14.887,9.403-14.887,9.403L661,234.127l-80.705,13.319"/>
<path fill="#8FB25E" d="M421.725,253.705h-71.105l-73.217-24.613c0,0-0.68,6.108-1.463,9.507
	c-0.781,3.398-20.859-6.174-21.939-8.045c-1.082-1.872,21.939-7.313,21.939-7.313l65.08,14.991l80.705-13.321"/>
<path fill="#8FB25E" d="M555.053,345.057l12.008,53.737l17.773,38.365l18.533,9.982c0,0,4.322-2.997,0-4.497
	c-4.324-1.498-11.467-15.572-11.467-15.572l-14.352-35.452l-7.063-46.244"/>
<path fill="#8FB25E" d="M415.313,342.256l-12.008,53.737l-17.773,38.366l-21.316,10.589c0,0-4.322-2.998,0-4.498
	c4.324-1.497,14.25-16.179,14.25-16.179l14.352-35.452l7.063-46.244"/>
</svg>
