<?xml version="1.0" encoding="utf-8"?>
<!-- Generator: Adobe Illustrator 16.0.0, SVG Export Plug-In . SVG Version: 6.00 Build 0)  -->
<!DOCTYPE svg PUBLIC "-//W3C//DTD SVG 1.1//EN" "http://www.w3.org/Graphics/SVG/1.1/DTD/svg11.dtd">
<svg version="1.1" id="Layer_1" xmlns="http://www.w3.org/2000/svg" xmlns:xlink="http://www.w3.org/1999/xlink" x="0px" y="0px"
	 width="960px" height="560px" viewBox="0 0 960 560" enable-background="new 0 0 960 560" xml:space="preserve">
<path fill="#8FB25E" d="M409.74,345.362l-6.958,10.07h-16.008l-30.289-202.901l-5.208-34.892l13.919-10.843h221.328l13.921,10.843
	l-5.16,34.568l-30.337,203.225h-16.008l-6.96-10.07C541.981,345.362,476.558,309.732,409.74,345.362z"/>
<path fill="#5D6633" d="M465.027,180.622c0,0-8.263,30.975-12.207,34.539c-3.122,2.821-47.853-3.794-53.543-5.696"/>
<g>
	<path fill="#BED685" d="M378.734,177.633c0,0,0.348-0.22,1.006-0.569c0.659-0.33,1.622-0.884,2.856-1.446
		c1.233-0.587,2.735-1.237,4.462-1.927c1.727-0.687,3.681-1.391,5.817-2.093c2.137-0.689,4.457-1.368,6.917-2.003
		c2.462-0.62,5.061-1.22,7.759-1.726c1.346-0.287,2.722-0.49,4.112-0.719c0.695-0.113,1.395-0.227,2.098-0.341
		c0.705-0.09,1.413-0.18,2.125-0.271c2.842-0.402,5.742-0.631,8.64-0.892c2.905-0.165,5.808-0.353,8.679-0.371
		c1.432-0.048,2.858-0.035,4.267-0.008c1.408,0.016,2.8,0.029,4.173,0.113c2.742,0.104,5.402,0.319,7.928,0.574
		c2.526,0.265,4.921,0.598,7.136,0.966c4.431,0.742,8.145,1.671,10.756,2.456c1.303,0.372,2.336,0.778,3.037,1.006
		c0.702,0.248,1.079,0.413,1.079,0.413l0.074,1.008c0,0-1.448,0.138-3.983,0.378c-2.536,0.225-6.153,0.62-10.504,0.961
		c-8.7,0.704-20.299,1.644-31.899,2.582c-11.612,0.771-23.224,1.541-31.933,2.118c-4.354,0.302-7.99,0.438-10.532,0.588
		c-2.542,0.133-3.996,0.209-3.996,0.209L378.734,177.633z"/>
</g>
<g>
	<path fill="#BED685" d="M491.591,172.506c0,0,0.357-0.168,1.021-0.42c0.663-0.232,1.64-0.644,2.875-1.023
		c1.235-0.404,2.731-0.834,4.442-1.27c1.711-0.433,3.636-0.85,5.732-1.24c2.094-0.376,4.359-0.717,6.747-0.994
		c2.387-0.262,4.901-0.484,7.493-0.6c1.298-0.092,2.612-0.097,3.943-0.124c0.666-0.013,1.335-0.025,2.009-0.038
		c0.671,0.013,1.345,0.024,2.023,0.036c2.712,0.007,5.454,0.195,8.198,0.352c2.737,0.251,5.476,0.48,8.159,0.872
		c1.344,0.156,2.674,0.373,3.987,0.602c1.313,0.216,2.611,0.428,3.882,0.708c2.547,0.494,5,1.087,7.323,1.699
		c2.322,0.623,4.511,1.294,6.527,1.975c4.032,1.367,7.369,2.815,9.695,3.966c1.165,0.555,2.071,1.104,2.693,1.429
		c0.621,0.346,0.949,0.563,0.949,0.563l-0.075,1.008c0,0-1.373-0.07-3.774-0.194c-2.401-0.14-5.836-0.266-9.948-0.549
		c-8.226-0.545-19.195-1.272-30.163-1.999c-10.956-0.896-21.912-1.791-30.129-2.463c-4.109-0.323-7.525-0.707-9.92-0.922
		c-2.394-0.231-3.762-0.364-3.762-0.364L491.591,172.506z"/>
</g>
<path fill="#FFFFFF" d="M449.972,207.187c-3.122,2.821-45.006,4.181-50.695,2.278c-5.689-1.899-20.506-28.48-20.506-28.48
	l86.256-0.362C465.027,180.622,453.917,203.622,449.972,207.187z"/>
<path fill="#5D6633" d="M563.895,211.174c-3.119,2.821-45.574,8.738-51.265,6.836c-5.688-1.902-23.049-32.771-23.049-32.771"/>
<path fill="#1D1D1B" d="M441.89,183.802c0,8.786-9.167,15.909-20.475,15.909c-11.31,0-20.475-7.123-20.475-15.909"/>
<path fill="#FFFFFF" d="M431.914,196.615c0.097,0.473-1.121,1.262-2.727,1.77c-1.605,0.507-2.988,0.538-3.086,0.068
	c-0.1-0.472,1.12-1.262,2.726-1.771C430.433,196.178,431.813,196.146,431.914,196.615z"/>
<path fill="#FFFFFF" d="M563.895,211.174c-3.119,2.821-43.296,1.902-48.986,0c-5.688-1.902-25.699-27.513-25.699-27.513
	l90.635,1.311C579.844,184.972,567.838,207.611,563.895,211.174z"/>
<path fill="#1D1D1B" d="M515.63,185.239c0,8.786,9.167,15.909,20.476,15.909c11.308,0,20.476-7.123,20.476-15.909"/>
<path fill="#FFFFFF" d="M525.607,198.056c-0.098,0.469,1.122,1.261,2.728,1.769c1.606,0.508,2.985,0.536,3.087,0.066
	c0.097-0.469-1.123-1.262-2.729-1.769C527.087,197.615,525.706,197.586,525.607,198.056z"/>
<path fill="#FFFFFF" d="M409.714,270.209l147.607-13.163c0,0-17.903,34.575-42.361,35.038
	c-24.458,0.463-102.282-12.341-102.282-12.341L409.714,270.209z"/>
<path fill="#5D6633" d="M536.7,265.503l-11.727,0.896l-3.52,7.968l-5.561-7.042l-104.241,9.114l1.027,3.304
	c0,0,77.898,14.285,102.282,12.341c20.337-1.623,40.979-24.04,42.361-35.038L536.7,265.503z"/>
<path fill="#71882E" d="M595.474,151.67l-13.807-17.115l-0.607-19.442c0,0-26.78,8.067-37.363,8.333
	c-10.583,0.262-30.684,4.762-30.684,4.762l-46.038,13.243c0,0-35.479-10.731-35.042-10.601c0.438,0.134-24-2.158-29.407-2.643
	c-5.407-0.487-29.413-13.03-27.637-13.293c1.777-0.263-7.75,18.682-9.753,20.697c-2.004,2.019-8.438,16.438-8.438,16.438
	l-0.212,0.481c0,0-6.944-30.577-5.208-34.892c1.736-4.312,6.958-7.752,13.919-10.843c6.961-3.093,213.897-2.365,221.328,0
	c7.43,2.363,12.575,7.419,13.921,10.843c1.345,3.425-5.16,34.568-5.16,34.568L595.474,151.67z"/>
<path fill="#BED685" d="M373.354,131.991"/>
<path fill="#8FB25E" d="M566.591,225.318l57.682,4.083l44.144-46.435c0,0-5.085-8.704-4.271-12.235
	c0.812-3.528,26.541,4.495,27.664,6.438c1.124,1.942-15.46,9.766-15.46,9.766l-42.109,58.536l-67.65,9.75"/>
<path fill="#8FB25E" d="M412.743,260.012h-73.839l-64.561,40.211c0,0-0.706,6.344-1.52,9.873
	c-0.812,3.528-21.662-6.411-22.785-8.354c-1.123-1.944,22.785-7.596,22.785-7.596l56.11-50.204l83.81-13.833"/>
<path fill="#8FB25E" d="M548.921,354.307l12.47,55.805l18.457,39.842l23.919,2.28c0,0,4.489-3.112,0-4.67
	c-4.49-1.556-16.581-8.086-16.581-8.086l-14.903-36.815l-7.334-48.023"/>
<path fill="#8FB25E" d="M403.807,351.398l-12.472,55.805l-18.456,39.842l-27.146,4.049c0,0-4.489-3.112,0-4.67
	c4.49-1.556,19.807-9.854,19.807-9.854l14.905-36.815l7.333-48.023"/>
</svg>
