<?xml version="1.0" encoding="utf-8"?>
<!-- Generator: Adobe Illustrator 16.0.0, SVG Export Plug-In . SVG Version: 6.00 Build 0)  -->
<!DOCTYPE svg PUBLIC "-//W3C//DTD SVG 1.1//EN" "http://www.w3.org/Graphics/SVG/1.1/DTD/svg11.dtd">
<svg version="1.1" id="Layer_1" xmlns="http://www.w3.org/2000/svg" xmlns:xlink="http://www.w3.org/1999/xlink" x="0px" y="0px"
	 width="960px" height="560px" viewBox="0 0 960 560" enable-background="new 0 0 960 560" xml:space="preserve">
<path fill="#8FB25E" d="M412.831,336.215l-6.107,8.84h-14.052l-26.587-178.105l-4.571-30.627l12.219-9.518h194.279l12.22,9.518
	l-4.529,30.344l-26.63,178.389h-14.052l-6.109-8.84C528.912,336.215,471.484,304.939,412.831,336.215z"/>
<path fill="#5D6633" d="M461.362,191.607c0,0-7.253,27.189-10.715,30.318c-2.74,2.477-42.005-3.33-47-5"/>
<g>
	<path fill="#BED685" d="M385.61,188.922c0,0,0.304-0.217,0.879-0.561c0.577-0.323,1.417-0.868,2.497-1.42
		c1.077-0.575,2.391-1.212,3.902-1.885c1.511-0.671,3.221-1.356,5.091-2.039c1.871-0.67,3.903-1.328,6.059-1.94
		c2.157-0.597,4.435-1.173,6.8-1.654c1.18-0.274,2.386-0.466,3.606-0.682c0.609-0.106,1.223-0.214,1.84-0.322
		c0.618-0.083,1.24-0.167,1.864-0.251c2.493-0.377,5.039-0.579,7.583-0.813c2.55-0.139,5.099-0.3,7.62-0.293
		c1.258-0.035,2.51-0.01,3.748,0.03c1.237,0.028,2.46,0.055,3.667,0.15c2.41,0.129,4.749,0.368,6.97,0.645
		c2.222,0.288,4.328,0.642,6.277,1.029c3.898,0.782,7.17,1.742,9.47,2.551c1.148,0.384,2.059,0.8,2.676,1.032
		c0.619,0.255,0.952,0.423,0.952,0.423l0.074,1.008c0,0-1.271,0.125-3.496,0.342c-2.226,0.202-5.4,0.564-9.219,0.867
		c-7.636,0.625-17.817,1.46-27.999,2.294c-10.194,0.666-20.387,1.332-28.033,1.831c-3.822,0.263-7.015,0.366-9.246,0.493
		c-2.232,0.11-3.508,0.173-3.508,0.173L385.61,188.922z"/>
</g>
<g>
	<path fill="#BED685" d="M484.685,184.422c0,0,0.314-0.171,0.9-0.429c0.585-0.238,1.447-0.657,2.534-1.049
		c1.089-0.415,2.407-0.857,3.914-1.309c1.507-0.447,3.202-0.882,5.047-1.291c1.843-0.395,3.835-0.756,5.936-1.054
		c2.1-0.283,4.31-0.528,6.588-0.667c1.142-0.104,2.295-0.12,3.465-0.159c0.584-0.019,1.173-0.037,1.764-0.057
		c0.59,0.006,1.182,0.012,1.777,0.018c2.382-0.017,4.789,0.146,7.198,0.277c2.402,0.227,4.806,0.432,7.16,0.799
		c1.18,0.144,2.346,0.348,3.496,0.564c1.152,0.205,2.29,0.405,3.404,0.673c2.233,0.471,4.382,1.041,6.417,1.632
		c2.034,0.603,3.951,1.253,5.716,1.915c3.53,1.33,6.449,2.747,8.481,3.876c1.019,0.544,1.81,1.084,2.353,1.403
		c0.542,0.34,0.829,0.554,0.829,0.554l-0.075,1.008c0,0-1.205-0.059-3.313-0.16c-2.108-0.118-5.124-0.213-8.734-0.459
		c-7.222-0.471-16.85-1.099-26.479-1.727c-9.616-0.796-19.232-1.593-26.445-2.189c-3.607-0.286-6.604-0.639-8.707-0.832
		c-2.101-0.21-3.302-0.33-3.302-0.33L484.685,184.422z"/>
</g>
<path fill="#FFFFFF" d="M448.147,214.926c-2.74,2.477-39.506,3.67-44.5,2c-4.994-1.668-18-25-18-25l75.715-0.318
	C461.362,191.607,451.61,211.797,448.147,214.926z"/>
<path fill="#5D6633" d="M548.147,218.426c-2.738,2.477-40.005,7.67-45,6c-4.993-1.67-20.232-28.766-20.232-28.766"/>
<path fill="#1D1D1B" d="M441.052,194.398c0,7.713-8.047,13.965-17.973,13.965c-9.928,0-17.973-6.252-17.973-13.965"/>
<path fill="#FFFFFF" d="M432.295,205.646c0.085,0.414-0.985,1.107-2.394,1.553c-1.409,0.445-2.623,0.473-2.709,0.061
	c-0.088-0.414,0.983-1.107,2.393-1.555C430.996,205.262,432.207,205.234,432.295,205.646z"/>
<path fill="#FFFFFF" d="M548.147,218.426c-2.738,2.477-38.005,1.67-43,0c-4.993-1.67-22.559-24.15-22.559-24.15l79.559,1.15
	C562.147,195.426,551.609,215.299,548.147,218.426z"/>
<path fill="#1D1D1B" d="M505.781,195.66c0,7.713,8.047,13.965,17.974,13.965c9.926,0,17.973-6.252,17.973-13.965"/>
<path fill="#FFFFFF" d="M514.539,206.91c-0.087,0.412,0.984,1.107,2.395,1.553c1.409,0.445,2.62,0.471,2.709,0.059
	c0.085-0.412-0.985-1.107-2.396-1.553C515.837,206.523,514.625,206.498,514.539,206.91z"/>
<path fill="#FFFFFF" d="M412.809,270.246l117.86-5.488c0,0-4.006,24.283-25.476,24.689c-21.469,0.406-89.782-10.832-89.782-10.832
	L412.809,270.246z"/>
<path fill="#5D6633" d="M524.276,266.115l-10.294,0.787l-3.09,6.994l-4.881-6.182l-91.502,8l0.901,2.9
	c0,0,68.378,12.539,89.782,10.832c17.852-1.424,24.263-15.035,25.476-24.689L524.276,266.115z"/>
<path fill="#71882E" d="M575.867,166.193l-12.119-15.023l-0.533-17.066c0,0-23.508,7.082-32.797,7.314
	c-9.289,0.23-26.934,4.18-26.934,4.18l-40.412,11.625c0,0-31.143-9.42-30.759-9.305c0.384,0.117-21.067-1.895-25.813-2.32
	c-4.746-0.428-25.818-11.438-24.259-11.668c1.56-0.23-6.803,16.398-8.562,18.168c-1.759,1.771-7.406,14.43-7.406,14.43l-0.187,0.422
	c0,0-6.096-26.84-4.571-30.627c1.524-3.785,6.108-6.805,12.219-9.518c6.11-2.715,187.757-2.076,194.279,0
	c6.521,2.074,11.038,6.512,12.22,9.518c1.181,3.006-4.529,30.344-4.529,30.344L575.867,166.193z"/>
<path fill="#BED685" d="M380.892,148.92"/>
<path fill="#8FB25E" d="M550.514,230.842l59.905,6.811l15.999-45.154c0,0-4.463-7.641-3.749-10.74
	c0.713-3.098,23.298,3.945,24.283,5.65c0.986,1.705-13.57,8.572-13.57,8.572l-14.213,55.777l-68.655,5.332"/>
<path fill="#8FB25E" d="M415.467,261.295h-64.815l-39.149,48.297c0,0-0.62,5.568-1.334,8.666c-0.713,3.098-19.015-5.627-20-7.332
	c-0.985-1.707,20-6.668,20-6.668l31.731-57.068l73.567-12.143"/>
<path fill="#8FB25E" d="M535.003,344.066l10.946,48.984l16.201,34.973l20.996,2.002c0,0,3.94-2.732,0-4.1
	c-3.941-1.365-14.555-7.098-14.555-7.098l-13.082-32.316l-6.438-42.154"/>
<path fill="#8FB25E" d="M407.623,341.514l-10.947,48.984l-16.2,34.973l-23.829,3.555c0,0-3.941-2.732,0-4.1
	c3.941-1.365,17.387-8.65,17.387-8.65l13.083-32.316l6.438-42.154"/>
</svg>
