<?xml version="1.0" encoding="utf-8"?>
<!-- Generator: Adobe Illustrator 16.0.0, SVG Export Plug-In . SVG Version: 6.00 Build 0)  -->
<!DOCTYPE svg PUBLIC "-//W3C//DTD SVG 1.1//EN" "http://www.w3.org/Graphics/SVG/1.1/DTD/svg11.dtd">
<svg version="1.1" id="Layer_1" xmlns="http://www.w3.org/2000/svg" xmlns:xlink="http://www.w3.org/1999/xlink" x="0px" y="0px"
	 width="960px" height="560px" viewBox="0 0 960 560" enable-background="new 0 0 960 560" xml:space="preserve">
<path fill="#8FB25E" d="M419.717,343.939l-6.823,9.877h-15.697L367.498,154.86l-5.106-34.213l13.649-10.633h217.022l13.65,10.633
	l-5.06,33.896l-29.747,199.272H556.21l-6.825-9.877C549.385,343.939,485.235,309.005,419.717,343.939z"/>
<path fill="#5D6633" d="M473.928,182.405c0,0-15.105,23.779-18.973,27.274c-3.061,2.766-36.868-3.348-42.448-5.213"/>
<g>
	<path fill="#BED685" d="M374.425,174.173c0,0,0.401-0.192,1.154-0.489c0.752-0.277,1.856-0.754,3.26-1.218
		c1.404-0.488,3.109-1.018,5.064-1.57c1.956-0.548,4.161-1.097,6.567-1.629c2.406-0.519,5.012-1.014,7.768-1.454
		c2.756-0.425,5.662-0.818,8.667-1.11c1.503-0.181,3.031-0.275,4.577-0.394c0.773-0.058,1.551-0.116,2.333-0.175
		c0.782-0.034,1.567-0.068,2.356-0.103c3.155-0.179,6.359-0.179,9.564-0.21c3.204,0.063,6.409,0.105,9.562,0.312
		c1.577,0.064,3.141,0.189,4.687,0.328c1.545,0.125,3.072,0.249,4.573,0.44c3.002,0.319,5.905,0.743,8.657,1.194
		c2.752,0.463,5.353,0.983,7.754,1.523c4.802,1.088,8.802,2.306,11.601,3.294c1.4,0.474,2.5,0.959,3.249,1.241
		c0.75,0.303,1.149,0.496,1.149,0.497l-0.005,1.011c0,0-1.602,0.023-4.407,0.064c-2.804,0.025-6.81,0.135-11.617,0.133
		c-9.613,0.019-22.432,0.044-35.25,0.069c-12.817-0.144-25.635-0.288-35.248-0.396c-4.807-0.041-8.812-0.19-11.616-0.241
		c-2.804-0.067-4.406-0.105-4.406-0.105L374.425,174.173z"/>
</g>
<g>
	<path fill="#BED685" d="M495.403,175.209c0,0,0.357-0.189,1.026-0.481c0.669-0.272,1.65-0.742,2.898-1.196
		c1.248-0.479,2.762-0.998,4.499-1.537c1.736-0.536,3.694-1.069,5.83-1.586c2.135-0.503,4.447-0.981,6.892-1.403
		c2.444-0.406,5.021-0.781,7.685-1.054c1.333-0.17,2.687-0.255,4.057-0.364c0.685-0.053,1.375-0.106,2.068-0.16
		c0.692-0.029,1.389-0.058,2.087-0.087c2.796-0.158,5.634-0.136,8.472-0.147c2.837,0.084,5.674,0.147,8.465,0.375
		c1.396,0.074,2.78,0.209,4.147,0.358c1.368,0.136,2.718,0.269,4.046,0.471c2.657,0.338,5.223,0.781,7.656,1.251
		c2.433,0.481,4.732,1.018,6.854,1.574c4.243,1.12,7.775,2.363,10.246,3.37c1.236,0.483,2.205,0.976,2.867,1.262
		c0.662,0.308,1.014,0.503,1.014,0.504l-0.013,1.011c0,0-1.419,0.013-3.903,0.035c-2.484,0.006-6.033,0.09-10.29,0.057
		c-8.514-0.044-19.866-0.103-31.218-0.162c-11.35-0.228-22.7-0.456-31.213-0.627c-4.256-0.073-7.802-0.248-10.284-0.317
		c-2.482-0.085-3.901-0.134-3.901-0.134L495.403,175.209z"/>
</g>
<path fill="#FFFFFF" d="M454.955,201.488c-3.061,2.766-36.869,4.843-42.448,2.979c-5.579-1.864-35.001-22.341-35.001-22.341
	l96.422,0.28C473.928,182.405,458.823,197.993,454.955,201.488z"/>
<path fill="#5D6633" d="M568.152,205.211c-3.059,2.766-39.103,11.547-44.683,9.682c-5.578-1.865-25.465-27.96-25.465-27.96"/>
<path fill="#1D1D1B" d="M451.241,185.521c0,8.616-8.989,15.6-20.077,15.6c-11.09,0-20.076-6.984-20.076-15.6"/>
<path fill="#FFFFFF" d="M441.459,198.088c0.095,0.461-1.1,1.237-2.674,1.734c-1.574,0.497-2.93,0.527-3.026,0.066
	c-0.098-0.461,1.099-1.237,2.673-1.735C440.007,197.656,441.361,197.627,441.459,198.088z"/>
<path fill="#FFFFFF" d="M568.152,205.211c-3.059,2.766-37.614,2.611-43.194,0.745c-5.577-1.865-27.318-20.571-27.318-20.571
	l97.322-0.281C594.961,185.104,572.019,201.717,568.152,205.211z"/>
<path fill="#1D1D1B" d="M523.547,186.933c0,8.616,8.989,15.6,20.078,15.6c11.087,0,20.078-6.984,20.078-15.6"/>
<path fill="#FFFFFF" d="M533.33,199.499c-0.098,0.461,1.1,1.236,2.675,1.735c1.574,0.498,2.927,0.526,3.026,0.065
	c0.096-0.461-1.101-1.236-2.676-1.734C534.781,199.067,533.427,199.038,533.33,199.499z"/>
<path fill="#FFFFFF" d="M419.691,270.248l144.736-12.907c0,0-17.555,33.904-41.538,34.358c-23.982,0.454-100.292-12.1-100.292-12.1
	L419.691,270.248z"/>
<path fill="#5D6633" d="M544.207,265.636l-11.499,0.879l-3.452,7.811l-5.452-6.903l-102.213,8.937l1.007,3.24
	c0,0,76.382,14.007,100.292,12.1c19.941-1.591,40.183-23.574,41.538-34.358L544.207,265.636z"/>
<path fill="#71882E" d="M601.837,154.016l-13.538-16.783l-0.596-19.063c0,0-26.259,7.911-36.636,8.17
	c-10.376,0.258-30.086,4.668-30.086,4.668l-45.143,12.986c0,0-34.788-10.522-34.359-10.393c0.429,0.129-23.534-2.117-28.835-2.594
	c-5.302-0.477-28.841-12.776-27.1-13.033c1.742-0.257-7.599,18.317-9.564,20.295c-1.964,1.978-8.273,16.118-8.273,16.118
	l-0.208,0.473c0,0-6.809-29.983-5.106-34.213c1.703-4.229,6.823-7.602,13.649-10.633c6.825-3.031,209.736-2.318,217.022,0
	c7.285,2.318,12.33,7.276,13.65,10.633c1.319,3.357-5.06,33.896-5.06,33.896L601.837,154.016z"/>
<path fill="#BED685" d="M384.038,134.72"/>
<path fill="#8FB25E" d="M581.895,223.999H654.3l-13.73-66.614c0,0-4.985-8.536-4.188-11.997c0.797-3.46,26.025,4.407,27.126,6.312
	c1.102,1.905-15.159,9.574-15.159,9.574l15.726,78.482l-82.18,13.564"/>
<path fill="#8FB25E" d="M420.427,259.69h-72.403l-72.602,39.165c0,0,4.987,8.537,4.189,11.997
	c-0.797,3.461-26.026-4.407-27.127-6.312c-1.101-1.907,15.16-9.576,15.16-9.576l70.603-51.03l82.18-13.564"/>
<path fill="#8FB25E" d="M556.19,352.712l2.86,55.806l27.465,37.98l19.452,5.026c0,0,4.96-3.499,0.559-5.026
	c-4.403-1.527-12.814-10.272-12.814-10.272l-23.981-35.013l2.176-48.176"/>
<path fill="#8FB25E" d="M413.899,349.86L412.223,408l-28.65,35.646l-22.243,5.644c0,0-5.519-4.06-1.117-5.585
	c4.403-1.527,16.164-10.331,16.164-10.331l25.168-32.676l-3.362-50.513"/>
</svg>
