<?xml version="1.0" encoding="utf-8"?>
<!-- Generator: Adobe Illustrator 16.0.0, SVG Export Plug-In . SVG Version: 6.00 Build 0)  -->
<!DOCTYPE svg PUBLIC "-//W3C//DTD SVG 1.1//EN" "http://www.w3.org/Graphics/SVG/1.1/DTD/svg11.dtd">
<svg version="1.1" id="Layer_1" xmlns="http://www.w3.org/2000/svg" xmlns:xlink="http://www.w3.org/1999/xlink" x="0px" y="0px"
	 width="960px" height="560px" viewBox="0 0 960 560" enable-background="new 0 0 960 560" xml:space="preserve">
<path fill="#8FB25E" d="M415.802,348.463l-7.293,10.555H391.73l-31.746-212.666l-5.458-36.571l14.59-11.366h231.979l14.591,11.366
	l-5.408,36.232L578.48,359.018h-16.779l-7.294-10.555C554.407,348.463,485.835,311.118,415.802,348.463z"/>
<path fill="#5D6633" d="M473.749,175.794c0,0-16.146,25.418-20.28,29.154c-3.272,2.957-39.409-3.579-45.374-5.572"/>
<g>
	<path fill="#BED685" d="M367.496,171.298c0,0,0.413-0.225,1.191-0.583c0.78-0.338,1.919-0.905,3.38-1.484
		c1.458-0.603,3.233-1.273,5.274-1.985c2.041-0.709,4.349-1.438,6.871-2.168c2.523-0.717,5.262-1.426,8.165-2.093
		c2.904-0.652,5.97-1.285,9.15-1.826c1.588-0.304,3.208-0.526,4.847-0.772c0.82-0.122,1.644-0.245,2.473-0.368
		c0.831-0.099,1.665-0.198,2.503-0.298c3.349-0.439,6.764-0.705,10.177-1.002c3.42-0.202,6.838-0.426,10.215-0.481
		c1.686-0.067,3.362-0.072,5.02-0.062c1.657-0.002,3.293-0.006,4.908,0.06c3.225,0.069,6.351,0.251,9.319,0.474
		c2.969,0.233,5.782,0.536,8.382,0.876c5.203,0.687,9.561,1.569,12.621,2.322c1.529,0.356,2.738,0.75,3.559,0.968
		c0.823,0.24,1.264,0.399,1.264,0.4l0.074,1.008c0,0-1.706,0.156-4.691,0.429c-2.986,0.257-7.247,0.699-12.37,1.095
		c-10.244,0.815-23.902,1.903-37.561,2.99c-13.671,0.918-27.342,1.837-37.595,2.526c-5.126,0.357-9.406,0.541-12.397,0.722
		c-2.993,0.166-4.704,0.26-4.704,0.26L367.496,171.298z"/>
</g>
<g>
	<path fill="#BED685" d="M497.045,163.394c0,0,0.398-0.15,1.138-0.371c0.738-0.2,1.827-0.564,3.198-0.885
		c1.374-0.345,3.035-0.702,4.934-1.056c1.899-0.35,4.034-0.674,6.355-0.963c2.32-0.276,4.825-0.507,7.466-0.669
		c2.639-0.147,5.417-0.248,8.277-0.238c1.434-0.029,2.882,0.029,4.35,0.066c0.734,0.02,1.473,0.039,2.215,0.059
		c0.74,0.044,1.483,0.088,2.229,0.133c2.989,0.138,6.006,0.458,9.026,0.747c3.01,0.383,6.022,0.745,8.969,1.266
		c1.478,0.221,2.937,0.501,4.377,0.794c1.441,0.279,2.865,0.554,4.258,0.895c2.792,0.617,5.48,1.328,8.022,2.053
		c2.541,0.735,4.935,1.512,7.138,2.29c4.405,1.563,8.041,3.172,10.572,4.435c1.267,0.611,2.25,1.204,2.926,1.559
		c0.674,0.376,1.029,0.608,1.029,0.608l-0.111,1.005c0,0-1.511-0.137-4.155-0.377c-2.642-0.255-6.425-0.547-10.95-1.029
		c-9.052-0.942-21.122-2.198-33.191-3.454c-12.051-1.424-24.102-2.848-33.14-3.917c-4.521-0.521-8.275-1.07-10.909-1.401
		c-2.632-0.347-4.136-0.545-4.136-0.545L497.045,163.394z"/>
</g>
<path fill="#FFFFFF" d="M453.469,196.192c-3.272,2.956-39.411,5.178-45.374,3.185c-5.963-1.994-37.414-23.881-37.414-23.881
	l103.067,0.298C473.749,175.794,457.604,192.457,453.469,196.192z"/>
<path fill="#5D6633" d="M574.467,200.172c-3.27,2.957-41.798,12.343-47.762,10.349c-5.962-1.993-27.22-29.887-27.22-29.887"/>
<path fill="#1D1D1B" d="M449.499,179.125c0,9.209-9.608,16.676-21.46,16.676c-11.854,0-21.46-7.466-21.46-16.676"/>
<path fill="#FFFFFF" d="M439.042,192.558c0.102,0.492-1.175,1.322-2.858,1.854s-3.132,0.563-3.235,0.07
	c-0.105-0.492,1.174-1.322,2.857-1.854C437.49,192.096,438.938,192.066,439.042,192.558z"/>
<path fill="#FFFFFF" d="M574.467,200.172c-3.27,2.957-40.206,2.792-46.17,0.796c-5.962-1.993-29.202-21.988-29.202-21.988
	l104.029-0.301C603.124,178.68,578.601,196.436,574.467,200.172z"/>
<path fill="#1D1D1B" d="M526.788,180.634c0,9.209,9.608,16.675,21.461,16.675c11.852,0,21.461-7.465,21.461-16.675"/>
<path fill="#FFFFFF" d="M537.245,194.065c-0.104,0.494,1.176,1.321,2.859,1.855c1.683,0.532,3.128,0.562,3.235,0.07
	c0.103-0.493-1.177-1.322-2.86-1.854C538.796,193.605,537.349,193.572,537.245,194.065z"/>
<path fill="#FFFFFF" d="M415.775,269.692l154.711-13.797c0,0-18.764,36.24-44.4,36.725c-25.635,0.484-107.205-12.935-107.205-12.935
	L415.775,269.692z"/>
<path fill="#5D6633" d="M548.872,264.761l-12.292,0.94l-3.689,8.351l-5.828-7.38l-109.258,9.552l1.076,3.463
	c0,0,81.647,14.973,107.205,12.935c21.316-1.7,42.952-25.197,44.4-36.725L548.872,264.761z"/>
<path fill="#71882E" d="M610.474,145.449l-14.471-17.94l-0.637-20.377c0,0-28.069,8.457-39.161,8.733
	c-11.092,0.276-32.16,4.99-32.16,4.99l-48.254,13.882c0,0-37.186-11.248-36.728-11.109c0.458,0.139-25.156-2.262-30.823-2.772
	c-5.667-0.509-30.829-13.657-28.967-13.931c1.862-0.274-8.123,19.58-10.223,21.695c-2.101,2.114-8.844,17.227-8.844,17.227
	l-0.223,0.506c0,0-7.278-32.05-5.458-36.571c1.82-4.521,7.294-8.125,14.59-11.366c7.296-3.24,224.191-2.479,231.979,0
	c7.787,2.478,13.18,7.777,14.591,11.366c1.41,3.588-5.408,36.232-5.408,36.232L610.474,145.449z"/>
<path fill="#BED685" d="M377.664,124.822"/>
<path fill="#8FB25E" d="M589.157,220.254h77.396l-14.677-71.205c0,0-5.329-9.125-4.477-12.824c0.851-3.699,27.818,4.71,28.995,6.747
	c1.178,2.036-16.204,10.233-16.204,10.233L677,237.097l-87.843,14.499"/>
<path fill="#8FB25E" d="M416.561,258.407h-77.393l-79.692-26.791c0,0-0.741,6.649-1.593,10.348
	c-0.852,3.699-22.705-6.72-23.881-8.756c-1.176-2.037,23.881-7.96,23.881-7.96l70.835,16.316l87.843-14.499"/>
<path fill="#8FB25E" d="M561.681,357.838l0.366,59.03l32.049,41.219l21.683,4.155c0,0,2.914-6.129-1.791-7.761
	c-4.706-1.631-12.201-7.375-12.201-7.375l-28.325-38.044l5.018-50.877"/>
<path fill="#8FB25E" d="M409.583,354.789l-3.885,59.738l-28.53,40.511l-24.079,3.622c0,0-5.302-5.531-0.597-7.164
	c4.706-1.63,16.984-7.438,16.984-7.438l24.808-37.34l-1.5-51.582"/>
</svg>
