<?xml version="1.0" encoding="utf-8"?>
<!-- Generator: Adobe Illustrator 16.0.0, SVG Export Plug-In . SVG Version: 6.00 Build 0)  -->
<!DOCTYPE svg PUBLIC "-//W3C//DTD SVG 1.1//EN" "http://www.w3.org/Graphics/SVG/1.1/DTD/svg11.dtd">
<svg version="1.1" id="Layer_1" xmlns="http://www.w3.org/2000/svg" xmlns:xlink="http://www.w3.org/1999/xlink" x="0px" y="0px"
	 width="960px" height="560px" viewBox="0 0 960 560" enable-background="new 0 0 960 560" xml:space="preserve">
<path fill="#8FB25E" d="M407.121,351.247l-7.653,11.079h-17.607l-33.314-223.171l-5.728-38.377l15.311-11.927h243.436l15.312,11.927
	l-5.675,38.022l-33.368,223.526h-17.607l-7.655-11.079C552.571,351.247,480.613,312.061,407.121,351.247z"/>
<path fill="#5D6633" d="M467.93,170.053c0,0-16.944,26.673-21.282,30.594c-3.434,3.102-41.356-3.755-47.615-5.848"/>
<g>
	<path fill="#BED685" d="M356.432,165.357c0,0,0.434-0.226,1.252-0.587c0.819-0.341,2.017-0.913,3.551-1.497
		c1.532-0.608,3.397-1.285,5.541-2.005c2.144-0.717,4.567-1.454,7.216-2.194c2.65-0.726,5.526-1.445,8.573-2.123
		c3.049-0.663,6.268-1.307,9.606-1.859c1.667-0.31,3.368-0.537,5.088-0.79c0.86-0.125,1.726-0.25,2.596-0.376
		c0.872-0.102,1.748-0.204,2.627-0.307c3.515-0.452,7.099-0.729,10.68-1.039c3.588-0.215,7.175-0.451,10.718-0.519
		c1.769-0.073,3.528-0.084,5.267-0.08c1.738-0.009,3.455-0.019,5.149,0.042c3.383,0.058,6.662,0.228,9.775,0.44
		c3.114,0.223,6.064,0.515,8.792,0.846c5.455,0.668,10.024,1.535,13.232,2.277c1.603,0.351,2.87,0.74,3.73,0.956
		c0.862,0.237,1.324,0.395,1.324,0.396l0.074,1.008c0,0-1.791,0.163-4.923,0.446c-3.134,0.268-7.605,0.725-12.981,1.14
		c-10.75,0.853-25.084,1.989-39.417,3.126c-14.346,0.968-28.691,1.936-39.451,2.662c-5.378,0.376-9.869,0.575-13.009,0.767
		c-3.141,0.176-4.936,0.277-4.936,0.277L356.432,165.357z"/>
</g>
<g>
	<path fill="#BED685" d="M492.375,157.063c0,0,0.417-0.148,1.192-0.365c0.772-0.196,1.913-0.554,3.35-0.868
		c1.438-0.337,3.179-0.686,5.169-1.029c1.99-0.34,4.227-0.653,6.659-0.93c2.432-0.263,5.059-0.481,7.827-0.629
		c2.768-0.133,5.68-0.219,8.68-0.193c1.504-0.021,3.023,0.044,4.563,0.089c0.77,0.023,1.544,0.047,2.323,0.071
		c0.776,0.048,1.556,0.097,2.338,0.146c3.136,0.154,6.302,0.491,9.471,0.796c3.158,0.4,6.319,0.778,9.413,1.315
		c1.551,0.229,3.083,0.518,4.595,0.818c1.513,0.288,3.008,0.57,4.471,0.919c2.933,0.633,5.755,1.359,8.425,2.098
		c2.669,0.75,5.184,1.54,7.498,2.33c4.628,1.587,8.451,3.218,11.111,4.495c1.333,0.618,2.367,1.217,3.078,1.576
		c0.708,0.379,1.083,0.614,1.083,0.614l-0.111,1.005c0,0-1.585-0.146-4.36-0.399c-2.772-0.271-6.742-0.582-11.49-1.089
		c-9.499-0.992-22.164-2.314-34.829-3.637c-12.646-1.491-25.293-2.981-34.777-4.099c-4.744-0.546-8.685-1.116-11.449-1.461
		c-2.762-0.361-4.341-0.568-4.341-0.568L492.375,157.063z"/>
</g>
<path fill="#FFFFFF" d="M446.648,191.458c-3.434,3.103-41.357,5.433-47.615,3.34c-6.258-2.09-39.261-25.06-39.261-25.06
	l108.158,0.314C467.93,170.053,450.987,187.537,446.648,191.458z"/>
<path fill="#5D6633" d="M573.622,195.634c-3.431,3.102-43.862,12.952-50.121,10.86c-6.256-2.092-28.565-31.363-28.565-31.363"/>
<path fill="#1D1D1B" d="M442.482,173.548c0,9.665-10.083,17.499-22.52,17.499c-12.44,0-22.521-7.834-22.521-17.499"/>
<path fill="#FFFFFF" d="M431.509,187.644c0.106,0.518-1.233,1.388-2.999,1.946c-1.766,0.557-3.287,0.591-3.395,0.075
	c-0.11-0.518,1.232-1.388,2.998-1.947C429.881,187.161,431.399,187.126,431.509,187.644z"/>
<path fill="#FFFFFF" d="M573.622,195.634c-3.431,3.102-42.191,2.928-48.451,0.836c-6.256-2.093-30.644-23.076-30.644-23.076
	l109.167-0.314C603.694,173.08,577.96,191.715,573.622,195.634z"/>
<path fill="#1D1D1B" d="M523.588,175.131c0,9.664,10.083,17.498,22.521,17.498c12.438,0,22.521-7.834,22.521-17.498"/>
<path fill="#FFFFFF" d="M534.562,189.226c-0.109,0.516,1.233,1.388,3,1.945c1.766,0.558,3.283,0.59,3.395,0.074
	c0.108-0.517-1.234-1.387-3.001-1.946C536.189,188.743,534.671,188.709,534.562,189.226z"/>
<path fill="#FFFFFF" d="M407.093,268.586l162.352-14.478c0,0-19.691,38.031-46.593,38.54
	c-26.901,0.509-112.499-13.573-112.499-13.573L407.093,268.586z"/>
<path fill="#5D6633" d="M546.763,263.413l-12.898,0.986l-3.872,8.761l-6.116-7.743l-114.654,10.024l1.129,3.634
	c0,0,85.679,15.711,112.499,13.573c22.368-1.784,45.073-26.443,46.593-38.54L546.763,263.413z"/>
<path fill="#71882E" d="M611.407,138.207l-15.186-18.825l-0.668-21.384c0,0-29.456,8.874-41.095,9.165
	c-11.64,0.29-33.749,5.237-33.749,5.237l-50.637,14.567c0,0-39.022-11.803-38.542-11.658s-26.398-2.375-32.345-2.909
	s-32.351-14.332-30.398-14.62c1.954-0.288-8.524,20.547-10.728,22.766c-2.204,2.219-9.28,18.08-9.28,18.08l-0.234,0.53
	c0,0-7.638-33.633-5.728-38.377s7.654-8.527,15.311-11.927c7.656-3.4,235.263-2.601,243.436,0c8.172,2.6,13.831,8.161,15.312,11.927
	c1.479,3.766-5.675,38.022-5.675,38.022L611.407,138.207z"/>
<path fill="#BED685" d="M367.1,116.563"/>
<path fill="#8FB25E" d="M563.977,206.059h81.217l-43.027-57.739c0,0-5.592-9.574-4.698-13.457c0.894-3.881,29.192,4.942,30.428,7.08
	c1.235,2.136-12.259,7.33-12.259,7.33L662,208.165l-98.023,30.783"/>
<path fill="#8FB25E" d="M407.917,256.744h-81.215l-83.628-28.114c0,0-0.777,6.979-1.671,10.861
	c-0.893,3.881-23.826-7.053-25.061-9.189c-1.234-2.138,25.061-8.354,25.061-8.354l74.333,17.122l92.182-15.214"/>
<path fill="#8FB25E" d="M560.205,361.088l2.844,68.229l31.173,36.971l23.333,4.504c0,0,4.938-3.424,0-5.138
	c-4.938-1.71-15.262-10.888-15.262-10.888l-27.265-33.641l2.806-59.673"/>
<path fill="#8FB25E" d="M400.595,357.889l-13.717,61.376l-20.299,43.824l-25.315,6.448c0,0-4.938-3.423,0-5.137
	c4.938-1.71,17.243-12.833,17.243-12.833l16.393-40.493l8.066-52.82"/>
</svg>
