<?xml version="1.0" encoding="utf-8"?>
<!-- Generator: Adobe Illustrator 16.0.0, SVG Export Plug-In . SVG Version: 6.00 Build 0)  -->
<!DOCTYPE svg PUBLIC "-//W3C//DTD SVG 1.1//EN" "http://www.w3.org/Graphics/SVG/1.1/DTD/svg11.dtd">
<svg version="1.1" id="Layer_1" xmlns="http://www.w3.org/2000/svg" xmlns:xlink="http://www.w3.org/1999/xlink" x="0px" y="0px"
	 width="960px" height="560px" viewBox="0 0 960 560" enable-background="new 0 0 960 560" xml:space="preserve">
<path fill="#8FB25E" d="M404.984,353.764l-7.939,11.493h-18.269l-34.564-231.547l-5.943-39.817l15.886-12.376h252.574l15.887,12.376
	l-5.889,39.449l-34.62,231.916h-18.269l-7.942-11.493C555.896,353.764,481.236,313.104,404.984,353.764z"/>
<path fill="#5D6633" d="M468.077,165.767c0,0,0.645-2.934-11.75,8.936C432,198,358.464,166.312,355.859,165.441"/>
<g>
	<path fill="#BED685" d="M352.42,160.914c0,0,0.479-0.205,1.381-0.527c0.901-0.302,2.223-0.816,3.907-1.327
		c1.685-0.535,3.73-1.123,6.08-1.74c2.349-0.614,5-1.236,7.895-1.849c2.895-0.6,6.032-1.182,9.353-1.714
		c3.321-0.517,6.824-1.008,10.451-1.401c1.813-0.23,3.657-0.377,5.524-0.547c0.934-0.084,1.873-0.168,2.816-0.253
		c0.945-0.061,1.895-0.121,2.848-0.182c3.811-0.284,7.687-0.392,11.563-0.531c3.877-0.044,7.754-0.11,11.575-0.01
		c1.909,0.011,3.805,0.083,5.678,0.17c1.873,0.074,3.723,0.146,5.545,0.287c3.642,0.218,7.164,0.544,10.506,0.903
		c3.342,0.37,6.504,0.802,9.424,1.262c5.84,0.927,10.714,2.009,14.13,2.902c1.707,0.426,3.051,0.875,3.966,1.131
		c0.916,0.277,1.405,0.458,1.405,0.458l0.023,1.011c0,0-1.938,0.077-5.328,0.212c-3.391,0.119-8.233,0.363-14.047,0.523
		c-11.628,0.342-27.132,0.797-42.636,1.253c-15.508,0.287-31.016,0.573-42.646,0.788c-5.814,0.121-10.663,0.106-14.056,0.149
		c-3.394,0.027-5.333,0.042-5.333,0.042L352.42,160.914z"/>
</g>
<g>
	<path fill="#BED685" d="M491.457,157.946c0,0,0.429-0.169,1.229-0.425c0.8-0.236,1.977-0.652,3.466-1.04
		c1.49-0.411,3.297-0.848,5.366-1.293c2.068-0.442,4.399-0.87,6.938-1.271c2.537-0.388,5.283-0.741,8.182-1.031
		c2.898-0.274,5.951-0.51,9.104-0.639c1.578-0.099,3.177-0.111,4.797-0.145c0.811-0.016,1.625-0.032,2.444-0.048
		c0.817,0.008,1.64,0.017,2.464,0.025c3.303-0.007,6.647,0.167,9.994,0.309c3.341,0.237,6.683,0.452,9.963,0.83
		c1.643,0.15,3.269,0.359,4.875,0.581c1.605,0.209,3.193,0.415,4.75,0.688c3.117,0.481,6.125,1.062,8.974,1.662
		c2.848,0.611,5.536,1.271,8.014,1.942c4.956,1.347,9.067,2.779,11.938,3.918c1.437,0.549,2.559,1.094,3.327,1.415
		c0.767,0.343,1.174,0.558,1.174,0.558l-0.057,1.01c0,0-1.674-0.064-4.603-0.175c-2.928-0.127-7.114-0.235-12.131-0.497
		c-10.035-0.502-23.415-1.172-36.794-1.842c-13.37-0.838-26.74-1.677-36.768-2.306c-5.015-0.302-9.187-0.668-12.11-0.871
		c-2.923-0.219-4.593-0.344-4.593-0.344L491.457,157.946z"/>
</g>
<path fill="#FFFFFF" d="M456.327,174.702C452.765,177.92,402.493,182.17,396,180c-6.493-2.171-40.141-14.559-40.141-14.559
	l117.368-1.14C473.228,164.302,460.829,170.634,456.327,174.702z"/>
<path fill="#5D6633" d="M603,171c-8.195,7.412-27,18-45,18c-6.845,0-45-18-45-18"/>
<path fill="#1D1D1B" d="M441.673,169.393c0,10.027-8.844,6.609-21.748,6.609c-12.906,0-24.982,3.418-24.982-6.609"/>
<path fill="#FFFFFF" d="M436.894,171.705c0.11,0.536-1.28,1.439-3.112,2.019s-3.41,0.613-3.521,0.076
	c-0.114-0.536,1.278-1.44,3.11-2.019C435.203,171.202,436.778,171.169,436.894,171.705z"/>
<path fill="#FFFFFF" d="M594,180c-3.561,3.22-56.506,2.172-63,0c-6.491-2.17-35.327-10.765-35.327-10.765l113.265-0.328
	C608.938,168.908,598.501,175.932,594,180z"/>
<path fill="#1D1D1B" d="M529.267,171.656c0,10.027,12.501,8.216,25.407,8.216c12.903,0,21.326,1.811,21.326-8.216"/>
<path fill="#FFFFFF" d="M531.663,173.654c-0.113,0.537,1.279,1.438,3.112,2.02c1.832,0.579,3.407,0.612,3.522,0.076
	c0.111-0.537-1.281-1.439-3.114-2.019C533.352,173.152,531.775,173.117,531.663,173.654z"/>
<path fill="#FFFFFF" d="M404.955,268.001l168.446-15.022c0,0-20.43,39.457-48.342,39.985
	c-27.91,0.527-116.722-14.083-116.722-14.083L404.955,268.001z"/>
<path fill="#5D6633" d="M549.868,262.63l-13.382,1.023l-4.018,9.093l-6.345-8.037l-118.958,10.4l1.172,3.771
	c0,0,88.895,16.301,116.722,14.083c23.208-1.852,46.766-27.434,48.342-39.985L549.868,262.63z"/>
<path fill="#71882E" d="M616.939,132.727l-15.755-19.533l-0.693-22.186c0,0-30.562,9.207-42.638,9.508
	c-12.077,0.301-35.016,5.433-35.016,5.433L470.3,121.063c0,0-40.487-12.246-39.988-12.095c0.499,0.151-27.389-2.463-33.559-3.019
	c-6.171-0.554-33.565-14.87-31.539-15.168c2.027-0.298-8.845,21.318-11.131,23.621c-2.287,2.302-9.629,18.757-9.629,18.757
	l-0.242,0.551c0,0-7.925-34.896-5.943-39.817c1.982-4.923,7.941-8.848,15.886-12.376c7.943-3.527,244.095-2.698,252.574,0
	c8.479,2.699,14.35,8.468,15.887,12.376c1.534,3.907-5.889,39.449-5.889,39.449L616.939,132.727z"/>
<path fill="#BED685" d="M363.462,110.269"/>
<path fill="#8FB25E" d="M584.929,207.909l72.565-31.201l-44.643-59.906c0,0-5.802-9.935-4.874-13.961
	c0.927-4.027,30.289,5.128,31.569,7.346c1.283,2.217-12.719,7.605-12.719,7.605l48.103,61.103l-87.402,58.916"/>
<path fill="#8FB25E" d="M405.812,255.714h-84.265l-86.767-29.169c0,0-0.807,7.239-1.734,11.266
	c-0.928,4.027-24.721-7.316-26.002-9.533c-1.28-2.218,26.002-8.667,26.002-8.667l77.123,17.766l95.643-15.787"/>
<path fill="#8FB25E" d="M563.815,363.972l14.23,63.683l21.063,45.466l21.963,11.83c0,0,5.122-3.552,0-5.329
	c-5.124-1.775-13.589-18.455-13.589-18.455l-17.007-42.013l-8.369-54.804"/>
<path fill="#8FB25E" d="M398.214,360.653l-14.232,63.682l-21.061,45.467l-25.263,12.549c0,0-5.123-3.553,0-5.33
	c5.124-1.774,16.887-19.173,16.887-19.173l17.009-42.014l8.369-54.803"/>
</svg>
