<?xml version="1.0" encoding="utf-8"?>
<!-- Generator: Adobe Illustrator 16.0.0, SVG Export Plug-In . SVG Version: 6.00 Build 0)  -->
<!DOCTYPE svg PUBLIC "-//W3C//DTD SVG 1.1//EN" "http://www.w3.org/Graphics/SVG/1.1/DTD/svg11.dtd">
<svg version="1.1" id="Layer_1" xmlns="http://www.w3.org/2000/svg" xmlns:xlink="http://www.w3.org/1999/xlink" x="0px" y="0px"
	 width="960px" height="560px" viewBox="0 0 960 560" enable-background="new 0 0 960 560" xml:space="preserve">
<path fill="#8FB25E" d="M401.234,356.752l-8.271,11.971h-19.029L337.93,127.528l-6.191-41.476l16.547-12.892h263.1l16.548,12.892
	l-6.134,41.093l-36.063,241.578h-19.029l-8.273-11.971C558.434,356.752,480.663,314.397,401.234,356.752z"/>
<path fill="#5D6633" d="M466.955,160.921c0,0-19.84,22.733-24.527,26.971c-13.349,12.064-65.661-14.66-70.421-16.25"/>
<g>
	<path fill="#BED685" d="M346.168,158.568c0,0,0.471-0.229,1.356-0.595c0.888-0.346,2.185-0.925,3.845-1.518
		c1.659-0.618,3.678-1.306,5.998-2.039c2.32-0.729,4.943-1.481,7.809-2.237c2.867-0.742,5.979-1.479,9.275-2.174
		c3.297-0.681,6.778-1.345,10.389-1.917c1.803-0.32,3.642-0.558,5.501-0.82c0.931-0.13,1.866-0.261,2.807-0.393
		c0.942-0.107,1.89-0.214,2.84-0.322c3.8-0.473,7.673-0.771,11.544-1.103c3.879-0.236,7.755-0.494,11.583-0.582
		c1.911-0.083,3.812-0.104,5.69-0.111c1.878-0.019,3.732-0.039,5.563,0.012c3.654,0.038,7.195,0.188,10.558,0.382
		c3.362,0.205,6.548,0.479,9.492,0.794c5.89,0.637,10.821,1.477,14.282,2.2c1.729,0.342,3.097,0.724,4.025,0.934
		c0.93,0.231,1.428,0.387,1.428,0.387l0.074,1.008c0,0-1.936,0.173-5.321,0.476c-3.388,0.286-8.222,0.77-14.031,1.217
		c-11.619,0.916-27.111,2.138-42.603,3.36c-15.505,1.053-31.009,2.106-42.637,2.896c-5.813,0.408-10.666,0.633-14.059,0.844
		c-3.395,0.195-5.334,0.306-5.334,0.306L346.168,158.568z"/>
</g>
<g>
	<path fill="#BED685" d="M493.233,154.208c0,0,0.437-0.174,1.252-0.439c0.814-0.244,2.013-0.674,3.531-1.077
		c1.519-0.428,3.361-0.885,5.472-1.352c2.111-0.464,4.488-0.917,7.08-1.346c2.59-0.416,5.394-0.798,8.355-1.12
		c2.961-0.306,6.08-0.575,9.303-0.738c1.613-0.116,3.248-0.146,4.905-0.197c0.828-0.025,1.661-0.05,2.499-0.075
		c0.837,0,1.678-0.001,2.521-0.001c3.377-0.043,6.801,0.095,10.226,0.2c3.421,0.201,6.842,0.38,10.202,0.722
		c1.683,0.131,3.349,0.323,4.994,0.528c1.646,0.192,3.271,0.38,4.868,0.636c3.194,0.448,6.278,0.996,9.2,1.565
		c2.922,0.581,5.68,1.211,8.223,1.854c5.087,1.293,9.313,2.681,12.264,3.789c1.477,0.533,2.632,1.066,3.422,1.379
		c0.789,0.334,1.208,0.545,1.208,0.545l-0.045,1.01c0,0-1.713-0.045-4.71-0.125c-2.996-0.095-7.28-0.158-12.416-0.365
		c-10.271-0.394-23.965-0.918-37.659-1.442c-13.687-0.694-27.374-1.387-37.639-1.907c-5.134-0.248-9.406-0.568-12.399-0.739
		c-2.992-0.188-4.702-0.294-4.702-0.294L493.233,154.208z"/>
</g>
<path fill="#FFFFFF" d="M445.136,177.735c-3.711,3.353-46.052,4.969-52.815,2.708c-6.763-2.261-42.259-19.861-42.259-19.861
	l116.894,0.339C466.955,160.921,449.825,173.498,445.136,177.735z"/>
<path fill="#5D6633" d="M609.675,164.192c4.85-4.385-56.745,35.271-73.129,29.793c-6.762-2.26-40.403-27.577-40.403-27.577"/>
<path fill="#1D1D1B" d="M439.451,164.698c0,10.445-9.99,13.037-23.432,13.037c-13.444,0-25.246-2.592-25.246-13.037"/>
<path fill="#FFFFFF" d="M434.372,168.519c0.114,0.558-1.333,1.5-3.241,2.103s-3.553,0.639-3.669,0.08
	c-0.119-0.558,1.332-1.5,3.24-2.103C432.611,167.995,434.253,167.96,434.372,168.519z"/>
<path fill="#FFFFFF" d="M585.299,178.412c-3.709,3.354-51.468,7.002-58.232,4.74c-6.762-2.26-31.365-18.618-31.365-18.618
	l117.984-0.341C613.686,164.192,589.986,174.175,585.299,178.412z"/>
<path fill="#1D1D1B" d="M527.109,166.409c0,10.445,12.922,14.034,26.365,14.034c13.441,0,22.315-3.589,22.315-14.034"/>
<path fill="#FFFFFF" d="M532.413,168.518c-0.117,0.56,1.333,1.499,3.243,2.104c1.908,0.603,3.548,0.637,3.668,0.079
	c0.117-0.56-1.334-1.5-3.244-2.103C534.172,167.996,532.531,167.958,532.413,168.518z"/>
<path fill="#FFFFFF" d="M401.204,267.415l175.465-15.648c0,0-21.281,41.101-50.356,41.651
	c-29.073,0.55-121.586-14.669-121.586-14.669L401.204,267.415z"/>
<path fill="#5D6633" d="M552.155,261.821l-13.94,1.066l-4.184,9.471l-6.61-8.371l-123.915,10.833l1.221,3.928
	c0,0,92.6,16.981,121.586,14.669c24.176-1.929,48.714-28.577,50.356-41.651L552.155,261.821z"/>
<path fill="#71882E" d="M622.021,126.504l-16.412-20.347l-0.723-23.11c0,0-31.834,9.591-44.414,9.904
	c-12.58,0.313-36.475,5.659-36.475,5.659l-54.727,15.744c0,0-42.175-12.757-41.654-12.599c0.52,0.157-28.531-2.566-34.958-3.145
	c-6.427-0.577-34.964-15.489-32.854-15.8c2.112-0.311-9.212,22.206-11.594,24.605c-2.382,2.397-10.03,19.539-10.03,19.539
	l-0.252,0.574c0,0-8.256-36.35-6.191-41.476c2.064-5.128,8.272-9.216,16.547-12.892c8.275-3.674,254.267-2.81,263.1,0
	c8.832,2.812,14.948,8.821,16.548,12.892c1.599,4.069-6.134,41.093-6.134,41.093L622.021,126.504z"/>
<path fill="#BED685" d="M357.98,103.111"/>
<path fill="#8FB25E" d="M570.76,199.834h87.778l-46.503-62.4c0,0-6.044-10.35-5.077-14.545c0.966-4.195,31.551,5.343,32.886,7.652
	s-13.249,7.922-13.249,7.922l50.106,63.649L570.76,235.38"/>
<path fill="#8FB25E" d="M402.096,254.615H314.32l-90.383-30.384c0,0-0.84,7.541-1.807,11.736c-0.966,4.195-25.75-7.622-27.085-9.931
	c-1.334-2.31,27.085-9.028,27.085-9.028l80.337,18.505l99.628-16.444"/>
<path fill="#8FB25E" d="M566.684,367.385l14.823,66.336l21.94,47.361l22.877,12.323c0,0,5.337-3.701,0-5.552
	c-5.337-1.85-14.154-19.225-14.154-19.225l-17.716-43.764l-8.718-57.086"/>
<path fill="#8FB25E" d="M394.182,363.928l-14.825,66.336l-21.938,47.361l-26.315,13.071c0,0-5.336-3.7,0-5.552
	c5.338-1.849,17.591-19.973,17.591-19.973l17.717-43.764l8.718-57.086"/>
</svg>
