<?xml version="1.0" encoding="utf-8"?>
<!-- Generator: Adobe Illustrator 16.0.0, SVG Export Plug-In . SVG Version: 6.00 Build 0)  -->
<!DOCTYPE svg PUBLIC "-//W3C//DTD SVG 1.1//EN" "http://www.w3.org/Graphics/SVG/1.1/DTD/svg11.dtd">
<svg version="1.1" id="Layer_1" xmlns="http://www.w3.org/2000/svg" xmlns:xlink="http://www.w3.org/1999/xlink" x="0px" y="0px"
	 width="960px" height="560px" viewBox="0 0 960 560" enable-background="new 0 0 960 560" xml:space="preserve">
<path fill="#8FB25E" d="M401.096,353.764l-7.94,11.493h-18.267L340.323,133.71l-5.943-39.817l15.886-12.376H602.84l15.886,12.376
	l-5.889,39.449l-34.619,231.915h-18.269l-7.942-11.493C552.007,353.764,477.347,313.104,401.096,353.764z"/>
<path fill="#5D6633" d="M464.188,165.767c0,0-17.58,27.674-22.08,31.742c-3.563,3.22-42.908-3.896-49.402-6.066"/>
<g>
	<path fill="#BED685" d="M348.506,160.916c0,0,0.451-0.228,1.301-0.591c0.852-0.344,2.095-0.918,3.688-1.507
		c1.591-0.613,3.527-1.295,5.753-2.021c2.226-0.723,4.742-1.467,7.491-2.214c2.752-0.733,5.736-1.461,8.899-2.146
		c3.165-0.671,6.506-1.325,9.97-1.886c1.73-0.314,3.495-0.546,5.28-0.804c0.894-0.127,1.791-0.255,2.693-0.384
		c0.905-0.104,1.813-0.209,2.727-0.314c3.647-0.461,7.365-0.749,11.081-1.068c3.724-0.225,7.445-0.471,11.12-0.548
		c1.835-0.078,3.659-0.094,5.464-0.094c1.803-0.014,3.584-0.028,5.341,0.028c3.51,0.048,6.91,0.21,10.139,0.413
		c3.229,0.214,6.289,0.499,9.117,0.822c5.657,0.654,10.395,1.508,13.72,2.241c1.662,0.347,2.976,0.732,3.867,0.945
		c0.895,0.234,1.373,0.392,1.373,0.392l0.074,1.008c0,0-1.857,0.167-5.108,0.46c-3.252,0.276-7.892,0.746-13.47,1.176
		c-11.153,0.882-26.025,2.059-40.896,3.235c-14.885,1.008-29.769,2.015-40.932,2.771c-5.58,0.391-10.239,0.602-13.497,0.803
		c-3.259,0.185-5.12,0.291-5.12,0.291L348.506,160.916z"/>
</g>
<g>
	<path fill="#BED685" d="M489.548,152.31c0,0,0.432-0.146,1.234-0.36c0.8-0.193,1.982-0.547,3.47-0.855
		c1.491-0.332,3.295-0.673,5.357-1.008c2.062-0.332,4.38-0.636,6.902-0.903c2.521-0.253,5.243-0.461,8.114-0.597
		c2.869-0.121,5.89-0.195,9.001-0.158c1.559-0.015,3.135,0.057,4.732,0.108c0.799,0.027,1.602,0.054,2.409,0.081
		c0.805,0.052,1.614,0.104,2.426,0.155c3.253,0.167,6.537,0.517,9.825,0.835c3.277,0.413,6.557,0.805,9.767,1.354
		c1.609,0.236,3.199,0.531,4.769,0.837c1.57,0.294,3.122,0.583,4.641,0.938c3.044,0.646,5.974,1.383,8.746,2.133
		c2.771,0.761,5.382,1.562,7.785,2.362c4.807,1.606,8.777,3.253,11.543,4.542c1.384,0.624,2.459,1.228,3.198,1.589
		c0.736,0.383,1.125,0.619,1.125,0.619l-0.111,1.005c0,0-1.645-0.152-4.523-0.417c-2.876-0.282-6.993-0.61-11.92-1.137
		c-9.854-1.031-22.995-2.406-36.135-3.781c-13.122-1.543-26.243-3.086-36.084-4.244c-4.922-0.566-9.011-1.152-11.879-1.508
		c-2.866-0.373-4.504-0.586-4.504-0.586L489.548,152.31z"/>
</g>
<path fill="#FFFFFF" d="M442.107,187.976c-3.563,3.218-42.91,5.637-49.402,3.467c-6.492-2.171-40.734-26.001-40.734-26.001
	l112.217,0.325C464.188,165.767,446.609,183.908,442.107,187.976z"/>
<path fill="#5D6633" d="M573.848,192.309c-3.561,3.22-45.509,13.439-52.003,11.268c-6.491-2.169-29.637-32.541-29.637-32.541"/>
<path fill="#1D1D1B" d="M437.784,169.393c0,10.027-10.461,18.156-23.366,18.156c-12.906,0-23.365-8.129-23.365-18.156"/>
<path fill="#FFFFFF" d="M426.4,184.018c0.11,0.536-1.28,1.439-3.112,2.019c-1.832,0.579-3.409,0.613-3.521,0.076
	c-0.114-0.536,1.278-1.44,3.11-2.019C424.71,183.515,426.286,183.482,426.4,184.018z"/>
<path fill="#FFFFFF" d="M573.848,192.309c-3.561,3.22-43.776,3.04-50.27,0.867c-6.491-2.169-31.794-23.941-31.794-23.941
	l113.265-0.327C605.049,168.908,578.349,188.241,573.848,192.309z"/>
<path fill="#1D1D1B" d="M521.936,171.035c0,10.027,10.461,18.156,23.366,18.156s23.366-8.128,23.366-18.156"/>
<path fill="#FFFFFF" d="M533.32,185.66c-0.112,0.538,1.279,1.439,3.113,2.02c1.832,0.579,3.406,0.612,3.521,0.076
	c0.112-0.537-1.28-1.439-3.113-2.019C535.01,185.158,533.435,185.123,533.32,185.66z"/>
<path fill="#FFFFFF" d="M401.067,268l168.445-15.021c0,0-20.43,39.457-48.343,39.984c-27.91,0.528-116.721-14.081-116.721-14.081
	L401.067,268z"/>
<path fill="#5D6633" d="M545.98,262.631l-13.383,1.023l-4.018,9.092l-6.346-8.035l-118.957,10.4l1.172,3.771
	c0,0,88.895,16.301,116.721,14.081c23.209-1.85,46.767-27.433,48.343-39.984L545.98,262.631z"/>
<path fill="#71882E" d="M613.051,132.727l-15.756-19.533l-0.692-22.186c0,0-30.562,9.207-42.639,9.508
	c-12.075,0.3-35.015,5.432-35.015,5.432l-52.539,15.114c0,0-40.486-12.246-39.986-12.095c0.498,0.15-27.391-2.464-33.561-3.02
	c-6.17-0.554-33.565-14.87-31.539-15.167c2.028-0.299-8.844,21.317-11.13,23.621c-2.286,2.302-9.628,18.757-9.628,18.757
	l-0.243,0.551c0,0-7.925-34.896-5.943-39.817c1.982-4.924,7.942-8.848,15.886-12.376c7.943-3.527,244.094-2.698,252.574,0
	c8.479,2.699,14.351,8.468,15.886,12.376c1.535,3.906-5.889,39.449-5.889,39.449L613.051,132.727z"/>
<path fill="#BED685" d="M359.572,110.269"/>
<path fill="#8FB25E" d="M581.04,207.909l72.565-31.201l-44.643-59.905c0,0-5.802-9.935-4.874-13.962
	c0.927-4.027,30.289,5.128,31.569,7.346c1.283,2.216-12.719,7.604-12.719,7.604l48.103,61.103l-87.402,58.917"/>
<path fill="#8FB25E" d="M401.922,255.713h-84.264l-86.768-29.168c0,0-0.807,7.239-1.734,11.266
	c-0.926,4.027-24.72-7.317-26.001-9.533c-1.281-2.218,26.001-8.667,26.001-8.667l77.124,17.766l95.642-15.786"/>
<path fill="#8FB25E" d="M559.926,363.971l14.231,63.684l21.062,45.467l21.963,11.83c0,0,5.123-3.553,0-5.33
	c-5.123-1.775-13.588-18.455-13.588-18.455l-17.008-42.013l-8.368-54.804"/>
<path fill="#8FB25E" d="M394.325,360.653l-14.231,63.682l-21.062,45.467l-25.263,12.549c0,0-5.123-3.552,0-5.329
	c5.123-1.775,16.887-19.174,16.887-19.174l17.009-42.014l8.368-54.803"/>
</svg>
