<?xml version="1.0" encoding="utf-8"?>
<!-- Generator: Adobe Illustrator 16.0.0, SVG Export Plug-In . SVG Version: 6.00 Build 0)  -->
<!DOCTYPE svg PUBLIC "-//W3C//DTD SVG 1.1//EN" "http://www.w3.org/Graphics/SVG/1.1/DTD/svg11.dtd">
<svg version="1.1" id="Layer_1" xmlns="http://www.w3.org/2000/svg" xmlns:xlink="http://www.w3.org/1999/xlink" x="0px" y="0px"
	 width="960px" height="560px" viewBox="0 0 960 560" enable-background="new 0 0 960 560" xml:space="preserve">
<path fill="#8FB25E" d="M405.234,353.316l-8.271,11.974h-19.029l-36.005-241.196l-6.19-41.477l16.547-12.891h263.099l16.548,12.891
	l-6.133,41.092L589.736,365.29h-19.03l-8.273-11.974C562.433,353.316,484.663,310.965,405.234,353.316z"/>
<path fill="#5D6633" d="M470.955,157.486c0,0-18.313,28.828-23.001,33.065c-3.711,3.352-44.696-4.059-51.46-6.321"/>
<g>
	<path fill="#BED685" d="M350.454,152.453c0,0,0.47-0.229,1.356-0.595c0.887-0.347,2.184-0.925,3.845-1.519
		c1.659-0.618,3.678-1.306,5.998-2.038c2.32-0.729,4.943-1.482,7.809-2.237c2.867-0.742,5.978-1.479,9.275-2.175
		c3.297-0.681,6.779-1.345,10.389-1.916c1.803-0.32,3.642-0.558,5.501-0.82c0.93-0.13,1.866-0.261,2.806-0.393
		c0.942-0.106,1.889-0.214,2.84-0.322c3.8-0.473,7.673-0.771,11.544-1.103c3.878-0.236,7.755-0.494,11.583-0.582
		c1.911-0.083,3.812-0.104,5.69-0.111c1.878-0.019,3.733-0.039,5.563,0.013c3.655,0.037,7.196,0.188,10.558,0.382
		c3.363,0.205,6.548,0.479,9.493,0.795c5.89,0.637,10.82,1.477,14.282,2.2c1.729,0.341,3.096,0.723,4.025,0.934
		c0.93,0.231,1.428,0.388,1.428,0.388l0.074,1.008c0,0-1.935,0.173-5.321,0.476c-3.387,0.286-8.221,0.77-14.031,1.217
		c-11.619,0.917-27.111,2.139-42.602,3.36c-15.504,1.054-31.009,2.106-42.637,2.896c-5.813,0.408-10.666,0.633-14.059,0.845
		c-3.394,0.194-5.333,0.306-5.333,0.306L350.454,152.453z"/>
</g>
<g>
	<path fill="#BED685" d="M497.369,143.489c0-0.001,0.449-0.146,1.284-0.354c0.833-0.189,2.061-0.538,3.609-0.84
		c1.551-0.325,3.427-0.658,5.572-0.984c2.146-0.322,4.558-0.616,7.183-0.872c2.623-0.241,5.458-0.437,8.446-0.56
		c2.987-0.108,6.131-0.169,9.37-0.117c1.624-0.008,3.265,0.072,4.928,0.13c0.832,0.031,1.668,0.062,2.509,0.093
		c0.838,0.055,1.68,0.11,2.526,0.166c3.387,0.182,6.809,0.547,10.233,0.881c3.414,0.428,6.831,0.835,10.176,1.399
		c1.677,0.244,3.333,0.546,4.968,0.86c1.637,0.301,3.253,0.598,4.836,0.959c3.172,0.659,6.226,1.411,9.116,2.174
		c2.889,0.774,5.611,1.588,8.117,2.398c5.012,1.63,9.153,3.296,12.038,4.598c1.444,0.631,2.566,1.239,3.337,1.604
		c0.768,0.387,1.174,0.624,1.174,0.625l-0.111,1.004c0,0-1.713-0.159-4.711-0.438c-2.996-0.295-7.285-0.642-12.416-1.191
		c-10.265-1.077-23.953-2.513-37.64-3.948c-13.668-1.604-27.337-3.208-37.588-4.411c-5.127-0.589-9.387-1.193-12.375-1.563
		c-2.986-0.387-4.692-0.607-4.692-0.607L497.369,143.489z"/>
</g>
<path fill="#FFFFFF" d="M447.954,180.621c-3.711,3.354-44.697,5.872-51.46,3.609c-6.763-2.259-42.433-27.084-42.433-27.084
	l116.894,0.34C470.955,157.486,452.644,176.384,447.954,180.621z"/>
<path fill="#5D6633" d="M585.184,185.134c-3.708,3.354-47.404,14-54.169,11.737c-6.762-2.262-30.872-33.896-30.872-33.896"/>
<path fill="#1D1D1B" d="M443.451,161.264c0,10.446-10.897,18.913-24.339,18.913c-13.445,0-24.34-8.467-24.34-18.913"/>
<path fill="#FFFFFF" d="M431.592,176.498c0.115,0.56-1.333,1.5-3.241,2.103c-1.908,0.602-3.552,0.64-3.669,0.081
	c-0.119-0.559,1.332-1.499,3.24-2.104C429.833,175.977,431.474,175.939,431.592,176.498z"/>
<path fill="#FFFFFF" d="M585.184,185.134c-3.708,3.354-45.599,3.165-52.364,0.903c-6.761-2.261-33.119-24.938-33.119-24.938
	l117.985-0.34C617.685,160.759,589.872,180.898,585.184,185.134z"/>
<path fill="#1D1D1B" d="M531.108,162.975c0,10.445,10.897,18.912,24.34,18.912c13.442,0,24.341-8.467,24.341-18.912"/>
<path fill="#FFFFFF" d="M542.969,178.208c-0.118,0.559,1.333,1.501,3.242,2.103c1.909,0.604,3.549,0.638,3.669,0.08
	c0.117-0.559-1.334-1.498-3.244-2.103C544.728,177.687,543.086,177.651,542.969,178.208z"/>
<path fill="#FFFFFF" d="M405.204,263.979l175.465-15.647c0,0-21.281,41.103-50.356,41.652
	c-29.074,0.551-121.586-14.669-121.586-14.669L405.204,263.979z"/>
<path fill="#5D6633" d="M556.155,258.388l-13.94,1.066l-4.185,9.47l-6.609-8.37l-123.915,10.834l1.221,3.928
	c0,0,92.599,16.98,121.586,14.669c24.175-1.928,48.714-28.578,50.356-41.652L556.155,258.388z"/>
<path fill="#71882E" d="M626.021,123.068l-16.412-20.346l-0.722-23.11c0,0-31.835,9.591-44.415,9.905
	c-12.58,0.313-36.474,5.659-36.474,5.659l-54.728,15.743c0,0-42.174-12.756-41.654-12.6c0.52,0.158-28.53-2.565-34.958-3.144
	s-34.964-15.489-32.853-15.8c2.112-0.313-9.212,22.206-11.595,24.604c-2.381,2.397-10.029,19.54-10.029,19.54l-0.253,0.572
	c0,0-8.255-36.35-6.19-41.477c2.064-5.128,8.272-9.217,16.547-12.891s254.266-2.811,263.099,0
	c8.832,2.811,14.948,8.82,16.548,12.891c1.599,4.069-6.133,41.092-6.133,41.092L626.021,123.068z"/>
<path fill="#BED685" d="M361.98,99.677"/>
<path fill="#8FB25E" d="M574.76,196.4h87.777l-46.502-62.402c0,0-6.044-10.348-5.077-14.544c0.966-4.194,31.55,5.343,32.885,7.651
	c1.335,2.31-13.249,7.923-13.249,7.923l50.106,63.649l-105.94,33.269"/>
<path fill="#8FB25E" d="M406.095,251.181H318.32l-90.383-30.386c0,0-0.84,7.543-1.807,11.739c-0.965,4.194-25.75-7.623-27.084-9.932
	c-1.334-2.311,27.084-9.028,27.084-9.028l80.338,18.504l99.627-16.443"/>
<path fill="#8FB25E" d="M570.683,363.952l3.073,73.739l33.691,39.957l25.218,4.868c0,0,5.336-3.701,0-5.553
	c-5.337-1.849-16.495-11.768-16.495-11.768l-29.467-36.357l3.033-64.493"/>
<path fill="#8FB25E" d="M398.181,360.494l-14.825,66.334l-21.939,47.363l-27.359,6.97c0,0-5.336-3.699,0-5.552
	c5.337-1.848,18.635-13.869,18.635-13.869l17.717-43.765l8.718-57.086"/>
</svg>
