<?xml version="1.0" encoding="utf-8"?>
<!-- Generator: Adobe Illustrator 16.0.0, SVG Export Plug-In . SVG Version: 6.00 Build 0)  -->
<!DOCTYPE svg PUBLIC "-//W3C//DTD SVG 1.1//EN" "http://www.w3.org/Graphics/SVG/1.1/DTD/svg11.dtd">
<svg version="1.1" id="Layer_1" xmlns="http://www.w3.org/2000/svg" xmlns:xlink="http://www.w3.org/1999/xlink" x="0px" y="0px"
	 width="960px" height="560px" viewBox="0 0 960 560" enable-background="new 0 0 960 560" xml:space="preserve">
<path fill="#8FB25E" d="M399.054,348.592l-7.939,11.493h-18.269l-34.564-231.547l-5.943-39.817l15.886-12.376h252.574l15.887,12.376
	l-5.889,39.448l-34.62,231.916h-18.269l-7.942-11.493C549.965,348.592,475.306,307.933,399.054,348.592z"/>
<path fill="#5D6633" d="M462.146,160.595c0,0,1.9-1.465-11.75,8.936c-21.414,16.314-97.863-8.391-100.468-9.261"/>
<g>
	<path fill="#BED685" d="M346.489,155.742c0,0,0.479-0.205,1.381-0.527c0.901-0.302,2.223-0.815,3.907-1.327
		c1.685-0.534,3.73-1.122,6.08-1.739c2.349-0.614,5-1.235,7.895-1.849c2.895-0.6,6.032-1.182,9.353-1.715
		c3.321-0.517,6.824-1.008,10.451-1.4c1.813-0.23,3.657-0.377,5.524-0.548c0.934-0.084,1.873-0.169,2.816-0.253
		c0.945-0.061,1.895-0.121,2.848-0.182c3.811-0.285,7.687-0.393,11.563-0.531c3.877-0.045,7.754-0.111,11.575-0.01
		c1.909,0.011,3.805,0.083,5.678,0.17c1.873,0.073,3.723,0.145,5.545,0.286c3.642,0.218,7.164,0.544,10.506,0.903
		c3.342,0.37,6.504,0.803,9.424,1.262c5.84,0.928,10.714,2.01,14.13,2.902c1.707,0.427,3.051,0.876,3.966,1.132
		c0.916,0.277,1.405,0.458,1.405,0.458l0.023,1.01c0,0-1.938,0.078-5.328,0.213c-3.391,0.119-8.233,0.363-14.047,0.523
		c-11.628,0.342-27.132,0.797-42.636,1.252c-15.508,0.287-31.016,0.574-42.646,0.789c-5.814,0.12-10.663,0.105-14.056,0.148
		c-3.394,0.027-5.333,0.043-5.333,0.043L346.489,155.742z"/>
</g>
<g>
	<path fill="#BED685" d="M485.526,152.774c0,0,0.429-0.17,1.229-0.426c0.8-0.235,1.977-0.652,3.466-1.039
		c1.49-0.411,3.297-0.848,5.366-1.293c2.068-0.442,4.399-0.87,6.938-1.271c2.537-0.389,5.283-0.741,8.182-1.031
		c2.898-0.273,5.951-0.51,9.104-0.639c1.578-0.099,3.177-0.111,4.797-0.145c0.811-0.017,1.625-0.033,2.444-0.049
		c0.817,0.008,1.64,0.017,2.464,0.025c3.303-0.008,6.647,0.166,9.994,0.309c3.341,0.236,6.683,0.451,9.963,0.829
		c1.643,0.149,3.269,0.359,4.875,0.581c1.605,0.209,3.193,0.415,4.75,0.688c3.117,0.482,6.125,1.063,8.974,1.662
		c2.848,0.611,5.536,1.271,8.014,1.942c4.956,1.347,9.067,2.779,11.938,3.918c1.437,0.549,2.559,1.094,3.327,1.415
		c0.767,0.344,1.174,0.559,1.174,0.559l-0.057,1.01c0,0-1.674-0.064-4.603-0.176c-2.928-0.127-7.114-0.234-12.131-0.496
		c-10.035-0.503-23.415-1.173-36.794-1.843c-13.37-0.839-26.74-1.677-36.768-2.306c-5.015-0.303-9.187-0.668-12.11-0.871
		c-2.923-0.219-4.593-0.344-4.593-0.344L485.526,152.774z"/>
</g>
<path fill="#FFFFFF" d="M450.396,169.53c-3.563,3.219-66.311,0.22-72.804-1.95c-6.493-2.171-27.664-7.311-27.664-7.311l117.368-1.14
	C467.297,159.13,454.898,165.462,450.396,169.53z"/>
<path fill="#5D6633" d="M600.553,164.33c-8.195,7.411-57.583,16.573-74.104,11.05c-6.491-2.17-36.283-9.516-36.283-9.516"/>
<path fill="#1D1D1B" d="M435.742,164.221c0,10.027-8.844,6.609-21.748,6.609c-12.906,0-24.982,3.418-24.982-6.609"/>
<path fill="#FFFFFF" d="M430.963,166.532c0.11,0.536-1.28,1.439-3.112,2.02c-1.832,0.578-3.41,0.613-3.521,0.076
	c-0.114-0.536,1.278-1.44,3.11-2.02C429.272,166.03,430.848,165.997,430.963,166.532z"/>
<path fill="#FFFFFF" d="M586.902,170.181c-3.561,3.219-55.259,4.771-61.753,2.6c-6.491-2.17-35.407-8.717-35.407-8.717
	l113.265-0.328C603.007,163.735,591.403,166.112,586.902,170.181z"/>
<path fill="#1D1D1B" d="M519.894,165.864c0,10.026,12.501,8.216,25.407,8.216c12.903,0,21.326,1.811,21.326-8.216"/>
<path fill="#FFFFFF" d="M525.732,168.481c-0.113,0.537,1.279,1.439,3.112,2.021c1.832,0.579,3.407,0.612,3.522,0.076
	c0.111-0.537-1.281-1.439-3.114-2.019C527.421,167.98,525.845,167.944,525.732,168.481z"/>
<path fill="#FFFFFF" d="M399.024,262.829l168.446-15.021c0,0-20.43,39.456-48.342,39.984
	c-27.91,0.527-116.722-14.082-116.722-14.082L399.024,262.829z"/>
<path fill="#5D6633" d="M543.938,257.458l-13.382,1.023l-4.018,9.094l-6.345-8.037l-118.958,10.4l1.172,3.771
	c0,0,88.895,16.301,116.722,14.082c23.208-1.852,46.766-27.434,48.342-39.984L543.938,257.458z"/>
<path fill="#71882E" d="M611.009,127.556l-15.755-19.533l-0.693-22.186c0,0-30.562,9.207-42.638,9.508
	c-12.077,0.301-35.016,5.432-35.016,5.432l-52.538,15.115c0,0-40.487-12.246-39.988-12.096c0.499,0.151-27.389-2.463-33.559-3.02
	c-6.171-0.553-33.565-14.869-31.539-15.168c2.027-0.298-8.845,21.318-11.131,23.621c-2.287,2.303-9.629,18.758-9.629,18.758
	l-0.242,0.551c0,0-7.925-34.896-5.943-39.817c1.982-4.923,7.941-8.848,15.886-12.376c7.943-3.527,244.095-2.697,252.574,0
	c8.479,2.699,14.35,8.469,15.887,12.376c1.534,3.907-5.889,39.448-5.889,39.448L611.009,127.556z"/>
<path fill="#BED685" d="M357.531,105.097"/>
<path fill="#8FB25E" d="M578.998,202.737l72.565-31.201l-44.643-59.906c0,0-5.802-9.934-4.874-13.961
	c0.927-4.027,30.289,5.128,31.569,7.346c1.283,2.217-12.719,7.605-12.719,7.605L669,173.722l-87.402,58.916"/>
<path fill="#8FB25E" d="M399.881,250.542h-84.265l-86.767-29.17c0,0-0.807,7.24-1.734,11.266
	c-0.928,4.027-24.721-7.315-26.002-9.532c-1.28-2.218,26.002-8.667,26.002-8.667l77.123,17.766l95.643-15.787"/>
<path fill="#8FB25E" d="M557.885,358.8l14.23,63.683l21.063,45.466l21.963,11.83c0,0,5.122-3.552,0-5.329
	c-5.124-1.775-13.589-18.455-13.589-18.455l-17.007-42.013l-8.369-54.804"/>
<path fill="#8FB25E" d="M392.283,355.481l-14.232,63.682L356.99,464.63l-25.263,12.549c0,0-5.123-3.553,0-5.33
	c5.124-1.774,16.887-19.173,16.887-19.173l17.009-42.014l8.369-54.803"/>
</svg>
