<?xml version="1.0" encoding="utf-8"?>
<!-- Generator: Adobe Illustrator 16.0.0, SVG Export Plug-In . SVG Version: 6.00 Build 0)  -->
<!DOCTYPE svg PUBLIC "-//W3C//DTD SVG 1.1//EN" "http://www.w3.org/Graphics/SVG/1.1/DTD/svg11.dtd">
<svg version="1.1" id="Layer_1" xmlns="http://www.w3.org/2000/svg" xmlns:xlink="http://www.w3.org/1999/xlink" x="0px" y="0px"
	 width="841.89px" height="595.28px" viewBox="0 0 841.89 595.28" enable-background="new 0 0 841.89 595.28" xml:space="preserve">
<path fill="#689FBB" d="M486.587,419.098c111.77-41.4,27.931-113.598,27.931-113.598c57.64-38.771,36.107-160.432,36.107-160.432
	c6.579-1.488,12.942-6.204,15.551-9.255c4.376-5.12,7.019-11.767,7.019-19.03c0-16.187-13.122-29.308-29.309-29.308
	c-16.186,0-29.308,13.122-29.308,29.308c0,3.9,0.82,7.609,2.204,11.012c-113.137-25.4-208.275,0-208.275,0
	c1.383-3.403,2.352-7.028,2.352-10.929c0-16.187-13.122-29.308-29.309-29.308c-16.186,0-29.309,13.122-29.309,29.308
	c0,7.264,2.644,13.91,7.02,19.031c4.031,4.717,9.535,8.14,15.799,9.556c0,0-22.184,121.663,35.456,160.434
	c0,0-83.396,82.029,31.883,112.314C342.398,418.201,454.69,430.912,486.587,419.098z"/>
<path fill="none" stroke="#556337" stroke-width="0.6513" stroke-miterlimit="10" d="M573.194,478.125"/>
<g>
	<g>
		<path fill="#5388A0" d="M375.616,346.283c8.098-10.167,22.257-13.808,34.633-14.914c13.62-1.217,30.218,0.771,40.876,10.164
			c2.891,2.548,7.151-1.68,4.243-4.242c-11.634-10.252-28.406-12.741-43.389-12.039c-14.257,0.668-31.31,5.117-40.606,16.789
			C368.989,345.034,373.205,349.31,375.616,346.283L375.616,346.283z"/>
	</g>
</g>
<path fill="#FFFFFF" d="M378.29,338.757c0,0,9.527,9.876,15.122,6.043c2.543-1.741,2.896-5.873,3.591-15.829
	c0,0-11.693,4.227-18.831,8.925l-0.462,0.229L378.29,338.757z"/>
<g>
	<g>
		<path fill="#5388A0" d="M532.111,279.776c-5.945-5.792-14.464-11.188-23.026-10.879c-7.048,0.254-12.257,5.193-15.185,11.268
			c-2.217,4.601-3.257,9.626-3.964,14.649c-0.427,3.032-0.773,5.839-2.313,8.53c-5.651,9.872-21.67,9.545-31.335,9.156
			c-15.581-0.627-31.045-4.184-46.049-8.23c-11.625-3.136-23.212-6.724-34.465-11.027c-5.502-2.104-7.859,6.715-2.424,8.793
			c20.916,7.996,42.956,14.236,65.076,17.693c13.783,2.154,29.133,3.782,42.612-0.823c5.59-1.91,10.34-5.136,13.802-9.942
			c4.623-6.417,3.862-15.054,6.213-22.306c2.264-6.982,7.204-10.433,14.137-7.48c4.188,1.783,7.444,4.095,10.472,7.044
			C529.875,290.327,536.329,283.885,532.111,279.776L532.111,279.776z"/>
	</g>
</g>
<circle fill="#5388A0" stroke="#5388A0" stroke-width="2.018" stroke-miterlimit="10" cx="362.277" cy="301.871" r="24.706"/>
<path fill="#5388A0" d="M421.217,192.029c0,13.374-10.843,24.212-24.213,24.212c-13.374,0-24.215-10.839-24.215-24.212
	c0-13.373,10.841-24.212,24.215-24.212C410.374,167.817,421.217,178.656,421.217,192.029z"/>
<g>
	<g>
		<path fill="#5388A0" d="M301.652,286.323c-9.776-2.948-19.401-8.206-27.193-14.751c-6.468-5.433-11.565-12.233-13.714-20.48
			c-1.708-6.558-0.999-11.127,0.949-16.979c2.291-6.883,6.844-12.905,12.936-16.84c10.465-6.759,24.56-5.477,36.449-6.708
			c24.521-2.538,48.894-6.782,72.979-12c3.707-0.803,7.411-1.625,11.095-2.526c5.71-1.396,3.288-10.189-2.424-8.793
			c-15.042,3.678-30.3,6.583-45.56,9.178c-14.325,2.436-28.729,4.389-43.199,5.719c-11.838,1.088-23.438,0.939-33.941,7.257
			c-11.238,6.761-18.49,19.983-19.213,32.965c-1.012,18.158,11.527,32.716,25.831,42.078c6.879,4.503,14.689,8.293,22.583,10.674
			C304.873,296.818,307.267,288.017,301.652,286.323L301.652,286.323z"/>
	</g>
</g>
<circle fill="#689FBB" cx="341.975" cy="416.844" r="12.375"/>
<circle fill="#689FBB" cx="468.125" cy="422.924" r="12.375"/>
<g>
	<line fill="#689FBB" x1="341.975" y1="422.924" x2="341.975" y2="501.945"/>
	<g>
		<path fill="#689FBB" d="M337.416,422.924c0,26.341,0,52.681,0,79.021c0,5.88,9.118,5.88,9.118,0c0-26.341,0-52.681,0-79.021
			C346.534,417.044,337.416,417.044,337.416,422.924L337.416,422.924z"/>
	</g>
</g>
<g>
	<line fill="#689FBB" x1="468.125" y1="422.924" x2="468.125" y2="501.945"/>
	<g>
		<path fill="#689FBB" d="M463.566,422.924c0,26.341,0,52.681,0,79.021c0,5.88,9.118,5.88,9.118,0c0-26.341,0-52.681,0-79.021
			C472.684,417.044,463.566,417.044,463.566,422.924L463.566,422.924z"/>
	</g>
</g>
<ellipse fill="#689FBB" cx="328.034" cy="504.875" rx="17.197" ry="2.932"/>
<ellipse fill="#689FBB" cx="481.152" cy="504.225" rx="17.197" ry="2.932"/>
<g>
	<g>
		<path fill="#5388A0" d="M369.351,182.353c-9.882-0.776-20.596-0.825-30.354,0.756c-6.468,1.047-14.236,5.465-15.835,12.385
			c-0.565,2.448,3.194,3.487,3.761,1.037c1.682-7.28,10.937-9.672,17.211-10.121c8.302-0.593,16.901-0.81,25.217-0.156
			C371.86,186.45,371.84,182.548,369.351,182.353L369.351,182.353z"/>
	</g>
</g>
<g>
	<g>
		<path fill="#5388A0" d="M452.708,190.123c6.282-3.558,15.479-2.994,22.337-2.714c6.257,0.255,15.556,2.956,17.211,10.121
			c0.566,2.45,4.326,1.411,3.761-1.037c-1.645-7.117-9.356-11.019-15.835-12.385c-8.418-1.775-21.555-1.819-29.443,2.648
			C448.552,187.995,450.517,191.364,452.708,190.123L452.708,190.123z"/>
	</g>
</g>
<g>
	<path fill="#5388A0" d="M327.351,234.901c2.948,4,6.013,7.811,9.493,11.009c3.439,3.164,7.48,5.73,11.637,5.789
		c4.15,0.127,8.156-2.398,11.52-5.64c3.414-3.257,6.333-7.198,9.351-11.158c-1.542,4.74-3.799,9.277-7.04,13.292
		c-1.634,1.99-3.563,3.831-5.896,5.25c-1.168,0.704-2.443,1.281-3.795,1.688c-1.355,0.392-2.789,0.591-4.218,0.566
		c-2.874-0.058-5.612-1.036-7.9-2.448c-2.304-1.415-4.243-3.215-5.915-5.165C331.284,244.147,328.829,239.677,327.351,234.901z"/>
</g>
<ellipse fill="#FFFFFF" cx="465.914" cy="245.181" rx="25.667" ry="14.742"/>
<ellipse cx="475.692" cy="241.342" rx="11.447" ry="8.601"/>
<ellipse fill="#FFFFFF" cx="485.046" cy="238.63" rx="1.628" ry="1.224"/>
</svg>
