<?xml version="1.0" encoding="utf-8"?>
<!-- Generator: Adobe Illustrator 16.0.0, SVG Export Plug-In . SVG Version: 6.00 Build 0)  -->
<!DOCTYPE svg PUBLIC "-//W3C//DTD SVG 1.1//EN" "http://www.w3.org/Graphics/SVG/1.1/DTD/svg11.dtd">
<svg version="1.1" id="Layer_1" xmlns="http://www.w3.org/2000/svg" xmlns:xlink="http://www.w3.org/1999/xlink" x="0px" y="0px"
	 width="841.89px" height="595.28px" viewBox="0 0 841.89 595.28" enable-background="new 0 0 841.89 595.28" xml:space="preserve">
<path fill="#689FBB" d="M486.587,419.098c111.77-41.4,27.931-113.598,27.931-113.598c57.64-38.771,36.107-160.433,36.107-160.433
	c6.579-1.487,12.942-6.203,15.551-9.255c4.376-5.12,7.019-11.767,7.019-19.03c0-16.187-13.122-29.309-29.309-29.309
	c-16.186,0-29.308,13.122-29.308,29.309c0,3.9,0.82,7.609,2.204,11.012c-113.137-25.4-208.275,0-208.275,0
	c1.383-3.402,2.352-7.027,2.352-10.928c0-16.188-13.122-29.309-29.309-29.309c-16.186,0-29.309,13.121-29.309,29.309
	c0,7.264,2.644,13.91,7.02,19.03c4.031,4.718,9.535,8.14,15.799,9.556c0,0-22.184,121.663,35.456,160.435
	c0,0-83.396,82.029,31.883,112.314C342.398,418.201,454.69,430.912,486.587,419.098z"/>
<path fill="none" stroke="#556337" stroke-width="0.6513" stroke-miterlimit="10" d="M573.194,478.125"/>
<g>
	<g>
		<path fill="#5388A0" d="M375.615,346.283c8.098-10.167,22.258-13.808,34.634-14.913c13.619-1.219,30.218,0.771,40.876,10.163
			c2.891,2.548,7.15-1.68,4.242-4.242c-11.634-10.253-28.405-12.741-43.389-12.039c-14.257,0.667-31.311,5.117-40.605,16.789
			C368.989,345.034,373.205,349.31,375.615,346.283L375.615,346.283z"/>
	</g>
</g>
<path fill="#FFFFFF" d="M378.29,338.757c0,0,9.527,9.876,15.122,6.043c2.543-1.741,2.896-5.873,3.591-15.829
	c0,0-11.693,4.227-18.831,8.925l-0.462,0.229L378.29,338.757z"/>
<g>
	<g>
		<path fill="#5388A0" d="M533.387,265.383c-1.426-1.825,0.352,0.525,0.683,1c1.111,1.588,2.146,3.228,3.153,4.882
			c3.409,5.598,6.284,11.527,8.66,17.632c7.142,18.346,9.665,39.007,5.152,58.294c-5.327,22.771-22.143,44.722-41.784,57.365
			c-4.925,3.17-0.357,11.066,4.604,7.873c22.212-14.299,40.283-38.488,46.296-64.19c6.929-29.618-1.562-65.286-20.316-89.303
			C536.218,254.304,529.813,260.807,533.387,265.383L533.387,265.383z"/>
	</g>
</g>
<circle fill="#5388A0" stroke="#5388A0" stroke-width="2.018" stroke-miterlimit="10" cx="508.123" cy="410.549" r="24.706"/>
<path fill="#5388A0" d="M435.784,297.64c0,13.374-10.843,24.212-24.213,24.212c-13.374,0-24.215-10.838-24.215-24.212
	c0-13.373,10.841-24.212,24.215-24.212C424.941,273.428,435.784,284.267,435.784,297.64z"/>
<g>
	<g>
		<path fill="#5388A0" d="M314.912,307.099c1.274-7.811,3.243-16.238,7.437-23.019c0.954-1.542,2.252-2.736,3.012-2.968
			c-0.287,0.088,0.681,0.074,0.719,0.092c1.12,0.516,1.946,1.375,2.787,2.253c7.128,7.446,8.846,18.595,15.021,26.74
			c18.039,23.793,49.682,7.029,66.555-9.334c4.228-4.1-2.227-10.541-6.447-6.447c-7.117,6.901-15.95,12.935-25.233,16.415
			c-6.419,2.407-13.731,3.498-20.104,0.378c-9.815-4.805-12.563-16.648-17.315-25.501c-3.127-5.827-7.785-12.784-14.917-13.655
			c-5.486-0.67-9.649,3.703-12.276,7.95c-4.462,7.213-6.675,16.36-8.031,24.672C305.181,310.425,313.967,312.892,314.912,307.099
			L314.912,307.099z"/>
	</g>
</g>
<circle fill="#689FBB" cx="341.975" cy="416.844" r="12.375"/>
<circle fill="#689FBB" cx="468.125" cy="422.924" r="12.375"/>
<g>
	<line fill="#689FBB" x1="341.975" y1="422.924" x2="341.975" y2="501.945"/>
	<g>
		<path fill="#689FBB" d="M337.415,422.924c0,26.341,0,52.681,0,79.021c0,5.88,9.119,5.88,9.119,0c0-26.341,0-52.681,0-79.021
			C346.534,417.044,337.415,417.044,337.415,422.924L337.415,422.924z"/>
	</g>
</g>
<g>
	<line fill="#689FBB" x1="468.125" y1="422.924" x2="468.125" y2="501.945"/>
	<g>
		<path fill="#689FBB" d="M463.565,422.924c0,26.341,0,52.681,0,79.021c0,5.88,9.119,5.88,9.119,0c0-26.341,0-52.681,0-79.021
			C472.685,417.044,463.565,417.044,463.565,422.924L463.565,422.924z"/>
	</g>
</g>
<ellipse fill="#689FBB" cx="328.034" cy="504.875" rx="17.197" ry="2.932"/>
<ellipse fill="#689FBB" cx="481.152" cy="504.225" rx="17.197" ry="2.932"/>
<g>
	<g>
		<path fill="#5388A0" d="M369.351,182.353c-9.883-0.775-20.597-0.824-30.354,0.756c-6.469,1.048-14.236,5.465-15.835,12.385
			c-0.565,2.447,3.195,3.487,3.761,1.037c1.682-7.279,10.937-9.672,17.211-10.12c8.302-0.594,16.9-0.81,25.217-0.157
			C371.859,186.449,371.841,182.548,369.351,182.353L369.351,182.353z"/>
	</g>
</g>
<g>
	<g>
		<path fill="#5388A0" d="M452.708,190.123c6.282-3.558,15.479-2.994,22.338-2.714c6.257,0.256,15.556,2.955,17.211,10.12
			c0.566,2.45,4.327,1.411,3.762-1.037c-1.645-7.117-9.356-11.019-15.836-12.385c-8.418-1.774-21.555-1.819-29.443,2.648
			C448.552,187.995,450.517,191.364,452.708,190.123L452.708,190.123z"/>
	</g>
</g>
<path fill="#FFFFFF" d="M501.22,232.54c0,15.123-13.649,27.383-30.485,27.383c-16.838,0-30.487-12.26-30.487-27.383
	c0-15.12,13.649-27.381,30.487-27.381C487.57,205.159,501.22,217.42,501.22,232.54z"/>
<ellipse cx="482.349" cy="225.411" rx="13.597" ry="15.975"/>
<ellipse fill="#FFFFFF" cx="493.458" cy="220.372" rx="1.935" ry="2.272"/>
<path fill="#FFFFFF" d="M328.381,233.54c0,15.123,13.649,27.383,30.486,27.383c16.837,0,30.487-12.26,30.487-27.383
	c0-15.12-13.649-27.381-30.487-27.381C342.031,206.159,328.381,218.42,328.381,233.54z"/>
<ellipse cx="373.494" cy="228.911" rx="13.597" ry="15.975"/>
<ellipse fill="#FFFFFF" cx="384.156" cy="222.601" rx="1.935" ry="2.272"/>
</svg>
