<?xml version="1.0" encoding="utf-8"?>
<!-- Generator: Adobe Illustrator 16.0.0, SVG Export Plug-In . SVG Version: 6.00 Build 0)  -->
<!DOCTYPE svg PUBLIC "-//W3C//DTD SVG 1.1//EN" "http://www.w3.org/Graphics/SVG/1.1/DTD/svg11.dtd">
<svg version="1.1" id="Layer_1" xmlns="http://www.w3.org/2000/svg" xmlns:xlink="http://www.w3.org/1999/xlink" x="0px" y="0px"
	 width="841.89px" height="595.28px" viewBox="0 0 841.89 595.28" enable-background="new 0 0 841.89 595.28" xml:space="preserve">
<path fill="#689FBB" d="M486.587,419.098c111.77-41.4,27.931-113.598,27.931-113.598c57.64-38.771,36.107-160.433,36.107-160.433
	c6.579-1.487,12.942-6.203,15.551-9.255c4.376-5.12,7.019-11.767,7.019-19.03c0-16.187-13.122-29.309-29.309-29.309
	c-16.186,0-29.308,13.122-29.308,29.309c0,3.9,0.82,7.609,2.204,11.012c-113.137-25.4-208.275,0-208.275,0
	c1.383-3.402,2.352-7.027,2.352-10.928c0-16.188-13.122-29.309-29.309-29.309c-16.186,0-29.309,13.121-29.309,29.309
	c0,7.264,2.644,13.91,7.02,19.03c4.031,4.718,9.535,8.14,15.799,9.556c0,0-22.184,121.663,35.456,160.435
	c0,0-83.396,82.029,31.883,112.314C342.398,418.201,454.69,430.912,486.587,419.098z"/>
<path fill="none" stroke="#556337" stroke-width="0.6513" stroke-miterlimit="10" d="M573.194,478.125"/>
<g>
	<g>
		<path fill="#5388A0" d="M375.615,346.283c3.824-4.522,10.603-2.301,15.568-1.204c7.471,1.648,14.849,3.227,22.543,3.091
			c6.863-0.122,13.55-2.36,19.965-4.586c4.676-1.621,12.883-5.79,17.434-2.051c2.963,2.437,7.234-1.784,4.242-4.242
			c-4.691-3.856-10.038-3.472-15.639-1.997c-8.765,2.307-16.804,6.345-26.002,6.876c-8.901,0.514-17.508-2.371-26.16-3.939
			c-5.825-1.056-12.08-1.056-16.193,3.811C368.892,344.976,373.113,349.242,375.615,346.283L375.615,346.283z"/>
	</g>
</g>
<path fill="#FFFFFF" d="M377.974,340.062c0,0,2.735,13.445,9.513,13.217c3.079-0.104,5.596-3.399,11.528-11.426
	c0,0-12.134-2.713-20.679-2.582l-0.513-0.055L377.974,340.062z"/>
<g>
	<g>
		<path fill="#5388A0" d="M533.387,265.383c-1.426-1.825,0.352,0.525,0.683,1c1.11,1.588,2.146,3.228,3.153,4.882
			c3.408,5.598,6.284,11.527,8.66,17.632c3.354,8.616,5.656,17.708,6.734,26.89c1.27,10.797-0.433,21.26-0.486,32.027
			c-0.127,25.093,11.742,52.232,29.643,69.902c4.187,4.133,10.637-2.313,6.447-6.447c-18.73-18.491-29.112-46.751-26.475-72.789
			c2.766-27.311-4.825-57.662-21.912-79.544C536.218,254.304,529.813,260.807,533.387,265.383L533.387,265.383z"/>
	</g>
</g>
<circle fill="#5388A0" stroke="#5388A0" stroke-width="2.018" stroke-miterlimit="10" cx="578.79" cy="408.493" r="24.706"/>
<path fill="#5388A0" d="M271.233,392.587c0,13.374-10.843,24.212-24.213,24.212c-13.374,0-24.215-10.838-24.215-24.212
	c0-13.373,10.841-24.212,24.215-24.212C260.391,368.375,271.233,379.214,271.233,392.587z"/>
<g>
	<g>
		<path fill="#5388A0" d="M312.816,301.95c-7.031-3.574-14.457-6.559-21.961-8.966c-9.555-3.066-23.588-6.809-32.2,0.442
			c-4.351,3.662-5.386,9.547-4.838,14.944c1.076,10.612,6.816,20.089,9.153,30.431c3.202,14.163,0.551,29.716-10.822,39.469
			c-0.446,0.383-0.94,0.85-2.209,1.579c-5.095,2.929-0.504,10.809,4.604,7.873c7.969-4.581,13.476-13.313,16.415-21.755
			c3.148-9.04,2.799-18.907,1.094-28.186c-1.904-10.365-8.133-19.719-9.195-30.19c-0.212-2.09-0.048-4.548,0.759-6.063
			c0.71-1.331,1.832-1.961,3.474-2.46c4.405-1.34,9.854-0.272,14.454,0.789c9.025,2.081,17.684,5.563,25.927,9.596
			c0.249,0.122,0.497,0.245,0.745,0.37C313.443,312.481,318.06,304.615,312.816,301.95L312.816,301.95z"/>
	</g>
</g>
<circle fill="#689FBB" cx="341.975" cy="416.844" r="12.375"/>
<circle fill="#689FBB" cx="468.125" cy="422.924" r="12.375"/>
<g>
	<line fill="#689FBB" x1="341.975" y1="422.924" x2="341.975" y2="501.945"/>
	<g>
		<path fill="#689FBB" d="M337.415,422.924c0,26.341,0,52.681,0,79.021c0,5.88,9.119,5.88,9.119,0c0-26.341,0-52.681,0-79.021
			C346.534,417.044,337.415,417.044,337.415,422.924L337.415,422.924z"/>
	</g>
</g>
<g>
	<line fill="#689FBB" x1="468.125" y1="422.924" x2="468.125" y2="501.945"/>
	<g>
		<path fill="#689FBB" d="M463.565,422.924c0,26.341,0,52.681,0,79.021c0,5.88,9.119,5.88,9.119,0c0-26.341,0-52.681,0-79.021
			C472.685,417.044,463.565,417.044,463.565,422.924L463.565,422.924z"/>
	</g>
</g>
<ellipse fill="#689FBB" cx="328.034" cy="504.875" rx="17.197" ry="2.932"/>
<ellipse fill="#689FBB" cx="481.152" cy="504.225" rx="17.197" ry="2.932"/>
<g>
	<g>
		<path fill="#5388A0" d="M369.351,182.353c-9.883-0.775-20.597-0.824-30.354,0.756c-6.469,1.048-14.236,5.465-15.835,12.385
			c-0.566,2.447,3.194,3.487,3.76,1.037c1.683-7.279,10.938-9.672,17.212-10.12c8.302-0.594,16.9-0.81,25.217-0.157
			C371.859,186.449,371.841,182.548,369.351,182.353L369.351,182.353z"/>
	</g>
</g>
<g>
	<g>
		<path fill="#5388A0" d="M452.708,190.123c6.282-3.558,15.479-2.994,22.338-2.714c6.257,0.256,15.556,2.955,17.212,10.12
			c0.565,2.45,4.326,1.411,3.76-1.037c-1.645-7.117-9.355-11.019-15.835-12.385c-8.418-1.774-21.555-1.819-29.443,2.648
			C448.552,187.995,450.517,191.364,452.708,190.123L452.708,190.123z"/>
	</g>
</g>
<path fill="#FFFFFF" d="M501.22,232.54c0,15.123-13.649,27.383-30.485,27.383c-16.838,0-30.487-12.26-30.487-27.383
	c0-15.12,13.649-27.381,30.487-27.381C487.57,205.159,501.22,217.42,501.22,232.54z"/>
<ellipse cx="470.733" cy="244.887" rx="13.597" ry="15.975"/>
<ellipse fill="#FFFFFF" cx="481.843" cy="239.848" rx="1.935" ry="2.272"/>
<path fill="#FFFFFF" d="M328.381,233.54c0,15.123,13.65,27.383,30.486,27.383c16.838,0,30.486-12.26,30.486-27.383
	c0-15.12-13.648-27.381-30.486-27.381C342.031,206.159,328.381,218.42,328.381,233.54z"/>
<ellipse cx="358.867" cy="244.887" rx="13.597" ry="15.975"/>
<ellipse fill="#FFFFFF" cx="369.529" cy="238.576" rx="1.935" ry="2.272"/>
</svg>
