<?xml version="1.0" encoding="utf-8"?>
<!-- Generator: Adobe Illustrator 16.0.0, SVG Export Plug-In . SVG Version: 6.00 Build 0)  -->
<!DOCTYPE svg PUBLIC "-//W3C//DTD SVG 1.1//EN" "http://www.w3.org/Graphics/SVG/1.1/DTD/svg11.dtd">
<svg version="1.1" id="Layer_1" xmlns="http://www.w3.org/2000/svg" xmlns:xlink="http://www.w3.org/1999/xlink" x="0px" y="0px"
	 width="841.89px" height="595.28px" viewBox="0 0 841.89 595.28" enable-background="new 0 0 841.89 595.28" xml:space="preserve">
<path fill="#689FBB" d="M486.586,419.098c111.771-41.4,27.932-113.598,27.932-113.598c57.639-38.771,36.107-160.433,36.107-160.433
	c6.579-1.487,12.942-6.203,15.551-9.255c4.376-5.12,7.019-11.767,7.019-19.03c0-16.187-13.122-29.309-29.309-29.309
	c-16.186,0-29.308,13.122-29.308,29.309c0,3.9,0.82,7.609,2.204,11.012c-113.136-25.4-208.276,0-208.276,0
	c1.384-3.402,2.352-7.027,2.352-10.928c0-16.188-13.121-29.309-29.308-29.309c-16.186,0-29.31,13.121-29.31,29.309
	c0,7.264,2.645,13.91,7.021,19.03c4.03,4.718,9.535,8.14,15.798,9.556c0,0-22.184,121.663,35.457,160.435
	c0,0-83.396,82.029,31.883,112.314C342.398,418.201,454.689,430.912,486.586,419.098z"/>
<path fill="none" stroke="#556337" stroke-width="0.6513" stroke-miterlimit="10" d="M573.194,478.125"/>
<g>
	<g>
		<path fill="#5388A0" d="M458.021,343.102c6.564-3.346,3.453-9.551-1.994-11.702c-7.73-3.053-17.194-3.289-25.375-3.906
			c-10.967-0.828-21.932-0.491-32.908-0.005c-9.854,0.436-21.736,1.343-28.463,9.567c-3.641,4.452,2.688,10.859,6.365,6.364
			c4.893-5.983,13.387-6.405,20.559-6.851c8.248-0.512,16.6-0.773,24.863-0.567c7.135,0.178,14.307,0.711,21.379,1.683
			c2.858,0.393,5.703,0.896,8.506,1.581c0.82,0.2,2.043,0.526,2.623,0.787c2.762,1.242,1.234-5.4-0.098-4.722
			C448.307,337.966,452.861,345.73,458.021,343.102L458.021,343.102z"/>
	</g>
</g>
<path fill="#FFFFFF" d="M376.859,337.53c0,0,7.385,11.563,13.628,8.913c2.837-1.203,4-5.184,6.65-14.806
	c0,0-12.298,1.83-20.224,5.025l-0.5,0.133L376.859,337.53z"/>
<g>
	<g>
		<path fill="#5388A0" d="M534.309,266.096c7.336,3.1,13.955,8.271,19.445,13.948c5.471,5.657,9.607,12.497,12.073,19.964
			c3.325,10.069,1.761,19.661,1.618,29.976c-0.205,14.741,6.555,27.588,20.461,33.17c6.642,2.666,14.459,3.211,21.518,2.179
			c5.801-0.849,3.326-9.634-2.424-8.793c2.191-0.321-0.094-0.017-0.754,0.03c-1.52,0.109-3.044,0.114-4.566,0.067
			c-4.129-0.125-8.354-0.894-12.169-2.635c-15.472-7.058-12.317-24.059-12.134-37.962c0.322-24.347-16.021-48.333-38.465-57.818
			C533.563,255.962,528.908,263.814,534.309,266.096L534.309,266.096z"/>
	</g>
</g>
<circle fill="#5388A0" stroke="#5388A0" stroke-width="1.1949" stroke-miterlimit="10" cx="608.212" cy="360.937" r="14.63"/>
<path fill="#5388A0" d="M258.82,380.983c0,8.565-6.945,15.506-15.506,15.506c-8.566,0-15.509-6.94-15.509-15.506
	c0-8.564,6.942-15.506,15.509-15.506C251.875,365.477,258.82,372.418,258.82,380.983z"/>
<g>
	<g>
		<path fill="#5388A0" d="M311.728,301.49c-19.382-3.816-39.943-5.881-59.642-4.053c-11.029,1.024-24.48,3.431-31.874,12.58
			c-10.64,13.165-0.872,30.266,5.185,43.072c4.851,10.258,10.307,20.724,17.893,29.268c1.998,2.249,4.692,5.044,7.74,5.825
			c5.701,1.461,8.117-7.334,2.424-8.793c-0.578-0.148,1.395,0.733,0.127,0.01c-0.377-0.215-0.731-0.469-1.081-0.726
			c1.135,0.833-0.808-0.755-1.13-1.063c-4.368-4.178-7.576-9.552-10.596-14.728c-5.844-10.017-11.545-21.011-15.072-32.069
			c-1.51-4.732-1.833-9.726,0.715-13.916c5.227-8.595,19.768-9.952,28.855-10.605c12.914-0.929,25.98,0.048,38.807,1.622
			c5.07,0.623,10.186,1.375,15.225,2.367C315.047,311.414,317.494,302.625,311.728,301.49L311.728,301.49z"/>
	</g>
</g>
<circle fill="#689FBB" cx="341.975" cy="416.844" r="12.375"/>
<circle fill="#689FBB" cx="468.125" cy="422.924" r="12.375"/>
<g>
	<line fill="#689FBB" x1="341.975" y1="422.924" x2="341.975" y2="501.945"/>
	<g>
		<path fill="#689FBB" d="M337.416,422.924c0,26.34,0,52.681,0,79.021c0,5.88,9.117,5.88,9.117,0c0-26.34,0-52.681,0-79.021
			C346.533,417.043,337.416,417.043,337.416,422.924L337.416,422.924z"/>
	</g>
</g>
<g>
	<line fill="#689FBB" x1="468.125" y1="422.924" x2="468.125" y2="501.945"/>
	<g>
		<path fill="#689FBB" d="M463.566,422.924c0,26.34,0,52.681,0,79.021c0,5.88,9.117,5.88,9.117,0c0-26.34,0-52.681,0-79.021
			C472.684,417.043,463.566,417.043,463.566,422.924L463.566,422.924z"/>
	</g>
</g>
<ellipse fill="#689FBB" cx="328.034" cy="504.875" rx="17.197" ry="2.932"/>
<ellipse fill="#689FBB" cx="481.152" cy="504.225" rx="17.197" ry="2.932"/>
<g>
	<g>
		<path fill="#5388A0" d="M370.73,182.924c-14.377-11.882-40.83-10.268-55.274,0.729c-1.973,1.502-0.034,4.892,1.968,3.367
			c12.963-9.869,37.473-12.146,50.547-1.339C369.895,187.271,372.67,184.528,370.73,182.924L370.73,182.924z"/>
	</g>
</g>
<g>
	<g>
		<path fill="#5388A0" d="M453.406,189.424c9.076-16.538,34.867-16.932,46.434-2.708c1.588,1.952,4.33-0.825,2.759-2.758
			c-13.157-16.179-42.345-15.113-52.559,3.497C448.829,189.661,452.197,191.628,453.406,189.424L453.406,189.424z"/>
	</g>
</g>
<path fill="#FFFFFF" d="M501.219,232.54c0,15.123-13.648,27.383-30.484,27.383c-16.838,0-30.487-12.26-30.487-27.383
	c0-15.12,13.649-27.381,30.487-27.381C487.57,205.159,501.219,217.42,501.219,232.54z"/>
<ellipse cx="487.622" cy="233.542" rx="13.597" ry="15.975"/>
<ellipse fill="#FFFFFF" cx="498.733" cy="228.503" rx="1.935" ry="2.272"/>
<path fill="#FFFFFF" d="M328.381,233.54c0,15.123,13.65,27.383,30.486,27.383c16.838,0,30.486-12.26,30.486-27.383
	c0-15.12-13.648-27.381-30.486-27.381C342.031,206.159,328.381,218.42,328.381,233.54z"/>
<ellipse cx="377.823" cy="236.306" rx="13.597" ry="15.975"/>
<ellipse fill="#FFFFFF" cx="388.485" cy="229.995" rx="1.935" ry="2.272"/>
</svg>
