<?xml version="1.0" encoding="utf-8"?>
<!-- Generator: Adobe Illustrator 16.0.0, SVG Export Plug-In . SVG Version: 6.00 Build 0)  -->
<!DOCTYPE svg PUBLIC "-//W3C//DTD SVG 1.1//EN" "http://www.w3.org/Graphics/SVG/1.1/DTD/svg11.dtd">
<svg version="1.1" id="Layer_1" xmlns="http://www.w3.org/2000/svg" xmlns:xlink="http://www.w3.org/1999/xlink" x="0px" y="0px"
	 width="841.89px" height="595.28px" viewBox="0 0 841.89 595.28" enable-background="new 0 0 841.89 595.28" xml:space="preserve">
<path fill="#689FBB" d="M486.587,419.097c111.77-41.399,27.931-113.598,27.931-113.598c57.64-38.77,36.107-160.432,36.107-160.432
	c6.579-1.488,12.942-6.204,15.551-9.255c4.376-5.12,7.019-11.767,7.019-19.03c0-16.187-13.122-29.308-29.309-29.308
	c-16.186,0-29.308,13.122-29.308,29.308c0,3.9,0.82,7.609,2.204,11.012c-113.137-25.4-208.275,0-208.275,0
	c1.383-3.403,2.352-7.028,2.352-10.929c0-16.187-13.122-29.308-29.309-29.308c-16.186,0-29.309,13.122-29.309,29.308
	c0,7.264,2.644,13.91,7.02,19.031c4.031,4.717,9.535,8.14,15.799,9.556c0,0-22.184,121.663,35.456,160.434
	c0,0-83.396,82.029,31.883,112.314C342.398,418.201,454.69,430.912,486.587,419.097z"/>
<path fill="none" stroke="#556337" stroke-width="0.6513" stroke-miterlimit="10" d="M573.194,478.125"/>
<g>
	<g>
		<path fill="#5388A0" d="M391.525,362.193c1.501-1.884,7.561-6.887,0.63-1.592c2.464-1.882,5.247-3.324,8.046-4.631
			c-7.716,3.604,1.587-0.267,3.797-0.865c1.549-0.419,3.126-0.731,4.699-1.045c2.771-0.462,2.155-0.412-1.848,0.149
			c1.131-0.137,2.264-0.25,3.399-0.34c3.505-0.313,7.032-0.291,10.545-0.15c1.701,0.068,3.396,0.247,5.088,0.427
			c-7.937-0.846-0.561,0.097,1.189,0.491c1.491,0.336,2.954,0.779,4.415,1.225c0.932,0.297,1.854,0.619,2.769,0.965
			c-3.882-1.708-4.625-2.012-2.229-0.914c1.2,0.558,2.345,1.223,3.484,1.892c5.611,3.293-3.287-2.999-0.296-0.362
			c10.418,9.182,25.775,10.287,36.063,0c9.361-9.361,10.434-26.867,0-36.063c-16.213-14.29-38.002-19.627-59.299-18.63
			c-19.668,0.921-43.646,7.221-56.516,23.379c-4.409,5.536-7.469,10.664-7.469,18.031c0,6.736,2.708,13.271,7.469,18.031
			C364.457,371.188,382.852,373.083,391.525,362.193L391.525,362.193z"/>
	</g>
</g>
<path fill="#FFFFFF" d="M368.873,319.554c0,0,8.104,11.074,14.166,8.033c2.755-1.381,3.664-5.428,5.699-15.198
	c0,0-12.158,2.606-19.865,6.296l-0.489,0.164L368.873,319.554z"/>
<g>
	<g>
		<path fill="#5388A0" d="M526.586,286.937c1.122,0.55-0.791-0.769,0.204,0.128c1.345,1.211,0.997,0.895,2.097,2.864
			c3.158,5.654,3.732,12.925,4.046,19.294c0.296,6.022-0.014,12.067-0.492,18.07c-0.227,2.839-0.609,7.325-1.492,9.179
			c-0.594,1.246-0.191,0.607-0.855,1.307c0.209-0.22-1.013,0.625-0.31,0.337c-1.387,0.568-2.024,0.399-3.274,0.13
			c-9.81-2.114-19.382-11.653-26.766-18.485c-10.811-10.003-20.801-20.9-30.495-31.976c-7.613-8.699-15.075-17.564-22.193-26.677
			c-3.617-4.63-10.021,1.872-6.447,6.448c12.539,16.053,25.943,31.545,40.07,46.215c9.488,9.853,19.479,19.619,30.876,27.268
			c6.988,4.69,17.212,9.875,24.727,3.435c3.829-3.281,4.442-8.902,4.938-13.551c1.162-10.873,1.421-21.888-0.307-32.711
			c-0.973-6.092-3.422-16.063-9.725-19.15C525.929,276.487,521.305,284.35,526.586,286.937L526.586,286.937z"/>
	</g>
</g>
<circle fill="#5388A0" stroke="#5388A0" stroke-width="1.9263" stroke-miterlimit="10" cx="432.49" cy="256.702" r="23.584"/>
<path fill="#5388A0" d="M385.923,208.515c0,13.374-10.843,24.212-24.213,24.212c-13.374,0-24.215-10.839-24.215-24.212
	c0-13.373,10.841-24.212,24.215-24.212C375.08,184.302,385.923,195.142,385.923,208.515z"/>
<g>
	<g>
		<path fill="#5388A0" d="M284.086,273.803c-7.736,5.318-15.903,10.095-24.247,14.386c-6.228,3.204-12.665,6.064-19.446,7.873
			c-4.105,1.094-9.761,2.016-12.337-0.579c-1.055-1.062-1.329-3.604-1.345-5.488c-0.004-0.37,0.368-2.924-0.032-0.867
			c0.066-0.339,0.435-1.009-0.128,0.2c0.119-0.256,0.273-0.495,0.422-0.733c0.66-1.052-0.239,0.235,0.311-0.418
			c2.775-3.297,6.501-5.854,10.001-8.308c12.243-8.583,25.409-15.907,38.479-23.133c23.063-12.75,46.541-24.82,70.236-36.354
			c5.287-2.574,0.662-10.437-4.602-7.874c-20.033,9.752-39.867,19.945-59.489,30.498c-14.077,7.571-28.091,15.335-41.584,23.914
			c-7.345,4.669-18.744,10.55-22.216,19.128c-2.604,6.43,1.125,15.763,7.324,18.605c7.648,3.506,16.9,0.717,24.338-2.028
			c13.738-5.07,26.865-12.662,38.918-20.945C293.501,278.369,288.947,270.462,284.086,273.803L284.086,273.803z"/>
	</g>
</g>
<circle fill="#689FBB" cx="341.975" cy="416.843" r="12.375"/>
<circle fill="#689FBB" cx="468.125" cy="422.923" r="12.375"/>
<g>
	<line fill="#689FBB" x1="341.975" y1="422.923" x2="341.975" y2="501.945"/>
	<g>
		<path fill="#689FBB" d="M337.415,422.923c0,26.34,0,52.681,0,79.021c0,5.88,9.119,5.88,9.119,0c0-26.34,0-52.681,0-79.021
			C346.534,417.043,337.415,417.043,337.415,422.923L337.415,422.923z"/>
	</g>
</g>
<g>
	<line fill="#689FBB" x1="468.125" y1="422.923" x2="468.125" y2="501.945"/>
	<g>
		<path fill="#689FBB" d="M463.565,422.923c0,26.34,0,52.681,0,79.021c0,5.88,9.119,5.88,9.119,0c0-26.34,0-52.681,0-79.021
			C472.685,417.043,463.565,417.043,463.565,422.923L463.565,422.923z"/>
	</g>
</g>
<ellipse fill="#689FBB" cx="328.034" cy="504.875" rx="17.197" ry="2.932"/>
<ellipse fill="#689FBB" cx="481.152" cy="504.224" rx="17.197" ry="2.932"/>
<g>
	<g>
		<path fill="#5388A0" d="M360.396,172.075c-1.364,9.895-14.111,9.853-21.399,11.033c-6.469,1.048-14.236,5.465-15.835,12.385
			c-0.566,2.448,3.194,3.487,3.76,1.037c2.339-10.121,15.836-9.351,23.494-10.98c5.942-1.265,12.841-5.906,13.742-12.438
			C364.497,170.653,360.739,169.593,360.396,172.075L360.396,172.075z"/>
	</g>
</g>
<g>
	<g>
		<path fill="#5388A0" d="M455.021,174.111c0.864,6.263,7.03,10.346,12.521,12.114c7.843,2.525,22.203,0.435,24.715,11.305
			c0.565,2.45,4.326,1.411,3.76-1.037c-1.528-6.614-8.459-10.52-14.477-12.099c-7.479-1.962-21.281-0.615-22.758-11.32
			C458.44,170.592,454.683,171.653,455.021,174.111L455.021,174.111z"/>
	</g>
</g>
<g>
	<path fill="#5388A0" d="M327.351,234.901c2.948,4,6.013,7.811,9.493,11.009c3.439,3.164,7.48,5.73,11.637,5.789
		c4.15,0.127,8.156-2.398,11.52-5.64c3.414-3.257,6.333-7.198,9.351-11.158c-1.542,4.74-3.799,9.277-7.04,13.292
		c-1.634,1.99-3.563,3.831-5.896,5.25c-1.168,0.704-2.443,1.281-3.795,1.688c-1.355,0.392-2.789,0.591-4.218,0.566
		c-2.874-0.058-5.612-1.036-7.9-2.448c-2.304-1.415-4.243-3.214-5.915-5.165C331.284,244.147,328.829,239.677,327.351,234.901z"/>
</g>
<g>
	<path fill="#5388A0" d="M450.126,235.901c2.948,4,6.013,7.811,9.493,11.009c3.439,3.164,7.48,5.73,11.637,5.789
		c4.15,0.127,8.156-2.398,11.52-5.64c3.414-3.257,6.333-7.198,9.351-11.158c-1.542,4.74-3.799,9.277-7.04,13.292
		c-1.634,1.99-3.563,3.831-5.896,5.25c-1.168,0.704-2.443,1.281-3.795,1.688c-1.355,0.392-2.789,0.591-4.218,0.566
		c-2.874-0.058-5.612-1.036-7.9-2.448c-2.304-1.415-4.243-3.214-5.915-5.165C454.06,245.147,451.604,240.677,450.126,235.901z"/>
</g>
</svg>
