<?xml version="1.0" encoding="utf-8"?>
<!-- Generator: Adobe Illustrator 16.0.0, SVG Export Plug-In . SVG Version: 6.00 Build 0)  -->
<!DOCTYPE svg PUBLIC "-//W3C//DTD SVG 1.1//EN" "http://www.w3.org/Graphics/SVG/1.1/DTD/svg11.dtd">
<svg version="1.1" id="Layer_1" xmlns="http://www.w3.org/2000/svg" xmlns:xlink="http://www.w3.org/1999/xlink" x="0px" y="0px"
	 width="841.89px" height="595.28px" viewBox="0 0 841.89 595.28" enable-background="new 0 0 841.89 595.28" xml:space="preserve">
<path fill="#689FBB" d="M486.587,419.097c111.77-41.399,27.931-113.598,27.931-113.598c57.64-38.77,36.107-160.432,36.107-160.432
	c6.579-1.488,12.942-6.204,15.551-9.255c4.376-5.12,7.019-11.767,7.019-19.03c0-16.187-13.122-29.308-29.309-29.308
	c-16.186,0-29.308,13.122-29.308,29.308c0,3.9,0.82,7.609,2.204,11.012c-113.137-25.4-208.275,0-208.275,0
	c1.383-3.403,2.352-7.028,2.352-10.929c0-16.187-13.122-29.308-29.309-29.308c-16.186,0-29.309,13.122-29.309,29.308
	c0,7.264,2.644,13.91,7.02,19.031c4.031,4.717,9.535,8.14,15.799,9.556c0,0-22.184,121.663,35.456,160.434
	c0,0-83.396,82.029,31.883,112.314C342.398,418.201,454.69,430.912,486.587,419.097z"/>
<path fill="none" stroke="#556337" stroke-width="0.6513" stroke-miterlimit="10" d="M573.194,478.125"/>
<g>
	<g>
		<path fill="#5388A0" d="M391.525,362.193c1.501-1.884,7.561-6.887,0.63-1.592c2.464-1.882,5.247-3.324,8.045-4.631
			c-7.715,3.604,1.588-0.267,3.797-0.865c1.551-0.419,3.127-0.731,4.7-1.045c2.771-0.462,2.155-0.412-1.848,0.149
			c1.13-0.137,2.264-0.25,3.399-0.34c3.506-0.313,7.032-0.291,10.545-0.15c1.701,0.068,3.396,0.247,5.088,0.427
			c-7.936-0.846-0.561,0.097,1.189,0.491c1.491,0.336,2.954,0.779,4.415,1.225c0.932,0.297,1.854,0.619,2.769,0.965
			c-3.882-1.708-4.625-2.012-2.229-0.914c1.2,0.558,2.344,1.223,3.484,1.892c5.611,3.293-3.287-2.999-0.296-0.362
			c10.418,9.182,25.775,10.287,36.063,0c9.361-9.361,10.433-26.867,0-36.063c-16.213-14.29-38.001-19.627-59.299-18.63
			c-19.668,0.921-43.647,7.221-56.516,23.379c-4.409,5.536-7.469,10.664-7.469,18.031c0,6.736,2.708,13.271,7.469,18.031
			C364.457,371.188,382.853,373.083,391.525,362.193L391.525,362.193z"/>
	</g>
</g>
<path fill="#FFFFFF" d="M368.873,319.554c0,0,8.104,11.074,14.166,8.033c2.755-1.381,3.664-5.428,5.699-15.198
	c0,0-12.158,2.606-19.865,6.296l-0.489,0.164L368.873,319.554z"/>
<g>
	<g>
		<path fill="#5388A0" d="M532.11,279.776c-5.945-5.791-14.464-11.188-23.025-10.878c-7.048,0.254-12.257,5.193-15.185,11.268
			c-2.218,4.601-3.257,9.626-3.964,14.649c-0.382,2.709-0.65,5.155-1.847,7.234c-1.524,2.649-4.82,4.016-8.343,4.397
			c-5.485,0.593-11.037-0.404-16.356-1.66c-14.406-3.402-28.155-9.61-41.403-16.082c-17.264-8.434-34.173-17.905-50.336-28.308
			c-4.961-3.192-9.527,4.704-4.602,7.874c17.48,11.25,35.816,21.414,54.574,30.353c13.302,6.339,27.154,12.309,41.6,15.469
			c9.823,2.148,22.432,3.466,30.281-4.253c3.931-3.865,4.711-8.954,5.441-14.146c0.798-5.667,2.41-15.465,8.951-17.45
			c6.179-1.875,13.925,4.24,17.766,7.981C529.876,290.327,536.329,283.885,532.11,279.776L532.11,279.776z"/>
	</g>
</g>
<circle fill="#5388A0" stroke="#5388A0" stroke-width="2.018" stroke-miterlimit="10" cx="362.277" cy="277.165" r="24.706"/>
<path fill="#5388A0" d="M464.09,195.029c0,13.374-10.843,24.212-24.213,24.212c-13.374,0-24.215-10.839-24.215-24.212
	c0-13.373,10.841-24.212,24.215-24.212C453.247,170.817,464.09,181.656,464.09,195.029z"/>
<g>
	<g>
		<path fill="#5388A0" d="M290.515,278.604c-1.419-0.434-0.74-0.222-1.575-0.6c-2.027-0.917-3.938-2.072-5.766-3.334
			c-6.074-4.195-10.245-10.651-12.438-17.61c-1.633-5.183-1.927-10.597-1.735-15.992c0.024-0.702-0.277-0.369,0.615-1.374
			c1.033-1.164,2.246-2.172,3.44-3.161c8.416-6.964,19.124-11.784,29.36-15.303c13.16-4.525,26.686-4.743,40.387-6.109
			c14.014-1.398,27.967-3.438,41.849-5.799c14.738-2.506,29.473-5.36,44-8.912c5.71-1.396,3.288-10.189-2.424-8.793
			c-15.042,3.678-30.3,6.583-45.561,9.178c-14.325,2.436-28.729,4.389-43.199,5.719c-13.962,1.284-27.118,2.176-40.444,6.968
			c-10.185,3.662-20.173,8.693-28.766,15.312c-2.591,1.997-4.929,4.069-6.887,6.699c-2.527,3.394-1.647,8.968-1.396,12.868
			c1,15.573,9.443,30.068,23.564,37.14c1.458,0.73,2.988,1.421,4.551,1.899C293.729,289.119,296.122,280.316,290.515,278.604
			L290.515,278.604z"/>
	</g>
</g>
<circle fill="#689FBB" cx="341.975" cy="416.843" r="12.375"/>
<circle fill="#689FBB" cx="468.125" cy="422.923" r="12.375"/>
<g>
	<line fill="#689FBB" x1="341.975" y1="422.923" x2="341.975" y2="501.945"/>
	<g>
		<path fill="#689FBB" d="M337.415,422.923c0,26.34,0,52.681,0,79.021c0,5.88,9.119,5.88,9.119,0c0-26.34,0-52.681,0-79.021
			C346.534,417.043,337.415,417.043,337.415,422.923L337.415,422.923z"/>
	</g>
</g>
<g>
	<line fill="#689FBB" x1="468.125" y1="422.923" x2="468.125" y2="501.945"/>
	<g>
		<path fill="#689FBB" d="M463.565,422.923c0,26.34,0,52.681,0,79.021c0,5.88,9.119,5.88,9.119,0c0-26.34,0-52.681,0-79.021
			C472.685,417.043,463.565,417.043,463.565,422.923L463.565,422.923z"/>
	</g>
</g>
<ellipse fill="#689FBB" cx="328.034" cy="504.875" rx="17.197" ry="2.932"/>
<ellipse fill="#689FBB" cx="481.152" cy="504.224" rx="17.197" ry="2.932"/>
<g>
	<g>
		<path fill="#5388A0" d="M360.397,172.075c-1.365,9.895-14.112,9.853-21.4,11.033c-6.469,1.048-14.236,5.465-15.836,12.385
			c-0.564,2.448,3.195,3.487,3.762,1.037c2.338-10.121,15.835-9.351,23.493-10.98c5.942-1.265,12.841-5.906,13.741-12.438
			C364.497,170.653,360.739,169.593,360.397,172.075L360.397,172.075z"/>
	</g>
</g>
<g>
	<g>
		<path fill="#5388A0" d="M455.022,174.111c0.863,6.263,7.029,10.346,12.521,12.114c7.843,2.525,22.202,0.435,24.714,11.305
			c0.566,2.45,4.326,1.411,3.762-1.037c-1.529-6.614-8.46-10.52-14.477-12.099c-7.48-1.962-21.283-0.615-22.76-11.32
			C458.44,170.592,454.683,171.653,455.022,174.111L455.022,174.111z"/>
	</g>
</g>
<g>
	<path fill="#5388A0" d="M327.351,234.901c2.948,4,6.013,7.811,9.493,11.009c3.439,3.164,7.48,5.73,11.637,5.789
		c4.15,0.127,8.156-2.398,11.52-5.64c3.414-3.257,6.333-7.198,9.351-11.158c-1.542,4.74-3.799,9.277-7.04,13.292
		c-1.634,1.99-3.563,3.831-5.896,5.25c-1.168,0.704-2.443,1.281-3.795,1.688c-1.355,0.392-2.789,0.591-4.218,0.566
		c-2.874-0.058-5.612-1.036-7.9-2.448c-2.304-1.415-4.243-3.214-5.915-5.165C331.284,244.147,328.829,239.677,327.351,234.901z"/>
</g>
<g>
	<path fill="#5388A0" d="M450.126,235.901c2.948,4,6.013,7.811,9.493,11.009c3.439,3.164,7.48,5.73,11.637,5.789
		c4.15,0.127,8.156-2.398,11.52-5.64c3.414-3.257,6.333-7.198,9.351-11.158c-1.542,4.74-3.799,9.277-7.04,13.292
		c-1.634,1.99-3.563,3.831-5.896,5.25c-1.168,0.704-2.443,1.281-3.795,1.688c-1.355,0.392-2.789,0.591-4.218,0.566
		c-2.874-0.058-5.612-1.036-7.9-2.448c-2.304-1.415-4.243-3.214-5.915-5.165C454.06,245.147,451.604,240.677,450.126,235.901z"/>
</g>
</svg>
