<?xml version="1.0" encoding="utf-8"?>
<!-- Generator: Adobe Illustrator 16.0.0, SVG Export Plug-In . SVG Version: 6.00 Build 0)  -->
<!DOCTYPE svg PUBLIC "-//W3C//DTD SVG 1.1//EN" "http://www.w3.org/Graphics/SVG/1.1/DTD/svg11.dtd">
<svg version="1.1" id="Layer_1" xmlns="http://www.w3.org/2000/svg" xmlns:xlink="http://www.w3.org/1999/xlink" x="0px" y="0px"
	 width="841.89px" height="595.28px" viewBox="0 0 841.89 595.28" enable-background="new 0 0 841.89 595.28" xml:space="preserve">
<path fill="#689FBB" d="M486.587,419.097c111.77-41.399,27.931-113.598,27.931-113.598c57.64-38.77,36.107-160.432,36.107-160.432
	c6.579-1.488,12.942-6.204,15.551-9.255c4.376-5.12,7.019-11.767,7.019-19.03c0-16.187-13.122-29.308-29.309-29.308
	c-16.186,0-29.308,13.122-29.308,29.308c0,3.9,0.82,7.609,2.204,11.012c-113.137-25.4-208.275,0-208.275,0
	c1.383-3.403,2.352-7.028,2.352-10.929c0-16.187-13.122-29.308-29.309-29.308c-16.186,0-29.309,13.122-29.309,29.308
	c0,7.264,2.644,13.91,7.02,19.031c4.031,4.717,9.535,8.14,15.799,9.556c0,0-22.184,121.663,35.456,160.434
	c0,0-83.396,82.029,31.883,112.314C342.398,418.201,454.69,430.912,486.587,419.097z"/>
<path fill="none" stroke="#556337" stroke-width="0.6513" stroke-miterlimit="10" d="M573.194,478.125"/>
<g>
	<g>
		<path fill="#5388A0" d="M381.979,352.647c3.406-4.277,5.814-5.721,11.407-8.334c4.35-2.032,11.335-3.45,16.862-3.944
			c6.84-0.612,13.721-0.257,20.411,1.25c2.94,0.663,6.158,1.698,8.18,2.637c1.2,0.558,2.345,1.223,3.484,1.892
			c0.715,0.436,1.412,0.896,2.094,1.382c-0.828-0.649-0.714-0.527,0.343,0.367c4.902,4.321,12.13,4.841,16.971,0
			c4.405-4.405,4.909-12.644,0-16.971c-13.478-11.878-32.228-15.497-49.753-14.676c-16.414,0.769-36.25,5.965-46.97,19.425
			c-4.071,5.112-5.013,11.958,0,16.971C369.241,356.879,377.897,357.772,381.979,352.647L381.979,352.647z"/>
	</g>
</g>
<path fill="#FFFFFF" d="M375.051,330.281c0,0,8.104,11.074,14.166,8.033c2.755-1.381,3.664-5.428,5.699-15.198
	c0,0-12.158,2.606-19.865,6.296l-0.489,0.164L375.051,330.281z"/>
<g>
	<g>
		<path fill="#5388A0" d="M532.11,279.776c-5.945-5.791-14.464-11.188-23.025-10.878c-7.048,0.254-12.257,5.193-15.185,11.268
			c-2.217,4.601-3.258,9.626-3.965,14.649c-0.381,2.709-0.649,5.155-1.846,7.234c-1.523,2.649-4.82,4.016-8.344,4.397
			c-5.484,0.593-11.036-0.404-16.355-1.66c-14.406-3.402-28.155-9.61-41.403-16.082c-17.264-8.434-34.173-17.905-50.335-28.308
			c-4.961-3.192-9.529,4.704-4.604,7.874c17.48,11.25,35.817,21.414,54.575,30.353c13.302,6.339,27.154,12.309,41.6,15.469
			c9.823,2.148,22.433,3.466,30.281-4.253c3.931-3.865,4.711-8.954,5.441-14.146c0.798-5.667,2.41-15.465,8.951-17.45
			c6.179-1.875,13.925,4.24,17.766,7.981C529.875,290.327,536.328,283.885,532.11,279.776L532.11,279.776z"/>
	</g>
</g>
<circle fill="#5388A0" stroke="#5388A0" stroke-width="2.018" stroke-miterlimit="10" cx="362.277" cy="277.165" r="24.706"/>
<path fill="#5388A0" d="M464.09,195.029c0,13.374-10.843,24.212-24.213,24.212c-13.374,0-24.215-10.839-24.215-24.212
	c0-13.373,10.841-24.212,24.215-24.212C453.247,170.817,464.09,181.656,464.09,195.029z"/>
<g>
	<g>
		<path fill="#5388A0" d="M290.515,278.604c-1.419-0.434-0.74-0.223-1.575-0.6c-2.027-0.917-3.938-2.072-5.766-3.334
			c-6.074-4.195-10.245-10.651-12.438-17.61c-1.633-5.183-1.927-10.597-1.736-15.992c0.025-0.702-0.276-0.369,0.616-1.374
			c1.033-1.164,2.245-2.172,3.44-3.161c8.416-6.965,19.123-11.784,29.359-15.304c13.162-4.525,26.687-4.743,40.388-6.109
			c14.014-1.398,27.968-3.438,41.849-5.799c14.738-2.506,29.473-5.36,44-8.912c5.71-1.396,3.287-10.189-2.424-8.793
			c-15.042,3.678-30.3,6.583-45.561,9.178c-14.325,2.436-28.729,4.389-43.199,5.719c-13.962,1.284-27.118,2.176-40.444,6.968
			c-10.185,3.662-20.173,8.693-28.765,15.312c-2.592,1.997-4.93,4.069-6.889,6.699c-2.527,3.394-1.646,8.968-1.396,12.868
			c1.001,15.573,9.445,30.068,23.564,37.14c1.459,0.73,2.989,1.421,4.552,1.899C293.729,289.119,296.122,280.316,290.515,278.604
			L290.515,278.604z"/>
	</g>
</g>
<circle fill="#689FBB" cx="341.975" cy="416.843" r="12.375"/>
<circle fill="#689FBB" cx="468.125" cy="422.923" r="12.375"/>
<g>
	<line fill="#689FBB" x1="341.975" y1="422.923" x2="341.975" y2="501.945"/>
	<g>
		<path fill="#689FBB" d="M337.415,422.923c0,26.34,0,52.681,0,79.021c0,5.88,9.119,5.88,9.119,0c0-26.34,0-52.681,0-79.021
			C346.534,417.043,337.415,417.043,337.415,422.923L337.415,422.923z"/>
	</g>
</g>
<g>
	<line fill="#689FBB" x1="468.125" y1="422.923" x2="468.125" y2="501.945"/>
	<g>
		<path fill="#689FBB" d="M463.565,422.923c0,26.34,0,52.681,0,79.021c0,5.88,9.119,5.88,9.119,0c0-26.34,0-52.681,0-79.021
			C472.685,417.043,463.565,417.043,463.565,422.923L463.565,422.923z"/>
	</g>
</g>
<ellipse fill="#689FBB" cx="328.034" cy="504.875" rx="17.197" ry="2.932"/>
<ellipse fill="#689FBB" cx="481.152" cy="504.224" rx="17.197" ry="2.932"/>
<g>
	<g>
		<path fill="#5388A0" d="M370.729,189.832c-7.728-6.805-20.022-8.154-29.767-7.028c-7.094,0.82-16.018,4.969-17.801,12.689
			c-0.566,2.448,3.194,3.487,3.76,1.037c1.683-7.28,10.937-9.672,17.212-10.121c7.636-0.546,17.794,0.858,23.838,6.18
			C369.852,194.245,372.62,191.498,370.729,189.832L370.729,189.832z"/>
	</g>
</g>
<g>
	<g>
		<path fill="#5388A0" d="M465.773,194.045c-3.708-6.818,6.82-6.811,10.905-6.52c5.836,0.417,14.075,3.499,15.579,10.004
			c0.565,2.45,4.326,1.411,3.76-1.037c-2.239-9.693-14.129-12.78-22.578-13.032c-7.43-0.221-15.482,4.372-11.033,12.553
			C463.607,198.223,466.976,196.255,465.773,194.045L465.773,194.045z"/>
	</g>
</g>
<g>
	<path fill="#5388A0" d="M327.351,234.901c2.948,4,6.013,7.811,9.493,11.009c3.439,3.164,7.48,5.73,11.637,5.789
		c4.15,0.127,8.156-2.398,11.52-5.64c3.414-3.257,6.333-7.198,9.351-11.158c-1.542,4.74-3.799,9.277-7.04,13.292
		c-1.634,1.99-3.563,3.831-5.896,5.25c-1.168,0.704-2.443,1.281-3.795,1.688c-1.355,0.392-2.789,0.591-4.218,0.566
		c-2.874-0.058-5.612-1.036-7.9-2.448c-2.304-1.415-4.243-3.215-5.915-5.165C331.284,244.147,328.829,239.677,327.351,234.901z"/>
</g>
<ellipse fill="#FFFFFF" cx="465.914" cy="247.529" rx="25.667" ry="12.393"/>
<ellipse cx="466.967" cy="251.532" rx="11.447" ry="7.231"/>
<ellipse fill="#FFFFFF" cx="476.321" cy="249.252" rx="1.628" ry="1.028"/>
<path fill="#5388A0" d="M439.564,253.435c0,0,33.749-12.717,52.706,0c0,0,3.813-18.306-24.906-20.71
	C467.364,232.725,436.818,231.214,439.564,253.435z"/>
</svg>
