<?xml version="1.0" encoding="utf-8"?>
<!-- Generator: Adobe Illustrator 16.0.0, SVG Export Plug-In . SVG Version: 6.00 Build 0)  -->
<!DOCTYPE svg PUBLIC "-//W3C//DTD SVG 1.1//EN" "http://www.w3.org/Graphics/SVG/1.1/DTD/svg11.dtd">
<svg version="1.1" id="Layer_1" xmlns="http://www.w3.org/2000/svg" xmlns:xlink="http://www.w3.org/1999/xlink" x="0px" y="0px"
	 width="841.89px" height="595.28px" viewBox="0 0 841.89 595.28" enable-background="new 0 0 841.89 595.28" xml:space="preserve">
<path fill="#689FBB" d="M486.587,419.097c111.77-41.399,27.931-113.598,27.931-113.598c57.64-38.77,36.107-160.432,36.107-160.432
	c6.579-1.488,12.942-6.204,15.551-9.255c4.376-5.12,7.019-11.767,7.019-19.03c0-16.187-13.122-29.308-29.309-29.308
	c-16.186,0-29.308,13.122-29.308,29.308c0,3.9,0.82,7.609,2.204,11.012c-113.137-25.4-208.275,0-208.275,0
	c1.383-3.403,2.352-7.028,2.352-10.929c0-16.187-13.122-29.308-29.309-29.308c-16.186,0-29.309,13.122-29.309,29.308
	c0,7.264,2.644,13.91,7.02,19.031c4.031,4.717,9.535,8.14,15.799,9.556c0,0-22.184,121.663,35.456,160.434
	c0,0-83.396,82.029,31.883,112.314C342.398,418.201,454.69,430.912,486.587,419.097z"/>
<path fill="none" stroke="#556337" stroke-width="0.6513" stroke-miterlimit="10" d="M573.194,478.125"/>
<g>
	<g>
		<path fill="#5388A0" d="M375.615,346.283c8.098-10.168,22.258-13.808,34.634-14.914c13.619-1.218,30.219,0.771,40.876,10.165
			c2.891,2.547,7.15-1.68,4.242-4.243c-11.633-10.253-28.405-12.741-43.389-12.04c-14.257,0.667-31.311,5.117-40.605,16.789
			C368.989,345.034,373.205,349.309,375.615,346.283L375.615,346.283z"/>
	</g>
</g>
<path fill="#FFFFFF" d="M378.29,338.757c0,0,9.527,9.876,15.122,6.043c2.543-1.741,2.896-5.873,3.591-15.829
	c0,0-11.693,4.227-18.831,8.925l-0.462,0.229L378.29,338.757z"/>
<g>
	<g>
		<path fill="#5388A0" d="M532.11,279.776c-5.945-5.791-14.464-11.188-23.025-10.878c-7.048,0.254-12.257,5.193-15.185,11.268
			c-2.218,4.601-3.257,9.626-3.964,14.649c-0.427,3.032-0.773,5.839-2.314,8.53c-5.65,9.872-21.67,9.545-31.335,9.156
			c-15.581-0.627-31.045-4.184-46.048-8.23c-11.626-3.136-23.213-6.724-34.466-11.027c-5.502-2.104-7.858,6.715-2.424,8.793
			c20.915,7.997,42.956,14.237,65.076,17.694c13.783,2.154,29.134,3.782,42.612-0.824c5.59-1.91,10.34-5.136,13.803-9.942
			c4.622-6.417,3.861-15.055,6.213-22.306c2.264-6.982,7.203-10.432,14.137-7.48c4.188,1.783,7.443,4.095,10.473,7.045
			C529.876,290.327,536.329,283.885,532.11,279.776L532.11,279.776z"/>
	</g>
</g>
<circle fill="#5388A0" stroke="#5388A0" stroke-width="2.018" stroke-miterlimit="10" cx="362.277" cy="301.871" r="24.706"/>
<path fill="#5388A0" d="M421.217,192.029c0,13.374-10.843,24.212-24.213,24.212c-13.374,0-24.215-10.839-24.215-24.212
	c0-13.373,10.841-24.212,24.215-24.212C410.374,167.817,421.217,178.656,421.217,192.029z"/>
<g>
	<g>
		<path fill="#5388A0" d="M301.652,286.323c-9.776-2.948-19.401-8.206-27.192-14.751c-6.468-5.433-11.566-12.233-13.715-20.48
			c-1.707-6.558-0.999-11.127,0.949-16.979c2.291-6.882,6.844-12.905,12.936-16.84c10.466-6.759,24.561-5.477,36.449-6.708
			c24.521-2.539,48.894-6.782,72.979-12.001c3.706-0.803,7.411-1.625,11.095-2.526c5.71-1.396,3.288-10.189-2.424-8.793
			c-15.042,3.678-30.3,6.583-45.561,9.178c-14.325,2.436-28.729,4.389-43.199,5.719c-11.838,1.088-23.438,0.939-33.94,7.257
			c-11.238,6.761-18.49,19.983-19.213,32.965c-1.012,18.158,11.526,32.716,25.831,42.078c6.879,4.503,14.688,8.293,22.582,10.674
			C304.873,296.818,307.267,288.017,301.652,286.323L301.652,286.323z"/>
	</g>
</g>
<circle fill="#689FBB" cx="341.975" cy="416.843" r="12.375"/>
<circle fill="#689FBB" cx="468.125" cy="422.923" r="12.375"/>
<g>
	<line fill="#689FBB" x1="341.975" y1="422.923" x2="341.975" y2="501.945"/>
	<g>
		<path fill="#689FBB" d="M337.415,422.923c0,26.34,0,52.681,0,79.021c0,5.88,9.119,5.88,9.119,0c0-26.34,0-52.681,0-79.021
			C346.534,417.043,337.415,417.043,337.415,422.923L337.415,422.923z"/>
	</g>
</g>
<g>
	<line fill="#689FBB" x1="468.125" y1="422.923" x2="468.125" y2="501.945"/>
	<g>
		<path fill="#689FBB" d="M463.565,422.923c0,26.34,0,52.681,0,79.021c0,5.88,9.119,5.88,9.119,0c0-26.34,0-52.681,0-79.021
			C472.685,417.043,463.565,417.043,463.565,422.923L463.565,422.923z"/>
	</g>
</g>
<ellipse fill="#689FBB" cx="328.034" cy="504.875" rx="17.197" ry="2.932"/>
<ellipse fill="#689FBB" cx="481.152" cy="504.224" rx="17.197" ry="2.932"/>
<g>
	<g>
		<path fill="#5388A0" d="M374.562,182.353c-11.646-0.57-24.05-1.11-35.564,0.755c-6.469,1.048-14.236,5.465-15.836,12.385
			c-0.564,2.448,3.195,3.487,3.762,1.037c1.682-7.28,10.936-9.672,17.211-10.121c10.068-0.72,20.344-0.651,30.428-0.157
			C377.076,186.376,377.064,182.475,374.562,182.353L374.562,182.353z"/>
	</g>
</g>
<g>
	<g>
		<path fill="#5388A0" d="M458.782,195.548c1.063-7.242,10.585-8.306,16.264-8.139c6.249,0.183,15.566,2.999,17.211,10.121
			c0.566,2.45,4.326,1.411,3.762-1.037c-2.103-9.099-12.943-12.41-20.973-12.984c-7.323-0.523-18.723,2.142-20.023,11.002
			C454.661,196.97,458.419,198.028,458.782,195.548L458.782,195.548z"/>
	</g>
</g>
<g>
	<path fill="#5388A0" d="M327.351,234.901c2.948,4,6.013,7.811,9.493,11.009c3.439,3.164,7.48,5.73,11.637,5.789
		c4.15,0.127,8.156-2.398,11.52-5.64c3.414-3.257,6.333-7.198,9.351-11.158c-1.542,4.74-3.799,9.277-7.04,13.292
		c-1.634,1.99-3.563,3.831-5.896,5.25c-1.168,0.704-2.443,1.281-3.795,1.688c-1.355,0.392-2.789,0.591-4.218,0.566
		c-2.874-0.058-5.612-1.036-7.9-2.448c-2.304-1.415-4.243-3.215-5.915-5.165C331.284,244.147,328.829,239.677,327.351,234.901z"/>
</g>
<ellipse fill="#FFFFFF" cx="465.914" cy="247.529" rx="25.667" ry="12.393"/>
<ellipse cx="476.967" cy="242.532" rx="11.447" ry="7.231"/>
<ellipse fill="#FFFFFF" cx="486.321" cy="240.252" rx="1.628" ry="1.028"/>
</svg>
