<?xml version="1.0" encoding="utf-8"?>
<!-- Generator: Adobe Illustrator 16.0.0, SVG Export Plug-In . SVG Version: 6.00 Build 0)  -->
<!DOCTYPE svg PUBLIC "-//W3C//DTD SVG 1.1//EN" "http://www.w3.org/Graphics/SVG/1.1/DTD/svg11.dtd">
<svg version="1.1" id="Layer_1" xmlns="http://www.w3.org/2000/svg" xmlns:xlink="http://www.w3.org/1999/xlink" x="0px" y="0px"
	 width="841.89px" height="595.28px" viewBox="0 0 841.89 595.28" enable-background="new 0 0 841.89 595.28" xml:space="preserve">
<path fill="#FBBF4F" d="M487.282,210.82c-2.484,1.963-29.072,14.383-59.48,15.881c-30.41,1.498-64.162-10.145-65.59-15.881
	c-3.045-12.227-5.549-136.65,0-154.482c3.863-12.414,28.426-48.102,65.617-45.293c0,0,49.271,10.002,55.635,54.928
	C489.821,110.855,492.28,206.869,487.282,210.82z"/>
<g>
	<g>
		<path fill="#FBBF4F" d="M361.274,125.379c-4.395,3.635-11.793,7.617-18.336,7.98c-18.93,1.051-17.758-28.42-19.055-40.252
			c-1.221-11.129-6.318-27.297-20.656-21.828c-8.43,3.215-15.377,10.76-20.867,17.689c-0.279,0.354-0.557,0.709-0.828,1.07
			c-1.73,2.289,2.133,4.5,3.84,2.244c3.998-5.291,11.002-12.648,17.928-16.203c17.844-9.158,16.387,25.926,17.596,34.441
			c1.758,12.375,7.092,27.676,22.043,27.285c7.693-0.201,15.178-4.361,21.115-8.99c0.123-0.096,0.244-0.193,0.365-0.293
			C366.63,126.695,363.466,123.566,361.274,125.379L361.274,125.379z"/>
	</g>
</g>
<g>
	<g>
		<path fill="#FBBF4F" d="M480.538,106.115c15.461,3.715,30.719,10.195,44.242,18.488c10.406,6.381,20.092,14.578,26.174,25.309
			c7.063,12.457,6.24,26.629,0.967,39.568c-1.082,2.656,3.221,3.801,4.287,1.182c5.34-13.1,6.031-26.984,0.117-39.994
			c-5.393-11.859-15.725-20.949-26.371-28.033c-14.387-9.576-31.406-16.764-48.234-20.809
			C478.933,101.156,477.749,105.445,480.538,106.115L480.538,106.115z"/>
	</g>
</g>
<g>
	<g>
		<path fill="#FBBF4F" d="M403.048,211.986c0,12.42,0,24.842,0,37.264c0,5.451,0,10.902,0,16.354c0,0.775,0.066-0.205,0.158-0.396
			c-0.273,0.564-0.854,0.926-1.432,1.16c-4.746,1.938-11.221-0.869-15.605-2.525c-2.688-1.016-3.838,3.283-1.182,4.287
			c5.783,2.186,17.449,6.463,21.963-0.506c1.756-2.711,0.545-8.471,0.545-11.424c0-14.738,0-29.477,0-44.213
			C407.495,209.119,403.048,209.119,403.048,211.986L403.048,211.986z"/>
	</g>
</g>
<g>
	<g>
		<path fill="#FBBF4F" d="M450.581,211.986c0,12.42,0,24.842,0,37.264c0,5.451,0,10.902,0,16.354c0,0.775,0.066-0.205,0.158-0.396
			c-0.271,0.564-0.854,0.926-1.43,1.16c-4.748,1.938-11.223-0.871-15.607-2.525c-2.688-1.016-3.838,3.283-1.182,4.287
			c5.783,2.184,17.449,6.463,21.963-0.506c1.756-2.711,0.545-8.471,0.545-11.424c0-14.738,0-29.477,0-44.213
			C455.028,209.119,450.581,209.119,450.581,211.986L450.581,211.986z"/>
	</g>
</g>
<circle fill="#FFFFFF" cx="453.602" cy="99.418" r="20.489"/>
<path fill="#1E1E1C" d="M459.401,99.414c0,9.455-4.402,17.119-9.834,17.119s-10.59-7.664-10.59-17.119
	c0-9.453,5.158-16.383,10.59-16.383S459.401,89.961,459.401,99.414z"/>
<ellipse fill="#FFFFFF" cx="454.837" cy="87.131" rx="1.15" ry="1.707"/>
<path opacity="0.65" fill="#FFFFFF" d="M446.921,112.424c0,0,1.889,1.963,4.918,0C451.839,112.424,449.315,117.451,446.921,112.424z
	"/>
<circle fill="#FFFFFF" cx="390.498" cy="99.783" r="20.489"/>
<path fill="#1E1E1C" d="M405.638,99.629c0,9.453-4.402,17.117-9.834,17.117s-10.592-7.664-10.592-17.117
	c0-9.455,5.16-16.385,10.592-16.385S405.638,90.174,405.638,99.629z"/>
<path opacity="0.65" fill="#FFFFFF" d="M393.155,112.639c0,0,1.891,1.961,4.916,0C398.071,112.639,395.55,117.664,393.155,112.639z"
	/>
<g>
	<path fill="#E5A53B" d="M374.69,74.77c1.355-1.16,2.816-2.176,4.309-3.162c1.506-0.967,3.078-1.844,4.736-2.588
		c1.645-0.742,3.348-1.604,5.268-1.695c0.947-0.061,1.922,0.004,2.865,0.236c0.939,0.232,1.865,0.643,2.568,1.313l-0.094,0.236
		c-1.85,0.043-3.377,0.348-4.98,0.73c-1.568,0.414-3.26,0.574-4.904,1.08c-1.635,0.508-3.258,1.127-4.863,1.809
		c-1.617,0.666-3.195,1.439-4.76,2.25L374.69,74.77z"/>
</g>
<g>
	<g>
		<path fill="#FFFFFF" d="M447.765,148.334c0.285,0.264,0.566,0.531,0.844,0.805c0.217,0.213,0.428,0.43,0.633,0.654
			c0.049,0.053,0.221,0.256,0.205,0.234c0.102,0.137,0.061,0.127,0.053,0.078c0.051,0.359,0.506,0.551,0.822,0.465
			c0.385-0.105,0.514-0.461,0.465-0.82c-0.068-0.502-0.684-0.998-1.016-1.336c-0.344-0.35-0.701-0.691-1.063-1.023
			C448.075,146.811,447.128,147.752,447.765,148.334L447.765,148.334z"/>
	</g>
</g>
<g>
	<g>
		<path fill="#FFFFFF" d="M391.696,149.684c0.264-0.285,0.531-0.566,0.805-0.844c0.213-0.215,0.43-0.428,0.652-0.631
			c0.055-0.051,0.258-0.221,0.236-0.205c0.137-0.104,0.127-0.061,0.076-0.055c0.361-0.049,0.553-0.506,0.467-0.82
			c-0.107-0.385-0.461-0.516-0.82-0.467c-0.502,0.068-0.998,0.686-1.336,1.016c-0.35,0.344-0.689,0.701-1.023,1.063
			C390.173,149.373,391.114,150.318,391.696,149.684L391.696,149.684z"/>
	</g>
</g>
<g>
	<path fill="#E5A53B" d="M469.144,75.668c-1.564-0.811-3.143-1.584-4.76-2.25c-1.605-0.682-3.229-1.301-4.863-1.811
		c-1.645-0.504-3.336-0.664-4.904-1.078c-1.605-0.383-3.131-0.688-4.982-0.73l-0.094-0.236c0.705-0.672,1.631-1.082,2.57-1.313
		c0.943-0.234,1.918-0.297,2.865-0.236c1.92,0.092,3.623,0.953,5.268,1.695c1.658,0.744,3.23,1.621,4.736,2.588
		c1.492,0.986,2.953,2.002,4.309,3.162L469.144,75.668z"/>
</g>
<g>
	<path fill="#EB6749" d="M431.991,169.5c2.855,3.928,8.801,4.467,13.291,1.203s5.814-9.084,2.957-13.014l-1.219-1.418
		C447.021,156.271,435.341,169.684,431.991,169.5z"/>
</g>
<g>
	<path fill="#644F43" d="M416.929,3.225c-0.035-0.531,0.008-1.088,0.195-1.623c0.193-0.531,0.547-1.025,1.018-1.393
		c0.953-0.746,2.289-0.906,3.473-0.547c1.191,0.352,2.266,1.375,2.617,2.674c0.375,1.297,0.074,2.6-0.361,3.695
		c-0.064,0.148-0.102,0.248-0.195,0.436c-0.063,0.121-0.104,0.223-0.207,0.391c-0.184,0.318-0.359,0.547-0.561,0.803
		c-0.402,0.484-0.861,0.885-1.318,1.246c-0.922,0.715-1.863,1.27-2.736,1.832c-0.871,0.561-1.703,1.094-2.355,1.727
		c-0.324,0.314-0.605,0.645-0.832,0.998c-0.096,0.145-0.27,0.438-0.385,0.637l-0.348,0.641c-0.945,1.725-1.561,3.607-1.428,5.389
		c0.08,1.789,1.078,3.391,2.57,4.592c1.506,1.189,3.42,1.992,5.412,2.488c2,0.525,4.104,0.727,6.242,0.791
		c-2.086,0.498-4.27,0.643-6.457,0.438c-2.174-0.236-4.398-0.813-6.357-2.107c-0.977-0.639-1.881-1.471-2.551-2.508
		c-0.674-1.027-1.115-2.238-1.254-3.467c-0.26-2.486,0.545-4.813,1.58-6.809c0.131-0.248,0.279-0.5,0.428-0.75
		c0.158-0.256,0.254-0.422,0.453-0.719c0.357-0.533,0.781-1.006,1.227-1.42c0.902-0.822,1.873-1.441,2.816-1.977
		c1.883-1.061,3.701-1.939,4.457-3.471c0.432-0.82,0.664-1.701,0.547-2.496c-0.104-0.795-0.643-1.512-1.447-1.895
		c-0.789-0.4-1.807-0.447-2.646-0.023C417.669,1.207,417.095,2.17,416.929,3.225z"/>
</g>
<ellipse fill="#FFFFFF" cx="401.052" cy="87.766" rx="1.15" ry="1.707"/>
<g>
	<g>
		<path fill="#FFFFFF" d="M447.157,147.863c-0.902,30.293-52.141,30.295-53.041,0c-0.037-1.227-1.943-1.23-1.906,0
			c0.975,32.734,55.877,32.734,56.854,0C449.099,146.633,447.194,146.637,447.157,147.863L447.157,147.863z"/>
	</g>
</g>
<g>
	<path fill="#E5A53B" d="M452.821,150.301c1.379-1.309,1.283-3.645-0.213-5.221c-1.5-1.576-3.826-1.791-5.205-0.482
		C447.403,144.598,452.751,146.061,452.821,150.301z"/>
</g>
<g>
	<path fill="#E5A53B" d="M388.089,150.223c-1.316-1.373-1.111-3.701,0.459-5.207c1.568-1.504,3.904-1.609,5.221-0.236
		C393.769,144.779,388.36,145.99,388.089,150.223z"/>
</g>
<path fill="#FFFFFF" d="M0.001,308"/>
</svg>
