<?xml version="1.0" encoding="utf-8"?>
<!-- Generator: Adobe Illustrator 16.0.0, SVG Export Plug-In . SVG Version: 6.00 Build 0)  -->
<!DOCTYPE svg PUBLIC "-//W3C//DTD SVG 1.1//EN" "http://www.w3.org/Graphics/SVG/1.1/DTD/svg11.dtd">
<svg version="1.1" id="Layer_1" xmlns="http://www.w3.org/2000/svg" xmlns:xlink="http://www.w3.org/1999/xlink" x="0px" y="0px"
	 width="841.89px" height="595.28px" viewBox="0 0 841.89 595.28" enable-background="new 0 0 841.89 595.28" xml:space="preserve">
<path fill="#FBBF4F" d="M488.283,216.818c-2.484,1.965-29.074,14.385-59.482,15.881c-30.408,1.498-64.162-10.145-65.59-15.881
	c-3.043-12.225-5.547-136.648,0-154.48c3.863-12.414,28.428-48.102,65.617-45.293c0,0,49.271,10,55.637,54.928
	C490.82,116.855,493.281,212.867,488.283,216.818z"/>
<g>
	<g>
		<path fill="#FBBF4F" d="M362.273,131.379c-7.119,5.594-21.428,13.902-30.285,6.469c-12.24-10.277-6.951-30.445-11.406-43.912
			c-2.771-8.379-11.891-12.84-20.098-9.373c-8.592,3.629-15.682,11.236-21.232,18.563c-1.734,2.285,2.131,4.498,3.84,2.244
			c4.742-6.258,13.709-16.811,22.891-17.699c14.809-1.436,12.303,24.48,13.584,32.754c1.539,9.951,6.266,23.158,17.902,24.584
			c9.98,1.221,20.332-4.5,27.949-10.484C367.672,132.752,364.502,129.629,362.273,131.379L362.273,131.379z"/>
	</g>
</g>
<g>
	<g>
		<path fill="#FBBF4F" d="M480.537,115.113c12.961,3.104,25.572,9.236,36.623,16.553c23.146,15.324,36.852,39.299,34.682,67.404
			c-0.221,2.861,4.227,2.84,4.447,0c2.199-28.494-11.203-52.781-33.969-69.229c-11.904-8.602-26.246-15.58-40.602-19.016
			C478.932,110.158,477.75,114.445,480.537,115.113L480.537,115.113z"/>
	</g>
</g>
<g>
	<g>
		<path fill="#FBBF4F" d="M404.049,217.984c0,12.422,0,24.844,0,37.266c0,5.449,0,10.9,0,16.352c0,0.777,0.066-0.205,0.158-0.396
			c-0.273,0.566-0.855,0.926-1.432,1.162c-4.748,1.938-11.221-0.871-15.605-2.527c-2.688-1.016-3.838,3.285-1.182,4.289
			c5.783,2.184,17.447,6.461,21.963-0.508c1.756-2.711,0.545-8.469,0.545-11.424c0-14.736,0-29.475,0-44.213
			C408.496,215.117,404.049,215.117,404.049,217.984L404.049,217.984z"/>
	</g>
</g>
<g>
	<g>
		<path fill="#FBBF4F" d="M448.046,218.576c1.376,6.776,2.854,13.536,4.493,20.254c0.858,3.517,2.604,7.333,2.636,10.962
			c0.042,4.757-2.078,9.763-3.793,14.113c-1.356,3.44-4.942,7.464-2.036,10.806c4.859,5.589,15.809,1.426,21.128-0.583
			c2.656-1.003,1.506-5.303-1.182-4.288c-4.429,1.672-9.592,3.7-14.425,2.86c-1.083-0.188-2.514-1.247-2.526-1.283
			c0.459,1.292-0.491,2.253,0.402,0.383c0.677-1.416,1.308-2.853,1.926-4.295c1.53-3.576,2.869-7.221,3.888-10.976
			c1.981-7.309-0.277-12.932-2.005-20.009c-1.548-6.341-2.919-12.731-4.219-19.128C451.763,214.584,447.477,215.776,448.046,218.576
			L448.046,218.576z"/>
	</g>
</g>
<circle fill="#FFFFFF" cx="454.601" cy="105.418" r="20.489"/>
<path fill="#1E1E1C" d="M460.381,107.207c-0.457,9.443-5.225,16.885-10.648,16.623c-5.426-0.262-10.209-8.166-9.752-17.609
	s5.945-16.115,11.371-15.852C456.775,90.631,460.838,97.764,460.381,107.207z"/>
<ellipse fill="#FFFFFF" cx="458.139" cy="97.182" rx="1.15" ry="1.707"/>
<path opacity="0.65" fill="#FFFFFF" d="M447.92,118.424c0,0,1.891,1.961,4.918,0C452.838,118.424,450.314,123.449,447.92,118.424z"
	/>
<circle fill="#FFFFFF" cx="391.498" cy="105.781" r="20.488"/>
<path fill="#1E1E1C" d="M406.67,104.822c-0.457,9.443-5.225,16.885-10.65,16.623c-5.426-0.264-10.207-8.168-9.752-17.611
	c0.457-9.443,5.947-16.113,11.371-15.852C403.064,88.244,407.127,95.379,406.67,104.822z"/>
<path opacity="0.65" fill="#FFFFFF" d="M394.154,118.637c0,0,1.893,1.961,4.918,0C399.072,118.637,396.551,123.664,394.154,118.637z
	"/>
<g>
	<path fill="#E5A53B" d="M375.689,80.768c1.355-1.158,2.816-2.174,4.311-3.162c1.506-0.965,3.078-1.842,4.734-2.588
		c1.646-0.74,3.35-1.604,5.268-1.693c0.949-0.061,1.922,0.002,2.867,0.236c0.939,0.23,1.863,0.641,2.568,1.313l-0.094,0.236
		c-1.85,0.043-3.377,0.346-4.98,0.73c-1.57,0.414-3.26,0.574-4.906,1.078c-1.633,0.51-3.258,1.127-4.863,1.811
		c-1.615,0.666-3.195,1.438-4.76,2.248L375.689,80.768z"/>
</g>
<g>
	<g>
		<path fill="#FFFFFF" d="M448.764,154.334c0.287,0.262,0.568,0.531,0.844,0.803c0.217,0.213,0.428,0.432,0.633,0.654
			c0.051,0.055,0.221,0.256,0.205,0.236c0.104,0.137,0.061,0.127,0.055,0.076c0.049,0.361,0.506,0.553,0.82,0.467
			c0.385-0.107,0.516-0.461,0.467-0.82c-0.068-0.502-0.686-1-1.016-1.336c-0.346-0.352-0.701-0.691-1.064-1.023
			C449.074,152.811,448.129,153.752,448.764,154.334L448.764,154.334z"/>
	</g>
</g>
<g>
	<g>
		<path fill="#FFFFFF" d="M392.697,155.684c0.262-0.287,0.531-0.566,0.803-0.844c0.213-0.217,0.43-0.428,0.654-0.633
			c0.055-0.049,0.256-0.221,0.234-0.205c0.139-0.102,0.129-0.061,0.078-0.053c0.361-0.049,0.553-0.506,0.467-0.82
			c-0.107-0.387-0.461-0.516-0.822-0.467c-0.5,0.068-0.998,0.684-1.334,1.016c-0.352,0.344-0.691,0.699-1.023,1.063
			C391.174,155.373,392.113,156.318,392.697,155.684L392.697,155.684z"/>
	</g>
</g>
<g>
	<path fill="#E5A53B" d="M470.145,81.666c-1.564-0.811-3.145-1.582-4.76-2.248c-1.605-0.684-3.23-1.301-4.863-1.811
		c-1.646-0.504-3.336-0.664-4.906-1.078c-1.604-0.385-3.131-0.689-4.98-0.732l-0.094-0.236c0.705-0.67,1.629-1.08,2.568-1.313
		c0.945-0.232,1.918-0.295,2.867-0.234c1.918,0.09,3.621,0.953,5.268,1.693c1.656,0.746,3.229,1.623,4.734,2.588
		c1.494,0.988,2.955,2.004,4.311,3.162L470.145,81.666z"/>
</g>
<g>
	<path fill="#EB6749" d="M432.99,175.498c2.855,3.93,8.801,4.467,13.291,1.203c4.492-3.264,5.814-9.084,2.959-13.014l-1.221-1.418
		C448.02,162.27,436.342,175.682,432.99,175.498z"/>
</g>
<g>
	<path fill="#644F43" d="M417.93,9.223c-0.035-0.529,0.006-1.086,0.195-1.621c0.193-0.531,0.545-1.025,1.018-1.393
		c0.953-0.746,2.289-0.906,3.473-0.547c1.189,0.35,2.264,1.375,2.617,2.674c0.375,1.297,0.074,2.6-0.363,3.693
		c-0.064,0.148-0.102,0.248-0.193,0.436c-0.063,0.123-0.104,0.223-0.207,0.391c-0.184,0.32-0.359,0.549-0.561,0.805
		c-0.404,0.484-0.861,0.885-1.318,1.246c-0.922,0.715-1.865,1.268-2.738,1.832c-0.871,0.561-1.703,1.094-2.354,1.725
		c-0.326,0.314-0.607,0.646-0.834,0.998c-0.096,0.146-0.268,0.439-0.385,0.639l-0.348,0.639c-0.943,1.727-1.561,3.609-1.426,5.389
		c0.078,1.791,1.076,3.393,2.57,4.594c1.506,1.189,3.418,1.99,5.412,2.488c1.998,0.525,4.104,0.727,6.24,0.789
		c-2.084,0.498-4.268,0.643-6.455,0.439c-2.174-0.236-4.398-0.814-6.357-2.109c-0.977-0.639-1.883-1.469-2.551-2.506
		c-0.676-1.029-1.117-2.24-1.256-3.467c-0.26-2.488,0.545-4.813,1.58-6.809c0.133-0.248,0.281-0.5,0.428-0.752
		c0.158-0.256,0.256-0.42,0.453-0.717c0.359-0.533,0.781-1.008,1.229-1.422c0.902-0.822,1.871-1.439,2.816-1.975
		c1.883-1.063,3.701-1.939,4.457-3.473c0.432-0.82,0.664-1.701,0.545-2.494c-0.102-0.795-0.643-1.512-1.447-1.895
		c-0.787-0.4-1.807-0.449-2.646-0.025C418.668,7.207,418.096,8.168,417.93,9.223z"/>
</g>
<ellipse fill="#FFFFFF" cx="404.352" cy="98.889" rx="1.15" ry="1.707"/>
<g>
	<g>
		<path fill="#FFFFFF" d="M448.156,153.861c-0.902,30.295-52.139,30.295-53.041,0c-0.037-1.225-1.941-1.229-1.906,0
			c0.977,32.736,55.879,32.736,56.854,0C450.1,152.633,448.193,152.637,448.156,153.861L448.156,153.861z"/>
	</g>
</g>
<g>
	<path fill="#E5A53B" d="M453.822,156.301c1.377-1.311,1.283-3.646-0.215-5.223s-3.824-1.791-5.205-0.48
		C448.402,150.598,453.75,152.059,453.822,156.301z"/>
</g>
<g>
	<path fill="#E5A53B" d="M389.088,156.221c-1.314-1.373-1.111-3.701,0.459-5.205s3.904-1.611,5.223-0.238
		C394.77,150.777,389.359,151.988,389.088,156.221z"/>
</g>
</svg>
