<?xml version="1.0" encoding="utf-8"?>
<!-- Generator: Adobe Illustrator 16.0.0, SVG Export Plug-In . SVG Version: 6.00 Build 0)  -->
<!DOCTYPE svg PUBLIC "-//W3C//DTD SVG 1.1//EN" "http://www.w3.org/Graphics/SVG/1.1/DTD/svg11.dtd">
<svg version="1.1" id="Layer_1" xmlns="http://www.w3.org/2000/svg" xmlns:xlink="http://www.w3.org/1999/xlink" x="0px" y="0px"
	 width="841.89px" height="595.28px" viewBox="0 0 841.89 595.28" enable-background="new 0 0 841.89 595.28" xml:space="preserve">
<path fill="#FBBF4F" d="M481.883,294.166c-2.709,2.141-31.689,15.677-64.834,17.309c-33.143,1.633-69.934-11.057-71.488-17.309
	c-3.318-13.326-6.047-148.941,0-168.378c4.209-13.53,30.982-52.428,71.52-49.366c0,0,53.703,10.9,60.639,59.868
	C484.648,185.21,487.328,289.858,481.883,294.166z"/>
<g>
	<g>
		<path fill="#FBBF4F" d="M474.746,180.33c-1.926,6.256-0.512,13.533,2.795,19.026c3.512,5.832,9.477,9.479,15.592,12.053
			c5.67,2.387,13.057,5.083,19.027,2.353c10.469-4.789,18.15-14.417,28.494-19.663c18.625-9.446,33.602,4.616,43.525,19.614
			c1.715,2.593,5.916,0.168,4.186-2.447c-8.607-13.007-21.361-27.385-38.621-25.044c-12.32,1.672-22.037,10.264-31.436,17.687
			c-3.012,2.38-7.084,6.15-11.168,6.236c-7.658,0.162-17.486-4.648-22.832-9.964c-4.631-4.605-6.844-12.216-4.889-18.562
			C480.342,178.623,475.662,177.353,474.746,180.33L474.746,180.33z"/>
	</g>
</g>
<g>
	<g>
		<path fill="#FBBF4F" d="M377.637,294.331c5.328,13.094,10.654,26.188,15.982,39.282c2.055,5.051,4.109,10.103,6.164,15.153
			c-0.154-0.38,0.012-0.632-0.043-0.345c-0.133,0.684-0.561,1.18-1.039,1.668c-3.768,3.846-11.584,3.668-16.426,3.78
			c-3.121,0.073-3.127,4.92,0,4.848c6.682-0.156,19.971-0.498,22.137-9.008c0.922-3.615-2.615-8.771-3.891-11.905
			c-6.07-14.921-12.141-29.842-18.211-44.763C381.15,290.188,376.459,291.435,377.637,294.331L377.637,294.331z"/>
	</g>
</g>
<g>
	<g>
		<path fill="#FBBF4F" d="M445.252,293.18c-3.6,15.701-7.201,31.401-10.803,47.102c-0.742,3.24-3.385,8.994-2.139,12.392
			c3.143,8.563,17.064,6.571,23.688,5.654c3.084-0.427,1.766-5.097-1.289-4.674c-5.08,0.703-11.588,1.63-16.318-0.998
			c-0.697-0.388-1.195-0.924-1.553-1.624c-0.145-0.283,0.125-0.039-0.049,0.718c1.219-5.315,2.438-10.63,3.656-15.945
			c3.16-13.778,6.32-27.557,9.48-41.335C450.625,291.426,445.951,290.134,445.252,293.18L445.252,293.18z"/>
	</g>
</g>
<ellipse fill="#FFFFFF" cx="445.17" cy="190.135" rx="22.332" ry="5.244"/>
<ellipse fill="#FFFFFF" cx="376.391" cy="190.228" rx="22.332" ry="5.244"/>
<g>
	<path fill="#E5A53B" d="M359.162,145.877c1.477-1.264,3.068-2.371,4.697-3.447c1.641-1.053,3.355-2.009,5.16-2.82
		c1.795-0.806,3.65-1.749,5.742-1.846c1.033-0.066,2.096,0.002,3.125,0.257c1.023,0.253,2.031,0.7,2.799,1.431l-0.102,0.258
		c-2.018,0.047-3.682,0.378-5.43,0.796c-1.709,0.452-3.555,0.622-5.346,1.175c-1.781,0.556-3.551,1.229-5.301,1.974
		c-1.762,0.726-3.482,1.567-5.189,2.45L359.162,145.877z"/>
</g>
<g>
	<g>
		<path fill="#FFFFFF" d="M438.809,226.059c0.316,0.29,0.625,0.587,0.932,0.888c0.236,0.233,0.469,0.472,0.691,0.717
			c0.041,0.045,0.246,0.289,0.195,0.221c0.135,0.177,0.1,0.331,0.047-0.089c0.049,0.394,0.293,0.727,0.727,0.727
			c0.359,0,0.777-0.332,0.727-0.727c-0.084-0.68-0.684-1.194-1.143-1.66c-0.371-0.378-0.756-0.745-1.146-1.104
			C439.148,224.398,438.117,225.424,438.809,226.059L438.809,226.059z"/>
	</g>
</g>
<g>
	<g>
		<path fill="#FFFFFF" d="M377.699,227.53c0.289-0.315,0.586-0.625,0.887-0.93c0.232-0.237,0.471-0.47,0.717-0.693
			c0.043-0.04,0.289-0.246,0.221-0.193c0.176-0.135,0.33-0.101-0.09-0.048c0.395-0.049,0.729-0.294,0.729-0.728
			c0-0.359-0.334-0.776-0.729-0.728c-0.68,0.085-1.193,0.687-1.66,1.144c-0.377,0.372-0.744,0.757-1.104,1.148
			C376.037,227.192,377.064,228.224,377.699,227.53L377.699,227.53z"/>
	</g>
</g>
<g>
	<path fill="#E5A53B" d="M462.111,146.855c-1.705-0.883-3.428-1.725-5.188-2.45c-1.75-0.745-3.521-1.418-5.301-1.974
		c-1.793-0.553-3.637-0.723-5.348-1.176c-1.748-0.418-3.412-0.75-5.43-0.797l-0.102-0.258c0.768-0.73,1.775-1.178,2.801-1.43
		c1.029-0.255,2.09-0.324,3.123-0.258c2.094,0.098,3.947,1.042,5.742,1.848c1.807,0.812,3.52,1.768,5.162,2.82
		c1.627,1.076,3.219,2.184,4.695,3.446L462.111,146.855z"/>
</g>
<g>
	<path fill="#EB6749" d="M418.74,251.748c2.592,4.615,8.959,5.955,14.234,2.994c5.275-2.963,7.451-9.094,4.857-13.712l-1.139-1.69
		C436.693,239.34,422.346,252.373,418.74,251.748z"/>
</g>
<g>
	<path fill="#644F43" d="M405.199,67.896c-0.039-0.579,0.008-1.186,0.213-1.769c0.211-0.579,0.596-1.118,1.109-1.519
		c1.039-0.813,2.494-0.986,3.785-0.596c1.297,0.383,2.469,1.5,2.852,2.915c0.408,1.413,0.08,2.833-0.395,4.026
		c-0.07,0.162-0.111,0.271-0.211,0.475c-0.068,0.133-0.113,0.242-0.227,0.426c-0.199,0.348-0.393,0.598-0.611,0.877
		c-0.439,0.527-0.938,0.964-1.436,1.357c-1.006,0.779-2.033,1.383-2.984,1.997c-0.949,0.61-1.855,1.192-2.566,1.882
		c-0.354,0.342-0.66,0.703-0.908,1.087c-0.104,0.158-0.291,0.479-0.418,0.695c-0.127,0.228-0.256,0.454-0.379,0.697
		c-1.029,1.88-1.701,3.933-1.555,5.873c0.055,0.969,0.334,1.9,0.818,2.747c0.49,0.84,1.174,1.602,1.982,2.259
		c1.641,1.296,3.727,2.171,5.898,2.712c2.18,0.572,4.473,0.793,6.803,0.861c-2.271,0.543-4.652,0.699-7.035,0.479
		c-2.371-0.259-4.795-0.887-6.93-2.299c-1.064-0.696-2.051-1.603-2.781-2.732c-0.734-1.121-1.215-2.44-1.367-3.778
		c-0.283-2.711,0.594-5.245,1.723-7.421c0.143-0.271,0.305-0.545,0.465-0.818c0.172-0.279,0.277-0.459,0.494-0.782
		c0.391-0.581,0.852-1.097,1.338-1.55c0.982-0.896,2.039-1.57,3.07-2.152c2.053-1.157,4.033-2.113,4.857-3.785
		c0.471-0.894,0.723-1.854,0.596-2.719c-0.113-0.866-0.701-1.648-1.578-2.064c-0.859-0.438-1.969-0.49-2.885-0.027
		C406.006,65.697,405.381,66.746,405.199,67.896z"/>
</g>
<g>
	<g>
		<path fill="#FFFFFF" d="M438.146,225.545c-0.924,33.018-56.889,33.018-57.813,0c-0.037-1.337-2.115-1.34-2.076,0
			c0.463,16.573,15.406,26.906,30.98,27.24c15.574,0.333,30.535-11.153,30.986-27.24
			C440.262,224.205,438.184,224.208,438.146,225.545L438.146,225.545z"/>
	</g>
</g>
<g>
	<path fill="#E5A53B" d="M444.32,228.203c1.502-1.428,1.398-3.973-0.232-5.691c-1.635-1.718-4.168-1.952-5.674-0.524
		C438.414,221.987,444.242,223.58,444.32,228.203z"/>
</g>
<g>
	<path fill="#E5A53B" d="M373.764,228.117c-1.434-1.497-1.211-4.034,0.5-5.674c1.713-1.641,4.256-1.756,5.693-0.26
		C379.957,222.184,374.061,223.504,373.764,228.117z"/>
</g>
<path fill="#1E1E1C" d="M454.031,190.105c0,2.42-4.801,4.383-10.719,4.383c-5.92,0-11.543-1.963-11.543-4.383
	s5.623-4.193,11.543-4.193C449.23,185.912,454.031,187.686,454.031,190.105z"/>
<path fill="#FFFFFF" d="M454.031,190.692c0,0.241-0.564,0.437-1.254,0.437c-0.691,0-1.256-0.195-1.256-0.437
	s0.564-0.438,1.256-0.438C453.467,190.255,454.031,190.451,454.031,190.692z"/>
<path opacity="0.65" fill="#FFFFFF" d="M442.898,193.436c0,0,2.061,0.502,5.361,0C448.26,193.436,445.51,194.723,442.898,193.436z"
	/>
<path fill="#1E1E1C" d="M391.07,190.16c0,2.421-4.799,4.383-10.719,4.383s-11.543-1.962-11.543-4.383
	c0-2.42,5.623-4.193,11.543-4.193S391.07,187.74,391.07,190.16z"/>
<path opacity="0.65" fill="#FFFFFF" d="M380.146,193.49c0,0,2.061,0.502,5.359,0C385.506,193.49,382.758,194.777,380.146,193.49z"/>
<ellipse fill="#FFFFFF" cx="389.816" cy="190.255" rx="1.254" ry="0.438"/>
<g>
	<g>
		<path fill="#FBBF4F" d="M258.771,217.043c5.857,7.704,13.455,15.621,22.73,18.949c10.277,3.688,18.377-5.207,20.379-14.338
			c1.822-8.317,0.029-17.58,4.82-24.993c3.281-5.076,9.814-8.029,15.68-8.534c6.383-0.551,12.91,4.315,17.879,7.739
			c4.287,2.955,8.393,6.263,12.227,9.789c2.107,1.937,5.26-1.199,3.145-3.145c-8.131-7.478-18.08-15.807-28.992-18.506
			c-10.203-2.523-21.959,5.225-25.85,14.318c-4.551,10.639,1.625,28.76-12.314,33.717c-6.189,2.201-13.555-4.51-17.629-8.27
			c-2.783-2.568-6.416-6.582-8.234-8.972C260.9,212.548,257.035,214.759,258.771,217.043L258.771,217.043z"/>
	</g>
</g>
</svg>
