<?xml version="1.0" encoding="utf-8"?>
<!-- Generator: Adobe Illustrator 16.0.0, SVG Export Plug-In . SVG Version: 6.00 Build 0)  -->
<!DOCTYPE svg PUBLIC "-//W3C//DTD SVG 1.1//EN" "http://www.w3.org/Graphics/SVG/1.1/DTD/svg11.dtd">
<svg version="1.1" id="Layer_1" xmlns="http://www.w3.org/2000/svg" xmlns:xlink="http://www.w3.org/1999/xlink" x="0px" y="0px"
	 width="841.89px" height="595.28px" viewBox="0 0 841.89 595.28" enable-background="new 0 0 841.89 595.28" xml:space="preserve">
<path fill="#FBBF4F" d="M471.221,333.166c-2.709,2.141-31.688,15.677-64.833,17.309c-33.144,1.633-69.934-11.057-71.488-17.309
	c-3.318-13.326-6.047-148.941,0-168.378c4.209-13.53,30.982-52.428,71.519-49.366c0,0,53.704,10.9,60.64,59.868
	C473.986,224.21,476.667,328.858,471.221,333.166z"/>
<g>
	<g>
		<path fill="#FBBF4F" d="M461.084,220.619c0.169,1.047,1.153,2.221,1.711,3.054c3.358,5.016,7.185,9.742,10.923,14.474
			c9.361,11.845,18.057,26.764,35.221,23.381c12.114-2.388,22.284-11.293,32.694-17.358c4.112-2.396,8.795-4.917,13.701-4.585
			c5.909,0.399,8.524,7.909,9.939,12.55c0.909,2.98,5.588,1.709,4.674-1.289c-3.269-10.716-10.104-18.917-22.034-14.997
			c-11.479,3.771-20.835,12.619-31.601,17.922c-5.014,2.47-10.775,4.32-16.39,3.165c-8.742-1.8-14.221-11.544-19.336-17.901
			c-4.434-5.512-8.879-11.046-12.943-16.84c-0.634-0.904-1.26-1.819-1.81-2.777c-0.356-0.618-0.135-0.447-0.076-0.086
			C465.262,216.251,460.592,217.563,461.084,220.619L461.084,220.619z"/>
	</g>
</g>
<g>
	<g>
		<path fill="#FBBF4F" d="M433.227,332.354c-2.941,15.838-5.884,31.675-8.825,47.513c-0.598,3.217-2.94,8.996-1.744,12.305
			c3.145,8.697,17.38,6.133,23.905,4.952c3.072-0.556,1.767-5.227-1.289-4.674c-5.042,0.912-11.779,2.235-16.595-0.372
			c-0.682-0.369-1.159-0.883-1.501-1.562c-0.177-0.352-0.001,0.855,0.01,0.8c1.044-5.623,2.089-11.246,3.134-16.87
			c2.526-13.601,5.053-27.202,7.579-40.803C438.468,330.589,433.797,329.284,433.227,332.354L433.227,332.354z"/>
	</g>
</g>
<ellipse fill="#FFFFFF" cx="434.508" cy="222.318" rx="22.333" ry="11.941"/>
<ellipse fill="#FFFFFF" cx="365.729" cy="222.529" rx="22.332" ry="11.942"/>
<g>
	<path fill="#E5A53B" d="M348.501,184.877c1.477-1.264,3.068-2.371,4.696-3.447c1.642-1.053,3.355-2.009,5.161-2.82
		c1.795-0.806,3.65-1.749,5.742-1.846c1.033-0.066,2.095,0.002,3.125,0.257c1.023,0.253,2.031,0.7,2.799,1.431l-0.102,0.258
		c-2.018,0.047-3.682,0.378-5.43,0.796c-1.71,0.452-3.555,0.622-5.347,1.175c-1.781,0.556-3.551,1.229-5.301,1.974
		c-1.761,0.726-3.482,1.567-5.188,2.45L348.501,184.877z"/>
</g>
<g>
	<g>
		<path fill="#FFFFFF" d="M428.147,265.059c0.315,0.29,0.625,0.587,0.93,0.888c0.237,0.233,0.469,0.472,0.693,0.717
			c0.04,0.045,0.246,0.289,0.193,0.221c0.135,0.177,0.101,0.331,0.049-0.089c0.049,0.394,0.293,0.727,0.727,0.727
			c0.359,0,0.776-0.332,0.727-0.727c-0.084-0.68-0.686-1.194-1.143-1.66c-0.373-0.378-0.757-0.745-1.148-1.104
			C428.485,263.398,427.455,264.424,428.147,265.059L428.147,265.059z"/>
	</g>
</g>
<g>
	<g>
		<path fill="#FFFFFF" d="M367.036,266.53c0.29-0.315,0.587-0.625,0.887-0.93c0.233-0.237,0.472-0.47,0.718-0.693
			c0.044-0.04,0.288-0.246,0.221-0.193c0.177-0.135,0.331-0.101-0.089-0.048c0.394-0.049,0.727-0.294,0.727-0.728
			c0-0.359-0.332-0.776-0.727-0.728c-0.68,0.085-1.195,0.687-1.66,1.144c-0.378,0.372-0.745,0.757-1.104,1.148
			C365.376,266.192,366.401,267.224,367.036,266.53L367.036,266.53z"/>
	</g>
</g>
<g>
	<path fill="#E5A53B" d="M451.45,185.855c-1.706-0.883-3.428-1.725-5.188-2.45c-1.75-0.745-3.521-1.418-5.301-1.974
		c-1.792-0.553-3.637-0.723-5.347-1.176c-1.748-0.418-3.412-0.75-5.43-0.797l-0.102-0.258c0.768-0.73,1.775-1.178,2.8-1.43
		c1.03-0.255,2.091-0.324,3.124-0.258c2.093,0.098,3.947,1.042,5.742,1.848c1.806,0.812,3.52,1.768,5.161,2.82
		c1.627,1.076,3.22,2.184,4.696,3.446L451.45,185.855z"/>
</g>
<g>
	<path fill="#EB6749" d="M408.079,290.748c2.592,4.615,8.958,5.955,14.234,2.994c5.275-2.963,7.451-9.094,4.857-13.712l-1.14-1.69
		C426.031,278.34,411.684,291.373,408.079,290.748z"/>
</g>
<g>
	<path fill="#644F43" d="M394.538,106.896c-0.039-0.579,0.007-1.186,0.213-1.769c0.211-0.579,0.596-1.118,1.109-1.519
		c1.038-0.813,2.494-0.986,3.785-0.596c1.297,0.383,2.468,1.5,2.852,2.915c0.408,1.413,0.08,2.833-0.396,4.026
		c-0.07,0.162-0.11,0.271-0.211,0.475c-0.068,0.133-0.113,0.242-0.226,0.426c-0.2,0.348-0.393,0.598-0.611,0.877
		c-0.439,0.527-0.938,0.964-1.437,1.357c-1.005,0.779-2.032,1.383-2.983,1.997c-0.949,0.61-1.855,1.192-2.566,1.882
		c-0.354,0.342-0.66,0.703-0.908,1.087c-0.104,0.158-0.292,0.479-0.418,0.695c-0.127,0.228-0.256,0.454-0.379,0.697
		c-1.029,1.88-1.701,3.933-1.555,5.873c0.054,0.969,0.334,1.9,0.818,2.747c0.49,0.84,1.174,1.602,1.982,2.259
		c1.641,1.296,3.727,2.171,5.898,2.712c2.18,0.572,4.473,0.793,6.803,0.861c-2.271,0.543-4.652,0.699-7.036,0.479
		c-2.37-0.259-4.794-0.887-6.929-2.299c-1.064-0.696-2.051-1.603-2.781-2.732c-0.734-1.121-1.216-2.44-1.367-3.778
		c-0.283-2.711,0.594-5.245,1.722-7.421c0.144-0.271,0.306-0.545,0.466-0.818c0.172-0.279,0.277-0.459,0.493-0.782
		c0.392-0.581,0.852-1.097,1.339-1.55c0.982-0.896,2.039-1.57,3.069-2.152c2.053-1.157,4.034-2.113,4.857-3.785
		c0.471-0.894,0.724-1.854,0.596-2.719c-0.112-0.866-0.7-1.648-1.577-2.064c-0.859-0.438-1.969-0.49-2.885-0.027
		C395.344,104.697,394.72,105.746,394.538,106.896z"/>
</g>
<g>
	<g>
		<path fill="#FFFFFF" d="M427.485,264.545c-0.924,33.018-56.889,33.018-57.813,0c-0.038-1.337-2.115-1.34-2.078,0
			c0.464,16.573,15.408,26.906,30.982,27.24c15.573,0.333,30.535-11.153,30.984-27.24
			C429.6,263.205,427.522,263.208,427.485,264.545L427.485,264.545z"/>
	</g>
</g>
<g>
	<path fill="#E5A53B" d="M433.659,267.203c1.501-1.428,1.398-3.973-0.233-5.691c-1.634-1.718-4.168-1.952-5.673-0.524
		C427.753,260.987,433.581,262.58,433.659,267.203z"/>
</g>
<g>
	<path fill="#E5A53B" d="M363.103,267.117c-1.434-1.497-1.211-4.034,0.5-5.674c1.713-1.641,4.256-1.756,5.692-0.26
		C369.295,261.184,363.398,262.504,363.103,267.117z"/>
</g>
<path fill="#1E1E1C" d="M443.369,222.254c0,5.51-4.8,9.977-10.718,9.977c-5.92,0-11.544-4.467-11.544-9.977
	c0-5.512,5.624-9.55,11.544-9.55C438.569,212.704,443.369,216.742,443.369,222.254z"/>
<path fill="#FFFFFF" d="M443.369,223.588c0,0.549-0.563,0.995-1.253,0.995c-0.692,0-1.256-0.446-1.256-0.995
	c0-0.551,0.563-0.996,1.256-0.996C442.806,222.592,443.369,223.037,443.369,223.588z"/>
<path opacity="0.65" fill="#FFFFFF" d="M432.237,229.836c0,0,2.061,1.143,5.36,0C437.598,229.836,434.848,232.766,432.237,229.836z"
	/>
<path fill="#1E1E1C" d="M380.409,222.378c0,5.511-4.799,9.978-10.719,9.978s-11.543-4.467-11.543-9.978s5.623-9.55,11.543-9.55
	S380.409,216.867,380.409,222.378z"/>
<path opacity="0.65" fill="#FFFFFF" d="M369.484,229.961c0,0,2.062,1.143,5.36,0C374.845,229.961,372.096,232.891,369.484,229.961z"
	/>
<ellipse fill="#FFFFFF" cx="379.155" cy="222.592" rx="1.254" ry="0.996"/>
<g>
	<g>
		<path fill="#FBBF4F" d="M255.69,261.175c5.857,7.704,13.453,15.621,22.729,18.949c9.726,3.489,17.968-4.546,20.158-13.334
			c2.2-8.826,0.81-18.126,3.954-26.748c2.157-5.915,6.943-10.316,12.537-12.922c9.353-4.355,22.067,11.357,26.408,17.085
			c1.709,2.254,5.573,0.043,3.84-2.244c-5.847-7.714-13.389-15.724-22.649-19.11c-10.73-3.924-20.78,7.233-24.424,16.009
			c-4.918,11.849,1.497,29.748-11.756,36.866c-9.327,5.01-22.628-11.1-26.958-16.795C257.819,256.68,253.954,258.891,255.69,261.175
			L255.69,261.175z"/>
	</g>
</g>
<g>
	<g>
		<path fill="#FBBF4F" d="M394.016,340.612c-6.159,6.855-10.842,15.363-13.422,24.185c-2.114,7.231-1.031,14.161-0.518,21.514
			c0.139,1.974,0.198,3.964,0.032,5.937c-0.131,1.549,1.603-0.6,2.597,0.395c-1.044-1.044-2.725-0.751-3.492,0.45
			c0.203-0.317-1.034,0.533-2.143,0.579c-4.938,0.205-10.077-3.93-13.79-6.648c-2.317-1.697-4.532,2.164-2.244,3.84
			c4.364,3.195,17.142,12.105,22.017,4.474c-1.164,0.15-2.328,0.3-3.492,0.45c1.229,1.229,3.34,0.961,4.214-0.557
			c2.038-3.538,0.746-9.455,0.396-13.179c-0.932-9.921,0.487-18.103,5.202-26.957c2.135-4.009,4.744-7.95,7.787-11.337
			C399.07,341.63,395.936,338.475,394.016,340.612L394.016,340.612z"/>
	</g>
</g>
</svg>
