<?xml version="1.0" encoding="utf-8"?>
<!-- Generator: Adobe Illustrator 16.0.0, SVG Export Plug-In . SVG Version: 6.00 Build 0)  -->
<!DOCTYPE svg PUBLIC "-//W3C//DTD SVG 1.1//EN" "http://www.w3.org/Graphics/SVG/1.1/DTD/svg11.dtd">
<svg version="1.1" id="Layer_1" xmlns="http://www.w3.org/2000/svg" xmlns:xlink="http://www.w3.org/1999/xlink" x="0px" y="0px"
	 width="841.889px" height="595.28px" viewBox="0 0 841.889 595.28" enable-background="new 0 0 841.889 595.28"
	 xml:space="preserve">
<path fill="#FBBF4F" d="M456.914,374.337c-2.648,2.093-30.99,15.332-63.404,16.929c-32.416,1.597-68.396-10.813-69.917-16.929
	c-3.244-13.033-5.914-145.665,0-164.673c4.118-13.233,30.303-51.274,69.945-48.281c0,0,52.522,10.662,59.306,58.552
	C459.62,267.778,462.242,370.125,456.914,374.337z"/>
<g>
	<g>
		<path fill="#FBBF4F" d="M325.466,282.889c-6.53-2.967-13.226-5.614-20.005-7.954c-7.089-2.446-18.682-7.289-25.532-2.063
			c-4.604,3.513-7.347,9.28-9.738,14.394c-1.854,3.963-3.108,10.254-6.927,12.833c-6.83,4.613-18.979,2.278-26.493,0.527
			c-2.974-0.693-4.236,3.877-1.26,4.57c7.841,1.828,16.331,2.681,24.28,1.201c10.766-2.004,12.303-12.769,16.669-21.156
			c2.088-4.011,5.017-9.698,10.106-9.821c4.902-0.119,10.001,1.641,14.617,3.09c7.45,2.337,14.781,5.242,21.89,8.473
			C325.834,288.236,328.245,284.152,325.466,282.889L325.466,282.889z"/>
	</g>
</g>
<g>
	<g>
		<path fill="#FBBF4F" d="M447.003,264.267c1.396,6.312,4.054,12.428,6.727,18.277c2.968,6.494,6.512,12.711,10.349,18.727
			c2.541,3.986,5.313,7.82,8.173,11.582c1.794,2.359,3.547,5.181,6.027,6.899c7.034,4.875,16.681,0.815,23.822-1.696
			c7.452-2.621,19.256-7.925,22.65,2.611c0.933,2.897,5.511,1.658,4.57-1.26c-6.747-20.944-31.042-1.416-44.656-2.212
			c-1.766-0.104-3.337-0.915-4.589-2.12c-3.52-3.39-6.29-7.951-9.076-11.954c-4.585-6.583-8.61-13.555-12.133-20.76
			c-2.988-6.112-5.816-12.673-7.294-19.354C450.914,260.022,446.344,261.288,447.003,264.267L447.003,264.267z"/>
	</g>
</g>
<g>
	<g>
		<path fill="#FBBF4F" d="M373.168,377.713c-2.701,13.032-5.403,26.064-8.104,39.097c-1.169,5.64-2.339,11.28-3.508,16.92
			c-0.145,0.699,0.207-0.249,0.223-0.267c-0.442,0.529-1.047,0.705-1.707,0.874c-5.124,1.312-11.708-3.423-15.662-5.938
			c-2.588-1.646-4.964,2.459-2.393,4.094c5.382,3.422,17.07,10.734,23.113,4.321c2.457-2.607,2.427-8.725,3.102-11.979
			c3.169-15.287,6.338-30.575,9.507-45.862C378.357,375.99,373.788,374.721,373.168,377.713L373.168,377.713z"/>
	</g>
</g>
<g>
	<g>
		<path fill="#FBBF4F" d="M408.318,378.823c2.977,15.053,5.952,30.105,8.929,45.159c0.698,3.531,0.631,9.708,3.039,12.646
			c5.628,6.865,18.1-0.77,23.271-3.991c2.588-1.612,0.21-5.715-2.393-4.094c-4.482,2.793-9.729,6.137-15.236,5.861
			c-0.72-0.036-1.508-0.331-2.023-0.823c-0.366-0.349,0.158,0.499,0.11,0.252c-1.068-5.4-2.137-10.801-3.204-16.202
			c-2.641-13.355-5.282-26.712-7.923-40.067C412.297,374.566,407.728,375.838,408.318,378.823L408.318,378.823z"/>
	</g>
</g>
<ellipse fill="#FFFFFF" cx="421.011" cy="257.021" rx="21.841" ry="20.431"/>
<ellipse fill="#FFFFFF" cx="353.745" cy="257.383" rx="21.841" ry="20.433"/>
<g>
	<path fill="#E5A53B" d="M336.895,229.311c1.445-1.235,3.002-2.318,4.594-3.371c1.605-1.029,3.281-1.964,5.048-2.759
		c1.754-0.787,3.568-1.71,5.614-1.806c1.011-0.064,2.049,0.003,3.057,0.252c1.001,0.246,1.986,0.684,2.737,1.398l-0.1,0.252
		c-1.973,0.046-3.6,0.37-5.31,0.779c-1.673,0.442-3.477,0.609-5.229,1.149c-1.742,0.544-3.473,1.202-5.185,1.931
		c-1.723,0.709-3.405,1.533-5.073,2.396L336.895,229.311z"/>
</g>
<g>
	<g>
		<path fill="#FFFFFF" d="M414.789,307.729c0.296,0.271,0.586,0.549,0.871,0.829c0.238,0.234,0.473,0.473,0.697,0.72
			c0.045,0.048,0.239,0.275,0.202,0.228c0.133,0.173,0.105,0.333,0.054-0.078c0.049,0.385,0.286,0.711,0.711,0.711
			c0.351,0,0.76-0.325,0.711-0.711c-0.082-0.65-0.642-1.138-1.08-1.585c-0.375-0.384-0.765-0.756-1.16-1.119
			C415.12,306.105,414.112,307.108,414.789,307.729L414.789,307.729z"/>
	</g>
</g>
<g>
	<g>
		<path fill="#FFFFFF" d="M355.023,309.169c0.271-0.296,0.549-0.585,0.829-0.871c0.234-0.238,0.473-0.473,0.719-0.698
			c0.048-0.043,0.276-0.238,0.228-0.201c0.173-0.133,0.333-0.105-0.078-0.054c0.385-0.049,0.711-0.286,0.711-0.711
			c0-0.351-0.325-0.76-0.711-0.711c-0.65,0.083-1.137,0.642-1.584,1.079c-0.384,0.376-0.756,0.766-1.119,1.161
			C353.399,308.838,354.402,309.846,355.023,309.169L355.023,309.169z"/>
	</g>
</g>
<g>
	<path fill="#E5A53B" d="M437.579,230.268c-1.668-0.863-3.351-1.688-5.073-2.396c-1.712-0.728-3.443-1.387-5.185-1.93
		c-1.753-0.541-3.557-0.707-5.229-1.15c-1.71-0.409-3.337-0.733-5.31-0.779l-0.1-0.252c0.751-0.715,1.736-1.152,2.738-1.398
		c1.007-0.249,2.045-0.316,3.056-0.252c2.046,0.096,3.86,1.019,5.615,1.807c1.766,0.794,3.442,1.729,5.048,2.758
		c1.591,1.054,3.148,2.136,4.594,3.371L437.579,230.268z"/>
</g>
<g>
	<path fill="#EB6749" d="M397.975,330.291c3.044,4.187,9.382,4.762,14.168,1.282c4.787-3.479,6.198-9.683,3.153-13.872l-1.3-1.512
		C413.996,316.189,401.547,330.486,397.975,330.291z"/>
</g>
<g>
	<path fill="#644F43" d="M381.92,153.047c-0.037-0.565,0.007-1.159,0.208-1.729c0.206-0.565,0.582-1.093,1.085-1.484
		c1.015-0.796,2.439-0.967,3.701-0.585c1.269,0.375,2.414,1.467,2.79,2.851c0.4,1.382,0.08,2.771-0.386,3.938
		c-0.069,0.158-0.108,0.265-0.207,0.464c-0.066,0.131-0.111,0.238-0.221,0.417c-0.195,0.34-0.383,0.584-0.598,0.856
		c-0.43,0.517-0.918,0.943-1.405,1.329c-0.981,0.761-1.987,1.353-2.919,1.952c-0.928,0.598-1.814,1.167-2.51,1.84
		c-0.346,0.335-0.646,0.688-0.888,1.063c-0.102,0.154-0.286,0.468-0.409,0.68l-0.371,0.683c-1.007,1.839-1.663,3.846-1.521,5.744
		c0.084,1.909,1.147,3.615,2.74,4.896c1.604,1.268,3.645,2.123,5.769,2.652c2.132,0.56,4.374,0.775,6.653,0.843
		c-2.222,0.53-4.55,0.685-6.882,0.467c-2.317-0.252-4.688-0.867-6.777-2.248c-1.041-0.681-2.005-1.567-2.719-2.673
		c-0.72-1.096-1.189-2.387-1.337-3.695c-0.277-2.651,0.581-5.129,1.685-7.258c0.141-0.265,0.299-0.533,0.456-0.801
		c0.168-0.272,0.271-0.448,0.482-0.765c0.383-0.569,0.832-1.073,1.309-1.515c0.962-0.877,1.996-1.536,3.003-2.105
		c2.007-1.132,3.945-2.068,4.751-3.701c0.46-0.875,0.708-1.813,0.582-2.66c-0.109-0.847-0.686-1.611-1.543-2.02
		c-0.841-0.427-1.927-0.478-2.822-0.025C382.707,150.896,382.098,151.922,381.92,153.047z"/>
</g>
<g>
	<g>
		<path fill="#FFFFFF" d="M414.143,307.227c-0.903,32.289-55.638,32.29-56.541,0c-0.036-1.308-2.068-1.311-2.031,0
			c0.453,16.209,15.069,26.313,30.301,26.639c15.23,0.326,29.862-10.906,30.303-26.639
			C416.211,305.916,414.179,305.919,414.143,307.227L414.143,307.227z"/>
	</g>
</g>
<g>
	<path fill="#E5A53B" d="M420.18,309.825c1.469-1.395,1.369-3.885-0.228-5.565c-1.598-1.68-4.077-1.909-5.548-0.514
		C414.404,303.746,420.104,305.306,420.18,309.825z"/>
</g>
<g>
	<path fill="#E5A53B" d="M351.177,309.742c-1.402-1.464-1.185-3.945,0.489-5.551c1.674-1.604,4.162-1.716,5.566-0.252
		C357.232,303.939,351.466,305.23,351.177,309.742z"/>
</g>
<path fill="#1E1E1C" d="M429.678,256.91c0,9.427-4.694,17.07-10.483,17.07c-5.79,0-11.29-7.644-11.29-17.07
	c0-9.428,5.5-16.337,11.29-16.337C424.983,240.573,429.678,247.482,429.678,256.91z"/>
<path fill="#FFFFFF" d="M429.678,259.194c0,0.938-0.551,1.7-1.227,1.7c-0.678,0-1.228-0.762-1.228-1.7
	c0-0.943,0.55-1.705,1.228-1.705C429.127,257.489,429.678,258.251,429.678,259.194z"/>
<path opacity="0.65" fill="#FFFFFF" d="M418.791,269.883c0,0,2.014,1.957,5.242,0C424.033,269.883,421.344,274.896,418.791,269.883z
	"/>
<path fill="#1E1E1C" d="M368.102,257.122c0,9.43-4.692,17.072-10.482,17.072s-11.289-7.643-11.289-17.072
	c0-9.427,5.499-16.337,11.289-16.337S368.102,247.695,368.102,257.122z"/>
<path opacity="0.65" fill="#FFFFFF" d="M357.417,270.095c0,0,2.017,1.957,5.243,0C362.66,270.095,359.972,275.108,357.417,270.095z"
	/>
<ellipse fill="#FFFFFF" cx="366.875" cy="257.489" rx="1.226" ry="1.702"/>
</svg>
