<?xml version="1.0" encoding="utf-8"?>
<!-- Generator: Adobe Illustrator 16.0.0, SVG Export Plug-In . SVG Version: 6.00 Build 0)  -->
<!DOCTYPE svg PUBLIC "-//W3C//DTD SVG 1.1//EN" "http://www.w3.org/Graphics/SVG/1.1/DTD/svg11.dtd">
<svg version="1.1" id="Layer_1" xmlns="http://www.w3.org/2000/svg" xmlns:xlink="http://www.w3.org/1999/xlink" x="0px" y="0px"
	 width="841.891px" height="595.28px" viewBox="0 0 841.891 595.28" enable-background="new 0 0 841.891 595.28"
	 xml:space="preserve">
<path fill="#FBBF4F" d="M498.414,387.642c-2.605,2.061-30.494,15.089-62.39,16.657c-31.897,1.572-67.301-10.641-68.798-16.657
	c-3.192-12.822-5.82-143.333,0-162.037c4.052-13.021,29.818-50.454,68.826-47.509c0,0,51.682,10.489,58.356,57.615
	C501.078,282.789,503.656,383.497,498.414,387.642z"/>
<g>
	<g>
		<path fill="#FBBF4F" d="M367.893,297.34c-6.922-0.108-13.886-0.705-20.721-1.789c-4.619-0.732-9.387-1.711-13.647-3.695
			c-4.623-2.152-4.64-6.531-8.005-9.929c-6.527-6.588-19.436-5.489-26.818-1.604c-7.366,3.875-13.934,10.279-19.178,16.683
			c-1.89,2.307,1.391,5.627,3.297,3.299c5.089-6.213,11.238-11.983,18.234-15.954c4.92-2.793,9.363-2.615,14.725-1.742
			c2.764,0.45,5.225,1.39,7.221,3.403c1.709,1.725,1.744,4.479,3.35,6.33c5.162,5.954,15.256,7.123,22.543,8.151
			c6.28,0.887,12.656,1.412,19,1.512C370.902,302.051,370.897,297.387,367.893,297.34L367.893,297.34z"/>
	</g>
</g>
<g>
	<g>
		<path fill="#FBBF4F" d="M488.578,278.712c-0.115,3.622,1.699,7.493,3.094,10.708c4.875,11.238,12.738,22.658,21.166,31.484
			c13.969,14.629,45.262,10.175,52.329,32.231c0.914,2.853,5.419,1.633,4.498-1.24c-6.669-20.813-33.013-21.682-49.233-31.054
			c-5.893-3.404-9.738-9.749-13.625-15.121c-3.588-4.96-6.883-10.152-9.666-15.607c-1.66-3.256-4.004-8.088-3.898-11.401
			C493.338,275.702,488.674,275.712,488.578,278.712L488.578,278.712z"/>
	</g>
</g>
<g>
	<g>
		<path fill="#FBBF4F" d="M448.184,393.61c4.29,14.598,8.58,29.195,12.869,43.793c0.977,3.321,1.469,9.362,4.045,11.979
			c6.1,6.199,17.544-2.26,22.299-5.857c2.365-1.79,0.045-5.844-2.355-4.027c-4.07,3.081-9.025,6.987-14.374,7.206
			c-0.665,0.026-1.755-0.191-2.11-0.475c-0.895-0.709,0.098,0.496,0.036,0.287c-1.501-5.11-3.003-10.221-4.505-15.332
			c-3.803-12.938-7.604-25.875-11.406-38.813C451.836,389.491,447.334,390.718,448.184,393.61L448.184,393.61z"/>
	</g>
</g>
<circle fill="#FFFFFF" cx="463.086" cy="270.792" r="21.492"/>
<path fill="#1E1E1C" d="M471.268,270.788c0,9.915-4.617,17.954-10.314,17.954s-11.108-8.039-11.108-17.954
	c0-9.918,5.411-17.185,11.108-17.185S471.268,260.87,471.268,270.788z"/>
<ellipse fill="#FFFFFF" cx="470.061" cy="273.188" rx="1.207" ry="1.791"/>
<path opacity="0.65" fill="#FFFFFF" d="M460.555,284.434c0,0,1.983,2.058,5.158,0C465.713,284.434,463.066,289.705,460.555,284.434z
	"/>
<circle fill="#FFFFFF" cx="396.896" cy="271.173" r="21.491"/>
<path fill="#1E1E1C" d="M410.678,271.011c0,9.918-4.617,17.957-10.314,17.957s-11.109-8.039-11.109-17.957
	c0-9.917,5.412-17.184,11.109-17.184S410.678,261.094,410.678,271.011z"/>
<path opacity="0.65" fill="#FFFFFF" d="M400.164,284.657c0,0,1.983,2.057,5.159,0C405.323,284.657,402.678,289.929,400.164,284.657z
	"/>
<g>
	<path fill="#E5A53B" d="M380.314,244.935c1.422-1.216,2.955-2.28,4.521-3.316c1.579-1.013,3.229-1.933,4.967-2.714
		c1.727-0.775,3.512-1.683,5.525-1.776c0.995-0.063,2.016,0.003,3.008,0.247c0.984,0.243,1.955,0.674,2.693,1.377L400.932,239
		c-1.941,0.045-3.543,0.364-5.226,0.767c-1.646,0.436-3.421,0.599-5.146,1.131c-1.714,0.534-3.417,1.182-5.102,1.898
		c-1.695,0.697-3.352,1.508-4.992,2.357L380.314,244.935z"/>
</g>
<g>
	<g>
		<path fill="#FFFFFF" d="M456.963,322.101c0.302,0.276,0.598,0.561,0.891,0.848c0.217,0.213,0.429,0.431,0.635,0.654
			c0.096,0.104,0.188,0.211,0.277,0.321c-0.039-0.049-0.036-0.043,0.008,0.017c0.09,0.132,0.033,0.192-0.014-0.17
			c0.049,0.378,0.281,0.699,0.699,0.699c0.344,0,0.749-0.32,0.699-0.699c-0.084-0.653-0.654-1.145-1.096-1.593
			c-0.36-0.365-0.732-0.721-1.111-1.067C457.287,320.503,456.295,321.489,456.963,322.101L456.963,322.101z"/>
	</g>
</g>
<g>
	<g>
		<path fill="#FFFFFF" d="M398.154,323.516c0.277-0.303,0.561-0.599,0.848-0.891c0.213-0.216,0.431-0.428,0.654-0.633
			c0.104-0.097,0.211-0.188,0.32-0.277c-0.047,0.038-0.043,0.036,0.018-0.007c0.133-0.091,0.191-0.034-0.17,0.013
			c0.378-0.049,0.699-0.28,0.699-0.699c0-0.344-0.32-0.749-0.699-0.699c-0.652,0.084-1.145,0.654-1.592,1.095
			c-0.366,0.359-0.721,0.73-1.068,1.108C396.555,323.189,397.543,324.182,398.154,323.516L398.154,323.516z"/>
	</g>
</g>
<g>
	<path fill="#E5A53B" d="M479.389,245.877c-1.641-0.85-3.297-1.66-4.992-2.358c-1.685-0.716-3.388-1.364-5.102-1.898
		c-1.725-0.532-3.5-0.695-5.146-1.132c-1.683-0.402-3.284-0.722-5.226-0.768l-0.098-0.248c0.739-0.703,1.709-1.133,2.694-1.376
		c0.991-0.244,2.013-0.311,3.007-0.247c2.014,0.095,3.799,1.003,5.525,1.777c1.738,0.781,3.388,1.702,4.967,2.715
		c1.566,1.035,3.1,2.101,4.521,3.316L479.389,245.877z"/>
</g>
<g>
	<path fill="#EB6749" d="M440.419,344.3c2.995,4.122,9.231,4.686,13.94,1.263c4.711-3.424,6.1-9.529,3.102-13.65l-1.277-1.487
		C456.184,330.425,443.932,344.492,440.419,344.3z"/>
</g>
<g>
	<path fill="#644F43" d="M424.619,169.892c-0.037-0.557,0.007-1.141,0.205-1.701c0.203-0.558,0.573-1.076,1.068-1.461
		c0.998-0.783,2.4-0.95,3.643-0.574c1.248,0.368,2.375,1.442,2.745,2.804c0.394,1.36,0.079,2.727-0.38,3.875
		c-0.067,0.157-0.105,0.26-0.203,0.458c-0.066,0.129-0.109,0.234-0.218,0.41c-0.192,0.334-0.378,0.574-0.589,0.843
		c-0.422,0.507-0.902,0.927-1.382,1.307c-0.967,0.749-1.956,1.33-2.872,1.921c-0.913,0.588-1.785,1.148-2.469,1.811
		c-0.341,0.33-0.635,0.678-0.873,1.048c-0.102,0.151-0.282,0.46-0.404,0.668l-0.365,0.671c-0.99,1.81-1.637,3.784-1.496,5.652
		c0.082,1.878,1.129,3.558,2.696,4.817c1.579,1.248,3.587,2.089,5.677,2.609c2.098,0.552,4.305,0.764,6.547,0.83
		c-2.187,0.521-4.477,0.673-6.771,0.459c-2.281-0.248-4.613-0.853-6.669-2.212c-1.024-0.67-1.974-1.541-2.676-2.629
		c-0.708-1.078-1.171-2.349-1.315-3.637c-0.273-2.608,0.57-5.047,1.656-7.142c0.139-0.26,0.295-0.524,0.449-0.787
		c0.166-0.269,0.268-0.441,0.475-0.753c0.377-0.56,0.819-1.056,1.288-1.49c0.946-0.863,1.963-1.512,2.954-2.072
		c1.975-1.114,3.883-2.036,4.676-3.642c0.453-0.86,0.695-1.784,0.572-2.617c-0.107-0.834-0.675-1.586-1.52-1.986
		c-0.826-0.42-1.895-0.471-2.775-0.025C425.395,167.776,424.794,168.785,424.619,169.892z"/>
</g>
<ellipse fill="#FFFFFF" cx="409.472" cy="271.396" rx="1.206" ry="1.792"/>
<g>
	<g>
		<path fill="#FFFFFF" d="M456.326,321.605c-0.916,31.777-54.719,31.777-55.635,0c-0.037-1.286-2.037-1.29-2,0
			c0.461,15.957,14.816,25.883,29.816,26.215c14.998,0.331,29.371-10.741,29.818-26.215
			C458.363,320.315,456.363,320.319,456.326,321.605L456.326,321.605z"/>
	</g>
</g>
<g>
	<path fill="#E5A53B" d="M462.268,324.164c1.447-1.375,1.346-3.825-0.223-5.479c-1.574-1.653-4.014-1.879-5.461-0.504
		C456.584,318.182,462.193,319.714,462.268,324.164z"/>
</g>
<g>
	<path fill="#E5A53B" d="M394.369,324.08c-1.381-1.44-1.166-3.883,0.481-5.46s4.095-1.69,5.476-0.25
		C400.326,318.37,394.654,319.641,394.369,324.08z"/>
</g>
<g>
	<g>
		<path fill="#FBBF4F" d="M412.777,397.818c-6.304,7.012-11.107,15.678-13.878,24.66c-2.392,7.753-1.327,15.143-0.758,23.057
			c0.153,2.133,0.35,4.43,0.03,6.559c-0.25,1.672,1.461-0.984,2.74,0.299c-1.092-1.095-2.861-0.788-3.662,0.473
			c0.1-0.156-1.123,0.562-2.227,0.607c-5.186,0.215-10.59-4.115-14.486-6.974c-2.43-1.782-4.752,2.269-2.354,4.027
			c4.561,3.346,17.998,12.706,23.094,4.692c-1.221,0.158-2.441,0.315-3.662,0.473c1.309,1.312,3.395,0.979,4.383-0.533
			c2.307-3.533,0.796-10.233,0.439-13.988c-0.98-10.354,0.555-18.954,5.485-28.191c2.238-4.193,4.966-8.318,8.151-11.861
			C418.08,398.887,414.791,395.577,412.777,397.818L412.777,397.818z"/>
	</g>
</g>
</svg>
