<?xml version="1.0" encoding="utf-8"?>
<!-- Generator: Adobe Illustrator 16.0.0, SVG Export Plug-In . SVG Version: 6.00 Build 0)  -->
<!DOCTYPE svg PUBLIC "-//W3C//DTD SVG 1.1//EN" "http://www.w3.org/Graphics/SVG/1.1/DTD/svg11.dtd">
<svg version="1.1" id="Layer_1" xmlns="http://www.w3.org/2000/svg" xmlns:xlink="http://www.w3.org/1999/xlink" x="0px" y="0px"
	 width="841.89px" height="595.28px" viewBox="0 0 841.89 595.28" enable-background="new 0 0 841.89 595.28" xml:space="preserve">
<path fill="#FBBF4F" d="M497.39,399.249c-2.595,2.05-30.351,15.017-62.097,16.579c-31.747,1.564-66.983-10.59-68.475-16.579
	c-3.176-12.763-5.793-142.66,0-161.276c4.033-12.96,29.678-50.217,68.504-47.284c0,0,51.438,10.44,58.081,57.343
	C500.04,294.889,502.607,395.124,497.39,399.249z"/>
<g>
	<g>
		<path fill="#FBBF4F" d="M365.84,310.05c-6.674,5.247-18.182,11.858-27.633,9.097c-5.768-1.686-7.607-10.979-9.047-15.888
			c-1.889-6.449-3.066-13.105-5.131-19.501c-3.15-9.755-16.327-9.9-24.113-6.344c-7.988,3.649-15.01,10.871-20.387,17.693
			c-1.832,2.324,1.43,5.633,3.281,3.283c5.463-6.93,12.531-14.195,20.809-17.56c3.893-1.583,12.24-1.534,14.977,2.248
			c1.897,2.621,2.375,6.894,3.141,10.006c0.832,3.384,1.666,6.765,2.586,10.126c2.969,10.854,6.681,21.805,19.799,21.223
			c8.977-0.397,18.08-5.66,25.002-11.101C371.475,311.483,368.166,308.222,365.84,310.05L365.84,310.05z"/>
	</g>
</g>
<g>
	<g>
		<path fill="#FBBF4F" d="M488.748,292.837c-1.037-0.781,0.598,0.593,0.85,0.835c1.584,1.525,3.081,3.144,4.57,4.761
			c7.947,8.625,15.18,17.851,22.843,26.721c7.61,8.808,16.657,16.395,24.783,24.718c8.802,9.016,18.194,19.193,22.033,31.467
			c0.891,2.848,5.372,1.631,4.477-1.234c-7.522-24.054-31.14-39.685-47.39-57.535c-8.092-8.889-15.336-18.542-23.463-27.419
			c-1.992-2.176-3.988-4.534-6.359-6.32C488.697,287.025,486.389,291.06,488.748,292.837L488.748,292.837z"/>
	</g>
</g>
<g>
	<g>
		<path fill="#FBBF4F" d="M411.073,401.075c-0.702,12.787-1.406,25.575-2.11,38.362c-0.318,5.788-0.637,11.577-0.955,17.365
			c-0.053,0.994-0.022,0.055,0.201-0.418c-0.188,0.396-0.514,0.644-1.083,0.969c-4.419,2.525-12.273-1.393-16.185-3.122
			c-2.713-1.2-5.076,2.799-2.344,4.008c5.843,2.585,18.23,8.131,23.313,0.977c1.996-2.813,1.093-8.81,1.268-11.985
			c0.846-15.385,1.691-30.771,2.537-46.155C415.881,398.082,411.236,398.099,411.073,401.075L411.073,401.075z"/>
	</g>
</g>
<g>
	<g>
		<path fill="#FBBF4F" d="M453.156,401.294c1.104,15.103,2.205,30.206,3.309,45.309c0.246,3.36-0.562,9.562,1.385,12.576
			c4.829,7.48,17.775,1.461,23.41-1.154c2.713-1.259,0.354-5.26-2.344-4.008c-4.514,2.094-10.604,5.052-15.756,3.596
			c-0.454-0.128-1.23-0.679-1.303-0.777c-0.753-1.021,0.098,1.372,0.021,0.321c-0.404-5.539-0.809-11.078-1.215-16.618
			c-0.955-13.081-1.91-26.163-2.865-39.244C457.582,398.326,452.938,398.306,453.156,401.294L453.156,401.294z"/>
	</g>
</g>
<circle fill="#FFFFFF" cx="462.228" cy="282.947" r="21.39"/>
<path fill="#1E1E1C" d="M468.281,282.943c0,9.871-4.595,17.872-10.266,17.872c-5.67,0-11.055-8.001-11.055-17.872
	c0-9.868,5.385-17.104,11.055-17.104C463.687,265.84,468.281,273.075,468.281,282.943z"/>
<ellipse fill="#FFFFFF" cx="467.081" cy="281.166" rx="1.2" ry="1.781"/>
<path opacity="0.65" fill="#FFFFFF" d="M456.527,296.749c0,0,1.971,2.048,5.135,0C461.662,296.749,459.027,301.996,456.527,296.749z
	"/>
<circle fill="#FFFFFF" cx="396.349" cy="283.329" r="21.39"/>
<path fill="#1E1E1C" d="M412.154,283.167c0,9.87-4.596,17.871-10.266,17.871c-5.672,0-11.059-8.001-11.059-17.871
	s5.387-17.104,11.059-17.104C407.559,266.063,412.154,273.297,412.154,283.167z"/>
<path opacity="0.65" fill="#FFFFFF" d="M401.689,296.749c0,0,1.975,2.048,5.135,0C406.824,296.749,404.191,301.996,401.689,296.749z
	"/>
<g>
	<path fill="#E5A53B" d="M379.847,257.214c1.415-1.209,2.94-2.27,4.499-3.301c1.572-1.008,3.214-1.924,4.943-2.701
		c1.719-0.771,3.496-1.676,5.5-1.769c0.988-0.063,2.006,0.003,2.992,0.246c0.98,0.242,1.945,0.67,2.682,1.37l-0.098,0.246
		c-1.932,0.046-3.525,0.363-5.201,0.764c-1.637,0.434-3.404,0.597-5.121,1.126c-1.705,0.532-3.4,1.177-5.076,1.89
		c-1.688,0.695-3.336,1.502-4.969,2.348L379.847,257.214z"/>
</g>
<g>
	<g>
		<path fill="#FFFFFF" d="M456.133,334.016c0.301,0.276,0.596,0.559,0.887,0.845c0.215,0.212,0.426,0.429,0.631,0.65
			c0.096,0.104,0.188,0.211,0.276,0.32c-0.038-0.048-0.036-0.042,0.007,0.018c0.091,0.131,0.034,0.19-0.013-0.17
			c0.049,0.376,0.28,0.696,0.696,0.696c0.342,0,0.746-0.318,0.695-0.696c-0.084-0.65-0.651-1.139-1.09-1.585
			c-0.359-0.364-0.729-0.718-1.105-1.063C456.457,332.426,455.469,333.408,456.133,334.016L456.133,334.016z"/>
	</g>
</g>
<g>
	<g>
		<path fill="#FFFFFF" d="M397.601,335.425c0.276-0.301,0.559-0.595,0.845-0.886c0.213-0.216,0.429-0.426,0.65-0.631
			c0.104-0.096,0.211-0.188,0.32-0.275c-0.049,0.038-0.043,0.035,0.018-0.008c0.131-0.09,0.191-0.033-0.17,0.014
			c0.377-0.049,0.696-0.279,0.696-0.696c0-0.343-0.319-0.745-0.696-0.696c-0.65,0.084-1.139,0.651-1.585,1.09
			c-0.364,0.358-0.718,0.729-1.063,1.104C396.01,335.101,396.992,336.088,397.601,335.425L397.601,335.425z"/>
	</g>
</g>
<g>
	<path fill="#E5A53B" d="M478.453,258.152c-1.634-0.846-3.282-1.652-4.969-2.348c-1.677-0.713-3.371-1.358-5.078-1.891
		c-1.717-0.529-3.482-0.692-5.121-1.126c-1.674-0.4-3.269-0.718-5.2-0.764l-0.098-0.246c0.735-0.7,1.7-1.128,2.682-1.37
		c0.986-0.243,2.003-0.31,2.993-0.246c2.004,0.094,3.781,0.997,5.5,1.769c1.729,0.778,3.371,1.694,4.943,2.702
		c1.559,1.031,3.083,2.092,4.498,3.301L478.453,258.152z"/>
</g>
<g>
	<path fill="#EB6749" d="M439.667,356.111c2.981,4.101,9.188,4.664,13.876,1.256c4.688-3.406,6.069-9.482,3.086-13.586l-1.271-1.479
		C455.357,342.302,443.164,356.304,439.667,356.111z"/>
</g>
<g>
	<path fill="#644F43" d="M423.941,182.523c-0.037-0.554,0.006-1.135,0.203-1.693c0.203-0.555,0.572-1.07,1.064-1.454
		c0.994-0.779,2.389-0.946,3.625-0.571c1.242,0.366,2.363,1.436,2.732,2.791c0.393,1.354,0.078,2.714-0.377,3.856
		c-0.068,0.156-0.105,0.259-0.203,0.455c-0.065,0.129-0.108,0.233-0.216,0.408c-0.192,0.333-0.376,0.572-0.586,0.839
		c-0.421,0.506-0.898,0.924-1.376,1.301c-0.962,0.746-1.947,1.325-2.858,1.912c-0.909,0.586-1.777,1.143-2.458,1.803
		c-0.339,0.327-0.632,0.674-0.869,1.042c-0.1,0.151-0.28,0.458-0.401,0.665l-0.363,0.668c-0.986,1.802-1.63,3.767-1.489,5.626
		c0.082,1.869,1.123,3.541,2.683,4.795c1.571,1.242,3.569,2.079,5.649,2.598c2.088,0.549,4.285,0.759,6.517,0.825
		c-2.177,0.52-4.456,0.67-6.739,0.458c-2.271-0.247-4.593-0.85-6.639-2.202c-1.02-0.667-1.963-1.534-2.662-2.617
		c-0.705-1.073-1.166-2.338-1.31-3.619c-0.272-2.597,0.569-5.023,1.649-7.108c0.139-0.259,0.293-0.521,0.447-0.783
		c0.164-0.268,0.266-0.439,0.473-0.75c0.374-0.557,0.814-1.051,1.281-1.483c0.941-0.858,1.954-1.504,2.941-2.063
		c1.965-1.107,3.863-2.025,4.652-3.624c0.451-0.856,0.692-1.776,0.568-2.605c-0.106-0.829-0.67-1.578-1.51-1.978
		c-0.824-0.418-1.888-0.468-2.764-0.024C424.713,180.418,424.115,181.422,423.941,182.523z"/>
</g>
<ellipse fill="#FFFFFF" cx="410.813" cy="282.947" rx="1.201" ry="1.784"/>
<g>
	<g>
		<path fill="#FFFFFF" d="M455.5,333.523c-0.912,31.625-54.461,31.626-55.375,0c-0.036-1.28-2.025-1.284-1.988,0
			c0.457,15.883,14.747,25.759,29.676,26.089c14.928,0.329,29.232-10.688,29.678-26.089
			C457.527,332.239,455.537,332.243,455.5,333.523L455.5,333.523z"/>
	</g>
</g>
<g>
	<path fill="#E5A53B" d="M461.414,336.068c1.438-1.366,1.338-3.805-0.223-5.45c-1.566-1.646-3.995-1.87-5.435-0.504
		C455.757,330.114,461.34,331.642,461.414,336.068z"/>
</g>
<g>
	<path fill="#E5A53B" d="M393.834,335.986c-1.375-1.434-1.16-3.863,0.479-5.436c1.64-1.57,4.076-1.681,5.451-0.247
		C399.764,330.304,394.117,331.568,393.834,335.986z"/>
</g>
</svg>
