<?xml version="1.0" encoding="utf-8"?>
<!-- Generator: Adobe Illustrator 16.0.0, SVG Export Plug-In . SVG Version: 6.00 Build 0)  -->
<!DOCTYPE svg PUBLIC "-//W3C//DTD SVG 1.1//EN" "http://www.w3.org/Graphics/SVG/1.1/DTD/svg11.dtd">
<svg version="1.1" id="Layer_1" xmlns="http://www.w3.org/2000/svg" xmlns:xlink="http://www.w3.org/1999/xlink" x="0px" y="0px"
	 width="841.89px" height="595.28px" viewBox="0 0 841.89 595.28" enable-background="new 0 0 841.89 595.28" xml:space="preserve">
<path fill="#FBBF4F" d="M503.481,411.406c-2.666,2.109-31.207,15.44-63.848,17.047c-32.64,1.607-68.87-10.89-70.402-17.047
	c-3.266-13.122-5.955-146.676,0-165.817c4.146-13.324,30.514-51.631,70.432-48.616c0,0,52.888,10.733,59.72,58.959
	C506.206,304.107,508.847,407.166,503.481,411.406z"/>
<g>
	<g>
		<path fill="#FBBF4F" d="M368.226,319.697c-7.373,5.798-22.82,14.895-32.338,7.091c-5.22-4.279-7.19-11.569-8.498-17.877
			c-1.967-9.487-0.876-19.397-3.686-28.726c-2.854-9.472-12.863-14.657-22.086-10.628c-9.084,3.97-16.602,12.014-22.507,19.811
			c-1.86,2.455,2.288,4.829,4.121,2.408c5.44-7.181,14.113-16.907,23.765-18.913c4.605-0.957,9.354,2.71,11.313,6.543
			c4.164,8.146,2.668,19.064,3.973,27.907c1.65,11.188,6.605,25.138,19.408,27.026c10.514,1.551,21.928-4.99,29.91-11.268
			C374.019,321.171,370.616,317.817,368.226,319.697L368.226,319.697z"/>
	</g>
</g>
<g>
	<g>
		<path fill="#FBBF4F" d="M495.169,302.237c14.088,3.37,27.809,10.07,39.779,18.082c10.662,7.136,20.049,16.247,26.799,27.195
			c8.313,13.481,11.174,29.184,9.957,44.842c-0.238,3.071,4.537,3.048,4.773,0c2.393-30.793-12.248-57.012-36.928-74.643
			c-12.68-9.059-27.879-16.435-43.111-20.08C493.446,296.918,492.177,301.521,495.169,302.237L495.169,302.237z"/>
	</g>
</g>
<g>
	<g>
		<path fill="#FBBF4F" d="M413.065,412.658c0,13.402,0,26.805,0,40.206c0,5.801,0,11.601,0,17.4c0,0.882,0.325-0.771,0.104-0.357
			c-0.223,0.415-0.871,0.882-1.488,1.131c-5.109,2.056-12.02-0.934-16.732-2.719c-2.885-1.092-4.119,3.524-1.27,4.604
			c6.113,2.313,18.93,7.004,23.611-0.606c1.852-3.012,0.549-9.23,0.549-12.494c0-15.722,0-31.443,0-47.164
			C417.839,409.58,413.065,409.58,413.065,412.658L413.065,412.658z"/>
	</g>
</g>
<circle fill="#FFFFFF" cx="467.328" cy="291.83" r="21.993"/>
<path fill="#1E1E1C" d="M473.532,293.751c-0.491,10.137-5.609,18.124-11.43,17.844c-5.826-0.281-10.959-8.766-10.468-18.902
	s6.382-17.298,12.204-17.015C469.661,275.958,474.022,283.615,473.532,293.751z"/>
<ellipse fill="#FFFFFF" cx="471.125" cy="282.989" rx="1.235" ry="1.833"/>
<path opacity="0.65" fill="#FFFFFF" d="M460.155,305.791c0,0,2.03,2.104,5.279,0C465.435,305.791,462.726,311.186,460.155,305.791z"
	/>
<circle fill="#FFFFFF" cx="399.594" cy="292.221" r="21.992"/>
<path fill="#1E1E1C" d="M415.88,291.191c-0.492,10.136-5.609,18.123-11.434,17.843c-5.824-0.283-10.955-8.767-10.467-18.904
	c0.492-10.136,6.385-17.295,12.206-17.014C412.009,273.396,416.37,281.055,415.88,291.191z"/>
<path opacity="0.65" fill="#FFFFFF" d="M402.444,306.02c0,0,2.031,2.104,5.279,0C407.724,306.02,405.018,311.416,402.444,306.02z"/>
<g>
	<path fill="#E5A53B" d="M382.626,265.372c1.455-1.243,3.023-2.334,4.626-3.395c1.616-1.036,3.304-1.978,5.083-2.777
		c1.767-0.793,3.594-1.723,5.654-1.818c1.018-0.065,2.063,0.003,3.076,0.253c1.008,0.249,2.001,0.689,2.758,1.408l-0.102,0.254
		c-1.985,0.047-3.625,0.373-5.346,0.785c-1.686,0.446-3.5,0.613-5.266,1.157c-1.754,0.548-3.496,1.211-5.221,1.943
		c-1.734,0.715-3.429,1.544-5.107,2.414L382.626,265.372z"/>
</g>
<g>
	<g>
		<path fill="#FFFFFF" d="M461.063,344.335c0.298,0.273,0.59,0.553,0.877,0.836c0.24,0.235,0.477,0.476,0.703,0.724
			c0.045,0.048,0.24,0.277,0.203,0.229c0.135,0.175,0.105,0.336,0.054-0.078c0.049,0.387,0.288,0.716,0.716,0.716
			c0.354,0,0.766-0.327,0.716-0.716c-0.083-0.655-0.646-1.145-1.087-1.596c-0.378-0.387-0.77-0.761-1.168-1.126
			C461.397,342.7,460.382,343.71,461.063,344.335L461.063,344.335z"/>
	</g>
</g>
<g>
	<g>
		<path fill="#FFFFFF" d="M400.88,345.783c0.273-0.297,0.553-0.589,0.836-0.876c0.235-0.24,0.475-0.476,0.725-0.702
			c0.048-0.044,0.277-0.24,0.229-0.203c0.174-0.134,0.336-0.105-0.078-0.054c0.387-0.049,0.716-0.288,0.716-0.716
			c0-0.354-0.327-0.766-0.716-0.716c-0.655,0.083-1.146,0.646-1.596,1.086c-0.387,0.379-0.762,0.771-1.127,1.169
			C399.245,345.45,400.255,346.465,400.88,345.783L400.88,345.783z"/>
	</g>
</g>
<g>
	<path fill="#E5A53B" d="M484.011,266.337c-1.679-0.87-3.374-1.699-5.108-2.414c-1.724-0.732-3.466-1.396-5.22-1.943
		c-1.766-0.544-3.582-0.712-5.266-1.158c-1.723-0.411-3.361-0.737-5.348-0.784l-0.1-0.254c0.756-0.72,1.748-1.16,2.756-1.408
		c1.016-0.25,2.061-0.318,3.078-0.254c2.061,0.097,3.887,1.026,5.654,1.819c1.778,0.8,3.467,1.741,5.083,2.777
		c1.603,1.061,3.171,2.151,4.626,3.395L484.011,266.337z"/>
</g>
<g>
	<path fill="#EB6749" d="M444.131,367.054c3.065,4.218,9.446,4.794,14.267,1.291c4.822-3.503,6.241-9.751,3.176-13.969l-1.309-1.522
		C460.265,352.854,447.729,367.25,444.131,367.054z"/>
</g>
<g>
	<path fill="#644F43" d="M427.966,188.576c-0.038-0.569,0.006-1.167,0.209-1.741c0.207-0.57,0.586-1.101,1.093-1.495
		c1.022-0.801,2.458-0.972,3.728-0.586c1.277,0.377,2.43,1.478,2.809,2.871c0.402,1.392,0.079,2.79-0.391,3.965
		c-0.068,0.16-0.109,0.268-0.207,0.468c-0.067,0.131-0.113,0.239-0.223,0.42c-0.197,0.342-0.387,0.588-0.603,0.862
		c-0.433,0.52-0.924,0.949-1.415,1.338c-0.988,0.767-2.001,1.361-2.939,1.966c-0.934,0.602-1.826,1.175-2.525,1.853
		c-0.35,0.337-0.65,0.693-0.895,1.071c-0.104,0.155-0.288,0.471-0.412,0.685l-0.374,0.687c-1.014,1.852-1.675,3.872-1.53,5.784
		c0.053,0.954,0.329,1.871,0.805,2.705c0.484,0.827,1.157,1.577,1.954,2.225c1.616,1.276,3.67,2.137,5.81,2.669
		c2.146,0.564,4.404,0.781,6.699,0.849c-2.237,0.534-4.582,0.689-6.93,0.471c-2.334-0.254-4.721-0.872-6.824-2.263
		c-1.049-0.686-2.02-1.577-2.738-2.69c-0.725-1.104-1.198-2.403-1.348-3.721c-0.279-2.67,0.585-5.165,1.695-7.309
		c0.143-0.267,0.302-0.537,0.46-0.806c0.169-0.275,0.272-0.451,0.485-0.771c0.385-0.573,0.839-1.08,1.318-1.525
		c0.968-0.883,2.009-1.547,3.023-2.12c2.021-1.14,3.973-2.082,4.784-3.727c0.464-0.881,0.713-1.826,0.587-2.679
		c-0.11-0.853-0.689-1.623-1.553-2.034c-0.848-0.43-1.939-0.482-2.842-0.026C428.759,186.411,428.144,187.443,427.966,188.576z"/>
</g>
<ellipse fill="#FFFFFF" cx="413.391" cy="284.822" rx="1.235" ry="1.832"/>
<g>
	<g>
		<path fill="#FFFFFF" d="M460.411,343.829c-0.91,32.516-56.024,32.516-56.934,0c-0.037-1.316-2.083-1.32-2.047,0
			c0.457,16.323,15.176,26.497,30.514,26.825c15.336,0.329,30.068-10.984,30.512-26.825
			C462.493,342.509,460.448,342.513,460.411,343.829L460.411,343.829z"/>
	</g>
</g>
<g>
	<path fill="#E5A53B" d="M466.491,346.448c1.479-1.407,1.379-3.914-0.23-5.606c-1.607-1.691-4.104-1.923-5.586-0.516
		C460.675,340.326,466.415,341.894,466.491,346.448z"/>
</g>
<g>
	<path fill="#E5A53B" d="M397.007,346.361c-1.41-1.473-1.191-3.973,0.493-5.587c1.686-1.613,4.19-1.729,5.606-0.256
		C403.106,340.519,397.298,341.819,397.007,346.361z"/>
</g>
<g>
	<g>
		<path fill="#FBBF4F" d="M454.458,415.28c1.463,7.206,3.033,14.396,4.773,21.54c0.904,3.721,2.768,7.79,2.881,11.621
			c0.148,4.964-2.031,10.222-3.787,14.771c-1.438,3.726-5.572,8.505-2.588,12.194c5.039,6.23,17.158,1.637,22.795-0.497
			c2.85-1.079,1.615-5.695-1.27-4.604c-4.762,1.804-10.354,4.006-15.551,3.056c-1.292-0.235-2.686-1.483-2.645-1.365
			c0.525,1.509-0.48,2.34,0.557,0.153c0.672-1.417,1.301-2.853,1.918-4.293c1.646-3.845,3.095-7.765,4.189-11.803
			c2.137-7.895-0.309-13.97-2.169-21.613c-1.649-6.774-3.115-13.598-4.503-20.43C458.448,410.996,453.848,412.275,454.458,415.28
			L454.458,415.28z"/>
	</g>
</g>
</svg>
