<?xml version="1.0" encoding="utf-8"?>
<!-- Generator: Adobe Illustrator 16.0.0, SVG Export Plug-In . SVG Version: 6.00 Build 0)  -->
<!DOCTYPE svg PUBLIC "-//W3C//DTD SVG 1.1//EN" "http://www.w3.org/Graphics/SVG/1.1/DTD/svg11.dtd">
<svg version="1.1" id="Layer_1" xmlns="http://www.w3.org/2000/svg" xmlns:xlink="http://www.w3.org/1999/xlink" x="0px" y="0px"
	 width="841.889px" height="595.28px" viewBox="0 0 841.889 595.28" enable-background="new 0 0 841.889 595.28"
	 xml:space="preserve">
<path fill="#FBBF4F" d="M502.498,428.471c-2.669,2.108-31.242,15.455-63.92,17.065c-32.682,1.61-68.952-10.901-70.486-17.065
	c-3.273-13.14-5.965-146.853,0-166.016c4.15-13.34,30.547-51.691,70.516-48.674c0,0,52.949,10.749,59.787,59.028
	C505.227,321.043,507.869,424.224,502.498,428.471z"/>
<g>
	<g>
		<path fill="#FBBF4F" d="M367.084,336.65c-4.217,3.488-11.245,7.234-17.475,8.356c-16.67,3.003-20.676-17.87-21.762-29.987
			c-1.011-11.282-0.098-36.821-16.76-37.749c-9.777-0.545-19.006,9.135-24.975,15.724c-1.652,1.823-3.24,3.714-4.725,5.678
			c-1.859,2.461,2.293,4.838,4.127,2.412c-0.329,0.435,0.737-0.927,1.109-1.381c1.271-1.553,2.602-3.056,3.965-4.528
			c3.582-3.866,7.502-7.502,11.996-10.286c3.67-2.275,8.819-4.352,12.662-1.291c6.602,5.258,6.969,17.475,7.438,24.982
			c0.871,13.91,2.077,35.063,17.93,40.551c8.608,2.981,18.406-1.366,25.572-5.998c1.475-0.953,2.922-1.983,4.275-3.104
			C372.84,338.063,369.439,334.702,367.084,336.65L367.084,336.65z"/>
	</g>
</g>
<g>
	<g>
		<path fill="#FBBF4F" d="M495.25,315.947c16.518,3.969,32.82,10.88,47.285,19.709c11.373,6.942,21.987,15.887,28.55,27.653
			c7.431,13.322,6.505,28.443,0.876,42.228c-1.164,2.854,3.46,4.084,4.609,1.271c5.73-14.037,6.484-28.953,0.16-42.902
			c-5.75-12.687-16.75-22.433-28.118-30.036c-15.521-10.38-33.911-18.163-52.093-22.53
			C493.525,310.62,492.254,315.228,495.25,315.947L495.25,315.947z"/>
	</g>
</g>
<g>
	<g>
		<path fill="#FBBF4F" d="M463.059,429.724c0,13.53,0,27.06,0,40.589c0,5.697,0,11.394,0,17.091c0,0.87,0.328-0.784,0.104-0.366
			c-0.223,0.416-0.871,0.885-1.489,1.133c-5.116,2.06-12.034-0.935-16.753-2.722c-2.888-1.094-4.125,3.527-1.271,4.607
			c6.119,2.318,18.955,7.015,23.641-0.606c1.924-3.131,0.549-9.691,0.549-13.086c0-15.547,0-31.094,0-46.64
			C467.838,426.642,463.059,426.642,463.059,429.724L463.059,429.724z"/>
	</g>
</g>
<circle fill="#FFFFFF" cx="466.303" cy="308.752" r="22.019"/>
<path fill="#1E1E1C" d="M472.536,308.748c0,10.16-4.73,18.396-10.567,18.396c-5.838,0-11.383-8.236-11.383-18.396
	c0-10.159,5.545-17.606,11.383-17.606C467.806,291.142,472.536,298.589,472.536,308.748z"/>
<ellipse fill="#FFFFFF" cx="467.631" cy="295.548" rx="1.236" ry="1.834"/>
<path opacity="0.65" fill="#FFFFFF" d="M459.124,322.729c0,0,2.03,2.109,5.285,0C464.409,322.729,461.697,328.131,459.124,322.729z"
	/>
<circle fill="#FFFFFF" cx="398.489" cy="309.144" r="22.019"/>
<path fill="#1E1E1C" d="M414.76,308.979c0,10.159-4.732,18.395-10.568,18.395c-5.838,0-11.383-8.235-11.383-18.395
	c0-10.161,5.545-17.608,11.383-17.608C410.027,291.37,414.76,298.817,414.76,308.979z"/>
<path opacity="0.65" fill="#FFFFFF" d="M401.344,322.96c0,0,2.033,2.106,5.283,0C406.627,322.96,403.918,328.359,401.344,322.96z"/>
<g>
	<path fill="#E5A53B" d="M381.502,282.263c1.456-1.245,3.025-2.336,4.631-3.397c1.617-1.037,3.307-1.98,5.088-2.78
		c1.769-0.794,3.598-1.725,5.66-1.821c1.019-0.064,2.064,0.004,3.08,0.254c1.01,0.249,2.002,0.689,2.76,1.41l-0.1,0.254
		c-1.988,0.047-3.629,0.373-5.354,0.785c-1.686,0.447-3.504,0.615-5.271,1.16c-1.756,0.547-3.501,1.211-5.226,1.944
		c-1.736,0.716-3.434,1.546-5.115,2.416L381.502,282.263z"/>
</g>
<g>
	<g>
		<path fill="#FFFFFF" d="M460.028,361.32c0.298,0.273,0.591,0.553,0.88,0.836c0.24,0.236,0.477,0.477,0.703,0.725
			c0.045,0.049,0.242,0.278,0.205,0.229c0.133,0.175,0.106,0.336,0.053-0.078c0.051,0.388,0.289,0.717,0.717,0.717
			c0.354,0,0.768-0.328,0.717-0.717c-0.082-0.656-0.646-1.146-1.089-1.598c-0.38-0.387-0.772-0.762-1.172-1.128
			C460.361,359.684,459.346,360.694,460.028,361.32L460.028,361.32z"/>
	</g>
</g>
<g>
	<g>
		<path fill="#FFFFFF" d="M399.777,362.771c0.273-0.298,0.553-0.59,0.836-0.879c0.236-0.239,0.477-0.476,0.725-0.702
			c0.049-0.045,0.277-0.242,0.229-0.204c0.175-0.134,0.336-0.106-0.079-0.054c0.388-0.05,0.717-0.289,0.717-0.717
			c0-0.354-0.327-0.767-0.717-0.717c-0.655,0.084-1.146,0.647-1.596,1.089c-0.388,0.378-0.762,0.771-1.128,1.17
			C398.141,362.437,399.151,363.453,399.777,362.771L399.777,362.771z"/>
	</g>
</g>
<g>
	<path fill="#E5A53B" d="M483.006,283.229c-1.682-0.871-3.379-1.701-5.115-2.417c-1.725-0.733-3.47-1.398-5.227-1.945
		c-1.768-0.545-3.586-0.713-5.271-1.16c-1.724-0.412-3.364-0.738-5.354-0.785l-0.1-0.254c0.757-0.721,1.75-1.161,2.76-1.41
		c1.016-0.251,2.063-0.319,3.081-0.254c2.063,0.097,3.892,1.026,5.661,1.821c1.781,0.801,3.471,1.743,5.09,2.781
		c1.604,1.062,3.174,2.153,4.631,3.398L483.006,283.229z"/>
</g>
<g>
	<path fill="#EB6749" d="M443.08,384.065c3.068,4.222,9.457,4.801,14.283,1.293c4.826-3.507,6.248-9.762,3.178-13.985l-1.311-1.523
		C459.23,369.85,446.68,384.263,443.08,384.065z"/>
</g>
<g>
	<path fill="#644F43" d="M426.893,205.378c-0.038-0.57,0.007-1.169,0.21-1.743c0.208-0.57,0.587-1.103,1.094-1.497
		c1.022-0.802,2.46-0.975,3.731-0.589c1.279,0.377,2.434,1.478,2.813,2.873c0.403,1.394,0.081,2.794-0.388,3.97
		c-0.069,0.161-0.109,0.267-0.209,0.47c-0.067,0.132-0.111,0.239-0.223,0.42c-0.197,0.342-0.387,0.588-0.603,0.863
		c-0.433,0.521-0.925,0.95-1.417,1.339c-0.99,0.768-2.004,1.363-2.943,1.968c-0.936,0.603-1.829,1.176-2.529,1.854
		c-0.35,0.338-0.65,0.694-0.895,1.072c-0.104,0.156-0.289,0.472-0.414,0.686l-0.373,0.688c-1.016,1.854-1.678,3.878-1.533,5.791
		c0.053,0.956,0.328,1.874,0.807,2.709c0.484,0.829,1.157,1.579,1.955,2.228c1.617,1.278,3.674,2.14,5.816,2.674
		c2.148,0.564,4.41,0.781,6.707,0.85c-2.24,0.535-4.588,0.689-6.938,0.471c-2.338-0.254-4.729-0.874-6.834-2.266
		c-1.049-0.688-2.021-1.58-2.74-2.694c-0.725-1.105-1.199-2.406-1.348-3.726c-0.279-2.674,0.584-5.172,1.697-7.317
		c0.143-0.268,0.302-0.538,0.461-0.808c0.168-0.274,0.272-0.451,0.485-0.771c0.386-0.574,0.839-1.082,1.319-1.527
		c0.97-0.884,2.012-1.549,3.027-2.123c2.023-1.14,3.979-2.084,4.791-3.729c0.464-0.882,0.713-1.828,0.586-2.683
		c-0.111-0.854-0.691-1.624-1.557-2.035c-0.848-0.43-1.941-0.481-2.846-0.025C427.688,203.21,427.071,204.244,426.893,205.378z"/>
</g>
<ellipse fill="#FFFFFF" cx="409.83" cy="296.229" rx="1.236" ry="1.834"/>
<g>
	<g>
		<path fill="#FFFFFF" d="M459.377,360.813c-0.91,32.551-56.089,32.552-57,0c-0.035-1.318-2.084-1.321-2.047,0
			c0.457,16.341,15.189,26.526,30.547,26.855c15.354,0.328,30.104-10.995,30.549-26.855
			C461.463,359.492,459.414,359.495,459.377,360.813L459.377,360.813z"/>
	</g>
</g>
<g>
	<path fill="#E5A53B" d="M465.465,363.433c1.482-1.406,1.379-3.916-0.229-5.61c-1.613-1.693-4.112-1.924-5.594-0.519
		C459.643,357.304,465.389,358.876,465.465,363.433z"/>
</g>
<g>
	<path fill="#E5A53B" d="M395.9,363.349c-1.416-1.476-1.194-3.978,0.492-5.595c1.686-1.617,4.197-1.729,5.611-0.255
		C402.004,357.499,396.191,358.801,395.9,363.349z"/>
</g>
<path fill="#FFFFFF" d="M0.001,308"/>
<g>
	<g>
		<path fill="#FBBF4F" d="M417.762,431.682c-6.535,7.268-11.52,16.283-14.318,25.617c-2.327,7.757-1.273,15.155-0.69,23.061
			c0.169,2.29,0.263,4.609,0.054,6.9c-0.195,2.14,1.445-1.025,2.799,0.336c-1.117-1.124-2.932-0.807-3.752,0.483
			c0.102-0.16-1.149,0.575-2.281,0.622c-5.313,0.221-10.85-4.217-14.841-7.146c-2.489-1.825-4.87,2.324-2.412,4.127
			c4.672,3.427,18.44,13.019,23.661,4.809c-1.252,0.161-2.502,0.322-3.753,0.483c1.444,1.452,3.442,0.867,4.552-0.633
			c2.439-3.304,0.715-10.834,0.379-14.354c-0.988-10.333,0.498-18.969,5.336-28.229c2.348-4.494,5.248-8.918,8.646-12.698
			C423.195,432.776,419.826,429.386,417.762,431.682L417.762,431.682z"/>
	</g>
</g>
</svg>
