<?xml version="1.0" encoding="utf-8"?>
<!-- Generator: Adobe Illustrator 16.0.0, SVG Export Plug-In . SVG Version: 6.00 Build 0)  -->
<!DOCTYPE svg PUBLIC "-//W3C//DTD SVG 1.1//EN" "http://www.w3.org/Graphics/SVG/1.1/DTD/svg11.dtd">
<svg version="1.1" id="Layer_1" xmlns="http://www.w3.org/2000/svg" xmlns:xlink="http://www.w3.org/1999/xlink" x="0px" y="0px"
	 width="841.89px" height="595.28px" viewBox="0 0 841.89 595.28" enable-background="new 0 0 841.89 595.28" xml:space="preserve">
<path fill="#FBBF4F" d="M488.281,221.82c-2.484,1.964-29.072,14.384-59.48,15.881c-30.41,1.498-64.162-10.145-65.59-15.881
	c-3.043-12.226-5.549-136.65,0-154.482c3.863-12.414,28.428-48.102,65.617-45.293c0,0,49.271,10.001,55.635,54.928
	C490.82,121.855,493.279,217.869,488.281,221.82z"/>
<g>
	<g>
		<path fill="#FBBF4F" d="M362.273,136.379c-6.623,5.204-18.85,12.396-27.875,8.107c-4.582-2.178-6.217-10.987-7.455-15.303
			c-1.734-6.043-2.488-12.722-4.943-18.521c-3.779-8.925-15.738-8.976-23.363-5.304c-7.438,3.58-13.977,10.286-19.039,16.706
			c-1.754,2.226,1.371,5.396,3.145,3.145c5.338-6.771,12.297-13.946,20.49-17.022c3.596-1.352,11.314-1.06,13.787,2.355
			c1.854,2.563,2.313,6.76,3.061,9.801c0.824,3.35,1.654,6.697,2.576,10.022c1.439,5.194,3.107,10.8,6.404,15.156
			c3.016,3.989,8.152,4.909,12.887,4.595c8.451-0.562,16.932-5.456,23.471-10.594C367.672,137.753,364.5,134.629,362.273,136.379
			L362.273,136.379z"/>
	</g>
</g>
<g>
	<g>
		<path fill="#FBBF4F" d="M480.006,119.891c-1.055-0.795,0.545,0.541,0.777,0.765c1.461,1.402,2.842,2.892,4.215,4.378
			c7.713,8.346,14.707,17.297,22.141,25.881c14.842,17.143,37.684,31.125,44.781,53.749c0.855,2.727,5.148,1.562,4.289-1.183
			c-7.211-22.98-29.727-37.971-45.297-55.004c-7.865-8.605-14.875-17.987-22.77-26.588c-1.848-2.012-3.697-4.184-5.893-5.838
			C479.959,114.322,477.746,118.187,480.006,119.891L480.006,119.891z"/>
	</g>
</g>
<g>
	<g>
		<path fill="#FBBF4F" d="M405.6,223.569c-0.682,12.403-1.363,24.806-2.045,37.208c-0.295,5.373-0.59,10.746-0.885,16.119
			c-0.055,0.977-0.061,0.17,0.182-0.335c-0.215,0.45-0.619,0.692-1.195,0.998c-4.232,2.252-11.619-1.43-15.338-3.073
			c-2.598-1.147-4.863,2.684-2.244,3.84c5.635,2.489,17.361,7.749,22.299,0.974c1.963-2.694,1.08-8.526,1.248-11.585
			c0.809-14.715,1.617-29.43,2.426-44.146C410.205,220.703,405.758,220.718,405.6,223.569L405.6,223.569z"/>
	</g>
</g>
<g>
	<g>
		<path fill="#FBBF4F" d="M445.91,223.779c1.074,14.698,2.148,29.396,3.221,44.095c0.225,3.052-0.504,8.649,1.295,11.38
			c4.686,7.108,16.975,1.383,22.404-1.134c2.6-1.205,0.34-5.037-2.244-3.84c-4.285,1.986-9.943,4.717-14.846,3.519
			c-0.486-0.118-1.299-0.558-1.475-0.79c-0.758-1.002,0.074,1.3-0.002,0.245c-0.396-5.437-0.795-10.873-1.191-16.31
			c-0.904-12.389-1.811-24.777-2.715-37.165C450.15,220.937,445.701,220.917,445.91,223.779L445.91,223.779z"/>
	</g>
</g>
<circle fill="#FFFFFF" cx="454.601" cy="110.418" r="20.489"/>
<path fill="#1E1E1C" d="M460.4,110.414c0,9.455-4.402,17.119-9.834,17.119s-10.59-7.664-10.59-17.119
	c0-9.453,5.158-16.383,10.59-16.383S460.4,100.961,460.4,110.414z"/>
<ellipse fill="#FFFFFF" cx="459.25" cy="108.711" rx="1.15" ry="1.707"/>
<path opacity="0.65" fill="#FFFFFF" d="M449.141,123.638c0,0,1.889,1.962,4.918,0C454.059,123.638,451.535,128.664,449.141,123.638z
	"/>
<circle fill="#FFFFFF" cx="391.497" cy="110.783" r="20.489"/>
<path fill="#1E1E1C" d="M406.637,110.628c0,9.454-4.402,17.118-9.834,17.118s-10.592-7.664-10.592-17.118s5.16-16.384,10.592-16.384
	S406.637,101.174,406.637,110.628z"/>
<path opacity="0.65" fill="#FFFFFF" d="M396.613,123.638c0,0,1.891,1.962,4.918,0C401.531,123.638,399.01,128.664,396.613,123.638z"
	/>
<g>
	<path fill="#E5A53B" d="M375.689,85.769c1.355-1.159,2.816-2.175,4.309-3.162c1.506-0.966,3.078-1.843,4.736-2.588
		c1.645-0.741,3.348-1.603,5.268-1.694c0.947-0.061,1.922,0.004,2.867,0.236c0.939,0.232,1.863,0.643,2.568,1.313l-0.094,0.236
		c-1.852,0.043-3.377,0.348-4.982,0.73c-1.568,0.414-3.26,0.574-4.904,1.079c-1.635,0.509-3.258,1.128-4.863,1.81
		c-1.617,0.666-3.195,1.439-4.76,2.249L375.689,85.769z"/>
</g>
<g>
	<g>
		<path fill="#FFFFFF" d="M448.764,159.334c0.285,0.264,0.566,0.531,0.844,0.805c0.217,0.213,0.428,0.43,0.633,0.653
			c0.049,0.054,0.221,0.256,0.205,0.235c0.102,0.137,0.061,0.127,0.053,0.077c0.051,0.361,0.506,0.553,0.822,0.466
			c0.385-0.105,0.514-0.461,0.465-0.82c-0.068-0.502-0.684-0.998-1.016-1.336c-0.344-0.351-0.701-0.69-1.063-1.023
			C449.074,157.811,448.129,158.752,448.764,159.334L448.764,159.334z"/>
	</g>
</g>
<g>
	<g>
		<path fill="#FFFFFF" d="M392.695,160.684c0.264-0.285,0.531-0.566,0.805-0.843c0.213-0.216,0.43-0.428,0.654-0.633
			c0.053-0.05,0.256-0.22,0.234-0.204c0.137-0.104,0.127-0.062,0.078-0.055c0.359-0.049,0.551-0.506,0.465-0.82
			c-0.105-0.385-0.461-0.515-0.82-0.466c-0.502,0.067-0.998,0.685-1.336,1.015c-0.35,0.345-0.691,0.701-1.023,1.063
			C391.172,160.373,392.113,161.319,392.695,160.684L392.695,160.684z"/>
	</g>
</g>
<g>
	<path fill="#E5A53B" d="M470.143,86.667c-1.564-0.81-3.143-1.583-4.76-2.249c-1.605-0.682-3.229-1.301-4.863-1.811
		c-1.645-0.504-3.336-0.664-4.904-1.078c-1.605-0.384-3.131-0.688-4.982-0.731l-0.094-0.236c0.705-0.671,1.631-1.081,2.57-1.312
		c0.943-0.233,1.918-0.297,2.865-0.236c1.92,0.092,3.623,0.953,5.268,1.694c1.658,0.745,3.23,1.622,4.736,2.588
		c1.492,0.987,2.953,2.003,4.309,3.162L470.143,86.667z"/>
</g>
<g>
	<path fill="#EB6749" d="M432.99,180.5c2.855,3.928,8.801,4.467,13.291,1.203s5.814-9.084,2.957-13.014l-1.219-1.418
		C448.02,167.271,436.34,180.684,432.99,180.5z"/>
</g>
<g>
	<path fill="#644F43" d="M417.928,14.224c-0.035-0.53,0.008-1.087,0.195-1.622c0.193-0.531,0.547-1.025,1.018-1.393
		c0.953-0.746,2.289-0.906,3.473-0.547c1.191,0.351,2.266,1.375,2.617,2.674c0.375,1.297,0.074,2.6-0.361,3.694
		c-0.064,0.148-0.102,0.248-0.195,0.436c-0.063,0.123-0.104,0.223-0.207,0.391c-0.184,0.319-0.359,0.548-0.561,0.804
		c-0.402,0.484-0.861,0.885-1.318,1.246c-0.922,0.715-1.863,1.269-2.738,1.832c-0.869,0.561-1.701,1.094-2.354,1.726
		c-0.324,0.314-0.605,0.646-0.832,0.998c-0.096,0.146-0.27,0.438-0.385,0.638l-0.348,0.64c-0.945,1.726-1.561,3.608-1.428,5.389
		c0.08,1.791,1.078,3.392,2.57,4.593c1.506,1.189,3.42,1.992,5.412,2.488c2,0.525,4.104,0.727,6.242,0.791
		c-2.084,0.498-4.27,0.642-6.455,0.438c-2.176-0.236-4.4-0.813-6.359-2.108c-0.977-0.639-1.881-1.47-2.551-2.507
		c-0.674-1.028-1.115-2.239-1.254-3.467c-0.26-2.487,0.545-4.812,1.58-6.809c0.131-0.248,0.279-0.5,0.428-0.751
		c0.158-0.256,0.254-0.421,0.453-0.718c0.357-0.533,0.781-1.007,1.227-1.421c0.902-0.822,1.873-1.44,2.816-1.976
		c1.883-1.062,3.703-1.939,4.459-3.472c0.432-0.82,0.662-1.701,0.545-2.495c-0.104-0.795-0.643-1.512-1.447-1.895
		c-0.789-0.4-1.807-0.448-2.646-0.024C418.668,12.207,418.094,13.169,417.928,14.224z"/>
</g>
<ellipse fill="#FFFFFF" cx="405.352" cy="110.418" rx="1.15" ry="1.709"/>
<g>
	<g>
		<path fill="#FFFFFF" d="M448.156,158.863c-0.902,30.293-52.139,30.294-53.041,0c-0.037-1.227-1.943-1.23-1.906,0
			c0.975,32.734,55.879,32.734,56.854,0C450.098,157.633,448.193,157.637,448.156,158.863L448.156,158.863z"/>
	</g>
</g>
<g>
	<path fill="#E5A53B" d="M453.82,161.301c1.379-1.309,1.283-3.645-0.213-5.221c-1.5-1.576-3.826-1.791-5.205-0.482
		C448.402,155.598,453.75,157.061,453.82,161.301z"/>
</g>
<g>
	<path fill="#E5A53B" d="M389.088,161.223c-1.316-1.373-1.111-3.701,0.459-5.207c1.57-1.504,3.904-1.609,5.221-0.236
		C394.768,155.779,389.359,156.99,389.088,161.223z"/>
</g>
</svg>
