<?xml version="1.0" encoding="utf-8"?>
<!-- Generator: Adobe Illustrator 16.0.0, SVG Export Plug-In . SVG Version: 6.00 Build 0)  -->
<!DOCTYPE svg PUBLIC "-//W3C//DTD SVG 1.1//EN" "http://www.w3.org/Graphics/SVG/1.1/DTD/svg11.dtd">
<svg version="1.1" id="Layer_1" xmlns="http://www.w3.org/2000/svg" xmlns:xlink="http://www.w3.org/1999/xlink" x="0px" y="0px"
	 width="841.89px" height="595.28px" viewBox="0 0 841.89 595.28" enable-background="new 0 0 841.89 595.28" xml:space="preserve">
<path fill="#FBBF4F" d="M488.282,230.82c-2.484,1.965-29.072,14.385-59.48,15.881c-30.41,1.498-64.162-10.145-65.59-15.881
	c-3.043-12.225-5.549-136.648,0-154.48c3.863-12.414,28.428-48.102,65.617-45.293c0,0,49.271,10,55.635,54.928
	C490.821,130.857,493.28,226.869,488.282,230.82z"/>
<g>
	<g>
		<path fill="#FBBF4F" d="M363.847,144.729c-6.467-0.102-12.969-0.654-19.357-1.641c-4.635-0.715-9.438-1.678-13.686-3.725
			c-4.256-2.051-4.328-6.422-7.57-9.518c-6.178-5.9-17.988-5.076-24.932-1.566c-7.201,3.643-13.621,9.93-18.703,16.131
			c-1.801,2.199,1.326,5.365,3.145,3.145c4.949-6.041,10.945-11.662,17.803-15.436c4.625-2.545,8.928-2.236,13.92-1.379
			c3.09,0.529,5.721,1.746,7.449,4.459c1.023,1.605,1.086,3.396,2.4,4.855c5.129,5.699,14.842,6.779,21.959,7.754
			c5.813,0.793,11.703,1.275,17.572,1.367C366.716,149.221,366.71,144.773,363.847,144.729L363.847,144.729z"/>
	</g>
</g>
<g>
	<g>
		<path fill="#FBBF4F" d="M478.905,126.971c-0.105,3.344,1.535,6.896,2.803,9.875c4.617,10.85,12.24,21.938,20.379,30.402
			c13.35,13.885,43.078,9.674,49.834,30.676c0.875,2.719,5.168,1.555,4.287-1.184c-6.328-19.672-31.154-20.715-46.609-29.412
			c-5.555-3.127-9.121-8.865-12.793-13.883c-3.484-4.762-6.688-9.748-9.42-14.98c-1.697-3.248-4.139-8.143-4.033-11.494
			C483.44,124.102,478.993,124.111,478.905,126.971L478.905,126.971z"/>
	</g>
</g>
<g>
	<g>
		<path fill="#FBBF4F" d="M411.983,234.092c-6.159,6.856-10.842,15.364-13.422,24.185c-2.114,7.23-1.031,14.161-0.518,21.513
			c0.139,1.973,0.198,3.963,0.032,5.937c-0.131,1.549,1.603-0.6,2.597,0.395c-1.044-1.044-2.725-0.751-3.492,0.45
			c0.203-0.318-1.034,0.534-2.143,0.58c-4.938,0.205-10.077-3.93-13.79-6.649c-2.317-1.697-4.532,2.164-2.244,3.84
			c4.364,3.196,17.142,12.106,22.017,4.474c-1.164,0.15-2.328,0.3-3.492,0.45c1.229,1.229,3.34,0.961,4.214-0.557
			c2.038-3.538,0.746-9.455,0.396-13.179c-0.932-9.92,0.487-18.103,5.202-26.957c2.135-4.009,4.744-7.95,7.787-11.337
			C417.038,235.11,413.903,231.955,411.983,234.092L411.983,234.092z"/>
	</g>
</g>
<g>
	<g>
		<path fill="#FBBF4F" d="M440.394,236.512c4.08,13.883,8.16,27.766,12.238,41.648c0.953,3.24,1.422,8.805,3.795,11.43
			c5.604,6.201,16.959-2.174,21.352-5.492c2.258-1.705,0.045-5.568-2.244-3.84c-3.895,2.941-8.584,6.639-13.686,6.869
			c-0.807,0.037-1.525-0.148-2.195-0.578c-0.52-0.332,0.266,0.631,0.191,0.381c-1.465-4.986-2.93-9.973-4.396-14.959
			c-3.588-12.215-7.178-24.428-10.766-36.643C443.876,232.584,439.585,233.754,440.394,236.512L440.394,236.512z"/>
	</g>
</g>
<circle fill="#FFFFFF" cx="454.602" cy="119.42" r="20.489"/>
<path fill="#1E1E1C" d="M462.401,119.416c0,9.453-4.402,17.117-9.834,17.117s-10.59-7.664-10.59-17.117
	c0-9.455,5.158-16.383,10.59-16.383S462.401,109.961,462.401,119.416z"/>
<ellipse fill="#FFFFFF" cx="461.251" cy="121.705" rx="1.15" ry="1.707"/>
<path opacity="0.65" fill="#FFFFFF" d="M452.188,132.426c0,0,1.891,1.961,4.918,0C457.106,132.426,454.583,137.451,452.188,132.426z
	"/>
<circle fill="#FFFFFF" cx="391.498" cy="119.783" r="20.489"/>
<path fill="#1E1E1C" d="M404.638,119.629c0,9.455-4.402,17.119-9.834,17.119s-10.592-7.664-10.592-17.119s5.16-16.383,10.592-16.383
	S404.638,110.174,404.638,119.629z"/>
<path opacity="0.65" fill="#FFFFFF" d="M394.614,132.639c0,0,1.891,1.961,4.918,0C399.532,132.639,397.011,137.664,394.614,132.639z
	"/>
<g>
	<path fill="#E5A53B" d="M375.69,94.77c1.355-1.158,2.816-2.174,4.309-3.162c1.506-0.965,3.08-1.842,4.736-2.588
		c1.645-0.74,3.348-1.604,5.268-1.693c0.947-0.061,1.922,0.002,2.867,0.236c0.939,0.23,1.863,0.641,2.568,1.311l-0.094,0.236
		c-1.852,0.045-3.377,0.348-4.982,0.732c-1.568,0.414-3.26,0.574-4.904,1.078c-1.635,0.51-3.258,1.127-4.863,1.811
		c-1.615,0.666-3.195,1.438-4.76,2.248L375.69,94.77z"/>
</g>
<g>
	<g>
		<path fill="#FFFFFF" d="M448.765,168.336c0.285,0.262,0.566,0.531,0.844,0.803c0.215,0.213,0.428,0.43,0.633,0.654
			c0.049,0.055,0.221,0.256,0.205,0.234c0.102,0.139,0.061,0.129,0.053,0.078c0.049,0.361,0.506,0.553,0.82,0.465
			c0.387-0.105,0.516-0.459,0.467-0.82c-0.068-0.5-0.684-0.998-1.016-1.334c-0.344-0.352-0.701-0.691-1.063-1.023
			C449.075,166.813,448.128,167.752,448.765,168.336L448.765,168.336z"/>
	</g>
</g>
<g>
	<g>
		<path fill="#FFFFFF" d="M392.696,169.686c0.264-0.287,0.531-0.566,0.805-0.844c0.213-0.217,0.43-0.428,0.652-0.633
			c0.055-0.049,0.258-0.221,0.236-0.205c0.137-0.104,0.127-0.061,0.076-0.055c0.361-0.049,0.553-0.506,0.467-0.82
			c-0.105-0.385-0.461-0.514-0.82-0.465c-0.502,0.068-0.998,0.684-1.336,1.014c-0.35,0.346-0.691,0.701-1.023,1.064
			C391.173,169.375,392.114,170.32,392.696,169.686L392.696,169.686z"/>
	</g>
</g>
<g>
	<path fill="#E5A53B" d="M470.144,95.668c-1.564-0.811-3.143-1.582-4.76-2.248c-1.605-0.684-3.229-1.301-4.863-1.811
		c-1.645-0.506-3.336-0.666-4.904-1.08c-1.605-0.383-3.131-0.688-4.982-0.73l-0.094-0.236c0.705-0.67,1.631-1.08,2.57-1.313
		c0.943-0.232,1.918-0.297,2.865-0.236c1.92,0.092,3.623,0.953,5.268,1.695c1.658,0.744,3.23,1.623,4.736,2.588
		c1.492,0.988,2.953,2.004,4.309,3.162L470.144,95.668z"/>
</g>
<g>
	<path fill="#EB6749" d="M432.991,189.5c2.855,3.93,8.801,4.467,13.291,1.203s5.814-9.084,2.957-13.014l-1.219-1.418
		C448.021,176.271,436.341,189.684,432.991,189.5z"/>
</g>
<g>
	<path fill="#644F43" d="M417.929,23.225c-0.035-0.531,0.008-1.088,0.195-1.621c0.193-0.531,0.547-1.025,1.018-1.395
		c0.953-0.746,2.289-0.904,3.473-0.547c1.191,0.352,2.266,1.377,2.617,2.674c0.375,1.297,0.074,2.6-0.361,3.695
		c-0.064,0.148-0.102,0.248-0.195,0.436c-0.063,0.123-0.104,0.223-0.207,0.391c-0.184,0.318-0.359,0.549-0.561,0.805
		c-0.402,0.482-0.861,0.883-1.318,1.246c-0.922,0.713-1.863,1.268-2.736,1.83c-0.871,0.561-1.703,1.096-2.355,1.727
		c-0.324,0.314-0.605,0.646-0.832,0.998c-0.096,0.145-0.27,0.439-0.385,0.637l-0.348,0.641c-0.945,1.725-1.561,3.607-1.428,5.389
		c0.08,1.791,1.078,3.391,2.57,4.594c1.506,1.189,3.42,1.99,5.412,2.486c2,0.525,4.104,0.729,6.242,0.791
		c-2.086,0.498-4.27,0.643-6.457,0.439c-2.174-0.238-4.398-0.814-6.357-2.109c-0.977-0.639-1.881-1.471-2.551-2.508
		c-0.674-1.027-1.115-2.238-1.254-3.467c-0.26-2.486,0.545-4.811,1.58-6.809c0.131-0.248,0.279-0.5,0.428-0.75
		c0.158-0.256,0.254-0.42,0.453-0.717c0.357-0.535,0.781-1.008,1.227-1.422c0.902-0.822,1.873-1.441,2.816-1.975
		c1.883-1.063,3.701-1.941,4.457-3.473c0.432-0.82,0.664-1.701,0.547-2.496c-0.104-0.793-0.643-1.51-1.447-1.893
		c-0.789-0.4-1.807-0.449-2.646-0.025C418.669,21.207,418.095,22.17,417.929,23.225z"/>
</g>
<ellipse fill="#FFFFFF" cx="403.487" cy="119.996" rx="1.15" ry="1.709"/>
<g>
	<g>
		<path fill="#FFFFFF" d="M448.157,167.863c-0.902,30.295-52.141,30.295-53.041,0c-0.037-1.227-1.943-1.229-1.906,0
			c0.975,32.736,55.877,32.734,56.854,0C450.099,166.635,448.194,166.637,448.157,167.863L448.157,167.863z"/>
	</g>
</g>
<g>
	<path fill="#E5A53B" d="M453.821,170.303c1.379-1.311,1.283-3.646-0.213-5.223c-1.5-1.576-3.826-1.791-5.205-0.48
		C448.403,164.6,453.751,166.061,453.821,170.303z"/>
</g>
<g>
	<path fill="#E5A53B" d="M389.089,170.223c-1.316-1.373-1.111-3.701,0.459-5.205s3.904-1.611,5.221-0.238
		C394.769,164.779,389.36,165.99,389.089,170.223z"/>
</g>
</svg>
