<?xml version="1.0" encoding="utf-8"?>
<!-- Generator: Adobe Illustrator 16.0.0, SVG Export Plug-In . SVG Version: 6.00 Build 0)  -->
<!DOCTYPE svg PUBLIC "-//W3C//DTD SVG 1.1//EN" "http://www.w3.org/Graphics/SVG/1.1/DTD/svg11.dtd">
<svg version="1.1" id="Layer_1" xmlns="http://www.w3.org/2000/svg" xmlns:xlink="http://www.w3.org/1999/xlink" x="0px" y="0px"
	 width="841.889px" height="595.28px" viewBox="0 0 841.889 595.28" enable-background="new 0 0 841.889 595.28"
	 xml:space="preserve">
<path fill="#FBBF4F" d="M443.252,238.203c-2.484,1.963-29.073,14.383-59.481,15.881c-30.409,1.498-64.162-10.145-65.59-15.881
	c-3.043-12.227-5.548-136.65,0-154.482c3.863-12.414,28.428-48.102,65.617-45.293c0,0,49.271,10.002,55.636,54.928
	C445.79,138.238,448.25,234.252,443.252,238.203z"/>
<g>
	<g>
		<path fill="#FBBF4F" d="M319.938,152.414c-6.483-2.945-13.139-5.566-19.887-7.84c-6.485-2.184-17.324-6.549-23.331-1.168
			c-4.104,3.674-6.624,8.752-8.896,13.68c-1.691,3.67-2.824,9.234-6.393,11.564c-6.426,4.197-17.681,2.037-24.7,0.402
			c-2.79-0.648-3.975,3.639-1.182,4.289c7.214,1.68,14.94,2.426,22.271,1.225c10.357-1.699,11.802-11.469,15.92-19.521
			c1.873-3.664,4.688-9.395,9.354-9.633c4.585-0.236,9.428,1.453,13.743,2.793c7.102,2.203,14.086,4.975,20.855,8.049
			C320.283,157.43,322.545,153.6,319.938,152.414L319.938,152.414z"/>
	</g>
</g>
<g>
	<g>
		<path fill="#FBBF4F" d="M433.953,134.943c1.24,5.596,3.561,11.014,5.889,16.223c2.694,6.027,5.93,11.799,9.428,17.393
			c3.725,5.953,8.135,13.768,13.701,18.184c11.559,9.168,38.502-15.588,43.92,1.113c0.881,2.715,5.175,1.553,4.287-1.182
			c-6.269-19.326-28.657-1.867-41.291-2.039c-6.171-0.084-9.977-8.338-12.99-12.617c-4.408-6.262-8.271-12.906-11.653-19.771
			c-2.874-5.832-5.587-12.1-7.001-18.484C437.621,130.963,433.335,132.15,433.953,134.943L433.953,134.943z"/>
	</g>
</g>
<g>
	<g>
		<path fill="#FBBF4F" d="M364.688,241.371c-2.521,12.162-5.042,24.326-7.563,36.488c-1.106,5.336-2.213,10.674-3.319,16.012
			c-0.175,0.842,0.342-0.434,0.03,0.023c0.126-0.184-0.884,0.451-1.385,0.584c-4.806,1.281-11.026-3.201-14.741-5.559
			c-2.429-1.543-4.657,2.307-2.244,3.84c5.128,3.254,15.844,9.969,21.637,4.105c2.318-2.348,2.284-8.051,2.9-11.021
			c2.991-14.43,5.982-28.859,8.975-43.291C369.557,239.754,365.27,238.564,364.688,241.371L364.688,241.371z"/>
	</g>
</g>
<g>
	<g>
		<path fill="#FBBF4F" d="M397.662,242.412c2.808,14.195,5.614,28.391,8.421,42.584c0.64,3.234,0.567,9.014,2.835,11.68
			c5.39,6.334,16.867-0.711,21.804-3.781c2.429-1.512,0.198-5.359-2.244-3.84c-4.214,2.619-9.103,5.734-14.274,5.5
			c-0.635-0.029-1.375-0.279-1.851-0.707c-0.415-0.373,0.084,0.414,0.03,0.143c-1.008-5.1-2.016-10.197-3.024-15.297
			c-2.469-12.486-4.938-24.975-7.407-37.465C401.395,238.418,397.109,239.611,397.662,242.412L397.662,242.412z"/>
	</g>
</g>
<ellipse fill="#FFFFFF" cx="409.57" cy="128.146" rx="20.489" ry="19.166"/>
<ellipse fill="#FFFFFF" cx="346.467" cy="128.486" rx="20.489" ry="19.168"/>
<g>
	<path fill="#E5A53B" d="M330.659,102.15c1.355-1.158,2.816-2.174,4.31-3.162c1.506-0.965,3.079-1.842,4.735-2.586
		c1.645-0.742,3.348-1.604,5.268-1.695c0.948-0.061,1.922,0.004,2.867,0.236c0.939,0.232,1.863,0.643,2.568,1.313l-0.094,0.236
		c-1.851,0.043-3.377,0.348-4.981,0.73c-1.569,0.414-3.26,0.574-4.905,1.078c-1.634,0.51-3.258,1.129-4.863,1.811
		c-1.615,0.666-3.195,1.439-4.76,2.248L330.659,102.15z"/>
</g>
<g>
	<g>
		<path fill="#FFFFFF" d="M403.733,175.717c0.286,0.264,0.567,0.531,0.844,0.805c0.216,0.213,0.429,0.43,0.633,0.652
			c0.05,0.055,0.221,0.256,0.205,0.236c0.103,0.137,0.061,0.127,0.054,0.076c0.049,0.361,0.506,0.553,0.82,0.467
			c0.386-0.105,0.516-0.461,0.467-0.82c-0.068-0.502-0.685-0.998-1.016-1.336c-0.345-0.352-0.701-0.691-1.063-1.023
			C404.044,174.193,403.098,175.135,403.733,175.717L403.733,175.717z"/>
	</g>
</g>
<g>
	<g>
		<path fill="#FFFFFF" d="M347.666,177.066c0.263-0.285,0.531-0.566,0.804-0.844c0.213-0.215,0.43-0.428,0.653-0.633
			c0.055-0.049,0.257-0.219,0.235-0.203c0.138-0.104,0.128-0.063,0.077-0.055c0.361-0.049,0.553-0.506,0.467-0.82
			c-0.106-0.385-0.461-0.516-0.82-0.467c-0.502,0.068-0.999,0.686-1.336,1.016c-0.351,0.344-0.691,0.701-1.023,1.063
			C346.143,176.756,347.083,177.701,347.666,177.066L347.666,177.066z"/>
	</g>
</g>
<g>
	<path fill="#E5A53B" d="M425.113,103.049c-1.564-0.809-3.144-1.582-4.76-2.248c-1.605-0.682-3.229-1.301-4.863-1.811
		c-1.646-0.504-3.336-0.664-4.905-1.078c-1.604-0.385-3.131-0.688-4.981-0.732l-0.094-0.236c0.705-0.67,1.63-1.08,2.569-1.311
		c0.944-0.234,1.918-0.297,2.866-0.236c1.919,0.092,3.622,0.953,5.268,1.693c1.657,0.746,3.229,1.623,4.735,2.588
		c1.493,0.988,2.954,2.004,4.31,3.162L425.113,103.049z"/>
</g>
<g>
	<path fill="#EB6749" d="M387.96,196.883c2.855,3.928,8.801,4.467,13.291,1.203c4.491-3.264,5.814-9.084,2.958-13.014l-1.22-1.418
		C402.989,183.654,391.311,197.066,387.96,196.883z"/>
</g>
<g>
	<path fill="#644F43" d="M372.898,30.607c-0.036-0.531,0.007-1.088,0.195-1.623c0.192-0.531,0.546-1.025,1.018-1.393
		c0.952-0.746,2.289-0.906,3.473-0.547c1.19,0.352,2.265,1.375,2.616,2.674c0.376,1.297,0.075,2.6-0.361,3.693
		c-0.064,0.15-0.102,0.248-0.194,0.436c-0.063,0.123-0.104,0.225-0.207,0.393c-0.184,0.318-0.36,0.547-0.562,0.803
		c-0.402,0.484-0.86,0.885-1.317,1.246c-0.922,0.715-1.864,1.27-2.737,1.832c-0.871,0.561-1.703,1.094-2.355,1.727
		c-0.324,0.313-0.605,0.645-0.832,0.998c-0.096,0.145-0.269,0.438-0.385,0.637l-0.348,0.641c-0.944,1.725-1.561,3.607-1.427,5.389
		c0.079,1.789,1.077,3.391,2.569,4.592c1.506,1.189,3.42,1.992,5.412,2.488c2,0.525,4.104,0.727,6.242,0.791
		c-2.085,0.498-4.269,0.641-6.456,0.438c-2.175-0.236-4.398-0.813-6.358-2.109c-0.976-0.639-1.881-1.469-2.551-2.506
		c-0.674-1.029-1.115-2.24-1.254-3.467c-0.26-2.488,0.545-4.813,1.58-6.809c0.132-0.248,0.28-0.5,0.428-0.75
		c0.158-0.258,0.254-0.422,0.453-0.719c0.358-0.533,0.781-1.006,1.228-1.422c0.901-0.822,1.872-1.439,2.816-1.975
		c1.883-1.061,3.701-1.939,4.457-3.471c0.432-0.822,0.664-1.701,0.546-2.496c-0.103-0.795-0.643-1.512-1.447-1.895
		c-0.789-0.4-1.807-0.449-2.646-0.023C373.638,28.59,373.064,29.551,372.898,30.607z"/>
</g>
<g>
	<g>
		<path fill="#FFFFFF" d="M403.126,175.246c-0.902,30.293-52.14,30.295-53.041,0c-0.036-1.227-1.942-1.23-1.906,0
			c0.976,32.734,55.878,32.734,56.854,0C405.068,174.016,403.163,174.02,403.126,175.246L403.126,175.246z"/>
	</g>
</g>
<g>
	<path fill="#E5A53B" d="M408.791,177.684c1.378-1.309,1.283-3.645-0.214-5.221c-1.499-1.576-3.825-1.791-5.205-0.482
		C403.372,171.98,408.72,173.443,408.791,177.684z"/>
</g>
<g>
	<path fill="#E5A53B" d="M344.058,177.605c-1.315-1.373-1.111-3.701,0.459-5.207c1.57-1.504,3.904-1.609,5.222-0.236
		C349.738,172.162,344.329,173.373,344.058,177.605z"/>
</g>
<path fill="#1E1E1C" d="M417.7,128.043c0,8.844-4.403,16.014-9.834,16.014c-5.432,0-10.591-7.17-10.591-16.014
	s5.159-15.326,10.591-15.326C413.297,112.717,417.7,119.199,417.7,128.043z"/>
<path fill="#FFFFFF" d="M417.7,130.186c0,0.881-0.517,1.596-1.15,1.596c-0.636,0-1.151-0.715-1.151-1.596
	c0-0.885,0.516-1.6,1.151-1.6C417.184,128.586,417.7,129.301,417.7,130.186z"/>
<path opacity="0.65" fill="#FFFFFF" d="M407.487,140.213c0,0,1.89,1.836,4.918,0C412.405,140.213,409.882,144.916,407.487,140.213z"
	/>
<path fill="#1E1E1C" d="M359.936,128.242c0,8.846-4.402,16.016-9.834,16.016s-10.591-7.17-10.591-16.016
	c0-8.844,5.159-15.326,10.591-15.326S359.936,119.398,359.936,128.242z"/>
<path opacity="0.65" fill="#FFFFFF" d="M349.912,140.412c0,0,1.892,1.836,4.918,0C354.83,140.412,352.309,145.115,349.912,140.412z"
	/>
<ellipse fill="#FFFFFF" cx="358.785" cy="128.586" rx="1.15" ry="1.598"/>
</svg>
