<?xml version="1.0" encoding="utf-8"?>
<!-- Generator: Adobe Illustrator 16.0.0, SVG Export Plug-In . SVG Version: 6.00 Build 0)  -->
<!DOCTYPE svg PUBLIC "-//W3C//DTD SVG 1.1//EN" "http://www.w3.org/Graphics/SVG/1.1/DTD/svg11.dtd">
<svg version="1.1" id="Layer_1" xmlns="http://www.w3.org/2000/svg" xmlns:xlink="http://www.w3.org/1999/xlink" x="0px" y="0px"
	 width="841.891px" height="595.28px" viewBox="0 0 841.891 595.28" enable-background="new 0 0 841.891 595.28"
	 xml:space="preserve">
<path fill="#FBBF4F" d="M454.639,236.792c-2.621,2.07-30.671,15.174-62.75,16.754c-32.081,1.58-67.69-10.703-69.196-16.754
	c-3.211-12.898-5.854-144.162,0-162.975c4.076-13.096,29.99-50.746,69.225-47.781c0,0,51.979,10.549,58.693,57.945
	C457.315,131.333,459.911,232.622,454.639,236.792z"/>
<g>
	<g>
		<path fill="#FBBF4F" d="M324.546,146.288c-8.445-5.668-17.294-10.953-26.539-15.203c-4.363-2.006-9.688-4.512-14.627-3.84
			c-4.326,0.59-6.713,5.271-8.488,8.756c-5.926,11.629-8.706,24.574-13.09,36.793c-3.344,9.322-20.008-4.738-24-8.35
			c-2.238-2.023-5.567,1.283-3.318,3.318c6.539,5.914,16.178,13.908,25.566,12.611c4.277-0.59,5.719-4.646,6.906-8.139
			c2.225-6.547,4.139-13.197,6.367-19.744c2.135-6.271,4.35-12.824,8.068-18.363c3.06-4.563,9.395-1.104,13.346,0.605
			c9.611,4.156,18.758,9.777,27.441,15.605C324.698,152.03,327.044,147.964,324.546,146.288L324.546,146.288z"/>
	</g>
</g>
<g>
	<g>
		<path fill="#FBBF4F" d="M445.433,125.575c-3.393,4.383-2.189,11.084-0.73,15.926c2.315,7.689,6.951,14.629,11.695,21.002
			c4.424,5.941,9.154,11.445,16.168,14.248c9.4,3.758,19.138-1.34,27.527-5.258c3.528-1.648,7.736-3.688,11.73-2.797
			c6.02,1.342,8.448,10.037,9.951,14.98c0.879,2.887,5.406,1.654,4.523-1.248c-2.588-8.508-7.172-19.605-17.889-18.549
			c-8.895,0.879-16.334,7.322-25.063,9.113c-14.93,3.061-25.219-14.549-31.053-25.494c-2.402-4.51-4.371-9.631-4.299-14.813
			c0.018-1.125,0.226-2.209,0.584-3.271c0.012-0.035,0.921-1.494,0.17-0.523C450.575,126.53,447.28,123.185,445.433,125.575
			L445.433,125.575z"/>
	</g>
</g>
<g>
	<g>
		<path fill="#FBBF4F" d="M367.79,238.794c-0.886,13.029-1.77,26.057-2.651,39.086c-0.39,5.732-0.78,11.465-1.169,17.197
			c-0.096,1.404,0.543-1.07,0.129-0.32c-0.099,0.178-0.643,0.68-1.196,0.904c-4.907,2-11.898-1.504-16.171-3.463
			c-2.729-1.25-5.115,2.793-2.367,4.051c5.887,2.699,18.395,8.463,23.563,1.209c1.971-2.766,1.164-8.713,1.378-11.85
			c1.058-15.604,2.118-31.209,3.177-46.814C372.686,235.772,367.993,235.792,367.79,238.794L367.79,238.794z"/>
	</g>
</g>
<ellipse fill="#FFFFFF" cx="419.105" cy="122.017" rx="21.616" ry="18.912"/>
<ellipse fill="#FFFFFF" cx="352.534" cy="122.351" rx="21.615" ry="18.914"/>
<g>
	<path fill="#E5A53B" d="M335.856,93.261c1.43-1.223,2.971-2.293,4.546-3.336c1.589-1.018,3.248-1.943,4.997-2.73
		c1.736-0.779,3.531-1.691,5.557-1.785c1-0.064,2.027,0.002,3.025,0.248c0.989,0.244,1.965,0.678,2.709,1.385l-0.098,0.248
		c-1.953,0.047-3.564,0.367-5.257,0.771c-1.655,0.439-3.44,0.604-5.175,1.139c-1.725,0.537-3.438,1.189-5.131,1.91
		c-1.705,0.701-3.371,1.516-5.021,2.371L335.856,93.261z"/>
</g>
<g>
	<g>
		<path fill="#FFFFFF" d="M412.948,170.87c0.304,0.279,0.602,0.564,0.896,0.854c0.217,0.215,0.43,0.434,0.637,0.658
			c0.096,0.105,0.189,0.213,0.279,0.324c-0.04-0.049-0.037-0.043,0.008,0.016c0.09,0.133,0.033,0.193-0.015-0.17
			c0.051,0.381,0.281,0.703,0.704,0.703c0.347,0,0.754-0.322,0.703-0.703c-0.084-0.656-0.658-1.15-1.102-1.602
			c-0.361-0.369-0.736-0.727-1.115-1.074C413.276,169.263,412.278,170.257,412.948,170.87L412.948,170.87z"/>
	</g>
</g>
<g>
	<g>
		<path fill="#FFFFFF" d="M353.798,172.294c0.279-0.303,0.564-0.602,0.853-0.895c0.216-0.217,0.434-0.43,0.659-0.637
			c0.105-0.098,0.212-0.189,0.324-0.279c-0.05,0.039-0.043,0.037,0.016-0.008c0.133-0.09,0.193-0.033-0.17,0.014
			c0.381-0.049,0.703-0.281,0.703-0.703c0-0.346-0.322-0.752-0.703-0.703c-0.656,0.084-1.152,0.658-1.602,1.102
			c-0.369,0.361-0.728,0.734-1.073,1.115C352.19,171.966,353.183,172.964,353.798,172.294L353.798,172.294z"/>
	</g>
</g>
<g>
	<path fill="#E5A53B" d="M435.503,94.21c-1.65-0.855-3.317-1.67-5.021-2.373c-1.694-0.721-3.406-1.373-5.131-1.91
		c-1.734-0.535-3.52-0.699-5.174-1.139c-1.693-0.404-3.303-0.725-5.257-0.771l-0.097-0.248c0.742-0.707,1.719-1.141,2.709-1.385
		c0.996-0.246,2.022-0.313,3.022-0.248c2.026,0.094,3.823,1.008,5.56,1.787c1.748,0.785,3.406,1.711,4.994,2.73
		c1.576,1.041,3.117,2.113,4.546,3.336L435.503,94.21z"/>
</g>
<g>
	<path fill="#EB6749" d="M396.308,193.2c3.011,4.145,9.283,4.711,14.021,1.27c4.737-3.443,6.135-9.584,3.121-13.73l-1.287-1.496
		C412.163,179.243,399.843,193.394,396.308,193.2z"/>
</g>
<g>
	<path fill="#644F43" d="M380.417,17.784c-0.037-0.561,0.008-1.146,0.207-1.711c0.203-0.561,0.576-1.082,1.074-1.471
		c1.004-0.787,2.414-0.955,3.662-0.576c1.256,0.371,2.391,1.451,2.761,2.82c0.396,1.369,0.079,2.742-0.382,3.898
		c-0.068,0.156-0.105,0.262-0.204,0.459c-0.065,0.129-0.11,0.236-0.22,0.412c-0.194,0.336-0.379,0.578-0.59,0.848
		c-0.426,0.512-0.908,0.934-1.393,1.314c-0.971,0.754-1.967,1.338-2.887,1.934c-0.92,0.59-1.797,1.154-2.484,1.82
		c-0.343,0.33-0.639,0.682-0.879,1.053c-0.102,0.154-0.283,0.463-0.403,0.672l-0.368,0.676c-0.998,1.82-1.646,3.807-1.507,5.686
		c0.084,1.889,1.138,3.578,2.712,4.844c1.59,1.256,3.607,2.102,5.709,2.625c2.11,0.555,4.329,0.768,6.586,0.834
		c-2.199,0.525-4.504,0.678-6.812,0.463c-2.294-0.25-4.64-0.857-6.706-2.225c-1.031-0.674-1.986-1.551-2.692-2.645
		c-0.712-1.084-1.177-2.361-1.323-3.658c-0.274-2.623,0.574-5.076,1.668-7.182c0.138-0.262,0.295-0.527,0.451-0.793
		c0.166-0.27,0.268-0.443,0.477-0.756c0.378-0.564,0.824-1.063,1.294-1.5c0.953-0.867,1.976-1.52,2.974-2.084
		c1.986-1.119,3.904-2.047,4.703-3.662c0.455-0.865,0.699-1.795,0.574-2.633c-0.107-0.838-0.678-1.596-1.527-1.998
		c-0.83-0.424-1.906-0.475-2.791-0.025C381.198,15.655,380.593,16.671,380.417,17.784z"/>
</g>
<g>
	<g>
		<path fill="#FFFFFF" d="M412.308,170.374c-0.922,31.959-55.036,31.959-55.957,0c-0.039-1.295-2.049-1.299-2.013,0
			c0.464,16.051,14.905,26.031,29.991,26.363c15.084,0.334,29.538-10.801,29.988-26.363
			C414.354,169.075,412.345,169.079,412.308,170.374L412.308,170.374z"/>
	</g>
</g>
<g>
	<path fill="#E5A53B" d="M418.283,172.946c1.454-1.383,1.355-3.846-0.226-5.51c-1.582-1.662-4.036-1.889-5.491-0.508
		C412.566,166.929,418.208,168.472,418.283,172.946z"/>
</g>
<g>
	<path fill="#E5A53B" d="M349.991,172.862c-1.387-1.449-1.173-3.904,0.484-5.492c1.656-1.586,4.119-1.699,5.51-0.25
		C355.985,167.12,350.278,168.397,349.991,172.862z"/>
</g>
<path fill="#1E1E1C" d="M427.683,121.913c0,8.727-4.647,15.803-10.375,15.803c-5.73,0-11.174-7.076-11.174-15.803
	s5.443-15.123,11.174-15.123C423.035,106.79,427.683,113.187,427.683,121.913z"/>
<path fill="#FFFFFF" d="M427.683,124.028c0,0.869-0.544,1.574-1.215,1.574c-0.67,0-1.214-0.705-1.214-1.574
	c0-0.873,0.544-1.578,1.214-1.578C427.139,122.45,427.683,123.155,427.683,124.028z"/>
<path opacity="0.65" fill="#FFFFFF" d="M416.907,133.923c0,0,1.994,1.811,5.189,0C422.097,133.923,419.434,138.563,416.907,133.923z
	"/>
<path fill="#1E1E1C" d="M366.743,122.11c0,8.729-4.645,15.803-10.376,15.803c-5.729,0-11.173-7.074-11.173-15.803
	c0-8.727,5.444-15.123,11.173-15.123C362.099,106.987,366.743,113.384,366.743,122.11z"/>
<path opacity="0.65" fill="#FFFFFF" d="M356.167,134.12c0,0,1.996,1.811,5.189,0C361.356,134.12,358.696,138.761,356.167,134.12z"/>
<ellipse fill="#FFFFFF" cx="365.529" cy="122.45" rx="1.214" ry="1.576"/>
<g>
	<g>
		<path fill="#FBBF4F" d="M416.738,249.13c1.376,6.777,2.854,13.537,4.493,20.255c0.858,3.517,2.604,7.333,2.636,10.962
			c0.042,4.758-2.078,9.764-3.793,14.113c-1.355,3.439-4.943,7.464-2.036,10.807c4.859,5.588,15.809,1.425,21.128-0.584
			c2.656-1.003,1.506-5.303-1.182-4.287c-4.43,1.672-9.592,3.699-14.424,2.859c-1.084-0.188-2.515-1.246-2.527-1.283
			c0.459,1.293-0.49,2.254,0.402,0.384c0.678-1.416,1.308-2.853,1.926-4.295c1.53-3.575,2.869-7.221,3.888-10.977
			c1.981-7.309-0.278-12.931-2.005-20.008c-1.547-6.342-2.919-12.731-4.219-19.128C420.455,245.139,416.17,246.331,416.738,249.13
			L416.738,249.13z"/>
	</g>
</g>
</svg>
