<?xml version="1.0" encoding="utf-8"?>
<!-- Generator: Adobe Illustrator 16.0.0, SVG Export Plug-In . SVG Version: 6.00 Build 0)  -->
<!DOCTYPE svg PUBLIC "-//W3C//DTD SVG 1.1//EN" "http://www.w3.org/Graphics/SVG/1.1/DTD/svg11.dtd">
<svg version="1.1" id="Layer_1" xmlns="http://www.w3.org/2000/svg" xmlns:xlink="http://www.w3.org/1999/xlink" x="0px" y="0px"
	 width="841.89px" height="595.28px" viewBox="0 0 841.89 595.28" enable-background="new 0 0 841.89 595.28" xml:space="preserve">
<path fill="#FBBF4F" d="M454.633,240.785c-2.621,2.072-30.67,15.174-62.75,16.754s-67.688-10.703-69.193-16.754
	c-3.211-12.898-5.852-144.158,0-162.971c4.074-13.096,29.988-50.744,69.223-47.781c0,0,51.979,10.551,58.691,57.947
	C457.311,135.328,459.904,236.617,454.633,240.785z"/>
<g>
	<g>
		<path fill="#FBBF4F" d="M444.822,130.605c-2.521,8.578,2.877,19.426,6.771,26.613c6.613,12.207,16.617,28.725,32.648,26.432
			c11.15-1.594,20.449-10.611,29.465-16.615c3.582-2.385,7.783-5.141,12.258-5.008c5.59,0.164,8,7.947,9.285,12.162
			c0.879,2.885,5.406,1.654,4.523-1.246c-2.871-9.424-8.707-18.438-19.713-14.594c-10.17,3.551-18.154,12.086-27.492,17.254
			c-4.545,2.516-9.803,4.449-15.043,3.352c-8.375-1.756-13.826-11.438-18.111-17.871c-4.77-7.162-12.699-20.283-10.068-29.23
			C450.201,128.943,445.674,127.709,444.822,130.605L444.822,130.605z"/>
	</g>
</g>
<g>
	<g>
		<path fill="#FBBF4F" d="M364.213,241.521c0.684,13.348,1.369,26.697,2.055,40.045c0.281,5.497,0.563,10.993,0.846,16.49
			c0.037,0.729,0.131-0.306,0.145-0.333c-0.293,0.62-0.832,0.94-1.423,1.269c-4.573,2.536-12.076-0.36-16.483-1.775
			c-2.889-0.928-4.115,3.603-1.246,4.523c6.008,1.93,19.024,6.003,23.203-1.649c1.727-3.163,0.13-9.159-0.041-12.496
			c-0.788-15.358-1.576-30.715-2.363-46.073C368.75,238.512,364.059,238.497,364.213,241.521L364.213,241.521z"/>
	</g>
</g>
<g>
	<g>
		<path fill="#FBBF4F" d="M414.209,241.369c-1.064,15.34-2.129,30.68-3.191,46.021c-0.248,3.572-1.789,9.051-0.244,12.488
			c3.527,7.855,17.646,3.689,23.188,2.02c2.889-0.871,1.658-5.4-1.246-4.523c-4.998,1.506-10.867,3.342-16.051,1.656
			c-0.695-0.227-1.369-0.717-1.74-1.328c-0.258-0.428,0.031,0.547,0.049,0.291c0.385-5.541,0.77-11.084,1.154-16.625
			c0.924-13.334,1.848-26.668,2.773-40C419.109,238.348,414.416,238.367,414.209,241.369L414.209,241.369z"/>
	</g>
</g>
<ellipse fill="#FFFFFF" cx="419.1" cy="128.127" rx="21.615" ry="16.834"/>
<ellipse fill="#FFFFFF" cx="352.53" cy="128.426" rx="21.614" ry="16.836"/>
<g>
	<path fill="#E5A53B" d="M335.854,97.258c1.43-1.223,2.971-2.293,4.547-3.336c1.588-1.018,3.246-1.943,4.996-2.73
		c1.736-0.779,3.531-1.691,5.557-1.785c1-0.064,2.027,0.002,3.023,0.248c0.992,0.244,1.967,0.678,2.709,1.385l-0.098,0.25
		c-1.953,0.045-3.563,0.365-5.256,0.77c-1.654,0.439-3.439,0.604-5.174,1.139c-1.725,0.537-3.438,1.189-5.131,1.91
		c-1.705,0.701-3.371,1.516-5.021,2.371L335.854,97.258z"/>
</g>
<g>
	<g>
		<path fill="#FFFFFF" d="M412.941,174.865c0.305,0.279,0.602,0.564,0.896,0.854c0.217,0.215,0.43,0.434,0.637,0.658
			c0.098,0.105,0.189,0.213,0.279,0.324c-0.039-0.049-0.035-0.043,0.008,0.016c0.09,0.133,0.033,0.193-0.014-0.17
			c0.049,0.381,0.283,0.703,0.703,0.703c0.346,0,0.754-0.322,0.703-0.703c-0.084-0.656-0.658-1.15-1.102-1.602
			c-0.361-0.369-0.734-0.727-1.115-1.074C413.27,173.258,412.271,174.252,412.941,174.865L412.941,174.865z"/>
	</g>
</g>
<g>
	<g>
		<path fill="#FFFFFF" d="M353.795,176.291c0.279-0.305,0.564-0.602,0.854-0.896c0.213-0.217,0.432-0.43,0.656-0.637
			c0.105-0.098,0.213-0.189,0.324-0.279c-0.049,0.039-0.043,0.037,0.018-0.008c0.133-0.09,0.193-0.033-0.172,0.014
			c0.381-0.049,0.703-0.281,0.703-0.703c0-0.346-0.322-0.752-0.703-0.703c-0.656,0.084-1.15,0.658-1.602,1.102
			c-0.367,0.361-0.725,0.734-1.074,1.115C352.188,175.963,353.18,176.961,353.795,176.291L353.795,176.291z"/>
	</g>
</g>
<g>
	<path fill="#E5A53B" d="M435.496,98.207c-1.65-0.855-3.316-1.67-5.021-2.373c-1.693-0.721-3.406-1.371-5.131-1.91
		c-1.734-0.535-3.52-0.699-5.174-1.139c-1.693-0.404-3.303-0.725-5.256-0.771l-0.098-0.248c0.744-0.707,1.719-1.141,2.709-1.385
		c0.998-0.246,2.025-0.313,3.025-0.248c2.025,0.094,3.82,1.008,5.557,1.787c1.748,0.785,3.406,1.711,4.996,2.73
		c1.574,1.041,3.115,2.113,4.545,3.336L435.496,98.207z"/>
</g>
<g>
	<path fill="#EB6749" d="M393.52,199.73c2.508,4.467,8.67,5.764,13.777,2.896c5.105-2.867,7.211-8.801,4.701-13.271l-1.104-1.635
		C410.895,187.721,397.008,200.334,393.52,199.73z"/>
</g>
<g>
	<path fill="#644F43" d="M380.414,21.783c-0.037-0.561,0.006-1.148,0.205-1.713c0.205-0.559,0.576-1.08,1.074-1.469
		c1.004-0.787,2.414-0.955,3.662-0.576c1.256,0.371,2.391,1.451,2.762,2.82c0.395,1.369,0.078,2.742-0.383,3.898
		c-0.068,0.156-0.107,0.262-0.205,0.459c-0.066,0.129-0.109,0.234-0.219,0.412c-0.193,0.336-0.379,0.578-0.592,0.848
		c-0.424,0.512-0.908,0.934-1.391,1.314c-0.971,0.754-1.967,1.34-2.887,1.934c-0.92,0.592-1.797,1.154-2.484,1.82
		c-0.342,0.332-0.639,0.682-0.879,1.053c-0.1,0.152-0.283,0.463-0.404,0.672l-0.367,0.676c-0.996,1.82-1.646,3.807-1.504,5.686
		c0.082,1.889,1.135,3.576,2.711,4.844c1.588,1.256,3.607,2.102,5.709,2.625c2.109,0.555,4.328,0.768,6.584,0.834
		c-2.199,0.525-4.502,0.678-6.811,0.463c-2.293-0.25-4.639-0.859-6.707-2.225c-1.029-0.674-1.984-1.551-2.691-2.645
		c-0.711-1.086-1.176-2.361-1.322-3.658c-0.275-2.623,0.574-5.076,1.666-7.182c0.139-0.262,0.295-0.527,0.451-0.793
		c0.166-0.27,0.268-0.443,0.477-0.756c0.379-0.564,0.824-1.063,1.295-1.5c0.953-0.867,1.975-1.52,2.973-2.084
		c1.986-1.119,3.904-2.047,4.701-3.662c0.455-0.865,0.701-1.795,0.576-2.633c-0.107-0.838-0.678-1.596-1.525-1.998
		c-0.832-0.424-1.906-0.475-2.793-0.027C381.193,19.654,380.588,20.67,380.414,21.783z"/>
</g>
<g>
	<g>
		<path fill="#FFFFFF" d="M412.301,174.369c-0.922,31.959-55.033,31.959-55.955,0c-0.037-1.295-2.047-1.299-2.01,0
			c0.463,16.049,14.9,26.031,29.986,26.363c15.086,0.334,29.541-10.801,29.99-26.363C414.35,173.07,412.34,173.074,412.301,174.369
			L412.301,174.369z"/>
	</g>
</g>
<g>
	<path fill="#E5A53B" d="M418.277,176.941c1.453-1.381,1.354-3.846-0.225-5.51c-1.582-1.662-4.035-1.889-5.492-0.506
		C412.561,170.926,418.203,172.467,418.277,176.941z"/>
</g>
<g>
	<path fill="#E5A53B" d="M349.986,176.857c-1.387-1.449-1.172-3.904,0.484-5.492c1.658-1.586,4.119-1.699,5.51-0.25
		C355.98,171.115,350.273,172.393,349.986,176.857z"/>
</g>
<path fill="#1E1E1C" d="M427.676,128.037c0,7.768-4.645,14.064-10.373,14.064c-5.73,0-11.174-6.297-11.174-14.064
	c0-7.77,5.443-13.463,11.174-13.463C423.031,114.574,427.676,120.268,427.676,128.037z"/>
<ellipse fill="#FFFFFF" cx="426.462" cy="129.918" rx="1.214" ry="1.402"/>
<path opacity="0.65" fill="#FFFFFF" d="M416.902,138.727c0,0,1.994,1.611,5.188,0C422.09,138.727,419.428,142.855,416.902,138.727z"
	/>
<path fill="#1E1E1C" d="M366.738,128.211c0,7.77-4.645,14.066-10.375,14.066c-5.729,0-11.172-6.297-11.172-14.066
	c0-7.768,5.443-13.461,11.172-13.461C362.094,114.75,366.738,120.443,366.738,128.211z"/>
<path opacity="0.65" fill="#FFFFFF" d="M356.164,138.9c0,0,1.996,1.613,5.188,0C361.352,138.9,358.691,143.031,356.164,138.9z"/>
<ellipse fill="#FFFFFF" cx="365.524" cy="128.514" rx="1.214" ry="1.404"/>
<g>
	<g>
		<path fill="#FBBF4F" d="M237.84,180.324c7.617,5.984,17.969,11.705,27.949,10.484c11.775-1.441,16.158-14.635,17.902-24.584
			c1.635-9.324-1.555-33.01,13.584-32.754c8.893,0.148,18.465,11.859,22.891,17.699c1.709,2.254,5.574,0.041,3.84-2.244
			c-5.406-7.135-12.176-14.301-20.346-18.188c-8.701-4.141-17.68,0.346-20.984,8.998c-5.283,13.83,0.641,31.828-10.861,43.408
			c-8.453,8.512-23.762-0.41-30.83-5.965C238.756,175.43,235.586,178.553,237.84,180.324L237.84,180.324z"/>
	</g>
</g>
</svg>
