<?xml version="1.0" encoding="utf-8"?>
<!-- Generator: Adobe Illustrator 16.0.0, SVG Export Plug-In . SVG Version: 6.00 Build 0)  -->
<!DOCTYPE svg PUBLIC "-//W3C//DTD SVG 1.1//EN" "http://www.w3.org/Graphics/SVG/1.1/DTD/svg11.dtd">
<svg version="1.1" id="Layer_1" xmlns="http://www.w3.org/2000/svg" xmlns:xlink="http://www.w3.org/1999/xlink" x="0px" y="0px"
	 width="841.89px" height="595.28px" viewBox="0 0 841.89 595.28" enable-background="new 0 0 841.89 595.28" xml:space="preserve">
<path fill="#FBBF4F" d="M461.883,254.166c-2.709,2.141-31.688,15.677-64.833,17.309c-33.145,1.633-69.934-11.057-71.488-17.309
	c-3.318-13.326-6.047-148.941,0-168.377c4.209-13.53,30.982-52.428,71.519-49.367c0,0,53.704,10.901,60.64,59.869
	C464.649,145.21,467.329,249.858,461.883,254.166z"/>
<g>
	<g>
		<path fill="#FBBF4F" d="M451.746,141.619c0.169,1.047,1.153,2.221,1.711,3.054c3.358,5.016,7.185,9.742,10.923,14.473
			c9.361,11.845,18.057,26.764,35.221,23.381c12.115-2.388,22.284-11.292,32.694-17.358c4.112-2.396,8.795-4.917,13.701-4.585
			c5.909,0.4,8.524,7.91,9.939,12.55c0.909,2.981,5.589,1.709,4.673-1.288c-3.268-10.716-10.104-18.917-22.033-14.998
			c-11.479,3.772-20.835,12.619-31.6,17.922c-5.014,2.47-10.776,4.321-16.391,3.165c-8.742-1.8-14.221-11.543-19.336-17.901
			c-4.434-5.512-8.879-11.046-12.943-16.84c-0.635-0.903-1.26-1.819-1.811-2.776c-0.355-0.619-0.134-0.448-0.075-0.086
			C455.923,137.251,451.254,138.562,451.746,141.619L451.746,141.619z"/>
	</g>
</g>
<g>
	<g>
		<path fill="#FBBF4F" d="M423.888,253.355c-2.941,15.837-5.883,31.674-8.824,47.511c-0.598,3.218-2.941,8.996-1.744,12.306
			c3.145,8.697,17.379,6.133,23.904,4.952c3.073-0.556,1.768-5.227-1.287-4.674c-5.043,0.912-11.781,2.235-16.596-0.372
			c-0.682-0.369-1.16-0.883-1.502-1.562c-0.176-0.352,0,0.855,0.01,0.8c1.045-5.623,2.09-11.246,3.135-16.87
			c2.525-13.601,5.053-27.203,7.579-40.804C429.13,251.589,424.458,250.284,423.888,253.355L423.888,253.355z"/>
	</g>
</g>
<ellipse fill="#FFFFFF" cx="425.17" cy="143.318" rx="22.333" ry="11.941"/>
<ellipse fill="#FFFFFF" cx="356.392" cy="143.529" rx="22.332" ry="11.942"/>
<g>
	<path fill="#E5A53B" d="M339.163,105.876c1.477-1.263,3.068-2.37,4.695-3.447c1.643-1.052,3.356-2.009,5.162-2.821
		c1.795-0.805,3.65-1.749,5.742-1.846c1.033-0.066,2.096,0.003,3.125,0.257c1.023,0.252,2.031,0.7,2.799,1.43l-0.102,0.258
		c-2.018,0.047-3.682,0.378-5.43,0.796c-1.71,0.453-3.555,0.623-5.348,1.175c-1.78,0.555-3.55,1.229-5.301,1.973
		c-1.76,0.726-3.482,1.567-5.188,2.451L339.163,105.876z"/>
</g>
<g>
	<g>
		<path fill="#FFFFFF" d="M418.81,186.059c0.314,0.29,0.625,0.586,0.93,0.887c0.236,0.233,0.469,0.471,0.693,0.717
			c0.039,0.044,0.246,0.289,0.193,0.22c0.135,0.177,0.1,0.331,0.049-0.088c0.049,0.393,0.293,0.727,0.727,0.727
			c0.359,0,0.775-0.333,0.727-0.727c-0.084-0.68-0.686-1.195-1.143-1.66c-0.373-0.378-0.757-0.746-1.148-1.104
			C419.147,184.398,418.116,185.424,418.81,186.059L418.81,186.059z"/>
	</g>
</g>
<g>
	<g>
		<path fill="#FFFFFF" d="M357.698,187.531c0.29-0.316,0.586-0.625,0.887-0.931c0.234-0.237,0.471-0.469,0.718-0.692
			c0.044-0.041,0.288-0.246,0.22-0.194c0.178-0.135,0.332-0.1-0.088-0.048c0.393-0.049,0.727-0.294,0.727-0.727
			c0-0.359-0.332-0.776-0.727-0.727c-0.68,0.084-1.195,0.686-1.66,1.144c-0.379,0.372-0.746,0.756-1.104,1.147
			C356.038,187.192,357.063,188.223,357.698,187.531L357.698,187.531z"/>
	</g>
</g>
<g>
	<path fill="#E5A53B" d="M442.112,106.855c-1.707-0.883-3.428-1.725-5.189-2.45c-1.749-0.745-3.52-1.418-5.301-1.974
		c-1.791-0.553-3.636-0.723-5.346-1.176c-1.748-0.418-3.412-0.75-5.43-0.797l-0.102-0.258c0.768-0.73,1.775-1.178,2.8-1.43
		c1.03-0.254,2.091-0.323,3.124-0.257c2.093,0.098,3.947,1.042,5.742,1.847c1.806,0.812,3.52,1.769,5.161,2.82
		c1.627,1.077,3.22,2.184,4.696,3.447L442.112,106.855z"/>
</g>
<g>
	<path fill="#EB6749" d="M398.741,211.749c2.592,4.615,8.958,5.955,14.234,2.993c5.275-2.962,7.451-9.094,4.857-13.711l-1.141-1.69
		C416.692,199.34,402.346,212.373,398.741,211.749z"/>
</g>
<g>
	<path fill="#644F43" d="M385.2,27.896c-0.039-0.579,0.006-1.185,0.213-1.768c0.211-0.579,0.596-1.118,1.109-1.518
		c1.037-0.813,2.494-0.987,3.785-0.596c1.297,0.383,2.467,1.5,2.852,2.915c0.408,1.414,0.08,2.833-0.396,4.026
		c-0.071,0.162-0.11,0.271-0.211,0.474c-0.068,0.134-0.112,0.243-0.226,0.426c-0.201,0.348-0.393,0.597-0.611,0.876
		c-0.439,0.528-0.938,0.964-1.437,1.358c-1.005,0.779-2.032,1.383-2.983,1.997c-0.949,0.611-1.855,1.193-2.566,1.881
		c-0.355,0.342-0.66,0.704-0.908,1.087c-0.104,0.158-0.292,0.479-0.418,0.695c-0.127,0.228-0.256,0.454-0.379,0.697
		c-1.029,1.88-1.701,3.932-1.555,5.873c0.055,0.969,0.334,1.9,0.818,2.747c0.49,0.841,1.174,1.602,1.982,2.259
		c1.641,1.296,3.727,2.17,5.898,2.711c2.18,0.573,4.473,0.793,6.803,0.862c-2.271,0.542-4.652,0.7-7.036,0.478
		c-2.37-0.258-4.794-0.887-6.929-2.298c-1.064-0.696-2.051-1.603-2.781-2.732c-0.734-1.121-1.217-2.44-1.367-3.778
		c-0.283-2.711,0.594-5.245,1.722-7.421c0.144-0.271,0.306-0.545,0.466-0.818c0.172-0.279,0.277-0.458,0.492-0.782
		c0.393-0.582,0.853-1.097,1.34-1.549c0.982-0.896,2.039-1.57,3.069-2.153c2.053-1.157,4.034-2.114,4.856-3.785
		c0.471-0.894,0.725-1.854,0.597-2.72c-0.112-0.866-0.7-1.647-1.577-2.064c-0.859-0.437-1.969-0.489-2.885-0.027
		C386.006,25.698,385.382,26.746,385.2,27.896z"/>
</g>
<g>
	<g>
		<path fill="#FFFFFF" d="M418.147,185.545c-0.924,33.017-56.889,33.018-57.813,0c-0.038-1.337-2.115-1.34-2.078,0
			c0.465,16.573,15.408,26.906,30.982,27.24s30.535-11.153,30.984-27.24C420.262,184.205,418.185,184.208,418.147,185.545
			L418.147,185.545z"/>
	</g>
</g>
<g>
	<path fill="#E5A53B" d="M424.321,188.203c1.5-1.427,1.398-3.973-0.234-5.691c-1.633-1.718-4.167-1.952-5.672-0.524
		C418.415,181.987,424.243,183.58,424.321,188.203z"/>
</g>
<g>
	<path fill="#E5A53B" d="M353.765,188.117c-1.434-1.497-1.211-4.034,0.5-5.674c1.713-1.64,4.256-1.755,5.692-0.259
		C359.957,182.184,354.06,183.503,353.765,188.117z"/>
</g>
<path fill="#1E1E1C" d="M434.031,143.253c0,5.51-4.8,9.978-10.718,9.978c-5.92,0-11.544-4.467-11.544-9.978
	c0-5.511,5.624-9.549,11.544-9.549C429.231,133.704,434.031,137.742,434.031,143.253z"/>
<path fill="#FFFFFF" d="M434.031,144.588c0,0.549-0.563,0.995-1.253,0.995c-0.692,0-1.256-0.446-1.256-0.995
	c0-0.55,0.563-0.996,1.256-0.996C433.468,143.592,434.031,144.038,434.031,144.588z"/>
<path opacity="0.65" fill="#FFFFFF" d="M422.899,150.836c0,0,2.061,1.143,5.359,0C428.259,150.836,425.509,153.766,422.899,150.836z
	"/>
<path fill="#1E1E1C" d="M371.071,143.378c0,5.511-4.799,9.978-10.719,9.978s-11.543-4.467-11.543-9.978s5.623-9.55,11.543-9.55
	S371.071,137.867,371.071,143.378z"/>
<path opacity="0.65" fill="#FFFFFF" d="M360.147,150.96c0,0,2.061,1.144,5.359,0C365.507,150.96,362.758,153.89,360.147,150.96z"/>
<ellipse fill="#FFFFFF" cx="369.817" cy="143.592" rx="1.254" ry="0.996"/>
<g>
	<g>
		<path fill="#FBBF4F" d="M246.353,182.175c5.857,7.704,13.453,15.621,22.729,18.949c9.726,3.489,17.968-4.546,20.158-13.333
			c2.2-8.827,0.81-18.126,3.954-26.749c2.158-5.915,6.943-10.316,12.537-12.921c9.354-4.356,22.066,11.356,26.408,17.084
			c1.709,2.254,5.573,0.042,3.84-2.244c-5.847-7.714-13.389-15.724-22.649-19.11c-10.731-3.923-20.78,7.234-24.423,16.009
			c-4.92,11.849,1.496,29.748-11.757,36.866c-9.327,5.009-22.628-11.099-26.958-16.794
			C248.481,177.68,244.616,179.891,246.353,182.175L246.353,182.175z"/>
	</g>
</g>
<g>
	<g>
		<path fill="#FBBF4F" d="M372.531,267.213c-6.161,6.855-10.841,15.363-13.423,24.185c-2.113,7.231-1.03,14.161-0.518,21.514
			c0.141,1.974,0.199,3.964,0.033,5.937c-0.13,1.549,1.602-0.6,2.596,0.395c-1.045-1.044-2.724-0.751-3.491,0.45
			c0.203-0.317-1.034,0.533-2.143,0.579c-4.937,0.205-10.077-3.93-13.79-6.648c-2.317-1.697-4.532,2.164-2.244,3.84
			c4.364,3.195,17.141,12.105,22.017,4.474c-1.164,0.15-2.328,0.3-3.493,0.45c1.229,1.229,3.341,0.961,4.215-0.557
			c2.038-3.538,0.745-9.455,0.396-13.179c-0.931-9.921,0.488-18.103,5.202-26.957c2.137-4.009,4.745-7.95,7.787-11.337
			C377.586,268.231,374.451,265.075,372.531,267.213L372.531,267.213z"/>
	</g>
</g>
</svg>
