<?xml version="1.0" encoding="utf-8"?>
<!-- Generator: Adobe Illustrator 16.0.0, SVG Export Plug-In . SVG Version: 6.00 Build 0)  -->
<!DOCTYPE svg PUBLIC "-//W3C//DTD SVG 1.1//EN" "http://www.w3.org/Graphics/SVG/1.1/DTD/svg11.dtd">
<svg version="1.1" id="Layer_1" xmlns="http://www.w3.org/2000/svg" xmlns:xlink="http://www.w3.org/1999/xlink" x="0px" y="0px"
	 width="841.889px" height="595.28px" viewBox="0 0 841.889 595.28" enable-background="new 0 0 841.889 595.28"
	 xml:space="preserve">
<path fill="#FBBF4F" d="M461.883,264.166c-2.709,2.141-31.689,15.677-64.832,17.309c-33.145,1.633-69.935-11.057-71.49-17.309
	c-3.318-13.326-6.046-148.941,0-168.377c4.21-13.53,30.982-52.428,71.52-49.367c0,0,53.704,10.901,60.639,59.869
	C464.648,155.21,467.329,259.858,461.883,264.166z"/>
<g>
	<g>
		<path fill="#FBBF4F" d="M454.746,150.331c-1.926,6.255-0.512,13.532,2.795,19.026c3.512,5.832,9.477,9.479,15.594,12.053
			c5.668,2.386,13.055,5.083,19.025,2.352c10.471-4.789,18.15-14.417,28.494-19.663c18.625-9.446,33.602,4.617,43.525,19.614
			c1.717,2.593,5.916,0.169,4.186-2.446c-8.607-13.007-21.36-27.385-38.621-25.044c-12.318,1.671-22.037,10.263-31.436,17.687
			c-3.012,2.379-7.084,6.15-11.168,6.236c-7.658,0.161-17.486-4.649-22.83-9.964c-4.633-4.605-6.844-12.215-4.891-18.562
			C460.342,148.624,455.662,147.353,454.746,150.331L454.746,150.331z"/>
	</g>
</g>
<g>
	<g>
		<path fill="#FBBF4F" d="M357.638,264.331c5.327,13.094,10.654,26.188,15.981,39.283c2.055,5.051,4.109,10.103,6.165,15.153
			c-0.155-0.38,0.011-0.632-0.044-0.345c-0.133,0.684-0.561,1.18-1.039,1.668c-3.768,3.846-11.584,3.668-16.426,3.78
			c-3.12,0.073-3.127,4.92,0,4.848c6.682-0.156,19.971-0.498,22.138-9.008c0.921-3.615-2.616-8.771-3.891-11.905
			c-6.07-14.921-12.14-29.842-18.211-44.762C361.15,260.187,356.459,261.434,357.638,264.331L357.638,264.331z"/>
	</g>
</g>
<g>
	<g>
		<path fill="#FBBF4F" d="M425.253,263.18c-3.601,15.7-7.202,31.401-10.804,47.101c-0.742,3.24-3.385,8.994-2.139,12.392
			c3.143,8.563,17.064,6.571,23.688,5.654c3.084-0.427,1.766-5.097-1.289-4.674c-5.08,0.703-11.588,1.63-16.318-0.998
			c-0.697-0.388-1.195-0.924-1.553-1.624c-0.145-0.283,0.125-0.039-0.049,0.718c1.219-5.315,2.438-10.63,3.656-15.945
			c3.16-13.778,6.321-27.557,9.481-41.335C430.625,261.426,425.951,260.134,425.253,263.18L425.253,263.18z"/>
	</g>
</g>
<ellipse fill="#FFFFFF" cx="425.17" cy="160.134" rx="22.332" ry="5.244"/>
<ellipse fill="#FFFFFF" cx="356.392" cy="160.228" rx="22.332" ry="5.244"/>
<g>
	<path fill="#E5A53B" d="M339.162,115.876c1.478-1.263,3.069-2.37,4.697-3.447c1.642-1.052,3.355-2.009,5.16-2.821
		c1.796-0.805,3.65-1.749,5.743-1.846c1.032-0.066,2.095,0.003,3.124,0.257c1.023,0.252,2.031,0.7,2.8,1.43l-0.102,0.258
		c-2.018,0.047-3.682,0.378-5.43,0.796c-1.71,0.453-3.556,0.623-5.347,1.175c-1.781,0.555-3.551,1.229-5.301,1.973
		c-1.762,0.726-3.482,1.567-5.188,2.451L339.162,115.876z"/>
</g>
<g>
	<g>
		<path fill="#FFFFFF" d="M418.809,196.059c0.316,0.29,0.626,0.586,0.932,0.887c0.236,0.233,0.469,0.471,0.691,0.717
			c0.041,0.044,0.246,0.289,0.195,0.22c0.135,0.177,0.1,0.331,0.047-0.088c0.049,0.393,0.295,0.727,0.727,0.727
			c0.359,0,0.777-0.333,0.729-0.727c-0.086-0.68-0.686-1.195-1.145-1.66c-0.371-0.378-0.756-0.746-1.146-1.104
			C419.148,194.398,418.117,195.424,418.809,196.059L418.809,196.059z"/>
	</g>
</g>
<g>
	<g>
		<path fill="#FFFFFF" d="M357.699,197.531c0.289-0.316,0.586-0.625,0.887-0.931c0.232-0.237,0.471-0.469,0.717-0.692
			c0.044-0.041,0.289-0.246,0.221-0.194c0.176-0.135,0.33-0.1-0.089-0.048c0.394-0.049,0.728-0.294,0.728-0.727
			c0-0.359-0.334-0.776-0.728-0.727c-0.681,0.084-1.194,0.686-1.661,1.144c-0.377,0.372-0.744,0.756-1.104,1.147
			C356.037,197.192,357.064,198.223,357.699,197.531L357.699,197.531z"/>
	</g>
</g>
<g>
	<path fill="#E5A53B" d="M442.112,116.855c-1.706-0.883-3.429-1.725-5.188-2.45c-1.75-0.745-3.521-1.418-5.301-1.974
		c-1.793-0.553-3.637-0.723-5.347-1.176c-1.748-0.418-3.412-0.75-5.43-0.797l-0.102-0.258c0.767-0.73,1.774-1.178,2.8-1.43
		c1.03-0.254,2.09-0.323,3.124-0.257c2.093,0.098,3.947,1.042,5.741,1.847c1.807,0.812,3.521,1.769,5.162,2.82
		c1.627,1.077,3.219,2.184,4.695,3.447L442.112,116.855z"/>
</g>
<g>
	<path fill="#EB6749" d="M398.741,221.749c2.592,4.615,8.958,5.955,14.234,2.993c5.274-2.962,7.451-9.094,4.857-13.711l-1.14-1.69
		C416.693,209.34,402.346,222.373,398.741,221.749z"/>
</g>
<g>
	<path fill="#644F43" d="M385.2,37.896c-0.039-0.579,0.007-1.185,0.213-1.768c0.21-0.579,0.597-1.118,1.109-1.518
		c1.038-0.813,2.493-0.987,3.785-0.596c1.296,0.383,2.468,1.5,2.853,2.915c0.407,1.414,0.079,2.833-0.396,4.026
		c-0.07,0.162-0.111,0.271-0.211,0.474c-0.068,0.134-0.113,0.243-0.227,0.426c-0.199,0.348-0.392,0.597-0.609,0.876
		c-0.44,0.528-0.939,0.964-1.438,1.358c-1.005,0.779-2.033,1.383-2.984,1.997c-0.948,0.611-1.854,1.193-2.566,1.881
		c-0.354,0.342-0.66,0.704-0.908,1.087c-0.102,0.158-0.291,0.479-0.417,0.695c-0.127,0.228-0.256,0.454-0.379,0.697
		c-1.03,1.88-1.702,3.932-1.555,5.873c0.054,0.969,0.333,1.9,0.818,2.747c0.489,0.841,1.174,1.602,1.982,2.259
		c1.64,1.296,3.727,2.17,5.898,2.711c2.179,0.573,4.472,0.793,6.802,0.862c-2.271,0.542-4.651,0.7-7.035,0.478
		c-2.371-0.258-4.794-0.887-6.928-2.298c-1.066-0.696-2.052-1.603-2.783-2.732c-0.734-1.121-1.215-2.44-1.366-3.778
		c-0.283-2.711,0.594-5.245,1.722-7.421c0.144-0.271,0.306-0.545,0.466-0.818c0.173-0.279,0.276-0.458,0.493-0.782
		c0.392-0.582,0.852-1.097,1.339-1.549c0.982-0.896,2.039-1.57,3.069-2.153c2.053-1.157,4.033-2.114,4.857-3.785
		c0.471-0.894,0.724-1.854,0.596-2.72c-0.112-0.866-0.7-1.647-1.577-2.064c-0.86-0.437-1.969-0.489-2.885-0.027
		C386.006,35.698,385.383,36.746,385.2,37.896z"/>
</g>
<g>
	<g>
		<path fill="#FFFFFF" d="M418.146,195.545c-0.924,33.017-56.889,33.018-57.813,0c-0.037-1.337-2.115-1.34-2.076,0
			c0.463,16.573,15.407,26.906,30.981,27.24c15.573,0.333,30.534-11.153,30.985-27.24
			C420.262,194.205,418.184,194.208,418.146,195.545L418.146,195.545z"/>
	</g>
</g>
<g>
	<path fill="#E5A53B" d="M424.32,198.203c1.502-1.427,1.398-3.973-0.232-5.691c-1.635-1.718-4.168-1.952-5.674-0.524
		C418.414,191.987,424.242,193.58,424.32,198.203z"/>
</g>
<g>
	<path fill="#E5A53B" d="M353.764,198.117c-1.434-1.497-1.21-4.034,0.5-5.674c1.713-1.64,4.256-1.755,5.693-0.259
		C359.957,192.184,354.061,193.503,353.764,198.117z"/>
</g>
<path fill="#1E1E1C" d="M434.031,160.106c0,2.42-4.8,4.382-10.719,4.382c-5.92,0-11.543-1.962-11.543-4.382
	s5.623-4.193,11.543-4.193C429.231,155.913,434.031,157.686,434.031,160.106z"/>
<ellipse fill="#FFFFFF" cx="432.777" cy="160.692" rx="1.254" ry="0.437"/>
<path opacity="0.65" fill="#FFFFFF" d="M422.899,163.436c0,0,2.06,0.502,5.36,0C428.26,163.436,425.51,164.723,422.899,163.436z"/>
<path fill="#1E1E1C" d="M371.071,160.161c0,2.42-4.799,4.382-10.72,4.382c-5.92,0-11.543-1.961-11.543-4.382
	c0-2.42,5.623-4.193,11.543-4.193C366.272,155.967,371.071,157.741,371.071,160.161z"/>
<path opacity="0.65" fill="#FFFFFF" d="M360.146,163.491c0,0,2.061,0.502,5.361,0C365.508,163.491,362.758,164.777,360.146,163.491z
	"/>
<ellipse fill="#FFFFFF" cx="369.817" cy="160.255" rx="1.254" ry="0.438"/>
<g>
	<g>
		<path fill="#FBBF4F" d="M238.772,187.043c5.857,7.704,13.454,15.621,22.729,18.949c10.277,3.687,18.377-5.207,20.379-14.338
			c1.822-8.317,0.029-17.579,4.82-24.993c3.282-5.076,9.814-8.028,15.68-8.534c6.383-0.551,12.91,4.315,17.879,7.739
			c4.287,2.955,8.393,6.263,12.228,9.789c2.106,1.937,5.259-1.2,3.146-3.145c-8.133-7.478-18.082-15.807-28.994-18.506
			c-10.203-2.523-21.959,5.225-25.85,14.319c-4.551,10.639,1.625,28.758-12.313,33.715c-6.19,2.202-13.555-4.509-17.63-8.269
			c-2.783-2.568-6.416-6.582-8.233-8.972C240.9,182.548,237.036,184.759,238.772,187.043L238.772,187.043z"/>
	</g>
</g>
</svg>
