<?xml version="1.0" encoding="utf-8"?>
<!-- Generator: Adobe Illustrator 16.0.0, SVG Export Plug-In . SVG Version: 6.00 Build 0)  -->
<!DOCTYPE svg PUBLIC "-//W3C//DTD SVG 1.1//EN" "http://www.w3.org/Graphics/SVG/1.1/DTD/svg11.dtd">
<svg version="1.1" id="Layer_1" xmlns="http://www.w3.org/2000/svg" xmlns:xlink="http://www.w3.org/1999/xlink" x="0px" y="0px"
	 width="841.891px" height="595.28px" viewBox="0 0 841.891 595.28" enable-background="new 0 0 841.891 595.28"
	 xml:space="preserve">
<path fill="#FBBF4F" d="M461.884,274.166c-2.709,2.141-31.688,15.677-64.833,17.309c-33.145,1.633-69.934-11.057-71.488-17.309
	c-3.318-13.326-6.047-148.941,0-168.377c4.209-13.53,30.982-52.428,71.519-49.367c0,0,53.704,10.901,60.64,59.869
	C464.649,165.21,467.33,269.858,461.884,274.166z"/>
<g>
	<g>
		<path fill="#FBBF4F" d="M451.681,186.26c1.378,8.622,8.487,15.444,16.43,18.226c8.219,2.878,19.343,1.819,27.298-1.368
			c3.662-1.467,5.905-5.11,7.735-8.412c5.507-9.934,8.942-21.098,17.194-29.28c12.771-12.664,31.045-5.428,44.347,2.385
			c2.701,1.586,5.14-2.604,2.447-4.186c-12.914-7.584-29.191-14.269-43.577-6.617c-10.25,5.452-15.769,16.885-20.495,26.907
			c-1.965,4.167-3.814,8.505-6.545,12.244c-0.754,1.032-1.803,2.112-3.042,2.521c-5.422,1.789-11.261,2.622-16.96,2.428
			c-9.347-0.319-18.611-6.454-20.159-16.137C455.862,181.892,451.192,183.203,451.681,186.26L451.681,186.26z"/>
	</g>
</g>
<g>
	<g>
		<path fill="#FBBF4F" d="M361.109,274.324c3.92,13.583,7.839,27.164,11.758,40.747c1.512,5.239,3.023,10.479,4.535,15.718
			c-0.09-0.313,0.153-1.327-0.145-0.354c-0.076,0.251-0.757,1.049-1.252,1.406c-4.477,3.232-11.773,2.337-16.863,1.917
			c-3.117-0.256-3.092,4.593,0,4.848c6.887,0.566,19.694,1.465,22.789-6.883c1.24-3.344-1.865-9.186-2.75-12.256
			c-4.467-15.478-8.932-30.954-13.397-46.431C364.92,270.039,360.242,271.314,361.109,274.324L361.109,274.324z"/>
	</g>
</g>
<g>
	<path fill="#E5A53B" d="M339.164,125.876c1.477-1.263,3.068-2.37,4.696-3.447c1.642-1.052,3.354-2.009,5.161-2.821
		c1.795-0.805,3.65-1.749,5.742-1.846c1.033-0.066,2.094,0.003,3.125,0.257c1.023,0.252,2.031,0.7,2.799,1.43l-0.102,0.258
		c-2.018,0.047-3.682,0.378-5.43,0.796c-1.711,0.453-3.555,0.623-5.348,1.175c-1.78,0.555-3.55,1.229-5.301,1.973
		c-1.76,0.726-3.482,1.567-5.188,2.451L339.164,125.876z"/>
</g>
<g>
	<g>
		<path fill="#FFFFFF" d="M418.811,206.059c0.315,0.29,0.625,0.586,0.93,0.887c0.236,0.233,0.469,0.471,0.693,0.717
			c0.039,0.044,0.246,0.289,0.193,0.22c0.135,0.177,0.101,0.331,0.049-0.088c0.049,0.393,0.293,0.727,0.727,0.727
			c0.359,0,0.775-0.333,0.727-0.727c-0.084-0.68-0.686-1.195-1.143-1.66c-0.373-0.378-0.758-0.746-1.148-1.104
			C419.148,204.398,418.117,205.424,418.811,206.059L418.811,206.059z"/>
	</g>
</g>
<g>
	<g>
		<path fill="#FFFFFF" d="M357.699,207.531c0.29-0.316,0.586-0.625,0.887-0.931c0.234-0.237,0.471-0.469,0.718-0.692
			c0.044-0.041,0.288-0.246,0.22-0.194c0.178-0.135,0.332-0.1-0.088-0.048c0.393-0.049,0.727-0.294,0.727-0.727
			c0-0.359-0.332-0.776-0.727-0.727c-0.68,0.084-1.195,0.686-1.66,1.144c-0.379,0.372-0.746,0.756-1.104,1.147
			C356.039,207.192,357.064,208.223,357.699,207.531L357.699,207.531z"/>
	</g>
</g>
<g>
	<path fill="#E5A53B" d="M442.113,126.855c-1.707-0.883-3.428-1.725-5.188-2.45c-1.75-0.745-3.521-1.418-5.302-1.974
		c-1.791-0.553-3.636-0.723-5.346-1.176c-1.748-0.418-3.412-0.75-5.43-0.797l-0.102-0.258c0.768-0.73,1.775-1.178,2.8-1.43
		c1.03-0.254,2.091-0.323,3.124-0.257c2.093,0.098,3.947,1.042,5.742,1.847c1.806,0.812,3.52,1.769,5.161,2.82
		c1.627,1.077,3.219,2.184,4.696,3.447L442.113,126.855z"/>
</g>
<g>
	<path fill="#EB6749" d="M398.742,231.749c2.592,4.615,8.958,5.955,14.234,2.993c5.275-2.962,7.451-9.094,4.857-13.711l-1.141-1.69
		C416.693,219.34,402.347,232.373,398.742,231.749z"/>
</g>
<g>
	<path fill="#644F43" d="M385.201,47.896c-0.039-0.579,0.006-1.185,0.213-1.768c0.211-0.579,0.596-1.118,1.109-1.518
		c1.037-0.813,2.494-0.987,3.785-0.596c1.297,0.383,2.468,1.5,2.852,2.915c0.408,1.414,0.08,2.833-0.396,4.026
		c-0.07,0.162-0.109,0.271-0.21,0.474c-0.068,0.134-0.113,0.243-0.226,0.426c-0.201,0.348-0.393,0.597-0.611,0.876
		c-0.439,0.528-0.938,0.964-1.437,1.358c-1.005,0.779-2.032,1.383-2.983,1.997c-0.949,0.611-1.855,1.193-2.566,1.881
		c-0.355,0.342-0.66,0.704-0.908,1.087c-0.104,0.158-0.293,0.479-0.418,0.695c-0.127,0.228-0.256,0.454-0.379,0.697
		c-1.029,1.88-1.701,3.932-1.555,5.873c0.054,0.969,0.334,1.9,0.818,2.747c0.49,0.841,1.174,1.602,1.982,2.259
		c1.641,1.296,3.727,2.17,5.898,2.711c2.18,0.573,4.473,0.793,6.803,0.862c-2.271,0.542-4.652,0.7-7.036,0.478
		c-2.37-0.258-4.794-0.887-6.929-2.298c-1.064-0.696-2.051-1.603-2.781-2.732c-0.734-1.121-1.216-2.44-1.367-3.778
		c-0.283-2.711,0.594-5.245,1.722-7.421c0.144-0.271,0.306-0.545,0.466-0.818c0.172-0.279,0.277-0.458,0.492-0.782
		c0.393-0.582,0.853-1.097,1.34-1.549c0.982-0.896,2.039-1.57,3.069-2.153c2.052-1.157,4.034-2.114,4.856-3.785
		c0.472-0.894,0.725-1.854,0.597-2.72c-0.112-0.866-0.7-1.647-1.577-2.064c-0.859-0.437-1.969-0.489-2.885-0.027
		C386.007,45.698,385.383,46.746,385.201,47.896z"/>
</g>
<g>
	<g>
		<path fill="#FFFFFF" d="M418.148,205.545c-0.924,33.017-56.889,33.018-57.813,0c-0.038-1.337-2.115-1.34-2.078,0
			c0.465,16.573,15.408,26.906,30.982,27.24s30.535-11.153,30.984-27.24C420.263,204.205,418.186,204.208,418.148,205.545
			L418.148,205.545z"/>
	</g>
</g>
<g>
	<path fill="#E5A53B" d="M424.322,208.203c1.5-1.427,1.398-3.973-0.234-5.691c-1.633-1.718-4.168-1.952-5.672-0.524
		C418.416,201.987,424.244,203.58,424.322,208.203z"/>
</g>
<g>
	<path fill="#E5A53B" d="M353.766,208.117c-1.434-1.497-1.211-4.034,0.5-5.674c1.713-1.64,4.256-1.755,5.692-0.259
		C359.958,202.184,354.061,203.503,353.766,208.117z"/>
</g>
<g>
	<g>
		<path fill="#FBBF4F" d="M239.607,179.403c2.551,8.758,6.598,18.18,13.227,24.601c7.781,7.538,18.693,4.032,24.484-3.848
			c5.311-7.226,6.674-17.44,14.26-22.813c5.059-3.582,12.034-3.972,17.848-2.329c6.299,1.78,10.889,9.249,14.283,14.329
			c2.775,4.153,5.309,8.525,7.531,13c1.275,2.569,5.11,0.315,3.84-2.244c-4.927-9.924-11.275-21.13-20.521-27.58
			c-8.963-6.251-23.207-2.456-29.914,5.16c-5.598,6.355-6.971,15.47-12.553,21.973c-2.992,3.488-8.73,5.363-13.046,3.371
			c-8.315-3.836-12.765-16.608-15.149-24.804C243.096,175.473,238.805,176.643,239.607,179.403L239.607,179.403z"/>
	</g>
</g>
<g>
	<path fill="#E5A53B" d="M339.242,164.983c2.107,1.72,4.232,3.272,6.457,4.52c2.23,1.218,4.57,2.103,6.92,2.222
		c2.346,0.141,4.66-0.543,6.813-1.811c2.15-1.276,4.098-3.057,6.076-4.931c-1.031,2.523-2.613,4.87-4.829,6.696
		c-2.171,1.849-5.193,3.007-8.208,2.811c-3.016-0.168-5.766-1.467-7.963-3.193C342.297,169.57,340.467,167.435,339.242,164.983z"/>
</g>
<g>
	<path fill="#E5A53B" d="M415.926,164.983c2.107,1.72,4.232,3.272,6.457,4.52c2.23,1.218,4.57,2.103,6.92,2.222
		c2.346,0.141,4.66-0.543,6.812-1.811c2.15-1.276,4.099-3.057,6.077-4.931c-1.03,2.523-2.613,4.87-4.829,6.696
		c-2.171,1.849-5.194,3.007-8.208,2.811c-3.016-0.168-5.766-1.467-7.963-3.193C418.98,169.57,417.15,167.435,415.926,164.983z"/>
</g>
<g>
	<g>
		<path fill="#FBBF4F" d="M399.508,281.473c1.1,7.21,2.303,14.41,3.713,21.565c0.73,3.709,2.26,7.493,1.682,11.295
			c-0.734,4.832-2.908,9.521-4.99,13.893c-1.588,3.33-4.535,6.247-1.658,9.525c4.797,5.468,15.537,1.943,21.006,0.177
			c2.717-0.877,1.555-5.172-1.182-4.287c-3.005,0.97-15.43,4.867-16.908,0.673c0.303,0.864-0.611,2.293,0.209,0.795
			c0.681-1.246,1.322-2.514,1.955-3.785c1.871-3.758,3.516-7.643,4.813-11.637c2.332-7.184,0.296-12.953-1.077-20.084
			c-1.234-6.409-2.291-12.858-3.273-19.312C403.365,277.463,399.081,278.669,399.508,281.473L399.508,281.473z"/>
	</g>
</g>
</svg>
