<?xml version="1.0" encoding="utf-8"?>
<!-- Generator: Adobe Illustrator 16.0.0, SVG Export Plug-In . SVG Version: 6.00 Build 0)  -->
<!DOCTYPE svg PUBLIC "-//W3C//DTD SVG 1.1//EN" "http://www.w3.org/Graphics/SVG/1.1/DTD/svg11.dtd">
<svg version="1.1" id="Layer_1" xmlns="http://www.w3.org/2000/svg" xmlns:xlink="http://www.w3.org/1999/xlink" x="0px" y="0px"
	 width="960px" height="560px" viewBox="0 0 960 560" enable-background="new 0 0 960 560" xml:space="preserve">
<path fill="#8FB25E" d="M417.215,348.131l-6.953,10.063h-15.994l-30.264-202.737l-5.203-34.864l13.908-10.834h221.149l13.91,10.834
	l-5.156,34.542l-30.313,203.06h-15.994l-6.955-10.063C549.35,348.131,483.979,312.529,417.215,348.131z"/>
<path fill="#5D6633" d="M475.735,195.938c0,0-14.491,26.236-19.284,28.523c-3.797,1.809-41.852-12.449-46.756-15.896"/>
<g>
	<path fill="#BED685" d="M373.841,172.305c1.168-0.532,2.339-0.925,3.508-1.394c1.17-0.414,2.341-0.818,3.512-1.182
		c2.342-0.753,4.687-1.386,7.031-1.995l3.519-0.837l3.521-0.743c1.173-0.26,2.348-0.438,3.523-0.66
		c1.174-0.221,2.349-0.422,3.524-0.589l3.525-0.529l3.527-0.435c2.351-0.313,4.705-0.469,7.058-0.711l3.531-0.236
		c1.177-0.068,2.354-0.172,3.532-0.211l3.533-0.125c1.178-0.037,2.355-0.1,3.534-0.092l1.697,0.013l1.166,0.389
		c2.115,0.706,4.252,1.339,6.349,2.104l3.151,1.129c1.054,0.363,2.094,0.771,3.134,1.184l3.122,1.223
		c1.038,0.418,2.064,0.873,3.096,1.307c1.029,0.445,2.067,0.861,3.084,1.346l3.064,1.41c1.021,0.472,2.026,0.994,3.04,1.488
		c1.015,0.49,2.022,1.006,3.022,1.548c1,0.538,2.011,1.043,3,1.619c0.99,0.568,1.991,1.106,2.974,1.7
		c0.981,0.6,1.974,1.164,2.946,1.793c0.975,0.621,1.953,1.232,2.915,1.895c0.969,0.641,1.925,1.322,2.878,2.015
		c0.94,0.733,1.899,1.404,2.821,2.198l-0.298,0.967l-12.852-3.71l-12.807-3.854l-25.61-7.723l0.316,0.045
		c-2.356,0.062-4.713,0.076-7.07,0.116l-7.07,0.102l-14.141,0.204l-14.141,0.204l-14.144,0.04L373.841,172.305z"/>
</g>
<g>
	<path fill="#BED685" d="M489.116,187.792c0.972-0.767,1.979-1.403,2.967-2.108c1.001-0.658,2.004-1.307,3.018-1.915
		c1.008-0.631,2.031-1.202,3.05-1.793c1.019-0.588,2.052-1.123,3.077-1.688c1.029-0.549,2.069-1.06,3.103-1.591
		c1.033-0.533,2.084-1.002,3.125-1.507c1.04-0.508,2.093-0.969,3.145-1.431c1.053-0.456,2.097-0.949,3.161-1.367l3.179-1.299
		c1.06-0.432,2.134-0.811,3.2-1.219c1.07-0.393,2.131-0.822,3.211-1.176l3.229-1.106c2.15-0.749,4.334-1.366,6.5-2.056
		c1.084-0.34,2.185-0.617,3.276-0.93l3.281-0.91l0.673-0.187l0.703-0.063l6.899-0.608l3.46-0.199
		c1.154-0.057,2.304-0.157,3.463-0.173l3.471-0.099c1.156-0.046,2.316-0.039,3.477-0.037l3.482,0.009l3.491,0.102
		c1.162,0.021,2.331,0.1,3.498,0.165c1.167,0.07,2.333,0.119,3.504,0.232c2.339,0.177,4.685,0.427,7.035,0.713
		c2.353,0.316,4.708,0.658,7.076,1.116c1.182,0.216,2.369,0.472,3.556,0.739c1.193,0.316,2.378,0.562,3.577,0.942l0.103,1.006
		l-13.754,1.657l-13.77,1.498l-27.541,2.987l0.153-0.027l-26.39,6.729l-13.197,3.359l-13.236,3.21L489.116,187.792z"/>
</g>
<path fill="#FFFFFF" d="M453.781,220.372c-3.455,2.394-43.544-3.729-48.938-6.345c-5.395-2.615-20.73-33.008-20.73-33.008
	l89.675,11.626C473.788,192.646,458.146,217.348,453.781,220.372z"/>
<path fill="#5D6633" d="M569.486,204.387c-1.778,3.809-36.806,21.002-42.783,21.462c-5.977,0.46-34.421-22.595-34.421-22.595"/>
<path fill="#1D1D1B" d="M450.035,189.582c-1.19,8.698-16.355,26.571-27.549,25.039c-11.196-1.531-14.182-21.889-12.991-30.586"/>
<path fill="#FFFFFF" d="M438.668,199.505c0.098,0.47-1.121,1.261-2.724,1.767c-1.604,0.508-2.987,0.537-3.084,0.068
	c-0.1-0.469,1.119-1.26,2.724-1.768C437.188,199.066,438.568,199.035,438.668,199.505z"/>
<path fill="#FFFFFF" d="M572.633,212.32c-2.512,3.371-42.462,10.34-48.409,9.58c-5.944-0.761-30.167-24.683-30.167-24.683
	l88.706-17.554C582.763,179.664,575.808,208.063,572.633,212.32z"/>
<path fill="#1D1D1B" d="M520.672,192.267c1.688,8.616,20.456,24.526,31.545,22.354c11.088-2.172,10.299-21.603,8.611-30.219"/>
<path fill="#FFFFFF" d="M532.285,200.942c-0.099,0.47,1.121,1.261,2.727,1.768c1.604,0.508,2.982,0.536,3.083,0.067
	c0.099-0.47-1.122-1.26-2.727-1.768C533.765,200.504,532.385,200.473,532.285,200.942z"/>
<path fill="#FFFFFF" d="M416.486,273.039l133.027-13.373c0,0-12.498,20.258-36.938,20.721c-24.438,0.462-93.128,2.18-93.128,2.18
	L416.486,273.039z"/>
<path fill="#5D6633" d="M549.514,259.666l-17.861,9.566l-4.661,9.354l-14.415-1.803l-94.154,2.48l1.026,3.303
	c0,0,77.7,4.589,102.138,4.127c15.615-0.297,22.944-6.127,24.324-17.117L549.514,259.666z"/>
<path fill="#71882E" d="M602.096,154.595l-13.795-17.102l-0.607-19.427c0,0-26.76,8.063-37.332,8.326
	c-10.574,0.264-30.66,4.758-30.66,4.758l-46,13.232c0,0-35.451-10.723-35.014-10.59c0.437,0.132-23.981-2.158-29.383-2.643
	c-5.402-0.486-29.391-13.021-27.615-13.282s-7.744,18.667-9.746,20.682c-2.002,2.017-8.43,16.425-8.43,16.425l-0.213,0.481
	c0,0-6.939-30.554-5.203-34.864c1.734-4.309,6.953-7.745,13.908-10.834s213.725-2.363,221.148,0
	c7.424,2.362,12.566,7.414,13.91,10.834c1.344,3.422-5.156,34.542-5.156,34.542L602.096,154.595z"/>
<path fill="#BED685" d="M380.156,134.932"/>
<path fill="#8FB25E" d="M555.265,273.049"/>
<path fill="#8FB25E" d="M555.265,243.172"/>
<path fill="#8FB25E" d="M415.435,237.807"/>
<path fill="#8FB25E" d="M415.435,267.685"/>
<path fill="#8FB25E" d="M555.58,357.068l20.961,33.229l-27.928,45.946l50.451,0.901c0,0,6.288-2.048,1.802-3.604
	c-4.486-1.555-32.433-5.406-32.433-5.406l23.423-37.838l-20.26-32.896"/>
<path fill="#8FB25E" d="M410.584,354.164l-12.461,55.758l3.643,38.033l-40.54,1.063c0,0-4.486-3.11,0-4.666
	c4.486-1.555,28.556-5.802,28.556-5.802l-2.541-36.071l7.328-47.984"/>
<path fill="#8FB25E" d="M555.265,243.172l78.032,6.585l-21.621,45.946c0,0-11.623,21.544-10.811,18.018s-18.24-31.67-17.117-29.729
	c1.121,1.941,22.523,6.306,22.523,6.306l10.811-28.828l-61.816,11.58"/>
<path fill="#8FB25E" d="M414.534,264.982l-63.219-16.127L365.73,293.9c0,0,21.62-4.504,20.72-9.909
	c-0.596-3.569-14.193,40.679-15.315,38.738c-1.123-1.941-10.81-17.116-10.81-17.116l-29.73-63.965l83.939-6.544"/>
</svg>
