<?xml version="1.0" encoding="utf-8"?>
<!-- Generator: Adobe Illustrator 16.0.0, SVG Export Plug-In . SVG Version: 6.00 Build 0)  -->
<!DOCTYPE svg PUBLIC "-//W3C//DTD SVG 1.1//EN" "http://www.w3.org/Graphics/SVG/1.1/DTD/svg11.dtd">
<svg version="1.1" id="Layer_1" xmlns="http://www.w3.org/2000/svg" xmlns:xlink="http://www.w3.org/1999/xlink" x="0px" y="0px"
	 width="960px" height="560px" viewBox="0 0 960 560" enable-background="new 0 0 960 560" xml:space="preserve">
<path fill="#8FB25E" d="M416.513,348.13l-6.953,10.063h-15.995l-30.264-202.738l-5.203-34.864l13.908-10.834h221.148l13.91,10.834
	l-5.156,34.542l-30.313,203.06h-15.994l-6.955-10.063C548.646,348.13,483.276,312.53,416.513,348.13z"/>
<path fill="#5D6633" d="M472.115,186.7c0,0-6.389,29.283-10.328,32.844c-3.121,2.819-43.664,0.032-49.349-1.869"/>
<g>
	<path fill="#BED685" d="M371.203,176.95c1.105-0.632,2.227-1.125,3.34-1.693c1.119-0.514,2.239-1.019,3.363-1.482
		c2.246-0.953,4.505-1.788,6.767-2.599l3.4-1.139l3.411-1.046c1.135-0.361,2.279-0.64,3.419-0.964
		c1.14-0.322,2.282-0.625,3.428-0.893l3.434-0.833l3.444-0.74c2.293-0.516,4.604-0.875,6.905-1.321l3.466-0.543
		c1.156-0.17,2.309-0.375,3.469-0.517l3.477-0.431c1.16-0.139,2.317-0.304,3.482-0.398l1.238-0.1l0.764,0.104
		c2.236,0.304,4.481,0.533,6.711,0.898l3.347,0.529c1.117,0.164,2.229,0.374,3.341,0.586l3.335,0.627
		c1.11,0.219,2.217,0.477,3.326,0.714c1.107,0.248,2.218,0.465,3.321,0.754l3.313,0.822c1.104,0.275,2.202,0.603,3.304,0.902
		c1.103,0.295,2.201,0.617,3.298,0.965c1.097,0.345,2.197,0.655,3.289,1.039c1.093,0.376,2.189,0.721,3.279,1.124
		c1.089,0.409,2.183,0.78,3.269,1.219c1.087,0.431,2.175,0.852,3.257,1.325c1.085,0.451,2.164,0.945,3.243,1.449
		c1.073,0.549,2.154,1.031,3.221,1.642l-0.113,1.005l-13.48-1.279l-13.465-1.428l-26.926-2.872l0.221,0
		c-2.32,0.267-4.646,0.485-6.97,0.73l-6.972,0.716l-13.942,1.432l-13.942,1.432l-13.961,1.268L371.203,176.95z"/>
</g>
<g>
	<path fill="#BED685" d="M487.963,178.097c1.093-0.582,2.196-1.031,3.294-1.549c1.102-0.471,2.204-0.931,3.31-1.35
		c1.104-0.442,2.213-0.823,3.319-1.224c1.107-0.397,2.219-0.741,3.328-1.115c1.11-0.358,2.224-0.676,3.335-1.016
		c1.112-0.341,2.229-0.616,3.343-0.928c1.114-0.316,2.231-0.583,3.349-0.851c1.117-0.262,2.232-0.563,3.354-0.785l3.359-0.714
		c1.119-0.237,2.243-0.419,3.365-0.632c1.123-0.197,2.242-0.432,3.369-0.588l3.374-0.516c2.249-0.356,4.508-0.577,6.761-0.872
		c1.128-0.142,2.26-0.22,3.389-0.333l3.391-0.314l0.695-0.065l0.703,0.064l6.897,0.625l3.441,0.417
		c1.146,0.149,2.296,0.254,3.438,0.444l3.434,0.519c1.145,0.159,2.286,0.372,3.428,0.58l3.426,0.626l3.418,0.719
		c1.14,0.226,2.275,0.511,3.412,0.782c1.137,0.276,2.275,0.531,3.408,0.851c2.27,0.589,4.535,1.251,6.797,1.95
		c2.26,0.728,4.517,1.483,6.766,2.353c1.125,0.422,2.247,0.885,3.369,1.358c1.117,0.523,2.24,0.975,3.354,1.563l-0.078,1.008
		l-13.829-0.809l-13.817-0.967l-27.634-1.944l0.155,0l-27.165,1.943l-13.583,0.967l-13.596,0.811L487.963,178.097z"/>
</g>
<path fill="#FFFFFF" d="M455.84,216.769c-3.119,2.819-43.662,1.901-49.348,0c-5.686-1.899-24.803-30.068-24.803-30.068h90.426
	C472.115,186.7,459.78,213.208,455.84,216.769z"/>
<path fill="#5D6633" d="M566.977,219.2c-3.118,2.818-42.076,5.039-47.762,3.138s-22.927-34.201-22.927-34.201"/>
<path fill="#1D1D1B" d="M448.637,186.7c0,8.779-7.646,23.417-18.943,23.417c-11.301,0-21.975-14.638-21.975-23.417"/>
<path fill="#FFFFFF" d="M438.668,199.505c0.098,0.47-1.121,1.261-2.725,1.767c-1.604,0.508-2.987,0.538-3.084,0.068
	c-0.1-0.469,1.119-1.259,2.725-1.767C437.188,199.066,438.568,199.035,438.668,199.505z"/>
<path fill="#FFFFFF" d="M570.438,218.207c-3.117,2.819-43.661,1.901-49.348,0c-5.684-1.9-24.802-30.069-24.802-30.069h90.427
	C586.715,188.138,574.379,214.646,570.438,218.207z"/>
<path fill="#1D1D1B" d="M522.316,188.138c0,8.78,10.493,21.079,21.792,21.079c11.3,0,19.127-12.298,19.127-21.079"/>
<path fill="#FFFFFF" d="M532.285,200.942c-0.099,0.47,1.121,1.26,2.727,1.768c1.604,0.508,2.982,0.537,3.083,0.067
	c0.099-0.469-1.122-1.26-2.727-1.767C533.765,200.503,532.385,200.473,532.285,200.942z"/>
<path fill="#FFFFFF" d="M416.486,273.039l133.027-13.372c0,0-12.498,20.257-36.938,20.721c-24.438,0.461-93.128,2.179-93.128,2.179
	L416.486,273.039z"/>
<path fill="#5D6633" d="M543.369,268.336l-11.717,0.896l-3.518,7.96l-5.555-7.035l-104.158,9.106l1.026,3.302
	c0,0,77.7,4.589,102.138,4.128c15.615-0.297,20.407-7.367,21.787-18.357H543.369z"/>
<path fill="#71882E" d="M602.096,154.595l-13.795-17.102l-0.607-19.427c0,0-26.76,8.062-37.332,8.326
	c-10.574,0.264-30.66,4.758-30.66,4.758l-46,13.233c0,0-35.451-10.723-35.014-10.59c0.438,0.132-23.981-2.158-29.383-2.643
	c-5.402-0.486-29.391-13.02-27.615-13.282s-7.744,18.667-9.746,20.682c-2.002,2.016-8.43,16.425-8.43,16.425l-0.213,0.481
	c0,0-6.939-30.553-5.203-34.864c1.734-4.31,6.953-7.746,13.908-10.834s213.725-2.363,221.148,0
	c7.424,2.362,12.566,7.414,13.91,10.834s-5.156,34.542-5.156,34.542L602.096,154.595z"/>
<path fill="#BED685" d="M380.156,134.932"/>
<path fill="#8FB25E" d="M566.977,239.568h73.781l44.744-78.885c0,0-5.08-8.698-4.268-12.224s26.521,4.49,27.643,6.431
	c1.121,1.941-15.447,9.757-15.447,9.757l-42.713,90.976l-83.74,13.822"/>
<path fill="#8FB25E" d="M415.435,267.685h-73.781l-75.022-36.847c0,0-11.8,1.879-12.613,5.405
	c-0.812,3.526-3.382-26.888-4.504-28.829c-1.123-1.941,16.216,14.414,16.216,14.414l65.963,29.801l83.742-13.822"/>
<path fill="#8FB25E" d="M555.58,357.069l12.461,55.758l-5.915,38.731l39.64,1.802c0,0,4.486-3.109,0-4.665
	c-4.486-1.554-28.556-5.802-28.556-5.802l5.714-37.509l-7.328-47.984"/>
<path fill="#8FB25E" d="M410.584,354.164l-12.461,55.758l3.643,38.033l-40.54,1.062c0,0-4.486-3.11,0-4.666
	c4.486-1.555,28.556-5.802,28.556-5.802l-2.541-36.071l7.328-47.984"/>
</svg>
