<?xml version="1.0" encoding="utf-8"?>
<!-- Generator: Adobe Illustrator 16.0.0, SVG Export Plug-In . SVG Version: 6.00 Build 0)  -->
<!DOCTYPE svg PUBLIC "-//W3C//DTD SVG 1.1//EN" "http://www.w3.org/Graphics/SVG/1.1/DTD/svg11.dtd">
<svg version="1.1" id="Layer_1" xmlns="http://www.w3.org/2000/svg" xmlns:xlink="http://www.w3.org/1999/xlink" x="0px" y="0px"
	 width="960px" height="560px" viewBox="0 0 960 560" enable-background="new 0 0 960 560" xml:space="preserve">
<path fill="#8FB25E" d="M417.215,348.13l-6.953,10.063h-15.995l-30.264-202.738l-5.203-34.864l13.908-10.834h221.148l13.91,10.834
	l-5.156,34.542l-30.313,203.06h-15.994l-6.955-10.063C549.349,348.13,483.979,312.53,417.215,348.13z"/>
<path fill="#5D6633" d="M475.735,195.938c0,0-14.491,26.236-19.284,28.522c-3.796,1.809-41.852-12.449-46.756-15.895"/>
<g>
	<path fill="#BED685" d="M373.842,172.305c1.167-0.533,2.338-0.926,3.507-1.394c1.17-0.414,2.341-0.818,3.512-1.182
		c2.342-0.752,4.687-1.386,7.031-1.996l3.519-0.836l3.521-0.743c1.173-0.26,2.349-0.438,3.522-0.66
		c1.174-0.221,2.349-0.422,3.524-0.589l3.525-0.529l3.527-0.435c2.351-0.313,4.706-0.469,7.058-0.711l3.531-0.237
		c1.177-0.068,2.354-0.171,3.532-0.21l3.533-0.125c1.178-0.037,2.356-0.1,3.534-0.091l1.697,0.012l1.165,0.389
		c2.115,0.706,4.253,1.339,6.349,2.104l3.151,1.128c1.054,0.364,2.095,0.773,3.134,1.184l3.122,1.223
		c1.038,0.417,2.063,0.873,3.096,1.307c1.029,0.445,2.067,0.861,3.084,1.345l3.064,1.411c1.021,0.471,2.027,0.994,3.04,1.488
		c1.015,0.491,2.023,1.006,3.022,1.548c1,0.539,2.011,1.043,3,1.619c0.991,0.569,1.991,1.106,2.975,1.701
		c0.981,0.6,1.974,1.163,2.946,1.792c0.975,0.621,1.953,1.232,2.915,1.895c0.969,0.641,1.925,1.323,2.878,2.014
		c0.94,0.734,1.899,1.404,2.821,2.199l-0.298,0.966l-12.852-3.71l-12.808-3.854l-25.61-7.722l0.316,0.044
		c-2.356,0.062-4.713,0.076-7.07,0.116l-7.07,0.102l-14.141,0.204l-14.14,0.204l-14.144,0.04L373.842,172.305z"/>
</g>
<g>
	<path fill="#BED685" d="M489.117,187.793c0.972-0.767,1.979-1.404,2.967-2.109c1.001-0.659,2.004-1.307,3.018-1.915
		c1.008-0.631,2.032-1.202,3.05-1.793c1.019-0.587,2.052-1.123,3.077-1.687c1.029-0.549,2.069-1.06,3.103-1.591
		c1.034-0.533,2.084-1.002,3.125-1.506c1.04-0.508,2.092-0.969,3.145-1.431c1.054-0.456,2.098-0.949,3.161-1.367l3.179-1.299
		c1.06-0.432,2.134-0.811,3.2-1.219c1.07-0.393,2.131-0.822,3.211-1.176l3.229-1.106c2.15-0.75,4.334-1.367,6.5-2.057
		c1.084-0.339,2.185-0.617,3.276-0.929l3.281-0.911l0.673-0.187l0.703-0.062l6.899-0.608l3.46-0.199
		c1.155-0.056,2.305-0.157,3.464-0.173l3.471-0.098c1.156-0.046,2.316-0.04,3.477-0.038l3.482,0.009l3.491,0.102
		c1.162,0.02,2.331,0.1,3.498,0.165c1.167,0.07,2.333,0.119,3.504,0.232c2.339,0.177,4.685,0.426,7.035,0.713
		c2.353,0.315,4.708,0.658,7.076,1.116c1.182,0.215,2.369,0.472,3.556,0.739c1.193,0.317,2.378,0.563,3.578,0.943l0.103,1.006
		l-13.754,1.657l-13.77,1.499l-27.54,2.987l0.152-0.028l-26.39,6.73l-13.196,3.36l-13.236,3.209L489.117,187.793z"/>
</g>
<path fill="#FFFFFF" d="M453.781,220.372c-3.456,2.394-43.544-3.729-48.938-6.345c-5.394-2.615-20.73-33.008-20.73-33.008
	l89.675,11.626C473.788,192.646,458.147,217.347,453.781,220.372z"/>
<path fill="#5D6633" d="M569.486,204.387c-1.777,3.809-36.806,21.002-42.783,21.462c-5.977,0.46-34.421-22.595-34.421-22.595"/>
<path fill="#1D1D1B" d="M450.035,189.582c-1.19,8.698-10.75,22.164-21.943,20.632c-11.196-1.532-19.787-17.481-18.597-26.18"/>
<path fill="#FFFFFF" d="M438.668,199.505c0.098,0.47-1.121,1.261-2.724,1.767c-1.604,0.508-2.987,0.538-3.084,0.068
	c-0.1-0.469,1.119-1.259,2.724-1.767C437.188,199.066,438.568,199.035,438.668,199.505z"/>
<path fill="#FFFFFF" d="M572.632,212.32c-2.511,3.371-42.461,10.34-48.409,9.58c-5.944-0.76-30.167-24.682-30.167-24.682
	l88.707-17.554C582.763,179.664,575.808,208.063,572.632,212.32z"/>
<path fill="#1D1D1B" d="M520.672,192.267c1.688,8.617,14.348,18.669,25.437,16.497c11.089-2.172,16.406-15.745,14.719-24.362"/>
<path fill="#FFFFFF" d="M532.285,200.942c-0.099,0.47,1.121,1.26,2.727,1.768c1.604,0.508,2.982,0.537,3.083,0.067
	c0.099-0.469-1.122-1.26-2.727-1.767C533.765,200.503,532.385,200.473,532.285,200.942z"/>
<path fill="#FFFFFF" d="M416.486,273.039l133.027-13.372c0,0-12.498,20.257-36.938,20.721c-24.438,0.461-93.128,2.179-93.128,2.179
	L416.486,273.039z"/>
<path fill="#5D6633" d="M543.369,268.336l-11.717,0.896l-3.518,7.96l-5.555-7.035l-104.158,9.106l1.026,3.302
	c0,0,77.7,4.589,102.138,4.128c15.615-0.297,20.407-7.367,21.787-18.357H543.369z"/>
<path fill="#71882E" d="M602.096,154.595l-13.795-17.102l-0.607-19.427c0,0-26.76,8.062-37.332,8.326
	c-10.574,0.264-30.66,4.758-30.66,4.758l-46,13.233c0,0-35.451-10.723-35.014-10.59c0.437,0.132-23.981-2.158-29.383-2.643
	c-5.402-0.486-29.391-13.02-27.615-13.282s-7.744,18.667-9.746,20.682c-2.002,2.016-8.43,16.425-8.43,16.425l-0.213,0.481
	c0,0-6.939-30.553-5.203-34.864c1.734-4.31,6.953-7.746,13.908-10.834s213.725-2.363,221.148,0
	c7.424,2.362,12.566,7.414,13.91,10.834s-5.156,34.542-5.156,34.542L602.096,154.595z"/>
<path fill="#BED685" d="M380.156,134.932"/>
<path fill="#8FB25E" d="M566.977,239.568h73.781l63.759-36.271c0,0-5.08-8.698-4.268-12.224c0.812-3.526,26.521,4.49,27.643,6.431
	c1.121,1.941-15.447,9.757-15.447,9.757l-61.728,48.362l-83.74,13.822"/>
<path fill="#8FB25E" d="M415.435,267.685h-73.781l-75.022-36.847c0,0-11.8,1.879-12.613,5.405
	c-0.812,3.526-3.382-26.888-4.504-28.829c-1.123-1.941,16.216,14.414,16.216,14.414l65.963,29.801l83.742-13.822"/>
<path fill="#8FB25E" d="M555.58,357.069l12.461,55.758l-5.915,38.731l39.64,1.802c0,0,4.486-3.109,0-4.665
	c-4.486-1.554-28.556-5.802-28.556-5.802l5.714-37.509l-7.328-47.984"/>
<path fill="#8FB25E" d="M410.584,354.164l-12.461,55.758l3.643,38.033l-40.54,1.062c0,0-4.486-3.11,0-4.666
	c4.486-1.555,28.556-5.802,28.556-5.802l-2.541-36.071l7.328-47.984"/>
</svg>
