<?xml version="1.0" encoding="utf-8"?>
<!-- Generator: Adobe Illustrator 16.0.0, SVG Export Plug-In . SVG Version: 6.00 Build 0)  -->
<!DOCTYPE svg PUBLIC "-//W3C//DTD SVG 1.1//EN" "http://www.w3.org/Graphics/SVG/1.1/DTD/svg11.dtd">
<svg version="1.1" id="Layer_1" xmlns="http://www.w3.org/2000/svg" xmlns:xlink="http://www.w3.org/1999/xlink" x="0px" y="0px"
	 width="960px" height="560px" viewBox="0 0 960 560" enable-background="new 0 0 960 560" xml:space="preserve">
<path fill="#8FB25E" d="M417.182,348.107l-6.953,10.063h-15.994l-30.264-202.737l-5.203-34.864l13.908-10.834h221.148l13.91,10.834
	l-5.156,34.542l-30.313,203.06h-15.994l-6.955-10.063C549.316,348.107,483.945,312.506,417.182,348.107z"/>
<path fill="#5D6633" d="M475.701,195.914c0,0-14.49,26.236-19.283,28.523c-3.797,1.809-41.851-12.449-46.756-15.896"/>
<g>
	<path fill="#BED685" d="M373.809,172.281c1.168-0.532,2.338-0.926,3.508-1.394c1.17-0.414,2.34-0.818,3.512-1.183
		c2.342-0.752,4.686-1.385,7.031-1.995l3.519-0.836l3.521-0.743c1.174-0.26,2.349-0.438,3.523-0.66
		c1.174-0.221,2.348-0.422,3.523-0.589l3.525-0.529l3.527-0.435c2.352-0.313,4.705-0.469,7.059-0.711l3.531-0.237
		c1.177-0.067,2.354-0.171,3.531-0.21l3.533-0.125c1.178-0.037,2.355-0.1,3.535-0.092l1.697,0.013l1.166,0.39
		c2.114,0.705,4.252,1.338,6.348,2.104l3.152,1.129c1.053,0.363,2.094,0.772,3.133,1.184l3.122,1.223
		c1.038,0.418,2.063,0.873,3.095,1.307c1.03,0.445,2.068,0.861,3.086,1.346l3.064,1.41c1.02,0.472,2.025,0.994,3.039,1.488
		c1.016,0.49,2.022,1.006,3.021,1.548c1,0.539,2.011,1.044,3,1.619c0.99,0.569,1.99,1.106,2.975,1.701
		c0.98,0.6,1.974,1.163,2.945,1.792c0.976,0.621,1.953,1.232,2.916,1.895c0.969,0.641,1.924,1.323,2.877,2.015
		c0.94,0.733,1.9,1.404,2.821,2.198l-0.298,0.967l-12.852-3.711l-12.808-3.854l-25.61-7.723l0.316,0.045
		c-2.355,0.062-4.713,0.076-7.07,0.116l-7.07,0.103l-14.141,0.203l-14.141,0.204l-14.144,0.04L373.809,172.281z"/>
</g>
<g>
	<path fill="#BED685" d="M489.084,187.77c0.972-0.767,1.979-1.404,2.967-2.109c1-0.658,2.004-1.307,3.018-1.914
		c1.008-0.632,2.031-1.203,3.049-1.794c1.02-0.587,2.053-1.123,3.078-1.687c1.029-0.55,2.068-1.061,3.103-1.592
		c1.034-0.533,2.084-1.002,3.125-1.506c1.04-0.509,2.093-0.969,3.145-1.432c1.054-0.456,2.097-0.949,3.161-1.367l3.18-1.299
		c1.061-0.432,2.133-0.811,3.199-1.219c1.07-0.393,2.131-0.822,3.211-1.176l3.23-1.105c2.148-0.75,4.334-1.367,6.499-2.057
		c1.084-0.34,2.185-0.617,3.276-0.93l3.28-0.91l0.673-0.188l0.703-0.062l6.899-0.608l3.46-0.199
		c1.154-0.057,2.305-0.156,3.463-0.173l3.471-0.099c1.156-0.046,2.316-0.039,3.477-0.037l3.482,0.009l3.492,0.102
		c1.162,0.021,2.33,0.1,3.497,0.165c1.167,0.07,2.333,0.119,3.505,0.232c2.338,0.177,4.685,0.426,7.034,0.713
		c2.353,0.316,4.708,0.658,7.075,1.116c1.184,0.216,2.369,0.472,3.557,0.739c1.193,0.316,2.379,0.563,3.578,0.942l0.103,1.006
		l-13.753,1.657l-13.77,1.498l-27.541,2.987l0.152-0.028l-26.391,6.73l-13.196,3.36l-13.235,3.209L489.084,187.77z"/>
</g>
<path fill="#FFFFFF" d="M453.748,220.349c-3.455,2.394-43.545-3.729-48.937-6.345c-5.395-2.615-20.73-33.008-20.73-33.008
	l89.675,11.626C473.755,192.622,458.113,217.324,453.748,220.349z"/>
<path fill="#5D6633" d="M569.453,204.363c-1.777,3.809-36.806,21.002-42.783,21.462c-5.977,0.46-34.421-22.595-34.421-22.595"/>
<path fill="#1D1D1B" d="M450.002,189.559c-1.19,8.698-10.75,22.164-21.943,20.633c-11.196-1.532-19.787-17.482-18.597-26.18"/>
<path fill="#FFFFFF" d="M438.635,199.481c0.098,0.47-1.121,1.261-2.725,1.767c-1.604,0.508-2.986,0.537-3.084,0.068
	c-0.1-0.469,1.119-1.26,2.725-1.768C437.154,199.043,438.535,199.012,438.635,199.481z"/>
<path fill="#FFFFFF" d="M572.6,212.297c-2.512,3.371-42.463,10.34-48.409,9.58c-5.944-0.761-30.167-24.683-30.167-24.683
	l88.706-17.554C582.729,179.641,575.774,208.039,572.6,212.297z"/>
<path fill="#1D1D1B" d="M520.639,192.243c1.688,8.616,14.35,18.669,25.438,16.497c11.089-2.172,16.406-15.745,14.719-24.361"/>
<path fill="#FFFFFF" d="M532.252,200.919c-0.1,0.47,1.121,1.261,2.727,1.768c1.603,0.508,2.982,0.536,3.083,0.067
	c0.099-0.47-1.122-1.26-2.728-1.768C533.731,200.48,532.352,200.449,532.252,200.919z"/>
<path fill="#FFFFFF" d="M416.453,273.016l133.027-13.373c0,0-12.498,20.258-36.938,20.721c-24.437,0.462-93.129,2.18-93.129,2.18
	L416.453,273.016z"/>
<path fill="#5D6633" d="M543.336,268.313l-11.717,0.896l-3.518,7.961l-5.555-7.035l-104.158,9.105l1.025,3.303
	c0,0,77.701,4.589,102.139,4.127c15.615-0.297,20.407-7.367,21.787-18.357H543.336z"/>
<path fill="#71882E" d="M602.063,154.571l-13.795-17.102l-0.607-19.427c0,0-26.76,8.063-37.332,8.326
	c-10.574,0.264-30.66,4.758-30.66,4.758l-46,13.232c0,0-35.451-10.723-35.013-10.59c0.438,0.132-23.98-2.158-29.383-2.643
	c-5.402-0.486-29.391-13.021-27.615-13.282s-7.744,18.667-9.746,20.682c-2.002,2.017-8.43,16.425-8.43,16.425l-0.213,0.481
	c0,0-6.939-30.554-5.203-34.864c1.734-4.309,6.953-7.745,13.908-10.834s213.725-2.363,221.148,0
	c7.424,2.362,12.566,7.414,13.91,10.834c1.344,3.422-5.156,34.542-5.156,34.542L602.063,154.571z"/>
<path fill="#BED685" d="M380.123,134.908"/>
<path fill="#8FB25E" d="M566.943,239.545h73.781l63.76-36.271c0,0-5.08-8.697-4.268-12.224s26.52,4.49,27.643,6.431
	c1.121,1.941-15.447,9.758-15.447,9.758L650.684,255.6l-83.74,13.822"/>
<path fill="#8FB25E" d="M415.4,267.661h-73.781l-75.021-36.847c0,0-11.8,1.879-12.613,5.405c-0.812,3.526-3.383-26.888-4.504-28.829
	c-1.123-1.941,16.216,14.414,16.216,14.414l65.963,29.801l83.741-13.822"/>
<path fill="#8FB25E" d="M555.547,357.045l12.461,55.759l-5.914,38.731l39.639,1.802c0,0,4.486-3.108,0-4.665
	c-4.486-1.555-28.556-5.803-28.556-5.803l5.714-37.508l-7.328-47.984"/>
<path fill="#8FB25E" d="M410.551,354.141l-12.461,55.758l3.643,38.033l-40.54,1.063c0,0-4.486-3.11,0-4.666
	c4.486-1.555,28.555-5.802,28.555-5.802l-2.541-36.071l7.328-47.984"/>
</svg>
