<?xml version="1.0" encoding="utf-8"?>
<!-- Generator: Adobe Illustrator 16.0.0, SVG Export Plug-In . SVG Version: 6.00 Build 0)  -->
<!DOCTYPE svg PUBLIC "-//W3C//DTD SVG 1.1//EN" "http://www.w3.org/Graphics/SVG/1.1/DTD/svg11.dtd">
<svg version="1.1" id="Layer_1" xmlns="http://www.w3.org/2000/svg" xmlns:xlink="http://www.w3.org/1999/xlink" x="0px" y="0px"
	 width="960px" height="560px" viewBox="0 0 960 560" enable-background="new 0 0 960 560" xml:space="preserve">
<path fill="#8FB25E" d="M416.508,348.126l-6.953,10.063H393.56l-30.264-202.737l-5.203-34.864l13.909-10.834h221.147l13.91,10.834
	l-5.157,34.542l-30.312,203.06h-15.994l-6.955-10.063C548.642,348.126,483.271,312.524,416.508,348.126z"/>
<path fill="#5D6633" d="M472.11,186.695c0,0-6.389,29.283-10.328,32.845c-3.121,2.818-43.664,0.031-49.349-1.869"/>
<g>
	<path fill="#BED685" d="M371.198,176.944c1.104-0.632,2.227-1.125,3.339-1.693c1.12-0.514,2.24-1.018,3.364-1.482
		c2.246-0.953,4.505-1.787,6.767-2.599l3.4-1.139l3.411-1.046c1.135-0.361,2.279-0.641,3.418-0.964
		c1.14-0.322,2.283-0.624,3.429-0.894l3.434-0.832l3.443-0.74c2.294-0.516,4.604-0.875,6.906-1.321l3.466-0.543
		c1.155-0.17,2.309-0.375,3.469-0.517l3.476-0.432c1.161-0.139,2.318-0.304,3.482-0.398l1.239-0.1l0.764,0.104
		c2.236,0.305,4.481,0.533,6.711,0.898l3.346,0.529c1.118,0.164,2.231,0.373,3.341,0.586l3.336,0.627
		c1.11,0.22,2.217,0.478,3.325,0.715c1.108,0.248,2.219,0.465,3.321,0.754l3.313,0.822c1.104,0.274,2.203,0.603,3.304,0.901
		c1.104,0.296,2.201,0.617,3.299,0.966c1.097,0.345,2.196,0.654,3.289,1.038c1.092,0.376,2.188,0.721,3.279,1.124
		c1.09,0.408,2.183,0.779,3.268,1.219c1.088,0.432,2.176,0.852,3.257,1.326c1.086,0.451,2.165,0.945,3.243,1.449
		c1.074,0.549,2.156,1.03,3.222,1.641l-0.113,1.006l-13.48-1.279l-13.465-1.428l-26.925-2.872l0.22,0.001
		c-2.32,0.266-4.647,0.484-6.97,0.729l-6.973,0.716l-13.941,1.433l-13.942,1.432l-13.961,1.269L371.198,176.944z"/>
</g>
<g>
	<path fill="#BED685" d="M487.959,178.093c1.092-0.582,2.195-1.031,3.293-1.549c1.102-0.471,2.204-0.932,3.31-1.35
		c1.104-0.443,2.213-0.823,3.318-1.225c1.108-0.397,2.22-0.741,3.329-1.115c1.109-0.357,2.224-0.676,3.335-1.016
		c1.112-0.342,2.229-0.616,3.343-0.928c1.115-0.316,2.231-0.582,3.348-0.851c1.117-0.263,2.233-0.563,3.354-0.785l3.358-0.714
		c1.119-0.237,2.244-0.42,3.366-0.632c1.122-0.197,2.242-0.432,3.368-0.588l3.375-0.517c2.249-0.355,4.507-0.576,6.761-0.871
		c1.128-0.142,2.26-0.22,3.389-0.332l3.391-0.314l0.696-0.065l0.702,0.063l6.897,0.625l3.441,0.418
		c1.146,0.148,2.296,0.254,3.438,0.443l3.434,0.52c1.144,0.159,2.286,0.371,3.427,0.58l3.427,0.625l3.418,0.72
		c1.14,0.226,2.274,0.511,3.412,0.782c1.137,0.276,2.276,0.531,3.408,0.851c2.269,0.589,4.536,1.251,6.797,1.95
		c2.259,0.728,4.516,1.482,6.766,2.353c1.125,0.422,2.247,0.885,3.369,1.358c1.117,0.523,2.239,0.975,3.354,1.563l-0.08,1.008
		l-13.828-0.809l-13.817-0.968l-27.634-1.944h0.155l-27.166,1.942l-13.582,0.967l-13.597,0.812L487.959,178.093z"/>
</g>
<path fill="#FFFFFF" d="M455.836,216.764c-3.12,2.819-43.663,1.901-49.35,0c-5.686-1.899-24.802-30.068-24.802-30.068h90.426
	C472.11,186.695,459.775,213.202,455.836,216.764z"/>
<path fill="#5D6633" d="M566.971,219.195c-3.117,2.818-42.075,5.039-47.761,3.138c-5.686-1.9-22.927-34.2-22.927-34.2"/>
<path fill="#1D1D1B" d="M448.632,186.695c0,8.779-7.646,23.417-18.943,23.417c-11.302,0-21.975-14.638-21.975-23.417"/>
<path fill="#FFFFFF" d="M438.663,199.5c0.098,0.47-1.12,1.261-2.725,1.767c-1.603,0.508-2.987,0.537-3.085,0.068
	c-0.1-0.469,1.12-1.26,2.726-1.768C437.182,199.062,438.563,199.03,438.663,199.5z"/>
<path fill="#FFFFFF" d="M570.433,218.202c-3.118,2.818-43.661,1.9-49.347,0c-5.685-1.9-24.803-30.069-24.803-30.069h90.427
	C586.71,188.133,574.375,214.642,570.433,218.202z"/>
<path fill="#1D1D1B" d="M522.312,188.133c0,8.78,10.493,21.079,21.792,21.079s19.126-12.299,19.126-21.079"/>
<path fill="#FFFFFF" d="M532.28,200.938c-0.1,0.47,1.121,1.261,2.727,1.768c1.604,0.508,2.982,0.536,3.083,0.067
	c0.099-0.47-1.122-1.26-2.728-1.768C533.76,200.499,532.38,200.468,532.28,200.938z"/>
<path fill="#FFFFFF" d="M416.481,273.034l133.027-13.373c0,0-12.498,20.258-36.938,20.721c-24.438,0.462-93.128,2.18-93.128,2.18
	L416.481,273.034z"/>
<path fill="#5D6633" d="M543.364,268.331l-11.717,0.896l-3.518,7.961l-5.555-7.035l-104.157,9.105l1.024,3.303
	c0,0,77.701,4.589,102.139,4.127c15.615-0.297,20.407-7.367,21.786-18.357H543.364z"/>
<path fill="#71882E" d="M602.091,154.59l-13.795-17.102l-0.607-19.427c0,0-26.76,8.063-37.332,8.326
	c-10.574,0.264-30.66,4.758-30.66,4.758l-46,13.232c0,0-35.451-10.723-35.015-10.59c0.438,0.132-23.98-2.158-29.382-2.643
	c-5.402-0.486-29.391-13.021-27.615-13.282s-7.744,18.667-9.746,20.682c-2.003,2.017-8.43,16.425-8.43,16.425l-0.213,0.481
	c0,0-6.939-30.554-5.203-34.864c1.734-4.309,6.953-7.745,13.909-10.834c6.954-3.089,213.724-2.363,221.147,0
	c7.424,2.362,12.566,7.414,13.91,10.834c1.343,3.422-5.157,34.542-5.157,34.542L602.091,154.59z"/>
<path fill="#BED685" d="M380.15,134.927"/>
<path fill="#8FB25E" d="M566.971,239.563h73.781l44.745-78.885c0,0-5.079-8.697-4.268-12.225c0.813-3.525,26.521,4.49,27.643,6.432
	c1.121,1.941-15.447,9.757-15.447,9.757l-42.713,90.976l-83.741,13.822"/>
<path fill="#8FB25E" d="M415.429,267.68h-73.781l-75.021-36.847c0,0-11.801,1.879-12.614,5.405
	c-0.812,3.526-3.383-26.888-4.504-28.829c-1.124-1.941,16.216,14.414,16.216,14.414l65.963,29.801l83.741-13.822"/>
<path fill="#8FB25E" d="M555.575,357.063l12.46,55.759l-5.913,38.731l39.639,1.802c0,0,4.486-3.108,0-4.665
	c-4.486-1.555-28.556-5.803-28.556-5.803l5.713-37.508l-7.327-47.984"/>
<path fill="#8FB25E" d="M410.579,354.159l-12.461,55.758l3.643,38.033l-40.54,1.063c0,0-4.486-3.11,0-4.666
	c4.486-1.555,28.556-5.802,28.556-5.802l-2.542-36.071l7.329-47.984"/>
</svg>
