<?xml version="1.0" encoding="utf-8"?>
<!-- Generator: Adobe Illustrator 16.0.0, SVG Export Plug-In . SVG Version: 6.00 Build 0)  -->
<!DOCTYPE svg PUBLIC "-//W3C//DTD SVG 1.1//EN" "http://www.w3.org/Graphics/SVG/1.1/DTD/svg11.dtd">
<svg version="1.1" id="Layer_1" xmlns="http://www.w3.org/2000/svg" xmlns:xlink="http://www.w3.org/1999/xlink" x="0px" y="0px"
	 width="960px" height="560px" viewBox="0 0 960 560" enable-background="new 0 0 960 560" xml:space="preserve">
<path fill="#8FB25E" d="M405.397,352.078l-6.952,10.063h-15.996l-30.264-202.737l-5.203-34.864l13.908-10.834h221.148l13.91,10.834
	l-5.156,34.542l-30.313,203.06h-15.994l-6.955-10.063C537.531,352.078,472.162,316.477,405.397,352.078z"/>
<path fill="#5D6633" d="M461,190.647c0,0-6.389,29.283-10.328,32.845c-3.121,2.818-43.664,0.031-49.35-1.869"/>
<g>
	<path fill="#BED685" d="M359.242,179.092c0,0,0.428-0.192,1.23-0.493c0.803-0.28,1.979-0.763,3.477-1.233
		c1.498-0.494,3.316-1.032,5.402-1.594c2.086-0.558,4.441-1.117,7.008-1.659c2.568-0.53,5.35-1.038,8.291-1.489
		c2.941-0.438,6.045-0.846,9.254-1.151c1.604-0.188,3.236-0.29,4.889-0.415c0.824-0.063,1.654-0.123,2.49-0.186
		c0.835-0.038,1.674-0.076,2.516-0.114c3.371-0.193,6.795-0.208,10.218-0.255c3.423,0.048,6.847,0.075,10.217,0.268
		c1.685,0.057,3.356,0.175,5.008,0.305c1.651,0.119,3.283,0.236,4.888,0.42c3.209,0.305,6.313,0.716,9.254,1.154
		c2.941,0.45,5.723,0.957,8.291,1.488c5.135,1.064,9.414,2.264,12.41,3.238c1.496,0.467,2.674,0.947,3.477,1.227
		c0.802,0.299,1.23,0.49,1.23,0.49v1.012c0,0-1.713,0.03-4.707,0.084c-2.996,0.039-7.275,0.166-12.41,0.188
		c-10.271,0.063-23.964,0.148-37.657,0.232c-13.694-0.084-27.388-0.169-37.657-0.232c-5.135-0.018-9.414-0.148-12.41-0.187
		c-2.994-0.055-4.707-0.085-4.707-0.085V179.092z"/>
</g>
<g>
	<path fill="#BED685" d="M476.887,179.043c0-0.001,0.428-0.193,1.23-0.494c0.801-0.281,1.979-0.764,3.477-1.233
		c1.498-0.494,3.316-1.032,5.402-1.594c2.086-0.558,4.439-1.116,7.006-1.659c2.568-0.53,5.35-1.037,8.292-1.49
		c2.942-0.438,6.044-0.845,9.254-1.15c1.604-0.188,3.235-0.289,4.888-0.415c0.826-0.062,1.656-0.124,2.49-0.187
		c0.836-0.037,1.676-0.075,2.518-0.113c3.37-0.193,6.793-0.207,10.217-0.255c3.424,0.049,6.847,0.075,10.217,0.269
		c1.685,0.056,3.356,0.174,5.008,0.305c1.65,0.119,3.283,0.234,4.888,0.419c3.21,0.306,6.312,0.716,9.254,1.154
		c2.942,0.45,5.724,0.958,8.291,1.487c5.134,1.066,9.413,2.265,12.409,3.239c1.498,0.468,2.675,0.948,3.477,1.226
		c0.803,0.3,1.23,0.491,1.23,0.492v1.01c0,0-1.711,0.031-4.707,0.085c-2.996,0.038-7.275,0.167-12.409,0.188
		c-10.271,0.063-23.964,0.147-37.657,0.232c-13.693-0.085-27.387-0.169-37.658-0.231c-5.135-0.02-9.414-0.15-12.408-0.188
		c-2.996-0.054-4.707-0.086-4.707-0.086V179.043z"/>
</g>
<path fill="#FFFFFF" d="M444.725,220.716c-3.119,2.819-43.662,1.901-49.348,0c-5.686-1.899-24.803-30.068-24.803-30.068H461
	C461,190.647,448.664,217.154,444.725,220.716z"/>
<path fill="#5D6633" d="M555.861,223.147c-3.118,2.818-42.076,5.039-47.762,3.138c-5.686-1.9-22.928-34.2-22.928-34.2"/>
<path fill="#1D1D1B" d="M437.521,190.647c0,8.779-9.162,15.897-20.459,15.897c-11.301,0-20.459-7.118-20.459-15.897"/>
<path fill="#FFFFFF" d="M427.553,203.452c0.098,0.47-1.121,1.261-2.725,1.767c-1.604,0.508-2.986,0.537-3.084,0.068
	c-0.1-0.469,1.119-1.26,2.725-1.768C426.072,203.014,427.453,202.982,427.553,203.452z"/>
<path fill="#FFFFFF" d="M559.322,222.154c-3.117,2.818-43.662,1.9-49.348,0c-5.684-1.9-24.803-30.069-24.803-30.069H575.6
	C575.6,192.085,563.264,218.594,559.322,222.154z"/>
<path fill="#1D1D1B" d="M511.201,192.085c0,8.78,9.16,15.896,20.459,15.896c11.3,0,20.459-7.115,20.459-15.896"/>
<path fill="#FFFFFF" d="M521.17,204.89c-0.1,0.47,1.121,1.261,2.727,1.768c1.604,0.508,2.982,0.536,3.082,0.067
	c0.1-0.47-1.121-1.26-2.727-1.768C522.649,204.451,521.27,204.42,521.17,204.89z"/>
<path fill="#FFFFFF" d="M403.201,268.449l136.402-2.476c0,0-32.433,37.322-56.873,37.785c-24.437,0.462-75.549-19.221-75.549-19.221
	L403.201,268.449z"/>
<path fill="#5D6633" d="M532.254,272.283l-11.717,0.896l-3.518,7.961l-5.555-7.035l-104.158,9.105l1.025,3.303
	c0,0,49.962,17.706,74.398,17.244c15.615-0.297,48.148-20.484,49.527-31.475H532.254z"/>
<path fill="#71882E" d="M590.98,158.542l-13.795-17.102l-0.607-19.427c0,0-26.76,8.062-37.332,8.326
	c-10.574,0.264-30.66,4.758-30.66,4.758l-46,13.233c0,0-35.451-10.723-35.014-10.59c0.438,0.132-23.98-2.158-29.383-2.643
	c-5.402-0.486-29.391-13.02-27.615-13.282s-7.744,18.667-9.746,20.682c-2.002,2.016-8.43,16.425-8.43,16.425l-0.213,0.481
	c0,0-6.939-30.553-5.203-34.864c1.734-4.31,6.953-7.746,13.908-10.834s213.725-2.363,221.148,0
	c7.424,2.362,12.566,7.414,13.91,10.834s-5.156,34.542-5.156,34.542L590.98,158.542z"/>
<path fill="#BED685" d="M369.041,138.879"/>
<path fill="#8FB25E" d="M555.861,243.516h73.781l44.744-78.885c0,0-5.08-8.698-4.268-12.224s26.521,4.49,27.643,6.431
	c1.121,1.941-15.447,9.757-15.447,9.757l-42.713,90.976l-83.74,13.822"/>
<path fill="#8FB25E" d="M406.121,266.227H332.34l-67.676,43.449c0,0,5.082,8.699,4.269,12.227
	c-0.812,3.525-29.223-11.699-30.345-13.64c-1.123-1.941,19.819-7.208,19.819-7.208l63.972-50.883l83.742-13.822"/>
<path fill="#8FB25E" d="M544.465,361.016l12.461,55.759l18.441,39.81h35.889c0,0,4.486-3.108,0-4.664
	c-4.486-1.555-28.557-5.803-28.557-5.803l-14.891-36.785l-7.328-47.984"/>
<path fill="#8FB25E" d="M399.469,358.111l-12.461,55.758l-18.441,39.81h-35.889c0,0-4.486-3.11,0-4.665s28.556-5.803,28.556-5.803
	l14.892-36.785l7.328-47.984"/>
</svg>
