<?xml version="1.0" encoding="utf-8"?>
<!-- Generator: Adobe Illustrator 16.0.0, SVG Export Plug-In . SVG Version: 6.00 Build 0)  -->
<!DOCTYPE svg PUBLIC "-//W3C//DTD SVG 1.1//EN" "http://www.w3.org/Graphics/SVG/1.1/DTD/svg11.dtd">
<svg version="1.1" id="Layer_1" xmlns="http://www.w3.org/2000/svg" xmlns:xlink="http://www.w3.org/1999/xlink" x="0px" y="0px"
	 width="841.89px" height="595.28px" viewBox="0 0 841.89 595.28" enable-background="new 0 0 841.89 595.28" xml:space="preserve">
<path fill="#70A3C1" d="M486.587,419.098c111.77-41.4,27.931-113.598,27.931-113.598c57.64-38.771,36.107-160.433,36.107-160.433
	c6.579-1.487,12.942-6.203,15.551-9.255c4.376-5.12,7.019-11.767,7.019-19.03c0-16.187-13.122-29.309-29.309-29.309
	c-16.186,0-29.308,13.122-29.308,29.309c0,3.9,0.82,7.609,2.204,11.012c-113.137-25.4-208.275,0-208.275,0
	c1.383-3.402,2.352-7.027,2.352-10.928c0-16.188-13.122-29.309-29.309-29.309c-16.186,0-29.309,13.121-29.309,29.309
	c0,7.264,2.644,13.91,7.02,19.03c4.031,4.718,9.535,8.14,15.799,9.556c0,0-22.184,121.663,35.456,160.435
	c0,0-83.396,82.029,31.883,112.314C342.398,418.201,454.69,430.912,486.587,419.098z"/>
<path fill="none" stroke="#5D6733" stroke-width="0.6513" stroke-miterlimit="10" d="M573.194,478.125"/>
<g>
	<path fill="#558AA5" d="M455.75,339.216c9.728-4.552-26.223-6.156-43.032-5.549c-18.155,0.658-33.571-2.246-40.254,6.57
		C372.464,340.237,400.06,365.272,455.75,339.216z"/>
</g>
<path fill="#FFFFFF" d="M378.348,338.445c0,0,4.797,12.854,11.457,11.572c3.025-0.582,4.998-4.23,9.606-13.083
	c0,0-12.408-0.788-20.828,0.673l-0.515,0.026L378.348,338.445z"/>
<g>
	<g>
		<path fill="#558AA5" d="M533.386,265.383c-1.425-1.826,0.352,0.525,0.684,0.999c1.11,1.588,2.146,3.228,3.153,4.882
			c3.409,5.598,6.284,11.528,8.66,17.632c3.354,8.616,5.656,17.708,6.735,26.89c1.269,10.796-0.433,21.26-0.487,32.028
			c-0.127,25.092,11.743,52.232,29.643,69.902c4.187,4.133,10.638-2.313,6.448-6.448c-18.731-18.49-29.113-46.75-26.476-72.789
			c2.767-27.311-4.825-57.663-21.911-79.544C536.218,254.304,529.813,260.807,533.386,265.383L533.386,265.383z"/>
	</g>
</g>
<circle fill="#558AA5" stroke="#558AA5" stroke-width="2.018" stroke-miterlimit="10" cx="578.79" cy="408.493" r="24.706"/>
<path fill="#558AA5" d="M227.233,284.907c0,14.183-11.499,25.676-25.677,25.676c-14.183,0-25.679-11.493-25.679-25.676
	c0-14.182,11.497-25.676,25.679-25.676C215.735,259.23,227.233,270.725,227.233,284.907z"/>
<g>
	<g>
		<path fill="#558AA5" d="M314.453,303.585c-2.95-5.646-8.986-10.146-15.242-11.189c-18.282-3.049-31.439,16.011-41.254,28.113
			c-9.446,11.647-23.779,0.803-31.969-6.708c-7.126-6.536-13.615-14.115-19.031-22.137c-3.271-4.844-11.175-0.286-7.874,4.603
			c5.345,7.916,11.63,15.359,18.429,22.053c9.184,9.042,22.35,19.369,36.116,15.807c8.823-2.283,13.286-10.869,18.733-17.306
			c5.517-6.519,12.43-13.558,21.086-15.446c6.118-1.334,11.149,3.021,13.131,6.815C309.303,313.401,317.172,308.791,314.453,303.585
			L314.453,303.585z"/>
	</g>
</g>
<circle fill="#70A3C1" cx="341.975" cy="416.844" r="12.375"/>
<circle fill="#70A3C1" cx="468.125" cy="422.924" r="12.375"/>
<g>
	<line fill="#70A3C1" x1="341.975" y1="422.924" x2="341.975" y2="501.945"/>
	<g>
		<path fill="#70A3C1" d="M337.416,422.924c0,26.34,0,52.681,0,79.021c0,5.88,9.118,5.88,9.118,0c0-26.34,0-52.681,0-79.021
			C346.534,417.043,337.416,417.043,337.416,422.924L337.416,422.924z"/>
	</g>
</g>
<g>
	<line fill="#70A3C1" x1="468.125" y1="422.924" x2="468.125" y2="501.945"/>
	<g>
		<path fill="#70A3C1" d="M463.566,422.924c0,26.34,0,52.681,0,79.021c0,5.88,9.118,5.88,9.118,0c0-26.34,0-52.681,0-79.021
			C472.684,417.043,463.566,417.043,463.566,422.924L463.566,422.924z"/>
	</g>
</g>
<ellipse fill="#70A3C1" cx="328.034" cy="504.875" rx="17.197" ry="2.932"/>
<ellipse fill="#70A3C1" cx="481.152" cy="504.225" rx="17.197" ry="2.932"/>
<g>
	<g>
		<path fill="#558AA5" d="M368.366,182.619c-13.384,9.41-37.562,11.305-50.941,1.034c-1.996-1.532-3.934,1.858-1.969,3.367
			c14.373,11.034,40.513,9.066,54.879-1.034C372.375,184.552,370.429,181.168,368.366,182.619L368.366,182.619z"/>
	</g>
</g>
<g>
	<g>
		<path fill="#558AA5" d="M450.739,190.123c7.683,3.362,17.382,3.612,25.571,3.886c8.567,0.287,18.85-1.75,25.894-6.988
			c1.993-1.482,0.052-4.87-1.969-3.367c-6.674,4.964-15.854,6.455-23.925,6.456c-7.021,0.001-18.282-1.024-23.603-3.353
			C450.427,185.758,448.44,189.117,450.739,190.123L450.739,190.123z"/>
	</g>
</g>
<path fill="#FFFFFF" d="M501.22,232.54c0,15.123-13.649,27.383-30.485,27.383c-16.838,0-30.487-12.26-30.487-27.383
	c0-15.12,13.649-27.381,30.487-27.381C487.57,205.159,501.22,217.42,501.22,232.54z"/>
<ellipse cx="470.733" cy="244.48" rx="13.597" ry="15.975"/>
<ellipse fill="#FFFFFF" cx="476.472" cy="255.799" rx="1.935" ry="2.272"/>
<path fill="#FFFFFF" d="M328.381,233.54c0,15.123,13.65,27.383,30.486,27.383c16.838,0,30.486-12.26,30.486-27.383
	c0-15.12-13.648-27.381-30.486-27.381C342.031,206.159,328.381,218.42,328.381,233.54z"/>
<ellipse cx="359.351" cy="244.972" rx="13.597" ry="15.975"/>
<ellipse fill="#FFFFFF" cx="364.667" cy="256.65" rx="1.935" ry="2.272"/>
</svg>
