<?xml version="1.0" encoding="utf-8"?>
<!-- Generator: Adobe Illustrator 16.0.0, SVG Export Plug-In . SVG Version: 6.00 Build 0)  -->
<!DOCTYPE svg PUBLIC "-//W3C//DTD SVG 1.1//EN" "http://www.w3.org/Graphics/SVG/1.1/DTD/svg11.dtd">
<svg version="1.1" id="Layer_1" xmlns="http://www.w3.org/2000/svg" xmlns:xlink="http://www.w3.org/1999/xlink" x="0px" y="0px"
	 width="841.89px" height="595.28px" viewBox="0 0 841.89 595.28" enable-background="new 0 0 841.89 595.28" xml:space="preserve">
<path fill="#70A3C1" d="M486.587,419.098c111.77-41.4,27.931-113.598,27.931-113.598c57.64-38.771,36.107-160.433,36.107-160.433
	c6.579-1.487,12.942-6.203,15.551-9.255c4.376-5.12,7.019-11.767,7.019-19.03c0-16.187-13.122-29.309-29.309-29.309
	c-16.186,0-29.308,13.122-29.308,29.309c0,3.9,0.82,7.609,2.204,11.012c-113.137-25.4-208.275,0-208.275,0
	c1.383-3.402,2.352-7.027,2.352-10.928c0-16.188-13.122-29.309-29.309-29.309c-16.186,0-29.309,13.121-29.309,29.309
	c0,7.264,2.644,13.91,7.02,19.03c4.031,4.718,9.535,8.14,15.799,9.556c0,0-22.184,121.663,35.456,160.435
	c0,0-83.396,82.029,31.883,112.314C342.398,418.201,454.69,430.912,486.587,419.098z"/>
<path fill="none" stroke="#5D6733" stroke-width="0.6513" stroke-miterlimit="10" d="M573.194,478.125"/>
<g>
	<path fill="#558AA5" d="M455.75,339.216c5.913-8.966-26.223-6.156-43.032-5.549c-18.155,0.658-33.571-2.246-40.254,6.57
		C372.464,340.237,412.718,404.469,455.75,339.216z"/>
</g>
<path fill="#FFFFFF" d="M378.348,338.445c0,0,4.798,12.854,11.457,11.572c3.025-0.582,4.998-4.23,9.605-13.083
	c0,0-12.408-0.788-20.828,0.673l-0.515,0.025L378.348,338.445z"/>
<g>
	<g>
		<path fill="#558AA5" d="M533.386,265.383c-1.425-1.825,0.352,0.525,0.684,1c1.11,1.588,2.146,3.228,3.153,4.882
			c3.409,5.598,6.284,11.527,8.66,17.632c3.354,8.616,5.656,17.708,6.735,26.89c1.269,10.797-0.433,21.261-0.487,32.028
			c-0.127,25.092,11.743,52.232,29.643,69.901c4.187,4.134,10.638-2.312,6.448-6.447c-18.731-18.491-29.113-46.751-26.476-72.789
			c2.767-27.311-4.825-57.663-21.911-79.544C536.218,254.304,529.813,260.807,533.386,265.383L533.386,265.383z"/>
	</g>
</g>
<circle fill="#558AA5" stroke="#558AA5" stroke-width="2.018" stroke-miterlimit="10" cx="578.79" cy="408.493" r="24.706"/>
<path fill="#558AA5" d="M161.596,284.667c0-14.75,11.957-26.705,26.707-26.705c14.747,0,26.706,11.955,26.706,26.705
	c0,14.751-11.959,26.704-26.706,26.704C173.553,311.371,161.596,299.418,161.596,284.667"/>
<g>
	<g>
		<path fill="#558AA5" d="M312.817,301.95c-4.593-3.063-11.38-2.797-16.528-1.989c-6.82,1.069-13.233,3.798-19.306,7.003
			c-4.294,2.267-8.343,4.98-12.29,7.798c-3.538,2.526-6.762,5.583-10.901,7.106c-11.854,4.362-24.042-5.095-32.099-12.751
			c-5.484-5.212-10.578-11.117-14.737-17.454c-3.211-4.893-11.111-0.33-7.874,4.603c10.522,16.033,27.921,35.145,48.429,35.759
			c6.714,0.2,12.923-2.615,18.122-6.643c7.888-6.109,16.485-11.756,26.006-14.942c3.944-1.32,9.369-2.25,12.792-1.753
			c1.215,0.177,2.412,0.499,3.555,0.944c-1.401-0.546-0.125-0.043,0.228,0.191C313.123,313.096,317.683,305.194,312.817,301.95
			L312.817,301.95z"/>
	</g>
</g>
<circle fill="#70A3C1" cx="341.975" cy="416.844" r="12.375"/>
<circle fill="#70A3C1" cx="468.125" cy="422.924" r="12.375"/>
<g>
	<line fill="#70A3C1" x1="341.975" y1="422.924" x2="341.975" y2="501.945"/>
	<g>
		<path fill="#70A3C1" d="M337.416,422.924c0,26.341,0,52.681,0,79.021c0,5.88,9.118,5.88,9.118,0c0-26.341,0-52.681,0-79.021
			C346.534,417.044,337.416,417.044,337.416,422.924L337.416,422.924z"/>
	</g>
</g>
<g>
	<line fill="#70A3C1" x1="468.125" y1="422.924" x2="468.125" y2="501.945"/>
	<g>
		<path fill="#70A3C1" d="M463.566,422.924c0,26.341,0,52.681,0,79.021c0,5.88,9.118,5.88,9.118,0c0-26.341,0-52.681,0-79.021
			C472.684,417.044,463.566,417.044,463.566,422.924L463.566,422.924z"/>
	</g>
</g>
<ellipse fill="#70A3C1" cx="328.034" cy="504.875" rx="17.197" ry="2.932"/>
<ellipse fill="#70A3C1" cx="481.152" cy="504.225" rx="17.197" ry="2.932"/>
<g>
	<g>
		<path fill="#558AA5" d="M371.366,194.619c-8.677,6.101-19.24,6.446-29.318,7.85c-7.495,1.043-16.232,3.869-20.956,10.267
			c-1.496,2.026,1.891,3.968,3.367,1.969c5.089-6.893,16.574-8.198,24.926-8.958c8.063-0.733,17.199-3.015,23.949-7.76
			C375.375,196.552,373.429,193.169,371.366,194.619L371.366,194.619z"/>
	</g>
</g>
<g>
	<g>
		<path fill="#558AA5" d="M450.739,200.123c6.662,2.916,14.788,3.243,21.905,3.721c9.284,0.623,20.141,2.833,27.196,8.588
			c1.931,1.575,4.708-1.167,2.758-2.758c-6.292-5.133-14.669-7.823-22.554-9.074c-8.404-1.333-20.595-0.895-27.336-3.845
			C450.427,195.758,448.44,199.117,450.739,200.123L450.739,200.123z"/>
	</g>
</g>
<path fill="#FFFFFF" d="M501.22,232.54c0,15.123-13.649,27.383-30.485,27.383c-16.838,0-30.487-12.26-30.487-27.383
	c0-15.12,13.649-27.381,30.487-27.381C487.57,205.159,501.22,217.42,501.22,232.54z"/>
<ellipse cx="470.733" cy="234.48" rx="13.597" ry="15.975"/>
<ellipse fill="#FFFFFF" cx="476.472" cy="245.799" rx="1.936" ry="2.272"/>
<path fill="#FFFFFF" d="M328.381,233.54c0,15.123,13.65,27.383,30.486,27.383c16.838,0,30.486-12.26,30.486-27.383
	c0-15.12-13.648-27.381-30.486-27.381C342.031,206.159,328.381,218.42,328.381,233.54z"/>
<ellipse cx="359.351" cy="234.972" rx="13.597" ry="15.975"/>
<ellipse fill="#FFFFFF" cx="364.667" cy="246.65" rx="1.935" ry="2.272"/>
</svg>
