<?xml version="1.0" encoding="utf-8"?>
<!-- Generator: Adobe Illustrator 16.0.0, SVG Export Plug-In . SVG Version: 6.00 Build 0)  -->
<!DOCTYPE svg PUBLIC "-//W3C//DTD SVG 1.1//EN" "http://www.w3.org/Graphics/SVG/1.1/DTD/svg11.dtd">
<svg version="1.1" id="Layer_1" xmlns="http://www.w3.org/2000/svg" xmlns:xlink="http://www.w3.org/1999/xlink" x="0px" y="0px"
	 width="841.89px" height="595.28px" viewBox="0 0 841.89 595.28" enable-background="new 0 0 841.89 595.28" xml:space="preserve">
<path fill="#70A3C1" d="M486.587,419.098c111.77-41.4,27.931-113.598,27.931-113.598c57.64-38.771,36.107-160.433,36.107-160.433
	c6.579-1.487,12.942-6.203,15.551-9.255c4.376-5.12,7.019-11.767,7.019-19.03c0-16.187-13.122-29.309-29.309-29.309
	c-16.186,0-29.308,13.122-29.308,29.309c0,3.9,0.82,7.609,2.204,11.012c-113.137-25.4-208.275,0-208.275,0
	c1.383-3.402,2.352-7.027,2.352-10.928c0-16.188-13.122-29.309-29.309-29.309c-16.186,0-29.309,13.121-29.309,29.309
	c0,7.264,2.644,13.91,7.02,19.03c4.031,4.718,9.535,8.14,15.799,9.556c0,0-22.184,121.663,35.456,160.435
	c0,0-83.396,82.029,31.883,112.314C342.398,418.201,454.69,430.912,486.587,419.098z"/>
<path fill="none" stroke="#5D6733" stroke-width="0.6513" stroke-miterlimit="10" d="M573.194,478.125"/>
<g>
	<path fill="#558AA5" d="M455.75,339.216c9.728-4.552-26.223-18.156-43.032-17.549c-18.155,0.658-33.571,9.754-40.254,18.57
		C372.464,340.237,400.06,365.272,455.75,339.216z"/>
</g>
<path fill="#FFFFFF" d="M392.02,326.753c0,0,4.798,12.854,11.457,11.572c3.025-0.582,4.998-4.23,9.605-13.083
	c0,0-12.408-0.788-20.828,0.673l-0.515,0.025L392.02,326.753z"/>
<g>
	<g>
		<path fill="#558AA5" d="M533.386,265.383c-1.425-1.825,0.352,0.525,0.684,1c1.11,1.588,2.146,3.228,3.153,4.882
			c3.409,5.598,6.284,11.527,8.66,17.632c3.354,8.616,5.656,17.708,6.735,26.89c1.269,10.797-0.433,21.26-0.487,32.027
			c-0.127,25.093,11.743,52.232,29.643,69.902c4.187,4.133,10.638-2.313,6.448-6.447c-18.731-18.491-29.113-46.751-26.476-72.789
			c2.767-27.311-4.825-57.662-21.911-79.544C536.218,254.304,529.813,260.807,533.386,265.383L533.386,265.383z"/>
	</g>
</g>
<circle fill="#558AA5" stroke="#558AA5" stroke-width="2.018" stroke-miterlimit="10" cx="578.79" cy="408.493" r="24.706"/>
<path fill="#558AA5" d="M144.036,209.71c0-22.521,18.258-40.775,40.779-40.775c22.519,0,40.779,18.254,40.779,40.775
	c0,22.524-18.261,40.777-40.779,40.777C162.294,250.487,144.036,232.234,144.036,209.71"/>
<g>
	<g>
		<path fill="#558AA5" d="M311.728,310.283c1.48-0.31,2.719-0.792,3.938-1.741c2.888-2.251,0.959-6.824-2.047-7.719
			c-1.239-0.368-2.67-0.227-3.938-0.15c-9.433,0.564-18.854,1.896-28.229,3.024c-6.493,0.782-12.68-1.623-18.285-4.681
			c-15.148-8.265-27.45-21.893-38.497-34.877c-9.013-10.595-17.328-21.799-25.08-33.345c-0.912-1.357-1.818-2.721-2.696-4.101
			c-3.145-4.945-11.04-0.376-7.874,4.602c14.069,22.124,30.797,43.687,50.244,61.303c10.81,9.791,24.692,20.479,40.026,20.371
			c9.564-0.067,19.309-2.296,28.872-3.069c1.311-0.106,2.664-0.258,3.981-0.169c-3.684-0.25-4.497-7.31-1.146-8.688
			c-0.095,0.039-0.193,0.068-0.291,0.099c-0.266,0.084-0.538,0.149-0.809,0.215c-0.197,0.048-0.394,0.092-0.592,0.133
			C303.549,302.692,305.991,311.481,311.728,310.283L311.728,310.283z"/>
	</g>
</g>
<circle fill="#70A3C1" cx="341.975" cy="416.844" r="12.375"/>
<circle fill="#70A3C1" cx="468.125" cy="422.924" r="12.375"/>
<g>
	<line fill="#70A3C1" x1="341.975" y1="422.924" x2="341.975" y2="501.945"/>
	<g>
		<path fill="#70A3C1" d="M337.416,422.924c0,26.341,0,52.681,0,79.021c0,5.88,9.118,5.88,9.118,0c0-26.341,0-52.681,0-79.021
			C346.534,417.044,337.416,417.044,337.416,422.924L337.416,422.924z"/>
	</g>
</g>
<g>
	<line fill="#70A3C1" x1="468.125" y1="422.924" x2="468.125" y2="501.945"/>
	<g>
		<path fill="#70A3C1" d="M463.566,422.924c0,26.341,0,52.681,0,79.021c0,5.88,9.118,5.88,9.118,0c0-26.341,0-52.681,0-79.021
			C472.684,417.044,463.566,417.044,463.566,422.924L463.566,422.924z"/>
	</g>
</g>
<ellipse fill="#70A3C1" cx="328.034" cy="504.875" rx="17.197" ry="2.932"/>
<ellipse fill="#70A3C1" cx="481.152" cy="504.225" rx="17.197" ry="2.932"/>
<g>
	<g>
		<path fill="#558AA5" d="M371.366,194.619c-14.603,10.267-35.067,7.439-51.926,9.59c-2.459,0.313-2.49,4.218,0,3.9
			c17.523-2.235,38.67,0.58,53.895-10.123C375.375,196.552,373.429,193.169,371.366,194.619L371.366,194.619z"/>
	</g>
</g>
<g>
	<g>
		<path fill="#558AA5" d="M450.739,200.123c6.142,2.688,13.539,3.083,20.108,3.6c11.19,0.88,22.357,1.63,33.301,4.317
			c2.443,0.6,3.479-3.162,1.037-3.762c-8.771-2.152-17.85-3.283-26.837-3.993c-6.755-0.533-13.463-0.776-20.134-2.081
			c-1.39-0.271-2.767-0.614-4.127-1.008c-0.289-0.084-2.23-0.813-1.379-0.44C450.427,195.758,448.44,199.117,450.739,200.123
			L450.739,200.123z"/>
	</g>
</g>
<path fill="#FFFFFF" d="M501.22,232.54c0,15.123-13.649,27.383-30.485,27.383c-16.838,0-30.487-12.26-30.487-27.383
	c0-15.12,13.649-27.381,30.487-27.381C487.57,205.159,501.22,217.42,501.22,232.54z"/>
<ellipse cx="470.733" cy="224.479" rx="13.597" ry="15.975"/>
<ellipse fill="#FFFFFF" cx="476.472" cy="235.8" rx="1.936" ry="2.271"/>
<path fill="#FFFFFF" d="M328.381,233.54c0,15.123,13.65,27.383,30.486,27.383c16.838,0,30.486-12.26,30.486-27.383
	c0-15.12-13.648-27.381-30.486-27.381C342.031,206.159,328.381,218.42,328.381,233.54z"/>
<ellipse cx="359.351" cy="224.972" rx="13.597" ry="15.975"/>
<ellipse fill="#FFFFFF" cx="364.667" cy="236.65" rx="1.935" ry="2.272"/>
</svg>
