<?xml version="1.0" encoding="utf-8"?>
<!-- Generator: Adobe Illustrator 16.0.0, SVG Export Plug-In . SVG Version: 6.00 Build 0)  -->
<!DOCTYPE svg PUBLIC "-//W3C//DTD SVG 1.1//EN" "http://www.w3.org/Graphics/SVG/1.1/DTD/svg11.dtd">
<svg version="1.1" id="Layer_1" xmlns="http://www.w3.org/2000/svg" xmlns:xlink="http://www.w3.org/1999/xlink" x="0px" y="0px"
	 width="841.89px" height="595.28px" viewBox="0 0 841.89 595.28" enable-background="new 0 0 841.89 595.28" xml:space="preserve">
<path fill="#70A3C1" d="M486.587,419.098c111.77-41.4,27.931-113.598,27.931-113.598c57.64-38.771,36.107-160.433,36.107-160.433
	c6.579-1.487,12.942-6.203,15.551-9.255c4.376-5.12,7.019-11.767,7.019-19.03c0-16.187-13.122-29.309-29.309-29.309
	c-16.186,0-29.308,13.122-29.308,29.309c0,3.9,0.82,7.609,2.204,11.012c-113.137-25.4-208.275,0-208.275,0
	c1.383-3.402,2.352-7.027,2.352-10.928c0-16.188-13.122-29.309-29.309-29.309c-16.186,0-29.309,13.121-29.309,29.309
	c0,7.264,2.644,13.91,7.02,19.03c4.031,4.718,9.535,8.14,15.799,9.556c0,0-22.184,121.663,35.456,160.435
	c0,0-83.396,82.029,31.883,112.314C342.398,418.201,454.69,430.912,486.587,419.098z"/>
<path fill="none" stroke="#5D6733" stroke-width="0.6513" stroke-miterlimit="10" d="M573.194,478.125"/>
<g>
	<g>
		<path fill="#558AA5" d="M533.387,265.383c-1.426-1.825,0.352,0.525,0.683,1c1.111,1.588,2.146,3.228,3.153,4.882
			c3.409,5.598,6.284,11.527,8.66,17.632c3.354,8.616,5.656,17.708,6.735,26.89c1.268,10.797-0.434,21.26-0.488,32.027
			c-0.126,25.093,11.744,52.232,29.644,69.902c4.187,4.133,10.637-2.313,6.447-6.447c-18.731-18.491-29.112-46.751-26.475-72.789
			c2.766-27.311-4.825-57.662-21.912-79.544C536.218,254.304,529.813,260.807,533.387,265.383L533.387,265.383z"/>
	</g>
</g>
<circle fill="#558AA5" stroke="#558AA5" stroke-width="2.018" stroke-miterlimit="10" cx="578.79" cy="408.493" r="24.706"/>
<path fill="#558AA5" d="M170.721,285.824c0-17.838,14.461-32.296,32.299-32.296c17.836,0,32.299,14.458,32.299,32.296
	c0,17.84-14.463,32.297-32.299,32.297C185.182,318.121,170.721,303.664,170.721,285.824"/>
<g>
	<g>
		<path fill="#558AA5" d="M306.579,303.585c-0.187,0.345-0.739,1.004,0.309-0.343c-0.381,0.49-0.829,0.927-1.282,1.349
			c-1.108,1.032-3.889,2.727-6.226,3.894c-12.233,6.109-27.806,8.743-41.282,9.462c-13.81,0.737-26.789-5.038-37.639-13.151
			c-3.62-2.708-6.938-5.884-10.036-9.168c-0.989-1.048-1.939-2.132-2.864-3.235c-0.71-0.848-1.156-1.474-0.603-0.729
			c-3.463-4.664-11.384-0.125-7.873,4.604c13.266,17.867,35.118,30.847,57.604,30.836c9.259-0.004,18.909-2.074,27.9-4.138
			c6.438-1.478,12.744-3.507,18.738-6.29c3.879-1.802,8.979-4.521,11.127-8.486C317.254,303.018,309.381,298.415,306.579,303.585
			L306.579,303.585z"/>
	</g>
</g>
<circle fill="#70A3C1" cx="341.975" cy="416.844" r="12.375"/>
<circle fill="#70A3C1" cx="468.125" cy="422.924" r="12.375"/>
<g>
	<line fill="#70A3C1" x1="341.975" y1="422.924" x2="341.975" y2="501.945"/>
	<g>
		<path fill="#70A3C1" d="M337.415,422.924c0,26.341,0,52.681,0,79.021c0,5.88,9.119,5.88,9.119,0c0-26.341,0-52.681,0-79.021
			C346.534,417.044,337.415,417.044,337.415,422.924L337.415,422.924z"/>
	</g>
</g>
<g>
	<line fill="#70A3C1" x1="468.125" y1="422.924" x2="468.125" y2="501.945"/>
	<g>
		<path fill="#70A3C1" d="M463.565,422.924c0,26.341,0,52.681,0,79.021c0,5.88,9.119,5.88,9.119,0c0-26.341,0-52.681,0-79.021
			C472.685,417.044,463.565,417.044,463.565,422.924L463.565,422.924z"/>
	</g>
</g>
<ellipse fill="#70A3C1" cx="328.034" cy="504.875" rx="17.197" ry="2.932"/>
<ellipse fill="#70A3C1" cx="481.152" cy="504.225" rx="17.197" ry="2.932"/>
<g>
	<g>
		<path fill="#558AA5" d="M371.366,194.619c-14.604,10.267-35.067,7.439-51.926,9.59c-2.459,0.313-2.49,4.218,0,3.9
			c17.523-2.235,38.67,0.58,53.895-10.123C375.375,196.552,373.429,193.169,371.366,194.619L371.366,194.619z"/>
	</g>
</g>
<g>
	<g>
		<path fill="#558AA5" d="M450.739,200.123c6.142,2.688,13.538,3.083,20.107,3.6c11.191,0.88,22.357,1.63,33.302,4.317
			c2.442,0.6,3.479-3.162,1.037-3.762c-8.771-2.152-17.85-3.283-26.837-3.993c-6.756-0.533-13.464-0.776-20.134-2.081
			c-1.391-0.271-2.767-0.614-4.128-1.008c-0.289-0.084-2.23-0.813-1.379-0.44C450.428,195.758,448.44,199.117,450.739,200.123
			L450.739,200.123z"/>
	</g>
</g>
<path fill="#FFFFFF" d="M501.22,232.54c0,15.123-13.649,27.383-30.485,27.383c-16.838,0-30.487-12.26-30.487-27.383
	c0-15.12,13.649-27.381,30.487-27.381C487.57,205.159,501.22,217.42,501.22,232.54z"/>
<ellipse cx="470.733" cy="224.479" rx="13.597" ry="15.975"/>
<ellipse fill="#FFFFFF" cx="476.472" cy="235.8" rx="1.936" ry="2.271"/>
<path fill="#FFFFFF" d="M328.381,233.54c0,15.123,13.65,27.383,30.486,27.383c16.838,0,30.486-12.26,30.486-27.383
	c0-15.12-13.648-27.381-30.486-27.381C342.031,206.159,328.381,218.42,328.381,233.54z"/>
<ellipse cx="359.351" cy="224.972" rx="13.597" ry="15.975"/>
<ellipse fill="#FFFFFF" cx="364.667" cy="236.65" rx="1.935" ry="2.272"/>
<g>
	<path fill="#558AA5" d="M455.75,339.216c9.728-4.552-26.223-18.156-43.032-17.549c-18.155,0.658-33.571,9.754-40.254,18.57
		C372.464,340.237,400.06,365.272,455.75,339.216z"/>
</g>
<path fill="#FFFFFF" d="M392.02,326.753c0,0,4.798,12.854,11.457,11.572c3.025-0.582,4.998-4.23,9.605-13.083
	c0,0-12.408-0.788-20.828,0.673l-0.515,0.025L392.02,326.753z"/>
</svg>
