<?xml version="1.0" encoding="utf-8"?>
<!-- Generator: Adobe Illustrator 16.0.0, SVG Export Plug-In . SVG Version: 6.00 Build 0)  -->
<!DOCTYPE svg PUBLIC "-//W3C//DTD SVG 1.1//EN" "http://www.w3.org/Graphics/SVG/1.1/DTD/svg11.dtd">
<svg version="1.1" id="Layer_1" xmlns="http://www.w3.org/2000/svg" xmlns:xlink="http://www.w3.org/1999/xlink" x="0px" y="0px"
	 width="841.89px" height="595.28px" viewBox="0 0 841.89 595.28" enable-background="new 0 0 841.89 595.28" xml:space="preserve">
<path fill="#70A3C1" d="M486.587,419.098c111.77-41.4,27.931-113.598,27.931-113.598c57.64-38.771,36.107-160.433,36.107-160.433
	c6.579-1.487,12.942-6.203,15.551-9.255c4.376-5.12,7.019-11.767,7.019-19.03c0-16.187-13.122-29.309-29.309-29.309
	c-16.186,0-29.308,13.122-29.308,29.309c0,3.9,0.82,7.609,2.204,11.012c-113.137-25.4-208.275,0-208.275,0
	c1.383-3.402,2.352-7.027,2.352-10.928c0-16.188-13.122-29.309-29.309-29.309c-16.186,0-29.309,13.121-29.309,29.309
	c0,7.264,2.644,13.91,7.02,19.03c4.031,4.718,9.535,8.14,15.799,9.556c0,0-22.184,121.663,35.456,160.435
	c0,0-83.396,82.029,31.883,112.314C342.398,418.201,454.69,430.912,486.587,419.098z"/>
<path fill="none" stroke="#5D6733" stroke-width="0.6513" stroke-miterlimit="10" d="M573.194,478.125"/>
<g>
	<g>
		<path fill="#558AA5" d="M533.386,265.383c-1.425-1.825,0.352,0.525,0.684,1c1.11,1.588,2.146,3.227,3.153,4.882
			c3.409,5.598,6.284,11.527,8.66,17.632c3.354,8.616,5.656,17.708,6.735,26.89c1.269,10.797-0.433,21.261-0.487,32.028
			c-0.126,25.092,11.743,52.232,29.643,69.901c4.187,4.134,10.637-2.312,6.448-6.447c-18.731-18.491-29.113-46.751-26.475-72.789
			c2.766-27.311-4.825-57.663-21.912-79.544C536.218,254.305,529.813,260.807,533.386,265.383L533.386,265.383z"/>
	</g>
</g>
<circle fill="#558AA5" stroke="#558AA5" stroke-width="2.018" stroke-miterlimit="10" cx="578.79" cy="408.493" r="24.706"/>
<circle fill="#70A3C1" cx="341.975" cy="416.844" r="12.375"/>
<circle fill="#70A3C1" cx="468.125" cy="422.924" r="12.375"/>
<g>
	<line fill="#70A3C1" x1="341.975" y1="422.924" x2="341.975" y2="501.945"/>
	<g>
		<path fill="#70A3C1" d="M337.416,422.924c0,26.341,0,52.681,0,79.021c0,5.881,9.118,5.881,9.118,0c0-26.341,0-52.681,0-79.021
			C346.534,417.043,337.416,417.043,337.416,422.924L337.416,422.924z"/>
	</g>
</g>
<g>
	<line fill="#70A3C1" x1="468.125" y1="422.924" x2="468.125" y2="501.945"/>
	<g>
		<path fill="#70A3C1" d="M463.566,422.924c0,26.341,0,52.681,0,79.021c0,5.881,9.118,5.881,9.118,0c0-26.341,0-52.681,0-79.021
			C472.684,417.043,463.566,417.043,463.566,422.924L463.566,422.924z"/>
	</g>
</g>
<ellipse fill="#70A3C1" cx="328.034" cy="504.875" rx="17.197" ry="2.932"/>
<ellipse fill="#70A3C1" cx="481.152" cy="504.225" rx="17.197" ry="2.932"/>
<g>
	<g>
		<path fill="#558AA5" d="M371.366,194.619c-14.604,10.267-35.067,7.439-51.926,9.59c-2.459,0.314-2.49,4.218,0,3.9
			c17.523-2.236,38.67,0.58,53.895-10.123C375.375,196.553,373.429,193.169,371.366,194.619L371.366,194.619z"/>
	</g>
</g>
<g>
	<g>
		<path fill="#558AA5" d="M450.739,200.123c6.142,2.688,13.539,3.083,20.108,3.6c11.19,0.881,22.357,1.63,33.301,4.316
			c2.442,0.6,3.479-3.161,1.037-3.76c-8.771-2.154-17.85-3.285-26.837-3.994c-6.755-0.533-13.463-0.777-20.133-2.081
			c-1.391-0.271-2.767-0.614-4.127-1.008c-0.289-0.083-2.23-0.813-1.379-0.44C450.427,195.758,448.44,199.117,450.739,200.123
			L450.739,200.123z"/>
	</g>
</g>
<path fill="#FFFFFF" d="M501.22,232.54c0,15.123-13.649,27.383-30.485,27.383c-16.838,0-30.487-12.26-30.487-27.383
	c0-15.12,13.649-27.381,30.487-27.381C487.57,205.159,501.22,217.42,501.22,232.54z"/>
<ellipse cx="470.733" cy="244.479" rx="13.597" ry="15.975"/>
<ellipse fill="#FFFFFF" cx="476.472" cy="255.8" rx="1.936" ry="2.271"/>
<path fill="#FFFFFF" d="M328.381,233.54c0,15.123,13.65,27.383,30.486,27.383c16.838,0,30.486-12.26,30.486-27.383
	c0-15.12-13.648-27.381-30.486-27.381C342.031,206.159,328.381,218.42,328.381,233.54z"/>
<ellipse cx="359.351" cy="244.972" rx="13.597" ry="15.975"/>
<ellipse fill="#FFFFFF" cx="364.667" cy="256.65" rx="1.935" ry="2.272"/>
<path fill="#70A3C1" d="M328.807,228.995"/>
<path fill="#558AA5" d="M171.541,408.492c0-11.741,9.519-21.257,21.259-21.257s21.26,9.516,21.26,21.257
	c0,11.742-9.52,21.258-21.26,21.258S171.541,420.234,171.541,408.492"/>
<g>
	<g>
		<path fill="#558AA5" d="M306.579,303.586c-5.208,7.865-14.582,16.076-23.246,21.773c-9.13,6.005-19.256,10.074-29.916,12.396
			c-4.677,1.019-9.456,1.234-14.023,2.729c-3.977,1.301-7.69,3.347-11.1,5.744c-13.744,9.664-22.885,25.172-29.93,40.076
			c-4.098,8.67-7.78,17.725-10.445,26.952c-1.635,5.662,7.165,8.063,8.793,2.424c2.541-8.798,6.034-17.386,9.941-25.653
			c6.741-14.261,15.639-29.608,29.457-38.033c8.08-4.927,18.008-4.691,26.917-7.262c9.919-2.86,19.331-7.584,27.799-13.45
			c8.913-6.175,17.591-13.981,23.626-23.095C317.709,303.27,309.809,298.708,306.579,303.586L306.579,303.586z"/>
	</g>
</g>
<path fill="#558AA5" stroke="#558AA5" stroke-miterlimit="10" d="M328.402,232.541c0,0,28.757-14.505,60.927,0
	c0,0-0.83-27.382-31.497-26.382C326.818,207.171,328.402,232.541,328.402,232.541z"/>
<path fill="#558AA5" stroke="#558AA5" stroke-miterlimit="10" d="M440.277,231.567c0,0,28.757-14.505,60.927,0
	c0,0-0.83-27.382-31.497-26.382C438.693,206.197,440.277,231.567,440.277,231.567z"/>
<g>
	<g>
		<path fill="#558AA5" d="M382.387,368.636c0.693-0.87,1.411-1.688,2.18-2.491c0.234-0.245,3.114-2.685,0.879-0.978
			c2.463-1.882,5.247-3.323,8.045-4.631c-2.074,0.97,2.399-0.824,2.226-0.764c1.458-0.507,2.949-0.908,4.437-1.311
			c3.607-0.976,6.132-1.369,9.441-1.665c7.102-0.635,13.795-0.203,20.013,1.197c1.491,0.336,2.954,0.779,4.415,1.225
			c0.932,0.297,1.854,0.619,2.769,0.966c-1.024-0.477-0.812-0.378,0.639,0.296c1.2,0.558,2.344,1.223,3.484,1.892
			c0.715,0.436,1.413,0.896,2.094,1.383c-1.126-0.892-1.113-0.848,0.039,0.132c5.516,4.861,13.646,5.446,19.092,0
			c4.956-4.956,5.523-14.224,0-19.092c-13.783-12.148-32.867-15.956-50.814-15.115c-16.775,0.785-37.072,6.105-48.03,19.864
			c-4.58,5.751-5.639,13.452,0,19.092C368.057,373.397,377.795,374.401,382.387,368.636L382.387,368.636z"/>
	</g>
</g>
<path fill="#FFFFFF" d="M378.348,338.445c0,0,4.798,12.854,11.457,11.572c3.025-0.582,4.998-4.23,9.605-13.083
	c0,0-12.408-0.788-20.828,0.673l-0.515,0.025L378.348,338.445z"/>
</svg>
