<?xml version="1.0" encoding="utf-8"?>
<!-- Generator: Adobe Illustrator 16.0.0, SVG Export Plug-In . SVG Version: 6.00 Build 0)  -->
<!DOCTYPE svg PUBLIC "-//W3C//DTD SVG 1.1//EN" "http://www.w3.org/Graphics/SVG/1.1/DTD/svg11.dtd">
<svg version="1.1" id="Layer_1" xmlns="http://www.w3.org/2000/svg" xmlns:xlink="http://www.w3.org/1999/xlink" x="0px" y="0px"
	 width="841.89px" height="595.28px" viewBox="0 0 841.89 595.28" enable-background="new 0 0 841.89 595.28" xml:space="preserve">
<path fill="#70A3C1" d="M486.587,419.098c111.77-41.4,27.931-113.598,27.931-113.598c57.64-38.771,36.107-160.433,36.107-160.433
	c6.579-1.487,12.942-6.203,15.551-9.255c4.376-5.12,7.019-11.767,7.019-19.03c0-16.187-13.122-29.309-29.309-29.309
	c-16.186,0-29.308,13.122-29.308,29.309c0,3.9,0.82,7.609,2.204,11.012c-113.137-25.4-208.275,0-208.275,0
	c1.383-3.402,2.352-7.027,2.352-10.928c0-16.188-13.122-29.309-29.309-29.309c-16.186,0-29.309,13.121-29.309,29.309
	c0,7.264,2.644,13.91,7.02,19.03c4.031,4.718,9.535,8.14,15.799,9.556c0,0-22.184,121.663,35.456,160.435
	c0,0-83.396,82.029,31.883,112.314C342.398,418.201,454.69,430.912,486.587,419.098z"/>
<path fill="none" stroke="#5D6733" stroke-width="0.6513" stroke-miterlimit="10" d="M573.194,478.125"/>
<g>
	<g>
		<path fill="#558AA5" d="M533.387,265.383c-1.426-1.825,0.352,0.525,0.683,1c1.111,1.588,2.146,3.227,3.153,4.882
			c3.409,5.598,6.284,11.527,8.66,17.632c3.354,8.616,5.656,17.708,6.735,26.89c1.268,10.797-0.434,21.261-0.488,32.028
			c-0.126,25.092,11.744,52.232,29.644,69.901c4.187,4.134,10.637-2.312,6.447-6.447c-18.731-18.491-29.112-46.751-26.475-72.789
			c2.766-27.311-4.825-57.663-21.912-79.544C536.218,254.305,529.813,260.807,533.387,265.383L533.387,265.383z"/>
	</g>
</g>
<circle fill="#558AA5" stroke="#558AA5" stroke-width="2.018" stroke-miterlimit="10" cx="578.79" cy="408.493" r="24.706"/>
<circle fill="#70A3C1" cx="341.975" cy="416.844" r="12.375"/>
<circle fill="#70A3C1" cx="468.125" cy="422.924" r="12.375"/>
<g>
	<line fill="#70A3C1" x1="341.975" y1="422.924" x2="341.975" y2="501.945"/>
	<g>
		<path fill="#70A3C1" d="M337.415,422.924c0,26.341,0,52.681,0,79.021c0,5.881,9.119,5.881,9.119,0c0-26.341,0-52.681,0-79.021
			C346.534,417.043,337.415,417.043,337.415,422.924L337.415,422.924z"/>
	</g>
</g>
<g>
	<line fill="#70A3C1" x1="468.125" y1="422.924" x2="468.125" y2="501.945"/>
	<g>
		<path fill="#70A3C1" d="M463.565,422.924c0,26.341,0,52.681,0,79.021c0,5.881,9.119,5.881,9.119,0c0-26.341,0-52.681,0-79.021
			C472.685,417.043,463.565,417.043,463.565,422.924L463.565,422.924z"/>
	</g>
</g>
<ellipse fill="#70A3C1" cx="328.034" cy="504.875" rx="17.197" ry="2.932"/>
<ellipse fill="#70A3C1" cx="481.152" cy="504.225" rx="17.197" ry="2.932"/>
<g>
	<g>
		<path fill="#558AA5" d="M371.366,194.619c-14.604,10.267-35.067,7.439-51.926,9.59c-2.459,0.314-2.49,4.218,0,3.9
			c17.523-2.236,38.67,0.58,53.895-10.123C375.375,196.553,373.429,193.169,371.366,194.619L371.366,194.619z"/>
	</g>
</g>
<g>
	<g>
		<path fill="#558AA5" d="M450.739,200.123c6.142,2.688,13.538,3.083,20.107,3.6c11.191,0.881,22.357,1.63,33.302,4.316
			c2.442,0.6,3.479-3.161,1.037-3.76c-8.771-2.154-17.85-3.285-26.837-3.994c-6.756-0.533-13.464-0.777-20.134-2.081
			c-1.391-0.271-2.767-0.614-4.128-1.008c-0.289-0.083-2.23-0.813-1.379-0.44C450.428,195.758,448.44,199.117,450.739,200.123
			L450.739,200.123z"/>
	</g>
</g>
<path fill="#FFFFFF" d="M501.22,232.54c0,15.123-13.649,27.383-30.485,27.383c-16.838,0-30.487-12.26-30.487-27.383
	c0-15.12,13.649-27.381,30.487-27.381C487.57,205.159,501.22,217.42,501.22,232.54z"/>
<ellipse cx="470.733" cy="244.479" rx="13.597" ry="15.975"/>
<ellipse fill="#FFFFFF" cx="476.472" cy="255.8" rx="1.936" ry="2.271"/>
<path fill="#FFFFFF" d="M328.381,233.54c0,15.123,13.65,27.383,30.486,27.383c16.838,0,30.486-12.26,30.486-27.383
	c0-15.12-13.648-27.381-30.486-27.381C342.031,206.159,328.381,218.42,328.381,233.54z"/>
<ellipse cx="359.351" cy="244.972" rx="13.597" ry="15.975"/>
<ellipse fill="#FFFFFF" cx="364.667" cy="256.65" rx="1.935" ry="2.272"/>
<path fill="#70A3C1" d="M328.807,228.995"/>
<path fill="#558AA5" d="M171.541,408.492c0-11.741,9.519-21.257,21.259-21.257s21.26,9.516,21.26,21.257
	c0,11.742-9.52,21.258-21.26,21.258S171.541,420.234,171.541,408.492"/>
<g>
	<g>
		<path fill="#558AA5" d="M306.579,303.586c-5.209,7.865-14.582,16.076-23.246,21.773c-9.13,6.005-19.256,10.074-29.915,12.396
			c-4.677,1.019-9.457,1.234-14.024,2.729c-3.977,1.301-7.69,3.347-11.1,5.744c-13.744,9.664-22.885,25.172-29.93,40.076
			c-4.099,8.67-7.78,17.725-10.445,26.952c-1.635,5.662,7.165,8.063,8.793,2.424c2.541-8.798,6.034-17.386,9.941-25.653
			c6.74-14.261,15.639-29.608,29.457-38.033c8.08-4.927,18.008-4.691,26.917-7.262c9.919-2.86,19.331-7.584,27.798-13.45
			c8.914-6.175,17.592-13.981,23.626-23.095C317.709,303.27,309.809,298.708,306.579,303.586L306.579,303.586z"/>
	</g>
</g>
<path fill="#558AA5" stroke="#558AA5" stroke-miterlimit="10" d="M330.914,244.479c0,0,26.847-13.631,56.41-1.115
	c0,0,12.086-37.163-30.104-37.163C357.22,206.2,319.274,207.744,330.914,244.479z"/>
<path fill="#558AA5" stroke="#558AA5" stroke-miterlimit="10" d="M442.836,243.438c0,0,26.847-13.631,56.41-1.115
	c0,0,12.087-37.163-30.104-37.163C469.142,205.159,431.196,206.703,442.836,243.438z"/>
<g>
	<g>
		<path fill="#558AA5" d="M391.442,377.69c1.563-1.961,7.688-6.982,0.467-1.467c2.463-1.882,5.247-3.323,8.045-4.63
			c-8.083,3.775,1.295-0.159,3.604-0.783c1.55-0.42,3.125-0.732,4.7-1.046c2.841-0.475,2.154-0.415-2.063,0.179
			c1.131-0.138,2.264-0.252,3.399-0.341c3.504-0.313,7.033-0.29,10.544-0.149c1.701,0.067,3.396,0.247,5.088,0.428
			c-8.316-0.887-0.881,0.043,0.977,0.462c1.49,0.335,2.953,0.778,4.414,1.225c0.932,0.297,1.855,0.618,2.77,0.965
			c-4.074-1.79-4.881-2.122-2.422-0.995c1.201,0.558,2.344,1.223,3.484,1.893c5.709,3.351-3.529-3.195-0.459-0.488
			c10.748,9.473,26.59,10.612,37.201,0c9.658-9.656,10.764-27.715,0-37.201c-16.375-14.433-38.346-19.874-59.867-18.866
			c-19.863,0.931-44.088,7.296-57.085,23.615c-4.548,5.711-7.705,11.001-7.705,18.601c0,6.949,2.794,13.689,7.705,18.601
			C363.519,386.969,382.494,388.925,391.442,377.69L391.442,377.69z"/>
	</g>
</g>
<path fill="#FFFFFF" d="M378.348,338.445c0,0,4.798,12.854,11.457,11.572c3.025-0.582,4.998-4.23,9.605-13.083
	c0,0-12.408-0.788-20.828,0.673l-0.515,0.025L378.348,338.445z"/>
</svg>
