<?xml version="1.0" encoding="utf-8"?>
<!-- Generator: Adobe Illustrator 16.0.0, SVG Export Plug-In . SVG Version: 6.00 Build 0)  -->
<!DOCTYPE svg PUBLIC "-//W3C//DTD SVG 1.1//EN" "http://www.w3.org/Graphics/SVG/1.1/DTD/svg11.dtd">
<svg version="1.1" id="Layer_1" xmlns="http://www.w3.org/2000/svg" xmlns:xlink="http://www.w3.org/1999/xlink" x="0px" y="0px"
	 width="841.89px" height="595.28px" viewBox="0 0 841.89 595.28" enable-background="new 0 0 841.89 595.28" xml:space="preserve">
<path fill="#70A3C1" d="M486.587,419.098c111.77-41.4,27.931-113.598,27.931-113.598c57.64-38.771,36.107-160.433,36.107-160.433
	c6.579-1.487,12.942-6.203,15.551-9.255c4.376-5.12,7.019-11.767,7.019-19.03c0-16.187-13.122-29.309-29.309-29.309
	c-16.186,0-29.308,13.122-29.308,29.309c0,3.9,0.82,7.609,2.204,11.012c-113.137-25.4-208.275,0-208.275,0
	c1.383-3.402,2.352-7.027,2.352-10.928c0-16.188-13.122-29.309-29.309-29.309c-16.186,0-29.309,13.121-29.309,29.309
	c0,7.264,2.644,13.91,7.02,19.03c4.031,4.718,9.535,8.14,15.799,9.556c0,0-22.184,121.663,35.456,160.435
	c0,0-83.396,82.029,31.883,112.314C342.398,418.201,454.69,430.912,486.587,419.098z"/>
<path fill="none" stroke="#5D6733" stroke-width="0.6513" stroke-miterlimit="10" d="M573.194,478.125"/>
<g>
	<g>
		<path fill="#558AA5" d="M533.387,265.383c-1.426-1.825,0.352,0.525,0.683,1c1.11,1.588,2.146,3.227,3.153,4.882
			c3.408,5.598,6.284,11.527,8.66,17.632c3.354,8.616,5.656,17.708,6.734,26.89c1.27,10.797-0.433,21.261-0.486,32.028
			c-0.127,25.092,11.742,52.232,29.643,69.901c4.187,4.134,10.637-2.312,6.447-6.447c-18.73-18.491-29.112-46.751-26.475-72.789
			c2.766-27.311-4.825-57.663-21.912-79.544C536.218,254.305,529.813,260.807,533.387,265.383L533.387,265.383z"/>
	</g>
</g>
<circle fill="#558AA5" stroke="#558AA5" stroke-width="2.018" stroke-miterlimit="10" cx="578.79" cy="408.493" r="24.706"/>
<circle fill="#70A3C1" cx="341.975" cy="416.844" r="12.375"/>
<circle fill="#70A3C1" cx="468.125" cy="422.924" r="12.375"/>
<g>
	<line fill="#70A3C1" x1="341.975" y1="422.924" x2="341.975" y2="501.945"/>
	<g>
		<path fill="#70A3C1" d="M337.415,422.924c0,26.341,0,52.681,0,79.021c0,5.881,9.119,5.881,9.119,0c0-26.341,0-52.681,0-79.021
			C346.534,417.043,337.415,417.043,337.415,422.924L337.415,422.924z"/>
	</g>
</g>
<g>
	<line fill="#70A3C1" x1="468.125" y1="422.924" x2="468.125" y2="501.945"/>
	<g>
		<path fill="#70A3C1" d="M463.565,422.924c0,26.341,0,52.681,0,79.021c0,5.881,9.119,5.881,9.119,0c0-26.341,0-52.681,0-79.021
			C472.685,417.043,463.565,417.043,463.565,422.924L463.565,422.924z"/>
	</g>
</g>
<ellipse fill="#70A3C1" cx="328.034" cy="504.875" rx="17.197" ry="2.932"/>
<ellipse fill="#70A3C1" cx="481.152" cy="504.225" rx="17.197" ry="2.932"/>
<g>
	<g>
		<path fill="#558AA5" d="M371.366,194.619c-14.604,10.267-35.067,7.439-51.926,9.59c-2.46,0.314-2.49,4.218,0,3.9
			c17.522-2.236,38.67,0.58,53.895-10.123C375.375,196.553,373.43,193.169,371.366,194.619L371.366,194.619z"/>
	</g>
</g>
<g>
	<g>
		<path fill="#558AA5" d="M450.739,200.123c6.142,2.688,13.538,3.083,20.108,3.6c11.189,0.881,22.357,1.63,33.301,4.316
			c2.442,0.6,3.479-3.161,1.037-3.76c-8.771-2.154-17.85-3.285-26.837-3.994c-6.755-0.533-13.464-0.777-20.134-2.081
			c-1.391-0.271-2.767-0.614-4.127-1.008c-0.29-0.083-2.23-0.813-1.38-0.44C450.428,195.758,448.44,199.117,450.739,200.123
			L450.739,200.123z"/>
	</g>
</g>
<path fill="#FFFFFF" d="M501.22,232.54c0,15.123-13.649,27.383-30.485,27.383c-16.838,0-30.487-12.26-30.487-27.383
	c0-15.12,13.649-27.381,30.487-27.381C487.57,205.159,501.22,217.42,501.22,232.54z"/>
<ellipse cx="470.733" cy="244.479" rx="13.597" ry="15.975"/>
<ellipse fill="#FFFFFF" cx="476.472" cy="255.8" rx="1.936" ry="2.271"/>
<path fill="#FFFFFF" d="M328.381,233.54c0,15.123,13.65,27.383,30.486,27.383c16.838,0,30.486-12.26,30.486-27.383
	c0-15.12-13.648-27.381-30.486-27.381C342.031,206.159,328.381,218.42,328.381,233.54z"/>
<ellipse cx="359.351" cy="244.972" rx="13.597" ry="15.975"/>
<ellipse fill="#FFFFFF" cx="364.667" cy="256.65" rx="1.935" ry="2.272"/>
<path fill="#70A3C1" d="M328.807,228.995"/>
<path fill="#558AA5" d="M192.8,414.492c0-11.741,9.518-21.257,21.258-21.257s21.26,9.516,21.26,21.257
	c0,11.742-9.52,21.258-21.26,21.258S192.8,426.234,192.8,414.492"/>
<g>
	<g>
		<path fill="#558AA5" d="M306.119,304.675c-1.312,8.985-4.769,17.878-9.23,25.728c-4.037,7.101-9.476,13.405-16.26,17.997
			c-3.726,2.522-7.804,4.337-12.095,5.647c-4.747,1.449-9.732,1.607-14.483,3.013c-25.912,7.665-39.428,40.429-44.385,64.636
			c-0.002,0.006-0.003,0.011-0.004,0.017c-1.16,5.74,7.628,8.186,8.793,2.424c1.963-9.706,5.372-19.313,9.613-28.236
			c3.582-7.538,8.036-14.709,13.873-20.709c6.131-6.303,13.197-9.446,21.773-10.786c27.967-4.368,47.153-30.331,51.195-57.29
			c0-0.005,0.001-0.011,0.002-0.016C315.752,301.35,306.966,298.874,306.119,304.675L306.119,304.675z"/>
	</g>
</g>
<g>
	<g>
		<path fill="#558AA5" d="M391.442,377.69c1.562-1.961,7.688-6.983,0.467-1.467c2.464-1.882,5.247-3.323,8.045-4.63
			c-8.083,3.775,1.295-0.159,3.604-0.783c1.55-0.42,3.127-0.732,4.7-1.046c2.842-0.475,2.154-0.415-2.062,0.179
			c1.13-0.138,2.264-0.252,3.398-0.341c3.506-0.313,7.033-0.29,10.546-0.149c1.701,0.067,3.396,0.247,5.088,0.428
			c-8.317-0.887-0.881,0.043,0.976,0.462c1.49,0.335,2.954,0.778,4.414,1.225c0.932,0.297,1.854,0.618,2.769,0.965
			c-4.073-1.79-4.88-2.122-2.42-0.995c1.2,0.558,2.344,1.223,3.483,1.893c5.71,3.351-3.529-3.195-0.458-0.488
			c10.747,9.473,26.589,10.612,37.201,0c9.657-9.656,10.763-27.715,0-37.201c-16.375-14.433-38.347-19.874-59.868-18.866
			c-19.861,0.931-44.089,7.295-57.085,23.615c-4.548,5.711-7.705,11-7.705,18.601c0,6.949,2.794,13.689,7.705,18.601
			C363.52,386.969,382.496,388.926,391.442,377.69L391.442,377.69z"/>
	</g>
</g>
<path fill="#FFFFFF" d="M378.348,338.445c0,0,4.798,12.854,11.457,11.572c3.025-0.582,4.998-4.23,9.605-13.083
	c0,0-12.408-0.788-20.828,0.673l-0.515,0.025L378.348,338.445z"/>
<path fill="#558AA5" stroke="#558AA5" stroke-width="0.769" stroke-miterlimit="10" d="M358.889,205.885
	c-16.824,0-30.465,12.744-30.465,28.465c0,7.307,2.949,13.968,7.793,19.008c15.266-9.25,34.418-13.354,51.52-9.86
	c1.043-2.872,1.617-5.946,1.617-9.147C389.354,218.629,375.715,205.885,358.889,205.885z"/>
<path fill="#558AA5" stroke="#558AA5" stroke-width="0.769" stroke-miterlimit="10" d="M470.733,204.767
	c16.824,0,30.465,12.744,30.465,28.465c0,7.307-2.949,13.968-7.793,19.008c-15.266-9.25-34.418-13.354-51.52-9.86
	c-1.043-2.872-1.617-5.946-1.617-9.147C440.269,217.511,453.907,204.767,470.733,204.767z"/>
</svg>
