<?xml version="1.0" encoding="utf-8"?>
<!-- Generator: Adobe Illustrator 16.0.0, SVG Export Plug-In . SVG Version: 6.00 Build 0)  -->
<!DOCTYPE svg PUBLIC "-//W3C//DTD SVG 1.1//EN" "http://www.w3.org/Graphics/SVG/1.1/DTD/svg11.dtd">
<svg version="1.1" id="Layer_1" xmlns="http://www.w3.org/2000/svg" xmlns:xlink="http://www.w3.org/1999/xlink" x="0px" y="0px"
	 width="841.89px" height="595.28px" viewBox="0 0 841.89 595.28" enable-background="new 0 0 841.89 595.28" xml:space="preserve">
<path fill="#70A3C1" d="M486.587,419.098c111.77-41.4,27.931-113.598,27.931-113.598c57.64-38.771,36.107-160.433,36.107-160.433
	c6.579-1.487,12.942-6.203,15.551-9.255c4.376-5.12,7.019-11.767,7.019-19.03c0-16.187-13.122-29.309-29.309-29.309
	c-16.186,0-29.308,13.122-29.308,29.309c0,3.9,0.82,7.609,2.204,11.012c-113.137-25.4-208.275,0-208.275,0
	c1.383-3.402,2.352-7.027,2.352-10.928c0-16.188-13.122-29.309-29.309-29.309c-16.186,0-29.309,13.121-29.309,29.309
	c0,7.264,2.644,13.91,7.02,19.03c4.031,4.718,9.535,8.14,15.799,9.556c0,0-22.184,121.663,35.456,160.435
	c0,0-83.396,82.029,31.883,112.314C342.398,418.201,454.69,430.912,486.587,419.098z"/>
<path fill="none" stroke="#5D6733" stroke-width="0.6513" stroke-miterlimit="10" d="M573.194,478.125"/>
<g>
	<path fill="#558AA5" d="M455.75,339.216c5.913-8.966-26.223-6.156-43.032-5.549c-18.155,0.658-33.571-2.246-40.254,6.57
		C372.464,340.237,412.718,404.468,455.75,339.216z"/>
</g>
<path fill="#FFFFFF" d="M378.348,338.445c0,0,4.798,12.854,11.457,11.572c3.025-0.582,4.998-4.23,9.605-13.083
	c0,0-12.408-0.788-20.828,0.673l-0.515,0.026L378.348,338.445z"/>
<g>
	<g>
		<path fill="#558AA5" d="M533.387,265.383c-1.426-1.826,0.352,0.525,0.683,0.999c1.11,1.588,2.146,3.228,3.153,4.882
			c3.408,5.598,6.284,11.527,8.66,17.632c3.354,8.616,5.656,17.708,6.734,26.89c1.27,10.796-0.433,21.26-0.486,32.028
			c-0.127,25.092,11.742,52.232,29.643,69.902c4.187,4.133,10.637-2.312,6.447-6.447c-18.73-18.491-29.112-46.751-26.475-72.789
			c2.766-27.311-4.825-57.663-21.912-79.544C536.218,254.304,529.813,260.807,533.387,265.383L533.387,265.383z"/>
	</g>
</g>
<circle fill="#558AA5" stroke="#558AA5" stroke-width="2.018" stroke-miterlimit="10" cx="578.79" cy="408.493" r="24.706"/>
<path fill="#558AA5" d="M132.929,319.563c0-11.341,9.194-20.534,20.535-20.534c11.339,0,20.534,9.192,20.534,20.534
	c0,11.342-9.195,20.533-20.534,20.533C142.123,340.096,132.929,330.905,132.929,319.563"/>
<g>
	<g>
		<path fill="#558AA5" d="M308.215,301.95c-11.645,5.219-22.828,11.621-33.712,18.249c-10.913,6.645-21.444,13.906-31.57,21.694
			c-5.909,4.545-11.559,6.33-19.03,5.854c-14.188-0.905-27.982-9.029-39.642-16.539c-6.972-4.49-13.791-9.404-20.04-14.87
			c-4.405-3.853-10.882,2.57-6.447,6.448c17.909,15.665,41.044,31.377,65.173,33.996c6.879,0.747,13.888-0.475,19.983-3.762
			c5.008-2.7,9.37-6.912,13.976-10.239c5.856-4.231,11.88-8.227,17.982-12.091c12.143-7.689,24.794-14.981,37.929-20.867
			C318.175,307.422,313.533,299.566,308.215,301.95L308.215,301.95z"/>
	</g>
</g>
<circle fill="#70A3C1" cx="341.975" cy="416.844" r="12.375"/>
<circle fill="#70A3C1" cx="468.125" cy="422.924" r="12.375"/>
<g>
	<line fill="#70A3C1" x1="341.975" y1="422.924" x2="341.975" y2="501.945"/>
	<g>
		<path fill="#70A3C1" d="M337.415,422.924c0,26.34,0,52.681,0,79.021c0,5.88,9.119,5.88,9.119,0c0-26.34,0-52.681,0-79.021
			C346.534,417.043,337.415,417.043,337.415,422.924L337.415,422.924z"/>
	</g>
</g>
<g>
	<line fill="#70A3C1" x1="468.125" y1="422.924" x2="468.125" y2="501.945"/>
	<g>
		<path fill="#70A3C1" d="M463.565,422.924c0,26.34,0,52.681,0,79.021c0,5.88,9.119,5.88,9.119,0c0-26.34,0-52.681,0-79.021
			C472.685,417.043,463.565,417.043,463.565,422.924L463.565,422.924z"/>
	</g>
</g>
<ellipse fill="#70A3C1" cx="328.034" cy="504.875" rx="17.197" ry="2.932"/>
<ellipse fill="#70A3C1" cx="481.152" cy="504.225" rx="17.197" ry="2.932"/>
<g>
	<g>
		<path fill="#558AA5" d="M371.366,194.619c-8.677,6.101-19.24,6.446-29.317,7.85c-7.495,1.043-16.232,3.869-20.956,10.267
			c-1.496,2.026,1.892,3.968,3.367,1.969c5.089-6.893,16.574-8.198,24.927-8.958c8.063-0.733,17.199-3.015,23.948-7.76
			C375.375,196.552,373.43,193.168,371.366,194.619L371.366,194.619z"/>
	</g>
</g>
<g>
	<g>
		<path fill="#558AA5" d="M450.739,200.123c6.661,2.916,14.788,3.243,21.905,3.721c9.283,0.623,20.141,2.833,27.196,8.588
			c1.931,1.575,4.708-1.167,2.758-2.758c-6.293-5.133-14.669-7.823-22.554-9.074c-8.404-1.333-20.596-0.895-27.337-3.845
			C450.428,195.758,448.44,199.117,450.739,200.123L450.739,200.123z"/>
	</g>
</g>
<path fill="#FFFFFF" d="M501.22,232.54c0,15.123-13.649,27.383-30.485,27.383c-16.838,0-30.487-12.26-30.487-27.383
	c0-15.12,13.649-27.381,30.487-27.381C487.57,205.159,501.22,217.42,501.22,232.54z"/>
<ellipse cx="470.733" cy="244.48" rx="13.597" ry="15.975"/>
<ellipse fill="#FFFFFF" cx="476.472" cy="255.799" rx="1.936" ry="2.272"/>
<path fill="#FFFFFF" d="M328.381,233.54c0,15.123,13.65,27.383,30.486,27.383c16.838,0,30.486-12.26,30.486-27.383
	c0-15.12-13.648-27.381-30.486-27.381C342.031,206.159,328.381,218.42,328.381,233.54z"/>
<ellipse cx="359.351" cy="244.972" rx="13.597" ry="15.975"/>
<ellipse fill="#FFFFFF" cx="364.667" cy="256.65" rx="1.935" ry="2.272"/>
</svg>
