<?xml version="1.0" encoding="utf-8"?>
<!-- Generator: Adobe Illustrator 16.0.0, SVG Export Plug-In . SVG Version: 6.00 Build 0)  -->
<!DOCTYPE svg PUBLIC "-//W3C//DTD SVG 1.1//EN" "http://www.w3.org/Graphics/SVG/1.1/DTD/svg11.dtd">
<svg version="1.1" id="Layer_1" xmlns="http://www.w3.org/2000/svg" xmlns:xlink="http://www.w3.org/1999/xlink" x="0px" y="0px"
	 width="841.89px" height="595.28px" viewBox="0 0 841.89 595.28" enable-background="new 0 0 841.89 595.28" xml:space="preserve">
<path fill="#FDBD56" d="M527.326,379.354c-3.711,2.934-43.438,21.49-88.874,23.728c-45.436,2.238-95.867-15.157-98-23.728
	c-4.548-18.267-8.291-204.175,0-230.818c5.771-18.549,42.475-71.871,98.041-67.674c0,0,73.62,14.942,83.128,82.072
	C531.119,229.993,534.792,373.45,527.326,379.354z"/>
<g>
	<g>
		<path fill="#FDBD56" d="M515.782,222.053c14.907,11.759,27.394,27.54,37.119,43.695c9.267,15.394,15.719,32.346,18.449,50.128
			c3.352,21.833-0.428,44.043-8.77,64.337c-1.629,3.963,4.801,5.672,6.407,1.766c15.989-38.898,11.824-80.62-8.768-116.881
			c-10.035-17.671-23.674-35.07-39.739-47.743C517.156,214.733,512.419,219.401,515.782,222.053L515.782,222.053z"/>
	</g>
</g>
<g>
	<g>
		<path fill="#FDBD56" d="M401.467,381.096c0,19.226,0,38.451,0,57.677c0,7.583,0,15.166,0,22.748c0,0.367,0.696-1.648,0.023-0.539
			c-0.084,0.139-1.056,1.033-2.054,1.413c-7.147,2.715-16.62-1.308-23.188-3.822c-4.009-1.534-5.726,4.892-1.767,6.406
			c7.935,3.038,27.443,10.1,33.028-1.152c0.793-1.598,0.602-3.257,0.602-4.994c0-4.662,0-9.325,0-13.987c0-21.25,0-42.5,0-63.75
			C408.111,376.811,401.467,376.811,401.467,381.096L401.467,381.096z"/>
	</g>
</g>
<g>
	<g>
		<path fill="#FDBD56" d="M472.49,381.096c0,19.226,0,38.451,0,57.677c0,7.583,0,15.166,0,22.748c0,0.367,0.696-1.648,0.023-0.539
			c-0.084,0.139-1.056,1.033-2.054,1.413c-7.146,2.715-16.62-1.308-23.188-3.822c-4.009-1.534-5.726,4.892-1.767,6.406
			c7.935,3.038,27.442,10.1,33.027-1.152c0.793-1.598,0.602-3.257,0.602-4.994c0-4.662,0-9.325,0-13.987c0-21.25,0-42.5,0-63.75
			C479.134,376.811,472.49,376.811,472.49,381.096L472.49,381.096z"/>
	</g>
</g>
<ellipse fill="#FFFFFF" cx="477.001" cy="220.826" rx="30.613" ry="22.828"/>
<path d="M485.667,220.822c0,10.534-6.578,19.073-14.693,19.073s-15.825-8.539-15.825-19.073s7.71-18.253,15.825-18.253
	S485.667,210.289,485.667,220.822z"/>
<ellipse fill="#FFFFFF" cx="478.847" cy="207.135" rx="1.718" ry="1.903"/>
<path opacity="0.65" fill="#FFFFFF" d="M467.018,235.317c0,0,2.825,2.186,7.347,0C474.365,235.317,470.596,240.917,467.018,235.317z
	"/>
<ellipse fill="#FFFFFF" cx="382.715" cy="221.232" rx="30.613" ry="22.828"/>
<path d="M405.336,221.06c0,10.533-6.58,19.073-14.694,19.073s-15.824-8.54-15.824-19.073c0-10.534,7.709-18.253,15.824-18.253
	S405.336,210.526,405.336,221.06z"/>
<path opacity="0.65" fill="#FFFFFF" d="M386.685,235.554c0,0,2.826,2.186,7.347,0C394.032,235.554,390.265,241.155,386.685,235.554z
	"/>
<g>
	<path fill="#E1A046" d="M359.096,176.072c2.025-1.731,4.208-3.249,6.438-4.724c2.25-1.443,4.6-2.754,7.076-3.867
		c1.237-0.558,2.481-1.137,3.778-1.633c1.298-0.488,2.675-0.804,4.092-0.898c1.417-0.084,2.871-0.009,4.283,0.353
		c1.404,0.347,2.785,0.959,3.838,1.96l-0.14,0.354c-1.399,0.038-2.636,0.165-3.856,0.352c-1.216,0.205-2.399,0.459-3.587,0.74
		c-1.187,0.283-2.383,0.54-3.619,0.759c-1.237,0.213-2.489,0.474-3.71,0.854c-2.441,0.761-4.867,1.684-7.267,2.705
		c-2.414,0.995-4.773,2.149-7.111,3.359L359.096,176.072z"/>
</g>
<g>
	<g>
		<path fill="#FFFFFF" d="M468.28,285.989c0.437,0.402,0.865,0.812,1.287,1.229c0.326,0.322,0.645,0.65,0.953,0.989
			c0.045,0.05,0.338,0.398,0.232,0.261c0.211,0.273,0.124,0.251,0.083-0.099c0.062,0.54,0.406,0.997,0.997,0.997
			c0.496,0,1.059-0.455,0.997-0.997c-0.107-0.934-0.953-1.652-1.579-2.288c-0.506-0.514-1.028-1.014-1.56-1.501
			C468.745,283.713,467.332,285.118,468.28,285.989L468.28,285.989z"/>
	</g>
</g>
<g>
	<g>
		<path fill="#FFFFFF" d="M384.507,288.008c0.401-0.438,0.812-0.866,1.229-1.29c0.321-0.325,0.649-0.645,0.988-0.953
			c0.127-0.115,0.259-0.227,0.393-0.334c-0.166,0.133,0.023-0.007,0.054-0.028c0.147-0.095-0.258,0.044-0.285,0.046
			c0.54-0.063,0.997-0.406,0.997-0.996c0-0.496-0.456-1.059-0.997-0.997c-0.932,0.107-1.653,0.955-2.288,1.581
			c-0.514,0.506-1.013,1.029-1.5,1.561C382.231,287.544,383.637,288.958,384.507,288.008L384.507,288.008z"/>
	</g>
</g>
<g>
	<path fill="#E1A046" d="M500.223,177.414c-2.338-1.209-4.697-2.365-7.111-3.36c-2.399-1.02-4.825-1.942-7.267-2.705
		c-1.222-0.379-2.474-0.639-3.71-0.852c-1.236-0.22-2.433-0.477-3.619-0.759c-1.188-0.282-2.371-0.536-3.587-0.741
		c-1.22-0.187-2.457-0.314-3.856-0.352l-0.14-0.354c1.053-1.001,2.434-1.614,3.838-1.96c1.412-0.362,2.866-0.438,4.283-0.352
		c1.417,0.093,2.794,0.409,4.092,0.897c1.297,0.497,2.542,1.075,3.778,1.633c2.476,1.114,4.825,2.424,7.076,3.867
		c2.23,1.476,4.413,2.994,6.438,4.724L500.223,177.414z"/>
</g>
<g>
	<path fill="#594A42" d="M422.207,69.174c-0.067-0.794,0.01-1.625,0.292-2.424c0.289-0.793,0.816-1.532,1.521-2.081
		c1.423-1.115,3.42-1.354,5.188-0.817c1.778,0.525,3.383,2.055,3.91,3.995c0.561,1.938,0.112,3.885-0.541,5.52
		c-0.097,0.223-0.152,0.371-0.29,0.65c-0.094,0.184-0.155,0.333-0.31,0.585c-0.274,0.475-0.537,0.818-0.838,1.2
		c-0.602,0.723-1.286,1.322-1.969,1.862c-1.377,1.067-2.786,1.896-4.091,2.737c-1.301,0.837-2.544,1.635-3.518,2.578
		c-0.485,0.469-0.905,0.966-1.245,1.491c-0.143,0.216-0.401,0.656-0.574,0.953c-0.175,0.313-0.352,0.623-0.52,0.956
		c-1.388,2.589-2.312,5.391-2.131,8.051c0.074,1.329,0.458,2.605,1.121,3.766c0.673,1.153,1.609,2.196,2.718,3.098
		c2.25,1.777,5.108,2.975,8.086,3.716c2.988,0.787,6.131,1.086,9.326,1.182c-3.114,0.745-6.377,0.96-9.646,0.655
		c-3.249-0.354-6.572-1.214-9.5-3.15c-1.459-0.955-2.811-2.197-3.811-3.747c-1.008-1.536-1.667-3.345-1.874-5.179
		c-0.215-1.838,0.007-3.664,0.437-5.37c0.459-1.703,1.126-3.306,1.923-4.803c0.197-0.371,0.419-0.747,0.64-1.122
		c0.235-0.383,0.379-0.627,0.676-1.073c0.537-0.797,1.167-1.503,1.835-2.123c1.348-1.228,2.797-2.151,4.208-2.95
		c2.813-1.586,5.53-2.898,6.659-5.188c0.645-1.226,0.992-2.542,0.815-3.729c-0.153-1.187-0.96-2.258-2.162-2.83
		c-1.178-0.599-2.7-0.67-3.955-0.037C423.305,66.159,422.466,67.601,422.207,69.174z"/>
</g>
<ellipse fill="#FFFFFF" cx="398.484" cy="207.842" rx="1.718" ry="1.903"/>
<g>
	<g>
		<path fill="#FFFFFF" d="M467.372,285.285c-0.423,21.066-19.993,34.192-39.625,34.494c-19.635,0.302-39.212-13.873-39.626-34.494
			c-0.037-1.833-2.884-1.837-2.848,0c0.455,22.633,21.258,37.015,42.474,37.342c21.217,0.325,42.028-15.188,42.473-37.342
			C470.256,283.447,467.409,283.451,467.372,285.285L467.372,285.285z"/>
	</g>
</g>
<g>
	<path fill="#E1A046" d="M475.835,288.93c2.062-1.957,1.918-5.447-0.319-7.802c-2.237-2.355-5.716-2.677-7.776-0.721
		C467.74,280.407,475.727,282.593,475.835,288.93z"/>
</g>
<g>
	<path fill="#E1A046" d="M379.116,288.811c-1.967-2.051-1.661-5.531,0.685-7.78c2.345-2.246,5.834-2.405,7.802-0.354
		C387.603,280.678,379.521,282.486,379.116,288.811z"/>
</g>
<g>
	<g>
		<path fill="#FDBD56" d="M333.19,227.181c-15.85,12.504-29.096,29.536-39.215,46.834c-21.197,36.233-25.349,78.726-9.292,117.789
			c1.606,3.907,8.036,2.199,6.407-1.765c-8.229-20.019-11.625-41.239-8.989-62.773c2.201-17.98,9.039-35.244,18.138-50.798
			c9.667-16.523,22.521-32.655,37.649-44.588C341.251,229.227,336.515,224.558,333.19,227.181L333.19,227.181z"/>
	</g>
</g>
</svg>
