<?xml version="1.0" encoding="utf-8"?>
<!-- Generator: Adobe Illustrator 16.0.0, SVG Export Plug-In . SVG Version: 6.00 Build 0)  -->
<!DOCTYPE svg PUBLIC "-//W3C//DTD SVG 1.1//EN" "http://www.w3.org/Graphics/SVG/1.1/DTD/svg11.dtd">
<svg version="1.1" id="Layer_1" xmlns="http://www.w3.org/2000/svg" xmlns:xlink="http://www.w3.org/1999/xlink" x="0px" y="0px"
	 width="841.891px" height="595.28px" viewBox="0 0 841.891 595.28" enable-background="new 0 0 841.891 595.28"
	 xml:space="preserve">
<path fill="#FDBD56" d="M527.325,379.354c-3.711,2.934-43.438,21.49-88.874,23.728c-45.436,2.238-95.867-15.157-98-23.728
	c-4.548-18.268-8.291-204.176,0-230.818c5.771-18.549,42.475-71.871,98.041-67.675c0,0,73.62,14.943,83.128,82.071
	C531.118,229.992,534.792,373.45,527.325,379.354z"/>
<g>
	<g>
		<path fill="#FDBD56" d="M514.928,220.588c16.973,55.078,37.243,109.479,60.527,162.185c1.729,3.912,7.452,0.527,5.738-3.354
			c-23.051-52.176-43.057-106.073-59.859-160.599C520.076,214.739,513.662,216.481,514.928,220.588L514.928,220.588z"/>
	</g>
</g>
<g>
	<g>
		<path fill="#FDBD56" d="M401.467,381.096c0,19.226,0,38.451,0,57.677c0,7.583,0,15.166,0,22.748c0,0.367,0.696-1.648,0.023-0.539
			c-0.084,0.139-1.057,1.034-2.055,1.413c-7.146,2.715-16.619-1.309-23.188-3.822c-4.01-1.534-5.727,4.892-1.768,6.406
			c7.936,3.037,27.443,10.099,33.029-1.152c0.793-1.598,0.602-3.257,0.602-4.994c0-4.662,0-9.324,0-13.986c0-21.25,0-42.5,0-63.75
			C408.111,376.811,401.467,376.811,401.467,381.096L401.467,381.096z"/>
	</g>
</g>
<g>
	<g>
		<path fill="#FDBD56" d="M447.065,381.096c0,21.25,0,42.5,0,63.75c0,4.523,0,9.047,0,13.57c0,1.904-0.188,3.646,0.603,5.41
			c5.113,11.406,25.52,4.026,33.027,1.152c3.959-1.515,2.242-7.94-1.768-6.406c-6.771,2.592-15.253,5.995-22.625,4.004
			c-1.029-0.277-2.467-1.372-2.48-1.393c-0.823-1.113-0.112,0.005-0.112,0.448c0-7.62,0-15.239,0-22.859c0-19.226,0-38.451,0-57.677
			C453.71,376.811,447.065,376.811,447.065,381.096L447.065,381.096z"/>
	</g>
</g>
<g>
	<path fill="#E1A046" d="M359.096,176.072c2.025-1.73,4.207-3.248,6.438-4.725c2.25-1.442,4.6-2.754,7.075-3.867
		c1.236-0.557,2.481-1.136,3.779-1.633c1.297-0.488,2.674-0.805,4.092-0.898c1.416-0.084,2.871-0.009,4.283,0.354
		c1.403,0.346,2.785,0.959,3.838,1.96l-0.141,0.354c-1.398,0.038-2.636,0.165-3.855,0.353c-1.216,0.204-2.4,0.459-3.587,0.739
		c-1.187,0.283-2.384,0.54-3.619,0.76c-1.236,0.213-2.488,0.474-3.71,0.853c-2.441,0.762-4.867,1.685-7.267,2.705
		c-2.415,0.994-4.774,2.148-7.112,3.359L359.096,176.072z"/>
</g>
<g>
	<g>
		<path fill="#FFFFFF" d="M468.279,285.989c0.438,0.401,0.865,0.813,1.288,1.229c0.325,0.321,0.646,0.649,0.952,0.988
			c0.115,0.127,0.227,0.259,0.334,0.393c-0.133-0.165,0.008,0.023,0.028,0.055c0.095,0.146-0.044-0.258-0.046-0.285
			c0.062,0.54,0.406,0.997,0.996,0.997c0.496,0,1.059-0.456,0.996-0.997c-0.106-0.932-0.953-1.652-1.579-2.287
			c-0.507-0.515-1.028-1.014-1.56-1.502C468.744,283.713,467.33,285.119,468.279,285.989L468.279,285.989z"/>
	</g>
</g>
<g>
	<g>
		<path fill="#FFFFFF" d="M384.508,288.008c0.4-0.438,0.811-0.866,1.228-1.289c0.321-0.326,0.649-0.646,0.987-0.953
			c0.128-0.115,0.26-0.227,0.394-0.334c-0.165,0.133,0.023-0.008,0.054-0.028c0.146-0.095-0.257,0.044-0.284,0.046
			c0.54-0.062,0.997-0.406,0.997-0.996c0-0.496-0.456-1.059-0.997-0.996c-0.933,0.106-1.653,0.954-2.288,1.58
			c-0.514,0.506-1.012,1.029-1.5,1.561C382.231,287.543,383.637,288.957,384.508,288.008L384.508,288.008z"/>
	</g>
</g>
<g>
	<path fill="#E1A046" d="M500.223,177.414c-2.338-1.211-4.697-2.365-7.111-3.359c-2.398-1.021-4.824-1.943-7.267-2.705
		c-1.222-0.379-2.474-0.64-3.71-0.852c-1.235-0.221-2.432-0.478-3.619-0.76c-1.188-0.281-2.371-0.536-3.587-0.74
		c-1.22-0.188-2.456-0.314-3.856-0.353l-0.139-0.354c1.053-1.001,2.434-1.614,3.838-1.96c1.411-0.362,2.866-0.438,4.282-0.353
		c1.418,0.093,2.794,0.409,4.093,0.897c1.297,0.497,2.541,1.076,3.778,1.634c2.476,1.113,4.825,2.424,7.075,3.866
		c2.23,1.477,4.414,2.994,6.439,4.725L500.223,177.414z"/>
</g>
<g>
	<path fill="#594A42" d="M422.207,69.174c-0.068-0.794,0.01-1.625,0.291-2.424c0.289-0.793,0.816-1.531,1.521-2.08
		c1.423-1.115,3.42-1.354,5.188-0.818c1.779,0.525,3.385,2.057,3.91,3.996c0.561,1.938,0.111,3.885-0.541,5.52
		c-0.097,0.223-0.152,0.371-0.289,0.65c-0.094,0.184-0.156,0.334-0.311,0.584c-0.273,0.477-0.537,0.819-0.838,1.201
		c-0.602,0.725-1.285,1.322-1.969,1.863c-1.377,1.066-2.785,1.895-4.092,2.736c-1.301,0.838-2.543,1.635-3.518,2.578
		c-0.485,0.469-0.904,0.965-1.244,1.491c-0.143,0.216-0.4,0.655-0.574,0.952c-0.174,0.313-0.352,0.623-0.52,0.956
		c-1.388,2.589-2.313,5.391-2.131,8.052c0.074,1.328,0.459,2.604,1.121,3.766c0.674,1.152,1.609,2.195,2.719,3.097
		c2.25,1.777,5.107,2.976,8.086,3.717c2.987,0.786,6.131,1.086,9.325,1.181c-3.114,0.745-6.378,0.96-9.646,0.656
		c-3.249-0.354-6.572-1.215-9.5-3.151c-1.459-0.954-2.811-2.196-3.811-3.745c-1.008-1.537-1.667-3.346-1.874-5.18
		c-0.216-1.839,0.007-3.664,0.437-5.371c0.459-1.702,1.126-3.305,1.924-4.803c0.196-0.371,0.418-0.746,0.639-1.121
		c0.235-0.383,0.379-0.628,0.676-1.072c0.537-0.798,1.168-1.504,1.836-2.124c1.348-1.228,2.797-2.151,4.208-2.95
		c2.813-1.586,5.53-2.898,6.659-5.188c0.645-1.227,0.992-2.542,0.815-3.729c-0.153-1.188-0.96-2.259-2.162-2.83
		c-1.179-0.6-2.7-0.671-3.954-0.037C423.305,66.159,422.466,67.601,422.207,69.174z"/>
</g>
<g>
	<g>
		<path fill="#FFFFFF" d="M467.371,285.285c-0.423,21.065-19.992,34.191-39.625,34.493c-19.635,0.302-39.212-13.873-39.626-34.493
			c-0.037-1.834-2.884-1.838-2.848,0c0.454,22.632,21.258,37.015,42.474,37.341c21.217,0.326,42.027-15.188,42.473-37.341
			C470.256,283.447,467.408,283.451,467.371,285.285L467.371,285.285z"/>
	</g>
</g>
<g>
	<path fill="#E1A046" d="M475.835,288.93c2.062-1.957,1.918-5.447-0.319-7.803c-2.237-2.354-5.716-2.676-7.776-0.719
		C467.739,280.408,475.727,282.593,475.835,288.93z"/>
</g>
<g>
	<path fill="#E1A046" d="M379.115,288.811c-1.967-2.051-1.66-5.531,0.686-7.779c2.346-2.246,5.834-2.404,7.802-0.354
		C387.603,280.678,379.521,282.486,379.115,288.811z"/>
</g>
<g>
	<g>
		<path fill="#FDBD56" d="M336.217,229.529c-0.71,21.857-3.559,43.819-7.633,65.279c-3.381,17.811-7.95,35.492-14.691,52.345
			c-6.046,15.112-14.527,30.815-27.684,40.9c-3.351,2.568-0.048,8.344,3.354,5.736c27.402-21.005,37.701-59.673,44.369-91.872
			c4.893-23.631,8-47.93,8.918-72.062c0.004-0.108,0.008-0.218,0.012-0.327C343,225.242,336.355,225.256,336.217,229.529
			L336.217,229.529z"/>
	</g>
</g>
<ellipse fill="#FFFFFF" cx="477" cy="231.978" rx="30.613" ry="11.871"/>
<path d="M485.667,231.976c0,5.478-6.578,9.919-14.693,9.919s-15.825-4.441-15.825-9.919s7.71-9.492,15.825-9.492
	S485.667,226.498,485.667,231.976z"/>
<ellipse fill="#FFFFFF" cx="478.846" cy="224.857" rx="1.718" ry="0.99"/>
<path opacity="0.65" fill="#FFFFFF" d="M467.018,239.514c0,0,2.825,1.137,7.347,0C474.364,239.514,470.596,242.426,467.018,239.514z
	"/>
<ellipse fill="#FFFFFF" cx="382.715" cy="232.188" rx="30.613" ry="11.871"/>
<path d="M405.336,232.1c0,5.478-6.58,9.918-14.694,9.918s-15.824-4.44-15.824-9.918c0-5.479,7.71-9.492,15.824-9.492
	S405.336,226.621,405.336,232.1z"/>
<path opacity="0.65" fill="#FFFFFF" d="M386.686,239.637c0,0,2.825,1.137,7.346,0C394.031,239.637,390.265,242.549,386.686,239.637z
	"/>
<ellipse fill="#FFFFFF" cx="398.483" cy="225.227" rx="1.718" ry="0.988"/>
</svg>
