<?xml version="1.0" encoding="utf-8"?>
<!-- Generator: Adobe Illustrator 16.0.0, SVG Export Plug-In . SVG Version: 6.00 Build 0)  -->
<!DOCTYPE svg PUBLIC "-//W3C//DTD SVG 1.1//EN" "http://www.w3.org/Graphics/SVG/1.1/DTD/svg11.dtd">
<svg version="1.1" id="Layer_1" xmlns="http://www.w3.org/2000/svg" xmlns:xlink="http://www.w3.org/1999/xlink" x="0px" y="0px"
	 width="841.891px" height="595.28px" viewBox="0 0 841.891 595.28" enable-background="new 0 0 841.891 595.28"
	 xml:space="preserve">
<path fill="#FDBD56" d="M537.9,371.958c-3.481,3.201-41.717,24.665-86.859,30.278c-45.143,5.615-96.73-7.977-99.495-16.364
	c-5.896-17.878-23.471-202.991-17.187-230.178c4.375-18.928,37.006-74.834,92.73-74.787c0,0,74.527,9.42,89.008,75.654
	C530.563,222.729,544.908,365.515,537.9,371.958z"/>
<g>
	<g>
		<path fill="#FDBD56" d="M514.928,220.587c6.617,18.594,17.081,36.314,28.733,52.129c22.561,30.619,54.008,55.099,92.21,61.577
			c4.189,0.711,5.984-5.691,1.766-6.406c-37.295-6.325-67.551-30.159-89.424-60.14c-10.822-14.837-20.736-31.666-26.879-48.926
			C519.908,214.814,513.487,216.54,514.928,220.587L514.928,220.587z"/>
	</g>
</g>
<g>
	<g>
		<path fill="#FDBD56" d="M401.467,381.096c0,19.226,0,38.451,0,57.677c0,7.583,0,15.166,0,22.748c0,0.367,0.696-1.648,0.023-0.539
			c-0.084,0.139-1.057,1.034-2.055,1.413c-7.146,2.715-16.619-1.309-23.188-3.822c-4.01-1.534-5.727,4.892-1.768,6.406
			c7.936,3.037,27.443,10.099,33.029-1.152c0.793-1.598,0.602-3.257,0.602-4.994c0-4.662,0-9.324,0-13.986c0-21.25,0-42.5,0-63.75
			C408.111,376.811,401.467,376.811,401.467,381.096L401.467,381.096z"/>
	</g>
</g>
<g>
	<g>
		<path fill="#FDBD56" d="M466.277,371.696c9.857,18.826,19.713,37.652,29.57,56.479c2.098,4.008,4.195,8.015,6.294,12.022
			c0.876,1.673,1.495,3.299,3.056,4.43c10.123,7.347,24.227-8.128,29.787-14.431c2.822-3.199-1.859-7.917-4.699-4.697
			c-4.857,5.506-10.754,12.334-18.284,14.007c-1.063,0.236-2.503-0.059-2.751-0.18c-0.995-0.482-0.035,0.069,0.12,0.365
			c-3.534-6.75-7.068-13.5-10.603-20.251c-8.918-17.032-17.835-34.065-26.752-51.098
			C470.027,364.546,464.293,367.905,466.277,371.696L466.277,371.696z"/>
	</g>
</g>
<g>
	<path fill="#E1A046" d="M355.002,181.767c1.891-1.877,3.955-3.553,6.068-5.19c2.137-1.606,4.383-3.088,6.769-4.382
		c1.192-0.648,2.39-1.318,3.646-1.91c1.259-0.584,2.607-1.002,4.015-1.201c1.406-0.189,2.862-0.223,4.298,0.033
		c1.425,0.24,2.848,0.748,3.973,1.669l-0.113,0.362c-1.393,0.143-2.617,0.361-3.818,0.639c-1.197,0.295-2.359,0.637-3.522,1.005
		c-1.162,0.37-2.337,0.716-3.552,1.027c-1.217,0.304-2.447,0.657-3.637,1.126c-2.378,0.941-4.729,2.043-7.045,3.238
		c-2.334,1.172-4.601,2.498-6.842,3.88L355.002,181.767z"/>
</g>
<g>
	<g>
		<path fill="#FFFFFF" d="M472.014,283.198c0.483,0.382,0.958,0.773,1.426,1.174c0.34,0.289,0.674,0.586,0.996,0.895
			c0.142,0.135,0.277,0.274,0.407,0.42c0.175,0.196-0.106-0.16,0.017,0.02c0.109,0.16-0.061-0.227-0.033-0.082
			c0.238,1.262,2.158,0.726,1.922-0.531c-0.147-0.783-1.15-1.48-1.709-1.967c-0.526-0.459-1.066-0.903-1.615-1.336
			c-0.426-0.337-0.992-0.418-1.41,0C471.664,282.14,471.587,282.862,472.014,283.198L472.014,283.198z"/>
	</g>
</g>
<g>
	<g>
		<path fill="#FFFFFF" d="M388.627,291.554c0.381-0.483,0.773-0.959,1.172-1.427c0.289-0.341,0.586-0.675,0.895-0.997
			c0.135-0.142,0.274-0.277,0.42-0.408c0.196-0.175-0.16,0.107,0.02-0.016c0.16-0.109-0.227,0.061-0.082,0.033
			c1.262-0.238,0.726-2.159-0.531-1.922c-0.783,0.146-1.48,1.15-1.966,1.709c-0.458,0.527-0.903,1.068-1.335,1.618
			c-0.336,0.427-0.418,0.991,0,1.409C387.568,291.903,388.291,291.981,388.627,291.554L388.627,291.554z"/>
	</g>
</g>
<g>
	<path fill="#E1A046" d="M495.838,172.597c-2.422-1.033-4.86-2.008-7.342-2.82c-2.469-0.839-4.957-1.579-7.447-2.156
		c-1.247-0.287-2.516-0.453-3.764-0.574c-1.248-0.127-2.461-0.294-3.666-0.488c-1.205-0.191-2.404-0.357-3.632-0.471
		c-1.229-0.096-2.474-0.131-3.872-0.064l-0.164-0.342c0.975-1.076,2.307-1.791,3.68-2.24c1.382-0.467,2.826-0.649,4.246-0.67
		c1.42-0.013,2.816,0.199,4.146,0.59c1.331,0.399,2.615,0.884,3.891,1.348c2.551,0.926,4.992,2.059,7.344,3.329
		c2.334,1.306,4.623,2.657,6.771,4.232L495.838,172.597z"/>
</g>
<g>
	<path fill="#594A42" d="M409.979,70.466c-0.126-0.787-0.111-1.621,0.11-2.438c0.229-0.813,0.699-1.589,1.361-2.188
		c1.336-1.219,3.311-1.604,5.113-1.201c1.813,0.391,3.527,1.799,4.196,3.693c0.703,1.891,0.4,3.865-0.129,5.545
		c-0.079,0.229-0.124,0.381-0.24,0.671c-0.08,0.19-0.13,0.344-0.266,0.605c-0.237,0.495-0.475,0.856-0.746,1.26
		c-0.546,0.767-1.185,1.414-1.825,2.003c-1.293,1.168-2.637,2.098-3.876,3.034c-1.235,0.933-2.415,1.819-3.315,2.833
		c-0.45,0.504-0.832,1.03-1.131,1.58c-0.126,0.225-0.351,0.684-0.501,0.992c-0.151,0.325-0.304,0.646-0.448,0.992
		c-1.19,2.685-1.903,5.548-1.525,8.188c0.174,1.318,0.652,2.563,1.398,3.672c0.758,1.099,1.77,2.069,2.941,2.886
		c2.377,1.604,5.316,2.587,8.341,3.104c3.038,0.561,6.195,0.627,9.388,0.483c-3.051,0.975-6.288,1.432-9.57,1.372
		c-3.266-0.111-6.645-0.723-9.707-2.436c-1.526-0.843-2.967-1.98-4.08-3.451c-1.119-1.457-1.911-3.212-2.254-5.025
		c-0.352-1.817-0.266-3.654,0.035-5.389c0.332-1.731,0.877-3.379,1.561-4.932c0.168-0.385,0.361-0.777,0.555-1.166
		c0.205-0.4,0.33-0.654,0.594-1.121c0.475-0.835,1.053-1.586,1.672-2.254c1.252-1.324,2.629-2.354,3.977-3.256
		c2.688-1.791,5.3-3.301,6.256-5.668c0.551-1.271,0.799-2.609,0.535-3.779c-0.241-1.172-1.125-2.181-2.367-2.662
		c-1.219-0.508-2.742-0.467-3.946,0.258C410.85,67.378,410.12,68.878,409.979,70.466z"/>
</g>
<g>
	<g>
		<path fill="#FFFFFF" d="M471.105,282.508c1.146,21.008-17.227,35.684-36.837,37.45c-19.495,1.757-40.235-10.78-42.187-31.337
			c-0.172-1.812-3.021-1.828-2.848,0c2.137,22.513,23.793,35.442,45.034,34.185c21.13-1.252,40.893-18.139,39.685-40.298
			C473.854,280.682,471.006,280.672,471.105,282.508L471.105,282.508z"/>
	</g>
</g>
<g>
	<path fill="#E1A046" d="M479.82,285.618c1.91-2.105,1.508-5.574-0.898-7.756s-5.9-2.244-7.809-0.139
		C471.113,277.724,479.241,279.308,479.82,285.618z"/>
</g>
<g>
	<path fill="#E1A046" d="M383.361,292.702c-2.115-1.899-2.068-5.393,0.104-7.809c2.172-2.415,5.639-2.833,7.754-0.934
		C391.219,283.96,383.295,286.364,383.361,292.702z"/>
</g>
<g>
	<g>
		<path fill="#FDBD56" d="M336.217,229.53c0.588,12.969-2.648,26.566-7.527,38.468c-11.32,27.62-36.398,43.769-65.177,48.693
			c-12.425,2.127-25.202,2.096-37.738,1.188c-4.277-0.31-4.247,6.337,0,6.645c34.419,2.489,71.903-3.662,95.299-31.335
			c13.166-15.573,20.013-35.727,21.563-55.886c0.198-2.574,0.342-5.189,0.225-7.773C342.668,225.263,336.023,225.245,336.217,229.53
			L336.217,229.53z"/>
	</g>
</g>
<ellipse transform="matrix(0.9972 -0.0745 0.0745 0.9972 -14.885 36.0468)" fill="#FFFFFF" cx="475.912" cy="217.618" rx="30.612" ry="22.827"/>
<path d="M484.555,216.968c0.784,10.505-5.14,19.51-13.232,20.114s-16.417-7.337-17.201-17.841
	c-0.785-10.505,6.329-18.777,14.422-19.382S483.77,206.464,484.555,216.968z"/>
<ellipse transform="matrix(0.9972 -0.0744 0.0744 0.9972 -13.8497 36.052)" fill="#FFFFFF" cx="476.733" cy="203.827" rx="1.719" ry="1.903"/>
<path opacity="0.65" fill="#FFFFFF" d="M467.036,232.812c0,0,2.979,1.969,7.326-0.547
	C474.362,232.265,471.021,238.13,467.036,232.812z"/>
<ellipse transform="matrix(0.9972 -0.0745 0.0745 0.9972 -15.6953 29.0602)" fill="#FFFFFF" cx="381.919" cy="225.042" rx="30.613" ry="22.828"/>
<path d="M404.465,223.187c0.783,10.505-5.143,19.51-13.234,20.114s-16.416-7.337-17.2-17.842s6.329-18.776,14.421-19.381
	S403.68,212.683,404.465,223.187z"/>
<path opacity="0.65" fill="#FFFFFF" d="M386.945,239.03c0,0,2.979,1.969,7.324-0.547C394.27,238.483,390.932,244.349,386.945,239.03
	z"/>
<ellipse transform="matrix(0.9972 -0.0745 0.0745 0.9972 -14.5774 30.1265)" fill="#FFFFFF" cx="396.646" cy="210.517" rx="1.718" ry="1.903"/>
</svg>
