<?xml version="1.0" encoding="utf-8"?>
<!-- Generator: Adobe Illustrator 16.0.0, SVG Export Plug-In . SVG Version: 6.00 Build 0)  -->
<!DOCTYPE svg PUBLIC "-//W3C//DTD SVG 1.1//EN" "http://www.w3.org/Graphics/SVG/1.1/DTD/svg11.dtd">
<svg version="1.1" id="Layer_1" xmlns="http://www.w3.org/2000/svg" xmlns:xlink="http://www.w3.org/1999/xlink" x="0px" y="0px"
	 width="841.891px" height="595.28px" viewBox="0 0 841.891 595.28" enable-background="new 0 0 841.891 595.28"
	 xml:space="preserve">
<path fill="#FDBD56" d="M514.941,386.636c-3.941,2.615-45.07,17.816-90.535,16.279c-45.465-1.534-94.281-23.049-95.696-31.768
	c-3.019-18.581,8.658-204.16,19.129-230.023c7.289-18.008,48.284-68.104,103.312-59.317c0,0,72.129,20.993,76.041,88.679
	C531.1,238.103,522.871,381.371,514.941,386.636z"/>
<g>
	<g>
		<path fill="#FDBD56" d="M514.928,220.587c6.928,17.678,15.877,34.704,25.311,51.145c19.691,34.318,43.8,66.804,73.646,92.967
			c3.208,2.811,7.927-1.869,4.699-4.699c-29.497-25.855-53.068-57.771-72.609-91.621c-9.14-15.834-18.088-32.838-24.641-49.557
			C519.789,214.878,513.362,216.593,514.928,220.587L514.928,220.587z"/>
	</g>
</g>
<g>
	<g>
		<path fill="#FDBD56" d="M399.146,381.968c-4.014,18.803-8.027,37.605-12.04,56.406c-1.583,7.416-3.166,14.832-4.749,22.248
			c-0.065,0.309,0.813-1.1,0.196-0.443c-0.419,0.444-1.328,0.84-2.548,1.092c-7.161,1.484-16.11-4.966-21.598-8.527
			c-3.605-2.342-6.933,3.414-3.354,5.736c7.02,4.558,24.817,15.732,32.579,5.959c1.138-1.434,1.316-2.92,1.691-4.68
			c0.974-4.56,1.947-9.119,2.92-13.678c4.436-20.782,8.872-41.564,13.308-62.346C406.445,379.556,400.04,377.778,399.146,381.968
			L399.146,381.968z"/>
	</g>
</g>
<g>
	<g>
		<path fill="#FDBD56" d="M447.065,381.096c0,21.25,0,42.501,0,63.751c0,4.523,0,9.047,0,13.57c0,1.903-0.189,3.645,0.603,5.409
			c5.114,11.406,25.519,4.026,33.026,1.153c3.96-1.516,2.242-7.941-1.766-6.408c-6.772,2.592-15.254,5.996-22.626,4.005
			c-1.028-0.278-2.466-1.372-2.48-1.393c-0.823-1.113-0.112,0.005-0.112,0.448c0-7.62,0-15.24,0-22.859c0-19.226,0-38.451,0-57.677
			C453.71,376.812,447.065,376.812,447.065,381.096L447.065,381.096z"/>
	</g>
</g>
<g>
	<path fill="#E1A046" d="M364.137,170.111c2.162-1.558,4.463-2.889,6.809-4.175c2.361-1.251,4.812-2.362,7.371-3.267
		c1.279-0.454,2.567-0.927,3.9-1.314c1.334-0.38,2.732-0.58,4.153-0.556c1.418,0.033,2.861,0.229,4.238,0.706
		c1.37,0.461,2.696,1.187,3.662,2.272l-0.168,0.34c-1.397-0.078-2.642-0.055-3.872,0.031c-1.229,0.104-2.43,0.258-3.636,0.439
		c-1.206,0.184-2.42,0.342-3.67,0.458c-1.249,0.109-2.519,0.265-3.768,0.542c-2.496,0.557-4.99,1.275-7.466,2.093
		c-2.488,0.792-4.936,1.746-7.365,2.759L364.137,170.111z"/>
</g>
<g>
	<g>
		<path fill="#FFFFFF" d="M463.892,288.76c0.385,0.417,0.76,0.841,1.13,1.271c0.261,0.303,0.539,0.629,0.771,0.934
			c0.109,0.145,0.215,0.292,0.314,0.443c0.047,0.07,0.088,0.143,0.129,0.216c0.094,0.17-0.053-0.225-0.055-0.258
			c0.048,1.281,2.041,1.286,1.994,0c-0.033-0.885-0.864-1.69-1.392-2.327c-0.478-0.576-0.975-1.138-1.482-1.688
			C464.428,286.403,463.021,287.817,463.892,288.76L463.892,288.76z"/>
	</g>
</g>
<g>
	<g>
		<path fill="#FFFFFF" d="M380.246,283.712c0.416-0.385,0.84-0.76,1.269-1.13c0.303-0.262,0.629-0.54,0.934-0.772
			c0.144-0.11,0.292-0.215,0.442-0.315c0.07-0.047,0.143-0.089,0.217-0.129c0.17-0.095-0.225,0.052-0.258,0.054
			c1.281-0.05,1.286-2.043,0-1.993c-0.886,0.034-1.689,0.864-2.326,1.393c-0.576,0.478-1.138,0.976-1.688,1.483
			C377.891,283.177,379.304,284.583,380.246,283.712L380.246,283.712z"/>
	</g>
</g>
<g>
	<path fill="#E1A046" d="M504.668,183.144c-2.229-1.399-4.485-2.746-6.81-3.938c-2.306-1.215-4.646-2.336-7.017-3.297
		c-1.187-0.479-2.412-0.842-3.627-1.157c-1.213-0.321-2.385-0.677-3.544-1.057c-1.16-0.379-2.318-0.73-3.514-1.035
		c-1.199-0.287-2.422-0.517-3.813-0.671l-0.109-0.363c1.132-0.91,2.56-1.406,3.986-1.635c1.438-0.244,2.894-0.199,4.298,0.003
		c1.405,0.211,2.751,0.64,4.004,1.234c1.251,0.603,2.444,1.282,3.63,1.94c2.375,1.314,4.608,2.816,6.731,4.439
		c2.101,1.656,4.149,3.35,6.024,5.242L504.668,183.144z"/>
</g>
<g>
	<path fill="#594A42" d="M435.891,68.812c-0.002-0.798,0.145-1.62,0.491-2.393c0.354-0.766,0.94-1.459,1.688-1.947
		c1.51-0.993,3.521-1.065,5.238-0.384c1.729,0.671,3.201,2.329,3.564,4.306c0.397,1.978-0.211,3.88-0.998,5.455
		c-0.114,0.215-0.182,0.357-0.342,0.625c-0.108,0.176-0.183,0.319-0.357,0.557c-0.313,0.451-0.603,0.771-0.934,1.127
		c-0.66,0.672-1.392,1.211-2.117,1.693c-1.461,0.949-2.934,1.658-4.304,2.388c-1.366,0.728-2.67,1.419-3.719,2.278
		c-0.523,0.428-0.982,0.887-1.364,1.383c-0.16,0.203-0.453,0.62-0.65,0.901c-0.2,0.298-0.402,0.592-0.598,0.909
		c-1.598,2.465-2.751,5.182-2.791,7.848c-0.036,1.33,0.241,2.634,0.806,3.846c0.575,1.204,1.422,2.321,2.452,3.311
		c2.095,1.959,4.844,3.389,7.75,4.375c2.912,1.031,6.021,1.59,9.195,1.949c-3.165,0.484-6.435,0.428-9.666-0.146
		c-3.209-0.622-6.449-1.756-9.206-3.927c-1.375-1.072-2.619-2.422-3.487-4.049c-0.877-1.615-1.384-3.473-1.438-5.317
		c-0.062-1.851,0.311-3.651,0.881-5.315c0.599-1.658,1.396-3.201,2.313-4.627c0.228-0.354,0.479-0.71,0.73-1.064
		c0.267-0.362,0.43-0.595,0.763-1.014c0.601-0.75,1.288-1.401,2.005-1.963c1.444-1.113,2.965-1.914,4.438-2.592
		c2.935-1.348,5.751-2.43,7.065-4.618c0.745-1.169,1.199-2.451,1.122-3.648c-0.054-1.195-0.769-2.33-1.919-2.999
		c-1.125-0.695-2.636-0.893-3.938-0.365C437.234,65.897,436.279,67.265,435.891,68.812z"/>
</g>
<g>
	<g>
		<path fill="#FFFFFF" d="M462.984,288.039c-2.17,20.982-22.942,32.29-42.461,30.968c-19.651-1.33-37.802-17.226-36.508-37.771
			c0.115-1.834-2.732-1.823-2.848,0c-1.426,22.629,18.299,38.542,39.355,40.619c21.188,2.091,43.031-11.801,45.309-33.815
			C466.021,286.213,463.172,286.231,462.984,288.039L462.984,288.039z"/>
	</g>
</g>
<g>
	<path fill="#E1A046" d="M471.122,292.255c2.216-1.779,2.362-5.27,0.328-7.802s-5.475-3.141-7.69-1.362
		C463.76,283.091,471.539,285.931,471.122,292.255z"/>
</g>
<g>
	<path fill="#E1A046" d="M374.744,284.122c-1.789-2.208-1.195-5.65,1.328-7.696c2.523-2.044,6.014-1.913,7.805,0.294
		C383.877,276.72,375.674,277.852,374.744,284.122z"/>
</g>
<g>
	<g>
		<path fill="#FDBD56" d="M336.336,228.646c-3.599,19.425-9.252,38.692-16.213,57.156c-5.439,14.43-12.105,28.649-21.239,41.137
			c-7.311,9.994-17.685,19.755-30.593,20.938c-3.247,0.298-6.484-0.017-9.655-0.732c-4.173-0.941-5.945,5.465-1.766,6.408
			c29.352,6.621,49.014-21.568,60.349-44.377c11.541-23.221,19.13-48.625,24.544-73.933c0.344-1.606,0.681-3.216,0.979-4.831
			C343.519,226.226,337.115,224.438,336.336,228.646L336.336,228.646z"/>
	</g>
</g>
<circle fill="#FFFFFF" cx="478.584" cy="216.586" r="30.613"/>
<path d="M487.221,217.299c-1.17,14.077-8.675,24.944-16.762,24.272c-8.088-0.673-14.822-12.725-13.651-26.802
	s9.712-23.755,17.8-23.083C482.694,192.359,488.392,203.222,487.221,217.299z"/>
<ellipse transform="matrix(0.9966 0.0827 -0.0827 0.9966 18.0603 -39.1737)" fill="#FFFFFF" cx="481.945" cy="198.442" rx="1.718" ry="2.551"/>
<path opacity="0.65" fill="#FFFFFF" d="M467.025,235.125c0,0,2.572,3.154,7.321,0.608
	C474.347,235.733,469.969,242.905,467.025,235.125z"/>
<circle fill="#FFFFFF" cx="384.578" cy="209.314" r="30.614"/>
<path d="M407.14,210.959c-1.171,14.078-8.677,24.944-16.763,24.272c-8.087-0.673-14.821-12.724-13.65-26.802
	c1.17-14.077,9.712-23.755,17.798-23.083C402.611,186.02,408.311,196.882,407.14,210.959z"/>
<path opacity="0.65" fill="#FFFFFF" d="M386.942,228.785c0,0,2.573,3.155,7.321,0.608
	C394.264,229.394,389.887,236.566,386.942,228.785z"/>
<ellipse transform="matrix(0.9965 0.083 -0.083 0.9965 17.3824 -32.6822)" fill="#FFFFFF" cx="401.78" cy="192.728" rx="1.718" ry="2.552"/>
</svg>
