<?xml version="1.0" encoding="utf-8"?>
<!-- Generator: Adobe Illustrator 16.0.0, SVG Export Plug-In . SVG Version: 6.00 Build 0)  -->
<!DOCTYPE svg PUBLIC "-//W3C//DTD SVG 1.1//EN" "http://www.w3.org/Graphics/SVG/1.1/DTD/svg11.dtd">
<svg version="1.1" id="Layer_1" xmlns="http://www.w3.org/2000/svg" xmlns:xlink="http://www.w3.org/1999/xlink" x="0px" y="0px"
	 width="841.89px" height="595.28px" viewBox="0 0 841.89 595.28" enable-background="new 0 0 841.89 595.28" xml:space="preserve">
<path fill="#FDBD56" d="M527.325,379.354c-3.711,2.934-43.438,21.491-88.874,23.728c-45.436,2.239-95.867-15.157-98-23.728
	c-4.548-18.268-8.291-204.175,0-230.818c5.771-18.549,42.475-71.87,98.041-67.675c0,0,73.62,14.944,83.128,82.071
	C531.118,229.993,534.792,373.45,527.325,379.354z"/>
<g>
	<g>
		<path fill="#FDBD56" d="M515.782,222.053c14.907,11.758,27.394,27.541,37.119,43.696c9.267,15.393,15.719,32.345,18.449,50.127
			c3.352,21.833-0.428,44.043-8.77,64.337c-1.629,3.962,4.801,5.671,6.407,1.766c15.989-38.898,11.824-80.621-8.768-116.88
			c-10.035-17.672-23.674-35.071-39.739-47.744C517.155,214.732,512.419,219.401,515.782,222.053L515.782,222.053z"/>
	</g>
</g>
<g>
	<g>
		<path fill="#FDBD56" d="M401.467,381.096c0,19.226,0,38.451,0,57.676c0,7.583,0,15.166,0,22.749c0,0.367,0.696-1.648,0.023-0.54
			c-0.084,0.139-1.056,1.033-2.054,1.414c-7.147,2.714-16.62-1.309-23.188-3.823c-4.009-1.534-5.726,4.892-1.767,6.407
			c7.935,3.037,27.442,10.098,33.028-1.153c0.793-1.597,0.602-3.256,0.602-4.993c0-4.663,0-9.325,0-13.987c0-21.25,0-42.5,0-63.75
			C408.111,376.811,401.467,376.811,401.467,381.096L401.467,381.096z"/>
	</g>
</g>
<g>
	<g>
		<path fill="#FDBD56" d="M472.489,381.096c0,19.226,0,38.451,0,57.676c0,7.583,0,15.166,0,22.749c0,0.367,0.696-1.648,0.023-0.54
			c-0.084,0.139-1.056,1.033-2.054,1.414c-7.146,2.714-16.62-1.309-23.188-3.823c-4.009-1.534-5.726,4.892-1.767,6.407
			c7.935,3.037,27.442,10.1,33.027-1.153c0.793-1.597,0.602-3.256,0.602-4.993c0-4.663,0-9.325,0-13.987c0-21.25,0-42.5,0-63.75
			C479.134,376.811,472.489,376.811,472.489,381.096L472.489,381.096z"/>
	</g>
</g>
<ellipse fill="#FFFFFF" cx="477" cy="231.978" rx="30.613" ry="11.871"/>
<path d="M485.667,231.976c0,5.478-6.578,9.918-14.693,9.918c-8.116,0-15.826-4.441-15.826-9.918s7.71-9.492,15.826-9.492
	C479.089,222.483,485.667,226.498,485.667,231.976z"/>
<ellipse fill="#FFFFFF" cx="478.846" cy="224.858" rx="1.718" ry="0.99"/>
<path opacity="0.65" fill="#FFFFFF" d="M467.018,239.513c0,0,2.825,1.137,7.347,0C474.364,239.513,470.596,242.426,467.018,239.513z
	"/>
<ellipse fill="#FFFFFF" cx="382.715" cy="232.188" rx="30.613" ry="11.872"/>
<path d="M405.336,232.099c0,5.478-6.58,9.918-14.694,9.918s-15.825-4.44-15.825-9.918c0-5.478,7.71-9.492,15.825-9.492
	S405.336,226.622,405.336,232.099z"/>
<path opacity="0.65" fill="#FFFFFF" d="M386.685,239.637c0,0,2.826,1.137,7.347,0C394.032,239.637,390.265,242.55,386.685,239.637z"
	/>
<g>
	<path fill="#E1A046" d="M359.096,176.072c2.025-1.73,4.208-3.248,6.438-4.725c2.25-1.442,4.6-2.753,7.076-3.867
		c1.237-0.557,2.481-1.136,3.778-1.632c1.298-0.489,2.675-0.806,4.092-0.898c1.417-0.085,2.871-0.01,4.283,0.352
		c1.404,0.346,2.785,0.959,3.838,1.96l-0.14,0.354c-1.399,0.038-2.636,0.165-3.856,0.352c-1.216,0.206-2.399,0.46-3.587,0.74
		c-1.187,0.284-2.383,0.541-3.619,0.76c-1.237,0.213-2.489,0.474-3.71,0.853c-2.441,0.761-4.867,1.685-7.267,2.705
		c-2.414,0.994-4.773,2.149-7.111,3.359L359.096,176.072z"/>
</g>
<g>
	<g>
		<path fill="#FFFFFF" d="M468.28,285.989c0.437,0.401,0.865,0.813,1.288,1.229c0.326,0.323,0.645,0.65,0.953,0.989
			c0.115,0.127,0.227,0.259,0.334,0.394c-0.133-0.166,0.008,0.023,0.028,0.054c0.095,0.147-0.043-0.258-0.046-0.284
			c0.062,0.539,0.406,0.996,0.997,0.996c0.496,0,1.059-0.456,0.997-0.996c-0.107-0.934-0.954-1.654-1.58-2.289
			c-0.506-0.514-1.028-1.014-1.56-1.501C468.744,283.712,467.331,285.119,468.28,285.989L468.28,285.989z"/>
	</g>
</g>
<g>
	<g>
		<path fill="#FFFFFF" d="M384.507,288.008c0.401-0.438,0.812-0.866,1.229-1.289c0.321-0.326,0.649-0.646,0.988-0.952
			c0.127-0.116,0.259-0.228,0.393-0.335c-0.166,0.133,0.023-0.007,0.054-0.027c0.147-0.095-0.258,0.043-0.285,0.046
			c0.54-0.063,0.997-0.407,0.997-0.997c0-0.496-0.456-1.058-0.997-0.996c-0.932,0.106-1.653,0.954-2.288,1.58
			c-0.514,0.506-1.013,1.029-1.5,1.562C382.231,287.543,383.637,288.957,384.507,288.008L384.507,288.008z"/>
	</g>
</g>
<g>
	<path fill="#E1A046" d="M500.223,177.414c-2.338-1.21-4.697-2.364-7.112-3.359c-2.399-1.021-4.825-1.944-7.267-2.705
		c-1.222-0.379-2.474-0.64-3.71-0.853c-1.235-0.22-2.432-0.477-3.619-0.76c-1.187-0.281-2.371-0.535-3.587-0.74
		c-1.22-0.187-2.457-0.314-3.856-0.352l-0.14-0.354c1.053-1.001,2.434-1.614,3.838-1.96c1.412-0.361,2.867-0.437,4.283-0.352
		c1.418,0.093,2.794,0.409,4.092,0.898c1.297,0.497,2.542,1.075,3.779,1.633c2.476,1.114,4.825,2.424,7.075,3.866
		c2.231,1.476,4.414,2.994,6.439,4.725L500.223,177.414z"/>
</g>
<g>
	<path fill="#594A42" d="M422.207,69.174c-0.068-0.794,0.01-1.626,0.291-2.424c0.29-0.792,0.816-1.532,1.521-2.081
		c1.423-1.115,3.42-1.354,5.188-0.816c1.778,0.524,3.384,2.055,3.91,3.995c0.561,1.938,0.112,3.884-0.542,5.52
		c-0.096,0.223-0.151,0.371-0.289,0.651c-0.094,0.185-0.155,0.333-0.31,0.584c-0.274,0.477-0.537,0.819-0.838,1.202
		c-0.602,0.723-1.286,1.321-1.969,1.861c-1.377,1.068-2.786,1.896-4.091,2.737c-1.301,0.838-2.544,1.635-3.518,2.579
		c-0.486,0.469-0.905,0.965-1.245,1.491c-0.143,0.215-0.401,0.655-0.574,0.952c-0.175,0.314-0.352,0.623-0.52,0.956
		c-1.388,2.589-2.312,5.391-2.131,8.052c0.074,1.329,0.458,2.605,1.122,3.765c0.673,1.152,1.609,2.196,2.718,3.097
		c2.25,1.778,5.108,2.975,8.085,3.717c2.988,0.786,6.132,1.086,9.326,1.181c-3.114,0.745-6.377,0.96-9.646,0.655
		c-3.249-0.353-6.572-1.215-9.499-3.15c-1.459-0.955-2.811-2.197-3.812-3.746c-1.008-1.536-1.667-3.346-1.874-5.18
		c-0.215-1.838,0.007-3.664,0.438-5.371c0.459-1.702,1.125-3.305,1.923-4.802c0.197-0.372,0.418-0.748,0.639-1.122
		c0.235-0.383,0.379-0.628,0.676-1.073c0.536-0.798,1.167-1.504,1.835-2.123c1.348-1.229,2.796-2.153,4.208-2.951
		c2.813-1.586,5.529-2.898,6.659-5.188c0.645-1.226,0.992-2.542,0.815-3.729c-0.153-1.187-0.96-2.257-2.162-2.831
		c-1.178-0.597-2.7-0.67-3.955-0.036C423.305,66.159,422.466,67.601,422.207,69.174z"/>
</g>
<ellipse fill="#FFFFFF" cx="398.484" cy="225.226" rx="1.718" ry="0.99"/>
<g>
	<g>
		<path fill="#FFFFFF" d="M467.371,285.285c-0.423,21.066-19.993,34.192-39.625,34.494c-19.635,0.302-39.212-13.873-39.626-34.494
			c-0.037-1.833-2.884-1.836-2.848,0c0.455,22.632,21.258,37.015,42.474,37.341c21.217,0.327,42.028-15.188,42.473-37.341
			C470.255,283.448,467.408,283.451,467.371,285.285L467.371,285.285z"/>
	</g>
</g>
<g>
	<path fill="#E1A046" d="M475.835,288.929c2.062-1.957,1.918-5.446-0.319-7.802c-2.237-2.354-5.716-2.676-7.776-0.719
		C467.739,280.408,475.727,282.593,475.835,288.929z"/>
</g>
<g>
	<path fill="#E1A046" d="M379.116,288.811c-1.967-2.051-1.661-5.531,0.685-7.779c2.345-2.247,5.834-2.406,7.802-0.354
		C387.603,280.678,379.521,282.486,379.116,288.811z"/>
</g>
<g>
	<g>
		<path fill="#FDBD56" d="M333.189,227.181c-15.85,12.503-29.096,29.536-39.215,46.834c-21.197,36.234-25.349,78.727-9.292,117.79
			c1.606,3.906,8.036,2.197,6.407-1.766c-8.229-20.02-11.625-41.24-8.989-62.772c2.201-17.981,9.039-35.246,18.138-50.799
			c9.667-16.524,22.521-32.656,37.649-44.588C341.25,229.227,336.514,224.559,333.189,227.181L333.189,227.181z"/>
	</g>
</g>
</svg>
