<?xml version="1.0" encoding="utf-8"?>
<!-- Generator: Adobe Illustrator 16.0.0, SVG Export Plug-In . SVG Version: 6.00 Build 0)  -->
<!DOCTYPE svg PUBLIC "-//W3C//DTD SVG 1.1//EN" "http://www.w3.org/Graphics/SVG/1.1/DTD/svg11.dtd">
<svg version="1.1" id="Layer_1" xmlns="http://www.w3.org/2000/svg" xmlns:xlink="http://www.w3.org/1999/xlink" x="0px" y="0px"
	 width="841.891px" height="595.28px" viewBox="0 0 841.891 595.28" enable-background="new 0 0 841.891 595.28"
	 xml:space="preserve">
<path fill="#FDBD56" d="M481.165,401.354c-4.4,1.736-47.794,8.031-91.94-2.945s-87.407-42.193-86.975-51.015
	c0.92-18.803,51.018-197.872,66.648-220.987c10.882-16.092,61.417-56.545,113.404-36.483c0,0,66.17,35.565,55.891,102.579
	C527.924,259.449,490.018,397.857,481.165,401.354z"/>
<g>
	<g>
		<path fill="#FDBD56" d="M508.463,268.77c4.053,20.342,11.809,40.35,20.729,58.986c16.972,35.461,42.783,68.404,78.901,85.644
			c3.846,1.835,7.219-3.892,3.354-5.737c-35.628-17.006-60.266-49.302-76.972-84.208c-8.516-17.792-15.737-37.036-19.605-56.451
			C514.033,262.803,507.629,264.586,508.463,268.77L508.463,268.77z"/>
	</g>
</g>
<g>
	<g>
		<path fill="#FDBD56" d="M353.528,362.939c-4.014,18.802-8.027,37.604-12.04,56.406c-1.583,7.416-3.166,14.831-4.749,22.247
			c-0.066,0.31,0.813-1.099,0.196-0.444c-0.419,0.445-1.328,0.84-2.548,1.093c-7.162,1.483-16.111-4.966-21.598-8.528
			c-3.605-2.34-6.932,3.414-3.354,5.738c7.02,4.557,24.817,15.73,32.579,5.957c1.138-1.432,1.316-2.919,1.692-4.68
			c0.973-4.559,1.945-9.117,2.919-13.678c4.437-20.781,8.872-41.563,13.308-62.346C360.827,360.527,354.422,358.75,353.528,362.939
			L353.528,362.939z"/>
	</g>
</g>
<g>
	<g>
		<path fill="#FDBD56" d="M447.065,381.096c0,21.25,0,42.5,0,63.75c0,4.523,0,9.047,0,13.57c0,1.904-0.188,3.646,0.603,5.41
			c5.113,11.406,25.519,4.025,33.026,1.152c3.96-1.516,2.242-7.94-1.766-6.406c-6.772,2.592-15.254,5.995-22.626,4.004
			c-1.028-0.277-2.466-1.373-2.48-1.393c-0.823-1.113-0.112,0.005-0.112,0.447c0-7.619,0-15.238,0-22.858
			c0-19.226,0-38.451,0-57.677C453.71,376.811,447.065,376.811,447.065,381.096L447.065,381.096z"/>
	</g>
</g>
<g>
	<path fill="#E1A046" d="M378.797,158.154c2.439-1.072,4.967-1.895,7.529-2.664c2.57-0.73,5.198-1.308,7.891-1.658
		c1.345-0.178,2.703-0.372,4.088-0.473c1.385-0.094,2.793,0.002,4.178,0.321c1.381,0.328,2.752,0.819,3.999,1.574
		c1.244,0.736,2.39,1.722,3.108,2.985l-0.236,0.297c-1.351-0.367-2.571-0.603-3.793-0.775c-1.223-0.155-2.43-0.254-3.648-0.327
		c-1.217-0.071-2.438-0.171-3.684-0.317c-1.245-0.154-2.52-0.266-3.798-0.256c-2.558,0.023-5.147,0.207-7.738,0.492
		c-2.599,0.255-5.19,0.679-7.778,1.162L378.797,158.154z"/>
</g>
<g>
	<g>
		<path fill="#FFFFFF" d="M451.61,294.948c0.296,0.499,0.581,1.005,0.859,1.515c0.217,0.396,0.426,0.799,0.622,1.207
			c0.064,0.135,0.104,0.22,0.147,0.33c0.118,0.301,0.016,0.525,0.106-0.045c-0.199,1.258,1.721,1.797,1.922,0.531
			c0.146-0.922-0.445-1.836-0.857-2.621c-0.342-0.65-0.704-1.291-1.079-1.923C452.677,292.838,450.953,293.84,451.61,294.948
			L451.61,294.948z"/>
	</g>
</g>
<g>
	<g>
		<path fill="#FFFFFF" d="M370.837,272.642c0.499-0.296,1.005-0.581,1.514-0.86c0.397-0.217,0.8-0.427,1.208-0.623
			c0.134-0.064,0.219-0.104,0.329-0.146c0.301-0.119,0.526-0.018-0.043-0.107c1.257,0.199,1.796-1.721,0.529-1.922
			c-0.921-0.146-1.835,0.445-2.621,0.858c-0.65,0.342-1.29,0.704-1.922,1.08C368.727,271.576,369.729,273.3,370.837,272.642
			L370.837,272.642z"/>
	</g>
</g>
<g>
	<path fill="#E1A046" d="M504.668,183.145c-2.229-1.4-4.485-2.746-6.81-3.938c-2.306-1.216-4.646-2.337-7.017-3.299
		c-1.187-0.479-2.412-0.842-3.627-1.156c-1.213-0.321-2.385-0.677-3.544-1.057c-1.16-0.379-2.318-0.73-3.514-1.035
		c-1.199-0.287-2.422-0.517-3.813-0.67l-0.109-0.363c1.132-0.911,2.56-1.408,3.986-1.637c1.438-0.243,2.894-0.197,4.298,0.004
		c1.405,0.211,2.751,0.64,4.004,1.234c1.251,0.603,2.444,1.282,3.63,1.94c2.375,1.315,4.608,2.815,6.731,4.44
		c2.101,1.655,4.149,3.348,6.024,5.242L504.668,183.145z"/>
</g>
<g>
	<path fill="#594A42" d="M470.087,74.033c0.165-0.78,0.479-1.555,0.979-2.237c0.507-0.675,1.224-1.231,2.058-1.553
		c1.684-0.657,3.665-0.309,5.203,0.716c1.551,1.016,2.646,2.945,2.589,4.954c-0.022,2.017-1.015,3.751-2.112,5.128
		c-0.156,0.186-0.252,0.312-0.465,0.539c-0.143,0.148-0.244,0.274-0.465,0.471c-0.399,0.377-0.75,0.629-1.148,0.908
		c-0.785,0.519-1.613,0.895-2.424,1.214c-1.626,0.624-3.214,1.011-4.706,1.438c-1.487,0.426-2.907,0.831-4.112,1.453
		c-0.601,0.309-1.146,0.663-1.622,1.068c-0.199,0.166-0.573,0.512-0.824,0.746c-0.258,0.25-0.517,0.495-0.774,0.766
		c-2.076,2.078-3.771,4.493-4.365,7.093c-0.313,1.292-0.313,2.626-0.014,3.929c0.312,1.298,0.906,2.566,1.708,3.75
		c1.641,2.352,4.031,4.323,6.668,5.893c2.634,1.615,5.557,2.811,8.587,3.824c-3.196-0.186-6.383-0.923-9.424-2.158
		c-3.008-1.276-5.941-3.061-8.185-5.759c-1.121-1.335-2.057-2.915-2.567-4.687c-0.521-1.762-0.63-3.685-0.298-5.5
		c0.325-1.822,1.064-3.506,1.97-5.016c0.931-1.497,2.031-2.84,3.227-4.043c0.297-0.298,0.617-0.594,0.938-0.889
		c0.335-0.299,0.544-0.492,0.956-0.832c0.743-0.608,1.552-1.103,2.37-1.503c1.645-0.787,3.299-1.253,4.881-1.61
		c3.151-0.706,6.131-1.178,7.873-3.044c0.972-0.987,1.684-2.147,1.857-3.335c0.196-1.18-0.267-2.438-1.252-3.333
		c-0.956-0.913-2.392-1.421-3.776-1.177C472.009,71.463,470.789,72.601,470.087,74.033z"/>
</g>
<g>
	<g>
		<path fill="#FFFFFF" d="M450.916,294.012c-6.514,20.064-29.037,26.906-47.92,21.54c-18.914-5.374-33.479-24.644-27.936-44.489
			c0.495-1.771-2.253-2.522-2.746-0.756c-5.936,21.247,8.952,40.621,28.489,47.533c20.505,7.256,45.841-1.457,52.858-23.071
			C454.23,293.018,451.48,292.273,450.916,294.012L450.916,294.012z"/>
	</g>
</g>
<g>
	<path fill="#E1A046" d="M457.978,299.912c2.538-1.279,3.408-4.66,1.946-7.562c-1.462-2.899-4.699-4.212-7.237-2.935
		C452.687,289.416,459.703,293.814,457.978,299.912z"/>
</g>
<g>
	<path fill="#E1A046" d="M365.41,271.872c-1.289-2.532,0.009-5.774,2.903-7.251c2.894-1.473,6.28-0.617,7.572,1.914
		C375.886,266.535,367.627,265.934,365.41,271.872z"/>
</g>
<g>
	<g>
		<path fill="#FDBD56" d="M337.862,226.661c-40.981,27.119-104.097,42.802-141.692,2.367c-2.923-3.144-7.61,1.565-4.697,4.698
			c12.162,13.081,27.689,21.854,45.26,25.173c16.222,3.063,33.004,1.355,48.923-2.55c19.309-4.736,38.921-12.939,55.561-23.951
			C344.771,230.046,341.447,224.289,337.862,226.661L337.862,226.661z"/>
	</g>
</g>
<circle fill="#FFFFFF" cx="481.045" cy="227.46" r="30.613"/>
<path d="M489.344,229.957c-4.078,13.525-13.684,22.59-21.452,20.246c-7.771-2.343-11.845-15.533-7.767-29.057
	c4.08-13.525,14.45-21.211,22.221-18.867C490.114,204.623,493.423,216.434,489.344,229.957z"/>
<ellipse transform="matrix(0.9966 0.083 -0.083 0.9966 18.1276 -39.305)" fill="#FFFFFF" cx="481.945" cy="198.441" rx="1.718" ry="2.552"/>
<path opacity="0.65" fill="#FFFFFF" d="M465.877,243.184c0,0,1.858,3.621,7.033,2.121
	C472.91,245.305,467.135,251.406,465.877,243.184z"/>
<circle fill="#FFFFFF" cx="390.619" cy="200.756" r="30.614"/>
<path d="M412.343,207.067c-4.079,13.524-13.685,22.589-21.453,20.245c-7.77-2.343-11.845-15.532-7.765-29.057
	c4.078-13.525,14.449-21.21,22.217-18.867C413.111,181.732,416.422,193.543,412.343,207.067z"/>
<path opacity="0.65" fill="#FFFFFF" d="M388.873,220.293c0,0,1.859,3.621,7.034,2.121
	C395.907,222.414,390.132,228.518,388.873,220.293z"/>
<ellipse transform="matrix(0.9574 0.2888 -0.2888 0.9574 71.84 -110.655)" fill="#FFFFFF" cx="410.9" cy="188.119" rx="1.718" ry="2.552"/>
</svg>
