<?xml version="1.0" encoding="utf-8"?>
<!-- Generator: Adobe Illustrator 16.0.0, SVG Export Plug-In . SVG Version: 6.00 Build 0)  -->
<!DOCTYPE svg PUBLIC "-//W3C//DTD SVG 1.1//EN" "http://www.w3.org/Graphics/SVG/1.1/DTD/svg11.dtd">
<svg version="1.1" id="Layer_1" xmlns="http://www.w3.org/2000/svg" xmlns:xlink="http://www.w3.org/1999/xlink" x="0px" y="0px"
	 width="841.891px" height="595.28px" viewBox="0 0 841.891 595.28" enable-background="new 0 0 841.891 595.28"
	 xml:space="preserve">
<path fill="#FDBD56" d="M551.896,359.419c-3.098,3.573-38.67,29.211-82.892,39.878c-44.222,10.668-97.013,2.979-100.706-5.044
	c-7.873-17.099-46.205-199.052-43.025-226.772c2.213-19.3,28.334-78.528,83.709-84.764c0,0,75.113,0.958,96.969,65.137
	C527.783,211.969,558.133,352.228,551.896,359.419z"/>
<g>
	<g>
		<path fill="#FDBD56" d="M516.454,222.572c17.69,9.963,36.235,18.568,54.842,26.646c37.598,16.322,76.838,29.998,117.364,36.754
			c4.189,0.699,5.984-5.703,1.766-6.406c-40.423-6.739-79.561-20.363-117.063-36.644c-18.176-7.891-36.276-16.356-53.556-26.087
			C516.07,214.73,512.722,220.471,516.454,222.572L516.454,222.572z"/>
	</g>
</g>
<g>
	<g>
		<path fill="#FDBD56" d="M402.176,381.096c0,19.226,0,38.451,0,57.678c0,7.582,0,15.164,0,22.748c0,0.365,0.696-1.65,0.023-0.541
			c-0.084,0.141-1.057,1.035-2.055,1.414c-7.146,2.715-16.619-1.309-23.188-3.822c-4.01-1.534-5.727,4.891-1.768,6.406
			c7.936,3.037,27.443,10.1,33.029-1.152c0.793-1.598,0.602-3.257,0.602-4.994c0-4.662,0-9.324,0-13.986c0-21.25,0-42.5,0-63.75
			C408.82,376.811,402.176,376.811,402.176,381.096L402.176,381.096z"/>
	</g>
</g>
<g>
	<g>
		<path fill="#FDBD56" d="M493.064,368.784c9.857,18.826,19.713,37.652,29.57,56.479c2.098,4.007,4.195,8.015,6.294,12.022
			c0.876,1.673,1.495,3.299,3.056,4.43c10.123,7.346,24.227-8.127,29.787-14.43c2.822-3.2-1.859-7.918-4.699-4.699
			c-4.857,5.507-10.754,12.335-18.284,14.008c-1.063,0.236-2.503-0.059-2.751-0.18c-0.995-0.482-0.035,0.069,0.12,0.365
			c-3.534-6.75-7.068-13.5-10.603-20.251c-8.918-17.032-17.835-34.065-26.752-51.098
			C496.814,361.634,491.08,364.992,493.064,368.784L493.064,368.784z"/>
	</g>
</g>
<g>
	<path fill="#E1A046" d="M354.006,184.985c1.808-1.958,3.797-3.722,5.838-5.45c2.064-1.696,4.243-3.275,6.57-4.672
		c1.163-0.699,2.33-1.421,3.561-2.066c1.23-0.639,2.561-1.114,3.957-1.374c1.396-0.251,2.85-0.348,4.295-0.155
		c1.435,0.179,2.879,0.625,4.041,1.496l-0.096,0.367c-1.386,0.201-2.6,0.474-3.788,0.803c-1.184,0.347-2.329,0.738-3.476,1.158
		c-1.145,0.42-2.303,0.816-3.504,1.18c-1.202,0.357-2.414,0.764-3.584,1.283c-2.334,1.044-4.635,2.246-6.896,3.543
		c-2.28,1.271-4.487,2.695-6.666,4.173L354.006,184.985z"/>
</g>
<g>
	<g>
		<path fill="#FFFFFF" d="M479.72,284.605c0.479,0.301,0.954,0.611,1.423,0.929c0.371,0.251,0.738,0.509,1.096,0.777
			c0.068,0.051,0.221,0.179,0.316,0.263c0.265,0.232,0.174,0.287,0.068-0.049c0.383,1.222,2.307,0.699,1.922-0.531
			c-0.264-0.84-1.271-1.397-1.945-1.871c-0.611-0.43-1.239-0.842-1.874-1.238C479.633,282.2,478.633,283.926,479.72,284.605
			L479.72,284.605z"/>
	</g>
</g>
<g>
	<g>
		<path fill="#FFFFFF" d="M397.69,301.738c0.3-0.48,0.611-0.954,0.928-1.424c0.251-0.371,0.508-0.738,0.776-1.096
			c0.051-0.068,0.18-0.221,0.264-0.318c0.23-0.263,0.287-0.175-0.049-0.068c1.221-0.386,0.699-2.311-0.531-1.922
			c-0.841,0.266-1.396,1.271-1.871,1.947c-0.43,0.612-0.841,1.24-1.237,1.875C395.286,301.826,397.012,302.825,397.69,301.738
			L397.69,301.738z"/>
	</g>
</g>
<g>
	<path fill="#E1A046" d="M494.31,169.699c-2.464-0.928-4.942-1.795-7.458-2.499c-2.502-0.73-5.02-1.362-7.534-1.831
		c-1.258-0.232-2.532-0.343-3.784-0.408c-1.254-0.073-2.473-0.188-3.684-0.328c-1.213-0.141-2.418-0.253-3.649-0.313
		c-1.233-0.043-2.477-0.023-3.871,0.104l-0.18-0.334c0.927-1.119,2.228-1.891,3.58-2.398c1.359-0.525,2.795-0.771,4.212-0.854
		c1.418-0.074,2.822,0.077,4.17,0.409c1.346,0.341,2.65,0.77,3.943,1.178c2.59,0.813,5.078,1.838,7.482,3.006
		c2.389,1.203,4.734,2.453,6.95,3.934L494.31,169.699z"/>
</g>
<g>
	<path fill="#594A42" d="M409.979,70.467c-0.126-0.787-0.111-1.623,0.11-2.439c0.229-0.813,0.699-1.588,1.361-2.188
		c1.336-1.218,3.311-1.604,5.113-1.201c1.813,0.392,3.527,1.798,4.196,3.694c0.703,1.89,0.4,3.864-0.129,5.544
		c-0.079,0.229-0.124,0.382-0.24,0.671c-0.08,0.189-0.13,0.344-0.266,0.605c-0.237,0.496-0.475,0.856-0.746,1.26
		c-0.546,0.767-1.185,1.414-1.825,2.004c-1.293,1.166-2.637,2.098-3.876,3.033c-1.235,0.932-2.415,1.82-3.315,2.834
		c-0.45,0.504-0.832,1.029-1.131,1.579c-0.126,0.226-0.351,0.683-0.501,0.992c-0.151,0.325-0.304,0.647-0.448,0.991
		c-1.19,2.686-1.903,5.549-1.525,8.188c0.174,1.319,0.652,2.563,1.398,3.671c0.758,1.1,1.77,2.07,2.941,2.887
		c2.377,1.605,5.316,2.587,8.341,3.104c3.038,0.562,6.195,0.626,9.388,0.483c-3.051,0.975-6.288,1.432-9.57,1.372
		c-3.266-0.11-6.645-0.723-9.707-2.435c-1.526-0.844-2.967-1.981-4.08-3.451c-1.119-1.458-1.911-3.213-2.254-5.026
		c-0.352-1.817-0.266-3.655,0.035-5.388c0.332-1.732,0.877-3.381,1.561-4.933c0.168-0.386,0.361-0.776,0.555-1.167
		c0.205-0.398,0.33-0.654,0.594-1.119c0.475-0.836,1.053-1.588,1.672-2.254c1.252-1.326,2.629-2.355,3.977-3.256
		c2.688-1.791,5.3-3.303,6.256-5.669c0.551-1.271,0.799-2.608,0.535-3.779c-0.241-1.172-1.125-2.181-2.367-2.661
		c-1.219-0.51-2.742-0.469-3.946,0.258C410.85,67.377,410.12,68.877,409.979,70.467z"/>
</g>
<g>
	<g>
		<path fill="#FFFFFF" d="M478.663,284.158c3.415,20.82-13.646,37.174-32.831,41.037c-19.317,3.891-40.988-6.693-45.15-26.85
			c-0.371-1.799-3.116-1.035-2.746,0.756c4.586,22.21,27.785,32.365,48.654,28.84c21.001-3.548,38.4-22.705,34.819-44.541
			C481.112,281.592,478.369,282.361,478.663,284.158L478.663,284.158z"/>
	</g>
</g>
<g>
	<path fill="#E1A046" d="M487.621,286.082c1.672-2.301,0.895-5.705-1.733-7.614c-2.628-1.907-6.108-1.591-7.778,0.708
		C478.109,279.176,486.361,279.87,487.621,286.082z"/>
</g>
<g>
	<path fill="#E1A046" d="M392.496,303.571c-2.307-1.659-2.639-5.138-0.742-7.773c1.898-2.637,5.299-3.428,7.607-1.769
		C399.361,294.029,391.744,297.278,392.496,303.571z"/>
</g>
<g>
	<g>
		<path fill="#FDBD56" d="M336.217,229.529c0.674,11.42-3.799,23.736-10.344,33.447c-18.993,28.184-57.719,32.843-88.811,31.956
			c-3.768-0.107-7.529-0.341-11.288-0.614c-4.276-0.312-4.247,6.335,0,6.645c34.024,2.48,74.813-0.182,99.654-26.838
			c10.671-11.451,17.2-27.175,17.454-42.871c0.01-0.574,0.012-1.151-0.021-1.725C342.61,225.271,335.965,225.247,336.217,229.529
			L336.217,229.529z"/>
	</g>
</g>
<path fill="#FFFFFF" d="M505.957,205.158c1.92,16.199-10.133,30.945-26.924,32.936c-16.788,1.992-31.953-9.527-33.877-25.726
	c-1.92-16.198,10.135-30.944,26.921-32.936C488.869,177.441,504.036,188.959,505.957,205.158z"/>
<path d="M484.163,207.738c1.604,13.533-3.626,25.281-11.685,26.236s-17.017-9.108-18.621-22.643
	c-1.607-13.535,4.874-24.361,12.932-25.318C474.85,185.059,482.557,194.203,484.163,207.738z"/>
<ellipse transform="matrix(0.993 -0.1179 0.1179 0.993 -19.2003 57.3764)" fill="#FFFFFF" cx="475.303" cy="190.955" rx="1.719" ry="2.463"/>
<path opacity="0.65" fill="#FFFFFF" d="M467.852,228.559c0,0,3.139,2.475,7.295-0.866
	C475.146,227.692,472.258,235.332,467.852,228.559z"/>
<ellipse transform="matrix(0.993 -0.1178 0.1178 0.993 -23.2948 46.5158)" fill="#FFFFFF" cx="381.989" cy="220.388" rx="30.613" ry="29.536"/>
<path d="M404.428,217.503c1.604,13.535-3.629,25.282-11.687,26.237c-8.059,0.955-17.016-9.108-18.62-22.644
	c-1.605-13.534,4.874-24.361,12.933-25.316C395.111,194.824,402.82,203.969,404.428,217.503z"/>
<path opacity="0.65" fill="#FFFFFF" d="M388.116,238.322c0,0,3.139,2.477,7.292-0.864
	C395.408,237.458,392.522,245.098,388.116,238.322z"/>
<ellipse transform="matrix(0.9931 -0.1177 0.1177 0.9931 -20.9411 47.9481)" fill="#FFFFFF" cx="395.608" cy="201.327" rx="1.718" ry="2.463"/>
</svg>
