<?xml version="1.0" encoding="utf-8"?>
<!-- Generator: Adobe Illustrator 16.0.0, SVG Export Plug-In . SVG Version: 6.00 Build 0)  -->
<!DOCTYPE svg PUBLIC "-//W3C//DTD SVG 1.1//EN" "http://www.w3.org/Graphics/SVG/1.1/DTD/svg11.dtd">
<svg version="1.1" id="Layer_1" xmlns="http://www.w3.org/2000/svg" xmlns:xlink="http://www.w3.org/1999/xlink" x="0px" y="0px"
	 width="841.891px" height="595.28px" viewBox="0 0 841.891 595.28" enable-background="new 0 0 841.891 595.28"
	 xml:space="preserve">
<path fill="#FDBD56" d="M527.325,379.354c-3.711,2.935-43.438,21.491-88.874,23.728c-45.436,2.238-95.867-15.157-98-23.728
	c-4.548-18.268-8.291-204.175,0-230.818c5.771-18.549,42.475-71.871,98.041-67.674c0,0,73.62,14.943,83.128,82.07
	C531.118,229.994,534.792,373.451,527.325,379.354z"/>
<g>
	<g>
		<path fill="#FDBD56" d="M514.928,220.587c16.973,55.079,37.243,109.479,60.527,162.186c1.729,3.912,7.452,0.527,5.738-3.354
			c-23.051-52.175-43.057-106.074-59.859-160.599C520.076,214.739,513.662,216.482,514.928,220.587L514.928,220.587z"/>
	</g>
</g>
<g>
	<g>
		<path fill="#FDBD56" d="M401.467,381.096c0,19.226,0,38.451,0,57.677c0,7.583,0,15.165,0,22.748c0,0.366,0.696-1.649,0.023-0.54
			c-0.084,0.14-1.057,1.035-2.055,1.414c-7.146,2.715-16.619-1.309-23.188-3.822c-4.01-1.534-5.727,4.891-1.768,6.406
			c7.936,3.038,27.443,10.099,33.029-1.152c0.793-1.599,0.602-3.257,0.602-4.995c0-4.662,0-9.323,0-13.985c0-21.25,0-42.501,0-63.75
			C408.111,376.811,401.467,376.811,401.467,381.096L401.467,381.096z"/>
	</g>
</g>
<g>
	<g>
		<path fill="#FDBD56" d="M447.065,381.096c0,21.25,0,42.5,0,63.75c0,4.523,0,9.046,0,13.57c0,1.904-0.188,3.646,0.603,5.41
			c5.113,11.406,25.52,4.025,33.027,1.152c3.959-1.515,2.242-7.94-1.768-6.406c-6.771,2.591-15.253,5.995-22.625,4.004
			c-1.029-0.278-2.467-1.373-2.48-1.392c-0.823-1.113-0.112,0.004-0.112,0.447c0-7.619,0-15.239,0-22.858
			c0-19.226,0-38.451,0-57.677C453.71,376.811,447.065,376.811,447.065,381.096L447.065,381.096z"/>
	</g>
</g>
<g>
	<path fill="#E1A046" d="M359.096,176.072c2.025-1.73,4.207-3.248,6.438-4.724c2.25-1.442,4.6-2.753,7.075-3.867
		c1.236-0.558,2.481-1.135,3.779-1.633c1.297-0.489,2.674-0.805,4.092-0.898c1.416-0.084,2.871-0.009,4.283,0.353
		c1.403,0.345,2.785,0.958,3.838,1.96l-0.141,0.354c-1.398,0.038-2.636,0.165-3.855,0.352c-1.216,0.205-2.4,0.459-3.587,0.739
		c-1.187,0.284-2.384,0.541-3.619,0.761c-1.236,0.213-2.488,0.474-3.71,0.852c-2.441,0.761-4.867,1.685-7.267,2.705
		c-2.415,0.995-4.774,2.15-7.112,3.36L359.096,176.072z"/>
</g>
<g>
	<g>
		<path fill="#FFFFFF" d="M468.279,285.99c0.438,0.401,0.865,0.812,1.288,1.229c0.325,0.321,0.646,0.649,0.952,0.988
			c0.115,0.128,0.227,0.259,0.334,0.394c-0.133-0.166,0.008,0.023,0.028,0.055c0.095,0.147-0.044-0.258-0.046-0.285
			c0.062,0.54,0.406,0.997,0.996,0.997c0.496,0,1.059-0.456,0.996-0.997c-0.106-0.932-0.953-1.653-1.579-2.288
			c-0.507-0.514-1.028-1.013-1.56-1.501C468.744,283.712,467.33,285.119,468.279,285.99L468.279,285.99z"/>
	</g>
</g>
<g>
	<g>
		<path fill="#FFFFFF" d="M384.508,288.007c0.4-0.438,0.811-0.866,1.228-1.289c0.321-0.326,0.649-0.645,0.987-0.953
			c0.128-0.116,0.26-0.226,0.394-0.334c-0.165,0.132,0.023-0.008,0.054-0.027c0.146-0.095-0.257,0.042-0.284,0.045
			c0.54-0.062,0.997-0.406,0.997-0.997c0-0.496-0.456-1.059-0.997-0.997c-0.933,0.107-1.653,0.955-2.288,1.581
			c-0.514,0.506-1.012,1.029-1.5,1.562C382.231,287.543,383.637,288.957,384.508,288.007L384.508,288.007z"/>
	</g>
</g>
<g>
	<path fill="#E1A046" d="M500.223,177.415c-2.337-1.211-4.696-2.366-7.111-3.36c-2.398-1.02-4.825-1.944-7.267-2.705
		c-1.222-0.379-2.474-0.64-3.71-0.852c-1.235-0.22-2.433-0.477-3.619-0.76c-1.188-0.281-2.371-0.535-3.587-0.74
		c-1.22-0.187-2.457-0.314-3.856-0.352l-0.139-0.354c1.053-1.001,2.434-1.614,3.837-1.96c1.412-0.362,2.867-0.437,4.283-0.352
		c1.418,0.093,2.795,0.41,4.093,0.898c1.297,0.496,2.541,1.075,3.778,1.633c2.476,1.113,4.825,2.424,7.075,3.866
		c2.23,1.476,4.414,2.994,6.439,4.725L500.223,177.415z"/>
</g>
<g>
	<path fill="#594A42" d="M422.207,69.175c-0.068-0.794,0.01-1.626,0.291-2.424c0.289-0.793,0.816-1.532,1.521-2.081
		c1.423-1.115,3.42-1.353,5.188-0.818c1.779,0.525,3.385,2.056,3.91,3.996c0.561,1.938,0.111,3.885-0.541,5.519
		c-0.097,0.223-0.152,0.372-0.289,0.651c-0.094,0.183-0.156,0.333-0.311,0.584c-0.273,0.476-0.537,0.818-0.838,1.201
		c-0.602,0.724-1.285,1.322-1.969,1.862c-1.377,1.067-2.785,1.896-4.092,2.736c-1.301,0.838-2.543,1.635-3.518,2.579
		c-0.485,0.469-0.904,0.965-1.244,1.491c-0.143,0.214-0.4,0.654-0.574,0.952c-0.174,0.313-0.352,0.623-0.52,0.957
		c-1.388,2.588-2.313,5.39-2.131,8.051c0.074,1.327,0.459,2.604,1.121,3.765c0.674,1.152,1.609,2.196,2.719,3.097
		c2.25,1.777,5.107,2.975,8.086,3.717c2.987,0.786,6.131,1.087,9.325,1.182c-3.114,0.744-6.378,0.959-9.646,0.655
		c-3.249-0.354-6.572-1.215-9.5-3.151c-1.459-0.954-2.811-2.196-3.811-3.745c-1.008-1.537-1.667-3.346-1.874-5.181
		c-0.216-1.837,0.007-3.663,0.437-5.37c0.459-1.702,1.126-3.304,1.924-4.802c0.196-0.371,0.418-0.747,0.639-1.123
		c0.235-0.382,0.379-0.627,0.676-1.072c0.537-0.798,1.168-1.503,1.836-2.124c1.348-1.228,2.797-2.152,4.208-2.95
		c2.813-1.586,5.53-2.898,6.659-5.188c0.645-1.226,0.992-2.542,0.815-3.729c-0.153-1.186-0.96-2.258-2.162-2.83
		c-1.179-0.599-2.7-0.67-3.954-0.036C423.305,66.159,422.466,67.601,422.207,69.175z"/>
</g>
<g>
	<g>
		<path fill="#FFFFFF" d="M467.371,285.285c-0.423,21.065-19.992,34.192-39.625,34.494c-19.635,0.301-39.212-13.874-39.626-34.494
			c-0.037-1.834-2.884-1.838-2.848,0c0.454,22.632,21.258,37.015,42.474,37.341c21.217,0.326,42.027-15.188,42.473-37.341
			C470.256,283.447,467.408,283.451,467.371,285.285L467.371,285.285z"/>
	</g>
</g>
<g>
	<path fill="#E1A046" d="M475.835,288.93c2.062-1.958,1.918-5.446-0.319-7.802c-2.237-2.354-5.716-2.676-7.776-0.719
		C467.739,280.408,475.727,282.593,475.835,288.93z"/>
</g>
<g>
	<path fill="#E1A046" d="M379.115,288.811c-1.967-2.05-1.66-5.53,0.686-7.778c2.346-2.247,5.834-2.406,7.802-0.354
		C387.603,280.678,379.521,282.487,379.115,288.811z"/>
</g>
<g>
	<g>
		<path fill="#FDBD56" d="M336.217,229.53c-0.71,21.857-3.559,43.819-7.633,65.278c-3.381,17.812-7.95,35.494-14.691,52.346
			c-6.046,15.112-14.527,30.815-27.684,40.899c-3.351,2.569-0.048,8.345,3.354,5.737c27.402-21.005,37.701-59.673,44.369-91.873
			c4.893-23.63,8-47.93,8.918-72.063c0.004-0.108,0.008-0.217,0.012-0.326C343,225.243,336.355,225.256,336.217,229.53
			L336.217,229.53z"/>
	</g>
</g>
<circle fill="#FFFFFF" cx="477" cy="212.903" r="30.613"/>
<path d="M485.667,212.897c0,14.126-6.578,25.578-14.693,25.578s-15.825-11.451-15.825-25.578s7.71-24.479,15.825-24.479
	S485.667,198.771,485.667,212.897z"/>
<ellipse fill="#FFFFFF" cx="478.846" cy="194.542" rx="1.718" ry="2.552"/>
<path opacity="0.65" fill="#FFFFFF" d="M467.018,232.335c0,0,2.825,2.931,7.347,0C474.364,232.335,470.596,239.846,467.018,232.335z
	"/>
<circle fill="#FFFFFF" cx="382.715" cy="213.447" r="30.613"/>
<path d="M405.336,213.216c0,14.126-6.58,25.578-14.694,25.578s-15.824-11.451-15.824-25.578s7.71-24.479,15.824-24.479
	S405.336,199.09,405.336,213.216z"/>
<path opacity="0.65" fill="#FFFFFF" d="M386.686,232.655c0,0,2.825,2.93,7.346,0C394.031,232.655,390.265,240.165,386.686,232.655z"
	/>
<ellipse fill="#FFFFFF" cx="398.483" cy="195.491" rx="1.718" ry="2.551"/>
</svg>
