<?xml version="1.0" encoding="utf-8"?>
<!-- Generator: Adobe Illustrator 16.0.0, SVG Export Plug-In . SVG Version: 6.00 Build 0)  -->
<!DOCTYPE svg PUBLIC "-//W3C//DTD SVG 1.1//EN" "http://www.w3.org/Graphics/SVG/1.1/DTD/svg11.dtd">
<svg version="1.1" id="Layer_1" xmlns="http://www.w3.org/2000/svg" xmlns:xlink="http://www.w3.org/1999/xlink" x="0px" y="0px"
	 width="841.891px" height="595.28px" viewBox="0 0 841.891 595.28" enable-background="new 0 0 841.891 595.28"
	 xml:space="preserve">
<path fill="#FDBD56" d="M505.16,417.521c-3.941,2.616-45.07,17.816-90.535,16.279c-45.465-1.534-94.281-23.049-95.696-31.767
	c-3.019-18.582,8.658-204.161,19.129-230.024c7.289-18.008,48.284-68.103,103.312-59.317c0,0,72.129,20.993,76.041,88.679
	C521.318,268.988,513.09,412.257,505.16,417.521z"/>
<g>
	<g>
		<path fill="#FDBD56" d="M505.146,251.473c6.928,17.677,15.877,34.704,25.311,51.145c19.691,34.318,43.8,66.803,73.646,92.966
			c3.208,2.811,7.927-1.868,4.699-4.698c-29.497-25.856-53.068-57.771-72.609-91.622c-9.14-15.834-18.088-32.838-24.641-49.558
			C510.008,245.764,503.581,247.479,505.146,251.473L505.146,251.473z"/>
	</g>
</g>
<g>
	<g>
		<path fill="#FDBD56" d="M389.365,412.854c-4.014,18.802-8.027,37.604-12.04,56.406c-1.583,7.416-3.166,14.832-4.749,22.248
			c-0.066,0.309,0.813-1.099,0.196-0.445c-0.419,0.445-1.328,0.841-2.548,1.093c-7.162,1.484-16.11-4.966-21.598-8.527
			c-3.605-2.341-6.933,3.414-3.354,5.737c7.02,4.557,24.817,15.732,32.579,5.958c1.138-1.433,1.316-2.92,1.692-4.681
			c0.973-4.559,1.946-9.118,2.919-13.677c4.437-20.782,8.872-41.564,13.308-62.346C396.664,410.442,390.259,408.665,389.365,412.854
			L389.365,412.854z"/>
	</g>
</g>
<g>
	<g>
		<path fill="#FDBD56" d="M437.284,411.982c0,21.25,0,42.5,0,63.751c0,4.522,0,9.046,0,13.57c0,1.904-0.189,3.646,0.603,5.41
			c5.114,11.406,25.519,4.025,33.026,1.152c3.96-1.516,2.242-7.94-1.766-6.407c-6.772,2.592-15.254,5.996-22.626,4.004
			c-1.028-0.278-2.466-1.372-2.48-1.392c-0.823-1.114-0.112,0.005-0.112,0.447c0-7.619,0-15.239,0-22.858
			c0-19.226,0-38.452,0-57.677C443.929,407.697,437.284,407.697,437.284,411.982L437.284,411.982z"/>
	</g>
</g>
<g>
	<path fill="#E1A046" d="M354.355,200.997c2.162-1.558,4.463-2.888,6.809-4.174c2.361-1.251,4.812-2.363,7.371-3.267
		c1.279-0.455,2.567-0.927,3.9-1.314c1.334-0.38,2.732-0.581,4.153-0.556c1.418,0.033,2.861,0.229,4.238,0.707
		c1.37,0.46,2.696,1.187,3.662,2.272l-0.168,0.341c-1.397-0.079-2.642-0.056-3.872,0.03c-1.229,0.104-2.43,0.258-3.636,0.439
		c-1.206,0.184-2.42,0.342-3.67,0.458c-1.249,0.109-2.519,0.265-3.768,0.542c-2.496,0.557-4.99,1.275-7.466,2.093
		c-2.488,0.792-4.936,1.746-7.365,2.759L354.355,200.997z"/>
</g>
<g>
	<g>
		<path fill="#FFFFFF" d="M454.11,319.646c0.385,0.416,0.76,0.841,1.13,1.27c0.261,0.303,0.539,0.63,0.771,0.934
			c0.109,0.144,0.215,0.292,0.314,0.443c0.047,0.071,0.088,0.143,0.129,0.216c0.094,0.17-0.053-0.225-0.055-0.258
			c0.048,1.282,2.041,1.287,1.994,0c-0.033-0.884-0.864-1.69-1.392-2.326c-0.478-0.576-0.975-1.138-1.482-1.688
			C454.646,317.291,453.24,318.704,454.11,319.646L454.11,319.646z"/>
	</g>
</g>
<g>
	<g>
		<path fill="#FFFFFF" d="M370.465,314.597c0.416-0.384,0.84-0.759,1.269-1.129c0.303-0.262,0.629-0.54,0.934-0.773
			c0.144-0.11,0.292-0.215,0.442-0.314c0.07-0.047,0.143-0.089,0.217-0.13c0.17-0.093-0.225,0.054-0.258,0.055
			c1.281-0.05,1.286-2.044,0-1.994c-0.886,0.035-1.689,0.865-2.326,1.393c-0.576,0.479-1.138,0.976-1.688,1.483
			C368.109,314.062,369.522,315.468,370.465,314.597L370.465,314.597z"/>
	</g>
</g>
<g>
	<path fill="#E1A046" d="M494.887,214.03c-2.229-1.4-4.485-2.747-6.81-3.938c-2.306-1.215-4.646-2.336-7.017-3.297
		c-1.187-0.479-2.412-0.842-3.627-1.158c-1.213-0.321-2.385-0.677-3.544-1.057c-1.16-0.378-2.318-0.73-3.514-1.035
		c-1.199-0.287-2.422-0.516-3.813-0.671l-0.109-0.362c1.132-0.911,2.56-1.407,3.986-1.635c1.438-0.244,2.894-0.199,4.298,0.003
		c1.405,0.211,2.751,0.639,4.004,1.234c1.251,0.602,2.444,1.282,3.63,1.94c2.375,1.314,4.608,2.817,6.731,4.44
		c2.101,1.656,4.149,3.35,6.024,5.242L494.887,214.03z"/>
</g>
<g>
	<path fill="#594A42" d="M426.109,99.698c-0.002-0.798,0.145-1.621,0.491-2.392c0.354-0.766,0.94-1.46,1.688-1.948
		c1.51-0.994,3.521-1.066,5.238-0.384c1.729,0.671,3.201,2.329,3.564,4.306c0.397,1.978-0.211,3.88-0.998,5.455
		c-0.114,0.215-0.182,0.358-0.342,0.625c-0.108,0.176-0.183,0.319-0.357,0.556c-0.313,0.452-0.603,0.772-0.934,1.127
		c-0.66,0.673-1.392,1.211-2.117,1.694c-1.461,0.949-2.934,1.658-4.304,2.387c-1.366,0.728-2.67,1.419-3.719,2.28
		c-0.523,0.427-0.982,0.886-1.364,1.382c-0.16,0.203-0.453,0.62-0.65,0.901c-0.2,0.298-0.402,0.592-0.598,0.91
		c-1.598,2.464-2.751,5.182-2.791,7.847c-0.036,1.331,0.241,2.634,0.806,3.846c0.575,1.204,1.422,2.321,2.452,3.311
		c2.095,1.958,4.844,3.388,7.75,4.375c2.912,1.031,6.021,1.59,9.195,1.95c-3.165,0.484-6.435,0.428-9.666-0.145
		c-3.209-0.623-6.449-1.757-9.206-3.928c-1.375-1.072-2.619-2.422-3.487-4.049c-0.877-1.615-1.384-3.472-1.438-5.317
		c-0.062-1.851,0.311-3.652,0.881-5.316c0.599-1.658,1.396-3.201,2.313-4.627c0.228-0.353,0.479-0.709,0.73-1.064
		c0.267-0.362,0.43-0.594,0.763-1.014c0.601-0.75,1.288-1.401,2.005-1.963c1.444-1.113,2.965-1.913,4.438-2.591
		c2.935-1.348,5.751-2.43,7.065-4.619c0.745-1.169,1.199-2.451,1.122-3.648c-0.054-1.195-0.769-2.33-1.919-2.999
		c-1.125-0.695-2.636-0.893-3.938-0.365C427.453,96.783,426.498,98.15,426.109,99.698z"/>
</g>
<g>
	<g>
		<path fill="#FFFFFF" d="M453.203,318.925c-2.17,20.982-22.942,32.29-42.461,30.968c-19.651-1.331-37.802-17.226-36.508-37.772
			c0.115-1.834-2.732-1.823-2.848,0c-1.426,22.629,18.299,38.543,39.355,40.619c21.188,2.09,43.031-11.799,45.309-33.815
			C456.239,317.099,453.391,317.117,453.203,318.925L453.203,318.925z"/>
	</g>
</g>
<g>
	<path fill="#E1A046" d="M461.341,323.141c2.216-1.779,2.362-5.269,0.328-7.802s-5.475-3.141-7.69-1.362
		C453.979,313.977,461.758,316.816,461.341,323.141z"/>
</g>
<g>
	<path fill="#E1A046" d="M364.963,315.008c-1.789-2.208-1.195-5.65,1.328-7.697c2.523-2.044,6.014-1.913,7.805,0.294
		C374.096,307.605,365.893,308.738,364.963,315.008z"/>
</g>
<g>
	<g>
		<path fill="#FDBD56" d="M326.555,259.533c-3.599,19.424-9.252,38.692-16.213,57.156c-5.439,14.43-12.105,28.649-21.239,41.137
			c-7.311,9.995-17.685,19.754-30.593,20.938c-3.247,0.297-6.484-0.017-9.655-0.732c-4.173-0.941-5.945,5.464-1.766,6.406
			c29.352,6.623,49.014-21.566,60.349-44.375c11.541-23.222,19.13-48.626,24.544-73.933c0.344-1.605,0.681-3.216,0.979-4.831
			C333.737,257.112,327.334,255.324,326.555,259.533L326.555,259.533z"/>
	</g>
</g>
<circle fill="#FFFFFF" cx="468.803" cy="247.472" r="30.613"/>
<path d="M477.439,248.185c-1.17,14.077-8.675,24.944-16.762,24.272c-8.088-0.673-14.822-12.724-13.651-26.802
	c1.171-14.077,9.712-23.754,17.8-23.083C472.913,223.245,478.61,234.107,477.439,248.185z"/>
<ellipse transform="matrix(0.9966 0.0827 -0.0827 0.9966 20.5808 -38.2591)" fill="#FFFFFF" cx="472.164" cy="229.328" rx="1.718" ry="2.552"/>
<path opacity="0.65" fill="#FFFFFF" d="M457.244,266.011c0,0,2.572,3.154,7.321,0.609
	C464.565,266.62,460.188,273.791,457.244,266.011z"/>
<circle fill="#FFFFFF" cx="374.796" cy="240.2" r="30.614"/>
<path d="M397.358,241.845c-1.171,14.078-8.677,24.944-16.763,24.272c-8.087-0.673-14.821-12.724-13.65-26.802
	c1.17-14.077,9.712-23.755,17.798-23.083C392.83,216.906,398.529,227.768,397.358,241.845z"/>
<path opacity="0.65" fill="#FFFFFF" d="M377.161,259.671c0,0,2.573,3.155,7.321,0.608
	C384.482,260.279,380.105,267.452,377.161,259.671z"/>
<ellipse transform="matrix(0.9965 0.0833 -0.0833 0.9965 19.9844 -31.8691)" fill="#FFFFFF" cx="391.999" cy="223.613" rx="1.718" ry="2.552"/>
</svg>
