<?xml version="1.0" encoding="utf-8"?>
<!-- Generator: Adobe Illustrator 16.0.0, SVG Export Plug-In . SVG Version: 6.00 Build 0)  -->
<!DOCTYPE svg PUBLIC "-//W3C//DTD SVG 1.1//EN" "http://www.w3.org/Graphics/SVG/1.1/DTD/svg11.dtd">
<svg version="1.1" id="Layer_1" xmlns="http://www.w3.org/2000/svg" xmlns:xlink="http://www.w3.org/1999/xlink" x="0px" y="0px"
	 width="841.891px" height="595.28px" viewBox="0 0 841.891 595.28" enable-background="new 0 0 841.891 595.28"
	 xml:space="preserve">
<path fill="#FDBD56" d="M481.165,401.354c-4.4,1.736-47.794,8.031-91.94-2.945c-44.146-10.976-87.407-42.194-86.975-51.015
	c0.92-18.803,51.018-197.872,66.648-220.987c10.882-16.092,61.417-56.545,113.404-36.483c0,0,66.17,35.565,55.891,102.579
	C527.924,259.45,490.018,397.858,481.165,401.354z"/>
<g>
	<g>
		<path fill="#FDBD56" d="M508.463,268.77c4.053,20.342,11.809,40.35,20.729,58.986c16.972,35.461,42.783,68.404,78.901,85.644
			c3.846,1.835,7.219-3.892,3.354-5.738c-35.628-17.005-60.266-49.302-76.972-84.208c-8.516-17.793-15.737-37.037-19.605-56.451
			C514.033,262.803,507.629,264.586,508.463,268.77L508.463,268.77z"/>
	</g>
</g>
<g>
	<g>
		<path fill="#FDBD56" d="M353.528,362.938c-4.014,18.803-8.027,37.605-12.04,56.407c-1.583,7.416-3.166,14.831-4.749,22.247
			c-0.065,0.309,0.813-1.099,0.196-0.444c-0.419,0.446-1.328,0.84-2.548,1.093c-7.161,1.483-16.11-4.966-21.598-8.528
			c-3.605-2.341-6.933,3.414-3.354,5.737c7.02,4.558,24.817,15.732,32.579,5.959c1.138-1.434,1.316-2.92,1.691-4.681
			c0.974-4.559,1.947-9.118,2.92-13.678c4.436-20.781,8.872-41.564,13.308-62.346C360.827,360.527,354.422,358.75,353.528,362.938
			L353.528,362.938z"/>
	</g>
</g>
<g>
	<g>
		<path fill="#FDBD56" d="M447.065,381.096c0,21.25,0,42.5,0,63.75c0,4.523,0,9.046,0,13.57c0,1.904-0.188,3.646,0.603,5.41
			c5.113,11.406,25.519,4.025,33.026,1.152c3.96-1.515,2.242-7.94-1.766-6.406c-6.772,2.591-15.254,5.995-22.626,4.004
			c-1.028-0.278-2.466-1.373-2.48-1.392c-0.823-1.113-0.112,0.004-0.112,0.447c0-7.619,0-15.239,0-22.858
			c0-19.226,0-38.451,0-57.677C453.71,376.811,447.065,376.811,447.065,381.096L447.065,381.096z"/>
	</g>
</g>
<g>
	<path fill="#E1A046" d="M378.797,158.155c2.439-1.073,4.967-1.895,7.529-2.665c2.57-0.73,5.198-1.308,7.891-1.659
		c1.345-0.177,2.703-0.372,4.088-0.472c1.385-0.094,2.793,0.002,4.178,0.322c1.381,0.327,2.752,0.818,3.999,1.574
		c1.244,0.736,2.39,1.722,3.108,2.985l-0.236,0.297c-1.351-0.367-2.571-0.603-3.793-0.775c-1.223-0.155-2.43-0.253-3.648-0.327
		c-1.217-0.071-2.438-0.17-3.684-0.317c-1.245-0.154-2.52-0.266-3.798-0.255c-2.558,0.023-5.147,0.207-7.738,0.492
		c-2.599,0.255-5.19,0.679-7.778,1.162L378.797,158.155z"/>
</g>
<g>
	<g>
		<path fill="#FFFFFF" d="M451.61,294.948c0.296,0.499,0.581,1.005,0.859,1.514c0.217,0.398,0.426,0.8,0.622,1.208
			c0.064,0.134,0.104,0.219,0.147,0.33c0.118,0.301,0.016,0.526,0.106-0.044c-0.199,1.257,1.721,1.796,1.922,0.53
			c0.146-0.921-0.445-1.835-0.857-2.62c-0.342-0.651-0.704-1.291-1.079-1.923C452.677,292.838,450.953,293.84,451.61,294.948
			L451.61,294.948z"/>
	</g>
</g>
<g>
	<g>
		<path fill="#FFFFFF" d="M370.837,272.642c0.499-0.296,1.005-0.582,1.514-0.86c0.397-0.218,0.8-0.427,1.208-0.623
			c0.134-0.065,0.219-0.104,0.329-0.147c0.301-0.118,0.526-0.017-0.043-0.107c1.257,0.198,1.796-1.722,0.529-1.922
			c-0.921-0.146-1.835,0.446-2.621,0.858c-0.65,0.342-1.29,0.705-1.922,1.08C368.727,271.576,369.729,273.3,370.837,272.642
			L370.837,272.642z"/>
	</g>
</g>
<g>
	<path fill="#E1A046" d="M504.668,183.145c-2.229-1.4-4.485-2.746-6.81-3.938c-2.306-1.215-4.646-2.336-7.017-3.298
		c-1.187-0.479-2.412-0.842-3.627-1.157c-1.213-0.321-2.385-0.676-3.544-1.056c-1.16-0.378-2.318-0.73-3.514-1.035
		c-1.199-0.287-2.422-0.517-3.813-0.669l-0.109-0.364c1.132-0.91,2.56-1.408,3.986-1.636c1.438-0.243,2.894-0.198,4.298,0.004
		c1.405,0.21,2.751,0.639,4.004,1.234c1.251,0.603,2.444,1.282,3.63,1.94c2.375,1.316,4.608,2.815,6.731,4.441
		c2.101,1.655,4.149,3.347,6.024,5.242L504.668,183.145z"/>
</g>
<g>
	<path fill="#594A42" d="M470.087,74.034c0.165-0.781,0.479-1.555,0.979-2.237c0.507-0.676,1.224-1.232,2.058-1.554
		c1.684-0.657,3.665-0.309,5.203,0.715c1.551,1.016,2.646,2.946,2.589,4.955c-0.022,2.017-1.015,3.751-2.112,5.128
		c-0.156,0.186-0.252,0.312-0.465,0.539c-0.143,0.148-0.244,0.274-0.465,0.471c-0.399,0.377-0.75,0.629-1.148,0.907
		c-0.785,0.519-1.613,0.895-2.424,1.214c-1.626,0.624-3.214,1.011-4.706,1.438c-1.487,0.426-2.907,0.831-4.112,1.454
		c-0.601,0.308-1.146,0.663-1.622,1.068c-0.199,0.167-0.573,0.512-0.824,0.747c-0.258,0.25-0.517,0.495-0.774,0.765
		c-2.076,2.078-3.771,4.493-4.365,7.093c-0.313,1.292-0.313,2.625-0.014,3.928c0.312,1.299,0.906,2.566,1.708,3.75
		c1.641,2.353,4.031,4.324,6.668,5.894c2.634,1.615,5.557,2.811,8.587,3.824c-3.196-0.186-6.383-0.923-9.424-2.158
		c-3.008-1.276-5.941-3.06-8.185-5.758c-1.121-1.335-2.057-2.916-2.567-4.687c-0.521-1.762-0.63-3.685-0.298-5.5
		c0.325-1.823,1.064-3.506,1.97-5.016c0.931-1.497,2.031-2.84,3.227-4.043c0.297-0.298,0.617-0.594,0.938-0.889
		c0.335-0.299,0.544-0.492,0.956-0.832c0.743-0.608,1.552-1.103,2.37-1.502c1.645-0.788,3.299-1.253,4.881-1.61
		c3.151-0.707,6.131-1.179,7.873-3.045c0.972-0.987,1.684-2.147,1.857-3.335c0.196-1.179-0.267-2.438-1.252-3.333
		c-0.956-0.913-2.392-1.42-3.776-1.177C472.009,71.463,470.789,72.601,470.087,74.034z"/>
</g>
<g>
	<g>
		<path fill="#FFFFFF" d="M450.916,294.012c-6.514,20.065-29.037,26.906-47.92,21.54c-18.914-5.375-33.479-24.644-27.936-44.49
			c0.495-1.772-2.253-2.522-2.746-0.756c-5.936,21.248,8.952,40.62,28.489,47.534c20.504,7.256,45.841-1.458,52.858-23.071
			C454.23,293.018,451.48,292.274,450.916,294.012L450.916,294.012z"/>
	</g>
</g>
<g>
	<path fill="#E1A046" d="M457.978,299.912c2.538-1.279,3.408-4.661,1.946-7.562c-1.462-2.899-4.699-4.212-7.237-2.935
		C452.687,289.416,459.703,293.814,457.978,299.912z"/>
</g>
<g>
	<path fill="#E1A046" d="M365.41,271.872c-1.289-2.532,0.009-5.774,2.903-7.251c2.894-1.472,6.28-0.616,7.572,1.914
		C375.886,266.535,367.627,265.934,365.41,271.872z"/>
</g>
<g>
	<g>
		<path fill="#FDBD56" d="M337.862,226.661c-40.981,27.119-104.097,42.802-141.692,2.367c-2.923-3.144-7.61,1.565-4.697,4.698
			c12.162,13.082,27.689,21.854,45.26,25.173c16.222,3.064,33.004,1.355,48.923-2.549c19.309-4.737,38.921-12.941,55.561-23.953
			C344.771,230.046,341.447,224.289,337.862,226.661L337.862,226.661z"/>
	</g>
</g>
<circle fill="#FFFFFF" cx="481.045" cy="227.461" r="30.613"/>
<path d="M489.344,229.957c-4.078,13.525-13.684,22.59-21.452,20.247c-7.771-2.343-11.845-15.534-7.767-29.058
	c4.08-13.524,14.45-21.21,22.221-18.866C490.114,204.623,493.423,216.434,489.344,229.957z"/>
<ellipse transform="matrix(0.9966 0.0827 -0.0827 0.9966 18.0603 -39.1737)" fill="#FFFFFF" cx="481.945" cy="198.441" rx="1.718" ry="2.552"/>
<path opacity="0.65" fill="#FFFFFF" d="M465.877,243.184c0,0,1.858,3.621,7.033,2.122
	C472.91,245.306,467.135,251.407,465.877,243.184z"/>
<circle fill="#FFFFFF" cx="390.619" cy="200.757" r="30.614"/>
<path d="M412.343,207.067c-4.079,13.525-13.685,22.589-21.453,20.245c-7.77-2.343-11.845-15.532-7.765-29.056
	c4.078-13.526,14.449-21.21,22.217-18.867C413.111,181.733,416.422,193.542,412.343,207.067z"/>
<path opacity="0.65" fill="#FFFFFF" d="M388.873,220.293c0,0,1.859,3.622,7.034,2.122
	C395.907,222.415,390.132,228.518,388.873,220.293z"/>
<ellipse transform="matrix(0.9574 0.2888 -0.2888 0.9574 71.84 -110.655)" fill="#FFFFFF" cx="410.9" cy="188.119" rx="1.718" ry="2.552"/>
</svg>
