<?xml version="1.0" encoding="utf-8"?>
<!-- Generator: Adobe Illustrator 16.0.0, SVG Export Plug-In . SVG Version: 6.00 Build 0)  -->
<!DOCTYPE svg PUBLIC "-//W3C//DTD SVG 1.1//EN" "http://www.w3.org/Graphics/SVG/1.1/DTD/svg11.dtd">
<svg version="1.1" id="Layer_1" xmlns="http://www.w3.org/2000/svg" xmlns:xlink="http://www.w3.org/1999/xlink" x="0px" y="0px"
	 width="841.891px" height="595.28px" viewBox="0 0 841.891 595.28" enable-background="new 0 0 841.891 595.28"
	 xml:space="preserve">
<path fill="#FDBD56" d="M527.325,379.354c-3.711,2.935-43.438,21.491-88.874,23.728c-45.436,2.238-95.867-15.157-98-23.728
	c-4.548-18.268-8.291-204.175,0-230.818c5.771-18.549,42.475-71.871,98.041-67.674c0,0,73.62,14.943,83.128,82.07
	C531.118,229.994,534.792,373.451,527.325,379.354z"/>
<g>
	<g>
		<path fill="#FDBD56" d="M515.781,222.053c14.907,11.758,27.395,27.541,37.119,43.694c9.268,15.394,15.719,32.347,18.449,50.128
			c3.353,21.834-0.428,44.044-8.77,64.337c-1.63,3.963,4.801,5.672,6.406,1.766c15.99-38.898,11.825-80.619-8.768-116.881
			c-10.035-17.67-23.673-35.069-39.738-47.743C517.155,214.733,512.419,219.401,515.781,222.053L515.781,222.053z"/>
	</g>
</g>
<g>
	<g>
		<path fill="#FDBD56" d="M401.467,381.096c0,19.226,0,38.451,0,57.677c0,7.583,0,15.165,0,22.748c0,0.366,0.696-1.649,0.023-0.54
			c-0.084,0.14-1.056,1.035-2.055,1.414c-7.146,2.715-16.619-1.309-23.188-3.822c-4.008-1.534-5.726,4.891-1.766,6.406
			c7.935,3.038,27.441,10.099,33.028-1.152c0.793-1.599,0.602-3.257,0.602-4.995c0-4.662,0-9.323,0-13.985c0-21.25,0-42.501,0-63.75
			C408.111,376.811,401.467,376.811,401.467,381.096L401.467,381.096z"/>
	</g>
</g>
<g>
	<g>
		<path fill="#FDBD56" d="M472.489,381.096c0,19.226,0,38.451,0,57.677c0,7.583,0,15.165,0,22.748c0,0.367,0.696-1.649,0.023-0.54
			c-0.084,0.14-1.056,1.035-2.054,1.414c-7.146,2.715-16.619-1.309-23.188-3.822c-4.008-1.534-5.726,4.891-1.766,6.406
			c7.935,3.038,27.441,10.099,33.026-1.152c0.794-1.599,0.603-3.257,0.603-4.995c0-4.662,0-9.323,0-13.985c0-21.25,0-42.501,0-63.75
			C479.134,376.811,472.489,376.811,472.489,381.096L472.489,381.096z"/>
	</g>
</g>
<ellipse fill="#FFFFFF" cx="477" cy="220.827" rx="30.613" ry="22.827"/>
<path d="M485.667,220.823c0,10.533-6.578,19.072-14.693,19.072s-15.825-8.539-15.825-19.072c0-10.534,7.71-18.254,15.825-18.254
	S485.667,210.289,485.667,220.823z"/>
<ellipse fill="#FFFFFF" cx="478.846" cy="207.135" rx="1.718" ry="1.903"/>
<path opacity="0.65" fill="#FFFFFF" d="M467.018,235.317c0,0,2.825,2.186,7.347,0C474.364,235.317,470.596,240.917,467.018,235.317z
	"/>
<ellipse fill="#FFFFFF" cx="382.715" cy="221.232" rx="30.613" ry="22.827"/>
<path d="M405.336,221.06c0,10.534-6.58,19.073-14.694,19.073s-15.824-8.539-15.824-19.073s7.71-18.253,15.824-18.253
	S405.336,210.526,405.336,221.06z"/>
<path opacity="0.65" fill="#FFFFFF" d="M386.686,235.555c0,0,2.825,2.186,7.346,0C394.031,235.555,390.265,241.155,386.686,235.555z
	"/>
<g>
	<path fill="#E1A046" d="M359.096,176.072c2.025-1.73,4.208-3.248,6.439-4.724c2.25-1.442,4.6-2.753,7.074-3.867
		c1.237-0.558,2.482-1.135,3.779-1.633c1.297-0.489,2.674-0.805,4.092-0.898c1.416-0.084,2.871-0.009,4.283,0.353
		c1.403,0.345,2.785,0.958,3.838,1.96l-0.141,0.354c-1.398,0.038-2.636,0.165-3.855,0.352c-1.216,0.205-2.4,0.459-3.587,0.739
		c-1.187,0.284-2.384,0.541-3.618,0.761c-1.237,0.213-2.489,0.474-3.711,0.852c-2.441,0.761-4.867,1.685-7.266,2.705
		c-2.415,0.995-4.774,2.15-7.112,3.36L359.096,176.072z"/>
</g>
<g>
	<g>
		<path fill="#FFFFFF" d="M468.279,285.99c0.438,0.401,0.865,0.812,1.288,1.229c0.325,0.321,0.646,0.649,0.952,0.988
			c0.115,0.128,0.227,0.259,0.334,0.394c-0.133-0.166,0.008,0.023,0.028,0.055c0.095,0.147-0.043-0.258-0.046-0.285
			c0.062,0.54,0.406,0.997,0.996,0.997c0.496,0,1.059-0.456,0.996-0.997c-0.106-0.932-0.954-1.653-1.579-2.288
			c-0.506-0.514-1.028-1.013-1.56-1.501C468.744,283.712,467.331,285.119,468.279,285.99L468.279,285.99z"/>
	</g>
</g>
<g>
	<g>
		<path fill="#FFFFFF" d="M384.508,288.007c0.4-0.438,0.811-0.866,1.228-1.289c0.321-0.326,0.649-0.645,0.988-0.953
			c0.127-0.116,0.259-0.226,0.393-0.334c-0.165,0.132,0.023-0.008,0.054-0.027c0.147-0.095-0.257,0.042-0.284,0.045
			c0.54-0.062,0.997-0.406,0.997-0.997c0-0.496-0.456-1.059-0.997-0.997c-0.933,0.107-1.653,0.955-2.288,1.581
			c-0.514,0.506-1.013,1.029-1.5,1.562C382.231,287.543,383.638,288.957,384.508,288.007L384.508,288.007z"/>
	</g>
</g>
<g>
	<path fill="#E1A046" d="M500.223,177.415c-2.338-1.211-4.697-2.366-7.111-3.36c-2.398-1.02-4.824-1.944-7.266-2.705
		c-1.223-0.379-2.475-0.64-3.711-0.852c-1.236-0.22-2.432-0.477-3.619-0.76c-1.188-0.281-2.371-0.535-3.587-0.74
		c-1.22-0.187-2.456-0.314-3.856-0.352l-0.139-0.354c1.053-1.001,2.434-1.614,3.838-1.96c1.412-0.362,2.865-0.437,4.283-0.352
		c1.416,0.093,2.793,0.41,4.092,0.898c1.297,0.496,2.541,1.075,3.777,1.633c2.477,1.113,4.826,2.424,7.076,3.866
		c2.23,1.476,4.414,2.994,6.439,4.725L500.223,177.415z"/>
</g>
<g>
	<path fill="#594A42" d="M422.207,69.175c-0.068-0.794,0.01-1.626,0.291-2.424c0.289-0.793,0.816-1.532,1.521-2.081
		c1.423-1.115,3.42-1.353,5.188-0.818c1.779,0.525,3.385,2.056,3.91,3.996c0.561,1.938,0.111,3.883-0.541,5.519
		c-0.097,0.223-0.152,0.372-0.289,0.651c-0.094,0.183-0.156,0.333-0.311,0.584c-0.273,0.476-0.537,0.818-0.838,1.201
		c-0.602,0.724-1.285,1.322-1.969,1.862c-1.377,1.067-2.785,1.896-4.091,2.738c-1.302,0.837-2.544,1.634-3.518,2.578
		c-0.485,0.469-0.905,0.965-1.245,1.491c-0.143,0.215-0.4,0.654-0.574,0.952c-0.174,0.313-0.351,0.623-0.52,0.957
		c-1.387,2.588-2.313,5.39-2.131,8.051c0.074,1.327,0.459,2.604,1.121,3.765c0.674,1.152,1.609,2.196,2.719,3.097
		c2.25,1.777,5.107,2.975,8.086,3.717c2.988,0.786,6.131,1.087,9.325,1.182c-3.114,0.744-6.378,0.959-9.646,0.655
		c-3.248-0.354-6.572-1.215-9.5-3.15c-1.459-0.954-2.811-2.197-3.811-3.746c-1.008-1.537-1.666-3.346-1.873-5.181
		c-0.216-1.837,0.006-3.663,0.436-5.37c0.46-1.702,1.127-3.304,1.924-4.802c0.197-0.371,0.418-0.747,0.639-1.122
		c0.236-0.383,0.38-0.628,0.676-1.073c0.537-0.798,1.168-1.503,1.836-2.124c1.348-1.229,2.797-2.152,4.209-2.95
		c2.813-1.586,5.529-2.898,6.658-5.188c0.645-1.226,0.992-2.542,0.816-3.729c-0.154-1.187-0.961-2.258-2.162-2.83
		c-1.18-0.599-2.701-0.67-3.955-0.036C423.305,66.159,422.466,67.601,422.207,69.175z"/>
</g>
<ellipse fill="#FFFFFF" cx="398.483" cy="207.843" rx="1.718" ry="1.902"/>
<g>
	<g>
		<path fill="#FFFFFF" d="M467.371,285.285c-0.423,21.065-19.992,34.192-39.625,34.494c-19.635,0.301-39.212-13.874-39.626-34.494
			c-0.037-1.834-2.885-1.838-2.848,0c0.454,22.632,21.258,37.015,42.474,37.341c21.218,0.326,42.027-15.188,42.473-37.341
			C470.256,283.447,467.408,283.451,467.371,285.285L467.371,285.285z"/>
	</g>
</g>
<g>
	<path fill="#E1A046" d="M475.835,288.93c2.062-1.958,1.918-5.446-0.319-7.802c-2.237-2.354-5.716-2.676-7.776-0.719
		C467.739,280.408,475.727,282.593,475.835,288.93z"/>
</g>
<g>
	<path fill="#E1A046" d="M379.115,288.811c-1.967-2.05-1.66-5.53,0.686-7.778c2.346-2.247,5.834-2.406,7.802-0.354
		C387.603,280.678,379.521,282.487,379.115,288.811z"/>
</g>
<g>
	<g>
		<path fill="#FDBD56" d="M336.67,227.853c-12.445,17.123-25.913,33.605-40.035,49.366c-10.385,11.589-21.292,22.925-33.527,32.584
			c-5.774,4.559-17.687,14.255-25.857,10.806c-0.988-0.417-1.807-1.013-2.564-1.756c-3.061-3-7.762,1.695-4.699,4.698
			c7.231,7.09,17.523,3.728,25.309-0.505c12.314-6.693,22.861-16.98,32.641-26.856c18.896-19.082,35.93-40.131,51.992-61.63
			c0.832-1.114,1.662-2.229,2.48-3.354C344.932,227.734,339.163,224.424,336.67,227.853L336.67,227.853z"/>
	</g>
</g>
</svg>
