<?xml version="1.0" encoding="utf-8"?>
<!-- Generator: Adobe Illustrator 16.0.0, SVG Export Plug-In . SVG Version: 6.00 Build 0)  -->
<!DOCTYPE svg PUBLIC "-//W3C//DTD SVG 1.1//EN" "http://www.w3.org/Graphics/SVG/1.1/DTD/svg11.dtd">
<svg version="1.1" id="Layer_1" xmlns="http://www.w3.org/2000/svg" xmlns:xlink="http://www.w3.org/1999/xlink" x="0px" y="0px"
	 width="841.89px" height="595.28px" viewBox="0 0 841.89 595.28" enable-background="new 0 0 841.89 595.28" xml:space="preserve">
<path fill="#FDBD56" d="M527.325,379.354c-3.711,2.934-43.438,21.491-88.874,23.728c-45.436,2.238-95.867-15.157-98-23.728
	c-4.548-18.268-8.291-204.176,0-230.818c5.771-18.549,42.474-71.87,98.041-67.675c0,0,73.62,14.943,83.128,82.071
	C531.118,229.993,534.792,373.45,527.325,379.354z"/>
<g>
	<g>
		<path fill="#FDBD56" d="M515.782,222.053c14.907,11.759,27.394,27.541,37.119,43.695c9.267,15.394,15.719,32.347,18.449,50.128
			c3.352,21.833-0.428,44.044-8.77,64.337c-1.629,3.964,4.801,5.672,6.407,1.766c15.989-38.898,11.824-80.62-8.768-116.881
			c-10.035-17.671-23.674-35.069-39.739-47.742C517.155,214.732,512.419,219.401,515.782,222.053L515.782,222.053z"/>
	</g>
</g>
<g>
	<g>
		<path fill="#FDBD56" d="M401.467,381.096c0,19.226,0,38.451,0,57.677c0,7.583,0,15.166,0,22.748c0,0.367,0.696-1.648,0.023-0.539
			c-0.084,0.138-1.056,1.033-2.054,1.413c-7.147,2.716-16.62-1.309-23.188-3.822c-4.009-1.535-5.726,4.892-1.767,6.406
			c7.935,3.037,27.442,10.099,33.028-1.153c0.793-1.597,0.602-3.256,0.602-4.994c0-4.662,0-9.324,0-13.986c0-21.25,0-42.5,0-63.75
			C408.111,376.811,401.467,376.811,401.467,381.096L401.467,381.096z"/>
	</g>
</g>
<g>
	<g>
		<path fill="#FDBD56" d="M472.489,381.096c0,19.226,0,38.451,0,57.677c0,7.583,0,15.166,0,22.748c0,0.367,0.696-1.648,0.023-0.539
			c-0.084,0.138-1.056,1.033-2.054,1.413c-7.146,2.716-16.62-1.309-23.188-3.822c-4.009-1.535-5.726,4.892-1.767,6.406
			c7.935,3.037,27.442,10.1,33.027-1.153c0.793-1.597,0.602-3.256,0.602-4.994c0-4.662,0-9.324,0-13.986c0-21.25,0-42.5,0-63.75
			C479.134,376.811,472.489,376.811,472.489,381.096L472.489,381.096z"/>
	</g>
</g>
<g>
	<path fill="#E1A046" d="M359.096,176.073c2.025-1.731,4.208-3.249,6.438-4.725c2.25-1.442,4.6-2.753,7.076-3.867
		c1.237-0.558,2.481-1.136,3.778-1.633c1.298-0.489,2.675-0.804,4.092-0.898c1.417-0.084,2.871-0.009,4.283,0.353
		c1.404,0.346,2.785,0.958,3.838,1.96l-0.14,0.353c-1.399,0.038-2.636,0.165-3.856,0.353c-1.216,0.204-2.399,0.458-3.587,0.739
		c-1.187,0.283-2.383,0.54-3.619,0.761c-1.237,0.212-2.489,0.473-3.71,0.852c-2.441,0.761-4.867,1.685-7.267,2.705
		c-2.414,0.995-4.773,2.149-7.111,3.36L359.096,176.073z"/>
</g>
<g>
	<g>
		<path fill="#FFFFFF" d="M468.28,285.989c0.437,0.401,0.865,0.813,1.288,1.229c0.326,0.321,0.645,0.649,0.953,0.989
			c0.115,0.127,0.227,0.258,0.334,0.393c-0.133-0.166,0.008,0.023,0.028,0.054c0.095,0.147-0.043-0.258-0.046-0.285
			c0.062,0.54,0.406,0.996,0.997,0.996c0.496,0,1.059-0.455,0.997-0.996c-0.107-0.932-0.954-1.653-1.58-2.288
			c-0.506-0.514-1.028-1.013-1.56-1.501C468.744,283.712,467.331,285.119,468.28,285.989L468.28,285.989z"/>
	</g>
</g>
<g>
	<g>
		<path fill="#FFFFFF" d="M384.507,288.007c0.401-0.438,0.812-0.866,1.229-1.289c0.321-0.325,0.649-0.646,0.988-0.953
			c0.127-0.115,0.259-0.226,0.393-0.334c-0.166,0.133,0.023-0.008,0.054-0.028c0.147-0.094-0.258,0.043-0.285,0.046
			c0.54-0.062,0.997-0.406,0.997-0.997c0-0.496-0.456-1.059-0.997-0.996c-0.932,0.106-1.653,0.954-2.288,1.58
			c-0.514,0.507-1.013,1.029-1.5,1.561C382.231,287.544,383.637,288.958,384.507,288.007L384.507,288.007z"/>
	</g>
</g>
<g>
	<path fill="#E1A046" d="M500.223,177.414c-2.338-1.21-4.697-2.365-7.112-3.359c-2.399-1.021-4.825-1.944-7.267-2.705
		c-1.222-0.379-2.474-0.64-3.71-0.852c-1.235-0.219-2.432-0.477-3.619-0.76c-1.187-0.28-2.371-0.536-3.587-0.74
		c-1.22-0.187-2.457-0.314-3.856-0.352l-0.14-0.354c1.053-1,2.434-1.614,3.838-1.96c1.412-0.362,2.867-0.437,4.283-0.352
		c1.418,0.093,2.794,0.41,4.092,0.898c1.297,0.496,2.542,1.075,3.779,1.633c2.476,1.113,4.825,2.424,7.075,3.866
		c2.231,1.476,4.414,2.994,6.439,4.725L500.223,177.414z"/>
</g>
<g>
	<path fill="#594A42" d="M422.207,69.174c-0.068-0.794,0.01-1.626,0.291-2.424c0.29-0.793,0.816-1.532,1.521-2.081
		c1.423-1.116,3.42-1.354,5.188-0.818c1.778,0.525,3.384,2.056,3.91,3.996c0.561,1.937,0.112,3.884-0.541,5.519
		c-0.097,0.224-0.152,0.372-0.29,0.651c-0.094,0.183-0.155,0.334-0.31,0.584c-0.274,0.476-0.537,0.818-0.838,1.201
		c-0.602,0.724-1.286,1.322-1.969,1.863c-1.376,1.067-2.785,1.896-4.091,2.737c-1.301,0.838-2.543,1.635-3.518,2.579
		c-0.486,0.469-0.905,0.965-1.245,1.491c-0.143,0.216-0.401,0.656-0.574,0.953c-0.175,0.313-0.352,0.623-0.52,0.956
		c-1.388,2.589-2.312,5.391-2.131,8.051c0.074,1.328,0.458,2.605,1.121,3.766c0.673,1.152,1.609,2.197,2.718,3.097
		c2.25,1.777,5.108,2.976,8.085,3.717c2.988,0.786,6.132,1.086,9.326,1.181c-3.114,0.745-6.377,0.959-9.645,0.655
		c-3.25-0.354-6.572-1.215-9.5-3.151c-1.459-0.955-2.811-2.196-3.811-3.746c-1.008-1.537-1.667-3.346-1.874-5.179
		c-0.215-1.838,0.007-3.664,0.438-5.371c0.459-1.702,1.125-3.305,1.923-4.802c0.197-0.371,0.419-0.747,0.64-1.122
		c0.235-0.383,0.379-0.628,0.676-1.072c0.536-0.798,1.167-1.504,1.835-2.124c1.348-1.228,2.797-2.152,4.208-2.951
		c2.813-1.586,5.53-2.898,6.659-5.188c0.645-1.227,0.992-2.542,0.815-3.729c-0.153-1.187-0.96-2.258-2.162-2.83
		c-1.178-0.599-2.7-0.67-3.955-0.037C423.305,66.159,422.466,67.602,422.207,69.174z"/>
</g>
<g>
	<g>
		<path fill="#FFFFFF" d="M467.371,285.285c-0.423,21.065-19.993,34.192-39.625,34.493c-19.635,0.302-39.212-13.873-39.626-34.493
			c-0.037-1.834-2.884-1.838-2.848,0c0.455,22.632,21.258,37.015,42.474,37.341c21.217,0.326,42.028-15.188,42.473-37.341
			C470.255,283.447,467.408,283.451,467.371,285.285L467.371,285.285z"/>
	</g>
</g>
<g>
	<path fill="#E1A046" d="M475.835,288.929c2.062-1.958,1.918-5.446-0.319-7.801s-5.716-2.677-7.776-0.72
		C467.739,280.408,475.727,282.593,475.835,288.929z"/>
</g>
<g>
	<path fill="#E1A046" d="M379.116,288.812c-1.967-2.051-1.661-5.531,0.685-7.78c2.346-2.247,5.835-2.405,7.802-0.354
		C387.603,280.678,379.521,282.486,379.116,288.812z"/>
</g>
<g>
	<g>
		<path fill="#FDBD56" d="M333.189,227.181c-15.85,12.502-29.096,29.536-39.215,46.834c-21.197,36.233-25.349,78.726-9.292,117.79
			c1.606,3.907,8.036,2.197,6.407-1.765c-8.229-20.02-11.625-41.241-8.989-62.774c2.201-17.98,9.039-35.245,18.138-50.798
			c9.667-16.524,22.521-32.655,37.649-44.588C341.25,229.227,336.514,224.558,333.189,227.181L333.189,227.181z"/>
	</g>
</g>
<g>
	<g>
		<path fill="#E1A046" d="M394.528,219.806c-0.925,19.064-32.493,19.064-33.418,0c0.057,1.176-0.086,3.316-0.014,4.822
			c0.936,19.28,32.509,19.28,33.445,0C394.615,223.122,394.471,220.982,394.528,219.806L394.528,219.806z"/>
	</g>
</g>
<g>
	<g>
		<path fill="#E1A046" d="M502.376,217.294c-0.925,19.064-32.493,19.064-33.418,0c0.057,1.176-0.086,3.316-0.014,4.821
			c0.936,19.281,32.509,19.281,33.445,0C502.462,220.61,502.319,218.47,502.376,217.294L502.376,217.294z"/>
	</g>
</g>
</svg>
