<?xml version="1.0" encoding="utf-8"?>
<!-- Generator: Adobe Illustrator 16.0.0, SVG Export Plug-In . SVG Version: 6.00 Build 0)  -->
<!DOCTYPE svg PUBLIC "-//W3C//DTD SVG 1.1//EN" "http://www.w3.org/Graphics/SVG/1.1/DTD/svg11.dtd">
<svg version="1.1" id="Layer_1" xmlns="http://www.w3.org/2000/svg" xmlns:xlink="http://www.w3.org/1999/xlink" x="0px" y="0px"
	 width="841.891px" height="595.28px" viewBox="0 0 841.891 595.28" enable-background="new 0 0 841.891 595.28"
	 xml:space="preserve">
<path fill="#FDBD56" d="M527.324,379.354c-3.71,2.935-43.438,21.491-88.873,23.728c-45.436,2.238-95.867-15.157-98-23.728
	c-4.548-18.268-8.291-204.175,0-230.818c5.771-18.549,42.475-71.871,98.041-67.674c0,0,73.62,14.943,83.128,82.07
	C531.118,229.994,534.791,373.451,527.324,379.354z"/>
<g>
	<g>
		<path fill="#FDBD56" d="M515.781,222.053c14.906,11.758,27.395,27.541,37.119,43.694c9.268,15.394,15.719,32.347,18.449,50.128
			c3.353,21.834-0.428,44.044-8.77,64.337c-1.63,3.963,4.801,5.672,6.406,1.766c15.99-38.898,11.824-80.619-8.768-116.881
			c-10.035-17.67-23.674-35.069-39.738-47.743C517.155,214.733,512.419,219.401,515.781,222.053L515.781,222.053z"/>
	</g>
</g>
<g>
	<g>
		<path fill="#FDBD56" d="M401.467,381.096c0,19.226,0,38.451,0,57.677c0,7.583,0,15.165,0,22.748c0,0.366,0.696-1.649,0.023-0.54
			c-0.084,0.14-1.057,1.035-2.055,1.414c-7.146,2.715-16.619-1.309-23.188-3.822c-4.01-1.534-5.727,4.891-1.768,6.406
			c7.936,3.038,27.443,10.099,33.029-1.152c0.793-1.599,0.602-3.257,0.602-4.995c0-4.662,0-9.323,0-13.985c0-21.25,0-42.501,0-63.75
			C408.111,376.811,401.467,376.811,401.467,381.096L401.467,381.096z"/>
	</g>
</g>
<g>
	<g>
		<path fill="#FDBD56" d="M472.489,381.096c0,19.226,0,38.451,0,57.677c0,7.583,0,15.165,0,22.748c0,0.367,0.696-1.649,0.023-0.54
			c-0.085,0.14-1.056,1.035-2.054,1.414c-7.146,2.715-16.619-1.309-23.188-3.822c-4.01-1.534-5.727,4.891-1.768,6.406
			c7.936,3.038,27.443,10.099,33.027-1.152c0.793-1.599,0.603-3.257,0.603-4.995c0-4.662,0-9.323,0-13.985c0-21.25,0-42.501,0-63.75
			C479.134,376.811,472.489,376.811,472.489,381.096L472.489,381.096z"/>
	</g>
</g>
<g>
	<path fill="#E1A046" d="M359.096,176.072c2.025-1.73,4.208-3.248,6.438-4.724c2.251-1.442,4.6-2.753,7.075-3.867
		c1.237-0.558,2.482-1.135,3.779-1.633c1.297-0.489,2.674-0.805,4.092-0.898c1.416-0.084,2.871-0.009,4.283,0.353
		c1.403,0.345,2.785,0.958,3.838,1.96l-0.141,0.354c-1.398,0.038-2.637,0.165-3.855,0.352c-1.216,0.205-2.4,0.459-3.587,0.739
		c-1.187,0.284-2.384,0.541-3.618,0.761c-1.237,0.213-2.489,0.474-3.711,0.852c-2.441,0.761-4.867,1.685-7.268,2.705
		c-2.414,0.995-4.772,2.15-7.11,3.36L359.096,176.072z"/>
</g>
<g>
	<g>
		<path fill="#FFFFFF" d="M468.279,285.99c0.438,0.401,0.865,0.812,1.288,1.229c0.325,0.321,0.646,0.649,0.952,0.988
			c0.115,0.128,0.227,0.259,0.334,0.394c-0.133-0.166,0.008,0.023,0.028,0.055c0.095,0.147-0.044-0.258-0.046-0.285
			c0.062,0.54,0.406,0.997,0.996,0.997c0.496,0,1.059-0.456,0.996-0.997c-0.106-0.932-0.953-1.653-1.579-2.288
			c-0.507-0.514-1.028-1.013-1.56-1.501C468.744,283.712,467.33,285.119,468.279,285.99L468.279,285.99z"/>
	</g>
</g>
<g>
	<g>
		<path fill="#FFFFFF" d="M384.508,288.007c0.4-0.438,0.811-0.866,1.228-1.289c0.321-0.326,0.649-0.645,0.987-0.953
			c0.128-0.116,0.26-0.226,0.394-0.334c-0.165,0.132,0.022-0.008,0.054-0.027c0.146-0.095-0.257,0.042-0.284,0.045
			c0.54-0.062,0.997-0.406,0.997-0.997c0-0.496-0.456-1.059-0.997-0.997c-0.933,0.107-1.653,0.955-2.288,1.581
			c-0.514,0.506-1.012,1.029-1.5,1.562C382.231,287.543,383.637,288.957,384.508,288.007L384.508,288.007z"/>
	</g>
</g>
<g>
	<path fill="#E1A046" d="M500.223,177.415c-2.338-1.211-4.697-2.366-7.111-3.36c-2.398-1.02-4.824-1.944-7.267-2.705
		c-1.222-0.379-2.474-0.64-3.71-0.852c-1.235-0.22-2.432-0.477-3.619-0.76c-1.188-0.281-2.371-0.535-3.587-0.74
		c-1.22-0.187-2.456-0.314-3.856-0.352l-0.139-0.354c1.053-1.001,2.434-1.614,3.838-1.96c1.411-0.362,2.866-0.437,4.282-0.352
		c1.417,0.093,2.794,0.41,4.093,0.898c1.297,0.496,2.541,1.075,3.778,1.633c2.476,1.113,4.825,2.424,7.075,3.866
		c2.23,1.476,4.414,2.994,6.439,4.725L500.223,177.415z"/>
</g>
<g>
	<path fill="#594A42" d="M422.207,69.175c-0.068-0.794,0.01-1.626,0.291-2.424c0.289-0.793,0.816-1.532,1.521-2.081
		c1.422-1.115,3.42-1.353,5.188-0.818c1.779,0.525,3.385,2.056,3.91,3.996c0.561,1.938,0.111,3.883-0.541,5.519
		c-0.097,0.223-0.152,0.372-0.289,0.65c-0.094,0.184-0.156,0.334-0.311,0.585c-0.273,0.476-0.537,0.818-0.838,1.201
		c-0.602,0.723-1.285,1.322-1.969,1.862c-1.377,1.067-2.785,1.896-4.091,2.736c-1.302,0.838-2.544,1.635-3.518,2.579
		c-0.485,0.469-0.905,0.965-1.245,1.491c-0.143,0.215-0.4,0.654-0.574,0.952c-0.174,0.313-0.352,0.623-0.52,0.957
		c-1.387,2.588-2.312,5.39-2.131,8.05c0.074,1.328,0.459,2.605,1.121,3.766c0.674,1.152,1.609,2.196,2.719,3.097
		c2.249,1.777,5.107,2.975,8.085,3.717c2.988,0.786,6.132,1.087,9.325,1.182c-3.113,0.744-6.377,0.959-9.645,0.655
		c-3.25-0.354-6.572-1.215-9.5-3.151c-1.459-0.955-2.811-2.196-3.811-3.746c-1.008-1.536-1.666-3.346-1.874-5.18
		c-0.215-1.837,0.007-3.663,0.438-5.37c0.458-1.702,1.126-3.304,1.923-4.802c0.197-0.371,0.418-0.747,0.64-1.123
		c0.235-0.382,0.378-0.628,0.675-1.072c0.537-0.798,1.168-1.503,1.836-2.124c1.348-1.228,2.797-2.152,4.209-2.95
		c2.813-1.586,5.529-2.898,6.658-5.188c0.645-1.227,0.992-2.542,0.814-3.729c-0.152-1.187-0.959-2.258-2.161-2.83
		c-1.179-0.599-2.7-0.67-3.954-0.036C423.305,66.159,422.466,67.601,422.207,69.175z"/>
</g>
<g>
	<g>
		<path fill="#FFFFFF" d="M467.371,285.285c-0.422,21.065-19.992,34.192-39.625,34.494c-19.635,0.301-39.212-13.874-39.626-34.494
			c-0.037-1.834-2.884-1.838-2.849,0c0.455,22.632,21.259,37.015,42.475,37.341c21.217,0.326,42.027-15.188,42.473-37.341
			C470.256,283.447,467.408,283.451,467.371,285.285L467.371,285.285z"/>
	</g>
</g>
<g>
	<path fill="#E1A046" d="M475.835,288.93c2.062-1.958,1.918-5.446-0.319-7.802c-2.237-2.354-5.716-2.676-7.776-0.719
		C467.739,280.408,475.727,282.593,475.835,288.93z"/>
</g>
<g>
	<path fill="#E1A046" d="M379.115,288.811c-1.967-2.05-1.66-5.53,0.686-7.778c2.346-2.247,5.834-2.406,7.802-0.354
		C387.603,280.678,379.521,282.487,379.115,288.811z"/>
</g>
<g>
	<g>
		<path fill="#FDBD56" d="M333.189,227.181c-15.85,12.502-29.096,29.536-39.215,46.833c-21.197,36.234-25.35,78.727-9.291,117.791
			c1.605,3.906,8.036,2.197,6.406-1.767c-8.229-20.019-11.625-41.239-8.988-62.772c2.2-17.981,9.037-35.246,18.137-50.799
			c9.667-16.524,22.521-32.656,37.65-44.588C341.251,229.227,336.515,224.559,333.189,227.181L333.189,227.181z"/>
	</g>
</g>
<g>
	<g>
		<path fill="#E1A046" d="M394.528,219.806c-0.925,19.065-32.493,19.064-33.418,0c0.058,1.176-0.087,3.317-0.014,4.821
			c0.937,19.282,32.509,19.283,33.444,0C394.615,223.123,394.471,220.982,394.528,219.806L394.528,219.806z"/>
	</g>
</g>
<g>
	<g>
		<path fill="#E1A046" d="M502.375,217.294c-0.924,19.064-32.492,19.064-33.418,0c0.059,1.176-0.086,3.316-0.013,4.821
			c0.937,19.281,32.509,19.282,33.445,0C502.463,220.61,502.318,218.47,502.375,217.294L502.375,217.294z"/>
	</g>
</g>
</svg>
