<?xml version="1.0" encoding="utf-8"?>
<!-- Generator: Adobe Illustrator 16.0.0, SVG Export Plug-In . SVG Version: 6.00 Build 0)  -->
<!DOCTYPE svg PUBLIC "-//W3C//DTD SVG 1.1//EN" "http://www.w3.org/Graphics/SVG/1.1/DTD/svg11.dtd">
<svg version="1.1" id="Layer_1" xmlns="http://www.w3.org/2000/svg" xmlns:xlink="http://www.w3.org/1999/xlink" x="0px" y="0px"
	 width="841.89px" height="595.281px" viewBox="0 0 841.89 595.281" enable-background="new 0 0 841.89 595.281"
	 xml:space="preserve">
<path fill="#FDBD56" d="M527.325,379.354c-3.711,2.934-43.438,21.49-88.874,23.728c-45.436,2.238-95.867-15.157-98-23.728
	c-4.548-18.268-8.291-204.175,0-230.818c5.771-18.549,42.475-71.871,98.041-67.674c0,0,73.62,14.943,83.128,82.071
	C531.118,229.993,534.792,373.45,527.325,379.354z"/>
<g>
	<g>
		<path fill="#FDBD56" d="M515.782,222.053c14.907,11.759,27.394,27.541,37.119,43.695c9.267,15.394,15.719,32.346,18.449,50.128
			c3.353,21.833-0.428,44.042-8.77,64.336c-1.629,3.963,4.802,5.672,6.407,1.766c15.989-38.898,11.824-80.62-8.768-116.881
			c-10.035-17.67-23.673-35.07-39.739-47.743C517.155,214.732,512.419,219.401,515.782,222.053L515.782,222.053z"/>
	</g>
</g>
<g>
	<g>
		<path fill="#FDBD56" d="M401.467,381.096c0,19.226,0,38.451,0,57.677c0,7.584,0,15.166,0,22.748c0,0.367,0.696-1.648,0.023-0.539
			c-0.084,0.139-1.056,1.033-2.054,1.413c-7.147,2.715-16.62-1.309-23.189-3.822c-4.008-1.535-5.726,4.891-1.766,6.406
			c7.935,3.037,27.442,10.1,33.027-1.152c0.794-1.598,0.602-3.257,0.602-4.994c0-4.662,0-9.324,0-13.986c0-21.25,0-42.5,0-63.75
			C408.111,376.811,401.467,376.811,401.467,381.096L401.467,381.096z"/>
	</g>
</g>
<g>
	<g>
		<path fill="#FDBD56" d="M472.489,381.096c0,19.226,0,38.451,0,57.677c0,7.584,0,15.166,0,22.748c0,0.367,0.696-1.648,0.023-0.539
			c-0.084,0.139-1.056,1.033-2.054,1.413c-7.146,2.715-16.62-1.309-23.188-3.822c-4.008-1.535-5.726,4.891-1.766,6.406
			c7.934,3.037,27.441,10.1,33.027-1.152c0.793-1.598,0.602-3.257,0.602-4.994c0-4.662,0-9.324,0-13.986c0-21.25,0-42.5,0-63.75
			C479.134,376.811,472.489,376.811,472.489,381.096L472.489,381.096z"/>
	</g>
</g>
<ellipse fill="#FFFFFF" cx="477" cy="231.978" rx="30.613" ry="11.871"/>
<path d="M485.667,231.976c0,5.478-6.578,9.918-14.693,9.918s-15.825-4.44-15.825-9.918c0-5.478,7.71-9.493,15.825-9.493
	S485.667,226.498,485.667,231.976z"/>
<ellipse fill="#FFFFFF" cx="478.846" cy="224.858" rx="1.718" ry="0.99"/>
<path opacity="0.65" fill="#FFFFFF" d="M467.018,239.514c0,0,2.825,1.136,7.347,0C474.364,239.514,470.596,242.426,467.018,239.514z
	"/>
<ellipse fill="#FFFFFF" cx="382.715" cy="232.188" rx="30.613" ry="11.872"/>
<path d="M405.336,232.099c0,5.479-6.58,9.919-14.694,9.919s-15.824-4.44-15.824-9.919c0-5.477,7.709-9.493,15.824-9.493
	S405.336,226.622,405.336,232.099z"/>
<path opacity="0.65" fill="#FFFFFF" d="M386.686,239.637c0,0,2.825,1.137,7.346,0C394.032,239.637,390.265,242.549,386.686,239.637z
	"/>
<g>
	<path fill="#E1A046" d="M359.096,176.073c2.025-1.731,4.208-3.249,6.438-4.725c2.25-1.442,4.6-2.753,7.076-3.867
		c1.237-0.558,2.481-1.136,3.778-1.633c1.298-0.489,2.674-0.805,4.092-0.898c1.416-0.084,2.871-0.009,4.283,0.353
		c1.403,0.346,2.785,0.959,3.837,1.961l-0.14,0.353c-1.399,0.038-2.636,0.165-3.856,0.353c-1.216,0.204-2.399,0.458-3.587,0.739
		c-1.187,0.283-2.384,0.54-3.619,0.76c-1.236,0.213-2.488,0.474-3.71,0.853c-2.441,0.761-4.867,1.684-7.267,2.704
		c-2.414,0.995-4.773,2.149-7.111,3.36L359.096,176.073z"/>
</g>
<g>
	<g>
		<path fill="#FFFFFF" d="M468.279,285.989c0.438,0.401,0.866,0.813,1.288,1.229c0.326,0.322,0.645,0.65,0.952,0.989
			c0.116,0.127,0.227,0.259,0.334,0.393c-0.133-0.166,0.008,0.024,0.028,0.054c0.095,0.147-0.043-0.258-0.046-0.285
			c0.062,0.54,0.406,0.997,0.997,0.997c0.496,0,1.059-0.456,0.997-0.997c-0.107-0.932-0.955-1.653-1.58-2.288
			c-0.506-0.514-1.028-1.014-1.56-1.501C468.744,283.712,467.331,285.119,468.279,285.989L468.279,285.989z"/>
	</g>
</g>
<g>
	<g>
		<path fill="#FFFFFF" d="M384.507,288.007c0.401-0.438,0.812-0.866,1.229-1.288c0.321-0.326,0.649-0.646,0.988-0.954
			c0.127-0.115,0.259-0.227,0.393-0.334c-0.165,0.133,0.023-0.008,0.054-0.028c0.147-0.095-0.257,0.044-0.285,0.046
			c0.54-0.062,0.997-0.406,0.997-0.996c0-0.497-0.456-1.059-0.997-0.997c-0.932,0.108-1.653,0.955-2.288,1.581
			c-0.514,0.506-1.013,1.029-1.5,1.561C382.231,287.543,383.637,288.957,384.507,288.007L384.507,288.007z"/>
	</g>
</g>
<g>
	<path fill="#E1A046" d="M500.223,177.414c-2.338-1.21-4.697-2.365-7.111-3.36c-2.399-1.02-4.825-1.943-7.267-2.705
		c-1.222-0.378-2.474-0.639-3.71-0.852c-1.235-0.22-2.433-0.478-3.619-0.76c-1.188-0.281-2.371-0.536-3.587-0.74
		c-1.22-0.188-2.457-0.315-3.856-0.353l-0.14-0.354c1.053-1.001,2.434-1.614,3.838-1.96c1.412-0.362,2.867-0.438,4.283-0.352
		c1.418,0.092,2.794,0.408,4.092,0.897c1.297,0.497,2.542,1.075,3.779,1.633c2.476,1.114,4.825,2.424,7.075,3.866
		c2.23,1.477,4.413,2.994,6.438,4.726L500.223,177.414z"/>
</g>
<g>
	<path fill="#594A42" d="M422.207,69.174c-0.067-0.794,0.01-1.625,0.291-2.424c0.29-0.793,0.816-1.532,1.521-2.081
		c1.423-1.115,3.42-1.354,5.188-0.817c1.778,0.524,3.383,2.056,3.91,3.996c0.561,1.938,0.112,3.884-0.541,5.52
		c-0.097,0.222-0.152,0.371-0.29,0.65c-0.094,0.184-0.156,0.333-0.31,0.584c-0.273,0.476-0.537,0.819-0.837,1.201
		c-0.602,0.724-1.286,1.322-1.969,1.862c-1.377,1.067-2.785,1.896-4.091,2.737c-1.301,0.837-2.544,1.635-3.518,2.579
		c-0.486,0.469-0.905,0.965-1.245,1.491c-0.143,0.217-0.4,0.655-0.573,0.952c-0.175,0.313-0.352,0.623-0.52,0.956
		c-1.388,2.589-2.312,5.391-2.131,8.052c0.074,1.328,0.458,2.604,1.121,3.766c0.674,1.152,1.609,2.195,2.719,3.096
		c2.25,1.778,5.108,2.976,8.086,3.718c2.987,0.786,6.131,1.085,9.325,1.181c-3.114,0.745-6.377,0.959-9.646,0.656
		c-3.249-0.354-6.572-1.215-9.499-3.15c-1.459-0.955-2.811-2.197-3.812-3.746c-1.008-1.537-1.667-3.346-1.874-5.181
		c-0.215-1.838,0.007-3.665,0.438-5.37c0.459-1.702,1.125-3.305,1.923-4.802c0.197-0.372,0.419-0.748,0.64-1.122
		c0.235-0.383,0.379-0.628,0.676-1.073c0.536-0.797,1.167-1.504,1.835-2.123c1.348-1.229,2.797-2.153,4.208-2.951
		c2.813-1.586,5.53-2.898,6.659-5.188c0.646-1.226,0.992-2.542,0.815-3.729c-0.153-1.188-0.96-2.259-2.162-2.83
		c-1.178-0.6-2.7-0.67-3.955-0.038C423.305,66.16,422.466,67.601,422.207,69.174z"/>
</g>
<ellipse fill="#FFFFFF" cx="398.484" cy="225.226" rx="1.718" ry="0.989"/>
<g>
	<g>
		<path fill="#FFFFFF" d="M467.371,285.285c-0.423,21.066-19.993,34.192-39.625,34.494c-19.635,0.302-39.212-13.873-39.626-34.494
			c-0.037-1.833-2.885-1.837-2.848,0c0.455,22.632,21.258,37.015,42.474,37.342c21.217,0.326,42.028-15.188,42.473-37.342
			C470.256,283.447,467.408,283.452,467.371,285.285L467.371,285.285z"/>
	</g>
</g>
<g>
	<path fill="#E1A046" d="M475.835,288.929c2.062-1.957,1.918-5.446-0.319-7.802c-2.237-2.355-5.716-2.676-7.776-0.72
		C467.739,280.408,475.727,282.593,475.835,288.929z"/>
</g>
<g>
	<path fill="#E1A046" d="M379.116,288.811c-1.967-2.051-1.661-5.531,0.685-7.779c2.345-2.246,5.834-2.405,7.802-0.354
		C387.603,280.678,379.521,282.486,379.116,288.811z"/>
</g>
<g>
	<g>
		<path fill="#FDBD56" d="M336.217,229.53c0.33,17.78-2.258,35.863-5.664,53.25c-7.482,38.194-22.128,75.187-45.536,106.466
			c-2.57,3.434,3.202,6.74,5.737,3.353c23.758-31.747,38.469-69.344,46.205-108.053c3.581-17.918,6.242-36.68,5.901-55.016
			C342.781,225.25,336.137,225.244,336.217,229.53L336.217,229.53z"/>
	</g>
</g>
</svg>
