<?xml version="1.0" encoding="utf-8"?>
<!-- Generator: Adobe Illustrator 16.0.0, SVG Export Plug-In . SVG Version: 6.00 Build 0)  -->
<!DOCTYPE svg PUBLIC "-//W3C//DTD SVG 1.1//EN" "http://www.w3.org/Graphics/SVG/1.1/DTD/svg11.dtd">
<svg version="1.1" id="Layer_1" xmlns="http://www.w3.org/2000/svg" xmlns:xlink="http://www.w3.org/1999/xlink" x="0px" y="0px"
	 width="841.89px" height="595.279px" viewBox="0 0 841.89 595.279" enable-background="new 0 0 841.89 595.279"
	 xml:space="preserve">
<path fill="#FDBD56" d="M527.325,379.353c-3.711,2.934-43.438,21.49-88.874,23.728c-45.436,2.238-95.867-15.157-98-23.728
	c-4.548-18.268-8.291-204.175,0-230.818c5.771-18.549,42.475-71.871,98.041-67.675c0,0,73.62,14.943,83.128,82.071
	C531.118,229.991,534.792,373.449,527.325,379.353z"/>
<g>
	<g>
		<path fill="#FDBD56" d="M515.782,222.052c14.906,11.758,27.394,27.541,37.119,43.695c9.268,15.393,15.719,32.346,18.449,50.127
			c3.353,21.833-0.428,44.043-8.77,64.337c-1.63,3.962,4.801,5.671,6.406,1.765c15.99-38.898,11.824-80.619-8.768-116.881
			c-10.035-17.671-23.674-35.07-39.739-47.743C517.156,214.731,512.419,219.4,515.782,222.052L515.782,222.052z"/>
	</g>
</g>
<g>
	<g>
		<path fill="#FDBD56" d="M401.467,381.095c0,19.226,0,38.451,0,57.677c0,7.583,0,15.167,0,22.748c0,0.367,0.695-1.648,0.023-0.539
			c-0.085,0.139-1.056,1.033-2.055,1.413c-7.146,2.715-16.62-1.309-23.188-3.822c-4.009-1.534-5.726,4.892-1.767,6.406
			c7.935,3.037,27.442,10.099,33.028-1.152c0.793-1.598,0.602-3.257,0.602-4.994c0-4.663,0-9.325,0-13.987c0-21.25,0-42.5,0-63.75
			C408.111,376.81,401.467,376.81,401.467,381.095L401.467,381.095z"/>
	</g>
</g>
<g>
	<g>
		<path fill="#FDBD56" d="M472.49,381.095c0,19.226,0,38.451,0,57.677c0,7.583,0,15.167,0,22.748c0,0.367,0.695-1.648,0.023-0.539
			c-0.085,0.139-1.056,1.033-2.054,1.413c-7.147,2.715-16.62-1.309-23.188-3.822c-4.009-1.534-5.726,4.892-1.767,6.406
			c7.935,3.037,27.442,10.1,33.027-1.152c0.793-1.598,0.602-3.257,0.602-4.994c0-4.663,0-9.325,0-13.987c0-21.25,0-42.5,0-63.75
			C479.133,376.81,472.49,376.81,472.49,381.095L472.49,381.095z"/>
	</g>
</g>
<ellipse fill="#FFFFFF" cx="477" cy="220.825" rx="30.613" ry="22.828"/>
<path d="M485.667,220.821c0,10.534-6.578,19.073-14.693,19.073s-15.826-8.539-15.826-19.073s7.71-18.253,15.826-18.253
	S485.667,210.288,485.667,220.821z"/>
<ellipse fill="#FFFFFF" cx="478.846" cy="207.135" rx="1.718" ry="1.903"/>
<path opacity="0.65" fill="#FFFFFF" d="M467.018,235.316c0,0,2.825,2.186,7.347,0C474.364,235.316,470.596,240.917,467.018,235.316z
	"/>
<ellipse fill="#FFFFFF" cx="382.715" cy="221.231" rx="30.613" ry="22.828"/>
<path d="M405.336,221.06c0,10.533-6.58,19.073-14.694,19.073s-15.824-8.54-15.824-19.073c0-10.534,7.709-18.254,15.824-18.254
	S405.336,210.525,405.336,221.06z"/>
<path opacity="0.65" fill="#FFFFFF" d="M386.685,235.554c0,0,2.826,2.186,7.347,0C394.032,235.554,390.265,241.155,386.685,235.554z
	"/>
<g>
	<path fill="#E1A046" d="M359.096,176.071c2.025-1.731,4.208-3.249,6.439-4.725c2.25-1.442,4.6-2.753,7.075-3.867
		c1.237-0.558,2.481-1.136,3.778-1.633c1.298-0.489,2.675-0.805,4.092-0.898c1.417-0.084,2.871-0.009,4.283,0.353
		c1.404,0.346,2.785,0.959,3.838,1.96l-0.14,0.354c-1.399,0.038-2.636,0.165-3.855,0.352c-1.216,0.205-2.4,0.459-3.587,0.741
		c-1.187,0.283-2.383,0.54-3.619,0.759c-1.237,0.213-2.489,0.474-3.71,0.853c-2.441,0.761-4.868,1.685-7.266,2.705
		c-2.415,0.995-4.774,2.149-7.112,3.36L359.096,176.071z"/>
</g>
<g>
	<g>
		<path fill="#FFFFFF" d="M468.28,285.988c0.437,0.401,0.865,0.813,1.288,1.229c0.326,0.322,0.645,0.65,0.953,0.989
			c0.115,0.128,0.227,0.259,0.334,0.394c-0.133-0.166,0.008,0.023,0.027,0.054c0.095,0.147-0.043-0.257-0.046-0.285
			c0.062,0.54,0.406,0.997,0.997,0.997c0.496,0,1.059-0.456,0.997-0.997c-0.107-0.932-0.954-1.653-1.58-2.288
			c-0.506-0.514-1.028-1.014-1.56-1.501C468.744,283.711,467.331,285.118,468.28,285.988L468.28,285.988z"/>
	</g>
</g>
<g>
	<g>
		<path fill="#FFFFFF" d="M384.507,288.006c0.4-0.438,0.812-0.866,1.228-1.289c0.321-0.326,0.649-0.646,0.988-0.953
			c0.128-0.115,0.259-0.227,0.393-0.334c-0.166,0.133,0.023-0.008,0.054-0.028c0.146-0.095-0.258,0.043-0.285,0.046
			c0.54-0.062,0.997-0.406,0.997-0.997c0-0.496-0.456-1.059-0.997-0.997c-0.932,0.107-1.653,0.955-2.288,1.581
			c-0.514,0.506-1.013,1.03-1.501,1.561C382.231,287.542,383.637,288.956,384.507,288.006L384.507,288.006z"/>
	</g>
</g>
<g>
	<path fill="#E1A046" d="M500.223,177.413c-2.338-1.21-4.697-2.365-7.111-3.359c-2.399-1.021-4.825-1.944-7.267-2.705
		c-1.222-0.379-2.474-0.64-3.71-0.852c-1.236-0.22-2.432-0.477-3.619-0.76c-1.188-0.281-2.371-0.536-3.587-0.74
		c-1.219-0.187-2.457-0.314-3.856-0.352l-0.14-0.353c1.053-1.001,2.434-1.615,3.838-1.961c1.412-0.362,2.866-0.437,4.283-0.352
		c1.417,0.093,2.794,0.409,4.092,0.898c1.297,0.497,2.542,1.075,3.778,1.633c2.476,1.114,4.826,2.424,7.076,3.866
		c2.23,1.476,4.413,2.994,6.438,4.725L500.223,177.413z"/>
</g>
<g>
	<path fill="#594A42" d="M422.207,69.173c-0.068-0.794,0.01-1.626,0.291-2.423c0.29-0.793,0.816-1.533,1.521-2.082
		c1.423-1.115,3.42-1.354,5.188-0.817c1.778,0.524,3.384,2.055,3.91,3.995c0.561,1.938,0.111,3.884-0.542,5.52
		c-0.096,0.223-0.151,0.371-0.289,0.651c-0.094,0.184-0.155,0.333-0.31,0.584c-0.274,0.476-0.537,0.819-0.838,1.202
		c-0.602,0.723-1.286,1.321-1.969,1.862c-1.376,1.067-2.786,1.896-4.091,2.737c-1.301,0.837-2.543,1.635-3.518,2.579
		c-0.486,0.469-0.905,0.965-1.245,1.491c-0.143,0.216-0.401,0.655-0.574,0.952c-0.174,0.313-0.351,0.623-0.52,0.956
		c-1.388,2.589-2.313,5.391-2.131,8.052c0.074,1.328,0.458,2.604,1.122,3.765c0.673,1.152,1.609,2.196,2.718,3.097
		c2.25,1.778,5.108,2.975,8.086,3.717c2.988,0.786,6.132,1.085,9.326,1.181c-3.114,0.745-6.377,0.959-9.645,0.655
		c-3.249-0.354-6.572-1.215-9.5-3.15c-1.459-0.955-2.811-2.196-3.811-3.746c-1.008-1.537-1.667-3.346-1.874-5.18
		c-0.215-1.838,0.007-3.664,0.437-5.371c0.459-1.702,1.126-3.305,1.923-4.802c0.197-0.372,0.419-0.748,0.64-1.122
		c0.235-0.383,0.379-0.628,0.676-1.073c0.537-0.797,1.168-1.504,1.835-2.123c1.348-1.229,2.796-2.152,4.208-2.951
		c2.813-1.586,5.529-2.898,6.659-5.188c0.645-1.226,0.992-2.542,0.816-3.729c-0.153-1.187-0.96-2.258-2.162-2.83
		c-1.179-0.598-2.7-0.67-3.955-0.037C423.305,66.158,422.466,67.6,422.207,69.173z"/>
</g>
<ellipse fill="#FFFFFF" cx="398.484" cy="207.842" rx="1.718" ry="1.903"/>
<g>
	<g>
		<path fill="#FFFFFF" d="M467.371,285.284c-0.423,21.066-19.993,34.192-39.625,34.494c-19.635,0.302-39.212-13.873-39.626-34.494
			c-0.037-1.833-2.884-1.837-2.848,0c0.455,22.632,21.257,37.015,42.474,37.341c21.217,0.326,42.028-15.187,42.473-37.341
			C470.255,283.447,467.408,283.45,467.371,285.284L467.371,285.284z"/>
	</g>
</g>
<g>
	<path fill="#E1A046" d="M475.835,288.928c2.061-1.957,1.918-5.446-0.319-7.802c-2.237-2.354-5.716-2.676-7.776-0.72
		C467.739,280.407,475.727,282.592,475.835,288.928z"/>
</g>
<g>
	<path fill="#E1A046" d="M379.116,288.81c-1.967-2.051-1.661-5.531,0.685-7.779c2.345-2.247,5.834-2.405,7.802-0.354
		C387.603,280.677,379.521,282.485,379.116,288.81z"/>
</g>
<g>
	<g>
		<path fill="#FDBD56" d="M336.67,227.852c-12.446,17.124-25.914,33.606-40.036,49.366c-10.385,11.589-21.292,22.924-33.527,32.584
			c-5.774,4.559-17.687,14.255-25.857,10.806c-0.989-0.417-1.808-1.013-2.565-1.755c-3.061-3.001-7.761,1.694-4.698,4.697
			c7.231,7.09,17.522,3.728,25.309-0.505c12.313-6.692,22.861-16.979,32.641-26.855c18.896-19.083,35.929-40.131,51.991-61.63
			c0.832-1.114,1.662-2.229,2.48-3.354C344.931,227.733,339.163,224.423,336.67,227.852L336.67,227.852z"/>
	</g>
</g>
</svg>
