<?xml version="1.0" encoding="utf-8"?>
<!-- Generator: Adobe Illustrator 16.0.0, SVG Export Plug-In . SVG Version: 6.00 Build 0)  -->
<!DOCTYPE svg PUBLIC "-//W3C//DTD SVG 1.1//EN" "http://www.w3.org/Graphics/SVG/1.1/DTD/svg11.dtd">
<svg version="1.1" id="Layer_1" xmlns="http://www.w3.org/2000/svg" xmlns:xlink="http://www.w3.org/1999/xlink" x="0px" y="0px"
	 width="841.89px" height="595.28px" viewBox="0 0 841.89 595.28" enable-background="new 0 0 841.89 595.28" xml:space="preserve">
<path fill="#FDBD56" d="M527.325,379.354c-3.711,2.934-43.438,21.49-88.874,23.728c-45.436,2.238-95.867-15.157-98-23.728
	c-4.548-18.268-8.291-204.175,0-230.818c5.771-18.549,42.475-71.87,98.041-67.675c0,0,73.62,14.944,83.128,82.072
	C531.118,229.993,534.792,373.45,527.325,379.354z"/>
<g>
	<g>
		<path fill="#FDBD56" d="M515.782,222.053c14.906,11.758,27.394,27.541,37.119,43.695c9.267,15.394,15.719,32.347,18.449,50.128
			c3.353,21.833-0.428,44.043-8.77,64.337c-1.629,3.963,4.801,5.672,6.407,1.766c15.99-38.898,11.824-80.62-8.768-116.881
			c-10.035-17.671-23.674-35.069-39.739-47.742C517.156,214.732,512.419,219.401,515.782,222.053L515.782,222.053z"/>
	</g>
</g>
<g>
	<g>
		<path fill="#FDBD56" d="M401.467,381.096c0,19.226,0,38.451,0,57.677c0,7.583,0,15.166,0,22.748c0,0.367,0.695-1.648,0.023-0.539
			c-0.085,0.139-1.056,1.033-2.055,1.413c-7.146,2.715-16.62-1.309-23.188-3.822c-4.009-1.534-5.726,4.892-1.767,6.406
			c7.935,3.037,27.442,10.099,33.028-1.152c0.793-1.598,0.602-3.257,0.602-4.994c0-4.662,0-9.324,0-13.986c0-21.25,0-42.5,0-63.75
			C408.111,376.811,401.467,376.811,401.467,381.096L401.467,381.096z"/>
	</g>
</g>
<g>
	<g>
		<path fill="#FDBD56" d="M472.49,381.096c0,19.226,0,38.451,0,57.677c0,7.583,0,15.166,0,22.748c0,0.367,0.695-1.648,0.023-0.539
			c-0.085,0.139-1.056,1.033-2.055,1.413c-7.146,2.715-16.619-1.309-23.188-3.822c-4.009-1.534-5.726,4.892-1.767,6.406
			c7.935,3.037,27.442,10.099,33.027-1.152c0.793-1.598,0.602-3.257,0.602-4.994c0-4.662,0-9.324,0-13.986c0-21.25,0-42.5,0-63.75
			C479.133,376.811,472.49,376.811,472.49,381.096L472.49,381.096z"/>
	</g>
</g>
<circle fill="#FFFFFF" cx="477" cy="212.902" r="30.613"/>
<path d="M485.667,212.897c0,14.126-6.578,25.578-14.693,25.578s-15.825-11.451-15.825-25.578c0-14.126,7.71-24.479,15.825-24.479
	S485.667,198.771,485.667,212.897z"/>
<ellipse fill="#FFFFFF" cx="478.846" cy="194.542" rx="1.718" ry="2.552"/>
<path opacity="0.65" fill="#FFFFFF" d="M467.018,232.336c0,0,2.825,2.931,7.347,0C474.364,232.336,470.596,239.846,467.018,232.336z
	"/>
<circle fill="#FFFFFF" cx="382.715" cy="213.446" r="30.613"/>
<path d="M405.336,213.216c0,14.127-6.58,25.578-14.694,25.578s-15.824-11.451-15.824-25.578c0-14.126,7.709-24.479,15.824-24.479
	S405.336,199.09,405.336,213.216z"/>
<path opacity="0.65" fill="#FFFFFF" d="M386.685,232.654c0,0,2.826,2.931,7.347,0C394.032,232.654,390.265,240.165,386.685,232.654z
	"/>
<g>
	<path fill="#E1A046" d="M359.096,176.073c2.025-1.731,4.208-3.249,6.439-4.725c2.25-1.442,4.6-2.753,7.075-3.867
		c1.237-0.558,2.481-1.136,3.778-1.633c1.298-0.489,2.675-0.804,4.092-0.898c1.417-0.084,2.871-0.009,4.283,0.353
		c1.404,0.346,2.785,0.959,3.838,1.961l-0.14,0.353c-1.399,0.037-2.636,0.164-3.855,0.352c-1.216,0.204-2.4,0.459-3.587,0.74
		c-1.187,0.283-2.383,0.54-3.619,0.76c-1.237,0.213-2.489,0.473-3.71,0.852c-2.441,0.761-4.868,1.685-7.266,2.705
		c-2.415,0.995-4.774,2.149-7.112,3.36L359.096,176.073z"/>
</g>
<g>
	<g>
		<path fill="#FFFFFF" d="M468.28,285.989c0.437,0.401,0.865,0.813,1.288,1.229c0.326,0.321,0.645,0.649,0.953,0.988
			c0.115,0.127,0.227,0.259,0.334,0.393c-0.133-0.166,0.008,0.023,0.027,0.054c0.095,0.147-0.043-0.258-0.046-0.285
			c0.062,0.54,0.406,0.997,0.997,0.997c0.496,0,1.059-0.455,0.997-0.997c-0.107-0.932-0.954-1.653-1.58-2.288
			c-0.506-0.514-1.028-1.013-1.56-1.501C468.744,283.712,467.331,285.119,468.28,285.989L468.28,285.989z"/>
	</g>
</g>
<g>
	<g>
		<path fill="#FFFFFF" d="M384.507,288.007c0.4-0.437,0.812-0.865,1.228-1.288c0.321-0.325,0.649-0.646,0.988-0.953
			c0.128-0.115,0.259-0.227,0.393-0.334c-0.166,0.133,0.023-0.008,0.054-0.028c0.146-0.095-0.258,0.043-0.285,0.046
			c0.54-0.062,0.997-0.406,0.997-0.997c0-0.496-0.456-1.059-0.997-0.996c-0.932,0.106-1.653,0.954-2.288,1.58
			c-0.514,0.507-1.013,1.029-1.501,1.562C382.231,287.544,383.637,288.957,384.507,288.007L384.507,288.007z"/>
	</g>
</g>
<g>
	<path fill="#E1A046" d="M500.223,177.414c-2.338-1.21-4.697-2.365-7.111-3.359c-2.399-1.021-4.825-1.944-7.267-2.706
		c-1.222-0.378-2.474-0.64-3.71-0.852c-1.236-0.219-2.432-0.477-3.619-0.76c-1.188-0.281-2.371-0.535-3.587-0.74
		c-1.219-0.187-2.457-0.314-3.856-0.352l-0.14-0.354c1.053-1.001,2.434-1.614,3.838-1.96c1.412-0.362,2.866-0.437,4.283-0.352
		c1.417,0.093,2.794,0.409,4.092,0.898c1.297,0.496,2.542,1.075,3.778,1.633c2.476,1.113,4.826,2.424,7.076,3.866
		c2.23,1.476,4.413,2.993,6.438,4.725L500.223,177.414z"/>
</g>
<g>
	<path fill="#594A42" d="M422.207,69.174c-0.068-0.794,0.01-1.626,0.291-2.424c0.29-0.793,0.816-1.532,1.521-2.081
		c1.423-1.115,3.42-1.354,5.188-0.818c1.778,0.525,3.384,2.056,3.91,3.996c0.561,1.938,0.111,3.884-0.542,5.52
		c-0.096,0.223-0.151,0.371-0.289,0.651c-0.094,0.184-0.155,0.333-0.31,0.584c-0.274,0.476-0.537,0.819-0.838,1.201
		c-0.602,0.724-1.286,1.322-1.969,1.863c-1.376,1.067-2.786,1.896-4.091,2.736c-1.301,0.838-2.543,1.635-3.518,2.579
		c-0.486,0.469-0.905,0.965-1.245,1.491c-0.143,0.216-0.401,0.656-0.574,0.952c-0.174,0.313-0.351,0.623-0.52,0.956
		c-1.388,2.589-2.313,5.391-2.131,8.052c0.074,1.328,0.458,2.604,1.122,3.765c0.673,1.152,1.609,2.196,2.718,3.097
		c2.25,1.777,5.108,2.975,8.086,3.717c2.988,0.785,6.132,1.086,9.326,1.181c-3.114,0.745-6.377,0.959-9.645,0.655
		c-3.249-0.354-6.572-1.215-9.5-3.15c-1.459-0.954-2.811-2.197-3.811-3.746c-1.008-1.537-1.667-3.345-1.874-5.18
		c-0.215-1.838,0.007-3.664,0.437-5.371c0.459-1.701,1.126-3.304,1.923-4.801c0.197-0.372,0.419-0.748,0.64-1.122
		c0.235-0.383,0.379-0.628,0.676-1.073c0.537-0.798,1.168-1.504,1.835-2.123c1.348-1.228,2.796-2.152,4.208-2.951
		c2.813-1.586,5.529-2.898,6.659-5.188c0.645-1.226,0.992-2.542,0.816-3.729c-0.153-1.187-0.96-2.258-2.162-2.83
		c-1.179-0.599-2.7-0.671-3.955-0.037C423.305,66.159,422.466,67.601,422.207,69.174z"/>
</g>
<ellipse fill="#FFFFFF" cx="398.484" cy="195.491" rx="1.718" ry="2.552"/>
<g>
	<g>
		<path fill="#FFFFFF" d="M467.371,285.285c-0.423,21.065-19.993,34.191-39.625,34.493c-19.635,0.302-39.212-13.873-39.626-34.493
			c-0.037-1.834-2.884-1.838-2.848,0c0.455,22.632,21.257,37.015,42.474,37.341c21.217,0.326,42.028-15.188,42.473-37.341
			C470.255,283.447,467.408,283.451,467.371,285.285L467.371,285.285z"/>
	</g>
</g>
<g>
	<path fill="#E1A046" d="M475.835,288.929c2.062-1.957,1.918-5.446-0.319-7.801c-2.237-2.355-5.716-2.677-7.776-0.72
		C467.739,280.408,475.727,282.593,475.835,288.929z"/>
</g>
<g>
	<path fill="#E1A046" d="M379.116,288.812c-1.967-2.052-1.661-5.531,0.685-7.779c2.345-2.247,5.834-2.406,7.802-0.354
		C387.603,280.678,379.521,282.486,379.116,288.812z"/>
</g>
<g>
	<g>
		<path fill="#FDBD56" d="M347.933,301.566c-8.07-11.918-15.532-24.283-22.705-36.756c-13.103-22.787-25.642-46.593-33.215-71.863
			c-3.413-11.388-8.45-29.407-0.202-40.003c10.459-13.435,34.916-5.364,47.756-1.205c4.088,1.324,5.825-5.093,1.767-6.407
			c-18.339-5.939-50.007-13.51-58.502,10.785c-3.209,9.177-1.693,19.768,0.291,29.023c2.656,12.387,7.307,24.318,12.319,35.915
			c12.646,29.26,28.882,57.473,46.753,83.865C344.583,308.445,350.343,305.125,347.933,301.566L347.933,301.566z"/>
	</g>
</g>
</svg>
