<?xml version="1.0" encoding="utf-8"?>
<!-- Generator: Adobe Illustrator 16.0.0, SVG Export Plug-In . SVG Version: 6.00 Build 0)  -->
<!DOCTYPE svg PUBLIC "-//W3C//DTD SVG 1.1//EN" "http://www.w3.org/Graphics/SVG/1.1/DTD/svg11.dtd">
<svg version="1.1" id="Layer_1" xmlns="http://www.w3.org/2000/svg" xmlns:xlink="http://www.w3.org/1999/xlink" x="0px" y="0px"
	 width="841.89px" height="595.28px" viewBox="0 0 841.89 595.28" enable-background="new 0 0 841.89 595.28" xml:space="preserve">
<g>
	<g>
		<path fill="#FDBD56" d="M347.414,300.895c-10.811-11.139-21.063-22.875-30.897-34.878c-8.063-9.841-15.786-19.995-22.676-30.699
			c-5.47-8.499-11.023-17.743-13.104-27.758c-1.37-6.591,0.311-11.364,6.993-13.094c5.117-1.325,10.843-0.685,15.989,0.096
			c8.892,1.349,17.6,3.913,26.137,6.685c4.087,1.327,5.824-5.09,1.767-6.407c-13.69-4.445-55.871-18.819-57.909,7.465
			c-0.698,9.008,4.142,18.43,8.275,26.088c5.879,10.894,13.188,21.023,20.713,30.825c12.415,16.171,25.812,31.741,40.015,46.374
			C345.704,308.671,350.398,303.969,347.414,300.895L347.414,300.895z"/>
	</g>
</g>
<path fill="#FDBD56" d="M527.325,379.354c-3.711,2.934-43.438,21.49-88.874,23.728c-45.436,2.238-95.867-15.157-98-23.728
	c-4.548-18.268-8.291-204.175,0-230.818c5.771-18.55,42.475-71.87,98.041-67.675c0,0,73.62,14.943,83.128,82.071
	C531.118,229.993,534.792,373.45,527.325,379.354z"/>
<g>
	<g>
		<path fill="#FDBD56" d="M515.782,222.053c14.907,11.758,27.394,27.541,37.119,43.695c9.267,15.394,15.719,32.346,18.449,50.128
			c3.352,21.833-0.428,44.043-8.77,64.337c-1.629,3.963,4.801,5.672,6.407,1.766c15.99-38.898,11.824-80.62-8.768-116.881
			c-10.035-17.671-23.674-35.07-39.739-47.743C517.155,214.732,512.419,219.401,515.782,222.053L515.782,222.053z"/>
	</g>
</g>
<g>
	<g>
		<path fill="#FDBD56" d="M401.467,381.096c0,19.226,0,38.451,0,57.677c0,7.583,0,15.166,0,22.748c0,0.367,0.696-1.648,0.023-0.539
			c-0.084,0.139-1.056,1.033-2.054,1.413c-7.147,2.715-16.62-1.309-23.188-3.822c-4.009-1.534-5.726,4.892-1.767,6.406
			c7.935,3.037,27.442,10.099,33.028-1.152c0.793-1.598,0.602-3.257,0.602-4.994c0-4.662,0-9.324,0-13.986c0-21.25,0-42.5,0-63.75
			C408.111,376.811,401.467,376.811,401.467,381.096L401.467,381.096z"/>
	</g>
</g>
<g>
	<g>
		<path fill="#FDBD56" d="M472.489,381.096c0,19.226,0,38.451,0,57.677c0,7.583,0,15.166,0,22.748c0,0.367,0.696-1.648,0.023-0.539
			c-0.084,0.139-1.056,1.033-2.054,1.413c-7.146,2.715-16.62-1.309-23.188-3.822c-4.009-1.534-5.726,4.892-1.767,6.406
			c7.935,3.037,27.442,10.1,33.027-1.152c0.793-1.598,0.602-3.257,0.602-4.994c0-4.662,0-9.324,0-13.986c0-21.25,0-42.5,0-63.75
			C479.134,376.811,472.489,376.811,472.489,381.096L472.489,381.096z"/>
	</g>
</g>
<g>
	<path fill="#E1A046" d="M359.096,176.072c2.025-1.73,4.208-3.248,6.438-4.725c2.25-1.442,4.6-2.753,7.076-3.867
		c1.237-0.557,2.481-1.136,3.778-1.632c1.298-0.489,2.675-0.805,4.092-0.898c1.417-0.085,2.871-0.01,4.283,0.352
		c1.404,0.346,2.785,0.959,3.838,1.96l-0.14,0.354c-1.399,0.038-2.636,0.165-3.856,0.352c-1.216,0.205-2.399,0.459-3.587,0.74
		c-1.187,0.283-2.383,0.54-3.619,0.76c-1.237,0.213-2.489,0.474-3.71,0.853c-2.441,0.761-4.867,1.685-7.266,2.705
		c-2.415,0.994-4.774,2.149-7.112,3.359L359.096,176.072z"/>
</g>
<g>
	<g>
		<path fill="#FFFFFF" d="M468.28,285.989c0.437,0.401,0.865,0.813,1.288,1.229c0.326,0.322,0.645,0.65,0.953,0.989
			c0.115,0.128,0.227,0.259,0.334,0.394c-0.133-0.166,0.008,0.023,0.028,0.054c0.095,0.147-0.043-0.258-0.046-0.285
			c0.062,0.54,0.406,0.997,0.997,0.997c0.496,0,1.059-0.456,0.997-0.997c-0.107-0.932-0.954-1.653-1.58-2.288
			c-0.506-0.514-1.028-1.014-1.56-1.501C468.744,283.712,467.331,285.119,468.28,285.989L468.28,285.989z"/>
	</g>
</g>
<g>
	<g>
		<path fill="#FFFFFF" d="M384.507,288.008c0.401-0.438,0.812-0.866,1.229-1.289c0.321-0.326,0.649-0.646,0.988-0.953
			c0.127-0.115,0.259-0.227,0.393-0.334c-0.166,0.133,0.023-0.007,0.054-0.028c0.146-0.095-0.258,0.043-0.285,0.047
			c0.54-0.063,0.997-0.407,0.997-0.997c0-0.496-0.456-1.059-0.997-0.996c-0.932,0.106-1.653,0.954-2.288,1.58
			c-0.514,0.506-1.013,1.029-1.5,1.562C382.231,287.543,383.637,288.957,384.507,288.008L384.507,288.008z"/>
	</g>
</g>
<g>
	<path fill="#E1A046" d="M500.223,177.414c-2.338-1.21-4.697-2.365-7.112-3.359c-2.399-1.021-4.825-1.944-7.267-2.705
		c-1.222-0.379-2.474-0.64-3.71-0.852c-1.235-0.22-2.432-0.477-3.619-0.76c-1.187-0.281-2.371-0.536-3.587-0.74
		c-1.22-0.187-2.457-0.314-3.856-0.352l-0.14-0.354c1.053-1.001,2.434-1.614,3.838-1.96c1.412-0.362,2.867-0.437,4.283-0.352
		c1.418,0.093,2.794,0.409,4.092,0.898c1.297,0.497,2.542,1.075,3.778,1.633c2.476,1.113,4.826,2.424,7.076,3.866
		c2.231,1.476,4.414,2.994,6.439,4.725L500.223,177.414z"/>
</g>
<g>
	<path fill="#594A42" d="M422.207,69.174c-0.068-0.794,0.01-1.626,0.291-2.423c0.29-0.793,0.816-1.533,1.521-2.082
		c1.423-1.115,3.42-1.354,5.188-0.817c1.778,0.525,3.384,2.056,3.91,3.996c0.561,1.938,0.112,3.884-0.542,5.52
		c-0.096,0.223-0.151,0.371-0.289,0.651c-0.094,0.183-0.155,0.333-0.31,0.583c-0.274,0.476-0.537,0.819-0.838,1.201
		c-0.602,0.723-1.286,1.322-1.969,1.862c-1.377,1.068-2.786,1.896-4.091,2.737c-1.301,0.838-2.544,1.635-3.518,2.579
		c-0.486,0.469-0.905,0.964-1.245,1.49c-0.143,0.216-0.401,0.655-0.574,0.952c-0.175,0.313-0.352,0.623-0.52,0.956
		c-1.388,2.589-2.312,5.391-2.131,8.052c0.074,1.328,0.458,2.604,1.122,3.765c0.673,1.152,1.609,2.196,2.718,3.097
		c2.25,1.777,5.108,2.975,8.086,3.717c2.988,0.786,6.132,1.086,9.326,1.181c-3.114,0.745-6.377,0.959-9.645,0.655
		c-3.25-0.354-6.572-1.215-9.5-3.15c-1.459-0.955-2.811-2.197-3.812-3.746c-1.008-1.536-1.667-3.346-1.874-5.18
		c-0.215-1.838,0.007-3.664,0.438-5.371c0.459-1.702,1.125-3.305,1.922-4.802c0.197-0.372,0.419-0.748,0.64-1.122
		c0.235-0.383,0.379-0.628,0.676-1.073c0.536-0.797,1.167-1.503,1.835-2.123c1.348-1.229,2.796-2.152,4.208-2.951
		c2.813-1.586,5.529-2.898,6.659-5.188c0.645-1.226,0.992-2.542,0.815-3.729c-0.153-1.187-0.96-2.258-2.162-2.83
		c-1.178-0.598-2.7-0.67-3.955-0.037C423.305,66.159,422.466,67.601,422.207,69.174z"/>
</g>
<g>
	<g>
		<path fill="#FFFFFF" d="M467.371,285.285c-0.423,21.066-19.993,34.192-39.625,34.494c-19.635,0.302-39.212-13.873-39.626-34.494
			c-0.037-1.833-2.884-1.837-2.848,0c0.455,22.632,21.258,37.015,42.474,37.341c21.217,0.326,42.028-15.188,42.473-37.341
			C470.255,283.447,467.408,283.451,467.371,285.285L467.371,285.285z"/>
	</g>
</g>
<g>
	<path fill="#E1A046" d="M475.835,288.929c2.062-1.957,1.918-5.446-0.319-7.802c-2.237-2.354-5.716-2.676-7.776-0.719
		C467.739,280.408,475.727,282.593,475.835,288.929z"/>
</g>
<g>
	<path fill="#E1A046" d="M379.116,288.811c-1.967-2.051-1.661-5.531,0.685-7.779c2.345-2.247,5.834-2.405,7.802-0.354
		C387.603,280.678,379.521,282.486,379.116,288.811z"/>
</g>
<g>
	<g>
		<path fill="#E1A046" d="M394.528,219.806c-0.925,19.064-32.493,19.064-33.418,0c0.057,1.176-0.086,3.316-0.014,4.821
			c0.936,19.281,32.509,19.281,33.445,0C394.615,223.122,394.471,220.982,394.528,219.806L394.528,219.806z"/>
	</g>
</g>
<g>
	<g>
		<path fill="#E1A046" d="M502.376,217.293c-0.925,19.064-32.493,19.064-33.418,0c0.057,1.176-0.086,3.316-0.014,4.821
			c0.936,19.281,32.509,19.281,33.445,0C502.462,220.61,502.319,218.47,502.376,217.293L502.376,217.293z"/>
	</g>
</g>
</svg>
