<?xml version="1.0" encoding="utf-8"?>
<!-- Generator: Adobe Illustrator 16.0.0, SVG Export Plug-In . SVG Version: 6.00 Build 0)  -->
<!DOCTYPE svg PUBLIC "-//W3C//DTD SVG 1.1//EN" "http://www.w3.org/Graphics/SVG/1.1/DTD/svg11.dtd">
<svg version="1.1" id="Layer_1" xmlns="http://www.w3.org/2000/svg" xmlns:xlink="http://www.w3.org/1999/xlink" x="0px" y="0px"
	 width="841.89px" height="595.28px" viewBox="0 0 841.89 595.28" enable-background="new 0 0 841.89 595.28" xml:space="preserve">
<path fill="#FDBD56" d="M527.326,379.354c-3.711,2.934-43.439,21.49-88.875,23.728c-45.435,2.238-95.866-15.157-98-23.728
	c-4.548-18.268-8.291-204.175,0-230.818c5.771-18.55,42.475-71.87,98.041-67.675c0,0,73.621,14.943,83.129,82.071
	C531.119,229.993,534.792,373.45,527.326,379.354z"/>
<g>
	<g>
		<path fill="#FDBD56" d="M515.782,222.054c14.906,11.758,27.394,27.54,37.119,43.694c9.267,15.394,15.719,32.347,18.449,50.128
			c3.353,21.833-0.428,44.043-8.77,64.337c-1.63,3.963,4.801,5.672,6.406,1.766c15.99-38.899,11.824-80.62-8.768-116.881
			c-10.035-17.671-23.674-35.069-39.74-47.743C517.155,214.732,512.418,219.401,515.782,222.054L515.782,222.054z"/>
	</g>
</g>
<g>
	<g>
		<path fill="#FDBD56" d="M401.467,381.096c0,19.226,0,38.451,0,57.677c0,7.583,0,15.166,0,22.748c0,0.367,0.696-1.648,0.023-0.539
			c-0.084,0.139-1.056,1.033-2.054,1.413c-7.147,2.715-16.62-1.309-23.188-3.822c-4.009-1.534-5.726,4.892-1.767,6.406
			c7.935,3.037,27.442,10.099,33.028-1.152c0.793-1.598,0.602-3.257,0.602-4.994c0-4.662,0-9.324,0-13.986c0-21.25,0-42.5,0-63.75
			C408.111,376.811,401.467,376.811,401.467,381.096L401.467,381.096z"/>
	</g>
</g>
<g>
	<g>
		<path fill="#FDBD56" d="M472.49,381.096c0,19.226,0,38.451,0,57.677c0,7.583,0,15.166,0,22.748c0,0.367,0.696-1.648,0.023-0.539
			c-0.084,0.139-1.056,1.034-2.054,1.413c-7.147,2.715-16.619-1.309-23.188-3.822c-4.008-1.534-5.726,4.892-1.766,6.406
			c7.935,3.037,27.44,10.099,33.027-1.152c0.793-1.598,0.602-3.257,0.602-4.994c0-4.662,0-9.324,0-13.986c0-21.25,0-42.5,0-63.75
			C479.134,376.811,472.49,376.811,472.49,381.096L472.49,381.096z"/>
	</g>
</g>
<ellipse fill="#FFFFFF" cx="477" cy="227.985" rx="30.612" ry="15.793"/>
<path d="M485.667,227.983c0,7.287-6.578,13.195-14.693,13.195s-15.826-5.908-15.826-13.195c0-7.288,7.711-12.629,15.826-12.629
	S485.667,220.695,485.667,227.983z"/>
<ellipse fill="#FFFFFF" cx="478.846" cy="218.513" rx="1.718" ry="1.317"/>
<path opacity="0.65" fill="#FFFFFF" d="M467.017,238.011c0,0,2.826,1.512,7.348,0C474.365,238.011,470.595,241.886,467.017,238.011z
	"/>
<ellipse fill="#FFFFFF" cx="382.715" cy="228.267" rx="30.613" ry="15.793"/>
<path d="M405.336,228.147c0,7.287-6.58,13.195-14.694,13.195s-15.824-5.908-15.824-13.195s7.709-12.629,15.824-12.629
	S405.336,220.86,405.336,228.147z"/>
<path opacity="0.65" fill="#FFFFFF" d="M386.685,238.176c0,0,2.826,1.512,7.347,0C394.032,238.176,390.265,242.05,386.685,238.176z"
	/>
<g>
	<path fill="#E1A046" d="M359.096,176.072c2.025-1.731,4.208-3.249,6.438-4.725c2.25-1.442,4.6-2.753,7.076-3.866
		c1.237-0.559,2.481-1.137,3.778-1.633c1.298-0.489,2.675-0.805,4.092-0.898c1.417-0.085,2.871-0.01,4.283,0.352
		c1.404,0.347,2.785,0.959,3.838,1.961l-0.14,0.354c-1.399,0.037-2.636,0.164-3.856,0.352c-1.216,0.205-2.399,0.459-3.587,0.74
		c-1.187,0.283-2.383,0.54-3.619,0.76c-1.237,0.213-2.489,0.474-3.71,0.853c-2.441,0.761-4.867,1.685-7.266,2.704
		c-2.415,0.995-4.774,2.15-7.112,3.36L359.096,176.072z"/>
</g>
<g>
	<g>
		<path fill="#FFFFFF" d="M468.279,285.989c0.438,0.401,0.866,0.813,1.288,1.229c0.326,0.322,0.646,0.65,0.952,0.989
			c0.116,0.128,0.227,0.259,0.335,0.394c-0.133-0.166,0.007,0.023,0.027,0.054c0.095,0.147-0.043-0.258-0.047-0.284
			c0.063,0.539,0.407,0.996,0.997,0.996c0.496,0,1.059-0.455,0.997-0.996c-0.107-0.933-0.955-1.654-1.58-2.289
			c-0.506-0.514-1.028-1.014-1.56-1.501C468.744,283.712,467.331,285.118,468.279,285.989L468.279,285.989z"/>
	</g>
</g>
<g>
	<g>
		<path fill="#FFFFFF" d="M384.507,288.007c0.401-0.438,0.812-0.865,1.229-1.288c0.321-0.325,0.649-0.646,0.988-0.953
			c0.127-0.115,0.259-0.227,0.393-0.335c-0.166,0.133,0.023-0.008,0.054-0.027c0.146-0.095-0.258,0.043-0.285,0.047
			c0.54-0.063,0.997-0.406,0.997-0.997c0-0.496-0.456-1.059-0.997-0.997c-0.932,0.107-1.653,0.955-2.288,1.581
			c-0.514,0.507-1.013,1.029-1.5,1.562C382.231,287.544,383.637,288.957,384.507,288.007L384.507,288.007z"/>
	</g>
</g>
<g>
	<path fill="#E1A046" d="M500.223,177.414c-2.337-1.21-4.697-2.364-7.111-3.359c-2.399-1.021-4.825-1.944-7.267-2.705
		c-1.222-0.379-2.474-0.64-3.71-0.853c-1.235-0.219-2.433-0.477-3.619-0.76c-1.188-0.281-2.371-0.535-3.587-0.74
		c-1.22-0.187-2.457-0.314-3.856-0.352l-0.139-0.354c1.053-1.002,2.434-1.614,3.837-1.961c1.412-0.361,2.867-0.436,4.283-0.352
		c1.418,0.094,2.795,0.409,4.093,0.898c1.297,0.496,2.541,1.075,3.778,1.633c2.476,1.113,4.825,2.424,7.075,3.866
		c2.23,1.476,4.414,2.993,6.439,4.725L500.223,177.414z"/>
</g>
<g>
	<path fill="#594A42" d="M422.207,69.175c-0.068-0.795,0.01-1.627,0.291-2.424c0.29-0.793,0.816-1.533,1.521-2.082
		c1.423-1.115,3.42-1.354,5.188-0.816c1.778,0.525,3.384,2.055,3.91,3.995c0.561,1.938,0.111,3.884-0.542,5.52
		c-0.096,0.224-0.151,0.372-0.289,0.651c-0.094,0.184-0.156,0.333-0.31,0.584c-0.274,0.477-0.537,0.818-0.837,1.201
		c-0.602,0.723-1.286,1.322-1.97,1.861c-1.376,1.068-2.785,1.896-4.091,2.737c-1.301,0.837-2.543,1.635-3.518,2.579
		c-0.485,0.469-0.905,0.965-1.245,1.49c-0.143,0.217-0.4,0.656-0.574,0.953c-0.175,0.313-0.351,0.623-0.52,0.955
		c-1.388,2.59-2.312,5.391-2.131,8.052c0.074,1.328,0.458,2.604,1.122,3.765c0.673,1.153,1.609,2.196,2.718,3.098
		c2.25,1.777,5.108,2.976,8.086,3.717c2.988,0.785,6.131,1.086,9.326,1.182c-3.114,0.744-6.377,0.959-9.646,0.655
		c-3.249-0.354-6.572-1.216-9.5-3.151c-1.459-0.954-2.811-2.195-3.811-3.745c-1.008-1.536-1.667-3.345-1.874-5.18
		c-0.215-1.839,0.006-3.664,0.437-5.37c0.459-1.703,1.126-3.305,1.923-4.803c0.197-0.371,0.419-0.747,0.64-1.122
		c0.235-0.383,0.379-0.628,0.676-1.072c0.536-0.798,1.167-1.504,1.835-2.124c1.348-1.229,2.797-2.152,4.208-2.95
		c2.813-1.586,5.53-2.897,6.659-5.188c0.645-1.226,0.992-2.542,0.815-3.729c-0.153-1.186-0.96-2.258-2.162-2.83
		c-1.178-0.598-2.7-0.67-3.955-0.036C423.305,66.159,422.466,67.601,422.207,69.175z"/>
</g>
<ellipse fill="#FFFFFF" cx="398.484" cy="219.003" rx="1.718" ry="1.316"/>
<g>
	<g>
		<path fill="#FFFFFF" d="M467.371,285.284c-0.423,21.066-19.992,34.192-39.625,34.494c-19.635,0.302-39.212-13.873-39.626-34.494
			c-0.037-1.833-2.884-1.837-2.848,0c0.455,22.633,21.258,37.016,42.474,37.342c21.217,0.326,42.027-15.188,42.472-37.342
			C470.255,283.447,467.408,283.451,467.371,285.284L467.371,285.284z"/>
	</g>
</g>
<g>
	<path fill="#E1A046" d="M475.835,288.929c2.061-1.957,1.918-5.445-0.32-7.801c-2.236-2.355-5.715-2.677-7.775-0.721
		C467.74,280.407,475.726,282.593,475.835,288.929z"/>
</g>
<g>
	<path fill="#E1A046" d="M379.116,288.812c-1.967-2.052-1.661-5.531,0.685-7.779c2.345-2.247,5.834-2.406,7.802-0.354
		C387.603,280.678,379.521,282.486,379.116,288.812z"/>
</g>
<g>
	<g>
		<path fill="#FDBD56" d="M347.414,300.895c-9.825-11.702-19.009-23.991-27.776-36.498c-7.493-10.689-14.61-21.668-20.932-33.095
			c-5.444-9.84-10.55-20.231-12.946-31.288c-1.668-7.7-1.384-16.182,6.467-19.772c4.749-2.173,10.747-1.793,15.783-1.344
			c9.49,0.846,18.855,3.627,27.877,6.554c4.087,1.325,5.824-5.091,1.767-6.407c-15.473-5.018-54.56-17.123-58.964,8.986
			c-1.601,9.49,1.738,19.403,5.284,28.076c4.784,11.696,11.091,22.727,17.792,33.416c12.264,19.56,26.1,38.385,40.949,56.069
			C345.474,308.878,350.149,304.152,347.414,300.895L347.414,300.895z"/>
	</g>
</g>
</svg>
