<?xml version="1.0" encoding="utf-8"?>
<!-- Generator: Adobe Illustrator 16.0.0, SVG Export Plug-In . SVG Version: 6.00 Build 0)  -->
<!DOCTYPE svg PUBLIC "-//W3C//DTD SVG 1.1//EN" "http://www.w3.org/Graphics/SVG/1.1/DTD/svg11.dtd">
<svg version="1.1" id="Layer_1" xmlns="http://www.w3.org/2000/svg" xmlns:xlink="http://www.w3.org/1999/xlink" x="0px" y="0px"
	 width="841.89px" height="595.28px" viewBox="0 0 841.89 595.28" enable-background="new 0 0 841.89 595.28" xml:space="preserve">
<path fill="#FCC04E" d="M510.633,407.22c-3.91,3.091-45.765,22.642-93.633,24.999S316,416.25,313.752,407.22
	c-4.791-19.245-8.733-215.107,0-243.177c6.081-19.542,44.749-75.719,103.29-71.298c0,0,77.563,15.744,87.58,86.465
	C514.629,249.862,518.5,401,510.633,407.22z"/>
<g>
	<g>
		<path fill="#FCC04E" d="M311.377,274.268c-2.406,7.079-5.599,13.94-9.16,20.502c-5.063,9.331-12.47,21.66-23.716,24.051
			c-5.89,1.252-11.328-2.684-15.247-6.583c-8.374-8.336-13.286-19.935-17.983-30.552c-8.369-18.914-16.185-38.302-21.701-58.268
			c-0.742-2.685-1.485-5.401-1.974-8.147c-0.789-4.439-7.534-2.552-6.75,1.861c1.596,8.978,4.753,17.813,7.729,26.394
			c3.9,11.243,8.347,22.29,12.99,33.244c5.103,12.041,10.172,24.383,18.069,34.914c7.97,10.63,19.775,18.182,32.812,11.665
			c10.719-5.358,17.853-17.391,23.184-27.619c3.277-6.288,6.212-12.881,8.497-19.602
			C319.584,271.843,312.821,270.019,311.377,274.268L311.377,274.268z"/>
	</g>
</g>
<g>
	<g>
		<path fill="#FCC04E" d="M500.015,242.397c15.157,3.635,30.054,9.244,44.225,15.656c25.366,11.478,51.533,27.496,65.956,52.114
			c11.648,19.886,10.768,42.596,2.188,63.461c-1.717,4.176,5.058,5.976,6.75,1.861c6.229-15.146,8.768-31.427,5.432-47.583
			c-2.884-13.968-10.515-26.486-19.928-37.01c-18.609-20.807-44.672-34.396-70.272-44.577c-10.551-4.195-21.431-8.021-32.488-10.672
			C497.488,234.595,495.627,241.344,500.015,242.397L500.015,242.397z"/>
	</g>
</g>
<g>
	<g>
		<path fill="#FCC04E" d="M378.034,409.056c0,20.29,0,40.58,0,60.87c0,7.997,0,15.994,0,23.992c0-0.317,0.733-1.82-0.031-0.612
			c-0.097,0.152-1.188,1.077-2.399,1.5c-7.514,2.625-17.256-1.486-24.139-4.125c-4.223-1.618-6.031,5.151-1.861,6.75
			c8.509,3.262,28.614,10.546,34.751-1.12c0.858-1.633,0.68-3.298,0.68-5.083c0-4.791,0-9.582,0-14.373c0-22.6,0-45.199,0-67.799
			C385.034,404.542,378.034,404.542,378.034,409.056L378.034,409.056z"/>
	</g>
</g>
<g>
	<g>
		<path fill="#FCC04E" d="M452.861,409.056c0,20.29,0,40.58,0,60.87c0,7.997,0,15.994,0,23.992c0-0.317,0.733-1.82-0.031-0.612
			c-0.097,0.152-1.188,1.077-2.399,1.5c-7.514,2.625-17.256-1.486-24.139-4.125c-4.222-1.618-6.031,5.151-1.861,6.75
			c8.509,3.262,28.614,10.546,34.751-1.12c0.858-1.633,0.68-3.298,0.68-5.083c0-4.791,0-9.582,0-14.373c0-22.6,0-45.199,0-67.799
			C459.861,404.542,452.861,404.542,452.861,409.056L452.861,409.056z"/>
	</g>
</g>
<circle fill="#FFFFFF" cx="457.613" cy="231.856" r="32.252"/>
<path d="M476.744,231.851c0,14.883-6.931,26.947-15.48,26.947s-16.672-12.064-16.672-26.947c0-14.882,8.122-25.789,16.672-25.789
	S476.744,216.968,476.744,231.851z"/>
<ellipse fill="#FFFFFF" cx="469.558" cy="212.513" rx="1.81" ry="2.688"/>
<path opacity="0.65" fill="#FFFFFF" d="M457.096,252.33c0,0,2.977,3.087,7.74,0C464.836,252.33,460.866,260.242,457.096,252.33z"/>
<circle fill="#FFFFFF" cx="358.279" cy="232.43" r="32.252"/>
<path d="M372.11,232.187c0,14.883-6.93,26.947-15.48,26.947c-8.549,0-16.672-12.064-16.672-26.947
	c0-14.882,8.123-25.789,16.672-25.789C365.181,206.397,372.11,217.304,372.11,232.187z"/>
<path opacity="0.65" fill="#FFFFFF" d="M352.462,252.666c0,0,2.977,3.087,7.74,0C360.202,252.666,356.233,260.578,352.462,252.666z"
	/>
<g>
	<path fill="#E5A43B" d="M333.396,193.054c2.133-1.824,4.434-3.422,6.783-4.978c2.371-1.52,4.846-2.901,7.454-4.074
		c1.304-0.587,2.614-1.197,3.98-1.721c1.368-0.515,2.817-0.847,4.312-0.946c1.492-0.089,3.025-0.01,4.512,0.371
		c1.479,0.365,2.935,1.01,4.044,2.065l-0.147,0.372c-1.475,0.04-2.777,0.174-4.063,0.371c-1.281,0.215-2.527,0.483-3.779,0.78
		c-1.25,0.298-2.511,0.569-3.813,0.8c-1.303,0.224-2.621,0.499-3.908,0.898c-1.289,0.393-2.57,0.84-3.843,1.327
		c-1.28,0.469-2.552,0.979-3.813,1.522c-2.543,1.048-5.029,2.264-7.492,3.54L333.396,193.054z"/>
</g>
<g>
	<g>
		<path fill="#FFFFFF" d="M449.168,309.164c1.354,0,1.354-2.1,0-2.1S447.813,309.164,449.168,309.164L449.168,309.164z"/>
	</g>
</g>
<g>
	<g>
		<path fill="#FFFFFF" d="M362.673,308.288c1.354,0,1.354-2.1,0-2.1S361.318,308.288,362.673,308.288L362.673,308.288z"/>
	</g>
</g>
<g>
	<path fill="#E5A43B" d="M482.079,194.468c-2.463-1.275-4.948-2.492-7.492-3.54c-1.261-0.543-2.532-1.054-3.813-1.522
		c-1.271-0.487-2.553-0.934-3.842-1.327c-1.287-0.399-2.606-0.674-3.909-0.898c-1.302-0.231-2.563-0.502-3.813-0.8
		c-1.251-0.296-2.498-0.564-3.779-0.78c-1.284-0.197-2.588-0.331-4.062-0.371l-0.148-0.372c1.109-1.055,2.564-1.701,4.044-2.065
		c1.487-0.381,3.021-0.46,4.513-0.371c1.493,0.099,2.943,0.431,4.311,0.946c1.367,0.523,2.678,1.133,3.98,1.721
		c2.609,1.173,5.084,2.554,7.455,4.074c2.35,1.555,4.649,3.154,6.783,4.978L482.079,194.468z"/>
</g>
<g>
	<path fill="#634E42" d="M399.886,80.432c-0.071-0.837,0.01-1.713,0.307-2.554c0.305-0.835,0.86-1.614,1.603-2.192
		c1.499-1.175,3.604-1.426,5.466-0.861c0.938,0.291,1.826,0.814,2.557,1.541c0.729,0.726,1.276,1.666,1.563,2.668
		c0.592,2.041,0.119,4.092-0.569,5.815c-0.102,0.234-0.159,0.391-0.305,0.686c-0.099,0.193-0.164,0.351-0.326,0.615
		c-0.289,0.502-0.565,0.863-0.883,1.266c-0.634,0.762-1.354,1.393-2.075,1.962c-1.45,1.125-2.935,1.997-4.31,2.883
		c-1.372,0.882-2.673,1.734-3.692,2.731c-0.508,0.496-0.956,1.01-1.314,1.563c-0.152,0.226-0.426,0.688-0.609,1
		c-0.186,0.329-0.374,0.654-0.553,1.004c-1.464,2.727-2.437,5.679-2.246,8.482c0.078,1.399,0.482,2.744,1.182,3.967
		c0.709,1.214,1.695,2.313,2.863,3.263c2.37,1.873,5.381,3.135,8.519,3.917c3.147,0.828,6.46,1.144,9.825,1.244
		c-3.281,0.785-6.719,1.011-10.162,0.69c-3.423-0.373-6.924-1.28-10.008-3.319c-1.537-1.006-2.961-2.314-4.016-3.946
		c-1.062-1.619-1.756-3.525-1.975-5.458c-0.227-1.937,0.008-3.86,0.461-5.658c0.484-1.793,1.188-3.481,2.025-5.06
		c0.206-0.392,0.438-0.789,0.669-1.185c0.247-0.404,0.396-0.663,0.708-1.133c0.563-0.842,1.223-1.594,1.93-2.245
		c1.426-1.292,2.961-2.252,4.447-3.094c2.964-1.671,5.826-3.053,7.016-5.465c0.68-1.292,1.045-2.678,0.859-3.928
		c-0.162-1.25-1.012-2.379-2.279-2.982c-1.24-0.63-2.844-0.706-4.166-0.039C401.042,77.255,400.158,78.774,399.886,80.432z"/>
</g>
<ellipse fill="#FFFFFF" cx="364.892" cy="213.513" rx="1.811" ry="2.688"/>
<g>
	<path fill="#FFFFFF" d="M448.969,308.114c0,20.915-17.287,40.219-41.191,40.219s-45.304-19.304-45.304-40.219
		c0,0,17.432,25.889,43.247,25.553C418.429,333.502,435.567,331.911,448.969,308.114z"/>
	<g>
		<path fill="#FFFFFF" d="M447.469,308.114c-0.373,21.737-18.264,38.358-39.691,38.719c-21.106,0.354-43.338-16.74-43.804-38.719
			c-0.932,0.252-1.863,0.505-2.795,0.757c8.511,12.525,22.308,22.985,37.317,25.723c8.665,1.581,18.692,0.48,26.932-2.541
			c11.11-4.073,19.053-13.19,24.836-23.182c0.972-1.678-1.621-3.188-2.59-1.514c-5.678,9.808-13.227,18.203-24.068,22.179
			c-7.852,2.879-17.441,3.418-25.623,1.926c-13.604-2.481-26.529-12.796-34.214-24.104c-0.8-1.177-2.828-0.819-2.795,0.757
			c0.513,24.153,24.029,41.337,46.804,41.719c23.072,0.387,42.3-18.914,42.691-41.719
			C450.502,306.179,447.502,306.182,447.469,308.114z"/>
	</g>
</g>
<g>
	<path fill="#E5A43B" d="M456.386,311.954c2.171-2.062,2.021-5.738-0.337-8.22c-2.357-2.48-6.021-2.819-8.193-0.758
		C447.855,302.977,456.271,305.278,456.386,311.954z"/>
</g>
<g>
	<path fill="#E5A43B" d="M354.487,311.829c-2.072-2.161-1.75-5.827,0.722-8.195c2.471-2.367,6.146-2.534,8.22-0.373
		C363.429,303.261,354.914,305.166,354.487,311.829z"/>
</g>
<circle fill="#FCC04E" cx="218.221" cy="215.513" r="11.957"/>
<g>
	<path fill="#EC6749" d="M416.555,348.333c-6.358-5.993-14.085-5.343-19.33,0.221C397.225,348.554,414.555,351.167,416.555,348.333z
		"/>
</g>
</svg>
