<?xml version="1.0" encoding="utf-8"?>
<!-- Generator: Adobe Illustrator 16.0.0, SVG Export Plug-In . SVG Version: 6.00 Build 0)  -->
<!DOCTYPE svg PUBLIC "-//W3C//DTD SVG 1.1//EN" "http://www.w3.org/Graphics/SVG/1.1/DTD/svg11.dtd">
<svg version="1.1" id="Layer_1" xmlns="http://www.w3.org/2000/svg" xmlns:xlink="http://www.w3.org/1999/xlink" x="0px" y="0px"
	 width="841.89px" height="595.28px" viewBox="0 0 841.89 595.28" enable-background="new 0 0 841.89 595.28" xml:space="preserve">
<path fill="#FCC04E" d="M510.633,407.22c-3.91,3.091-45.765,22.642-93.633,24.999c-47.869,2.357-101-15.969-103.248-24.999
	c-4.791-19.245-8.733-215.107,0-243.177c6.081-19.542,44.749-75.719,103.29-71.298c0,0,77.563,15.744,87.58,86.465
	C514.629,249.862,518.5,401,510.633,407.22z"/>
<g>
	<g>
		<path fill="#FCC04E" d="M348.958,305.553c-20.401-0.75-40.983-13.732-55.729-26.68c-15.386-13.51-27.914-30.845-37.495-48.874
			c-3.362-6.328-6.923-13.408-8.155-20.566c-0.56-3.25-5.496-1.868-4.939,1.362c1.306,7.582,5.166,15.059,8.672,21.79
			c9.865,18.94,23.404,36.834,39.458,50.931c15.396,13.518,37.009,26.381,58.189,27.16
			C352.264,310.797,352.251,305.674,348.958,305.553L348.958,305.553z"/>
	</g>
</g>
<g>
	<g>
		<path fill="#FCC04E" d="M500.014,242.397c15.158,3.635,30.055,9.244,44.226,15.656c25.366,11.478,51.533,27.496,65.956,52.114
			c11.648,19.886,10.768,42.596,2.188,63.461c-1.717,4.176,5.059,5.976,6.75,1.861c6.229-15.146,8.768-31.427,5.432-47.583
			c-2.885-13.968-10.515-26.486-19.928-37.01c-18.609-20.807-44.672-34.396-70.273-44.577c-10.551-4.195-21.43-8.021-32.487-10.672
			C497.488,234.595,495.627,241.344,500.014,242.397L500.014,242.397z"/>
	</g>
</g>
<g>
	<g>
		<path fill="#FCC04E" d="M378.034,409.056c0,20.29,0,40.58,0,60.87c0,7.997,0,15.994,0,23.992c0-0.317,0.733-1.82-0.031-0.612
			c-0.097,0.152-1.188,1.077-2.399,1.5c-7.514,2.625-17.256-1.486-24.139-4.125c-4.223-1.618-6.031,5.151-1.861,6.75
			c8.51,3.262,28.614,10.546,34.751-1.12c0.858-1.633,0.68-3.298,0.68-5.083c0-4.791,0-9.582,0-14.373c0-22.6,0-45.199,0-67.799
			C385.034,404.542,378.034,404.542,378.034,409.056L378.034,409.056z"/>
	</g>
</g>
<g>
	<g>
		<path fill="#FCC04E" d="M452.861,409.056c0,20.29,0,40.58,0,60.87c0,7.997,0,15.994,0,23.992c0-0.317,0.734-1.82-0.031-0.612
			c-0.097,0.152-1.188,1.077-2.399,1.5c-7.514,2.625-17.256-1.486-24.139-4.125c-4.222-1.618-6.032,5.151-1.861,6.75
			c8.509,3.262,28.614,10.546,34.751-1.12c0.858-1.633,0.68-3.298,0.68-5.083c0-4.791,0-9.582,0-14.373c0-22.6,0-45.199,0-67.799
			C459.861,404.542,452.861,404.542,452.861,409.056L452.861,409.056z"/>
	</g>
</g>
<circle fill="#FFFFFF" cx="457.613" cy="231.856" r="32.252"/>
<path d="M466.744,231.851c0,14.883-6.932,26.947-15.48,26.947c-8.55,0-16.672-12.064-16.672-26.947
	c0-14.882,8.122-25.789,16.672-25.789C459.813,206.062,466.744,216.968,466.744,231.851z"/>
<ellipse fill="#FFFFFF" cx="459.558" cy="212.513" rx="1.81" ry="2.688"/>
<path opacity="0.65" fill="#FFFFFF" d="M447.096,252.33c0,0,2.977,3.087,7.74,0C454.836,252.33,450.866,260.242,447.096,252.33z"/>
<circle fill="#FFFFFF" cx="358.279" cy="232.43" r="32.252"/>
<path d="M382.109,232.187c0,14.883-6.93,26.947-15.479,26.947s-16.672-12.064-16.672-26.947c0-14.882,8.122-25.789,16.672-25.789
	S382.109,217.304,382.109,232.187z"/>
<path opacity="0.65" fill="#FFFFFF" d="M362.462,252.666c0,0,2.977,3.087,7.74,0C370.202,252.666,366.233,260.578,362.462,252.666z"
	/>
<g>
	<path fill="#E5A43B" d="M333.396,193.054c2.133-1.824,4.435-3.422,6.783-4.978c2.371-1.52,4.846-2.901,7.454-4.074
		c1.304-0.587,2.615-1.197,3.98-1.721c1.367-0.515,2.817-0.847,4.312-0.946c1.492-0.089,3.025-0.01,4.512,0.371
		c1.479,0.365,2.935,1.01,4.044,2.065l-0.147,0.372c-1.475,0.04-2.777,0.174-4.063,0.371c-1.281,0.215-2.527,0.483-3.779,0.78
		c-1.25,0.298-2.511,0.569-3.813,0.8c-1.303,0.224-2.621,0.499-3.908,0.898c-1.29,0.393-2.57,0.84-3.843,1.327
		c-1.28,0.469-2.552,0.979-3.814,1.522c-2.542,1.048-5.028,2.264-7.491,3.54L333.396,193.054z"/>
</g>
<g>
	<g>
		<path fill="#FFFFFF" d="M449.168,309.164c1.354,0,1.354-2.1,0-2.1S447.814,309.164,449.168,309.164L449.168,309.164z"/>
	</g>
</g>
<g>
	<g>
		<path fill="#FFFFFF" d="M362.673,308.288c1.354,0,1.354-2.1,0-2.1S361.318,308.288,362.673,308.288L362.673,308.288z"/>
	</g>
</g>
<g>
	<path fill="#E5A43B" d="M482.08,194.468c-2.465-1.275-4.949-2.492-7.493-3.54c-1.261-0.543-2.532-1.054-3.813-1.522
		c-1.271-0.487-2.553-0.934-3.842-1.327c-1.287-0.399-2.606-0.674-3.909-0.898c-1.302-0.231-2.563-0.502-3.813-0.8
		c-1.251-0.296-2.499-0.564-3.779-0.78c-1.284-0.197-2.588-0.331-4.062-0.371l-0.148-0.372c1.109-1.055,2.564-1.701,4.043-2.065
		c1.488-0.381,3.021-0.46,4.514-0.371c1.493,0.099,2.943,0.431,4.311,0.946c1.367,0.523,2.678,1.133,3.98,1.721
		c2.609,1.173,5.084,2.554,7.455,4.074c2.35,1.555,4.649,3.154,6.783,4.978L482.08,194.468z"/>
</g>
<g>
	<path fill="#634E42" d="M399.886,80.432c-0.071-0.837,0.01-1.713,0.307-2.554c0.306-0.835,0.86-1.614,1.603-2.192
		c1.499-1.175,3.604-1.426,5.465-0.861c0.938,0.291,1.827,0.814,2.558,1.541c0.729,0.726,1.276,1.666,1.562,2.668
		c0.593,2.041,0.119,4.092-0.568,5.815c-0.102,0.234-0.159,0.391-0.305,0.686c-0.099,0.193-0.164,0.351-0.326,0.615
		c-0.289,0.502-0.566,0.863-0.883,1.266c-0.633,0.762-1.354,1.393-2.075,1.962c-1.45,1.125-2.935,1.997-4.31,2.883
		c-1.372,0.882-2.673,1.734-3.692,2.731c-0.509,0.496-0.956,1.01-1.314,1.563c-0.152,0.226-0.426,0.688-0.61,1
		c-0.186,0.329-0.373,0.654-0.552,1.004c-1.464,2.727-2.437,5.679-2.245,8.482c0.077,1.399,0.481,2.744,1.181,3.967
		c0.709,1.214,1.695,2.313,2.863,3.263c2.37,1.873,5.381,3.135,8.519,3.917c3.147,0.828,6.46,1.144,9.825,1.244
		c-3.281,0.785-6.719,1.011-10.162,0.69c-3.423-0.373-6.924-1.28-10.009-3.319c-1.536-1.006-2.96-2.314-4.015-3.946
		c-1.062-1.619-1.756-3.525-1.975-5.458c-0.228-1.937,0.008-3.86,0.461-5.658c0.484-1.793,1.188-3.481,2.024-5.06
		c0.207-0.392,0.439-0.789,0.67-1.185c0.246-0.404,0.396-0.663,0.708-1.133c0.563-0.842,1.223-1.594,1.93-2.245
		c1.426-1.292,2.961-2.252,4.446-3.094c2.965-1.671,5.827-3.053,7.016-5.465c0.681-1.292,1.046-2.678,0.86-3.928
		c-0.162-1.25-1.011-2.379-2.28-2.982c-1.239-0.63-2.843-0.706-4.165-0.039C401.042,77.255,400.158,78.774,399.886,80.432z"/>
</g>
<ellipse fill="#FFFFFF" cx="374.891" cy="213.513" rx="1.811" ry="2.688"/>
<g>
	<path fill="#FFFFFF" d="M448.969,308.114c0,20.915-17.287,40.219-41.191,40.219s-45.304-19.304-45.304-40.219
		c0,0,10.013,8.472,35.828,8.136C411.01,316.085,420.944,317.5,448.969,308.114z"/>
	<g>
		<path fill="#FFFFFF" d="M447.469,308.114c-0.373,21.737-18.264,38.358-39.691,38.719c-21.106,0.354-43.338-16.74-43.804-38.719
			c-0.853,0.354-1.707,0.707-2.56,1.061c9.748,8.073,25.877,8.69,37.73,8.566c6.443-0.067,12.838,0.053,19.254-0.659
			c10.586-1.174,20.893-4.185,30.969-7.521c1.828-0.604,1.045-3.503-0.797-2.893c-15.885,5.26-31.083,8.073-47.758,8.066
			c-11.516-0.005-28.004,0-37.278-7.681c-0.95-0.788-2.591-0.35-2.561,1.061c0.513,24.153,24.029,41.337,46.804,41.719
			c23.072,0.387,42.3-18.914,42.691-41.719C450.502,306.179,447.502,306.182,447.469,308.114z"/>
	</g>
</g>
<g>
	<path fill="#E5A43B" d="M456.386,311.954c2.171-2.062,2.021-5.738-0.337-8.22c-2.357-2.48-6.021-2.819-8.193-0.758
		C447.855,302.977,456.271,305.278,456.386,311.954z"/>
</g>
<g>
	<path fill="#E5A43B" d="M354.487,311.829c-2.073-2.161-1.75-5.827,0.722-8.195c2.471-2.367,6.146-2.534,8.219-0.373
		C363.428,303.261,354.914,305.166,354.487,311.829z"/>
</g>
<path fill="#FCC04E" d="M274.348,209.565c0,19.832-16.073,35.908-35.908,35.908c-19.83,0-35.908-16.076-35.908-35.908
	c0-19.832,16.078-35.907,35.908-35.907C258.274,173.658,274.348,189.734,274.348,209.565z"/>
<g>
	<path fill="#EC6749" d="M416.555,348.333c-6.358-5.993-14.085-5.343-19.33,0.221C397.225,348.554,414.555,351.167,416.555,348.333z
		"/>
</g>
</svg>
