<?xml version="1.0" encoding="utf-8"?>
<!-- Generator: Adobe Illustrator 16.0.0, SVG Export Plug-In . SVG Version: 6.00 Build 0)  -->
<!DOCTYPE svg PUBLIC "-//W3C//DTD SVG 1.1//EN" "http://www.w3.org/Graphics/SVG/1.1/DTD/svg11.dtd">
<svg version="1.1" id="Layer_1" xmlns="http://www.w3.org/2000/svg" xmlns:xlink="http://www.w3.org/1999/xlink" x="0px" y="0px"
	 width="841.89px" height="595.28px" viewBox="0 0 841.89 595.28" enable-background="new 0 0 841.89 595.28" xml:space="preserve">
<path fill="#70A3C1" d="M486.587,419.097c111.77-41.399,27.931-113.598,27.931-113.598c57.64-38.77,36.107-160.432,36.107-160.432
	c6.579-1.488,12.942-6.204,15.551-9.255c4.376-5.12,7.019-11.767,7.019-19.03c0-16.187-13.122-29.308-29.309-29.308
	c-16.186,0-29.308,13.122-29.308,29.308c0,3.9,0.82,7.609,2.204,11.012c-113.137-25.4-208.275,0-208.275,0
	c1.383-3.403,2.352-7.028,2.352-10.929c0-16.187-13.122-29.308-29.309-29.308c-16.186,0-29.309,13.122-29.309,29.308
	c0,7.264,2.644,13.91,7.02,19.031c4.031,4.717,9.535,8.14,15.799,9.556c0,0-22.184,121.663,35.456,160.434
	c0,0-83.396,82.029,31.883,112.314C342.398,418.201,454.69,430.912,486.587,419.097z"/>
<path fill="none" stroke="#5D6733" stroke-width="0.6513" stroke-miterlimit="10" d="M573.194,478.125"/>
<circle fill="#FFFFFF" cx="353.699" cy="223.218" r="26.705"/>
<circle fill="#FFFFFF" cx="465.52" cy="223.218" r="26.705"/>
<g>
	<g>
		<path fill="#558AA5" d="M445.518,193.749c8.019-14.87,35.752-16.102,45.214-1.864c1.387,2.088,4.773,0.133,3.374-1.973
			c-11.022-16.587-42.422-15.828-51.962,1.864C440.948,193.994,444.322,195.967,445.518,193.749L445.518,193.749z"/>
	</g>
</g>
<g>
	<g>
		<path fill="#558AA5" d="M330.635,191.924c8.019-14.87,35.752-16.101,45.214-1.864c1.387,2.088,4.773,0.133,3.374-1.973
			c-11.022-16.587-42.422-15.828-51.962,1.864C326.065,192.169,329.439,194.143,330.635,191.924L330.635,191.924z"/>
	</g>
</g>
<g>
	<path fill="#558AA5" d="M453.246,339.413c9.741-4.524-22.71-11.851-39.52-11.243c-18.155,0.658-33.55,7.176-40.232,15.992
		C373.494,344.162,396.382,365.825,453.246,339.413z"/>
	<g>
		<path fill="#558AA5" d="M455.517,343.298c6.164-3.169,4.158-9.533-1.063-12.31c-7.583-4.033-17.069-5.299-25.46-6.373
			c-19.53-2.498-45.422-0.285-58.682,16.364c-1.484,1.864-1.939,4.552,0,6.364c5.498,5.136,13.739,7.565,20.945,8.753
			C413.284,359.726,435.728,352.372,455.517,343.298c5.271-2.417,0.694-10.172-4.542-7.771
			c-17.728,8.128-38.365,15.016-58.135,11.758c-4.401-0.725-8.691-1.994-12.513-3.985c-1.126-0.586-2.21-1.253-3.247-1.985
			c-0.761-0.537,0.629,0.63-0.403-0.335c0,2.122,0,4.243,0,6.364c9.884-12.411,28.785-15.336,43.678-14.569
			c7.006,0.361,13.981,1.526,20.798,3.156c2.616,0.625,5.197,1.395,7.712,2.346c0.76,0.288,1.473,0.699,2.168,1.113
			c1.109,0.661,1.616-4.724-0.058-3.863C445.812,338.182,450.366,345.947,455.517,343.298z"/>
	</g>
</g>
<path fill="#FFFFFF" d="M384.051,335.44c0,0,8.104,11.074,14.166,8.033c2.755-1.381,3.664-5.428,5.699-15.198
	c0,0-12.158,2.606-19.865,6.296l-0.489,0.164L384.051,335.44z"/>
<g>
	<g>
		<path fill="#70A3C1" d="M532.142,270.974c-0.871,0.404-0.233,0.078,0.94-0.309c1.671-0.551,3.338-0.848,4.237-0.922
			c3.907-0.322,7.097,0.726,9.394,4.645c4.54,7.748,2.096,17.982,1.834,26.357c-0.163,5.233,1.338,10.82,5.833,13.925
			c9.026,6.237,22.676-1.009,30.878-5.352c12.268-6.495,23.609-14.787,34.569-23.258c4.072-3.148,8.119-6.343,12.038-9.681
			c4.482-3.819-2-10.238-6.448-6.448c-5.929,5.051-12.107,9.824-18.378,14.439c-10.838,7.977-22.383,16.208-34.995,21.134
			c-4.191,1.637-8.832,3.02-12.301,1.822c-0.063-0.022-1.163-1.004-1.452-1.784c-0.926-2.495-0.677-5.288-0.413-7.903
			c1.301-12.924,0.975-34.409-15.975-36.779c-4.892-0.684-9.887,0.164-14.362,2.239
			C522.209,265.572,526.844,273.431,532.142,270.974L532.142,270.974z"/>
	</g>
</g>
<circle fill="#70A3C1" cx="633.11" cy="273.156" r="12.243"/>
<circle fill="#70A3C1" cx="193.11" cy="285.398" r="12.243"/>
<g>
	<g>
		<path fill="#70A3C1" d="M289.595,259.596c-4.312,22.085-10.049,44.299-18.31,65.243c-2.414,6.122-5.23,12.147-8.803,17.684
			c-2.274,3.525-5.359,7.114-8.485,7.921c-1.114,0.288-2.839-0.206-4.676-2.298c-3.205-3.652-6.411-7.304-9.616-10.956
			c-14.457-16.471-28.915-32.942-43.372-49.414c-3.886-4.427-10.31,2.048-6.447,6.448c16.347,18.625,32.694,37.25,49.042,55.874
			c4.983,5.678,10.674,12.063,19.156,8.583c10.867-4.459,16.463-18.099,20.657-28.145c9.116-21.833,15.118-45.318,19.647-68.517
			C299.509,256.276,290.721,253.828,289.595,259.596L289.595,259.596z"/>
	</g>
</g>
<circle fill="#70A3C1" cx="341.975" cy="416.843" r="12.375"/>
<circle fill="#70A3C1" cx="468.125" cy="422.923" r="12.375"/>
<g>
	<line fill="#70A3C1" x1="341.975" y1="422.923" x2="341.975" y2="501.945"/>
	<g>
		<path fill="#70A3C1" d="M337.416,422.923c0,26.34,0,52.681,0,79.021c0,5.88,9.118,5.88,9.118,0c0-26.34,0-52.681,0-79.021
			C346.534,417.043,337.416,417.043,337.416,422.923L337.416,422.923z"/>
	</g>
</g>
<g>
	<line fill="#70A3C1" x1="468.125" y1="422.923" x2="468.125" y2="501.945"/>
	<g>
		<path fill="#70A3C1" d="M463.566,422.923c0,26.34,0,52.681,0,79.021c0,5.88,9.118,5.88,9.118,0c0-26.34,0-52.681,0-79.021
			C472.684,417.043,463.566,417.043,463.566,422.923L463.566,422.923z"/>
	</g>
</g>
<ellipse fill="#70A3C1" cx="328.034" cy="504.875" rx="17.197" ry="2.932"/>
<ellipse fill="#70A3C1" cx="481.152" cy="504.224" rx="17.197" ry="2.932"/>
<circle cx="351.575" cy="233.998" r="13.114"/>
<circle cx="463.796" cy="233.94" r="13.171"/>
<circle fill="#FFFFFF" cx="349.71" cy="245.247" r="1.866"/>
<circle fill="#FFFFFF" cx="461.923" cy="245.239" r="1.874"/>
</svg>
