<?xml version="1.0" encoding="utf-8"?>
<!-- Generator: Adobe Illustrator 16.0.0, SVG Export Plug-In . SVG Version: 6.00 Build 0)  -->
<!DOCTYPE svg PUBLIC "-//W3C//DTD SVG 1.1//EN" "http://www.w3.org/Graphics/SVG/1.1/DTD/svg11.dtd">
<svg version="1.1" id="Layer_1" xmlns="http://www.w3.org/2000/svg" xmlns:xlink="http://www.w3.org/1999/xlink" x="0px" y="0px"
	 width="841.89px" height="595.28px" viewBox="0 0 841.89 595.28" enable-background="new 0 0 841.89 595.28" xml:space="preserve">
<g>
	<defs>
		<rect id="SVGID_13_" x="2.361" y="30.013" width="299.535" height="513.052"/>
	</defs>
	<clipPath id="SVGID_2_">
		<use xlink:href="#SVGID_13_"  overflow="visible"/>
	</clipPath>
	<g clip-path="url(#SVGID_2_)">
		<path fill="#70A3C1" d="M41.729,422.89C152.066,377.807,65.88,308.427,65.88,308.427c56.323-40.658,30.771-161.539,30.771-161.539
			c6.524-1.705,12.726-6.63,15.234-9.767c4.204-5.263,6.624-11.991,6.384-19.253c-0.536-16.178-14.086-28.855-30.265-28.32
			c-16.176,0.537-28.856,14.085-28.319,30.265c0.129,3.897,1.072,7.577,2.568,10.932c-113.917-21.636-208.162,6.903-208.162,6.903
			c1.268-3.446,2.117-7.103,1.989-10.999c-0.538-16.178-14.087-28.857-30.265-28.321c-16.178,0.537-28.858,14.085-28.321,30.264
			c0.24,7.26,3.103,13.815,7.646,18.787c4.187,4.582,9.8,7.82,16.107,9.027c0,0-18.14,122.331,40.756,159.17
			c0,0-80.632,84.751,35.586,111.197C-102.409,426.772,10.242,435.754,41.729,422.89z"/>
		<circle fill="#FFFFFF" cx="14.182" cy="227.815" r="26.705"/>
		<g>
			<g>
				<path fill="#558AA5" d="M-9.023,199.979c10.114,2.62,17.532-3.233,27.227-4.458c2.522-0.318,4.639,0.706,6.894,1.752
					c4.9,2.275,9.5,5.229,14.02,8.165c2.12,1.377,4.077-2.008,1.973-3.375c-5.882-3.821-13.415-9.694-20.705-10.505
					c-10.065-1.118-17.965,7.349-28.369,4.653C-10.426,195.578-11.461,199.348-9.023,199.979L-9.023,199.979z"/>
			</g>
		</g>
		<g>
			<path fill="#558AA5" d="M14.813,355.335c9.586-4.843-32.136-22.074-48.917-20.91c-18.124,1.261-33.294,8.285-39.682,17.318
				c0,0,20.499,31.544,47.876,27.268C-15.029,377.308-1.103,363.381,14.813,355.335z"/>
			<g>
				<path fill="#558AA5" d="M23.898,370.878c8.03-4.564,12.01-13.904,9.559-22.83c-1.848-6.729-6.996-11.157-12.476-14.96
					c-8.741-6.065-19.742-9.741-29.862-12.742c-13.034-3.864-25.135-4.463-38.522-2.233c-16.57,2.759-31.88,11.04-41.924,24.546
					c-3.587,4.823-3.19,13.299,0,18.17c9.504,14.512,23.204,26.518,39.329,32.97c13.125,5.252,26.904,4.361,39.609-1.373
					C1.875,386.89,11.934,377.083,23.898,370.878c8.702-4.515,11.226-16.488,6.458-24.628c-5.141-8.775-15.917-10.976-24.627-6.458
					c-10.483,5.438-19.608,12.928-29.662,19.051c-1.095,0.667-7.577,3.69-2.539,1.635c-1.035,0.422-2.111,0.709-3.192,0.981
					c-3.638,0.915,4.188-0.32-0.106-0.073c-1.442,0.082-8.105-0.799-2.625,0.104c-2.374-0.391-4.678-1.135-6.93-1.964
					c5.04,1.854-0.909-0.577-2.079-1.226c-2.007-1.113-3.902-2.421-5.757-3.769c4.485,3.26-0.466-0.484-1.422-1.331
					c-1.497-1.326-2.913-2.74-4.303-4.176c-1.018-1.052-1.991-2.146-2.952-3.25c-1.104-1.268-4.684-5.881-0.268-0.148
					c-0.743-0.965-1.47-1.949-2.137-2.968c0,6.057,0,12.113,0,18.17c-3.31,4.45,0.758-0.397,1.839-1.349
					c-3.77,3.316,1.551-0.878,2.731-1.563c0.809-0.454,1.63-0.885,2.463-1.294c4.266-2.168-3.548,1.293,1.078-0.49
					c2.938-1.133,5.993-1.94,9.054-2.657c1.077-0.239,2.158-0.456,3.244-0.648c5.412-1.021-3.623,0.308,1.985-0.262
					c1.656-0.168,3.288-0.217,4.949-0.16c0.59,0.027,1.179,0.067,1.768,0.121c3.588,0.284-4.694-0.725-0.979-0.161
					c2.09,0.316,4.158,0.771,6.215,1.25c3.697,0.859,7.334,1.974,10.931,3.18c1.8,0.604,3.579,1.268,5.351,1.948
					c1.045,0.401,4.739,1.974-0.239-0.149c0.96,0.409,1.908,0.847,2.855,1.285c2.916,1.349,5.765,2.877,8.406,4.71
					c-5.042-3.499-2.089-1.73-0.92-0.446c-6.188-6.799-5.04-19.644,3.238-24.35c-8.517,4.842-11.37,16.242-6.458,24.628
					C4.27,372.954,15.366,375.728,23.898,370.878z"/>
			</g>
		</g>
		<g>
			<g>
				<path fill="#558AA5" d="M79.845,273.399c7.537-3.578,14.828-7.77,21.847-12.269c10.388-6.658,22.721-15.056,27.578-26.914
					c5.832-14.236-7.957-22.93-19.533-26.966c-23.641-8.242-47.418-16.178-68.582-29.898c-13.864-8.988-25.734-21.011-29.349-37.567
					c-2.724-12.477-0.669-25.798-1.304-38.592c-0.29-5.852-9.41-5.88-9.118,0c1.024,20.669-2.534,41.064,9.282,59.549
					c8.316,13.009,21.468,22.317,34.688,29.81c10.183,5.771,20.958,10.469,31.816,14.803c6.527,2.605,13.144,4.982,19.791,7.263
					c5.703,1.957,11.632,3.46,17.012,6.232c5.476,2.822,9.191,6.866,6.719,12.399c-2.936,6.571-9.241,11.695-14.837,15.934
					c-9.436,7.145-19.919,13.267-30.613,18.344C69.933,268.047,74.563,275.907,79.845,273.399L79.845,273.399z"/>
			</g>
		</g>
		<path fill="#558AA5" d="M23.075,97.834c-0.64,11.437-10.436,20.192-21.874,19.551c-11.441-0.642-20.197-10.438-19.555-21.876
			c0.644-11.438,10.44-20.193,21.878-19.553C14.968,76.599,23.719,86.396,23.075,97.834z"/>
		<path fill="#70A3C1" d="M4.579,431.479c0.833,6.782-3.99,12.955-10.775,13.789c-6.783,0.833-12.958-3.99-13.791-10.771
			c-0.834-6.785,3.991-12.959,10.774-13.792C-2.428,419.871,3.747,424.697,4.579,431.479z"/>
		<path d="M25.98,238.151c0.238,7.271-5.46,13.36-12.729,13.602c-7.272,0.242-13.36-5.456-13.602-12.728
			c-0.241-7.271,5.459-13.361,12.729-13.601C19.648,225.183,25.738,230.882,25.98,238.151z"/>
		<circle fill="#FFFFFF" cx="11.316" cy="249.942" r="1.873"/>
		<g>
			<g>
				<path fill="#70A3C1" d="M-12.783,438.177c1.732,26.283,3.465,52.566,5.197,78.85c0.384,5.836,9.505,5.873,9.118,0
					c-1.732-26.283-3.465-52.566-5.197-78.85C-4.049,432.341-13.17,432.304-12.783,438.177L-12.783,438.177z"/>
			</g>
		</g>
		
			<ellipse transform="matrix(-0.9968 0.0799 -0.0799 -0.9968 58.6671 1033.5198)" fill="#70A3C1" cx="8.656" cy="517.934" rx="17.197" ry="2.932"/>
	</g>
</g>
<g>
	<defs>
		<rect id="SVGID_15_" x="861.734" y="18.012" width="300.332" height="461.812"/>
	</defs>
	<clipPath id="SVGID_4_">
		<use xlink:href="#SVGID_15_"  overflow="visible"/>
	</clipPath>
	<g clip-path="url(#SVGID_4_)">
		<path fill="#70A3C1" d="M836.882,431.759c115.277-30.299,38.882-110.334,38.882-110.334
			c61.147-32.96,51.589-156.142,51.589-156.142c6.691-0.839,13.482-4.912,16.378-7.695c4.855-4.668,8.132-11.023,8.842-18.255
			c1.581-16.109-10.2-30.447-26.31-32.027c-16.108-1.578-30.448,10.199-32.027,26.31c-0.38,3.882,0.074,7.653,1.12,11.174
			c-110.119-36.316-207.283-20.32-207.283-20.32c1.707-3.251,3.025-6.766,3.407-10.645c1.577-16.111-10.201-30.45-26.31-32.029
			c-16.11-1.579-30.45,10.198-32.028,26.309c-0.709,7.229,1.273,14.103,5.129,19.624c3.553,5.09,8.695,9.033,14.791,11.053
			c0,0-33.948,118.917,19.636,163.127c0,0-91.003,73.505,20.771,114.891C693.47,416.798,803.985,440.403,836.882,431.759z"/>
		<path fill="#FFFFFF" d="M861.605,237.362c-1.439,14.678-14.503,25.412-29.184,23.972c-14.677-1.439-25.41-14.505-23.972-29.183
			c1.44-14.678,14.504-25.41,29.185-23.973C852.31,209.618,863.042,222.685,861.605,237.362z"/>
		<g>
			<g>
				<path fill="#558AA5" d="M815.895,204.214c9.582,3.855,17.822-0.945,27.513-0.937c2.523,0.003,4.576,1.457,6.638,2.767
					c4.425,2.808,8.464,6.222,12.439,9.618c1.905,1.627,4.683-1.124,2.764-2.764c-5.557-4.747-11.925-10.946-19.076-13.226
					c-3.647-1.163-8.405,0.016-12.031,0.801c-6.097,1.32-11.196,2.392-17.208-0.027
					C814.594,199.505,813.587,203.286,815.895,204.214L815.895,204.214z"/>
			</g>
		</g>
		<g>
			<path fill="#558AA5" d="M819.013,361.269c10.135-3.551-28.981-26.08-45.77-27.115c-18.134-1.115-34.091,3.87-41.603,11.992
				c0,0,16.207,33.949,43.909,33.282C786.558,379.159,802.182,367.169,819.013,361.269z"/>
			<g>
				<path fill="#558AA5" d="M823.798,378.626c10.899-4.43,15.839-12.394,14.221-24.118c-0.687-4.973-4.701-9.73-8.295-12.995
					c-7.975-7.246-17.778-12.627-27.561-16.985c-12.381-5.515-24.058-8.95-37.775-8.437c-16.2,0.605-33.868,5.385-45.474,17.326
					c-5.989,6.163-6.405,14.357-2.814,21.813c6.677,13.863,18.21,26.603,31.329,34.537c11.401,6.896,25.65,9.518,38.581,6.047
					c7.076-1.898,13.849-5.582,20.34-8.924c3.001-1.545,5.996-3.1,9.02-4.601c1.551-0.771,3.122-1.5,4.695-2.224
					c1.953-0.864,2.117-0.939,0.494-0.228C821.628,379.413,822.709,379.008,823.798,378.626
					c9.215-3.343,15.331-12.113,12.572-22.143c-2.446-8.893-12.911-15.92-22.142-12.572c-6.885,2.498-13.562,5.53-20.096,8.828
					c-2.955,1.491-5.882,3.037-8.831,4.541c-1.382,0.705-2.776,1.384-4.174,2.057c-0.67,0.323-5.253,2.215-0.976,0.49
					c-1.968,0.793-3.995,1.39-6.063,1.853c4.853-1.086,1.762-0.254,0.211-0.245c-1.132,0.006-5.326-0.531-0.059,0.222
					c-2.321-0.332-4.576-1.028-6.775-1.819c4.736,1.705,1.185,0.478,0.12-0.057c-1.013-0.507-1.984-1.097-2.953-1.683
					c-0.637-0.396-1.264-0.808-1.881-1.234c-3.314-2.231,3.178,2.62,0.095,0.129c-1.684-1.361-3.249-2.866-4.774-4.399
					c-1.443-1.452-2.786-3.001-4.098-4.571c-0.788-0.944-2.95-3.869,0.469,0.653c-0.533-0.705-1.042-1.426-1.552-2.147
					c-2.115-2.992-4.112-6.159-5.705-9.467c-0.938,7.271-1.876,14.542-2.814,21.813c0.512-0.554,1.05-1.081,1.613-1.582
					c2.971-2.779-3.334,2.269,0.214-0.077c0.972-0.643,7.163-3.488,2.896-1.764c2.299-0.929,4.699-1.588,7.098-2.195
					c1.537-0.39,3.102-0.662,4.662-0.937c-4.121,0.726,1.311-0.085,1.822-0.127c2.914-0.239,5.843-0.214,8.763-0.131
					c6.561,0.188-3.791-0.914,1.058,0.01c3.622,0.69,7.146,1.92,10.589,3.213c0.693,0.265,1.384,0.536,2.071,0.815
					c-4.888-1.955-1.108-0.462-0.116-0.021c1.753,0.781,3.479,1.625,5.196,2.482c3.598,1.796,7.096,3.793,10.494,5.943
					c1.352,0.855,2.666,1.769,3.962,2.705c1.488,1.113,0.95,0.697-1.612-1.249c0.596,0.476,1.163,0.984,1.727,1.497
					c1.427,1.296,3.395,4.553-0.424-0.939c1.43,2.057-1.734-4.98-1.125-2.778c-2.44-8.829,3.004-16.591,10.97-19.829
					c-9.082,3.691-15.406,11.84-12.572,22.143C804.028,374.677,814.692,382.326,823.798,378.626z"/>
			</g>
		</g>
		<path fill="#558AA5" d="M882.119,85.51c-2.126,11.255-12.981,18.657-24.238,16.529c-11.259-2.13-18.662-12.984-16.533-24.241
			c2.131-11.257,12.986-18.658,24.243-16.53C876.852,63.397,884.25,74.253,882.119,85.51z"/>
		<path fill="#70A3C1" d="M798.929,435.427c-0.059,6.832-5.646,12.323-12.482,12.266c-6.834-0.06-12.327-5.648-12.267-12.479
			c0.058-6.837,5.648-12.328,12.482-12.269C793.496,423.003,798.989,428.594,798.929,435.427z"/>
		<path d="M845.376,246.544c-0.713,7.24-7.157,12.534-14.395,11.824c-7.242-0.709-12.534-7.153-11.825-14.395
			c0.709-7.238,7.156-12.533,14.395-11.822C840.79,232.859,846.084,239.305,845.376,246.544z"/>
		<path fill="#FFFFFF" d="M831.163,256.503c-0.101,1.031-1.018,1.784-2.046,1.683c-1.031-0.101-1.784-1.018-1.681-2.048
			c0.099-1.027,1.016-1.781,2.045-1.682C830.511,254.558,831.265,255.475,831.163,256.503z"/>
		<g>
			<line fill="#70A3C1" x1="785.362" y1="440.396" x2="780.225" y2="519.249"/>
			<g>
				<path fill="#70A3C1" d="M780.803,440.396c-1.713,26.284-3.425,52.568-5.138,78.853c-0.382,5.874,8.739,5.837,9.119,0
					c1.712-26.284,3.425-52.568,5.137-78.853C790.304,434.522,781.183,434.56,780.803,440.396L780.803,440.396z"/>
			</g>
		</g>
		
			<ellipse transform="matrix(-0.9987 -0.0509 0.0509 -0.9987 1555.8083 1082.9523)" fill="#70A3C1" cx="791.689" cy="521.673" rx="17.197" ry="2.933"/>
	</g>
</g>
</svg>
