<?xml version="1.0" encoding="utf-8"?>
<!-- Generator: Adobe Illustrator 16.0.0, SVG Export Plug-In . SVG Version: 6.00 Build 0)  -->
<!DOCTYPE svg PUBLIC "-//W3C//DTD SVG 1.1//EN" "http://www.w3.org/Graphics/SVG/1.1/DTD/svg11.dtd">
<svg version="1.1" id="Layer_1" xmlns="http://www.w3.org/2000/svg" xmlns:xlink="http://www.w3.org/1999/xlink" x="0px" y="0px"
	 width="841.89px" height="595.28px" viewBox="0 0 841.89 595.28" enable-background="new 0 0 841.89 595.28" xml:space="preserve">
<g>
	<defs>
		<rect id="SVGID_15_" x="-0.156" y="18.012" width="300.332" height="461.812"/>
	</defs>
	<clipPath id="SVGID_2_">
		<use xlink:href="#SVGID_15_"  overflow="visible"/>
	</clipPath>
	<g clip-path="url(#SVGID_2_)">
		<path fill="#70A3C1" d="M-25.008,431.759C90.269,401.46,13.874,321.425,13.874,321.425
			c61.147-32.96,51.589-156.142,51.589-156.142c6.691-0.839,13.482-4.912,16.378-7.695c4.855-4.668,8.132-11.023,8.842-18.255
			c1.581-16.109-10.2-30.447-26.31-32.027c-16.108-1.578-30.448,10.199-32.027,26.31c-0.38,3.882,0.074,7.653,1.12,11.174
			c-110.119-36.316-207.283-20.32-207.283-20.32c1.707-3.251,3.025-6.766,3.407-10.645c1.577-16.111-10.201-30.45-26.31-32.029
			c-16.11-1.579-30.45,10.198-32.028,26.309c-0.709,7.229,1.273,14.103,5.129,19.624c3.553,5.09,8.695,9.033,14.791,11.053
			c0,0-33.948,118.917,19.636,163.127c0,0-91.003,73.505,20.771,114.891C-168.42,416.798-57.905,440.403-25.008,431.759z"/>
		<g>
			<g>
				<path fill="#558AA5" d="M-45.996,204.214c9.582,3.855,17.822-0.945,27.513-0.937c2.523,0.003,4.576,1.457,6.638,2.767
					c4.425,2.808,8.464,6.222,12.439,9.618c1.905,1.627,4.683-1.124,2.764-2.764c-5.557-4.747-11.925-10.946-19.076-13.226
					c-3.647-1.163-8.405,0.016-12.031,0.801c-6.097,1.32-11.196,2.392-17.208-0.027C-47.296,199.505-48.303,203.286-45.996,204.214
					L-45.996,204.214z"/>
			</g>
		</g>
		<g>
			<g>
				<path fill="#558AA5" d="M26.585,282.017c-1.351,2.072-4.733,5.769-4.439,8.405c0.223,2.001,1.223,3.876,3.347,4.396
					c5.511,1.35,10.756-9.963,13.091-13.361c12.418-18.078,25.26-36.014,36.908-54.594c9.252-14.757,16.756-31.764,16.719-49.474
					c-0.028-13.104-5.16-25.073-13.167-35.236c-11.597-14.718-28.57-24.379-44.195-34.183c-6.465-4.058-13.058-8.143-18.635-13.397
					c-2.394-2.257-3.775-3.852-5.267-6.603c-1.07-1.972-1.441-3.771-1.277-6.316c0.376-5.874-8.744-5.838-9.119,0
					c-0.567,8.852,5.294,16.119,11.651,21.548c8.476,7.238,18.333,12.771,27.724,18.701c19.73,12.458,41.899,28.319,43.126,53.872
					c1.383,28.797-20.532,54.303-35.641,76.573c-6.382,9.407-12.765,18.813-19.223,28.169c-1.299,1.883-2.602,3.764-3.927,5.629
					c-0.336,0.473-0.674,0.943-1.021,1.409c0.025-0.034,0.461-0.68,1.169-1.068c1.171-0.153,2.342-0.307,3.514-0.46
					c-0.002,0-0.004-0.001-0.007-0.001c1.116,1.465,2.232,2.931,3.348,4.396c0.158,1.421-1.12,3.018,0.021,1.163
					c0.418-0.681,0.848-1.354,1.278-2.028c0.627-0.982,1.26-1.962,1.896-2.938C37.68,281.677,29.782,277.111,26.585,282.017
					L26.585,282.017z"/>
			</g>
		</g>
		<path fill="#558AA5" d="M20.229,85.51c-2.126,11.255-12.981,18.657-24.238,16.529c-11.259-2.13-18.662-12.984-16.533-24.241
			c2.131-11.257,12.986-18.658,24.243-16.53C14.962,63.397,22.36,74.253,20.229,85.51z"/>
	</g>
</g>
<g>
	<defs>
		<rect id="SVGID_17_" x="866.875" y="18.012" width="221.529" height="429.043"/>
	</defs>
	<clipPath id="SVGID_4_">
		<use xlink:href="#SVGID_17_"  overflow="visible"/>
	</clipPath>
	<g clip-path="url(#SVGID_4_)">
		<path fill="#70A3C1" d="M806.882,431.759c115.277-30.299,38.882-110.334,38.882-110.334
			c61.147-32.96,51.589-156.142,51.589-156.142c6.691-0.839,13.482-4.912,16.378-7.695c4.855-4.668,8.132-11.023,8.842-18.255
			c1.581-16.109-10.2-30.447-26.31-32.027c-16.108-1.578-30.448,10.199-32.027,26.31c-0.38,3.882,0.074,7.653,1.12,11.174
			c-110.119-36.316-207.283-20.32-207.283-20.32c1.707-3.251,3.025-6.766,3.407-10.645c1.577-16.111-10.201-30.45-26.31-32.029
			c-16.11-1.579-30.45,10.198-32.028,26.309c-0.709,7.229,1.273,14.103,5.129,19.624c3.553,5.09,8.695,9.033,14.791,11.053
			c0,0-33.948,118.917,19.636,163.127c0,0-91.003,73.505,20.771,114.891C663.47,416.798,773.985,440.403,806.882,431.759z"/>
		<g>
			<g>
				<path fill="#558AA5" d="M858.475,282.017c-1.351,2.072-4.733,5.769-4.439,8.405c0.223,2.001,1.223,3.876,3.347,4.396
					c5.512,1.35,10.757-9.963,13.091-13.361c12.418-18.078,25.26-36.014,36.908-54.594c9.252-14.757,16.756-31.764,16.719-49.474
					c-0.028-13.104-5.16-25.073-13.167-35.236c-11.596-14.718-28.57-24.379-44.195-34.183c-6.466-4.058-13.058-8.143-18.635-13.397
					c-2.395-2.257-3.775-3.852-5.267-6.603c-1.07-1.972-1.441-3.771-1.278-6.316c0.377-5.874-8.744-5.838-9.118,0
					c-0.568,8.852,5.293,16.119,11.651,21.548c8.476,7.238,18.333,12.771,27.724,18.701c19.73,12.458,41.898,28.319,43.126,53.872
					c1.383,28.797-20.531,54.303-35.641,76.573c-6.382,9.407-12.765,18.813-19.223,28.169c-1.299,1.883-2.602,3.764-3.927,5.629
					c-0.336,0.473-0.674,0.943-1.021,1.409c0.026-0.034,0.462-0.68,1.17-1.068c1.171-0.153,2.342-0.307,3.513-0.46
					c-0.002,0-0.004-0.001-0.006-0.001c1.115,1.465,2.231,2.931,3.347,4.396c0.158,1.421-1.12,3.018,0.02,1.163
					c0.419-0.681,0.849-1.354,1.278-2.028c0.627-0.982,1.26-1.962,1.896-2.938C869.571,281.677,861.672,277.111,858.475,282.017
					L858.475,282.017z"/>
			</g>
		</g>
		<path fill="#558AA5" d="M852.119,85.51c-2.126,11.255-12.981,18.657-24.238,16.529c-11.259-2.13-18.662-12.984-16.533-24.241
			c2.131-11.257,12.986-18.658,24.243-16.53C846.852,63.397,854.25,74.253,852.119,85.51z"/>
	</g>
</g>
</svg>
