<?xml version="1.0" encoding="utf-8"?>
<!-- Generator: Adobe Illustrator 16.0.0, SVG Export Plug-In . SVG Version: 6.00 Build 0)  -->
<!DOCTYPE svg PUBLIC "-//W3C//DTD SVG 1.1//EN" "http://www.w3.org/Graphics/SVG/1.1/DTD/svg11.dtd">
<svg version="1.1" id="Layer_1" xmlns="http://www.w3.org/2000/svg" xmlns:xlink="http://www.w3.org/1999/xlink" x="0px" y="0px"
	 width="841.89px" height="595.28px" viewBox="0 0 841.89 595.28" enable-background="new 0 0 841.89 595.28" xml:space="preserve">
<path fill="#70A3C1" d="M486.587,419.097c111.77-41.399,27.931-113.598,27.931-113.598c57.64-38.77,36.107-160.432,36.107-160.432
	c6.579-1.488,12.942-6.204,15.551-9.255c4.376-5.12,7.019-11.767,7.019-19.03c0-16.187-13.122-29.308-29.309-29.308
	c-16.186,0-29.308,13.122-29.308,29.308c0,3.9,0.82,7.609,2.204,11.012c-113.137-25.4-208.275,0-208.275,0
	c1.383-3.403,2.352-7.028,2.352-10.929c0-16.187-13.122-29.308-29.309-29.308c-16.186,0-29.309,13.122-29.309,29.308
	c0,7.264,2.644,13.91,7.02,19.031c4.031,4.717,9.535,8.14,15.799,9.556c0,0-22.184,121.663,35.456,160.434
	c0,0-83.396,82.029,31.883,112.314C342.398,418.201,454.69,430.912,486.587,419.097z"/>
<path fill="none" stroke="#5D6733" stroke-width="0.6513" stroke-miterlimit="10" d="M573.194,478.125"/>
<circle fill="#FFFFFF" cx="353.699" cy="223.218" r="26.705"/>
<circle fill="#FFFFFF" cx="465.52" cy="223.218" r="26.705"/>
<g>
	<g>
		<path fill="#558AA5" d="M443.312,194.646c9.988,2.943,17.66-2.671,27.361-3.57c2.523-0.234,4.617,0.897,6.823,2.012
			c4.823,2.436,9.321,5.541,13.742,8.625c2.072,1.446,4.022-1.943,1.973-3.374c-5.689-3.971-12.997-10.098-20.181-11.134
			c-10.09-1.455-18.318,6.726-28.68,3.672C441.927,190.164,440.899,193.936,443.312,194.646L443.312,194.646z"/>
	</g>
</g>
<g>
	<g>
		<path fill="#558AA5" d="M326.407,204.486c4.159-7.849,11.248-11.1,19.88-11.567c3.748-0.203,7.631,0.845,11.34,1.291
			c5.29,0.636,21.121,3.399,21.863-5.136c0.218-2.512-3.691-2.491-3.908,0c-0.395,4.538-22.156,0.681-25.119,0.244
			c-11.101-1.641-22.135,3.203-27.431,13.196C321.854,204.739,325.227,206.713,326.407,204.486L326.407,204.486z"/>
	</g>
</g>
<g>
	<path fill="#558AA5" d="M453.246,339.413c9.741-4.524-22.71-11.851-39.52-11.243c-18.155,0.658-33.55,7.176-40.232,15.992
		C373.494,344.162,396.382,365.825,453.246,339.413z"/>
	<g>
		<path fill="#558AA5" d="M462.331,354.955c15.074-7.751,12.88-28.208-1.063-35.624c-9.836-5.231-21.391-6.824-32.274-8.216
			c-11.813-1.511-23.352-0.932-35.021,1.665c-11.994,2.669-25.391,8.839-33.207,18.653c-5.938,7.456-7.758,18.208,0,25.456
			c7.226,6.751,17.292,10.641,26.903,12.225C413.661,373.397,438.845,365.724,462.331,354.955c8.92-4.09,11.043-16.8,6.457-24.627
			c-5.318-9.08-15.708-10.547-24.627-6.458c-5.321,2.44-8.59,3.75-15.645,6.034c-5.084,1.646-10.285,2.913-15.54,3.872
			c-0.849,0.149-1.699,0.288-2.552,0.415c5.121-0.799,0.99-0.154-0.071-0.046c-2.218,0.228-4.448,0.326-6.676,0.372
			c-1.989,0.041-3.977-0.038-5.961-0.164c-0.908-0.058-1.813-0.154-2.717-0.25c6.028,0.643,2.805,0.392,1.43,0.165
			c-2.609-0.43-5.177-1.096-7.686-1.925c-1.57-0.519-5.546-2.229,1.032,0.562c-0.896-0.38-1.771-0.811-2.635-1.261
			c-1.125-0.586-2.21-1.253-3.247-1.985c-2.06-1.453,4.544,3.847,2.329,1.776c0,8.485,0,16.971,0,25.456
			c0.935-1.175,1.927-2.249,3.009-3.291c1.442-1.238,1.154-1.063-0.861,0.525c0.68-0.5,1.375-0.977,2.087-1.431
			c1.491-0.987,3.09-1.806,4.687-2.606c1.818-0.832,1.693-0.796-0.373,0.106c1.389-0.562,2.818-1.019,4.244-1.476
			c1.999-0.642,4.048-1.117,6.095-1.573c1.067-0.225,2.139-0.426,3.214-0.604c-2.037,0.23-1.965,0.224,0.215-0.02
			c3.929-0.436,7.874-0.45,11.815-0.247c1.628,0.084,3.251,0.238,4.873,0.396c0.837,0.086,1.672,0.181,2.507,0.284
			c-2.683-0.374-3.016-0.414-1.002-0.123c3.641,0.536,7.253,1.261,10.831,2.116c2.616,0.625,5.197,1.396,7.713,2.347
			c-5.518-2.086-2.391-1.043-1.056-0.249c-2.823-2.367-3.643-2.991-2.457-1.871c0.021-7.778,0.044-15.556,0.065-23.333
			c3.149-2.177,3.927-2.834,2.333-1.972c-8.719,4.483-11.212,16.511-6.457,24.627C442.857,357.295,453.604,359.442,462.331,354.955z
			"/>
	</g>
</g>
<path fill="#FFFFFF" d="M373.874,327.436c0,0,8.104,11.074,14.166,8.033c2.755-1.381,3.664-5.428,5.699-15.198
	c0,0-12.158,2.606-19.865,6.296l-0.489,0.164L373.874,327.436z"/>
<g>
	<g>
		<path fill="#70A3C1" d="M532.142,270.974c25.027-13.345,41.023-42.448,44.689-69.663c1.202-8.922,1.516-17.052,4.333-25.683
			c2.947-9.033,6.933-17.713,11.091-26.242c6.772-13.889,14.355-27.41,22.381-40.612c0.503-0.827,1.008-1.652,1.521-2.473
			c3.126-5.003-4.767-9.576-7.873-4.603c-6.024,9.644-11.625,19.572-16.988,29.596c-8.621,16.114-17.544,33.244-21.51,51.213
			c-2.207,10.001-1.819,20.217-4.521,30.213c-2.605,9.645-7.021,18.652-12.683,26.858c-6.259,9.074-14.636,17.358-24.152,23.015
			c-0.293,0.174-0.589,0.346-0.89,0.506C522.35,265.868,526.956,273.739,532.142,270.974L532.142,270.974z"/>
	</g>
</g>
<circle fill="#70A3C1" cx="611.219" cy="107" r="12.243"/>
<circle fill="#70A3C1" cx="205.352" cy="137.398" r="12.243"/>
<g>
	<g>
		<path fill="#70A3C1" d="M292.779,256.411c-21.153,4.803-52.948,1.528-59.274-24.077c-6.267-25.363-12.533-50.726-18.8-76.089
			c-1.652-6.687-3.304-13.373-4.956-20.059c-1.41-5.707-10.204-3.285-8.793,2.424c5.893,23.852,11.786,47.704,17.68,71.556
			c2.063,8.348,4.125,16.696,6.188,25.044c4.256,17.224,19.441,27.673,36.119,30.742c11.114,2.044,23.218,1.76,34.261-0.748
			C300.937,263.902,298.505,255.111,292.779,256.411L292.779,256.411z"/>
	</g>
</g>
<circle fill="#70A3C1" cx="341.975" cy="416.843" r="12.375"/>
<circle fill="#70A3C1" cx="468.125" cy="422.923" r="12.375"/>
<g>
	<line fill="#70A3C1" x1="341.975" y1="422.923" x2="341.975" y2="501.945"/>
	<g>
		<path fill="#70A3C1" d="M337.415,422.923c0,26.34,0,52.681,0,79.021c0,5.88,9.119,5.88,9.119,0c0-26.34,0-52.681,0-79.021
			C346.534,417.043,337.415,417.043,337.415,422.923L337.415,422.923z"/>
	</g>
</g>
<g>
	<line fill="#70A3C1" x1="468.125" y1="422.923" x2="468.125" y2="501.945"/>
	<g>
		<path fill="#70A3C1" d="M463.565,422.923c0,26.34,0,52.681,0,79.021c0,5.88,9.119,5.88,9.119,0c0-26.34,0-52.681,0-79.021
			C472.685,417.043,463.565,417.043,463.565,422.923L463.565,422.923z"/>
	</g>
</g>
<ellipse fill="#70A3C1" cx="328.034" cy="504.875" rx="17.197" ry="2.932"/>
<ellipse fill="#70A3C1" cx="481.152" cy="504.224" rx="17.197" ry="2.932"/>
<circle cx="351.575" cy="233.998" r="13.114"/>
<circle cx="463.796" cy="233.94" r="13.171"/>
<circle fill="#FFFFFF" cx="349.71" cy="245.247" r="1.866"/>
<circle fill="#FFFFFF" cx="461.922" cy="245.239" r="1.874"/>
</svg>
