<?xml version="1.0" encoding="utf-8"?>
<!-- Generator: Adobe Illustrator 16.0.0, SVG Export Plug-In . SVG Version: 6.00 Build 0)  -->
<!DOCTYPE svg PUBLIC "-//W3C//DTD SVG 1.1//EN" "http://www.w3.org/Graphics/SVG/1.1/DTD/svg11.dtd">
<svg version="1.1" id="Layer_1" xmlns="http://www.w3.org/2000/svg" xmlns:xlink="http://www.w3.org/1999/xlink" x="0px" y="0px"
	 width="841.89px" height="595.28px" viewBox="0 0 841.89 595.28" enable-background="new 0 0 841.89 595.28" xml:space="preserve">
<path fill="#70A3C1" d="M406.587,419.097c111.77-41.399,27.931-113.598,27.931-113.598c57.64-38.77,36.107-160.432,36.107-160.432
	c6.579-1.488,12.942-6.204,15.551-9.255c4.376-5.12,7.019-11.767,7.019-19.03c0-16.187-13.122-29.308-29.309-29.308
	c-16.186,0-29.308,13.122-29.308,29.308c0,3.9,0.82,7.609,2.204,11.012c-113.137-25.4-208.275,0-208.275,0
	c1.383-3.403,2.352-7.028,2.352-10.929c0-16.187-13.122-29.308-29.309-29.308c-16.186,0-29.309,13.122-29.309,29.308
	c0,7.264,2.644,13.91,7.02,19.031c4.031,4.717,9.535,8.14,15.799,9.556c0,0-22.184,121.663,35.456,160.434
	c0,0-83.396,82.029,31.883,112.314C262.398,418.201,374.69,430.912,406.587,419.097z"/>
<path fill="none" stroke="#5D6733" stroke-width="0.6513" stroke-miterlimit="10" d="M493.194,478.125"/>
<circle fill="#FFFFFF" cx="273.699" cy="223.218" r="26.705"/>
<circle fill="#FFFFFF" cx="385.52" cy="223.218" r="26.705"/>
<g>
	<g>
		<path fill="#558AA5" d="M363.312,194.646c9.988,2.943,17.66-2.671,27.361-3.57c2.523-0.234,4.617,0.897,6.823,2.012
			c4.823,2.436,9.321,5.541,13.742,8.625c2.072,1.446,4.022-1.943,1.973-3.374c-5.689-3.971-12.997-10.098-20.181-11.134
			c-10.09-1.455-18.318,6.726-28.68,3.672C361.927,190.164,360.899,193.936,363.312,194.646L363.312,194.646z"/>
	</g>
</g>
<g>
	<g>
		<path fill="#558AA5" d="M246.407,204.486c4.159-7.849,11.248-11.1,19.88-11.567c3.747-0.203,7.631,0.845,11.339,1.291
			c5.291,0.636,21.122,3.399,21.864-5.136c0.218-2.512-3.691-2.491-3.908,0c-0.395,4.538-22.157,0.681-25.119,0.244
			c-11.101-1.641-22.134,3.203-27.431,13.196C241.854,204.739,245.227,206.713,246.407,204.486L246.407,204.486z"/>
	</g>
</g>
<g>
	<path fill="#558AA5" d="M381.923,350.69c9.741-4.524-31.387-23.128-48.196-22.521c-18.155,0.658-33.55,7.176-40.232,15.992
		c0,0,19.442,32.208,46.946,28.838C351.371,371.661,365.751,358.202,381.923,350.69z"/>
	<g>
		<path fill="#558AA5" d="M391.008,366.233c8.3-4.362,11.756-13.947,9.641-22.787c-1.621-6.779-7.068-11.178-12.334-15.097
			c-8.53-6.349-19.515-10.264-29.485-13.583c-12.804-4.262-25.111-5.25-38.432-3.192c-14.25,2.202-30.365,8.227-39.631,19.86
			c-5.046,6.335-7.367,14.331-2.814,21.813c8.18,13.443,21.009,26.411,35.54,32.675c14.084,6.071,28.356,7.085,42.534,0.708
			C368.355,381.085,378.789,372.064,391.008,366.233c8.853-4.225,11.101-16.701,6.458-24.627
			c-5.263-8.983-15.773-10.684-24.628-6.458c-10.657,5.086-20.024,12.27-30.274,18.055c-0.788,0.437-1.584,0.857-2.389,1.26
			c-3.943,2.027,3.646-1.3-0.262,0.145c-1.049,0.388-2.133,0.639-3.223,0.875c5.044-1.091,1.338-0.272-0.063-0.236
			c-1.235,0.032-2.471-0.075-3.7-0.181c5.115,0.441,1.229,0.083,0.04-0.19c-1.156-0.265-2.284-0.642-3.408-1.015
			c-3.934-1.306,3.707,1.754-0.03,0.022c-1.748-0.81-3.41-1.796-5.047-2.809c-0.965-0.598-1.893-1.257-2.818-1.914
			c-3.271-2.318,3.189,2.593,0.142,0.084c-2.874-2.366-5.497-5.031-7.98-7.798c-0.953-1.062-1.862-2.162-2.759-3.271
			c-2.005-2.477,2.819,3.715,1.028,1.335c-0.368-0.489-0.725-0.987-1.081-1.485c-0.688-0.961-1.361-1.94-1.977-2.95
			c-0.938,7.271-1.876,14.542-2.814,21.813c1.185-1.487,2.469-2.81,3.889-4.072c-3.801,3.377,1.385-0.768,2.607-1.472
			c0.797-0.442,1.605-0.862,2.426-1.258c4.221-2.115-3.574,1.309,1.008-0.413c2.908-1.092,5.931-1.856,8.959-2.53
			c1.066-0.225,2.138-0.426,3.213-0.604c-4.031,0.712,1.469-0.132,1.926-0.172c2.23-0.2,4.449-0.264,6.682-0.114
			c4.768,0.32-4.264-0.79,0.766,0.144c2.078,0.386,4.13,0.91,6.17,1.456c3.667,0.981,7.265,2.215,10.819,3.54
			c0.716,0.271,1.43,0.547,2.142,0.829c3.795,1.489-3.821-1.672-0.134-0.075c1.96,0.848,3.884,1.773,5.79,2.734
			c1.43,0.719,2.826,1.5,4.208,2.306c1.466,0.854,6.366,4.558,0.94,0.295c1.484,1.166,3.666,4.242-0.434-1.236
			c-4.061-5.424,0.241-18.262,5.64-21.1c-8.677,4.56-11.246,16.454-6.458,24.627C371.501,368.517,382.321,370.798,391.008,366.233z"
			/>
	</g>
</g>
<path fill="#FFFFFF" d="M293.873,327.436c0,0,8.105,11.074,14.166,8.033c2.756-1.381,3.664-5.428,5.699-15.198
	c0,0-12.158,2.606-19.865,6.296l-0.488,0.164L293.873,327.436z"/>
<g>
	<g>
		<path fill="#70A3C1" d="M452.142,270.974c25.027-13.345,41.023-42.448,44.689-69.663c1.202-8.922,1.516-17.052,4.333-25.683
			c2.947-9.033,6.933-17.713,11.091-26.242c6.772-13.889,14.355-27.41,22.381-40.612c0.503-0.827,1.008-1.652,1.521-2.473
			c3.126-5.003-4.767-9.576-7.873-4.603c-6.024,9.644-11.625,19.572-16.988,29.596c-8.621,16.114-17.544,33.244-21.51,51.213
			c-2.207,10.001-1.819,20.217-4.521,30.213c-2.605,9.645-7.021,18.652-12.683,26.858c-6.259,9.074-14.636,17.358-24.152,23.015
			c-0.293,0.174-0.589,0.346-0.89,0.506C442.35,265.868,446.956,273.739,452.142,270.974L452.142,270.974z"/>
	</g>
</g>
<circle fill="#70A3C1" cx="531.219" cy="107" r="12.243"/>
<circle fill="#70A3C1" cx="137.595" cy="87.474" r="12.243"/>
<g>
	<g>
		<path fill="#70A3C1" d="M216.292,256.871c-9.889-5.063-19.26-11.508-27.91-18.438c-7.859-6.296-15.132-13.344-21.435-21.205
			c-3.112-3.883-5.788-8.136-8.14-12.515c-1.561-2.904-4.063-7.326-4.437-10.37c-3.133-25.533-6.265-51.067-9.397-76.601
			c-0.939-7.662-1.88-15.324-2.819-22.986c-0.707-5.759-9.834-5.828-9.119,0c2.999,24.444,5.997,48.888,8.996,73.332
			c1.082,8.816,2.163,17.632,3.245,26.448c1.141,9.298,7.539,18.911,12.99,26.248c6.06,8.158,13.265,15.356,21.009,21.909
			c9.901,8.378,20.841,16.126,32.415,22.052C216.913,267.418,221.528,259.551,216.292,256.871L216.292,256.871z"/>
	</g>
</g>
<circle fill="#70A3C1" cx="261.975" cy="416.843" r="12.375"/>
<circle fill="#70A3C1" cx="388.125" cy="422.923" r="12.375"/>
<g>
	<line fill="#70A3C1" x1="261.975" y1="422.923" x2="261.975" y2="501.945"/>
	<g>
		<path fill="#70A3C1" d="M257.415,422.923c0,26.34,0,52.681,0,79.021c0,5.88,9.119,5.88,9.119,0c0-26.34,0-52.681,0-79.021
			C266.534,417.043,257.415,417.043,257.415,422.923L257.415,422.923z"/>
	</g>
</g>
<g>
	<line fill="#70A3C1" x1="388.125" y1="422.923" x2="388.125" y2="501.945"/>
	<g>
		<path fill="#70A3C1" d="M383.565,422.923c0,26.34,0,52.681,0,79.021c0,5.88,9.119,5.88,9.119,0c0-26.34,0-52.681,0-79.021
			C392.685,417.043,383.565,417.043,383.565,422.923L383.565,422.923z"/>
	</g>
</g>
<ellipse fill="#70A3C1" cx="248.034" cy="504.875" rx="17.197" ry="2.932"/>
<ellipse fill="#70A3C1" cx="401.152" cy="504.224" rx="17.197" ry="2.932"/>
<circle cx="271.575" cy="233.998" r="13.114"/>
<circle cx="383.796" cy="233.94" r="13.171"/>
<circle fill="#FFFFFF" cx="269.71" cy="245.247" r="1.866"/>
<circle fill="#FFFFFF" cx="381.922" cy="245.239" r="1.874"/>
</svg>
