<?xml version="1.0" encoding="utf-8"?>
<!-- Generator: Adobe Illustrator 16.0.0, SVG Export Plug-In . SVG Version: 6.00 Build 0)  -->
<!DOCTYPE svg PUBLIC "-//W3C//DTD SVG 1.1//EN" "http://www.w3.org/Graphics/SVG/1.1/DTD/svg11.dtd">
<svg version="1.1" id="Layer_1" xmlns="http://www.w3.org/2000/svg" xmlns:xlink="http://www.w3.org/1999/xlink" x="0px" y="0px"
	 width="841.89px" height="595.28px" viewBox="0 0 841.89 595.28" enable-background="new 0 0 841.89 595.28" xml:space="preserve">
<path fill="#70A3C1" d="M311.058,419.21c111.026-43.355,25.933-114.071,25.933-114.071c56.95-39.775,33.286-161.04,33.286-161.04
	c6.552-1.604,12.831-6.43,15.386-9.527c4.286-5.196,6.811-11.888,6.683-19.151c-0.284-16.184-13.634-29.073-29.818-28.789
	c-16.183,0.284-29.073,13.633-28.789,29.818c0.068,3.9,0.953,7.594,2.396,10.972c-113.565-23.411-208.243,3.655-208.243,3.655
	c1.322-3.427,2.228-7.068,2.159-10.968c-0.284-16.184-13.634-29.073-29.819-28.789c-16.183,0.284-29.074,13.634-28.789,29.818
	c0.128,7.262,2.887,13.861,7.353,18.904c4.113,4.646,9.676,7.972,15.964,9.278c0,0-20.045,122.033,38.267,159.786
	c0,0-81.943,83.48,33.849,111.738C166.875,420.845,279.374,431.582,311.058,419.21z"/>
<path fill="none" stroke="#5D6733" stroke-width="0.6513" stroke-miterlimit="10" d="M378.66,490.135"/>
<ellipse transform="matrix(0.9998 -0.0176 0.0176 0.9998 -4.1208 3.1087)" fill="#FFFFFF" cx="174.936" cy="236.173" rx="26.705" ry="16.223"/>
<ellipse transform="matrix(0.9998 -0.0176 0.0176 0.9998 -4.067 5.0693)" fill="#FFFFFF" cx="286.74" cy="234.21" rx="26.704" ry="16.224"/>
<g>
	<g>
		<path fill="#558AA5" d="M263.816,195.544c10.055,2.772,17.595-2.97,27.293-4.041c2.526-0.279,4.626,0.793,6.861,1.874
			c4.865,2.351,9.417,5.376,13.892,8.382c2.099,1.41,4.052-1.977,1.973-3.374c-5.835-3.921-13.255-9.891-20.543-10.812
			c-10.05-1.27-18.067,7.06-28.437,4.201C262.421,191.105,261.39,194.875,263.816,195.544L263.816,195.544z"/>
	</g>
</g>
<g>
	<g>
		<path fill="#558AA5" d="M147.118,207.474c4.021-7.945,11.074-11.35,19.727-11.948c3.72-0.257,7.602,0.717,11.291,1.095
			c5.257,0.539,21.215,3.031,21.805-5.485c0.174-2.517-3.735-2.5-3.908,0c-0.322,4.641-22.447,1.067-25.598,0.658
			c-10.902-1.416-21.73,3.908-26.69,13.708C142.609,207.744,145.98,209.723,147.118,207.474L147.118,207.474z"/>
	</g>
</g>
<g>
	<path fill="#558AA5" d="M285.197,351.247c9.66-4.695-31.789-22.574-48.584-21.672c-18.141,0.977-33.419,7.764-39.946,16.696
		c0,0,20.004,31.862,47.446,28.01C255.018,372.75,269.159,359.041,285.197,351.247z"/>
	<g>
		<path fill="#558AA5" d="M294.282,366.789c8.173-4.48,11.891-13.917,9.597-22.811c-1.751-6.788-7.017-11.157-12.41-15.025
			c-8.646-6.202-19.633-9.987-29.689-13.139c-28.103-8.811-62.061-2.835-80.656,21.372c-3.689,4.803-3.086,13.293,0,18.17
			c9.333,14.75,23.076,26.907,39.213,33.531c13.043,5.354,26.604,4.415,39.327-1.089
			C272.014,382.456,282.223,372.807,294.282,366.789c8.774-4.378,11.167-16.588,6.458-24.627
			c-5.198-8.874-15.848-10.838-24.627-6.458c-10.566,5.272-19.806,12.619-29.954,18.583c-1.133,0.666-7.634,3.493-2.593,1.527
			c-1.041,0.406-2.121,0.676-3.207,0.931c4.954-1.164,1.396-0.214-0.055-0.151c-1.235,0.054-2.472-0.031-3.703-0.116
			c5.066,0.347,1.26,0.153,0.026-0.107c-1.161-0.245-2.295-0.601-3.426-0.955c-1.039-0.325-4.743-1.972-0.062,0.098
			c-1.762-0.779-3.441-1.736-5.095-2.72c-1.231-0.733-7.206-5.25-2.758-1.718c-2.915-2.315-5.584-4.934-8.116-7.656
			c-0.971-1.045-1.899-2.129-2.816-3.222c-3.437-4.097,2.018,2.776-0.119-0.098c-0.705-0.949-1.395-1.916-2.027-2.915
			c0,6.057,0,12.113,0,18.17c-3.402,4.429,0.85-0.367,1.916-1.276c-3.849,3.282,1.641-0.814,2.798-1.462
			c0.816-0.441,1.644-0.86,2.483-1.256c4.3-2.101-3.539,1.304,1.113-0.406c2.956-1.087,6.022-1.847,9.095-2.516
			c1.08-0.223,2.165-0.422,3.253-0.597c-3.988,0.688,1.581-0.12,1.998-0.155c1.659-0.143,3.292-0.166,4.951-0.083
			c0.589,0.037,1.178,0.086,1.765,0.148c3.584,0.34-4.692-0.723-0.986-0.102c2.084,0.35,4.145,0.837,6.195,1.348
			c3.683,0.917,7.302,2.087,10.879,3.349c1.791,0.631,3.559,1.324,5.32,2.032c-5.363-2.156,1.315,0.638,2.569,1.243
			c2.895,1.395,5.719,2.967,8.332,4.841c-5.046-3.619-2.081-1.678-0.957-0.403c-6.615-7.5-4.878-19.939,3.177-24.355
			c-8.593,4.71-11.312,16.34-6.458,24.627C274.71,368.962,285.677,371.506,294.282,366.789z"/>
	</g>
</g>
<path fill="#FFFFFF" d="M196.753,329.541c0,0,8.298,10.93,14.304,7.783c2.732-1.429,3.568-5.491,5.432-15.296
	c0,0-12.111,2.82-19.751,6.644l-0.486,0.172L196.753,329.541z"/>
<g>
	<g>
		<path fill="#70A3C1" d="M352.834,280.422c8.184-5.533,15.886-11.91,23.204-18.528c13.003-11.76,25.615-25.578,32.419-41.953
			c3.186-7.666,4.84-15.936,3.616-24.219c-0.906-6.132-3.271-10.751-2.899-16.998c0.924-15.544,7.562-31.253,13.31-45.516
			c7.997-19.844,17.313-39.305,27.483-58.132c2.794-5.173-5.079-9.777-7.874-4.603c-12.246,22.672-23.313,46.242-32.315,70.386
			c-4.983,13.366-10.7,28.679-9.73,43.203c0.452,6.764,3.632,12.534,3.285,19.495c-0.412,8.258-4.323,16.146-8.573,23.054
			c-11.229,18.25-28.842,33.98-46.527,45.936C343.39,275.822,347.947,283.726,352.834,280.422L352.834,280.422z"/>
	</g>
</g>
<circle fill="#70A3C1" cx="446.029" cy="72.776" r="12.243"/>
<circle fill="#558AA5" cx="90.11" cy="39.72" r="12.243"/>
<g>
	<g>
		<path fill="#558AA5" d="M120.293,253.384c-0.35-10.421-3.147-21.02-6.428-30.838c-7.802-23.347-21.59-44.311-39.202-61.422
			C47.588,134.82,63.915,91.135,78.708,62.79c3.713-7.115,7.736-14.182,12.338-20.769c3.377-4.833-4.533-9.384-7.874-4.603
			c-14.706,21.047-26.477,46.5-30.639,71.87c-2.909,17.729-1.26,36.634,9.71,51.462c3.251,4.395,7.288,8.012,11.061,11.94
			c5.134,5.346,9.779,11.133,14.022,17.205c6.639,9.501,12.076,19.883,16.189,30.713c3.936,10.36,7.296,21.992,7.659,32.775
			C111.372,259.248,120.491,259.267,120.293,253.384L120.293,253.384z"/>
	</g>
</g>
<circle fill="#70A3C1" cx="164.231" cy="420.445" r="12.376"/>
<circle fill="#70A3C1" cx="261.472" cy="428.536" r="12.375"/>
<g>
	<line fill="#70A3C1" x1="165.294" y1="427.495" x2="159.636" y2="506.314"/>
	<g>
		<path fill="#70A3C1" d="M160.735,427.495c-1.886,26.273-3.772,52.546-5.658,78.819c-0.422,5.871,8.7,5.83,9.118,0
			c1.886-26.273,3.772-52.546,5.658-78.819C170.275,421.625,161.153,421.666,160.735,427.495L160.735,427.495z"/>
	</g>
</g>
<g>
	<line fill="#70A3C1" x1="261.472" y1="428.537" x2="269.878" y2="507.109"/>
	<g>
		<path fill="#70A3C1" d="M256.913,428.537c2.802,26.191,5.604,52.382,8.406,78.573c0.619,5.784,9.744,5.844,9.119,0
			c-2.803-26.191-5.604-52.382-8.407-78.573C265.412,422.753,256.287,422.693,256.913,428.537L256.913,428.537z"/>
	</g>
</g>
<ellipse transform="matrix(-0.9974 -0.0716 0.0716 -0.9974 254.2754 1025.5913)" fill="#70A3C1" cx="145.521" cy="508.238" rx="17.197" ry="2.932"/>
<ellipse transform="matrix(-0.9943 0.1064 -0.1064 -0.9943 618.5869 982.9791)" fill="#70A3C1" cx="283.073" cy="507.99" rx="17.196" ry="2.932"/>
<ellipse transform="matrix(0.9998 -0.0175 0.0175 0.9998 -4.2306 3.0699)" cx="172.927" cy="242.758" rx="13.114" ry="7.967"/>
<ellipse transform="matrix(0.9998 -0.0176 0.0176 0.9998 -4.182 5.0419)" cx="285.131" cy="240.753" rx="13.172" ry="8.002"/>
<circle fill="#FFFFFF" cx="171.15" cy="247.789" r="1.866"/>
<ellipse transform="matrix(0.9998 -0.0175 0.0175 0.9998 -4.2816 4.9865)" fill="#FFFFFF" cx="283.377" cy="247.649" rx="1.873" ry="1.138"/>
</svg>
