<?xml version="1.0" encoding="utf-8"?>
<!-- Generator: Adobe Illustrator 16.0.0, SVG Export Plug-In . SVG Version: 6.00 Build 0)  -->
<!DOCTYPE svg PUBLIC "-//W3C//DTD SVG 1.1//EN" "http://www.w3.org/Graphics/SVG/1.1/DTD/svg11.dtd">
<svg version="1.1" id="Layer_1" xmlns="http://www.w3.org/2000/svg" xmlns:xlink="http://www.w3.org/1999/xlink" x="0px" y="0px"
	 width="841.89px" height="595.28px" viewBox="0 0 841.89 595.28" enable-background="new 0 0 841.89 595.28" xml:space="preserve">
<path fill="#70A3C1" d="M221.818,424.491c115.568-29.157,39.969-109.941,39.969-109.941
	c61.469-32.355,53.127-155.626,53.127-155.626c6.7-0.773,13.532-4.778,16.454-7.532c4.901-4.621,8.241-10.945,9.022-18.167
	c1.738-16.093-9.899-30.548-25.992-32.286c-16.093-1.738-30.547,9.897-32.285,25.991c-0.42,3.878-0.003,7.653,1.008,11.185
	c-109.755-37.403-207.07-22.367-207.07-22.367c1.739-3.235,3.093-6.735,3.512-10.613C81.3,89.043,69.663,74.588,53.57,72.85
	c-16.092-1.738-30.549,9.898-32.286,25.992c-0.78,7.221,1.134,14.114,4.935,19.674c3.502,5.123,8.606,9.117,14.682,11.198
	c0,0-35.121,118.576,18.023,163.313c0,0-91.724,72.599,19.636,115.088C78.56,408.115,188.838,432.811,221.818,424.491z"/>
<path fill="none" stroke="#5D6733" stroke-width="0.6513" stroke-miterlimit="10" d="M280.039,503.299"/>
<g>
	<g>
		<path fill="#558AA5" d="M203.096,196.757c9.537,3.946,17.837-0.774,27.521-0.669c2.518,0.027,4.566,1.516,6.609,2.84
			c4.396,2.851,8.399,6.31,12.341,9.746c1.891,1.647,4.667-1.105,2.764-2.764c-5.5-4.793-11.827-11.061-18.95-13.406
			c-3.635-1.197-8.407-0.057-12.038,0.692c-6.11,1.26-11.22,2.271-17.208-0.208C201.806,192.025,200.802,195.808,203.096,196.757
			L203.096,196.757z"/>
	</g>
</g>
<g>
	<g>
		<path fill="#558AA5" d="M85.727,193.744c4.985-7.367,12.522-9.639,21.102-9.179c3.66,0.196,7.399,1.694,10.957,2.508
			c4.872,1.115,20.598,5.58,22.199-2.467c0.49-2.461-3.276-3.509-3.768-1.039c-0.997,5.008-21.768-1.304-25.185-2.193
			c-10.958-2.85-22.341,1.032-28.681,10.397C80.935,193.865,84.322,195.818,85.727,193.744L85.727,193.744z"/>
	</g>
</g>
<g>
	<path fill="#558AA5" d="M204.644,353.831c10.171-3.453-28.722-26.366-45.499-27.567c-18.121-1.295-34.127,3.532-41.718,11.58
		c0,0,15.871,34.109,43.578,33.713C172.016,371.399,187.758,359.562,204.644,353.831z"/>
	<g>
		<path fill="#558AA5" d="M209.429,371.188c7.879-3.113,16.073-10.009,14.84-19.655c-0.916-7.16-3.508-12.533-8.845-17.479
			c-7.88-7.303-17.709-12.778-27.42-17.22c-12.337-5.643-24.004-9.097-37.715-8.721c-16.236,0.446-33.865,5.173-45.59,17.002
			c-6.082,6.136-6.31,14.37-2.814,21.813c6.552,13.956,17.996,26.709,31.05,34.782c11.356,7.022,25.578,9.63,38.537,6.291
			c7.103-1.831,13.882-5.485,20.409-8.765c3.017-1.516,6.026-3.041,9.064-4.512c1.56-0.754,3.137-1.468,4.717-2.176
			C202.656,373.896,208.828,371.399,209.429,371.188c9.247-3.25,15.311-12.185,12.571-22.142
			c-2.465-8.963-12.88-15.827-22.142-12.572c-6.905,2.427-13.601,5.439-20.163,8.67c-2.97,1.461-5.912,2.978-8.875,4.453
			c-1.389,0.691-2.79,1.356-4.195,2.016c-4.498,2.111,3.389-1.281-0.997,0.438c-1.976,0.774-4.009,1.35-6.082,1.792
			c4.916-1.048,1.723-0.284,0.208-0.291c-1.156-0.005-5.285-0.626-0.056,0.174c-2.317-0.354-4.565-1.072-6.757-1.885
			c5.128,1.903-1.469-0.987-2.798-1.809c-0.633-0.403-1.256-0.82-1.869-1.253c-3.293-2.265,3.18,2.616,0.122,0.094
			c-1.671-1.378-3.221-2.898-4.73-4.447c-1.43-1.466-2.757-3.028-4.053-4.611c-2.314-2.828,2.603,3.471,0.498,0.63
			c-0.525-0.71-1.028-1.437-1.53-2.163c-2.086-3.013-4.052-6.2-5.612-9.523c-0.938,7.271-1.876,14.542-2.814,21.813
			c0.519-0.548,1.062-1.07,1.629-1.566c-3.502,3.211-0.808,0.641,0.242-0.039c0.998-0.646,7.196-3.367,2.932-1.692
			c2.308-0.906,4.715-1.541,7.119-2.125c1.541-0.374,3.107-0.631,4.671-0.891c-4.142,0.688,1.332-0.025,1.829-0.061
			c2.916-0.211,5.845-0.156,8.764-0.044c6.562,0.253-3.791-0.905,1.051,0.067c3.615,0.726,7.127,1.99,10.558,3.317
			c1.774,0.718,1.375,0.538-1.198-0.539c1.051,0.445,2.09,0.921,3.127,1.396c1.746,0.798,3.463,1.659,5.172,2.533
			c3.58,1.832,7.059,3.863,10.435,6.047c1.344,0.869,2.648,1.795,3.936,2.744c-4.913-3.624-0.997-0.716,0.084,0.285
			c0.327,0.311,0.646,0.63,0.954,0.959c1.964,2.036-2.859-4.011-1.404-1.874c0.08,0.135,0.16,0.271,0.24,0.406
			c-1.357-2.356-2.018-4.898-1.98-7.625c-0.949-7.414,5.601-13.048,11.546-15.397c-9.117,3.603-15.387,11.91-12.571,22.142
			C189.678,367.308,200.29,374.799,209.429,371.188z"/>
	</g>
</g>
<path fill="#FFFFFF" d="M119.6,321.255c0,0,6.869,11.88,13.222,9.507c2.889-1.077,4.226-5.002,7.298-14.498
	c0,0-12.368,1.286-20.426,4.126l-0.504,0.11L119.6,321.255z"/>
<g>
	<g>
		<path fill="#558AA5" d="M280.012,282.002c22.342-5.729,41.246-25.275,52.886-44.145c13.326-21.604,17.242-47.002,26.82-70.224
			c8.944-21.684,20.432-42.398,32.874-62.252c3.319-5.296,6.709-10.568,10.321-15.67c3.406-4.812-4.506-9.359-7.873-4.603
			c-21.75,30.723-40.343,65.395-51.915,101.224c-3.986,12.344-6.809,24.762-12.443,36.536c-4.367,9.126-9.928,17.691-16.595,25.301
			c-8.508,9.711-18.976,17.752-30.796,22.998c-0.979,0.434-3.766,1.546-5.703,2.042
			C271.895,274.669,274.312,283.464,280.012,282.002L280.012,282.002z"/>
	</g>
</g>
<circle fill="#558AA5" cx="398.977" cy="92.613" r="12.244"/>
<circle fill="#558AA5" cx="49.968" cy="20.389" r="12.243"/>
<g>
	<g>
		<path fill="#558AA5" d="M49.933,231.184c-16.206-4.505-33.744-15.339-41.673-31.164c-7.734-15.437-2.063-33.109,5.922-47.161
			c6.125-10.779,13.358-20.489,18.477-31.88c4.842-10.774,8.49-22.037,11.331-33.491c5.388-21.721,8.402-45.037,7.561-67.474
			c-0.22-5.861-9.34-5.883-9.119,0c1.193,31.792-4.562,65.824-17.06,95.027c-8.776,20.505-25.41,37.223-29.144,59.795
			c-2.449,14.81,1.709,28.884,11.217,40.367c9.827,11.868,25.267,20.66,40.064,24.774C53.185,241.555,55.59,232.757,49.933,231.184
			L49.933,231.184z"/>
	</g>
</g>
<circle fill="#70A3C1" cx="75.986" cy="407.388" r="12.376"/>
<circle fill="#70A3C1" cx="171.457" cy="427.555" r="12.376"/>
<g>
	<line fill="#70A3C1" x1="76.16" y1="414.517" x2="60.707" y2="492.013"/>
	<g>
		<path fill="#70A3C1" d="M71.764,413.305c-5.15,25.832-10.302,51.664-15.453,77.496c-1.145,5.742,7.644,8.188,8.793,2.424
			c5.15-25.832,10.302-51.664,15.453-77.496C81.701,409.987,72.913,407.541,71.764,413.305L71.764,413.305z"/>
	</g>
</g>
<g>
	<line fill="#70A3C1" x1="171.456" y1="427.555" x2="169.989" y2="506.563"/>
	<g>
		<path fill="#70A3C1" d="M166.896,427.555c-0.488,26.336-0.978,52.672-1.467,79.008c-0.109,5.884,9.01,5.873,9.119,0
			c0.488-26.336,0.978-52.672,1.467-79.008C176.125,421.671,167.006,421.682,166.896,427.555L166.896,427.555z"/>
	</g>
</g>
<ellipse transform="matrix(-0.9807 -0.1956 0.1956 -0.9807 -4.2143 983.9028)" fill="#70A3C1" cx="46.464" cy="492.159" rx="17.197" ry="2.932"/>
<ellipse transform="matrix(-0.9998 -0.0186 0.0186 -0.9998 356.4648 1021.4739)" fill="#70A3C1" cx="182.971" cy="509.083" rx="17.197" ry="2.931"/>
<g>
	
		<ellipse transform="matrix(0.9998 -0.0176 0.0176 0.9998 -4.3569 1.8994)" fill="#FFFFFF" cx="105.968" cy="249.013" rx="26.705" ry="16.223"/>
	
		<ellipse transform="matrix(0.9998 -0.0176 0.0176 0.9998 -4.303 3.8607)" fill="#FFFFFF" cx="217.772" cy="247.051" rx="26.704" ry="16.224"/>
	<ellipse transform="matrix(0.9998 -0.0175 0.0175 0.9998 -4.4664 1.8624)" cx="103.96" cy="255.599" rx="13.114" ry="7.967"/>
	<ellipse transform="matrix(0.9998 -0.0176 0.0176 0.9998 -4.4181 3.8334)" cx="216.164" cy="253.594" rx="13.171" ry="8.002"/>
	<circle fill="#FFFFFF" cx="102.183" cy="260.629" r="1.866"/>
	
		<ellipse transform="matrix(0.9998 -0.0175 0.0175 0.9998 -4.5164 3.7841)" fill="#FFFFFF" cx="214.41" cy="260.49" rx="1.873" ry="1.138"/>
</g>
<g>
	<defs>
		<rect id="SVGID_1_" x="862.89" y="48.912" width="416.124" height="479.59"/>
	</defs>
	<clipPath id="SVGID_2_">
		<use xlink:href="#SVGID_1_"  overflow="visible"/>
	</clipPath>
	<g clip-path="url(#SVGID_2_)">
		<g>
			<path fill="#70A3C1" d="M1069.68,422.125c112.17-40.3,29.045-113.318,29.045-113.318
				c58.018-38.202,37.682-160.069,37.682-160.069c6.592-1.423,13-6.077,15.64-9.102c4.427-5.077,7.134-11.697,7.206-18.961
				c0.159-16.186-12.834-29.436-29.02-29.594s-29.436,12.833-29.594,29.019c-0.039,3.9,0.744,7.617,2.095,11.033
				c-112.882-26.51-208.265-2.045-208.265-2.045c1.415-3.389,2.42-7.004,2.459-10.905c0.158-16.186-12.834-29.435-29.021-29.594
				c-16.185-0.159-29.437,12.833-29.595,29.019c-0.071,7.263,2.507,13.936,6.832,19.099c3.985,4.757,9.455,8.233,15.705,9.711
				c0,0-23.378,121.438,33.88,160.773c0,0-84.198,81.207,30.777,112.622C925.507,419.813,1037.669,433.625,1069.68,422.125z"/>
			<g>
				<g>
					<path fill="#558AA5" d="M880.179,246.618c-15.938-2.79-33.502-10.971-43.134-24.298c-9.259-12.811-8.424-28.472-3.534-42.838
						c3.865-11.356,10.661-21.458,15.204-32.549c4.713-11.504,7.787-23.648,9.954-35.869c4.369-24.646,5.312-50.766,1.929-75.629
						c-0.79-5.804-9.575-3.323-8.793,2.424c-0.368-2.706,0.07,0.719,0.139,1.34c0.259,2.378,0.459,4.762,0.635,7.147
						c0.589,7.933,0.775,15.895,0.683,23.848c-0.271,23.269-3.448,46.641-11.188,68.652c-7.213,20.513-21.143,37.766-21.427,60.38
						c-0.175,13.972,5.98,26.909,16.1,36.355c10.911,10.185,26.302,17.255,41.01,19.83
						C883.504,256.417,885.964,247.631,880.179,246.618L880.179,246.618z"/>
				</g>
			</g>
		</g>
	</g>
</g>
</svg>
