<?xml version="1.0" encoding="utf-8"?>
<!-- Generator: Adobe Illustrator 16.0.0, SVG Export Plug-In . SVG Version: 6.00 Build 0)  -->
<!DOCTYPE svg PUBLIC "-//W3C//DTD SVG 1.1//EN" "http://www.w3.org/Graphics/SVG/1.1/DTD/svg11.dtd">
<svg version="1.1" id="Layer_1" xmlns="http://www.w3.org/2000/svg" xmlns:xlink="http://www.w3.org/1999/xlink" x="0px" y="0px"
	 width="841.89px" height="595.28px" viewBox="0 0 841.89 595.28" enable-background="new 0 0 841.89 595.28" xml:space="preserve">
<g>
	<defs>
		<rect id="SVGID_1_" x="1" y="48.912" width="416.124" height="479.59"/>
	</defs>
	<clipPath id="SVGID_2_">
		<use xlink:href="#SVGID_1_"  overflow="visible"/>
	</clipPath>
	<g clip-path="url(#SVGID_2_)">
		<path fill="none" stroke="#5D6733" stroke-width="0.6513" stroke-miterlimit="10" d="M273.427,494.873"/>
		
			<ellipse transform="matrix(-0.9951 -0.0989 0.0989 -0.9951 29.4649 1014.6373)" fill="#70A3C1" cx="39.879" cy="506.588" rx="17.197" ry="2.932"/>
		
			<ellipse transform="matrix(-0.9969 0.0791 -0.0791 -0.9969 394.5912 1004.5702)" fill="#70A3C1" cx="177.387" cy="510.105" rx="17.197" ry="2.931"/>
		<g>
			<path fill="#70A3C1" d="M207.79,422.125c112.17-40.3,29.045-113.318,29.045-113.318c58.018-38.202,37.682-160.069,37.682-160.069
				c6.592-1.423,13-6.077,15.64-9.102c4.427-5.077,7.134-11.697,7.206-18.961c0.159-16.186-12.834-29.436-29.02-29.594
				s-29.436,12.833-29.594,29.019c-0.039,3.9,0.744,7.617,2.095,11.033c-112.882-26.51-208.265-2.045-208.265-2.045
				c1.415-3.389,2.42-7.004,2.459-10.905c0.158-16.186-12.834-29.435-29.021-29.594c-16.185-0.159-29.437,12.833-29.595,29.019
				c-0.071,7.263,2.507,13.936,6.832,19.099c3.985,4.757,9.455,8.233,15.705,9.711c0,0-23.378,121.438,33.88,160.773
				c0,0-84.198,81.207,30.777,112.622C63.617,419.813,175.779,433.625,207.79,422.125z"/>
			<circle fill="#FFFFFF" cx="76.831" cy="224.95" r="26.704"/>
			<circle fill="#FFFFFF" cx="188.647" cy="226.048" r="26.704"/>
			<g>
				<g>
					<path fill="#558AA5" d="M166.739,197.265c9.946,3.038,17.693-2.502,27.396-3.306c2.523-0.209,4.608,0.954,6.8,2.088
						c4.798,2.483,9.267,5.631,13.657,8.759c2.058,1.466,4.006-1.925,1.973-3.374c-5.654-4.029-12.895-10.218-20.072-11.326
						c-10.08-1.557-18.37,6.55-28.715,3.39C165.361,192.758,164.337,196.531,166.739,197.265L166.739,197.265z"/>
				</g>
			</g>
			<g>
				<g>
					<path fill="#558AA5" d="M49.734,205.935c4.237-7.808,11.355-10.972,20.003-11.355c3.746-0.166,7.625,0.92,11.325,1.402
						c5.311,0.691,21.066,3.606,21.896-4.94c0.243-2.508-3.667-2.485-3.908,0c-0.438,4.509-22.213,0.435-25.14-0.027
						c-11.088-1.75-22.158,3.012-27.551,12.948C45.157,206.178,48.532,208.15,49.734,205.935L49.734,205.935z"/>
				</g>
			</g>
			<g>
				<path fill="#558AA5" d="M183.8,353.479c9.785-4.429-31.158-23.436-47.973-22.994c-18.161,0.48-33.619,6.847-40.389,15.597
					c0,0,19.125,32.397,46.661,29.298C153.042,374.148,167.554,360.831,183.8,353.479z"/>
				<g>
					<path fill="#558AA5" d="M192.885,369.021c8.385-4.303,11.683-13.958,9.665-22.773c-1.556-6.796-7.087-11.184-12.291-15.137
						c-8.465-6.43-19.444-10.417-29.369-13.83c-12.773-4.392-25.049-5.405-38.399-3.476c-14.304,2.067-30.386,7.99-39.78,19.548
						c-5.141,6.327-7.27,14.325-2.814,21.813c8.041,13.512,20.836,26.563,35.282,32.959c14.058,6.225,28.308,7.177,42.526,0.948
						C170.087,383.65,180.609,374.732,192.885,369.021c8.896-4.139,11.063-16.765,6.458-24.627
						c-5.299-9.045-15.731-10.596-24.628-6.458c-10.706,4.981-20.145,12.072-30.452,17.757c-0.791,0.429-1.592,0.841-2.4,1.237
						c-3.964,1.989,3.642-1.307-0.281,0.1c-1.052,0.377-2.139,0.618-3.23,0.843c5.093-1.05,1.307-0.306-0.066-0.284
						c-1.236,0.02-2.471-0.099-3.698-0.217c5.142,0.494,1.213,0.042,0.048-0.237c-1.153-0.276-2.277-0.664-3.398-1.048
						c-3.921-1.345,3.708,1.748-0.013-0.021c-1.739-0.827-3.393-1.829-5.018-2.858c-0.96-0.608-1.881-1.275-2.801-1.941
						c4.137,2.993,1.018,0.763,0.169,0.05c-2.85-2.394-5.447-5.085-7.903-7.876c-0.942-1.071-1.841-2.18-2.728-3.298
						c4.064,5.124,0.878,1.096-0.015-0.177c-0.679-0.967-1.342-1.953-1.946-2.969c-0.938,7.271-1.877,14.542-2.814,21.813
						c1.198-1.475,2.495-2.785,3.928-4.033c-3.854,3.356,1.442-0.731,2.649-1.41c0.801-0.435,1.614-0.846,2.438-1.234
						c4.24-2.073-3.568,1.316,1.029-0.36c2.919-1.064,5.949-1.798,8.983-2.442c1.068-0.214,2.142-0.405,3.219-0.573
						c-4.05,0.675,1.49-0.071,1.934-0.106c2.232-0.178,4.451-0.22,6.682-0.049c1.864,0.198,1.161,0.093-2.109-0.315
						c0.962,0.137,1.915,0.327,2.868,0.514c2.074,0.406,4.12,0.95,6.155,1.517c3.657,1.017,7.242,2.286,10.784,3.646
						c0.713,0.277,1.424,0.561,2.133,0.85c-4.844-1.955-1.141-0.475-0.15-0.035c1.95,0.868,3.865,1.812,5.763,2.791
						c1.422,0.733,2.811,1.527,4.185,2.347c1.473,0.879,6.275,4.642,0.91,0.34c1.494,1.198,3.557,4.262-0.457-1.212
						c-3.983-5.432,0.106-18.286,5.604-21.107c-8.722,4.476-11.209,16.516-6.458,24.627
						C173.414,371.367,184.155,373.501,192.885,369.021z"/>
				</g>
			</g>
			<path fill="#FFFFFF" d="M95.981,329.361c0,0,7.996,11.153,14.087,8.171c2.77-1.354,3.717-5.391,5.848-15.141
				c0,0-12.184,2.487-19.925,6.101l-0.491,0.159L95.981,329.361z"/>
			<g>
				<g>
					<path fill="#558AA5" d="M250.16,274.938c16.667-2.207,33.357-6.229,49.065-12.21c19.521-7.434,45.614-22.156,38.832-47.152
						c-4.458-16.43-19.066-25.644-30.438-36.861c-10.197-10.06-8.146-24.917-3.715-37.166c5.392-14.906,15.002-28.484,24.817-40.784
						c7.231-9.061,15.038-17.696,23.284-25.844c0.796-0.787,1.597-1.571,2.413-2.337c4.296-4.032-2.165-10.468-6.447-6.448
						c-16.732,15.706-32.032,34.085-43.683,53.846c-7.495,12.713-14.178,27.716-13.137,42.809
						c0.484,7.021,2.949,13.641,7.266,19.197c5.457,7.023,13.436,11.861,19.584,18.299c7.745,8.11,14.987,19.133,10.65,30.372
						c-3.539,9.174-14.38,15.238-22.818,19.374c-17.199,8.43-36.772,12.97-55.653,15.774c-0.569,0.084-2.44,0.333-0.021,0.012
						C244.418,266.58,244.344,275.708,250.16,274.938L250.16,274.938z"/>
				</g>
			</g>
			<circle fill="#558AA5" cx="351.704" cy="74.538" r="12.244"/>
			<circle fill="#558AA5" cx="-2.688" cy="36.73" r="12.244"/>
			<g>
				<g>
					<path fill="#558AA5" d="M18.289,246.618c-15.938-2.79-33.502-10.971-43.134-24.298c-9.259-12.811-8.424-28.472-3.534-42.838
						c3.865-11.356,10.661-21.458,15.204-32.549c4.713-11.504,7.787-23.648,9.954-35.869c4.369-24.646,5.312-50.766,1.929-75.629
						c-0.79-5.804-9.575-3.323-8.793,2.424c-0.368-2.706,0.07,0.719,0.139,1.34c0.259,2.378,0.459,4.762,0.635,7.147
						c0.589,7.933,0.775,15.895,0.683,23.848c-0.271,23.269-3.448,46.641-11.188,68.652c-7.213,20.513-21.143,37.766-21.427,60.38
						c-0.175,13.972,5.98,26.909,16.1,36.355c10.911,10.185,26.302,17.255,41.01,19.83
						C21.614,256.417,24.074,247.631,18.289,246.618L18.289,246.618z"/>
				</g>
			</g>
			<circle fill="#70A3C1" cx="60.985" cy="419.34" r="12.376"/>
			<circle fill="#70A3C1" cx="157.968" cy="430.09" r="12.375"/>
			<g>
				<line fill="#70A3C1" x1="61.854" y1="426.417" x2="54.04" y2="505.052"/>
				<g>
					<path fill="#70A3C1" d="M57.295,426.417c-2.604,26.211-5.21,52.423-7.814,78.634c-0.581,5.851,8.543,5.795,9.119,0
						c2.604-26.211,5.21-52.423,7.814-78.634C66.995,420.566,57.871,420.623,57.295,426.417L57.295,426.417z"/>
				</g>
			</g>
			<g>
				<line fill="#70A3C1" x1="157.968" y1="430.09" x2="164.221" y2="508.864"/>
				<g>
					<path fill="#70A3C1" d="M153.408,430.09c2.085,26.258,4.169,52.516,6.253,78.773c0.463,5.821,9.584,5.866,9.119,0
						c-2.084-26.258-4.169-52.516-6.253-78.773C162.065,424.27,152.942,424.225,153.408,430.09L153.408,430.09z"/>
				</g>
			</g>
			<circle cx="74.603" cy="235.709" r="13.115"/>
			<circle cx="186.818" cy="236.752" r="13.172"/>
			<circle fill="#FFFFFF" cx="72.627" cy="246.938" r="1.866"/>
			<circle fill="#FFFFFF" cx="184.834" cy="248.032" r="1.873"/>
		</g>
	</g>
</g>
</svg>
