<?xml version="1.0" encoding="utf-8"?>
<!-- Generator: Adobe Illustrator 16.0.0, SVG Export Plug-In . SVG Version: 6.00 Build 0)  -->
<!DOCTYPE svg PUBLIC "-//W3C//DTD SVG 1.1//EN" "http://www.w3.org/Graphics/SVG/1.1/DTD/svg11.dtd">
<svg version="1.1" id="Layer_1" xmlns="http://www.w3.org/2000/svg" xmlns:xlink="http://www.w3.org/1999/xlink" x="0px" y="0px"
	 width="841.89px" height="595.28px" viewBox="0 0 841.89 595.28" enable-background="new 0 0 841.89 595.28" xml:space="preserve">
<path fill="#689FBB" d="M505.587,419.097c111.77-41.399,27.931-113.598,27.931-113.598c57.64-38.77,36.107-160.432,36.107-160.432
	c6.579-1.488,12.942-6.204,15.551-9.255c4.376-5.12,7.019-11.767,7.019-19.03c0-16.187-13.122-29.308-29.309-29.308
	c-16.186,0-29.308,13.122-29.308,29.308c0,3.9,0.82,7.609,2.204,11.012c-113.137-25.4-208.275,0-208.275,0
	c1.383-3.403,2.352-7.028,2.352-10.929c0-16.187-13.122-29.308-29.309-29.308c-16.186,0-29.309,13.122-29.309,29.308
	c0,7.264,2.644,13.91,7.02,19.031c4.031,4.717,9.535,8.14,15.799,9.556c0,0-22.184,121.663,35.456,160.434
	c0,0-83.396,82.029,31.883,112.314C361.398,418.201,473.69,430.912,505.587,419.097z"/>
<path fill="none" stroke="#556337" stroke-width="0.6513" stroke-miterlimit="10" d="M592.194,478.125"/>
<circle fill="#FFFFFF" cx="372.699" cy="223.218" r="26.705"/>
<circle fill="#FFFFFF" cx="484.52" cy="223.218" r="26.705"/>
<circle cx="384.146" cy="217.316" r="11.447"/>
<circle cx="495.967" cy="217.316" r="11.447"/>
<circle fill="#FFFFFF" cx="390.708" cy="211.894" r="1.628"/>
<circle fill="#FFFFFF" cx="501.109" cy="210.917" r="1.628"/>
<g>
	<g>
		<path fill="#5388A0" d="M464.518,193.749c8.019-14.87,35.752-16.102,45.214-1.864c1.387,2.088,4.773,0.133,3.374-1.973
			c-11.022-16.587-42.422-15.828-51.962,1.864C459.948,193.994,463.322,195.967,464.518,193.749L464.518,193.749z"/>
	</g>
</g>
<g>
	<g>
		<path fill="#5388A0" d="M349.635,191.924c8.019-14.87,35.752-16.101,45.214-1.864c1.387,2.088,4.773,0.133,3.374-1.973
			c-11.022-16.587-42.422-15.828-51.962,1.864C345.065,192.169,348.439,194.142,349.635,191.924L349.635,191.924z"/>
	</g>
</g>
<g>
	<g>
		<path fill="#5388A0" d="M403.101,354.768c0.693-0.871,1.411-1.687,2.18-2.492c0.41-0.429,3.36-2.869,0.576-0.743
			c2.463-1.882,5.247-3.323,8.045-4.63c-2.757,1.288,1.704-0.556,1.868-0.613c1.457-0.507,2.949-0.908,4.437-1.31
			c4.267-1.154,5.614-1.305,9.042-1.611c7.495-0.67,13.922-0.139,19.614,1.144c1.491,0.336,2.954,0.779,4.415,1.225
			c0.931,0.297,1.854,0.619,2.768,0.965c-1.384-0.626-1.29-0.578,0.28,0.145c1.2,0.558,2.344,1.223,3.484,1.892
			c0.715,0.436,1.413,0.896,2.094,1.383c-1.424-1.133-1.512-1.167-0.264-0.103c6.128,5.401,15.162,6.051,21.213,0
			c5.507-5.506,6.137-15.804,0-21.213c-14.088-12.417-33.507-16.415-51.874-15.555c-17.136,0.802-37.895,6.245-49.091,20.304
			c-5.089,6.389-6.266,14.947,0,21.213C387.178,360.059,397.999,361.174,403.101,354.768L403.101,354.768z"/>
	</g>
</g>
<path fill="#FFFFFF" d="M389.715,327.417c0,0,8.104,11.074,14.166,8.033c2.755-1.381,3.664-5.428,5.699-15.198
	c0,0-12.158,2.606-19.865,6.296l-0.489,0.164L389.715,327.417z"/>
<g>
	<g>
		<path fill="#689FBB" d="M548.841,271.596c17.078-1.353,43.667,1.748,50.069,20.62c3.034,8.944,0.21,18.911,0.433,28.112
			c0.216,8.913,2.023,17.813,6.054,25.796c3.302,6.539,9.274,13.255,16.48,15.567c5.615,1.801,8-7.004,2.424-8.793
			c-1.275-0.409,0.899,0.465-0.5-0.222c-1.239-0.609-2.8-1.656-3.387-2.129c-4.411-3.562-7.321-8.532-9.174-13.828
			c-3.426-9.789-3.211-20.502-2.155-30.676c0.821-7.907-0.334-15.834-4.282-22.802c-10.286-18.156-36.949-22.269-55.963-20.762
			C543.02,262.939,542.975,272.061,548.841,271.596L548.841,271.596z"/>
	</g>
</g>
<circle fill="#689FBB" cx="635.397" cy="360.936" r="12.243"/>
<circle fill="#689FBB" cx="244.493" cy="392.225" r="12.243"/>
<g>
	<g>
		<path fill="#689FBB" d="M311.779,256.411c-18.41,3.38-36.547,14.618-48.926,28.338c-12.247,13.574-18.853,30.624-21.146,48.6
			c-1.879,14.729-0.717,30.347-0.756,45.181c-0.006,2.298-0.012,4.596-0.018,6.894c-0.016,5.881,9.103,5.879,9.118,0
			c0.078-29.828-3.619-61.876,14.146-87.779c11.185-16.309,30.395-28.492,49.798-32.4c0.069-0.014,0.138-0.027,0.207-0.04
			C319.981,264.143,317.526,255.356,311.779,256.411L311.779,256.411z"/>
	</g>
</g>
<circle fill="#689FBB" cx="360.975" cy="416.843" r="12.375"/>
<circle fill="#689FBB" cx="487.125" cy="422.923" r="12.375"/>
<g>
	<line fill="#689FBB" x1="360.975" y1="422.923" x2="360.975" y2="501.945"/>
	<g>
		<path fill="#689FBB" d="M356.416,422.923c0,26.34,0,52.681,0,79.021c0,5.88,9.118,5.88,9.118,0c0-26.34,0-52.681,0-79.021
			C365.534,417.043,356.416,417.043,356.416,422.923L356.416,422.923z"/>
	</g>
</g>
<g>
	<line fill="#689FBB" x1="487.125" y1="422.923" x2="487.125" y2="501.945"/>
	<g>
		<path fill="#689FBB" d="M482.566,422.923c0,26.34,0,52.681,0,79.021c0,5.88,9.118,5.88,9.118,0c0-26.34,0-52.681,0-79.021
			C491.684,417.043,482.566,417.043,482.566,422.923L482.566,422.923z"/>
	</g>
</g>
<ellipse fill="#689FBB" cx="347.034" cy="504.875" rx="17.197" ry="2.932"/>
<ellipse fill="#689FBB" cx="500.152" cy="504.224" rx="17.197" ry="2.932"/>
</svg>
