<?xml version="1.0" encoding="utf-8"?>
<!-- Generator: Adobe Illustrator 16.0.0, SVG Export Plug-In . SVG Version: 6.00 Build 0)  -->
<!DOCTYPE svg PUBLIC "-//W3C//DTD SVG 1.1//EN" "http://www.w3.org/Graphics/SVG/1.1/DTD/svg11.dtd">
<svg version="1.1" id="Layer_1" xmlns="http://www.w3.org/2000/svg" xmlns:xlink="http://www.w3.org/1999/xlink" x="0px" y="0px"
	 width="841.89px" height="595.28px" viewBox="0 0 841.89 595.28" enable-background="new 0 0 841.89 595.28" xml:space="preserve">
<path fill="#689FBB" d="M505.587,419.097c111.77-41.399,27.931-113.598,27.931-113.598c57.64-38.77,36.107-160.432,36.107-160.432
	c6.579-1.488,12.942-6.204,15.551-9.255c4.376-5.12,7.019-11.767,7.019-19.03c0-16.187-13.122-29.308-29.309-29.308
	c-16.186,0-29.308,13.122-29.308,29.308c0,3.9,0.82,7.609,2.204,11.012c-113.137-25.4-208.275,0-208.275,0
	c1.383-3.403,2.352-7.028,2.352-10.929c0-16.187-13.122-29.308-29.309-29.308c-16.186,0-29.309,13.122-29.309,29.308
	c0,7.264,2.644,13.91,7.02,19.031c4.031,4.717,9.535,8.14,15.799,9.556c0,0-22.184,121.663,35.456,160.434
	c0,0-83.396,82.029,31.883,112.314C361.398,418.201,473.69,430.912,505.587,419.097z"/>
<path fill="none" stroke="#556337" stroke-width="0.6513" stroke-miterlimit="10" d="M592.194,478.125"/>
<circle fill="#FFFFFF" cx="372.699" cy="223.218" r="26.705"/>
<circle fill="#FFFFFF" cx="484.52" cy="223.218" r="26.705"/>
<circle cx="384.146" cy="217.316" r="11.447"/>
<circle cx="495.967" cy="217.316" r="11.447"/>
<circle fill="#FFFFFF" cx="390.708" cy="211.894" r="1.628"/>
<circle fill="#FFFFFF" cx="501.109" cy="210.917" r="1.628"/>
<g>
	<g>
		<path fill="#5388A0" d="M464.518,193.749c8.019-14.87,35.752-16.102,45.214-1.864c1.387,2.088,4.773,0.133,3.374-1.973
			c-11.022-16.587-42.422-15.828-51.962,1.864C459.948,193.994,463.322,195.967,464.518,193.749L464.518,193.749z"/>
	</g>
</g>
<g>
	<g>
		<path fill="#5388A0" d="M349.635,191.924c8.019-14.87,35.752-16.101,45.214-1.864c1.387,2.088,4.773,0.133,3.374-1.973
			c-11.022-16.587-42.422-15.828-51.962,1.864C345.065,192.169,348.439,194.143,349.635,191.924L349.635,191.924z"/>
	</g>
</g>
<g>
	<g>
		<path fill="#5388A0" d="M411.095,362.762c1.562-1.961,7.688-6.982,0.467-1.466c2.464-1.882,5.247-3.324,8.045-4.631
			c-8.083,3.776,1.295-0.159,3.604-0.783c1.55-0.419,3.127-0.732,4.7-1.045c2.842-0.475,2.154-0.416-2.063,0.178
			c1.131-0.138,2.264-0.251,3.399-0.34c3.506-0.313,7.033-0.29,10.545-0.15c1.702,0.068,3.396,0.247,5.088,0.428
			c-8.318-0.887-0.881,0.044,0.975,0.462c1.491,0.336,2.954,0.779,4.415,1.225c0.932,0.297,1.854,0.619,2.769,0.965
			c-4.073-1.791-4.88-2.122-2.42-0.995c1.2,0.557,2.344,1.223,3.484,1.892c5.709,3.352-3.53-3.194-0.458-0.488
			c10.747,9.472,26.589,10.612,37.201,0c9.657-9.657,10.763-27.715,0-37.201c-16.375-14.433-38.347-19.874-59.868-18.866
			c-19.862,0.93-44.088,7.296-57.085,23.615c-4.548,5.71-7.705,11-7.705,18.601c0,6.949,2.793,13.69,7.705,18.601
			C383.172,372.041,402.147,373.997,411.095,362.762L411.095,362.762z"/>
	</g>
</g>
<path fill="#FFFFFF" d="M395.051,311.384c0,0,8.104,11.074,14.166,8.033c2.755-1.381,3.664-5.428,5.699-15.198
	c0,0-12.158,2.606-19.865,6.296l-0.489,0.164L395.051,311.384z"/>
<g>
	<g>
		<path fill="#5388A0" d="M548.841,271.596c19.146-1.517,49.264,3.075,51.311,26.832c1.568,18.191-9.331,33.943-24.829,42.253
			c-8.001,4.29-18.776,7.218-26.423,7.757c-0.02,0.001-0.04,0.002-0.059,0.004c-5.84,0.364-5.875,9.485,0,9.118
			c25.775-1.607,51.799-16.953,58.746-42.901c4.388-16.394,0.541-33.068-13.91-42.793c-10.543-7.095-24.307-9.141-36.75-9.516
			c-2.687-0.081-5.403-0.085-8.085,0.128C543.02,262.939,542.975,272.061,548.841,271.596L548.841,271.596z"/>
	</g>
</g>
<circle fill="#5388A0" cx="540.731" cy="350.521" r="12.243"/>
<circle fill="#5388A0" cx="312.991" cy="319.946" r="12.243"/>
<g>
	<g>
		<path fill="#5388A0" d="M310.69,256.871c-19.004,14.154-37.346,29.98-53.056,47.737c-8.792,9.937-18.34,21.72-20.032,35.326
			c-1.665,13.393,11.649,22.934,24.046,21.647c13.494-1.399,25.291-11.044,34.889-19.907c6.15-5.68,11.988-11.889,17.13-18.504
			c3.563-4.583-2.842-11.086-6.447-6.448c-6.523,8.392-14.102,16.141-22.208,22.996c-9.19,7.771-25.998,19.68-36.591,7.861
			c-6.543-7.3,4.022-21.714,8.709-28.053c9.456-12.787,21.411-23.882,33.286-34.375c8.022-7.09,17.195-14.687,24.876-20.407
			C319.95,261.275,315.412,253.354,310.69,256.871L310.69,256.871z"/>
	</g>
</g>
<circle fill="#689FBB" cx="360.975" cy="416.843" r="12.375"/>
<circle fill="#689FBB" cx="487.125" cy="422.923" r="12.375"/>
<g>
	<line fill="#689FBB" x1="360.975" y1="422.923" x2="360.975" y2="501.945"/>
	<g>
		<path fill="#689FBB" d="M356.416,422.923c0,26.34,0,52.681,0,79.021c0,5.88,9.118,5.88,9.118,0c0-26.34,0-52.681,0-79.021
			C365.534,417.043,356.416,417.043,356.416,422.923L356.416,422.923z"/>
	</g>
</g>
<g>
	<line fill="#689FBB" x1="487.125" y1="422.923" x2="487.125" y2="501.945"/>
	<g>
		<path fill="#689FBB" d="M482.566,422.923c0,26.34,0,52.681,0,79.021c0,5.88,9.118,5.88,9.118,0c0-26.34,0-52.681,0-79.021
			C491.684,417.043,482.566,417.043,482.566,422.923L482.566,422.923z"/>
	</g>
</g>
<ellipse fill="#689FBB" cx="347.034" cy="504.875" rx="17.197" ry="2.932"/>
<ellipse fill="#689FBB" cx="500.152" cy="504.224" rx="17.197" ry="2.932"/>
<path fill="#A8DFF2" stroke="#FFFFFF" stroke-width="0.0768" stroke-miterlimit="10" d="M370.61,247.75c0,0,1-2.25,4.5-2.25
	s6.25-1.75,6.25-3s-0.177-4.25,2.787-4s5.911-0.5,6.562-1.75s2.218-3.666,3.853-2.25s0,5.25,0,5.25s-1.884,2.071-2.834,2.202
	s1.633,0.548-0.201,1.548c0,0-3.429,3.576-5.667,3.833s-1.417,1.083-2.167,1.917s-4.583,0.672-4.583,0.672s-3.5-0.672-5.417,0.828
	S370.61,247.75,370.61,247.75z"/>
<path fill="#A8DFF2" stroke="#FFFFFF" stroke-width="0.0768" stroke-miterlimit="10" d="M486.585,248.083c0,0-1-2.25-4.5-2.25
	s-6.25-1.75-6.25-3s0.177-4.25-2.787-4s-5.911-0.5-6.562-1.75s-2.218-3.666-3.853-2.25s0,5.25,0,5.25s1.884,2.071,2.834,2.202
	s-1.633,0.548,0.201,1.548c0,0,3.429,3.576,5.667,3.833s1.417,1.083,2.167,1.917s4.583,0.672,4.583,0.672s3.5-0.672,5.417,0.828
	S486.585,248.083,486.585,248.083z"/>
</svg>
