<?xml version="1.0" encoding="utf-8"?>
<!-- Generator: Adobe Illustrator 16.0.0, SVG Export Plug-In . SVG Version: 6.00 Build 0)  -->
<!DOCTYPE svg PUBLIC "-//W3C//DTD SVG 1.1//EN" "http://www.w3.org/Graphics/SVG/1.1/DTD/svg11.dtd">
<svg version="1.1" id="Layer_1" xmlns="http://www.w3.org/2000/svg" xmlns:xlink="http://www.w3.org/1999/xlink" x="0px" y="0px"
	 width="841.89px" height="595.28px" viewBox="0 0 841.89 595.28" enable-background="new 0 0 841.89 595.28" xml:space="preserve">
<path fill="#689FBB" d="M505.587,419.098c111.77-41.4,27.931-113.598,27.931-113.598c57.64-38.771,36.107-160.432,36.107-160.432
	c6.579-1.488,12.942-6.204,15.551-9.255c4.376-5.12,7.019-11.767,7.019-19.03c0-16.187-13.122-29.308-29.309-29.308
	c-16.186,0-29.308,13.122-29.308,29.308c0,3.9,0.82,7.609,2.204,11.012c-113.137-25.4-208.275,0-208.275,0
	c1.383-3.403,2.352-7.028,2.352-10.929c0-16.187-13.122-29.308-29.309-29.308c-16.186,0-29.309,13.122-29.309,29.308
	c0,7.264,2.644,13.91,7.02,19.031c4.031,4.717,9.535,8.14,15.799,9.556c0,0-22.184,121.663,35.456,160.434
	c0,0-83.396,82.029,31.883,112.314C361.398,418.201,473.69,430.912,505.587,419.098z"/>
<path fill="none" stroke="#556337" stroke-width="0.6513" stroke-miterlimit="10" d="M592.194,478.125"/>
<circle fill="#FFFFFF" cx="372.699" cy="223.218" r="26.705"/>
<circle fill="#FFFFFF" cx="484.52" cy="223.218" r="26.705"/>
<circle cx="360.975" cy="217.316" r="11.447"/>
<circle cx="495.967" cy="217.316" r="11.447"/>
<circle fill="#FFFFFF" cx="353.435" cy="213.522" r="1.628"/>
<circle fill="#FFFFFF" cx="501.109" cy="210.917" r="1.628"/>
<g>
	<g>
		<path fill="#5388A0" d="M464.519,193.749c8.019-14.87,35.752-16.101,45.213-1.864c1.388,2.088,4.774,0.133,3.375-1.973
			c-11.022-16.587-42.423-15.828-51.963,1.864C459.947,193.994,463.322,195.967,464.519,193.749L464.519,193.749z"/>
	</g>
</g>
<g>
	<g>
		<path fill="#5388A0" d="M349.636,191.924c8.019-14.87,35.752-16.101,45.213-1.864c1.388,2.088,4.774,0.133,3.375-1.973
			c-11.022-16.587-42.423-15.828-51.963,1.864C345.065,192.169,348.439,194.143,349.636,191.924L349.636,191.924z"/>
	</g>
</g>
<g>
	<g>
		<path fill="#5388A0" d="M411.095,362.763c1.563-1.961,7.688-6.982,0.468-1.467c2.463-1.882,5.246-3.323,8.045-4.63
			c-8.084,3.775,1.295-0.159,3.604-0.784c1.55-0.419,3.126-0.731,4.7-1.045c2.842-0.475,2.154-0.415-2.063,0.179
			c1.131-0.138,2.264-0.252,3.399-0.341c3.505-0.313,7.032-0.29,10.545-0.149c1.701,0.067,3.396,0.247,5.088,0.427
			c-8.317-0.886-0.881,0.044,0.976,0.462c1.491,0.336,2.954,0.779,4.415,1.226c0.931,0.297,1.854,0.618,2.769,0.965
			c-4.074-1.791-4.881-2.122-2.421-0.995c1.2,0.558,2.344,1.223,3.483,1.892c5.71,3.351-3.529-3.194-0.458-0.488
			c10.747,9.472,26.589,10.612,37.201,0c9.656-9.656,10.764-27.716,0-37.201c-16.376-14.432-38.347-19.873-59.868-18.865
			c-19.862,0.931-44.088,7.296-57.085,23.615c-4.548,5.711-7.705,11-7.705,18.601c0,6.949,2.794,13.689,7.705,18.601
			C383.172,372.041,402.147,373.997,411.095,362.763L411.095,362.763z"/>
	</g>
</g>
<path fill="#FFFFFF" d="M395.051,311.385c0,0,8.104,11.074,14.166,8.033c2.755-1.381,3.664-5.428,5.699-15.199
	c0,0-12.158,2.607-19.865,6.297l-0.489,0.164L395.051,311.385z"/>
<g>
	<g>
		<path fill="#5388A0" d="M550.053,271.434c-2.666,0.365,0.472-0.013,1.098-0.06c1.991-0.147,3.989-0.172,5.984-0.131
			c5.518,0.114,10.939,1.077,16.096,3.068c5.76,2.224,10.583,6.771,12.844,12.532c2.313,5.895,2.991,15.655,0.71,20.603
			c-1.295,2.81-2.98,3.414-6.167,3.47c-4.376,0.077-9.263-1.702-13.658-3.498c-12.834-5.243-24.649-13.539-35.864-21.558
			c-17.094-12.223-33.508-25.626-49.05-39.775c-4.337-3.949-10.805,2.481-6.447,6.447c14.993,13.651,30.835,26.494,47.168,38.499
			c11.6,8.525,23.661,16.771,36.697,22.957c8.674,4.115,19.993,8.758,29.352,4.139c6.654-3.284,7.884-11.203,8.241-17.802
			c0.591-10.892-2.866-22.102-11.503-29.153c-10.249-8.368-25.121-10.284-37.924-8.532
			C541.824,263.435,544.305,272.22,550.053,271.434L550.053,271.434z"/>
	</g>
</g>
<g>
	<g>
		<path fill="#5388A0" d="M310.689,256.871c-9.801,7.461-18.925,17.204-24.094,28.462c-3.611,7.864-4.754,16.774-1.195,24.871
			c2.66,6.051,7.637,12.165,14.432,13.539c12.389,2.505,23.781-9.067,31.271-17.296c10.319-11.338,18.925-24.306,26.901-37.356
			c3.381-5.531,6.672-11.138,9.707-16.867c2.751-5.192-5.12-9.8-7.873-4.603c-10.893,20.563-23.797,41.834-40.66,58.024
			c-3.953,3.796-8.551,7.638-13.957,9.054c-4.865,1.273-8.36-2.36-11.043-7.169c-7.935-14.225,8.008-31.101,17.678-39.835
			c0.931-0.841,1.886-1.656,2.852-2.457c0.412-0.342,2.315-1.811,0.586-0.494C319.905,261.233,315.371,253.307,310.689,256.871
			L310.689,256.871z"/>
	</g>
</g>
<circle fill="#689FBB" cx="360.975" cy="416.844" r="12.375"/>
<circle fill="#689FBB" cx="487.125" cy="422.924" r="12.375"/>
<g>
	<line fill="#689FBB" x1="360.975" y1="422.924" x2="360.975" y2="501.945"/>
	<g>
		<path fill="#689FBB" d="M356.415,422.924c0,26.341,0,52.681,0,79.021c0,5.88,9.119,5.88,9.119,0c0-26.341,0-52.681,0-79.021
			C365.534,417.044,356.415,417.044,356.415,422.924L356.415,422.924z"/>
	</g>
</g>
<g>
	<line fill="#689FBB" x1="487.125" y1="422.924" x2="487.125" y2="501.945"/>
	<g>
		<path fill="#689FBB" d="M482.565,422.924c0,26.341,0,52.681,0,79.021c0,5.88,9.119,5.88,9.119,0c0-26.341,0-52.681,0-79.021
			C491.685,417.044,482.565,417.044,482.565,422.924L482.565,422.924z"/>
	</g>
</g>
<ellipse fill="#689FBB" cx="347.034" cy="504.875" rx="17.197" ry="2.932"/>
<ellipse fill="#689FBB" cx="500.152" cy="504.225" rx="17.197" ry="2.932"/>
<path fill="#A8DFF2" stroke="#FFFFFF" stroke-width="0.0882" stroke-miterlimit="10" d="M356.277,238.475
	c0,0-3.23-7.262,2.964-7.262s9.062-0.665,9.062-3.966c0-3.302-0.313-11.226,4.933-10.566s10.462-1.32,11.614-4.623
	c1.152-3.301,13.926-0.445,16.819,3.294c2.894,3.739,1,13.867,1,13.867s-1.334,4.151-3.017,4.498s-1.11,2.767-4.355,5.408
	c0,0-3.068,9.445-7.029,10.126c-3.962,0.68-4.508,1.541-5.835,3.742c-1.327,2.202-6.112,1.776-6.112,1.776s-5.195-4.416-8.587-0.453
	C364.342,258.278,356.277,238.475,356.277,238.475z"/>
<path fill="#A8DFF2" stroke="#FFFFFF" stroke-width="0.083" stroke-miterlimit="10" d="M505.766,239.392
	c0,0,0.398-14.713-5.789-14.973c-6.189-0.261-9.029-0.97-8.907-3.895c0.124-2.925,0.731-9.932-4.533-9.568
	c-5.266,0.365-10.403-1.609-11.433-4.583c-1.028-2.973-13.637,3.125-16.668,6.315s-2.53,14.59-2.53,14.59s1.177,3.733,2.847,4.111
	c1.668,0.377,1.006,2.497,4.149,4.974c0,0,2.714,8.496,6.646,9.266c3.934,0.77,4.446,1.555,5.69,3.561
	c1.243,2.007,6.041,1.831,6.041,1.831s5.354-3.693,8.597-0.04C493.116,254.634,505.766,239.392,505.766,239.392z"/>
<path fill="#A8DFF2" stroke="#FFFFFF" stroke-width="0.0768" stroke-miterlimit="10" d="M392.646,450.562
	c0,0-19.534,15.337,0,21.343C392.646,471.904,411.491,467.568,392.646,450.562z"/>
<path fill="#A8DFF2" stroke="#FFFFFF" stroke-width="0.0768" stroke-miterlimit="10" d="M390.875,248.244
	c0,0-19.534,15.337,0,21.343C390.875,269.587,409.72,265.25,390.875,248.244z"/>
<path fill="#A8DFF2" stroke="#FFFFFF" stroke-width="0.0768" stroke-miterlimit="10" d="M480.975,258.916
	c0,0-19.534,15.337,0,21.343C480.975,280.258,499.819,275.922,480.975,258.916z"/>
<path fill="#A8DFF2" stroke="#FFFFFF" stroke-width="0.0768" stroke-miterlimit="10" d="M472.397,406.172
	c0,0-19.534,15.338,0,21.343C472.397,427.515,491.242,423.178,472.397,406.172z"/>
<circle fill="#5388A0" cx="376.62" cy="232.615" r="23.185"/>
<circle fill="#5388A0" cx="462.831" cy="246.402" r="23.185"/>
<path opacity="0.67" fill="#A8DFF2" stroke="#FFFFFF" stroke-width="0.5889" stroke-miterlimit="10" d="M0,435.171
	c0,0,49.33-88.972,117.33-19.941s105.756,30.482,170.395-11.505c64.639-41.986,57.643-77.635,229.624,5.752
	c171.981,83.388,147.981-8.456,201.981-38.535c54-30.08,122.56,64.532,122.56,64.532V595.28H0V435.171z"/>
</svg>
