<?xml version="1.0" encoding="utf-8"?>
<!-- Generator: Adobe Illustrator 16.0.0, SVG Export Plug-In . SVG Version: 6.00 Build 0)  -->
<!DOCTYPE svg PUBLIC "-//W3C//DTD SVG 1.1//EN" "http://www.w3.org/Graphics/SVG/1.1/DTD/svg11.dtd">
<svg version="1.1" id="Layer_1" xmlns="http://www.w3.org/2000/svg" xmlns:xlink="http://www.w3.org/1999/xlink" x="0px" y="0px"
	 width="841.89px" height="595.28px" viewBox="0 0 841.89 595.28" enable-background="new 0 0 841.89 595.28" xml:space="preserve">
<path fill="#689FBB" d="M505.587,419.098c111.77-41.4,27.931-113.598,27.931-113.598c57.64-38.771,36.107-160.433,36.107-160.433
	c6.579-1.487,12.942-6.203,15.551-9.255c4.376-5.12,7.019-11.767,7.019-19.03c0-16.187-13.122-29.309-29.309-29.309
	c-16.186,0-29.308,13.122-29.308,29.309c0,3.9,0.82,7.609,2.204,11.012c-113.137-25.4-208.275,0-208.275,0
	c1.383-3.402,2.352-7.027,2.352-10.928c0-16.188-13.122-29.309-29.309-29.309c-16.186,0-29.309,13.121-29.309,29.309
	c0,7.264,2.644,13.91,7.02,19.03c4.031,4.718,9.535,8.14,15.799,9.556c0,0-22.184,121.663,35.456,160.435
	c0,0-83.396,82.029,31.883,112.314C361.398,418.201,473.69,430.912,505.587,419.098z"/>
<path fill="none" stroke="#556337" stroke-width="0.6513" stroke-miterlimit="10" d="M592.194,478.125"/>
<circle fill="#FFFFFF" cx="372.699" cy="223.218" r="26.705"/>
<circle fill="#FFFFFF" cx="484.52" cy="223.218" r="26.705"/>
<circle cx="360.975" cy="217.315" r="11.447"/>
<circle cx="495.967" cy="217.315" r="11.447"/>
<circle fill="#FFFFFF" cx="353.435" cy="213.522" r="1.628"/>
<circle fill="#FFFFFF" cx="501.109" cy="210.917" r="1.628"/>
<g>
	<g>
		<path fill="#5388A0" d="M464.518,193.749c8.019-14.871,35.752-16.103,45.214-1.864c1.387,2.088,4.773,0.133,3.374-1.973
			c-11.023-16.588-42.422-15.828-51.962,1.864C459.948,193.994,463.322,195.968,464.518,193.749L464.518,193.749z"/>
	</g>
</g>
<g>
	<g>
		<path fill="#5388A0" d="M349.635,191.924c8.019-14.87,35.752-16.101,45.214-1.864c1.387,2.088,4.773,0.133,3.374-1.973
			c-11.023-16.586-42.422-15.827-51.962,1.864C345.065,192.169,348.439,194.143,349.635,191.924L349.635,191.924z"/>
	</g>
</g>
<g>
	<g>
		<path fill="#5388A0" d="M411.095,362.763c1.562-1.961,7.688-6.982,0.467-1.467c2.464-1.882,5.247-3.323,8.045-4.63
			c-8.083,3.775,1.295-0.159,3.604-0.784c1.55-0.419,3.127-0.731,4.7-1.045c2.842-0.475,2.154-0.416-2.063,0.178
			c1.131-0.137,2.264-0.25,3.399-0.34c3.506-0.313,7.033-0.29,10.545-0.15c1.702,0.068,3.396,0.248,5.088,0.428
			c-8.318-0.887-0.881,0.044,0.975,0.463c1.491,0.336,2.954,0.779,4.415,1.225c0.932,0.297,1.854,0.618,2.769,0.965
			c-4.073-1.791-4.88-2.123-2.42-0.995c1.2,0.558,2.344,1.223,3.484,1.892c5.709,3.352-3.53-3.194-0.458-0.488
			c10.748,9.472,26.589,10.612,37.201,0c9.656-9.656,10.763-27.716,0-37.201c-16.376-14.432-38.346-19.873-59.868-18.865
			c-19.862,0.931-44.088,7.296-57.085,23.615c-4.548,5.711-7.705,11-7.705,18.601c0,6.948,2.793,13.689,7.705,18.601
			C383.172,372.041,402.147,373.997,411.095,362.763L411.095,362.763z"/>
	</g>
</g>
<path fill="#FFFFFF" d="M395.051,311.385c0,0,8.104,11.074,14.166,8.033c2.755-1.381,3.664-5.428,5.699-15.199
	c0,0-12.158,2.607-19.865,6.297l-0.489,0.164L395.051,311.385z"/>
<g>
	<g>
		<path fill="#5388A0" d="M550.053,271.434c-2.666,0.364,0.472-0.013,1.098-0.06c1.99-0.146,3.988-0.172,5.983-0.131
			c5.518,0.114,10.939,1.078,16.097,3.068c5.76,2.224,10.583,6.771,12.843,12.532c2.313,5.895,2.992,15.654,0.71,20.603
			c-1.295,2.811-2.981,3.414-6.167,3.47c-4.376,0.077-9.263-1.702-13.659-3.498c-12.833-5.243-24.648-13.538-35.863-21.558
			c-17.094-12.223-33.509-25.626-49.05-39.775c-4.337-3.949-10.805,2.48-6.448,6.447c14.994,13.651,30.836,26.494,47.169,38.499
			c11.599,8.525,23.661,16.771,36.697,22.957c8.673,4.114,19.992,8.758,29.352,4.139c6.654-3.284,7.883-11.203,8.241-17.802
			c0.59-10.893-2.867-22.102-11.503-29.152c-10.25-8.369-25.122-10.284-37.924-8.532
			C541.825,263.435,544.305,272.22,550.053,271.434L550.053,271.434z"/>
	</g>
</g>
<g>
	<g>
		<path fill="#5388A0" d="M310.69,256.871c-9.802,7.461-18.926,17.204-24.095,28.462c-3.611,7.864-4.753,16.773-1.195,24.871
			c2.66,6.051,7.637,12.165,14.432,13.539c12.388,2.506,23.781-9.066,31.27-17.295c10.319-11.338,18.925-24.307,26.902-37.357
			c3.38-5.53,6.672-11.137,9.707-16.867c2.75-5.191-5.121-9.8-7.874-4.602c-10.892,20.563-23.796,41.834-40.66,58.023
			c-3.954,3.796-8.551,7.638-13.957,9.054c-4.866,1.274-8.361-2.36-11.043-7.169c-7.935-14.225,8.008-31.102,17.677-39.835
			c0.932-0.841,1.886-1.656,2.852-2.457c0.412-0.342,2.315-1.811,0.586-0.494C319.906,261.232,315.372,253.308,310.69,256.871
			L310.69,256.871z"/>
	</g>
</g>
<circle fill="#689FBB" cx="360.975" cy="416.844" r="12.375"/>
<circle fill="#689FBB" cx="487.125" cy="422.924" r="12.375"/>
<g>
	<line fill="#689FBB" x1="360.975" y1="422.924" x2="360.975" y2="501.945"/>
	<g>
		<path fill="#689FBB" d="M356.416,422.924c0,26.341,0,52.681,0,79.021c0,5.88,9.118,5.88,9.118,0c0-26.341,0-52.681,0-79.021
			C365.534,417.044,356.416,417.044,356.416,422.924L356.416,422.924z"/>
	</g>
</g>
<g>
	<line fill="#689FBB" x1="487.125" y1="422.924" x2="487.125" y2="501.945"/>
	<g>
		<path fill="#689FBB" d="M482.566,422.924c0,26.341,0,52.681,0,79.021c0,5.88,9.118,5.88,9.118,0c0-26.341,0-52.681,0-79.021
			C491.684,417.044,482.566,417.044,482.566,422.924L482.566,422.924z"/>
	</g>
</g>
<ellipse fill="#689FBB" cx="347.034" cy="504.875" rx="17.197" ry="2.932"/>
<ellipse fill="#689FBB" cx="500.152" cy="504.225" rx="17.197" ry="2.932"/>
<path fill="#A8DFF2" stroke="#FFFFFF" stroke-width="0.0882" stroke-miterlimit="10" d="M356.277,238.475
	c0,0-3.23-7.263,2.964-7.263s9.062-0.664,9.062-3.965c0-3.303-0.313-11.227,4.933-10.566s10.462-1.32,11.614-4.623
	c1.152-3.301,13.926-0.445,16.819,3.295c2.894,3.738,1,13.867,1,13.867s-1.334,4.15-3.017,4.497s-1.11,2.767-4.355,5.408
	c0,0-3.068,9.444-7.029,10.126c-3.962,0.68-4.508,1.541-5.835,3.742c-1.327,2.202-6.112,1.776-6.112,1.776s-5.195-4.415-8.587-0.453
	S356.277,238.475,356.277,238.475z"/>
<path fill="#A8DFF2" stroke="#FFFFFF" stroke-width="0.083" stroke-miterlimit="10" d="M505.766,239.392
	c0,0,0.398-14.713-5.789-14.973c-6.189-0.261-9.029-0.97-8.907-3.895c0.124-2.926,0.731-9.932-4.533-9.568
	c-5.266,0.365-10.403-1.608-11.433-4.582c-1.028-2.974-13.637,3.124-16.668,6.314c-3.031,3.191-2.53,14.59-2.53,14.59
	s1.177,3.733,2.847,4.111c1.668,0.378,1.006,2.498,4.149,4.975c0,0,2.714,8.496,6.646,9.266c3.934,0.77,4.446,1.555,5.69,3.561
	c1.243,2.008,6.041,1.83,6.041,1.83s5.354-3.693,8.597-0.039C493.116,254.634,505.766,239.392,505.766,239.392z"/>
<path fill="#A8DFF2" stroke="#FFFFFF" stroke-width="0.0768" stroke-miterlimit="10" d="M392.646,450.562
	c0,0-19.534,15.337,0,21.343C392.646,471.904,411.491,467.568,392.646,450.562z"/>
<path fill="#A8DFF2" stroke="#FFFFFF" stroke-width="0.0768" stroke-miterlimit="10" d="M390.875,248.244
	c0,0-19.534,15.337,0,21.343C390.875,269.587,409.72,265.251,390.875,248.244z"/>
<path fill="#A8DFF2" stroke="#FFFFFF" stroke-width="0.0768" stroke-miterlimit="10" d="M480.975,258.915
	c0,0-19.534,15.338,0,21.344C480.975,280.259,499.819,275.922,480.975,258.915z"/>
<path fill="#A8DFF2" stroke="#FFFFFF" stroke-width="0.0768" stroke-miterlimit="10" d="M472.397,406.172
	c0,0-19.534,15.338,0,21.343C472.397,427.515,491.242,423.178,472.397,406.172z"/>
<circle fill="#5388A0" cx="376.62" cy="232.615" r="23.185"/>
<circle fill="#5388A0" cx="462.831" cy="246.402" r="23.185"/>
<path opacity="0.67" fill="#A8DFF2" stroke="#FFFFFF" stroke-width="0.8546" stroke-miterlimit="10" d="M0,258.067
	c0,0,49.33-187.387,117.33-42c68,145.389,105.756,64.201,170.395-24.231c64.639-88.428,57.643-163.51,229.624,12.115
	C689.33,379.578,665.33,186.142,719.33,122.79c54-63.353,122.56,135.914,122.56,135.914V595.28H0V258.067z"/>
<g>
	<defs>
		<rect id="SVGID_5_" y="615.28" width="841.89" height="595.28"/>
	</defs>
	<clipPath id="SVGID_2_">
		<use xlink:href="#SVGID_5_"  overflow="visible"/>
	</clipPath>
	
		<path opacity="0.67" clip-path="url(#SVGID_2_)" fill="#A8DFF2" stroke="#FFFFFF" stroke-width="0.9612" stroke-miterlimit="10" d="
		M0,783.988c0,0,49.33-237.043,117.33-53.13c68,183.915,105.756,81.215,170.395-30.651c64.639-111.861,57.643-206.84,229.624,15.324
		C689.33,937.699,665.33,693.002,719.33,612.863c54-80.141,122.56,171.931,122.56,171.931v425.767H0V783.988z"/>
</g>
</svg>
