<?xml version="1.0" encoding="utf-8"?>
<!-- Generator: Adobe Illustrator 16.0.0, SVG Export Plug-In . SVG Version: 6.00 Build 0)  -->
<!DOCTYPE svg PUBLIC "-//W3C//DTD SVG 1.1//EN" "http://www.w3.org/Graphics/SVG/1.1/DTD/svg11.dtd">
<svg version="1.1" id="Layer_1" xmlns="http://www.w3.org/2000/svg" xmlns:xlink="http://www.w3.org/1999/xlink" x="0px" y="0px"
	 width="841.89px" height="595.28px" viewBox="0 0 841.89 595.28" enable-background="new 0 0 841.89 595.28" xml:space="preserve">
<path fill="#689FBB" d="M505.587,419.097c111.77-41.399,27.931-113.598,27.931-113.598c57.64-38.77,36.107-160.432,36.107-160.432
	c6.579-1.488,12.942-6.204,15.551-9.255c4.376-5.12,7.019-11.767,7.019-19.03c0-16.187-13.122-29.308-29.309-29.308
	c-16.186,0-29.308,13.122-29.308,29.308c0,3.9,0.82,7.609,2.204,11.012c-113.137-25.4-208.275,0-208.275,0
	c1.383-3.403,2.352-7.028,2.352-10.929c0-16.187-13.122-29.308-29.309-29.308c-16.186,0-29.309,13.122-29.309,29.308
	c0,7.264,2.644,13.91,7.02,19.031c4.031,4.717,9.535,8.14,15.799,9.556c0,0-22.184,121.663,35.456,160.434
	c0,0-83.396,82.029,31.883,112.314C361.398,418.201,473.69,430.912,505.587,419.097z"/>
<path fill="none" stroke="#556337" stroke-width="0.6513" stroke-miterlimit="10" d="M592.194,478.125"/>
<circle fill="#FFFFFF" cx="372.699" cy="223.218" r="26.705"/>
<circle fill="#FFFFFF" cx="484.52" cy="223.218" r="26.705"/>
<circle cx="384.146" cy="217.316" r="11.447"/>
<circle cx="495.967" cy="217.316" r="11.447"/>
<circle fill="#FFFFFF" cx="390.708" cy="211.894" r="1.628"/>
<circle fill="#FFFFFF" cx="501.109" cy="210.917" r="1.628"/>
<g>
	<g>
		<path fill="#5388A0" d="M464.519,193.749c8.019-14.87,35.752-16.102,45.213-1.864c1.388,2.088,4.774,0.133,3.375-1.973
			c-11.023-16.587-42.422-15.828-51.963,1.864C459.948,193.994,463.322,195.967,464.519,193.749L464.519,193.749z"/>
	</g>
</g>
<g>
	<g>
		<path fill="#5388A0" d="M349.636,191.924c8.018-14.87,35.752-16.101,45.213-1.864c1.388,2.088,4.774,0.133,3.375-1.973
			c-11.022-16.587-42.423-15.828-51.963,1.864C345.065,192.169,348.439,194.143,349.636,191.924L349.636,191.924z"/>
	</g>
</g>
<g>
	<g>
		<path fill="#5388A0" d="M411.095,362.762c1.563-1.961,7.688-6.982,0.467-1.466c2.463-1.882,5.247-3.324,8.045-4.631
			c-8.083,3.776,1.295-0.159,3.604-0.783c1.55-0.419,3.126-0.732,4.7-1.045c2.841-0.475,2.154-0.416-2.062,0.178
			c1.13-0.138,2.264-0.251,3.399-0.34c3.505-0.313,7.032-0.29,10.545-0.15c1.701,0.068,3.396,0.247,5.088,0.428
			c-8.317-0.887-0.881,0.044,0.976,0.462c1.491,0.336,2.954,0.779,4.415,1.225c0.931,0.297,1.854,0.619,2.768,0.965
			c-4.073-1.791-4.88-2.122-2.42-0.995c1.2,0.557,2.344,1.223,3.484,1.892c5.709,3.352-3.53-3.194-0.458-0.488
			c10.747,9.472,26.589,10.612,37.201,0c9.656-9.657,10.763-27.715,0-37.201c-16.375-14.433-38.347-19.874-59.868-18.866
			c-19.862,0.93-44.088,7.296-57.085,23.615c-4.548,5.71-7.705,11-7.705,18.601c0,6.949,2.794,13.69,7.705,18.601
			C383.172,372.041,402.147,373.997,411.095,362.762L411.095,362.762z"/>
	</g>
</g>
<path fill="#FFFFFF" d="M395.051,311.384c0,0,8.104,11.074,14.166,8.033c2.755-1.381,3.664-5.428,5.699-15.198
	c0,0-12.158,2.606-19.865,6.296l-0.489,0.164L395.051,311.384z"/>
<g>
	<g>
		<path fill="#5388A0" d="M548.841,271.596c19.146-1.517,49.264,3.075,51.311,26.832c0.526,6.114-0.22,12.662-4.881,17.033
			c-3.86,3.619-9.887,4.611-14.948,4.967c-14.948,1.052-30.253-3.095-44.413-7.418c-11.653-3.558-23.78-8.01-34.127-12.728
			c-5.309-2.42-9.947,5.438-4.603,7.874c21.039,9.591,43.847,17.562,66.815,20.596c12.614,1.667,27.543,2.055,37.724-6.844
			c10.828-9.464,9.413-28.997,2.208-40.063c-11.029-16.939-36.376-20.85-55.085-19.367
			C543.02,262.939,542.975,272.061,548.841,271.596L548.841,271.596z"/>
	</g>
</g>
<circle fill="#5388A0" cx="495.616" cy="297.64" r="12.243"/>
<circle fill="#5388A0" cx="348.6" cy="279.114" r="12.243"/>
<g>
	<g>
		<path fill="#5388A0" d="M310.69,256.871c-19.004,14.154-37.345,29.98-53.056,47.737c-8.792,9.937-18.34,21.72-20.032,35.326
			c-1.39,11.179,7.627,20.054,18.523,19.883c9.827-0.154,19.381-5.688,27.404-10.834c10.902-6.994,20.896-15.461,30.477-24.144
			c12.348-11.19,24.2-23.099,35.211-35.615c3.867-4.396-2.556-10.871-6.447-6.448c-15.334,17.429-32.143,33.98-50.258,48.494
			c-9.593,7.686-21.985,17.735-34.636,19.303c-4.038,0.501-7.506-0.154-9.756-3.411c-2.428-3.514-1.529-7.997-0.049-12.21
			c2.937-8.357,9.064-15.815,14.749-22.448c7.009-8.179,14.762-15.718,22.71-22.975c9.447-8.625,20.433-17.836,29.762-24.784
			C319.95,261.275,315.412,253.354,310.69,256.871L310.69,256.871z"/>
	</g>
</g>
<circle fill="#689FBB" cx="360.975" cy="416.843" r="12.375"/>
<circle fill="#689FBB" cx="487.125" cy="422.923" r="12.375"/>
<g>
	<line fill="#689FBB" x1="360.975" y1="422.923" x2="360.975" y2="501.945"/>
	<g>
		<path fill="#689FBB" d="M356.415,422.923c0,26.34,0,52.681,0,79.021c0,5.88,9.119,5.88,9.119,0c0-26.34,0-52.681,0-79.021
			C365.534,417.043,356.415,417.043,356.415,422.923L356.415,422.923z"/>
	</g>
</g>
<g>
	<line fill="#689FBB" x1="487.125" y1="422.923" x2="487.125" y2="501.945"/>
	<g>
		<path fill="#689FBB" d="M482.565,422.923c0,26.34,0,52.681,0,79.021c0,5.88,9.119,5.88,9.119,0c0-26.34,0-52.681,0-79.021
			C491.685,417.043,482.565,417.043,482.565,422.923L482.565,422.923z"/>
	</g>
</g>
<ellipse fill="#689FBB" cx="347.034" cy="504.875" rx="17.197" ry="2.932"/>
<ellipse fill="#689FBB" cx="500.152" cy="504.224" rx="17.197" ry="2.932"/>
<path fill="#A8DFF2" stroke="#FFFFFF" stroke-width="0.0768" stroke-miterlimit="10" d="M360.277,244.438
	c0,0,2.77-3.504,8.964-3.504c6.195,0,9.062-0.503,9.062-3.005c0-2.502-0.313-8.507,4.932-8.007c5.245,0.5,10.461-1,11.614-3.503
	c1.153-2.502,1.926-7.337,4.819-4.504s1,10.509,1,10.509s-1.334,3.146-3.017,3.408s-1.11,2.097-4.355,4.099
	c0,0-3.068,7.158-7.03,7.674c-3.961,0.516-4.507,1.167-5.834,2.836c-1.328,1.669-6.112,1.346-6.112,1.346s-5.195-3.346-8.587-0.343
	C362.341,254.446,360.277,244.438,360.277,244.438z"/>
<path fill="#A8DFF2" stroke="#FFFFFF" stroke-width="0.0768" stroke-miterlimit="10" d="M495.617,244.292
	c0,0-2.621-3.617-8.81-3.877c-6.189-0.26-9.033-0.884-8.928-3.384c0.105-2.5,0.67-8.486-4.591-8.208
	c-5.262,0.28-10.41-1.439-11.457-3.988c-1.047-2.548-1.616-7.412-4.626-4.703c-3.01,2.709-1.44,10.458-1.44,10.458
	s1.2,3.199,2.87,3.532c1.67,0.333,1.021,2.141,4.18,4.278c0,0,2.765,7.28,6.701,7.962c3.936,0.682,4.454,1.356,5.71,3.079
	c1.256,1.724,6.05,1.602,6.05,1.602s5.331-3.125,8.593,0.018C493.134,254.205,495.617,244.292,495.617,244.292z"/>
<path fill="#A8DFF2" stroke="#FFFFFF" stroke-width="0.0768" stroke-miterlimit="10" d="M398.848,261.897
	c0,0-19.534,15.337,0,21.343C398.848,283.24,417.692,278.903,398.848,261.897z"/>
</svg>
