<?xml version="1.0" encoding="utf-8"?>
<!-- Generator: Adobe Illustrator 16.0.0, SVG Export Plug-In . SVG Version: 6.00 Build 0)  -->
<!DOCTYPE svg PUBLIC "-//W3C//DTD SVG 1.1//EN" "http://www.w3.org/Graphics/SVG/1.1/DTD/svg11.dtd">
<svg version="1.1" id="Layer_1" xmlns="http://www.w3.org/2000/svg" xmlns:xlink="http://www.w3.org/1999/xlink" x="0px" y="0px"
	 width="841.89px" height="595.28px" viewBox="0 0 841.89 595.28" enable-background="new 0 0 841.89 595.28" xml:space="preserve">
<path fill="#689FBB" d="M505.587,419.098c111.77-41.4,27.931-113.598,27.931-113.598c57.64-38.771,36.107-160.433,36.107-160.433
	c6.579-1.487,12.942-6.203,15.551-9.255c4.376-5.12,7.019-11.767,7.019-19.03c0-16.187-13.122-29.309-29.309-29.309
	c-16.186,0-29.308,13.122-29.308,29.309c0,3.9,0.82,7.609,2.204,11.012c-113.137-25.4-208.275,0-208.275,0
	c1.383-3.402,2.352-7.027,2.352-10.928c0-16.188-13.122-29.309-29.309-29.309c-16.186,0-29.309,13.121-29.309,29.309
	c0,7.264,2.644,13.91,7.02,19.03c4.031,4.718,9.535,8.14,15.799,9.556c0,0-22.184,121.663,35.456,160.435
	c0,0-83.396,82.029,31.883,112.314C361.398,418.201,473.69,430.912,505.587,419.098z"/>
<path fill="none" stroke="#556337" stroke-width="0.6513" stroke-miterlimit="10" d="M592.194,478.125"/>
<circle fill="#FFFFFF" cx="372.699" cy="223.218" r="26.705"/>
<circle fill="#FFFFFF" cx="484.52" cy="223.218" r="26.705"/>
<circle cx="360.975" cy="217.315" r="11.447"/>
<circle cx="495.967" cy="217.315" r="11.447"/>
<circle fill="#FFFFFF" cx="353.435" cy="213.522" r="1.628"/>
<circle fill="#FFFFFF" cx="501.109" cy="210.917" r="1.628"/>
<g>
	<g>
		<path fill="#5388A0" d="M464.519,193.749c8.019-14.871,35.752-16.103,45.213-1.864c1.388,2.088,4.773,0.133,3.375-1.973
			c-11.023-16.588-42.422-15.828-51.963,1.864C459.948,193.994,463.322,195.968,464.519,193.749L464.519,193.749z"/>
	</g>
</g>
<g>
	<g>
		<path fill="#5388A0" d="M349.636,191.924c8.018-14.87,35.752-16.101,45.213-1.864c1.388,2.088,4.774,0.133,3.375-1.973
			c-11.023-16.586-42.423-15.827-51.963,1.864C345.065,192.169,348.439,194.143,349.636,191.924L349.636,191.924z"/>
	</g>
</g>
<g>
	<g>
		<path fill="#5388A0" d="M411.095,362.763c1.563-1.961,7.688-6.982,0.467-1.467c2.464-1.882,5.247-3.323,8.046-4.63
			c-8.083,3.775,1.295-0.159,3.604-0.784c1.55-0.419,3.126-0.731,4.699-1.045c2.842-0.475,2.154-0.416-2.062,0.178
			c1.13-0.137,2.264-0.25,3.399-0.34c3.506-0.313,7.032-0.29,10.545-0.15c1.701,0.068,3.396,0.248,5.088,0.428
			c-8.317-0.887-0.881,0.044,0.976,0.463c1.491,0.336,2.954,0.779,4.415,1.225c0.932,0.297,1.854,0.618,2.768,0.965
			c-4.072-1.791-4.88-2.123-2.42-0.995c1.2,0.558,2.344,1.223,3.484,1.892c5.709,3.352-3.53-3.194-0.459-0.488
			c10.748,9.472,26.589,10.612,37.201,0c9.656-9.656,10.764-27.716,0-37.201c-16.376-14.432-38.347-19.873-59.868-18.865
			c-19.862,0.931-44.088,7.296-57.085,23.615c-4.549,5.711-7.705,11-7.705,18.601c0,6.948,2.794,13.689,7.705,18.601
			C383.172,372.041,402.147,373.997,411.095,362.763L411.095,362.763z"/>
	</g>
</g>
<path fill="#FFFFFF" d="M395.051,311.385c0,0,8.104,11.074,14.166,8.033c2.755-1.381,3.664-5.428,5.699-15.199
	c0,0-12.158,2.607-19.865,6.297l-0.489,0.164L395.051,311.385z"/>
<g>
	<g>
		<path fill="#5388A0" d="M550.053,271.434c-2.665,0.364,0.472-0.013,1.099-0.06c1.99-0.146,3.988-0.172,5.982-0.131
			c5.519,0.114,10.939,1.078,16.097,3.068c5.76,2.224,10.583,6.771,12.843,12.532c2.311,5.887,2.982,15.668,0.732,20.647
			c-1.262,2.793-2.477,3.121-5.803,2.964c-3.564-0.169-8.713-2.405-12.533-4.366c-12.375-6.354-23.495-15.257-34.127-24.135
			c-15.365-12.83-30.098-26.596-43.994-41.009c-4.088-4.24-10.528,2.216-6.447,6.447c14.111,14.637,29.094,28.567,44.695,41.596
			c10.836,9.048,22.156,17.973,34.646,24.646c7.481,3.998,19.033,9.252,27.032,3.586c6.459-4.574,6.944-13.3,6.803-20.514
			c-0.211-10.697-4.581-20.189-13.058-26.717c-9.821-7.563-24.428-8.986-36.391-7.349
			C541.825,263.435,544.306,272.22,550.053,271.434L550.053,271.434z"/>
	</g>
</g>
<g>
	<g>
		<path fill="#5388A0" d="M310.69,256.871c-9.803,7.461-18.926,17.204-24.096,28.462c-3.61,7.864-4.753,16.773-1.194,24.871
			c2.659,6.051,7.637,12.165,14.432,13.539c12.389,2.506,23.78-9.066,31.271-17.295c10.318-11.338,18.924-24.307,26.901-37.357
			c3.381-5.53,6.673-11.137,9.707-16.867c2.751-5.191-5.12-9.8-7.873-4.602c-10.893,20.563-23.796,41.834-40.66,58.023
			c-3.953,3.796-8.551,7.638-13.957,9.054c-4.866,1.274-8.36-2.36-11.043-7.169c-7.935-14.225,8.008-31.102,17.678-39.835
			c0.931-0.841,1.886-1.656,2.851-2.457c0.412-0.342,2.316-1.811,0.586-0.494C319.905,261.232,315.372,253.308,310.69,256.871
			L310.69,256.871z"/>
	</g>
</g>
<circle fill="#689FBB" cx="360.975" cy="416.844" r="12.375"/>
<circle fill="#689FBB" cx="487.125" cy="422.924" r="12.375"/>
<g>
	<line fill="#689FBB" x1="360.975" y1="422.924" x2="360.975" y2="501.945"/>
	<g>
		<path fill="#689FBB" d="M356.415,422.924c0,26.341,0,52.681,0,79.021c0,5.88,9.119,5.88,9.119,0c0-26.341,0-52.681,0-79.021
			C365.534,417.044,356.415,417.044,356.415,422.924L356.415,422.924z"/>
	</g>
</g>
<g>
	<line fill="#689FBB" x1="487.125" y1="422.924" x2="487.125" y2="501.945"/>
	<g>
		<path fill="#689FBB" d="M482.565,422.924c0,26.341,0,52.681,0,79.021c0,5.88,9.119,5.88,9.119,0c0-26.341,0-52.681,0-79.021
			C491.685,417.044,482.565,417.044,482.565,422.924L482.565,422.924z"/>
	</g>
</g>
<ellipse fill="#689FBB" cx="347.034" cy="504.875" rx="17.197" ry="2.932"/>
<ellipse fill="#689FBB" cx="500.152" cy="504.225" rx="17.197" ry="2.932"/>
<path fill="#A8DFF2" stroke="#FFFFFF" stroke-width="0.0882" stroke-miterlimit="10" d="M356.277,238.475
	c0,0-3.23-7.263,2.964-7.263s9.062-0.664,9.062-3.965c0-3.303-0.313-11.227,4.933-10.566s10.462-1.32,11.614-4.623
	c1.152-3.301,13.926-0.445,16.819,3.295c2.894,3.738,1,13.867,1,13.867s-1.334,4.15-3.017,4.497s-1.11,2.767-4.355,5.408
	c0,0-3.068,9.444-7.029,10.126c-3.962,0.68-4.508,1.541-5.835,3.742c-1.327,2.202-6.112,1.776-6.112,1.776s-5.195-4.415-8.587-0.453
	S356.277,238.475,356.277,238.475z"/>
<path fill="#A8DFF2" stroke="#FFFFFF" stroke-width="0.083" stroke-miterlimit="10" d="M505.766,239.392
	c0,0,0.398-14.713-5.789-14.973c-6.189-0.261-9.029-0.97-8.907-3.895c0.124-2.926,0.731-9.932-4.533-9.568
	c-5.266,0.365-10.403-1.608-11.433-4.582c-1.028-2.974-13.637,3.124-16.668,6.314c-3.031,3.191-2.53,14.59-2.53,14.59
	s1.177,3.733,2.847,4.111c1.668,0.378,1.006,2.498,4.149,4.975c0,0,2.714,8.496,6.646,9.266c3.934,0.77,4.446,1.555,5.69,3.561
	c1.243,2.008,6.041,1.83,6.041,1.83s5.354-3.693,8.597-0.039C493.116,254.634,505.766,239.392,505.766,239.392z"/>
<path fill="#A8DFF2" stroke="#FFFFFF" stroke-width="0.0768" stroke-miterlimit="10" d="M466.438,462.434
	c0,0-19.534,15.338,0,21.344C466.438,483.777,485.283,479.44,466.438,462.434z"/>
<path fill="#A8DFF2" stroke="#FFFFFF" stroke-width="0.0768" stroke-miterlimit="10" d="M396.689,418.547
	c0,0-19.534,15.338,0,21.344C396.689,439.891,415.534,435.554,396.689,418.547z"/>
<path fill="#A8DFF2" stroke="#FFFFFF" stroke-width="0.0768" stroke-miterlimit="10" d="M372.396,261.05c0,0-19.534,15.337,0,21.342
	C372.396,282.392,391.24,278.056,372.396,261.05z"/>
<path fill="#A8DFF2" stroke="#FFFFFF" stroke-width="0.0768" stroke-miterlimit="10" d="M472.398,361.726
	c0,0-19.534,15.337,0,21.343C472.398,383.068,491.243,378.732,472.398,361.726z"/>
<path fill="#5388A0" d="M397.128,229.483c0,14.596-12.553,26.424-28.042,26.424c-15.486,0-28.039-11.828-28.039-26.424
	c0-14.594,12.553-26.424,28.039-26.424C384.575,203.06,397.128,214.89,397.128,229.483z"/>
<circle fill="#5388A0" cx="480.822" cy="232.724" r="23.185"/>
<path opacity="0.67" fill="#A8DFF2" stroke="#FFFFFF" stroke-width="0.9213" stroke-miterlimit="10" d="M0,203.397
	c0,0,93.44-239.936,161.44-70.977c68,168.956,122.521,128.888,187.159,26.119c64.639-102.766,60.859-177.98,232.841,26.117
	c171.981,204.1,134.961-62.316,188.961-135.939s71.488,155.42,71.488,155.42V595.28H0V203.397z"/>
<g>
	<defs>
		<rect id="SVGID_11_" y="615.28" width="841.89" height="595.28"/>
	</defs>
	<clipPath id="SVGID_2_">
		<use xlink:href="#SVGID_11_"  overflow="visible"/>
	</clipPath>
	<path opacity="0.67" clip-path="url(#SVGID_2_)" fill="#A8DFF2" stroke="#FFFFFF" stroke-width="1.145" stroke-miterlimit="10" d="
		M0,605.278c0,0,93.44-370.592,161.44-109.627c68,260.961,122.521,199.073,187.159,40.342
		c64.639-158.727,60.859-274.899,232.841,40.34c171.981,315.241,134.961-96.252,188.961-209.966s71.488,240.054,71.488,240.054
		v604.14H0V605.278z"/>
</g>
</svg>
