<?xml version="1.0" encoding="utf-8"?>
<!-- Generator: Adobe Illustrator 16.0.0, SVG Export Plug-In . SVG Version: 6.00 Build 0)  -->
<!DOCTYPE svg PUBLIC "-//W3C//DTD SVG 1.1//EN" "http://www.w3.org/Graphics/SVG/1.1/DTD/svg11.dtd">
<svg version="1.1" id="Layer_1" xmlns="http://www.w3.org/2000/svg" xmlns:xlink="http://www.w3.org/1999/xlink" x="0px" y="0px"
	 width="841.89px" height="595.28px" viewBox="0 0 841.89 595.28" enable-background="new 0 0 841.89 595.28" xml:space="preserve">
<path fill="#689FBB" d="M505.587,419.097c111.77-41.399,27.931-113.598,27.931-113.598c57.64-38.77,36.107-160.432,36.107-160.432
	c6.579-1.488,12.942-6.204,15.551-9.255c4.376-5.12,7.019-11.767,7.019-19.03c0-16.187-13.122-29.308-29.309-29.308
	c-16.186,0-29.308,13.122-29.308,29.308c0,3.9,0.82,7.609,2.204,11.012c-113.137-25.4-208.275,0-208.275,0
	c1.383-3.403,2.352-7.028,2.352-10.929c0-16.187-13.122-29.308-29.309-29.308c-16.186,0-29.309,13.122-29.309,29.308
	c0,7.264,2.644,13.91,7.02,19.031c4.031,4.717,9.535,8.14,15.799,9.556c0,0-22.184,121.663,35.456,160.434
	c0,0-83.396,82.029,31.883,112.314C361.398,418.201,473.69,430.912,505.587,419.097z"/>
<path fill="none" stroke="#556337" stroke-width="0.6513" stroke-miterlimit="10" d="M592.194,478.125"/>
<circle fill="#FFFFFF" cx="372.699" cy="223.218" r="26.705"/>
<circle fill="#FFFFFF" cx="484.52" cy="223.218" r="26.705"/>
<circle cx="384.146" cy="217.316" r="11.447"/>
<circle cx="495.967" cy="217.316" r="11.447"/>
<circle fill="#FFFFFF" cx="390.708" cy="211.894" r="1.628"/>
<circle fill="#FFFFFF" cx="501.109" cy="210.917" r="1.628"/>
<g>
	<g>
		<path fill="#5388A0" d="M464.519,193.749c8.019-14.87,35.752-16.102,45.213-1.864c1.388,2.088,4.774,0.133,3.375-1.973
			c-11.022-16.587-42.423-15.828-51.963,1.864C459.947,193.994,463.322,195.967,464.519,193.749L464.519,193.749z"/>
	</g>
</g>
<g>
	<g>
		<path fill="#5388A0" d="M349.636,191.924c8.019-14.87,35.752-16.101,45.213-1.864c1.388,2.088,4.774,0.133,3.375-1.973
			c-11.022-16.587-42.423-15.828-51.963,1.864C345.065,192.169,348.439,194.143,349.636,191.924L349.636,191.924z"/>
	</g>
</g>
<g>
	<g>
		<path fill="#5388A0" d="M411.095,362.762c1.563-1.961,7.688-6.982,0.468-1.466c2.463-1.882,5.246-3.324,8.045-4.631
			c-8.084,3.776,1.295-0.159,3.604-0.783c1.55-0.419,3.126-0.732,4.7-1.045c2.842-0.475,2.154-0.416-2.063,0.178
			c1.131-0.138,2.264-0.251,3.399-0.34c3.505-0.313,7.032-0.29,10.545-0.15c1.701,0.068,3.396,0.247,5.088,0.428
			c-8.317-0.887-0.881,0.044,0.976,0.462c1.491,0.336,2.954,0.779,4.415,1.225c0.931,0.297,1.854,0.619,2.769,0.965
			c-4.074-1.791-4.881-2.122-2.421-0.995c1.2,0.557,2.344,1.223,3.483,1.892c5.71,3.352-3.529-3.194-0.458-0.488
			c10.747,9.472,26.589,10.612,37.201,0c9.657-9.657,10.763-27.715,0-37.201c-16.376-14.433-38.347-19.874-59.868-18.866
			c-19.862,0.93-44.088,7.296-57.085,23.615c-4.548,5.71-7.705,11-7.705,18.601c0,6.949,2.794,13.69,7.705,18.601
			C383.172,372.041,402.147,373.997,411.095,362.762L411.095,362.762z"/>
	</g>
</g>
<path fill="#FFFFFF" d="M395.051,311.384c0,0,8.104,11.074,14.166,8.033c2.755-1.381,3.664-5.428,5.699-15.198
	c0,0-12.158,2.606-19.865,6.296l-0.489,0.164L395.051,311.384z"/>
<g>
	<g>
		<path fill="#5388A0" d="M550.053,271.434c-2.666,0.365,0.472-0.013,1.098-0.06c1.991-0.147,3.989-0.172,5.984-0.131
			c5.518,0.114,10.939,1.077,16.096,3.068c5.76,2.224,10.583,6.771,12.844,12.532c2.359,6.015,3.157,15.571,0.545,21.168
			c-1.479,3.17-3.71,3.943-7.228,4.004c-4.995,0.087-10.206-1.834-14.931-3.731c-13.298-5.339-25.576-13.716-37.244-21.911
			c-12.742-8.951-25.122-18.56-36.868-28.791c-4.412-3.843-10.89,2.579-6.447,6.448c15.983,13.922,33.037,26.93,50.856,38.402
			c13.4,8.628,51.104,33.119,60.802,7.654c3.02-7.928,2.015-18.768-1.025-26.515c-3.018-7.691-8.946-13.581-16.411-17.013
			c-9.338-4.293-20.36-5.307-30.494-3.919C541.824,263.435,544.305,272.22,550.053,271.434L550.053,271.434z"/>
	</g>
</g>
<g>
	<g>
		<path fill="#5388A0" d="M310.689,256.871c-9.801,7.462-18.925,17.205-24.094,28.462c-3.611,7.864-4.754,16.774-1.195,24.871
			c2.803,6.378,8.112,12.546,15.223,13.979c13.25,2.672,25.61-9.454,33.791-18.179c9.968-10.629,18.454-22.745,26.238-35.033
			c1.641-2.591,3.26-5.203,4.787-7.863c2.934-5.108-4.946-9.699-7.873-4.603c-4.372,7.612-9.262,14.956-14.347,22.104
			c-8.365,11.759-18.035,24.651-30.683,32.07c-3.993,2.343-8.695,3.913-12.841,1.446c-6.939-4.129-8.405-13.463-6.494-20.573
			c2.103-7.817,7.588-14.63,13.038-20.412c2.074-2.2,4.278-4.277,6.548-6.273c0.728-0.641,1.471-1.264,2.221-1.879
			c0.401-0.33,1.946-1.512,0.284-0.246C319.905,261.233,315.371,253.307,310.689,256.871L310.689,256.871z"/>
	</g>
</g>
<circle fill="#689FBB" cx="360.975" cy="416.843" r="12.375"/>
<circle fill="#689FBB" cx="487.125" cy="422.923" r="12.375"/>
<g>
	<line fill="#689FBB" x1="360.975" y1="422.923" x2="360.975" y2="501.945"/>
	<g>
		<path fill="#689FBB" d="M356.415,422.923c0,26.34,0,52.681,0,79.021c0,5.88,9.119,5.88,9.119,0c0-26.34,0-52.681,0-79.021
			C365.534,417.043,356.415,417.043,356.415,422.923L356.415,422.923z"/>
	</g>
</g>
<g>
	<line fill="#689FBB" x1="487.125" y1="422.923" x2="487.125" y2="501.945"/>
	<g>
		<path fill="#689FBB" d="M482.565,422.923c0,26.34,0,52.681,0,79.021c0,5.88,9.119,5.88,9.119,0c0-26.34,0-52.681,0-79.021
			C491.685,417.043,482.565,417.043,482.565,422.923L482.565,422.923z"/>
	</g>
</g>
<ellipse fill="#689FBB" cx="347.034" cy="504.875" rx="17.197" ry="2.932"/>
<ellipse fill="#689FBB" cx="500.152" cy="504.224" rx="17.197" ry="2.932"/>
<path fill="#A8DFF2" stroke="#FFFFFF" stroke-width="0.0768" stroke-miterlimit="10" d="M354.277,239.438
	c0,0,2.77-3.504,8.964-3.504s9.062-0.503,9.062-3.005c0-2.502-0.313-8.507,4.933-8.007c5.245,0.5,10.462-1,11.614-3.503
	c1.152-2.502,7.926-2.337,10.819,0.496s1,10.509,1,10.509s-1.334,3.146-3.017,3.408s-1.11,2.097-4.355,4.099
	c0,0-3.068,7.158-7.029,7.674c-3.962,0.516-4.508,1.167-5.835,2.836c-1.327,1.669-6.112,1.346-6.112,1.346s-5.195-3.346-8.587-0.343
	C362.342,254.446,354.277,239.438,354.277,239.438z"/>
<path fill="#A8DFF2" stroke="#FFFFFF" stroke-width="0.0768" stroke-miterlimit="10" d="M496.617,242.292
	c0,0,4.379-6.617-1.81-6.877c-6.189-0.26-9.032-0.884-8.928-3.384c0.105-2.5,0.671-8.486-4.591-8.208
	c-5.262,0.28-10.41-1.439-11.457-3.988c-1.047-2.548-8.615-4.412-11.626-1.703c-3.01,2.709-2.44,12.458-2.44,12.458
	s1.2,3.199,2.871,3.532c1.67,0.333,1.021,2.141,4.179,4.278c0,0,2.765,7.28,6.701,7.962c3.937,0.682,4.454,1.356,5.71,3.079
	c1.256,1.724,6.051,1.602,6.051,1.602s5.33-3.125,8.594,0.018C493.134,254.205,496.617,242.292,496.617,242.292z"/>
<path fill="#A8DFF2" stroke="#FFFFFF" stroke-width="0.0768" stroke-miterlimit="10" d="M398.848,274.726
	c0,0-19.534,15.337,0,21.343C398.848,296.068,417.692,291.732,398.848,274.726z"/>
<circle fill="#5388A0" cx="361.503" cy="256.057" r="12.242"/>
<circle fill="#5388A0" cx="484.521" cy="251.84" r="12.243"/>
</svg>
