<?xml version="1.0" encoding="utf-8"?>
<!-- Generator: Adobe Illustrator 16.0.0, SVG Export Plug-In . SVG Version: 6.00 Build 0)  -->
<!DOCTYPE svg PUBLIC "-//W3C//DTD SVG 1.1//EN" "http://www.w3.org/Graphics/SVG/1.1/DTD/svg11.dtd">
<svg version="1.1" id="Layer_1" xmlns="http://www.w3.org/2000/svg" xmlns:xlink="http://www.w3.org/1999/xlink" x="0px" y="0px"
	 width="841.89px" height="595.28px" viewBox="0 0 841.89 595.28" enable-background="new 0 0 841.89 595.28" xml:space="preserve">
<path fill="#689FBB" d="M505.587,419.098c111.77-41.4,27.931-113.598,27.931-113.598c57.64-38.771,36.107-160.432,36.107-160.432
	c6.579-1.488,12.942-6.204,15.55-9.256c4.377-5.12,7.02-11.767,7.02-19.03c0-16.187-13.122-29.308-29.309-29.308
	c-16.186,0-29.307,13.121-29.307,29.308c0,3.9,0.818,7.608,2.203,11.013c-113.137-25.4-208.275,0-208.275,0
	c1.383-3.404,2.352-7.029,2.352-10.93c0-16.186-13.122-29.308-29.309-29.308c-16.186,0-29.309,13.122-29.309,29.308
	c0,7.264,2.644,13.91,7.02,19.031c4.031,4.717,9.535,8.141,15.799,9.557c0,0-22.184,121.662,35.456,160.434
	c0,0-83.396,82.029,31.882,112.314C361.397,418.201,473.69,430.912,505.587,419.098z"/>
<path fill="none" stroke="#556337" stroke-width="0.6513" stroke-miterlimit="10" d="M592.194,478.125"/>
<circle fill="#FFFFFF" cx="372.699" cy="223.218" r="26.704"/>
<circle fill="#FFFFFF" cx="484.52" cy="223.218" r="26.705"/>
<circle cx="360.975" cy="217.316" r="11.447"/>
<circle cx="495.967" cy="217.316" r="11.446"/>
<circle fill="#FFFFFF" cx="353.435" cy="213.521" r="1.628"/>
<circle fill="#FFFFFF" cx="501.108" cy="210.916" r="1.629"/>
<g>
	<g>
		<path fill="#5388A0" d="M464.519,193.748c8.02-14.869,35.752-16.1,45.213-1.863c1.389,2.088,4.773,0.133,3.375-1.973
			c-11.022-16.586-42.422-15.827-51.963,1.863C459.948,193.993,463.321,195.966,464.519,193.748L464.519,193.748z"/>
	</g>
</g>
<g>
	<g>
		<path fill="#5388A0" d="M349.636,191.924c8.018-14.871,35.752-16.102,45.213-1.863c1.388,2.088,4.773,0.133,3.375-1.973
			c-11.022-16.587-42.423-15.829-51.963,1.863C345.065,192.169,348.438,194.143,349.636,191.924L349.636,191.924z"/>
	</g>
</g>
<g>
	<g>
		<path fill="#5388A0" d="M411.095,362.763c1.563-1.961,7.688-6.982,0.467-1.466c2.464-1.882,5.248-3.324,8.045-4.631
			c-8.082,3.776,1.296-0.159,3.605-0.783c1.55-0.419,3.126-0.732,4.699-1.045c2.842-0.475,2.154-0.416-2.062,0.178
			c1.13-0.138,2.263-0.251,3.399-0.34c3.506-0.313,7.031-0.29,10.545-0.15c1.701,0.068,3.396,0.247,5.088,0.428
			c-8.318-0.887-0.881,0.044,0.976,0.462c1.491,0.336,2.954,0.779,4.415,1.225c0.932,0.297,1.854,0.619,2.768,0.965
			c-4.072-1.791-4.88-2.123-2.42-0.995c1.2,0.557,2.344,1.223,3.484,1.892c5.709,3.351-3.53-3.195-0.459-0.488
			c10.748,9.472,26.589,10.612,37.201,0c9.656-9.656,10.764-27.716,0-37.201c-16.377-14.432-38.347-19.873-59.868-18.865
			c-19.862,0.93-44.088,7.296-57.085,23.615c-4.549,5.711-7.705,11-7.705,18.601c0,6.949,2.794,13.69,7.705,18.601
			C383.172,372.042,402.147,373.997,411.095,362.763L411.095,362.763z"/>
	</g>
</g>
<path fill="#FFFFFF" d="M395.051,311.385c0,0,8.104,11.074,14.166,8.033c2.755-1.381,3.663-5.428,5.699-15.199
	c0,0-12.158,2.607-19.865,6.297l-0.489,0.164L395.051,311.385z"/>
<g>
	<g>
		<path fill="#5388A0" d="M550.053,271.434c-2.665,0.365,0.472-0.013,1.099-0.06c1.99-0.147,3.988-0.172,5.982-0.131
			c5.519,0.114,10.939,1.077,16.098,3.068c5.76,2.224,10.582,6.771,12.842,12.532c2.311,5.887,2.982,15.668,0.732,20.648
			c-1.262,2.792-2.477,3.121-5.803,2.963c-3.564-0.169-8.713-2.405-12.533-4.367c-12.375-6.353-23.495-15.256-34.127-24.134
			c-15.365-12.83-30.098-26.596-43.994-41.01c-4.088-4.239-10.527,2.216-6.447,6.448c14.111,14.637,29.094,28.567,44.695,41.596
			c10.836,9.047,22.156,17.973,34.645,24.646c7.482,3.998,19.034,9.251,27.033,3.585c6.459-4.574,6.945-13.3,6.803-20.514
			c-0.211-10.697-4.58-20.19-13.058-26.717c-9.821-7.563-24.427-8.986-36.391-7.348C541.825,263.435,544.306,272.22,550.053,271.434
			L550.053,271.434z"/>
	</g>
</g>
<g>
	<g>
		<path fill="#5388A0" d="M310.69,256.871c-9.803,7.462-18.926,17.205-24.096,28.463c-3.61,7.864-4.753,16.774-1.194,24.871
			c2.659,6.051,7.638,12.165,14.432,13.539c12.388,2.505,23.78-9.067,31.271-17.296c10.318-11.338,18.924-24.306,26.902-37.357
			c3.38-5.531,6.672-11.138,9.707-16.867c2.75-5.192-5.121-9.8-7.875-4.603c-10.893,20.564-23.795,41.834-40.659,58.025
			c-3.954,3.795-8.552,7.638-13.957,9.053c-4.866,1.274-8.36-2.359-11.043-7.168c-7.935-14.225,8.008-31.101,17.677-39.834
			c0.932-0.841,1.887-1.657,2.852-2.458c0.412-0.342,2.316-1.811,0.586-0.494C319.905,261.233,315.372,253.307,310.69,256.871
			L310.69,256.871z"/>
	</g>
</g>
<circle fill="#689FBB" cx="360.975" cy="416.844" r="12.375"/>
<circle fill="#689FBB" cx="487.125" cy="422.924" r="12.375"/>
<g>
	<line fill="#689FBB" x1="360.975" y1="422.924" x2="360.975" y2="501.945"/>
	<g>
		<path fill="#689FBB" d="M356.415,422.924c0,26.34,0,52.681,0,79.021c0,5.88,9.119,5.88,9.119,0c0-26.34,0-52.681,0-79.021
			C365.534,417.043,356.415,417.043,356.415,422.924L356.415,422.924z"/>
	</g>
</g>
<g>
	<line fill="#689FBB" x1="487.125" y1="422.924" x2="487.125" y2="501.945"/>
	<g>
		<path fill="#689FBB" d="M482.565,422.924c0,26.34,0,52.681,0,79.021c0,5.88,9.119,5.88,9.119,0c0-26.34,0-52.681,0-79.021
			C491.685,417.043,482.565,417.043,482.565,422.924L482.565,422.924z"/>
	</g>
</g>
<ellipse fill="#689FBB" cx="347.034" cy="504.875" rx="17.197" ry="2.932"/>
<ellipse fill="#689FBB" cx="500.152" cy="504.225" rx="17.197" ry="2.932"/>
<path fill="#A8DFF2" stroke="#FFFFFF" stroke-width="0.0882" stroke-miterlimit="10" d="M356.276,238.475
	c0,0-3.23-7.262,2.965-7.262c6.194,0,9.062-0.665,9.062-3.967s-0.313-11.226,4.933-10.565c5.244,0.66,10.461-1.32,11.614-4.622
	c1.152-3.302,13.926-0.445,16.819,3.293c2.894,3.739,1,13.867,1,13.867s-1.334,4.151-3.017,4.498s-1.11,2.767-4.356,5.408
	c0,0-3.068,9.445-7.028,10.126c-3.962,0.681-4.509,1.54-5.835,3.742c-1.327,2.202-6.112,1.776-6.112,1.776s-5.195-4.416-8.587-0.453
	C364.342,258.278,356.276,238.475,356.276,238.475z"/>
<path fill="#A8DFF2" stroke="#FFFFFF" stroke-width="0.083" stroke-miterlimit="10" d="M505.766,239.393
	c0,0,0.397-14.714-5.79-14.974c-6.188-0.261-9.029-0.97-8.906-3.895s0.731-9.932-4.533-9.567
	c-5.266,0.364-10.403-1.609-11.433-4.584c-1.028-2.973-13.637,3.125-16.668,6.316c-3.031,3.19-2.53,14.59-2.53,14.59
	s1.177,3.732,2.847,4.111c1.668,0.377,1.006,2.496,4.149,4.974c0,0,2.714,8.496,6.645,9.266c3.934,0.77,4.447,1.555,5.691,3.561
	c1.242,2.007,6.041,1.831,6.041,1.831s5.354-3.693,8.597-0.041C493.116,254.634,505.766,239.393,505.766,239.393z"/>
<path fill="#A8DFF2" stroke="#FFFFFF" stroke-width="0.0768" stroke-miterlimit="10" d="M466.438,462.434
	c0,0-19.534,15.338,0,21.344C466.438,483.777,485.283,479.44,466.438,462.434z"/>
<path fill="#A8DFF2" stroke="#FFFFFF" stroke-width="0.0768" stroke-miterlimit="10" d="M396.689,418.547
	c0,0-19.534,15.338,0,21.344C396.689,439.891,415.534,435.554,396.689,418.547z"/>
<path fill="#A8DFF2" stroke="#FFFFFF" stroke-width="0.0768" stroke-miterlimit="10" d="M372.396,261.049
	c0,0-19.535,15.338,0,21.344C372.396,282.393,391.24,278.056,372.396,261.049z"/>
<path fill="#A8DFF2" stroke="#FFFFFF" stroke-width="0.0768" stroke-miterlimit="10" d="M472.397,361.726
	c0,0-19.533,15.337,0,21.343C472.397,383.068,491.243,378.732,472.397,361.726z"/>
<ellipse fill="#5388A0" cx="369.087" cy="229.483" rx="28.041" ry="26.425"/>
<circle fill="#5388A0" cx="480.822" cy="232.723" r="23.185"/>
<g>
	<defs>
		<rect id="SVGID_15_" width="841.89" height="595.28"/>
	</defs>
	<clipPath id="SVGID_2_">
		<use xlink:href="#SVGID_15_"  overflow="visible"/>
	</clipPath>
	
		<path opacity="0.67" clip-path="url(#SVGID_2_)" fill="#A8DFF2" stroke="#FFFFFF" stroke-width="1.2953" stroke-miterlimit="10" d="
		M0-179.412c0,0,93.44-474.315,161.44-140.31c68,334,122.521,254.791,187.159,51.633c64.639-203.152,60.859-351.84,232.841,51.63
		C753.422,187.014,716.401-339.65,770.401-485.191c54-145.541,71.488,307.242,71.488,307.242v773.23H0V-179.412z"/>
</g>
</svg>
