<?xml version="1.0" encoding="utf-8"?>
<!-- Generator: Adobe Illustrator 16.0.0, SVG Export Plug-In . SVG Version: 6.00 Build 0)  -->
<!DOCTYPE svg PUBLIC "-//W3C//DTD SVG 1.1//EN" "http://www.w3.org/Graphics/SVG/1.1/DTD/svg11.dtd">
<svg version="1.1" id="Layer_1" xmlns="http://www.w3.org/2000/svg" xmlns:xlink="http://www.w3.org/1999/xlink" x="0px" y="0px"
	 width="841.89px" height="595.28px" viewBox="0 0 841.89 595.28" enable-background="new 0 0 841.89 595.28" xml:space="preserve">
<path fill="#689FBB" d="M505.587,419.097c111.77-41.399,27.931-113.598,27.931-113.598c57.64-38.77,36.107-160.432,36.107-160.432
	c6.579-1.488,12.942-6.204,15.551-9.255c4.376-5.12,7.019-11.767,7.019-19.03c0-16.187-13.122-29.308-29.309-29.308
	c-16.186,0-29.308,13.122-29.308,29.308c0,3.9,0.82,7.609,2.204,11.012c-113.137-25.4-208.275,0-208.275,0
	c1.383-3.403,2.352-7.028,2.352-10.929c0-16.187-13.122-29.308-29.309-29.308c-16.186,0-29.309,13.122-29.309,29.308
	c0,7.264,2.644,13.91,7.02,19.031c4.031,4.717,9.535,8.14,15.799,9.556c0,0-22.184,121.663,35.456,160.434
	c0,0-83.396,82.029,31.883,112.314C361.398,418.201,473.69,430.912,505.587,419.097z"/>
<path fill="none" stroke="#556337" stroke-width="0.6513" stroke-miterlimit="10" d="M592.194,478.125"/>
<circle fill="#FFFFFF" cx="372.699" cy="223.218" r="26.705"/>
<circle fill="#FFFFFF" cx="484.52" cy="223.218" r="26.705"/>
<circle cx="384.146" cy="217.316" r="11.447"/>
<circle cx="495.967" cy="217.316" r="11.447"/>
<circle fill="#FFFFFF" cx="390.708" cy="211.894" r="1.628"/>
<circle fill="#FFFFFF" cx="501.109" cy="210.917" r="1.628"/>
<g>
	<g>
		<path fill="#5388A0" d="M464.519,193.749c8.019-14.87,35.752-16.102,45.213-1.864c1.388,2.088,4.773,0.133,3.375-1.973
			c-11.023-16.587-42.422-15.828-51.963,1.864C459.948,193.994,463.321,195.967,464.519,193.749L464.519,193.749z"/>
	</g>
</g>
<g>
	<g>
		<path fill="#5388A0" d="M349.636,191.924c8.018-14.87,35.752-16.101,45.213-1.864c1.388,2.088,4.773,0.133,3.375-1.973
			c-11.023-16.587-42.423-15.828-51.963,1.864C345.065,192.169,348.439,194.143,349.636,191.924L349.636,191.924z"/>
	</g>
</g>
<g>
	<g>
		<path fill="#5388A0" d="M411.095,362.762c1.563-1.961,7.688-6.982,0.467-1.466c2.464-1.882,5.247-3.324,8.046-4.631
			c-8.083,3.776,1.295-0.159,3.604-0.783c1.55-0.419,3.126-0.732,4.699-1.045c2.842-0.475,2.154-0.416-2.062,0.178
			c1.13-0.138,2.264-0.251,3.399-0.34c3.506-0.313,7.032-0.29,10.545-0.15c1.701,0.068,3.396,0.247,5.088,0.428
			c-8.317-0.887-0.881,0.044,0.976,0.462c1.491,0.336,2.954,0.779,4.415,1.225c0.932,0.297,1.854,0.619,2.768,0.965
			c-4.072-1.791-4.88-2.122-2.42-0.995c1.2,0.557,2.344,1.223,3.484,1.892c5.709,3.352-3.53-3.194-0.459-0.488
			c10.747,9.472,26.59,10.612,37.201,0c9.656-9.657,10.763-27.715,0-37.201c-16.375-14.433-38.347-19.874-59.868-18.866
			c-19.862,0.93-44.088,7.296-57.085,23.615c-4.549,5.71-7.705,11-7.705,18.601c0,6.949,2.794,13.69,7.705,18.601
			C383.172,372.041,402.147,373.997,411.095,362.762L411.095,362.762z"/>
	</g>
</g>
<path fill="#FFFFFF" d="M395.051,311.384c0,0,8.104,11.074,14.166,8.033c2.755-1.381,3.664-5.428,5.699-15.198
	c0,0-12.158,2.606-19.865,6.296l-0.489,0.164L395.051,311.384z"/>
<g>
	<g>
		<path fill="#5388A0" d="M550.053,271.434c-2.665,0.365,0.472-0.013,1.099-0.06c1.99-0.147,3.988-0.172,5.982-0.131
			c5.519,0.114,10.939,1.077,16.097,3.068c5.76,2.224,10.583,6.771,12.843,12.532c2.313,5.895,2.992,15.655,0.711,20.604
			c-1.295,2.809-2.98,3.414-6.166,3.469c-4.377,0.077-9.264-1.702-13.659-3.498c-12.834-5.244-24.649-13.54-35.864-21.559
			c-17.094-12.223-33.508-25.625-49.05-39.775c-4.337-3.948-10.805,2.481-6.447,6.448c14.993,13.65,30.835,26.494,47.168,38.499
			c11.6,8.525,23.661,16.771,36.698,22.957c8.673,4.115,19.992,8.758,29.352,4.14c6.654-3.284,7.883-11.203,8.24-17.802
			c0.59-10.892-2.867-22.102-11.503-29.153c-10.249-8.368-25.121-10.284-37.924-8.532
			C541.825,263.435,544.306,272.22,550.053,271.434L550.053,271.434z"/>
	</g>
</g>
<g>
	<g>
		<path fill="#5388A0" d="M310.69,256.871c-9.803,7.462-18.926,17.205-24.096,28.462c-3.61,7.864-4.753,16.774-1.194,24.871
			c2.659,6.051,7.637,12.165,14.432,13.539c12.389,2.505,23.78-9.067,31.271-17.295c10.318-11.338,18.925-24.306,26.901-37.357
			c3.381-5.531,6.673-11.138,9.707-16.867c2.751-5.192-5.12-9.8-7.873-4.603c-10.893,20.564-23.796,41.834-40.66,58.024
			c-3.953,3.796-8.551,7.638-13.957,9.054c-4.866,1.274-8.36-2.36-11.043-7.169c-7.935-14.225,8.008-31.101,17.678-39.834
			c0.931-0.841,1.886-1.657,2.851-2.458c0.412-0.342,2.316-1.811,0.586-0.494C319.905,261.233,315.371,253.307,310.69,256.871
			L310.69,256.871z"/>
	</g>
</g>
<circle fill="#689FBB" cx="360.975" cy="416.843" r="12.375"/>
<circle fill="#689FBB" cx="487.125" cy="422.923" r="12.375"/>
<g>
	<line fill="#689FBB" x1="360.975" y1="422.923" x2="360.975" y2="501.945"/>
	<g>
		<path fill="#689FBB" d="M356.415,422.923c0,26.34,0,52.681,0,79.021c0,5.88,9.119,5.88,9.119,0c0-26.34,0-52.681,0-79.021
			C365.534,417.043,356.415,417.043,356.415,422.923L356.415,422.923z"/>
	</g>
</g>
<g>
	<line fill="#689FBB" x1="487.125" y1="422.923" x2="487.125" y2="501.945"/>
	<g>
		<path fill="#689FBB" d="M482.565,422.923c0,26.34,0,52.681,0,79.021c0,5.88,9.119,5.88,9.119,0c0-26.34,0-52.681,0-79.021
			C491.685,417.043,482.565,417.043,482.565,422.923L482.565,422.923z"/>
	</g>
</g>
<ellipse fill="#689FBB" cx="347.034" cy="504.875" rx="17.197" ry="2.932"/>
<ellipse fill="#689FBB" cx="500.152" cy="504.224" rx="17.197" ry="2.932"/>
<path fill="#A8DFF2" stroke="#FFFFFF" stroke-width="0.0768" stroke-miterlimit="10" d="M354.277,239.438
	c0,0-3.23-5.504,2.964-5.504s9.062-0.503,9.062-3.005c0-2.502-0.313-8.507,4.933-8.007c5.245,0.5,10.462-1,11.614-3.503
	c1.152-2.502,13.926-0.337,16.819,2.496s1,10.509,1,10.509s-1.334,3.146-3.017,3.408s-1.11,2.097-4.355,4.099
	c0,0-3.068,7.158-7.029,7.674c-3.962,0.516-4.508,1.167-5.835,2.836c-1.327,1.669-6.112,1.346-6.112,1.346s-5.195-3.346-8.587-0.343
	C362.342,254.446,354.277,239.438,354.277,239.438z"/>
<path fill="#A8DFF2" stroke="#FFFFFF" stroke-width="0.0768" stroke-miterlimit="10" d="M496.617,242.292
	c0,0,9.379-13.617,3.19-13.877c-6.189-0.26-9.032-0.884-8.928-3.384c0.105-2.5,0.671-8.486-4.591-8.208
	c-5.262,0.28-10.41-1.439-11.457-3.988c-1.047-2.548-13.615,2.588-16.626,5.297c-3.01,2.709-2.44,12.458-2.44,12.458
	s1.2,3.199,2.871,3.532c1.67,0.333,1.021,2.141,4.179,4.278c0,0,2.765,7.28,6.701,7.962c3.937,0.682,4.454,1.356,5.71,3.079
	c1.256,1.724,6.051,1.602,6.051,1.602s5.33-3.125,8.594,0.018C493.134,254.205,496.617,242.292,496.617,242.292z"/>
<path fill="#A8DFF2" stroke="#FFFFFF" stroke-width="0.0768" stroke-miterlimit="10" d="M396.689,382.726
	c0,0-19.534,15.337,0,21.343C396.689,404.068,415.534,399.732,396.689,382.726z"/>
<path fill="#A8DFF2" stroke="#FFFFFF" stroke-width="0.0768" stroke-miterlimit="10" d="M455.876,257.628
	c0,0-19.534,15.337,0,21.343C455.876,278.971,474.721,274.634,455.876,257.628z"/>
<circle fill="#5388A0" cx="368.869" cy="240.366" r="15.434"/>
<circle fill="#5388A0" cx="474.508" cy="239.392" r="16.556"/>
</svg>
