<?xml version="1.0" encoding="utf-8"?>
<!-- Generator: Adobe Illustrator 16.0.0, SVG Export Plug-In . SVG Version: 6.00 Build 0)  -->
<!DOCTYPE svg PUBLIC "-//W3C//DTD SVG 1.1//EN" "http://www.w3.org/Graphics/SVG/1.1/DTD/svg11.dtd">
<svg version="1.1" id="Layer_1" xmlns="http://www.w3.org/2000/svg" xmlns:xlink="http://www.w3.org/1999/xlink" x="0px" y="0px"
	 width="841.89px" height="595.28px" viewBox="0 0 841.89 595.28" enable-background="new 0 0 841.89 595.28" xml:space="preserve">
<path fill="#689FBB" d="M505.586,419.097C617.356,377.698,533.518,305.5,533.518,305.5c57.64-38.77,36.107-160.432,36.107-160.432
	c6.579-1.488,12.942-6.204,15.551-9.255c4.377-5.12,7.019-11.767,7.019-19.03c0-16.187-13.122-29.308-29.308-29.308
	c-16.187,0-29.309,13.122-29.309,29.308c0,3.9,0.82,7.609,2.203,11.012c-113.136-25.4-208.274,0-208.274,0
	c1.383-3.403,2.352-7.028,2.352-10.929c0-16.187-13.122-29.308-29.309-29.308c-16.186,0-29.309,13.122-29.309,29.308
	c0,7.264,2.644,13.91,7.02,19.031c4.031,4.717,9.535,8.14,15.799,9.556c0,0-22.184,121.663,35.456,160.434
	c0,0-83.396,82.029,31.883,112.314C361.398,418.201,473.69,430.912,505.586,419.097z"/>
<path fill="none" stroke="#556337" stroke-width="0.6513" stroke-miterlimit="10" d="M592.194,478.125"/>
<circle fill="#FFFFFF" cx="372.698" cy="223.218" r="26.704"/>
<circle fill="#FFFFFF" cx="484.52" cy="223.218" r="26.705"/>
<circle cx="360.975" cy="217.316" r="11.447"/>
<circle cx="495.967" cy="217.316" r="11.447"/>
<circle fill="#FFFFFF" cx="353.435" cy="213.522" r="1.628"/>
<circle fill="#FFFFFF" cx="501.108" cy="210.917" r="1.628"/>
<g>
	<g>
		<path fill="#5388A0" d="M464.518,193.749c8.02-14.87,35.752-16.102,45.215-1.864c1.387,2.088,4.773,0.133,3.373-1.973
			c-11.021-16.587-42.422-15.828-51.961,1.864C459.947,193.994,463.322,195.967,464.518,193.749L464.518,193.749z"/>
	</g>
</g>
<g>
	<g>
		<path fill="#5388A0" d="M349.635,191.924c8.02-14.87,35.753-16.101,45.215-1.864c1.387,2.088,4.773,0.133,3.373-1.973
			c-11.021-16.587-42.422-15.828-51.961,1.864C345.064,192.169,348.439,194.143,349.635,191.924L349.635,191.924z"/>
	</g>
</g>
<g>
	<g>
		<path fill="#5388A0" d="M411.095,362.762c1.562-1.961,7.688-6.982,0.468-1.466c2.463-1.882,5.246-3.324,8.045-4.631
			c-8.084,3.776,1.295-0.159,3.604-0.783c1.551-0.419,3.127-0.732,4.701-1.045c2.842-0.475,2.154-0.416-2.063,0.178
			c1.131-0.138,2.264-0.251,3.398-0.34c3.506-0.313,7.033-0.29,10.546-0.15c1.702,0.068,3.396,0.247,5.088,0.428
			c-8.317-0.887-0.881,0.044,0.976,0.462c1.49,0.336,2.954,0.779,4.415,1.225c0.931,0.297,1.854,0.619,2.769,0.965
			c-4.074-1.791-4.881-2.122-2.422-0.995c1.201,0.557,2.346,1.223,3.484,1.892c5.71,3.352-3.529-3.194-0.458-0.488
			c10.747,9.472,26.589,10.612,37.201,0c9.657-9.657,10.763-27.715,0-37.201c-16.376-14.433-38.347-19.874-59.868-18.866
			c-19.862,0.93-44.088,7.296-57.085,23.615c-4.548,5.71-7.704,11-7.704,18.601c0,6.949,2.793,13.69,7.704,18.601
			C383.172,372.041,402.147,373.997,411.095,362.762L411.095,362.762z"/>
	</g>
</g>
<path fill="#FFFFFF" d="M395.051,311.384c0,0,8.104,11.074,14.166,8.033c2.755-1.381,3.664-5.428,5.699-15.198
	c0,0-12.158,2.606-19.865,6.296l-0.489,0.164L395.051,311.384z"/>
<g>
	<g>
		<path fill="#5388A0" d="M550.053,271.434c-2.666,0.365,0.472-0.013,1.098-0.06c1.991-0.147,3.988-0.172,5.984-0.131
			c5.518,0.114,10.939,1.077,16.096,3.068c5.76,2.224,10.583,6.771,12.844,12.532c2.313,5.895,2.99,15.655,0.71,20.604
			c-1.295,2.809-2.981,3.414-6.167,3.469c-4.376,0.077-9.263-1.702-13.658-3.498c-12.834-5.244-24.648-13.54-35.864-21.559
			c-17.093-12.223-33.509-25.625-49.05-39.775c-4.337-3.948-10.805,2.481-6.447,6.448c14.993,13.65,30.836,26.494,47.168,38.499
			c11.6,8.525,23.662,16.771,36.697,22.957c8.674,4.115,19.992,8.758,29.352,4.14c6.654-3.284,7.884-11.203,8.241-17.802
			c0.591-10.892-2.866-22.102-11.503-29.153c-10.25-8.368-25.121-10.284-37.924-8.532
			C541.824,263.435,544.305,272.22,550.053,271.434L550.053,271.434z"/>
	</g>
</g>
<circle fill="#689FBB" cx="360.975" cy="416.843" r="12.375"/>
<circle fill="#689FBB" cx="487.125" cy="422.923" r="12.375"/>
<g>
	<line fill="#689FBB" x1="360.975" y1="422.923" x2="360.975" y2="501.945"/>
	<g>
		<path fill="#689FBB" d="M356.416,422.923c0,26.34,0,52.681,0,79.021c0,5.88,9.117,5.88,9.117,0c0-26.34,0-52.681,0-79.021
			C365.533,417.043,356.416,417.043,356.416,422.923L356.416,422.923z"/>
	</g>
</g>
<g>
	<line fill="#689FBB" x1="487.125" y1="422.923" x2="487.125" y2="501.945"/>
	<g>
		<path fill="#689FBB" d="M482.566,422.923c0,26.34,0,52.681,0,79.021c0,5.88,9.117,5.88,9.117,0c0-26.34,0-52.681,0-79.021
			C491.684,417.043,482.566,417.043,482.566,422.923L482.566,422.923z"/>
	</g>
</g>
<ellipse fill="#689FBB" cx="347.034" cy="504.875" rx="17.198" ry="2.932"/>
<ellipse fill="#689FBB" cx="500.152" cy="504.224" rx="17.197" ry="2.932"/>
<path fill="#A8DFF2" stroke="#FFFFFF" stroke-width="0.0882" stroke-miterlimit="10" d="M356.277,238.475
	c0,0-3.23-7.262,2.964-7.262s9.062-0.665,9.062-3.966c0-3.302-0.313-11.226,4.933-10.566s10.462-1.32,11.614-4.623
	c1.152-3.301,13.926-0.445,16.819,3.294c2.894,3.739,1,13.867,1,13.867s-1.335,4.151-3.017,4.498
	c-1.684,0.347-1.11,2.767-4.355,5.408c0,0-3.068,9.445-7.029,10.126c-3.962,0.68-4.508,1.541-5.836,3.742
	c-1.326,2.202-6.111,1.776-6.111,1.776s-5.195-4.416-8.588-0.453C364.342,258.278,356.277,238.475,356.277,238.475z"/>
<path fill="#A8DFF2" stroke="#FFFFFF" stroke-width="0.083" stroke-miterlimit="10" d="M505.766,239.392
	c0,0,0.398-14.713-5.789-14.973c-6.189-0.261-9.029-0.97-8.908-3.895c0.125-2.925,0.732-9.932-4.532-9.568
	c-5.267,0.365-10.403-1.609-11.433-4.583c-1.028-2.973-13.637,3.125-16.668,6.315s-2.53,14.59-2.53,14.59s1.177,3.733,2.847,4.111
	c1.668,0.377,1.006,2.497,4.148,4.974c0,0,2.715,8.496,6.646,9.266c3.934,0.77,4.446,1.555,5.689,3.561
	c1.244,2.007,6.042,1.831,6.042,1.831s5.354-3.693,8.597-0.04C493.116,254.634,505.766,239.392,505.766,239.392z"/>
<path fill="#A8DFF2" stroke="#FFFFFF" stroke-width="0.0768" stroke-miterlimit="10" d="M399.557,478.124
	c0,0-19.534,15.337,0,21.343C399.557,499.467,418.4,495.13,399.557,478.124z"/>
<path fill="#A8DFF2" stroke="#FFFFFF" stroke-width="0.0768" stroke-miterlimit="10" d="M496.119,317.444
	c0,0-19.533,15.337,0,21.343C496.119,338.787,514.965,334.45,496.119,317.444z"/>
<circle fill="#5388A0" cx="376.62" cy="232.615" r="23.185"/>
<circle fill="#5388A0" cx="462.831" cy="246.402" r="23.185"/>
<g>
	<g>
		<path fill="#5388A0" d="M310.689,256.871c-9.801,7.462-18.926,17.205-24.094,28.462c-3.611,7.864-4.754,16.774-1.195,24.871
			c2.66,6.051,7.637,12.165,14.432,13.539c12.389,2.505,23.781-9.067,31.27-17.295c10.32-11.338,18.926-24.306,26.902-37.357
			c3.381-5.531,6.672-11.138,9.707-16.867c2.75-5.192-5.12-9.8-7.873-4.603c-10.893,20.564-23.797,41.834-40.66,58.024
			c-3.953,3.796-8.551,7.638-13.957,9.054c-4.865,1.274-8.361-2.36-11.043-7.169c-7.935-14.225,8.008-31.101,17.678-39.834
			c0.93-0.841,1.885-1.657,2.852-2.458c0.412-0.342,2.314-1.811,0.586-0.494C319.905,261.233,315.371,253.307,310.689,256.871
			L310.689,256.871z"/>
	</g>
</g>
</svg>
