<?xml version="1.0" encoding="utf-8"?>
<!-- Generator: Adobe Illustrator 16.0.0, SVG Export Plug-In . SVG Version: 6.00 Build 0)  -->
<!DOCTYPE svg PUBLIC "-//W3C//DTD SVG 1.1//EN" "http://www.w3.org/Graphics/SVG/1.1/DTD/svg11.dtd">
<svg version="1.1" id="Layer_1" xmlns="http://www.w3.org/2000/svg" xmlns:xlink="http://www.w3.org/1999/xlink" x="0px" y="0px"
	 width="841.89px" height="595.28px" viewBox="0 0 841.89 595.28" enable-background="new 0 0 841.89 595.28" xml:space="preserve">
<path fill="#689FBB" d="M505.587,419.097c111.77-41.399,27.931-113.598,27.931-113.598c57.64-38.77,36.107-160.432,36.107-160.432
	c6.579-1.488,12.942-6.204,15.551-9.255c4.376-5.12,7.019-11.767,7.019-19.03c0-16.187-13.122-29.308-29.309-29.308
	c-16.186,0-29.308,13.122-29.308,29.308c0,3.9,0.82,7.609,2.204,11.012c-113.137-25.4-208.275,0-208.275,0
	c1.383-3.403,2.352-7.028,2.352-10.929c0-16.187-13.122-29.308-29.309-29.308c-16.186,0-29.309,13.122-29.309,29.308
	c0,7.264,2.644,13.91,7.02,19.031c4.031,4.717,9.535,8.14,15.799,9.556c0,0-22.184,121.663,35.456,160.434
	c0,0-83.396,82.029,31.883,112.314C361.398,418.201,473.69,430.912,505.587,419.097z"/>
<path fill="none" stroke="#556337" stroke-width="0.6513" stroke-miterlimit="10" d="M592.194,478.125"/>
<circle fill="#FFFFFF" cx="372.699" cy="223.218" r="26.705"/>
<circle fill="#FFFFFF" cx="484.52" cy="223.218" r="26.705"/>
<circle cx="360.975" cy="217.316" r="11.447"/>
<circle cx="495.967" cy="217.316" r="11.447"/>
<circle fill="#FFFFFF" cx="353.435" cy="213.522" r="1.628"/>
<circle fill="#FFFFFF" cx="501.109" cy="210.917" r="1.628"/>
<g>
	<g>
		<path fill="#5388A0" d="M464.519,193.749c8.019-14.87,35.752-16.101,45.213-1.864c1.388,2.088,4.774,0.133,3.375-1.973
			c-11.023-16.587-42.422-15.828-51.963,1.864C459.948,193.994,463.322,195.967,464.519,193.749L464.519,193.749z"/>
	</g>
</g>
<g>
	<g>
		<path fill="#5388A0" d="M349.636,191.924c8.018-14.87,35.752-16.101,45.213-1.864c1.388,2.088,4.774,0.133,3.375-1.973
			c-11.022-16.587-42.423-15.828-51.963,1.864C345.065,192.169,348.439,194.143,349.636,191.924L349.636,191.924z"/>
	</g>
</g>
<g>
	<g>
		<path fill="#5388A0" d="M411.095,362.762c1.563-1.961,7.688-6.983,0.467-1.466c2.463-1.882,5.247-3.323,8.045-4.631
			c-8.083,3.776,1.295-0.159,3.604-0.783c1.55-0.419,3.126-0.731,4.7-1.045c2.841-0.475,2.154-0.416-2.062,0.178
			c1.13-0.138,2.264-0.251,3.399-0.34c3.505-0.313,7.032-0.291,10.545-0.15c1.701,0.068,3.396,0.247,5.088,0.428
			c-8.317-0.887-0.881,0.044,0.976,0.462c1.491,0.336,2.954,0.779,4.415,1.225c0.931,0.297,1.854,0.619,2.768,0.965
			c-4.073-1.791-4.88-2.122-2.42-0.995c1.2,0.557,2.344,1.223,3.484,1.892c5.709,3.352-3.53-3.194-0.458-0.488
			c10.747,9.472,26.589,10.612,37.201,0c9.656-9.657,10.763-27.715,0-37.201c-16.375-14.433-38.347-19.874-59.868-18.866
			c-19.862,0.93-44.088,7.295-57.085,23.615c-4.548,5.71-7.705,11-7.705,18.601c0,6.949,2.794,13.69,7.705,18.601
			C383.172,372.041,402.147,373.997,411.095,362.762L411.095,362.762z"/>
	</g>
</g>
<path fill="#FFFFFF" d="M395.051,311.384c0,0,8.104,11.074,14.166,8.033c2.755-1.381,3.664-5.428,5.699-15.198
	c0,0-12.158,2.606-19.865,6.296l-0.489,0.164L395.051,311.384z"/>
<g>
	<g>
		<path fill="#5388A0" d="M550.053,271.434c-2.666,0.365,0.472-0.013,1.098-0.06c1.991-0.147,3.989-0.172,5.983-0.131
			c5.518,0.114,10.939,1.077,16.096,3.068c5.76,2.224,10.583,6.771,12.843,12.532c2.33,5.938,3.052,15.648,0.649,20.919
			c-1.355,2.971-2.878,3.409-6.357,3.279c-3.956-0.147-9.203-2.36-13.259-4.367c-12.667-6.268-24.136-15.106-35.073-23.967
			c-13.532-10.962-26.596-22.655-38.936-34.951c-4.168-4.153-10.617,2.293-6.447,6.448c14.757,14.706,30.502,28.611,46.999,41.326
			c10.873,8.38,22.244,16.515,34.998,21.779c8.517,3.515,19.45,4.994,25.28-3.738c4.62-6.918,3.709-17.901,2.039-25.507
			c-1.894-8.618-7.587-15.784-15.148-20.152c-9.698-5.604-22.229-6.772-33.19-5.272C541.825,263.435,544.305,272.22,550.053,271.434
			L550.053,271.434z"/>
	</g>
</g>
<g>
	<g>
		<path fill="#5388A0" d="M310.69,256.871c-9.802,7.462-18.926,17.205-24.095,28.462c-3.611,7.864-4.753,16.774-1.195,24.871
			c2.66,6.051,7.637,12.165,14.432,13.539c12.388,2.505,23.781-9.067,31.271-17.295c10.319-11.338,18.925-24.306,26.901-37.357
			c3.381-5.531,6.672-11.138,9.707-16.867c2.751-5.192-5.12-9.8-7.873-4.603c-10.893,20.564-23.796,41.834-40.66,58.024
			c-3.954,3.796-8.551,7.638-13.957,9.054c-4.866,1.274-8.36-2.36-11.043-7.169c-7.935-14.225,8.008-31.101,17.677-39.835
			c0.931-0.841,1.886-1.656,2.852-2.457c0.412-0.342,2.316-1.811,0.586-0.494C319.905,261.233,315.372,253.307,310.69,256.871
			L310.69,256.871z"/>
	</g>
</g>
<circle fill="#689FBB" cx="360.975" cy="416.843" r="12.375"/>
<circle fill="#689FBB" cx="487.125" cy="422.923" r="12.375"/>
<g>
	<line fill="#689FBB" x1="360.975" y1="422.923" x2="360.975" y2="501.945"/>
	<g>
		<path fill="#689FBB" d="M356.415,422.923c0,26.34,0,52.681,0,79.021c0,5.88,9.119,5.88,9.119,0c0-26.34,0-52.681,0-79.021
			C365.534,417.043,356.415,417.043,356.415,422.923L356.415,422.923z"/>
	</g>
</g>
<g>
	<line fill="#689FBB" x1="487.125" y1="422.923" x2="487.125" y2="501.945"/>
	<g>
		<path fill="#689FBB" d="M482.565,422.923c0,26.34,0,52.681,0,79.021c0,5.88,9.119,5.88,9.119,0c0-26.34,0-52.681,0-79.021
			C491.685,417.043,482.565,417.043,482.565,422.923L482.565,422.923z"/>
	</g>
</g>
<ellipse fill="#689FBB" cx="347.034" cy="504.875" rx="17.197" ry="2.932"/>
<ellipse fill="#689FBB" cx="500.152" cy="504.224" rx="17.197" ry="2.932"/>
<path fill="#A8DFF2" stroke="#FFFFFF" stroke-width="0.0882" stroke-miterlimit="10" d="M356.277,238.475
	c0,0-3.23-7.262,2.964-7.262s9.062-0.665,9.062-3.966c0-3.302-0.313-11.226,4.933-10.566s10.462-1.32,11.614-4.623
	c1.152-3.301,13.926-0.445,16.819,3.294c2.894,3.739,1,13.867,1,13.867s-1.334,4.151-3.017,4.498s-1.11,2.767-4.355,5.408
	c0,0-3.068,9.445-7.029,10.126c-3.962,0.68-4.508,1.541-5.835,3.742c-1.327,2.202-6.112,1.776-6.112,1.776s-5.195-4.416-8.587-0.453
	C364.342,258.278,356.277,238.475,356.277,238.475z"/>
<path fill="#A8DFF2" stroke="#FFFFFF" stroke-width="0.083" stroke-miterlimit="10" d="M505.766,239.392
	c0,0,0.398-14.713-5.789-14.973c-6.189-0.261-9.029-0.97-8.907-3.895c0.124-2.925,0.731-9.932-4.533-9.568
	c-5.266,0.365-10.403-1.609-11.433-4.583c-1.028-2.973-13.637,3.125-16.668,6.315s-2.53,14.59-2.53,14.59s1.177,3.733,2.847,4.111
	c1.668,0.377,1.006,2.497,4.149,4.974c0,0,2.714,8.496,6.646,9.266c3.934,0.77,4.446,1.555,5.69,3.561
	c1.243,2.007,6.041,1.831,6.041,1.831s5.354-3.693,8.597-0.04C493.116,254.634,505.766,239.392,505.766,239.392z"/>
<path fill="#A8DFF2" stroke="#FFFFFF" stroke-width="0.0768" stroke-miterlimit="10" d="M392.647,456.781
	c0,0-19.534,15.337,0,21.343C392.647,478.124,411.492,473.788,392.647,456.781z"/>
<path fill="#A8DFF2" stroke="#FFFFFF" stroke-width="0.0768" stroke-miterlimit="10" d="M389.496,258.916
	c0,0-19.534,15.337,0,21.343C389.496,280.258,408.341,275.922,389.496,258.916z"/>
<path fill="#A8DFF2" stroke="#FFFFFF" stroke-width="0.0768" stroke-miterlimit="10" d="M480.976,361.726
	c0,0-19.534,15.337,0,21.343C480.976,383.068,499.82,378.732,480.976,361.726z"/>
<path fill="#A8DFF2" stroke="#FFFFFF" stroke-width="0.0768" stroke-miterlimit="10" d="M480.976,269.587
	c0,0-19.534,15.337,0,21.343C480.976,290.93,499.82,286.593,480.976,269.587z"/>
<path fill="#A8DFF2" stroke="#FFFFFF" stroke-width="0.1252" stroke-miterlimit="10" d="M421.775,491.72c0,0-24.224-3.5-31.681,0
	c-7.456,3.5-16.488,5.951,0,10.226c16.489,4.274,28.608-0.413,50.486,2.931c21.877,3.344,47.248-7.656,26.58-10.156
	C446.494,492.22,421.775,491.72,421.775,491.72z"/>
<circle fill="#5388A0" cx="364.231" cy="232.615" r="23.185"/>
<circle fill="#5388A0" cx="495.967" cy="240.5" r="23.184"/>
</svg>
