<?xml version="1.0" encoding="utf-8"?>
<!-- Generator: Adobe Illustrator 16.0.0, SVG Export Plug-In . SVG Version: 6.00 Build 0)  -->
<!DOCTYPE svg PUBLIC "-//W3C//DTD SVG 1.1//EN" "http://www.w3.org/Graphics/SVG/1.1/DTD/svg11.dtd">
<svg version="1.1" id="Layer_1" xmlns="http://www.w3.org/2000/svg" xmlns:xlink="http://www.w3.org/1999/xlink" x="0px" y="0px"
	 width="841.89px" height="595.28px" viewBox="0 0 841.89 595.28" enable-background="new 0 0 841.89 595.28" xml:space="preserve">
<g>
	<defs>
		<rect id="SVGID_1_" y="34" width="406" height="539"/>
	</defs>
	<clipPath id="SVGID_2_">
		<use xlink:href="#SVGID_1_"  overflow="visible"/>
	</clipPath>
	<g clip-path="url(#SVGID_2_)">
		<path fill="#70A3C1" d="M-15.155,419.097C96.614,377.698,12.775,305.5,12.775,305.5c57.64-38.77,36.107-160.432,36.107-160.432
			c6.579-1.488,12.942-6.204,15.551-9.255c4.376-5.12,7.019-11.767,7.019-19.03c0-16.187-13.122-29.308-29.309-29.308
			c-16.186,0-29.308,13.122-29.308,29.308c0,3.9,0.82,7.609,2.204,11.012c-113.137-25.4-208.275,0-208.275,0
			c1.383-3.403,2.352-7.028,2.352-10.929c0-16.187-13.122-29.308-29.309-29.308c-16.186,0-29.309,13.122-29.309,29.308
			c0,7.264,2.644,13.91,7.02,19.031c4.031,4.717,9.535,8.14,15.799,9.556c0,0-22.184,121.663,35.456,160.434
			c0,0-83.396,82.029,31.883,112.314C-159.344,418.201-47.052,430.912-15.155,419.097z"/>
		<path fill="none" stroke="#5D6733" stroke-width="0.6513" stroke-miterlimit="10" d="M71.452,478.125"/>
		<g>
			<g>
				<path fill="#70A3C1" d="M28.099,271.596c17.078-1.353,43.667,1.748,50.069,20.62c3.034,8.944,0.21,18.911,0.433,28.112
					c0.216,8.913,2.023,17.813,6.054,25.796c3.302,6.539,9.274,13.255,16.48,15.567c5.615,1.801,8-7.004,2.424-8.793
					c-1.275-0.409,0.899,0.465-0.5-0.222c-1.239-0.609-2.8-1.656-3.387-2.129c-4.411-3.562-7.321-8.532-9.174-13.828
					c-3.426-9.789-3.211-20.502-2.155-30.676c0.821-7.907-0.334-15.834-4.282-22.802c-10.286-18.156-36.949-22.269-55.963-20.762
					C22.277,262.939,22.232,272.061,28.099,271.596L28.099,271.596z"/>
			</g>
		</g>
		<circle fill="#70A3C1" cx="114.655" cy="360.936" r="12.243"/>
	</g>
</g>
<g>
	<defs>
		<rect id="SVGID_3_" x="861.89" y="34" width="406" height="539"/>
	</defs>
	<clipPath id="SVGID_4_">
		<use xlink:href="#SVGID_3_"  overflow="visible"/>
	</clipPath>
	<g clip-path="url(#SVGID_4_)">
		<path fill="#70A3C1" d="M886.735,419.097c111.77-41.399,27.931-113.598,27.931-113.598c57.64-38.77,36.107-160.432,36.107-160.432
			c6.579-1.488,12.942-6.204,15.551-9.255c4.376-5.12,7.019-11.767,7.019-19.03c0-16.187-13.122-29.308-29.309-29.308
			c-16.186,0-29.308,13.122-29.308,29.308c0,3.9,0.82,7.609,2.204,11.012c-113.137-25.4-208.275,0-208.275,0
			c1.383-3.403,2.352-7.028,2.352-10.929c0-16.187-13.122-29.308-29.309-29.308c-16.186,0-29.309,13.122-29.309,29.308
			c0,7.264,2.644,13.91,7.02,19.031c4.031,4.717,9.535,8.14,15.799,9.556c0,0-22.184,121.663,35.456,160.434
			c0,0-83.396,82.029,31.883,112.314C742.546,418.201,854.838,430.912,886.735,419.097z"/>
		<circle fill="#FFFFFF" cx="753.847" cy="223.218" r="26.705"/>
		<circle fill="#FFFFFF" cx="865.668" cy="223.218" r="26.705"/>
		<circle cx="765.294" cy="217.316" r="11.447"/>
		<circle fill="#FFFFFF" cx="771.856" cy="211.894" r="1.628"/>
		<g>
			<g>
				<path fill="#558AA5" d="M730.783,191.924c8.019-14.87,35.752-16.101,45.214-1.864c1.387,2.088,4.773,0.133,3.374-1.973
					c-11.022-16.587-42.422-15.828-51.962,1.864C726.213,192.169,729.587,194.143,730.783,191.924L730.783,191.924z"/>
			</g>
		</g>
		<g>
			<g>
				<path fill="#558AA5" d="M792.243,362.762c1.562-1.961,7.688-6.982,0.467-1.466c2.464-1.882,5.247-3.324,8.045-4.631
					c-8.083,3.776,1.295-0.159,3.604-0.783c1.55-0.419,3.127-0.732,4.7-1.045c2.842-0.475,2.154-0.416-2.063,0.178
					c1.131-0.138,2.264-0.251,3.399-0.34c3.506-0.313,7.033-0.29,10.545-0.15c1.702,0.068,3.396,0.247,5.088,0.428
					c-8.317-0.887-0.881,0.044,0.976,0.462c1.491,0.336,2.954,0.779,4.415,1.225c0.932,0.297,1.854,0.619,2.769,0.965
					c-4.073-1.791-4.88-2.122-2.42-0.995c1.2,0.557,2.344,1.223,3.484,1.892c5.709,3.352-3.53-3.194-0.458-0.488
					c10.747,9.472,26.589,10.612,37.201,0c9.657-9.657,10.763-27.715,0-37.201c-16.375-14.433-38.347-19.874-59.868-18.866
					c-19.862,0.93-44.088,7.296-57.085,23.615c-4.548,5.71-7.705,11-7.705,18.601c0,6.949,2.793,13.69,7.705,18.601
					C764.32,372.041,783.295,373.997,792.243,362.762L792.243,362.762z"/>
			</g>
		</g>
		<path fill="#FFFFFF" d="M776.199,311.384c0,0,8.104,11.074,14.166,8.033c2.755-1.381,3.664-5.428,5.699-15.198
			c0,0-12.158,2.606-19.865,6.296l-0.489,0.164L776.199,311.384z"/>
		<circle fill="#70A3C1" cx="625.641" cy="392.225" r="12.243"/>
		<g>
			<g>
				<path fill="#70A3C1" d="M692.927,256.411c-18.41,3.38-36.547,14.618-48.926,28.338c-12.248,13.574-18.853,30.624-21.146,48.6
					c-1.879,14.729-0.717,30.347-0.756,45.181c-0.006,2.298-0.012,4.596-0.018,6.894c-0.016,5.881,9.103,5.879,9.118,0
					c0.078-29.828-3.619-61.876,14.146-87.78c11.185-16.308,30.395-28.492,49.798-32.399c0.069-0.014,0.138-0.027,0.207-0.04
					C701.129,264.143,698.674,255.356,692.927,256.411L692.927,256.411z"/>
			</g>
		</g>
		<circle fill="#70A3C1" cx="742.123" cy="416.843" r="12.375"/>
		<g>
			<line fill="#70A3C1" x1="742.123" y1="422.923" x2="742.123" y2="501.945"/>
			<g>
				<path fill="#70A3C1" d="M737.563,422.923c0,26.34,0,52.681,0,79.021c0,5.88,9.118,5.88,9.118,0c0-26.34,0-52.681,0-79.021
					C746.682,417.043,737.563,417.043,737.563,422.923L737.563,422.923z"/>
			</g>
		</g>
		<ellipse fill="#70A3C1" cx="728.182" cy="504.875" rx="17.197" ry="2.932"/>
	</g>
</g>
</svg>
