<?xml version="1.0" encoding="utf-8"?>
<!-- Generator: Adobe Illustrator 16.0.0, SVG Export Plug-In . SVG Version: 6.00 Build 0)  -->
<!DOCTYPE svg PUBLIC "-//W3C//DTD SVG 1.1//EN" "http://www.w3.org/Graphics/SVG/1.1/DTD/svg11.dtd">
<svg version="1.1" id="Layer_1" xmlns="http://www.w3.org/2000/svg" xmlns:xlink="http://www.w3.org/1999/xlink" x="0px" y="0px"
	 width="841.89px" height="595.28px" viewBox="0 0 841.89 595.28" enable-background="new 0 0 841.89 595.28" xml:space="preserve">
<g>
	<defs>
		<rect id="SVGID_23_" y="34" width="406" height="539"/>
	</defs>
	<clipPath id="SVGID_2_">
		<use xlink:href="#SVGID_23_"  overflow="visible"/>
	</clipPath>
	<g clip-path="url(#SVGID_2_)">
		<path fill="#70A3C1" d="M194.846,419.097c111.77-41.399,27.93-113.598,27.93-113.598c57.641-38.77,36.107-160.432,36.107-160.432
			c6.58-1.488,12.943-6.204,15.551-9.255c4.377-5.12,7.02-11.767,7.02-19.03c0-16.187-13.123-29.308-29.309-29.308
			s-29.309,13.122-29.309,29.308c0,3.9,0.82,7.609,2.205,11.012c-113.137-25.4-208.276,0-208.276,0
			c1.383-3.403,2.352-7.028,2.352-10.929c0-16.187-13.121-29.308-29.309-29.308c-16.186,0-29.31,13.122-29.31,29.308
			c0,7.264,2.646,13.91,7.021,19.031c4.031,4.717,9.535,8.14,15.798,9.556c0,0-22.183,121.663,35.458,160.434
			c0,0-83.396,82.029,31.883,112.314C50.657,418.201,162.949,430.912,194.846,419.097z"/>
		<path fill="none" stroke="#5D6733" stroke-width="0.6513" stroke-miterlimit="10" d="M281.453,478.125"/>
		<circle fill="#FFFFFF" cx="61.957" cy="223.218" r="26.705"/>
		<circle fill="#FFFFFF" cx="173.778" cy="223.218" r="26.704"/>
		<circle cx="53.405" cy="236.316" r="11.447"/>
		<circle cx="166.226" cy="235.316" r="11.446"/>
		<circle fill="#FFFFFF" cx="59.967" cy="230.894" r="1.628"/>
		<circle fill="#FFFFFF" cx="171.367" cy="228.917" r="1.629"/>
		<g>
			<g>
				<path fill="#558AA5" d="M153.777,193.749c8.018-14.871,35.752-16.101,45.213-1.864c1.388,2.088,4.773,0.133,3.375-1.973
					c-11.022-16.586-42.424-15.829-51.963,1.864C149.207,193.994,152.581,195.967,153.777,193.749L153.777,193.749z"/>
			</g>
		</g>
		<g>
			<g>
				<path fill="#558AA5" d="M38.893,191.924c8.02-14.869,35.754-16.102,45.215-1.864c1.388,2.088,4.773,0.133,3.375-1.973
					c-11.023-16.588-42.422-15.827-51.963,1.864C34.322,192.169,37.697,194.142,38.893,191.924L38.893,191.924z"/>
			</g>
		</g>
		<g>
			<g>
				<path fill="#558AA5" d="M100.352,362.762c1.563-1.961,7.689-6.982,0.469-1.466c2.464-1.882,5.247-3.323,8.045-4.631
					c-8.084,3.776,1.295-0.159,3.605-0.783c1.549-0.419,3.126-0.731,4.699-1.045c2.842-0.475,2.154-0.416-2.063,0.178
					c1.131-0.138,2.264-0.251,3.399-0.34c3.505-0.313,7.032-0.291,10.546-0.15c1.701,0.068,3.396,0.247,5.088,0.428
					c-8.318-0.887-0.881,0.044,0.975,0.462c1.491,0.336,2.955,0.779,4.415,1.225c0.932,0.297,1.854,0.619,2.769,0.965
					c-4.074-1.791-4.881-2.122-2.421-0.995c1.2,0.557,2.345,1.223,3.483,1.892c5.71,3.352-3.529-3.194-0.459-0.488
					c10.748,9.472,26.59,10.612,37.202,0c9.657-9.657,10.763-27.715,0-37.201c-16.376-14.433-38.347-19.874-59.868-18.866
					c-19.863,0.93-44.086,7.296-57.085,23.615c-4.549,5.71-7.704,11.001-7.704,18.601c0,6.949,2.793,13.69,7.704,18.601
					C72.43,372.042,91.404,373.996,100.352,362.762L100.352,362.762z"/>
			</g>
		</g>
		<path fill="#FFFFFF" d="M84.309,311.384c0,0,8.105,11.074,14.166,8.033c2.756-1.381,3.664-5.428,5.699-15.198
			c0,0-12.158,2.606-19.865,6.296l-0.488,0.164L84.309,311.384z"/>
		<g>
			<g>
				<path fill="#70A3C1" d="M238.1,271.597c17.078-1.354,43.667,1.748,50.068,20.619c3.035,8.944,0.211,18.911,0.434,28.112
					c0.215,8.913,2.023,17.813,6.055,25.796c3.302,6.539,9.273,13.255,16.48,15.567c5.613,1.801,8-7.004,2.423-8.793
					c-1.275-0.409,0.899,0.465-0.499-0.222c-1.24-0.609-2.801-1.656-3.387-2.129c-4.411-3.562-7.322-8.532-9.176-13.828
					c-3.426-9.789-3.21-20.502-2.154-30.676c0.821-7.907-0.334-15.834-4.281-22.802c-10.287-18.156-36.949-22.269-55.963-20.763
					C232.278,262.939,232.232,272.061,238.1,271.597L238.1,271.597z"/>
			</g>
		</g>
		<circle fill="#70A3C1" cx="324.655" cy="360.936" r="12.243"/>
		<g>
			<g>
				<path fill="#70A3C1" d="M1.037,256.411c-18.41,3.38-36.547,14.618-48.926,28.338c-12.247,13.574-18.853,30.624-21.146,48.6
					c-1.878,14.729-0.718,30.347-0.756,45.181c-0.007,2.298-0.013,4.596-0.019,6.894c-0.016,5.881,9.104,5.879,9.119,0
					c0.078-29.828-3.619-61.876,14.146-87.78c11.184-16.308,30.395-28.492,49.797-32.399c0.069-0.014,0.139-0.027,0.207-0.04
					C9.239,264.143,6.784,255.356,1.037,256.411L1.037,256.411z"/>
			</g>
		</g>
		<circle fill="#70A3C1" cx="50.233" cy="416.843" r="12.375"/>
		<circle fill="#70A3C1" cx="176.384" cy="422.923" r="12.376"/>
		<g>
			<g>
				<path fill="#70A3C1" d="M56.01,409.699c-11.036,11.566-16.521,28.666-16.292,44.379c0.181,12.421,5.728,27.478,18.304,32.263
					c5.506,2.095,7.863-6.723,2.424-8.793c1.637,0.623-0.323-0.216-0.965-0.598c-1.623-0.967-2.959-2.264-4.252-3.685
					c-5.438-5.969-6.504-14.79-6.393-22.493C49.01,438.711,54.01,425,62.457,416.147C66.514,411.896,60.076,405.438,56.01,409.699
					L56.01,409.699z"/>
			</g>
		</g>
		<g>
			<g>
				<path fill="#70A3C1" d="M174.986,424.135c1.808,11.814,3.604,23.631,5.285,35.464c1.961,13.815-0.943,27.989-5.285,41.134
					c-1.85,5.6,6.957,7.98,8.793,2.424c4.55-13.773,7.619-28.933,5.645-43.406c-1.733-12.7-3.707-25.37-5.645-38.039
					C182.893,415.914,174.106,418.385,174.986,424.135L174.986,424.135z"/>
			</g>
		</g>
		<ellipse fill="#70A3C1" cx="45.292" cy="484.875" rx="17.197" ry="2.932"/>
		<ellipse fill="#70A3C1" cx="192.41" cy="504.224" rx="17.197" ry="2.932"/>
	</g>
</g>
</svg>
