<?xml version="1.0" encoding="utf-8"?>
<!-- Generator: Adobe Illustrator 16.0.0, SVG Export Plug-In . SVG Version: 6.00 Build 0)  -->
<!DOCTYPE svg PUBLIC "-//W3C//DTD SVG 1.1//EN" "http://www.w3.org/Graphics/SVG/1.1/DTD/svg11.dtd">
<svg version="1.1" id="Layer_1" xmlns="http://www.w3.org/2000/svg" xmlns:xlink="http://www.w3.org/1999/xlink" x="0px" y="0px"
	 width="841.89px" height="595.28px" viewBox="0 0 841.89 595.28" enable-background="new 0 0 841.89 595.28" xml:space="preserve">
<g>
	<defs>
		<rect id="SVGID_33_" y="34" width="406" height="539"/>
	</defs>
	<clipPath id="SVGID_2_">
		<use xlink:href="#SVGID_33_"  overflow="visible"/>
	</clipPath>
	<g clip-path="url(#SVGID_2_)">
		<path fill="#70A3C1" d="M264.846,419.098c111.77-41.4,27.93-113.598,27.93-113.598c57.641-38.771,36.107-160.432,36.107-160.432
			c6.58-1.488,12.943-6.204,15.551-9.255c4.377-5.12,7.02-11.767,7.02-19.03c0-16.187-13.123-29.308-29.309-29.308
			s-29.309,13.122-29.309,29.308c0,3.9,0.82,7.609,2.205,11.012c-113.137-25.4-208.276,0-208.276,0
			c1.383-3.403,2.352-7.028,2.352-10.929c0-16.187-13.121-29.308-29.309-29.308c-16.186,0-29.309,13.122-29.309,29.308
			c0,7.264,2.645,13.91,7.02,19.031c4.031,4.717,9.535,8.14,15.799,9.556c0,0-22.184,121.663,35.457,160.434
			c0,0-83.396,82.029,31.883,112.314C120.657,418.201,232.949,430.912,264.846,419.098z"/>
		<path fill="none" stroke="#5D6733" stroke-width="0.6513" stroke-miterlimit="10" d="M351.453,478.125"/>
		<circle fill="#FFFFFF" cx="131.958" cy="223.218" r="26.705"/>
		<circle fill="#FFFFFF" cx="243.778" cy="223.218" r="26.704"/>
		<circle cx="118.405" cy="215.316" r="11.447"/>
		<circle cx="230.226" cy="214.316" r="11.446"/>
		<circle fill="#FFFFFF" cx="124.967" cy="209.894" r="1.628"/>
		<circle fill="#FFFFFF" cx="235.367" cy="207.917" r="1.629"/>
		<g>
			<g>
				<path fill="#558AA5" d="M223.777,193.749c8.018-14.871,35.753-16.101,45.213-1.864c1.388,2.088,4.774,0.133,3.375-1.973
					c-11.022-16.586-42.424-15.829-51.963,1.864C219.207,193.994,222.581,195.967,223.777,193.749L223.777,193.749z"/>
			</g>
		</g>
		<g>
			<g>
				<path fill="#558AA5" d="M108.894,191.924c8.02-14.869,35.752-16.102,45.214-1.864c1.388,2.088,4.774,0.133,3.375-1.973
					c-11.023-16.587-42.423-15.827-51.964,1.864C104.323,192.169,107.696,194.142,108.894,191.924L108.894,191.924z"/>
			</g>
		</g>
		<g>
			<g>
				<path fill="#558AA5" d="M170.353,362.763c1.563-1.961,7.688-6.982,0.468-1.467c2.464-1.882,5.247-3.323,8.046-4.63
					c-8.084,3.775,1.295-0.159,3.604-0.784c1.551-0.419,3.127-0.731,4.7-1.045c2.842-0.475,2.154-0.415-2.063,0.179
					c1.131-0.138,2.264-0.252,3.399-0.341c3.506-0.313,7.032-0.29,10.545-0.149c1.702,0.067,3.396,0.247,5.088,0.427
					c-8.316-0.886-0.881,0.044,0.977,0.462c1.49,0.336,2.953,0.779,4.414,1.226c0.932,0.297,1.854,0.618,2.769,0.965
					c-4.073-1.791-4.88-2.122-2.421-0.995c1.2,0.558,2.344,1.223,3.484,1.892c5.709,3.351-3.53-3.194-0.459-0.488
					c10.748,9.472,26.589,10.612,37.201,0c9.656-9.656,10.764-27.716,0-37.201c-16.376-14.432-38.347-19.873-59.868-18.865
					c-19.863,0.931-44.087,7.296-57.085,23.615c-4.549,5.71-7.705,11.001-7.705,18.601c0,6.949,2.794,13.689,7.705,18.601
					C142.431,372.042,161.404,373.996,170.353,362.763L170.353,362.763z"/>
			</g>
		</g>
		<path fill="#FFFFFF" d="M154.309,311.385c0,0,8.105,11.074,14.166,8.033c2.756-1.381,3.664-5.428,5.699-15.199
			c0,0-12.158,2.607-19.865,6.297l-0.488,0.164L154.309,311.385z"/>
		<g>
			<g>
				<path fill="#70A3C1" d="M308.1,271.597c17.078-1.354,43.667,1.748,50.069,20.62c3.033,8.944,0.21,18.911,0.433,28.112
					c0.216,8.912,2.022,17.813,6.055,25.796c3.302,6.539,9.273,13.256,16.479,15.567c5.615,1.802,8-7.004,2.424-8.793
					c-1.275-0.409,0.899,0.465-0.5-0.223c-1.238-0.608-2.8-1.656-3.386-2.129c-4.411-3.563-7.321-8.533-9.175-13.828
					c-3.427-9.789-3.211-20.502-2.154-30.676c0.82-7.906-0.335-15.835-4.283-22.803c-10.286-18.156-36.948-22.269-55.962-20.763
					C302.278,262.939,302.233,272.061,308.1,271.597L308.1,271.597z"/>
			</g>
		</g>
		<circle fill="#70A3C1" cx="394.655" cy="360.936" r="12.243"/>
		<path fill="#70A3C1" d="M-8.491,392.225c0-6.762,5.48-12.242,12.242-12.242s12.242,5.48,12.242,12.242s-5.48,12.242-12.242,12.242
			S-8.491,398.986-8.491,392.225"/>
		<g>
			<g>
				<path fill="#70A3C1" d="M71.037,256.411c-18.409,3.38-36.547,14.618-48.926,28.338C9.864,298.323,3.259,315.373,0.966,333.35
					c-1.879,14.729-0.717,30.347-0.756,45.181c-0.006,2.298-0.012,4.596-0.019,6.894c-0.015,5.881,9.104,5.88,9.119,0
					c0.078-29.827-3.618-61.877,14.146-87.78c11.185-16.309,30.395-28.493,49.799-32.4c0.068-0.014,0.137-0.027,0.206-0.04
					C79.239,264.143,76.784,255.356,71.037,256.411L71.037,256.411z"/>
			</g>
		</g>
		<circle fill="#70A3C1" cx="120.233" cy="416.844" r="12.375"/>
		<circle fill="#70A3C1" cx="246.384" cy="422.924" r="12.376"/>
		<g>
			<g>
				<path fill="#70A3C1" d="M121.696,416.387c-11.226,14.143-16.26,33.347-16.446,51.109c-0.139,13.167,3.68,33.566,17.458,39.854
					c5.824,2.657,10.914-5.965,5.051-8.641c-2.202-1.004-3.566-2.286-5.467-4.816c-5.634-7.505-6.939-17.28-7.036-26.396
					c-0.118-11.158,2.444-22.446,7.036-32.6c1.352-2.988,2.931-5.876,4.657-8.662c0.563-0.907,1.16-1.794,1.774-2.667
					c0.33-0.469,1.382-1.788,0.047-0.106C132.737,418.464,125.706,411.333,121.696,416.387L121.696,416.387z"/>
			</g>
		</g>
		<g>
			<g>
				<path fill="#70A3C1" d="M244.986,424.136c1.808,11.813,3.604,23.631,5.285,35.463c1.962,13.815-0.943,27.989-5.285,41.135
					c-1.85,5.6,6.958,7.979,8.793,2.424c4.55-13.773,7.619-28.934,5.645-43.407c-1.733-12.699-3.706-25.369-5.645-38.038
					C252.893,415.914,244.106,418.386,244.986,424.136L244.986,424.136z"/>
			</g>
		</g>
		<path fill="#70A3C1" d="M94.095,506.557c0,1.95,7.699,3.53,17.197,3.53s17.197-1.58,17.197-3.53c0-1.946-7.699-3.527-17.197-3.527
			S94.095,504.61,94.095,506.557z"/>
		<ellipse fill="#70A3C1" cx="262.41" cy="504.225" rx="17.197" ry="2.932"/>
	</g>
</g>
</svg>
