<?xml version="1.0" encoding="utf-8"?>
<!-- Generator: Adobe Illustrator 16.0.0, SVG Export Plug-In . SVG Version: 6.00 Build 0)  -->
<!DOCTYPE svg PUBLIC "-//W3C//DTD SVG 1.1//EN" "http://www.w3.org/Graphics/SVG/1.1/DTD/svg11.dtd">
<svg version="1.1" id="Layer_1" xmlns="http://www.w3.org/2000/svg" xmlns:xlink="http://www.w3.org/1999/xlink" x="0px" y="0px"
	 width="841.89px" height="595.28px" viewBox="0 0 841.89 595.28" enable-background="new 0 0 841.89 595.28" xml:space="preserve">
<path fill="#70A3C1" d="M264.846,419.098c111.77-41.4,27.93-113.598,27.93-113.598c57.641-38.771,36.107-160.432,36.107-160.432
	c6.58-1.488,12.943-6.204,15.551-9.255c4.377-5.12,7.02-11.767,7.02-19.03c0-16.187-13.123-29.308-29.309-29.308
	s-29.309,13.122-29.309,29.308c0,3.9,0.82,7.609,2.205,11.012c-113.137-25.4-208.276,0-208.276,0
	c1.383-3.403,2.352-7.028,2.352-10.929c0-16.187-13.121-29.308-29.309-29.308c-16.186,0-29.31,13.122-29.31,29.308
	c0,7.264,2.646,13.91,7.021,19.031c4.031,4.717,9.535,8.14,15.798,9.556c0,0-22.183,121.663,35.458,160.434
	c0,0-83.396,82.029,31.883,112.314C120.657,418.201,232.949,430.912,264.846,419.098z"/>
<path fill="none" stroke="#5D6733" stroke-width="0.6513" stroke-miterlimit="10" d="M351.453,478.125"/>
<circle fill="#FFFFFF" cx="131.957" cy="223.218" r="26.705"/>
<circle fill="#FFFFFF" cx="243.778" cy="223.218" r="26.704"/>
<circle cx="118.405" cy="215.316" r="11.447"/>
<circle cx="230.226" cy="214.316" r="11.446"/>
<circle fill="#FFFFFF" cx="124.967" cy="209.894" r="1.628"/>
<circle fill="#FFFFFF" cx="235.367" cy="207.917" r="1.629"/>
<g>
	<g>
		<path fill="#558AA5" d="M223.777,193.749c8.018-14.871,35.752-16.101,45.213-1.864c1.388,2.088,4.773,0.133,3.375-1.973
			c-11.022-16.586-42.424-15.829-51.963,1.864C219.207,193.994,222.581,195.967,223.777,193.749L223.777,193.749z"/>
	</g>
</g>
<g>
	<g>
		<path fill="#558AA5" d="M108.893,191.924c8.02-14.869,35.754-16.102,45.215-1.864c1.388,2.088,4.773,0.133,3.375-1.973
			c-11.023-16.587-42.422-15.827-51.963,1.864C104.322,192.169,107.697,194.142,108.893,191.924L108.893,191.924z"/>
	</g>
</g>
<g>
	<g>
		<path fill="#558AA5" d="M170.352,362.763c1.563-1.961,7.689-6.982,0.469-1.467c2.464-1.882,5.247-3.323,8.045-4.63
			c-8.084,3.775,1.295-0.159,3.605-0.784c1.549-0.419,3.126-0.731,4.699-1.045c2.842-0.475,2.154-0.415-2.063,0.179
			c1.131-0.138,2.264-0.252,3.399-0.341c3.505-0.313,7.032-0.29,10.546-0.149c1.701,0.067,3.396,0.247,5.088,0.427
			c-8.318-0.886-0.881,0.044,0.975,0.462c1.491,0.336,2.955,0.779,4.415,1.226c0.932,0.297,1.854,0.618,2.769,0.965
			c-4.074-1.791-4.881-2.122-2.421-0.995c1.2,0.558,2.345,1.223,3.483,1.892c5.71,3.351-3.529-3.194-0.459-0.488
			c10.748,9.472,26.59,10.612,37.202,0c9.656-9.656,10.763-27.716,0-37.201c-16.376-14.432-38.347-19.873-59.868-18.865
			c-19.863,0.931-44.086,7.296-57.085,23.615c-4.549,5.71-7.704,11.001-7.704,18.601c0,6.949,2.793,13.689,7.704,18.601
			C142.43,372.042,161.404,373.996,170.352,362.763L170.352,362.763z"/>
	</g>
</g>
<path fill="#FFFFFF" d="M154.309,311.385c0,0,8.105,11.074,14.166,8.033c2.756-1.381,3.664-5.428,5.699-15.199
	c0,0-12.158,2.607-19.865,6.297l-0.488,0.164L154.309,311.385z"/>
<g>
	<g>
		<path fill="#70A3C1" d="M308.1,271.597c17.078-1.354,43.667,1.748,50.068,20.62c3.035,8.944,0.211,18.911,0.434,28.112
			c0.215,8.912,2.023,17.813,6.055,25.796c3.302,6.539,9.273,13.256,16.48,15.567c5.613,1.802,8-7.004,2.423-8.793
			c-1.275-0.409,0.899,0.465-0.499-0.223c-1.24-0.608-2.801-1.656-3.387-2.129c-4.411-3.563-7.322-8.533-9.176-13.828
			c-3.426-9.789-3.21-20.502-2.154-30.676c0.821-7.906-0.334-15.835-4.281-22.803c-10.287-18.156-36.949-22.269-55.963-20.763
			C302.278,262.939,302.232,272.061,308.1,271.597L308.1,271.597z"/>
	</g>
</g>
<circle fill="#70A3C1" cx="394.655" cy="360.936" r="12.243"/>
<g>
	<g>
		<path fill="#70A3C1" d="M71.037,256.411c-18.41,3.38-36.547,14.618-48.926,28.338C9.864,298.323,3.259,315.373,0.966,333.35
			c-1.878,14.729-0.718,30.347-0.756,45.181c-0.007,2.298-0.013,4.596-0.019,6.894c-0.016,5.881,9.104,5.88,9.119,0
			c0.078-29.827-3.619-61.877,14.146-87.78c11.184-16.309,30.395-28.493,49.797-32.4c0.069-0.014,0.139-0.027,0.207-0.04
			C79.239,264.143,76.784,255.356,71.037,256.411L71.037,256.411z"/>
	</g>
</g>
<circle fill="#70A3C1" cx="120.233" cy="416.844" r="12.375"/>
<circle fill="#70A3C1" cx="246.384" cy="422.924" r="12.376"/>
<g>
	<g>
		<path fill="#70A3C1" d="M121.695,416.387c-11.225,14.143-16.26,33.347-16.445,51.109c-0.139,13.167,3.68,33.566,17.459,39.854
			c5.824,2.657,10.913-5.965,5.049-8.641c-2.201-1.004-3.566-2.286-5.465-4.816c-5.635-7.505-6.941-17.28-7.037-26.396
			c-0.118-11.158,2.445-22.446,7.037-32.6c1.351-2.988,2.93-5.876,4.656-8.662c0.563-0.907,1.16-1.794,1.774-2.667
			c0.33-0.469,1.382-1.788,0.048-0.106C132.737,418.464,125.707,411.333,121.695,416.387L121.695,416.387z"/>
	</g>
</g>
<g>
	<g>
		<path fill="#70A3C1" d="M247.082,426.86c4.166,1.779,8.137,4.081,11.84,6.682c6.49,4.559,8.204,9.258,5.844,16.745
			c-3.32,10.528-11.152,20.431-18.607,28.435c-4.001,4.296,2.434,10.759,6.449,6.447c9.24-9.922,18.575-22.241,21.828-35.594
			c3.758-15.422-10.182-25.221-22.752-30.588C246.34,416.705,241.688,424.558,247.082,426.86L247.082,426.86z"/>
	</g>
</g>
<path fill="#70A3C1" d="M94.095,506.557c0,1.95,7.699,3.53,17.197,3.53s17.197-1.58,17.197-3.53c0-1.946-7.699-3.527-17.197-3.527
	S94.095,504.61,94.095,506.557z"/>
<ellipse fill="#70A3C1" cx="262.41" cy="484.225" rx="17.197" ry="2.932"/>
<g>
	<defs>
		<rect id="SVGID_35_" y="34" width="406" height="539"/>
	</defs>
	<clipPath id="SVGID_2_">
		<use xlink:href="#SVGID_35_"  overflow="visible"/>
	</clipPath>
	<path clip-path="url(#SVGID_2_)" fill="#70A3C1" d="M-8.491,392.225c0-6.762,5.48-12.242,12.241-12.242
		c6.763,0,12.243,5.48,12.243,12.242s-5.48,12.242-12.243,12.242C-3.011,404.467-8.491,398.986-8.491,392.225"/>
</g>
</svg>
