<?xml version="1.0" encoding="utf-8"?>
<!-- Generator: Adobe Illustrator 16.0.0, SVG Export Plug-In . SVG Version: 6.00 Build 0)  -->
<!DOCTYPE svg PUBLIC "-//W3C//DTD SVG 1.1//EN" "http://www.w3.org/Graphics/SVG/1.1/DTD/svg11.dtd">
<svg version="1.1" id="Layer_1" xmlns="http://www.w3.org/2000/svg" xmlns:xlink="http://www.w3.org/1999/xlink" x="0px" y="0px"
	 width="841.89px" height="595.28px" viewBox="0 0 841.89 595.28" enable-background="new 0 0 841.89 595.28" xml:space="preserve">
<path fill="#70A3C1" d="M315.337,419.098c111.77-41.4,27.93-113.598,27.93-113.598c57.641-38.771,36.107-160.433,36.107-160.433
	c6.58-1.487,12.943-6.203,15.551-9.255c4.377-5.12,7.02-11.767,7.02-19.03c0-16.187-13.123-29.309-29.309-29.309
	s-29.309,13.122-29.309,29.309c0,3.9,0.82,7.609,2.205,11.012c-113.137-25.4-208.276,0-208.276,0
	c1.383-3.402,2.352-7.027,2.352-10.928c0-16.188-13.121-29.309-29.309-29.309c-16.186,0-29.309,13.121-29.309,29.309
	c0,7.264,2.645,13.91,7.02,19.03c4.031,4.718,9.535,8.14,15.799,9.556c0,0-22.184,121.663,35.457,160.435
	c0,0-83.396,82.029,31.883,112.314C171.148,418.201,283.44,430.912,315.337,419.098z"/>
<path fill="none" stroke="#5D6733" stroke-width="0.6513" stroke-miterlimit="10" d="M401.944,478.125"/>
<circle fill="#FFFFFF" cx="182.449" cy="223.218" r="26.705"/>
<circle fill="#FFFFFF" cx="294.27" cy="223.218" r="26.704"/>
<circle cx="168.896" cy="215.315" r="11.447"/>
<circle cx="280.717" cy="214.315" r="11.446"/>
<circle fill="#FFFFFF" cx="175.458" cy="209.894" r="1.628"/>
<circle fill="#FFFFFF" cx="285.858" cy="207.917" r="1.629"/>
<g>
	<g>
		<path fill="#558AA5" d="M274.268,193.749c8.018-14.872,35.752-16.102,45.214-1.864c1.387,2.088,4.773,0.133,3.374-1.973
			c-11.022-16.587-42.423-15.829-51.962,1.864C269.698,193.994,273.072,195.968,274.268,193.749L274.268,193.749z"/>
	</g>
</g>
<g>
	<g>
		<path fill="#558AA5" d="M159.384,191.924c8.02-14.869,35.752-16.102,45.215-1.864c1.387,2.088,4.773,0.133,3.374-1.973
			c-11.023-16.587-42.422-15.826-51.963,1.864C154.814,192.169,158.188,194.143,159.384,191.924L159.384,191.924z"/>
	</g>
</g>
<g>
	<g>
		<path fill="#558AA5" d="M220.844,362.763c1.562-1.961,7.689-6.982,0.468-1.467c2.464-1.882,5.247-3.323,8.045-4.63
			c-8.083,3.775,1.295-0.159,3.604-0.784c1.55-0.419,3.126-0.731,4.7-1.045c2.842-0.475,2.154-0.416-2.063,0.178
			c1.131-0.137,2.264-0.25,3.399-0.34c3.505-0.313,7.032-0.29,10.545-0.15c1.701,0.068,3.396,0.248,5.088,0.428
			c-8.317-0.887-0.881,0.044,0.976,0.463c1.491,0.336,2.954,0.779,4.415,1.225c0.932,0.297,1.854,0.618,2.768,0.965
			c-4.073-1.791-4.88-2.123-2.42-0.995c1.2,0.558,2.344,1.223,3.484,1.892c5.709,3.352-3.53-3.195-0.458-0.488
			c10.748,9.472,26.589,10.612,37.201,0c9.656-9.656,10.763-27.716,0-37.201c-16.376-14.432-38.346-19.873-59.868-18.865
			c-19.863,0.931-44.086,7.297-57.085,23.615c-4.549,5.71-7.705,11.001-7.705,18.601c0,6.948,2.793,13.689,7.705,18.601
			C192.921,372.042,211.896,373.997,220.844,362.763L220.844,362.763z"/>
	</g>
</g>
<path fill="#FFFFFF" d="M204.8,311.385c0,0,8.105,11.074,14.166,8.033c2.756-1.381,3.664-5.428,5.699-15.199
	c0,0-12.158,2.607-19.865,6.297l-0.488,0.164L204.8,311.385z"/>
<g>
	<g>
		<path fill="#70A3C1" d="M358.591,271.597c17.078-1.354,43.667,1.747,50.069,20.619c3.034,8.944,0.211,18.91,0.434,28.112
			c0.215,8.912,2.022,17.813,6.054,25.796c3.302,6.539,9.273,13.256,16.48,15.567c5.615,1.802,8-7.004,2.424-8.793
			c-1.275-0.409,0.9,0.465-0.5-0.223c-1.239-0.608-2.8-1.655-3.387-2.13c-4.411-3.562-7.321-8.531-9.174-13.827
			c-3.426-9.788-3.21-20.502-2.155-30.676c0.821-7.906-0.335-15.835-4.282-22.803c-10.286-18.156-36.949-22.269-55.962-20.763
			C352.77,262.938,352.725,272.062,358.591,271.597L358.591,271.597z"/>
	</g>
</g>
<circle fill="#70A3C1" cx="445.146" cy="360.936" r="12.243"/>
<path fill="#70A3C1" d="M42,392.225c0-6.762,5.48-12.242,12.242-12.242s12.242,5.48,12.242,12.242s-5.48,12.242-12.242,12.242
	S42,398.986,42,392.225"/>
<g>
	<g>
		<path fill="#70A3C1" d="M121.528,256.411c-18.41,3.381-36.547,14.618-48.926,28.338c-12.247,13.574-18.853,30.623-21.146,48.6
			c-1.878,14.729-0.717,30.348-0.756,45.182c-0.006,2.298-0.012,4.596-0.018,6.894c-0.016,5.881,9.103,5.88,9.118,0
			c0.079-29.827-3.618-61.877,14.146-87.78c11.184-16.309,30.395-28.492,49.798-32.399c0.069-0.014,0.138-0.027,0.207-0.04
			C129.73,264.144,127.275,255.356,121.528,256.411L121.528,256.411z"/>
	</g>
</g>
<circle fill="#70A3C1" cx="170.725" cy="416.844" r="12.375"/>
<circle fill="#70A3C1" cx="296.875" cy="422.924" r="12.376"/>
<g>
	<g>
		<path fill="#70A3C1" d="M172.187,416.386c-11.225,14.144-16.259,33.348-16.446,51.11c-0.138,13.167,3.68,33.566,17.458,39.853
			c5.824,2.658,10.914-5.964,5.05-8.639c-2.202-1.005-3.566-2.287-5.466-4.817c-5.634-7.505-6.94-17.28-7.037-26.396
			c-0.118-11.158,2.445-22.446,7.037-32.601c1.351-2.988,2.93-5.875,4.657-8.661c0.562-0.907,1.159-1.794,1.774-2.667
			c0.33-0.469,1.382-1.787,0.047-0.105C183.229,418.464,176.198,411.333,172.187,416.386L172.187,416.386z"/>
	</g>
</g>
<g>
	<g>
		<path fill="#70A3C1" d="M297.573,426.86c4.167,1.779,8.138,4.081,11.84,6.682c6.49,4.559,8.204,9.258,5.843,16.745
			c-3.32,10.528-11.152,20.431-18.606,28.435c-4.001,4.296,2.433,10.759,6.448,6.447c9.241-9.922,18.576-22.241,21.829-35.594
			c3.758-15.422-10.182-25.221-22.752-30.588C296.831,416.705,292.18,424.558,297.573,426.86L297.573,426.86z"/>
	</g>
</g>
<path fill="#70A3C1" d="M144.586,506.557c0,1.95,7.699,3.53,17.197,3.53s17.197-1.58,17.197-3.53c0-1.946-7.699-3.527-17.197-3.527
	S144.586,504.61,144.586,506.557z"/>
<ellipse fill="#70A3C1" cx="312.901" cy="484.225" rx="17.197" ry="2.932"/>
</svg>
