<?xml version="1.0" encoding="utf-8"?>
<!-- Generator: Adobe Illustrator 16.0.0, SVG Export Plug-In . SVG Version: 6.00 Build 0)  -->
<!DOCTYPE svg PUBLIC "-//W3C//DTD SVG 1.1//EN" "http://www.w3.org/Graphics/SVG/1.1/DTD/svg11.dtd">
<svg version="1.1" id="Layer_1" xmlns="http://www.w3.org/2000/svg" xmlns:xlink="http://www.w3.org/1999/xlink" x="0px" y="0px"
	 width="841.89px" height="595.28px" viewBox="0 0 841.89 595.28" enable-background="new 0 0 841.89 595.28" xml:space="preserve">
<path fill="#70A3C1" d="M354.846,419.098c111.77-41.4,27.93-113.598,27.93-113.598c57.641-38.771,36.107-160.433,36.107-160.433
	c6.58-1.487,12.943-6.203,15.551-9.255c4.377-5.12,7.02-11.767,7.02-19.03c0-16.187-13.123-29.309-29.309-29.309
	s-29.309,13.122-29.309,29.309c0,3.9,0.82,7.609,2.205,11.012c-113.137-25.4-208.276,0-208.276,0
	c1.383-3.402,2.352-7.027,2.352-10.928c0-16.188-13.121-29.309-29.309-29.309c-16.186,0-29.31,13.121-29.31,29.309
	c0,7.264,2.646,13.91,7.021,19.03c4.031,4.718,9.535,8.14,15.798,9.556c0,0-22.183,121.663,35.458,160.435
	c0,0-83.396,82.029,31.883,112.314C210.657,418.201,322.949,430.912,354.846,419.098z"/>
<path fill="none" stroke="#5D6733" stroke-width="0.6513" stroke-miterlimit="10" d="M441.453,478.125"/>
<circle fill="#FFFFFF" cx="221.957" cy="223.218" r="26.705"/>
<circle fill="#FFFFFF" cx="333.778" cy="223.218" r="26.704"/>
<circle cx="230.405" cy="210.315" r="11.447"/>
<circle cx="344.226" cy="212.315" r="11.446"/>
<circle fill="#FFFFFF" cx="236.967" cy="204.894" r="1.628"/>
<circle fill="#FFFFFF" cx="349.367" cy="205.917" r="1.629"/>
<g>
	<g>
		<path fill="#558AA5" d="M313.777,193.749c8.018-14.872,35.752-16.102,45.213-1.864c1.388,2.088,4.773,0.133,3.375-1.973
			c-11.023-16.587-42.424-15.829-51.963,1.864C309.207,193.994,312.581,195.968,313.777,193.749L313.777,193.749z"/>
	</g>
</g>
<g>
	<g>
		<path fill="#558AA5" d="M198.893,191.924c8.02-14.869,35.753-16.102,45.215-1.864c1.388,2.088,4.773,0.133,3.375-1.973
			c-11.023-16.587-42.422-15.826-51.963,1.864C194.322,192.169,197.697,194.143,198.893,191.924L198.893,191.924z"/>
	</g>
</g>
<g>
	<g>
		<path fill="#558AA5" d="M260.352,362.763c1.563-1.961,7.689-6.982,0.469-1.467c2.464-1.882,5.247-3.323,8.045-4.63
			c-8.084,3.775,1.295-0.159,3.605-0.784c1.549-0.419,3.126-0.731,4.699-1.045c2.842-0.475,2.154-0.416-2.063,0.178
			c1.131-0.137,2.264-0.25,3.399-0.34c3.505-0.313,7.032-0.29,10.546-0.15c1.701,0.068,3.396,0.248,5.088,0.428
			c-8.318-0.887-0.881,0.044,0.975,0.463c1.491,0.336,2.955,0.779,4.415,1.225c0.932,0.297,1.854,0.618,2.769,0.965
			c-4.074-1.791-4.881-2.123-2.421-0.995c1.2,0.558,2.345,1.223,3.483,1.892c5.71,3.352-3.529-3.195-0.459-0.488
			c10.748,9.472,26.59,10.612,37.202,0c9.656-9.656,10.763-27.716,0-37.201c-16.376-14.432-38.347-19.873-59.868-18.865
			c-19.863,0.931-44.086,7.297-57.085,23.615c-4.549,5.71-7.704,11.001-7.704,18.601c0,6.948,2.793,13.689,7.704,18.601
			C232.43,372.042,251.404,373.997,260.352,362.763L260.352,362.763z"/>
	</g>
</g>
<path fill="#FFFFFF" d="M244.309,311.385c0,0,8.105,11.074,14.166,8.033c2.756-1.381,3.664-5.428,5.699-15.199
	c0,0-12.158,2.607-19.865,6.297l-0.488,0.164L244.309,311.385z"/>
<g>
	<g>
		<path fill="#70A3C1" d="M398.1,271.597c17.078-1.354,43.667,1.747,50.068,20.619c3.035,8.944,0.211,18.91,0.434,28.112
			c0.215,8.912,2.023,17.813,6.055,25.796c3.302,6.539,9.273,13.256,16.48,15.567c5.613,1.802,8-7.004,2.423-8.793
			c-1.275-0.409,0.899,0.465-0.499-0.223c-1.24-0.608-2.801-1.655-3.387-2.13c-4.411-3.562-7.322-8.531-9.176-13.827
			c-3.426-9.788-3.21-20.502-2.154-30.676c0.821-7.906-0.334-15.835-4.281-22.803c-10.287-18.156-36.949-22.269-55.963-20.763
			C392.278,262.938,392.232,272.062,398.1,271.597L398.1,271.597z"/>
	</g>
</g>
<path fill="#70A3C1" d="M496.898,360.936c0,6.762-5.48,12.244-12.242,12.244s-12.244-5.482-12.244-12.244
	c0-6.76,5.482-12.242,12.244-12.242S496.898,354.176,496.898,360.936"/>
<path fill="#70A3C1" d="M81.509,392.225c0-6.762,5.48-12.242,12.241-12.242c6.763,0,12.243,5.48,12.243,12.242
	s-5.48,12.242-12.243,12.242C86.989,404.467,81.509,398.986,81.509,392.225"/>
<g>
	<g>
		<path fill="#70A3C1" d="M161.037,256.411c-18.41,3.381-36.547,14.618-48.926,28.338c-12.247,13.574-18.853,30.623-21.146,48.6
			c-1.878,14.729-0.718,30.348-0.756,45.182c-0.007,2.298-0.013,4.596-0.019,6.894c-0.016,5.881,9.104,5.88,9.119,0
			c0.078-29.827-3.619-61.877,14.146-87.78c11.184-16.309,30.395-28.492,49.797-32.399c0.069-0.014,0.139-0.027,0.207-0.04
			C169.239,264.144,166.784,255.356,161.037,256.411L161.037,256.411z"/>
	</g>
</g>
<circle fill="#70A3C1" cx="210.233" cy="416.844" r="12.375"/>
<circle fill="#70A3C1" cx="336.384" cy="422.924" r="12.376"/>
<g>
	<g>
		<path fill="#70A3C1" d="M216.563,415.1c-5.308-1.143-11.128-0.881-16.283,0.78c-10.86,3.501-15.644,13.505-16.532,24.234
			c-1.609,19.436,11.04,39.572,28.961,47.234c5.863,2.508,10.967-6.109,5.049-8.639c-13.163-5.63-22.882-18.637-24.004-32.897
			c-0.643-8.185,1.133-17.688,9.861-20.501c2.455-0.791,4.757-0.93,7.339-0.857c0.522,0.014,3.564,0.348,1.915,0.113
			c0.347,0.049,0.693,0.107,1.033,0.181C220.195,426.103,222.869,416.458,216.563,415.1L216.563,415.1z"/>
	</g>
</g>
<g>
	<g>
		<path fill="#70A3C1" d="M334.986,424.136c3.932,26.219,7.57,52.383,9.838,78.81c0.498,5.813,9.621,5.861,9.117,0
			c-2.336-27.237-6.109-54.21-10.162-81.233C342.91,415.913,334.124,418.386,334.986,424.136L334.986,424.136z"/>
	</g>
</g>
<path fill="#70A3C1" d="M184.095,486.557c0,1.95,7.699,3.53,17.197,3.53s17.197-1.58,17.197-3.53c0-1.946-7.699-3.527-17.197-3.527
	S184.095,484.61,184.095,486.557z"/>
<ellipse fill="#70A3C1" cx="362.41" cy="505.225" rx="17.197" ry="2.932"/>
</svg>
