<?xml version="1.0" encoding="utf-8"?>
<!-- Generator: Adobe Illustrator 16.0.0, SVG Export Plug-In . SVG Version: 6.00 Build 0)  -->
<!DOCTYPE svg PUBLIC "-//W3C//DTD SVG 1.1//EN" "http://www.w3.org/Graphics/SVG/1.1/DTD/svg11.dtd">
<svg version="1.1" id="Layer_1" xmlns="http://www.w3.org/2000/svg" xmlns:xlink="http://www.w3.org/1999/xlink" x="0px" y="0px"
	 width="841.89px" height="595.28px" viewBox="0 0 841.89 595.28" enable-background="new 0 0 841.89 595.28" xml:space="preserve">
<path fill="#70A3C1" d="M384.846,419.098c111.77-41.4,27.93-113.598,27.93-113.598c57.641-38.771,36.107-160.433,36.107-160.433
	c6.58-1.487,12.943-6.203,15.551-9.255c4.377-5.12,7.02-11.767,7.02-19.03c0-16.187-13.123-29.309-29.309-29.309
	s-29.309,13.122-29.309,29.309c0,3.9,0.82,7.609,2.205,11.012c-113.137-25.4-208.276,0-208.276,0
	c1.383-3.402,2.352-7.027,2.352-10.928c0-16.188-13.121-29.309-29.309-29.309c-16.186,0-29.309,13.121-29.309,29.309
	c0,7.264,2.645,13.91,7.02,19.03c4.031,4.718,9.535,8.14,15.799,9.556c0,0-22.184,121.663,35.457,160.435
	c0,0-83.396,82.029,31.883,112.314C240.657,418.201,352.949,430.912,384.846,419.098z"/>
<path fill="none" stroke="#5D6733" stroke-width="0.6513" stroke-miterlimit="10" d="M471.453,478.125"/>
<circle fill="#FFFFFF" cx="251.958" cy="223.218" r="26.705"/>
<circle fill="#FFFFFF" cx="363.778" cy="223.218" r="26.704"/>
<circle cx="253.405" cy="239.315" r="11.447"/>
<circle cx="367.226" cy="241.315" r="11.446"/>
<circle fill="#FFFFFF" cx="259.967" cy="233.894" r="1.628"/>
<circle fill="#FFFFFF" cx="372.367" cy="234.917" r="1.629"/>
<g>
	<g>
		<path fill="#558AA5" d="M343.777,193.749c8.018-14.872,35.752-16.102,45.213-1.864c1.388,2.088,4.774,0.133,3.375-1.973
			c-11.022-16.587-42.424-15.829-51.963,1.864C339.207,193.994,342.581,195.968,343.777,193.749L343.777,193.749z"/>
	</g>
</g>
<g>
	<g>
		<path fill="#558AA5" d="M228.894,191.924c8.02-14.869,35.752-16.102,45.214-1.864c1.388,2.088,4.774,0.133,3.375-1.973
			c-11.024-16.587-42.423-15.826-51.964,1.864C224.323,192.169,227.696,194.143,228.894,191.924L228.894,191.924z"/>
	</g>
</g>
<g>
	<g>
		<path fill="#558AA5" d="M290.353,362.763c1.563-1.961,7.688-6.982,0.468-1.467c2.464-1.882,5.247-3.323,8.046-4.63
			c-8.084,3.775,1.295-0.159,3.604-0.783c1.551-0.42,3.127-0.732,4.7-1.046c2.842-0.475,2.154-0.415-2.063,0.179
			c1.131-0.138,2.264-0.252,3.399-0.341c3.506-0.313,7.032-0.29,10.545-0.149c1.702,0.067,3.396,0.247,5.088,0.428
			c-8.316-0.887-0.881,0.043,0.977,0.461c1.49,0.336,2.953,0.779,4.414,1.226c0.932,0.297,1.854,0.618,2.769,0.965
			c-4.073-1.791-4.88-2.122-2.421-0.995c1.2,0.558,2.344,1.223,3.484,1.892c5.709,3.351-3.53-3.194-0.459-0.488
			c10.748,9.472,26.589,10.612,37.201,0c9.656-9.656,10.764-27.716,0-37.201c-16.376-14.432-38.347-19.873-59.868-18.865
			c-19.863,0.931-44.087,7.296-57.085,23.615c-4.549,5.71-7.705,11.001-7.705,18.601c0,6.949,2.794,13.689,7.705,18.601
			C262.431,372.042,281.404,373.996,290.353,362.763L290.353,362.763z"/>
	</g>
</g>
<path fill="#FFFFFF" d="M274.309,311.385c0,0,8.105,11.074,14.166,8.033c2.756-1.381,3.664-5.428,5.699-15.199
	c0,0-12.158,2.607-19.865,6.297l-0.488,0.164L274.309,311.385z"/>
<g>
	<g>
		<path fill="#70A3C1" d="M428.1,271.597c17.078-1.354,43.667,1.747,50.069,20.619c3.033,8.944,0.21,18.911,0.433,28.112
			c0.216,8.912,2.022,17.813,6.055,25.796c3.302,6.539,9.273,13.255,16.479,15.567c5.615,1.802,8-7.004,2.424-8.793
			c-1.275-0.409,0.899,0.465-0.5-0.223c-1.238-0.608-2.8-1.656-3.386-2.129c-4.411-3.563-7.321-8.533-9.175-13.828
			c-3.427-9.789-3.211-20.502-2.154-30.676c0.82-7.906-0.335-15.835-4.283-22.803c-10.285-18.156-36.948-22.27-55.962-20.763
			C422.278,262.939,422.233,272.062,428.1,271.597L428.1,271.597z"/>
	</g>
</g>
<path fill="#70A3C1" d="M526.898,360.936c0,6.762-5.48,12.244-12.242,12.244s-12.244-5.482-12.244-12.244
	c0-6.76,5.482-12.242,12.244-12.242S526.898,354.176,526.898,360.936"/>
<path fill="#70A3C1" d="M111.509,392.225c0-6.762,5.48-12.242,12.242-12.242s12.242,5.48,12.242,12.242s-5.48,12.242-12.242,12.242
	S111.509,398.986,111.509,392.225"/>
<g>
	<g>
		<path fill="#70A3C1" d="M191.037,256.411c-18.409,3.38-36.547,14.618-48.926,28.338c-12.247,13.573-18.853,30.624-21.146,48.601
			c-1.879,14.729-0.717,30.347-0.756,45.181c-0.006,2.298-0.012,4.596-0.019,6.894c-0.015,5.881,9.104,5.879,9.119,0
			c0.078-29.828-3.618-61.877,14.146-87.78c11.185-16.309,30.395-28.492,49.799-32.399c0.068-0.014,0.137-0.027,0.206-0.04
			C199.239,264.143,196.784,255.355,191.037,256.411L191.037,256.411z"/>
	</g>
</g>
<circle fill="#70A3C1" cx="240.233" cy="416.844" r="12.375"/>
<circle fill="#70A3C1" cx="366.384" cy="422.924" r="12.376"/>
<g>
	<g>
		<path fill="#70A3C1" d="M240.409,421.254c5.002,14.265,6.017,30.266,6.088,45.223c0.076,15.888,0.65,32.265,3.912,47.883
			c1.318,6.314,10.963,3.636,9.648-2.66c-6.389-30.596,0.474-63.234-10-93.105C247.938,412.547,238.269,415.148,240.409,421.254
			L240.409,421.254z"/>
	</g>
</g>
<g>
	<g>
		<path fill="#70A3C1" d="M367.081,426.86c4.83,3.524,9.505,7.675,13.729,12.021c2.688,2.766,5.6,5.961,6.864,9.678
			c1.157,3.401,0.226,7.968-0.318,11.407c-2.251,14.242-7.108,28.371-12.37,41.768c-2.152,5.479,6.669,7.833,8.793,2.424
			c5.927-15.09,11.265-31.042,13.111-47.198c1.118-9.785-2.331-16.562-8.849-23.695c-4.858-5.317-10.544-10.034-16.357-14.276
			C366.925,415.515,362.383,423.432,367.081,426.86L367.081,426.86z"/>
	</g>
</g>
<path fill="#70A3C1" d="M224.095,516.557c0,1.95,7.699,3.53,17.197,3.53s17.197-1.58,17.197-3.53c0-1.946-7.699-3.527-17.197-3.527
	S224.095,514.61,224.095,516.557z"/>
<ellipse fill="#70A3C1" cx="392.41" cy="505.225" rx="17.197" ry="2.932"/>
</svg>
