<?xml version="1.0" encoding="utf-8"?>
<!-- Generator: Adobe Illustrator 16.0.0, SVG Export Plug-In . SVG Version: 6.00 Build 0)  -->
<!DOCTYPE svg PUBLIC "-//W3C//DTD SVG 1.1//EN" "http://www.w3.org/Graphics/SVG/1.1/DTD/svg11.dtd">
<svg version="1.1" id="Layer_1" xmlns="http://www.w3.org/2000/svg" xmlns:xlink="http://www.w3.org/1999/xlink" x="0px" y="0px"
	 width="841.89px" height="595.28px" viewBox="0 0 841.89 595.28" enable-background="new 0 0 841.89 595.28" xml:space="preserve">
<path fill="#70A3C1" d="M414.846,419.098c111.77-41.4,27.93-113.598,27.93-113.598c57.641-38.77,36.107-160.432,36.107-160.432
	c6.58-1.488,12.943-6.203,15.551-9.256c4.377-5.119,7.02-11.766,7.02-19.029c0-16.188-13.123-29.309-29.309-29.309
	s-29.309,13.121-29.309,29.309c0,3.9,0.82,7.609,2.205,11.012c-113.137-25.4-208.276,0-208.276,0
	c1.383-3.402,2.352-7.027,2.352-10.928c0-16.188-13.121-29.309-29.309-29.309c-16.186,0-29.309,13.121-29.309,29.309
	c0,7.264,2.645,13.91,7.02,19.029c4.031,4.719,9.535,8.141,15.799,9.557c0,0-22.184,121.662,35.457,160.434
	c0,0-83.396,82.029,31.883,112.314C270.657,418.201,382.949,430.912,414.846,419.098z"/>
<path fill="none" stroke="#5D6733" stroke-width="0.6513" stroke-miterlimit="10" d="M501.453,478.125"/>
<circle fill="#FFFFFF" cx="281.958" cy="223.219" r="26.705"/>
<circle fill="#FFFFFF" cx="393.778" cy="223.219" r="26.704"/>
<circle cx="267.405" cy="229.316" r="11.447"/>
<circle cx="381.226" cy="231.316" r="11.446"/>
<circle fill="#FFFFFF" cx="273.967" cy="223.895" r="1.628"/>
<circle fill="#FFFFFF" cx="386.367" cy="224.918" r="1.629"/>
<g>
	<g>
		<path fill="#558AA5" d="M373.776,193.75c8.018-14.873,35.753-16.104,45.215-1.865c1.387,2.088,4.773,0.133,3.373-1.973
			c-11.021-16.586-42.423-15.828-51.961,1.865C369.207,193.994,372.581,195.969,373.776,193.75L373.776,193.75z"/>
	</g>
</g>
<g>
	<g>
		<path fill="#558AA5" d="M258.894,191.924c8.02-14.869,35.752-16.102,45.215-1.863c1.387,2.088,4.773,0.133,3.373-1.973
			c-11.023-16.588-42.422-15.826-51.963,1.863C254.323,192.17,257.696,194.143,258.894,191.924L258.894,191.924z"/>
	</g>
</g>
<g>
	<g>
		<path fill="#558AA5" d="M320.353,362.764c1.563-1.961,7.689-6.982,0.468-1.467c2.464-1.883,5.247-3.324,8.046-4.631
			c-8.084,3.775,1.295-0.158,3.604-0.783c1.551-0.42,3.127-0.732,4.7-1.045c2.842-0.477,2.154-0.416-2.063,0.178
			c1.131-0.139,2.264-0.252,3.399-0.34c3.506-0.314,7.032-0.291,10.545-0.15c1.701,0.068,3.396,0.246,5.088,0.428
			c-8.316-0.887-0.881,0.043,0.977,0.461c1.49,0.336,2.953,0.779,4.414,1.225c0.932,0.297,1.854,0.619,2.769,0.967
			c-4.073-1.791-4.88-2.123-2.421-0.996c1.2,0.557,2.344,1.223,3.484,1.893c5.709,3.35-3.53-3.195-0.459-0.488
			c10.748,9.471,26.589,10.611,37.201,0c9.656-9.656,10.764-27.717,0-37.201c-16.377-14.434-38.346-19.873-59.868-18.865
			c-19.862,0.93-44.087,7.295-57.085,23.615c-4.549,5.709-7.705,11-7.705,18.6c0,6.949,2.794,13.689,7.705,18.602
			C292.431,372.043,311.405,373.996,320.353,362.764L320.353,362.764z"/>
	</g>
</g>
<path fill="#FFFFFF" d="M304.309,311.385c0,0,8.105,11.074,14.166,8.033c2.756-1.381,3.664-5.428,5.699-15.199
	c0,0-12.158,2.607-19.865,6.297l-0.488,0.164L304.309,311.385z"/>
<g>
	<g>
		<path fill="#70A3C1" d="M458.1,271.596c17.078-1.352,43.667,1.748,50.069,20.621c3.033,8.943,0.211,18.91,0.434,28.111
			c0.215,8.912,2.021,17.813,6.053,25.797c3.303,6.539,9.273,13.254,16.48,15.566c5.615,1.801,8-7.004,2.424-8.793
			c-1.275-0.408,0.899,0.465-0.5-0.223c-1.238-0.607-2.799-1.656-3.387-2.129c-4.41-3.563-7.32-8.533-9.174-13.828
			c-3.426-9.789-3.211-20.502-2.154-30.676c0.82-7.906-0.336-15.834-4.283-22.803c-10.285-18.156-36.948-22.27-55.962-20.762
			C452.278,262.939,452.233,272.061,458.1,271.596L458.1,271.596z"/>
	</g>
</g>
<path fill="#70A3C1" d="M556.898,360.936c0,6.762-5.48,12.244-12.242,12.244s-12.244-5.482-12.244-12.244
	c0-6.76,5.482-12.242,12.244-12.242S556.898,354.176,556.898,360.936"/>
<path fill="#70A3C1" d="M141.509,392.225c0-6.762,5.48-12.242,12.242-12.242s12.242,5.48,12.242,12.242s-5.48,12.242-12.242,12.242
	S141.509,398.986,141.509,392.225"/>
<g>
	<g>
		<path fill="#70A3C1" d="M221.037,256.412c-18.409,3.379-36.547,14.617-48.926,28.338c-12.247,13.572-18.853,30.623-21.146,48.6
			c-1.879,14.729-0.717,30.346-0.756,45.18c-0.006,2.299-0.012,4.598-0.018,6.895c-0.016,5.881,9.103,5.879,9.117,0
			c0.079-29.828-3.617-61.877,14.146-87.779c11.185-16.309,30.395-28.492,49.799-32.4c0.068-0.014,0.137-0.027,0.206-0.039
			C229.239,264.143,226.784,255.355,221.037,256.412L221.037,256.412z"/>
	</g>
</g>
<circle fill="#70A3C1" cx="270.233" cy="416.844" r="12.375"/>
<circle fill="#70A3C1" cx="396.384" cy="422.924" r="12.376"/>
<g>
	<g>
		<path fill="#70A3C1" d="M270.409,421.254c5.002,14.266,6.016,30.266,6.088,45.223c0.076,15.889,0.65,32.266,3.912,47.883
			c1.318,6.314,10.963,3.635,9.648-2.66c-6.389-30.596,0.474-63.234-10-93.105C277.938,412.547,268.269,415.148,270.409,421.254
			L270.409,421.254z"/>
	</g>
</g>
<g>
	<g>
		<path fill="#70A3C1" d="M400.595,427.32c4.316-0.83,9.508-1.184,14.028-0.131c6.496,1.514,2.822,12.695,1.896,17.242
			c-2.59,12.701-6.797,25.244-11.532,37.303c-2.152,5.479,6.669,7.832,8.793,2.424c5.815-14.807,10.938-30.363,12.994-46.172
			c1.106-8.51,0.093-16.211-8.89-19.35c-6.037-2.111-13.545-1.295-19.713-0.109C392.399,419.637,394.851,428.426,400.595,427.32
			L400.595,427.32z"/>
	</g>
</g>
<path fill="#70A3C1" d="M254.095,516.557c0,1.951,7.699,3.531,17.197,3.531s17.197-1.58,17.197-3.531
	c0-1.945-7.699-3.527-17.197-3.527S254.095,514.611,254.095,516.557z"/>
<ellipse fill="#70A3C1" cx="422.41" cy="485.225" rx="17.197" ry="2.932"/>
</svg>
