<?xml version="1.0" encoding="utf-8"?>
<!-- Generator: Adobe Illustrator 16.0.0, SVG Export Plug-In . SVG Version: 6.00 Build 0)  -->
<!DOCTYPE svg PUBLIC "-//W3C//DTD SVG 1.1//EN" "http://www.w3.org/Graphics/SVG/1.1/DTD/svg11.dtd">
<svg version="1.1" id="Layer_1" xmlns="http://www.w3.org/2000/svg" xmlns:xlink="http://www.w3.org/1999/xlink" x="0px" y="0px"
	 width="841.89px" height="595.28px" viewBox="0 0 841.89 595.28" enable-background="new 0 0 841.89 595.28" xml:space="preserve">
<path fill="#70A3C1" d="M414.846,419.099c111.77-41.4,27.93-113.598,27.93-113.598c57.641-38.771,36.107-160.434,36.107-160.434
	c6.58-1.486,12.943-6.203,15.551-9.254c4.377-5.121,7.02-11.768,7.02-19.031c0-16.186-13.123-29.309-29.309-29.309
	s-29.309,13.123-29.309,29.309c0,3.9,0.82,7.609,2.205,11.012c-113.137-25.4-208.275,0-208.275,0
	c1.383-3.402,2.352-7.027,2.352-10.928c0-16.188-13.121-29.309-29.309-29.309c-16.186,0-29.309,13.121-29.309,29.309
	c0,7.264,2.645,13.91,7.02,19.031c4.031,4.717,9.535,8.139,15.799,9.555c0,0-22.184,121.664,35.457,160.436
	c0,0-83.396,82.029,31.883,112.314C270.658,418.202,382.949,430.913,414.846,419.099z"/>
<path fill="none" stroke="#5D6733" stroke-width="0.6513" stroke-miterlimit="10" d="M501.453,478.126"/>
<circle fill="#FFFFFF" cx="281.958" cy="223.218" r="26.704"/>
<circle fill="#FFFFFF" cx="393.778" cy="223.218" r="26.704"/>
<circle cx="267.405" cy="229.315" r="11.446"/>
<circle cx="381.226" cy="231.315" r="11.446"/>
<circle fill="#FFFFFF" cx="273.968" cy="223.894" r="1.628"/>
<circle fill="#FFFFFF" cx="386.367" cy="224.917" r="1.629"/>
<g>
	<g>
		<path fill="#558AA5" d="M373.777,193.749c8.018-14.871,35.752-16.102,45.213-1.863c1.389,2.088,4.773,0.133,3.375-1.973
			c-11.023-16.588-42.424-15.83-51.963,1.863C369.207,193.995,372.582,195.968,373.777,193.749L373.777,193.749z"/>
	</g>
</g>
<g>
	<g>
		<path fill="#558AA5" d="M258.893,191.925c8.02-14.869,35.754-16.102,45.215-1.865c1.389,2.088,4.773,0.135,3.375-1.973
			c-11.023-16.586-42.422-15.826-51.963,1.865C254.322,192.169,257.697,194.144,258.893,191.925L258.893,191.925z"/>
	</g>
</g>
<g>
	<g>
		<path fill="#558AA5" d="M320.354,362.763c1.563-1.961,7.688-6.982,0.467-1.465c2.465-1.883,5.248-3.324,8.045-4.631
			c-8.082,3.775,1.295-0.16,3.605-0.783c1.549-0.42,3.127-0.732,4.699-1.047c2.842-0.475,2.154-0.414-2.063,0.18
			c1.131-0.139,2.264-0.252,3.4-0.342c3.504-0.313,7.031-0.289,10.545-0.148c1.701,0.066,3.396,0.246,5.088,0.428
			c-8.318-0.887-0.881,0.043,0.975,0.461c1.492,0.336,2.955,0.779,4.416,1.225c0.932,0.297,1.854,0.619,2.768,0.965
			c-4.074-1.791-4.881-2.121-2.42-0.994c1.199,0.557,2.344,1.223,3.482,1.891c5.711,3.352-3.529-3.193-0.457-0.488
			c10.746,9.473,26.588,10.613,37.201,0c9.656-9.656,10.762-27.715,0-37.201c-16.377-14.432-38.348-19.873-59.869-18.865
			c-19.863,0.932-44.086,7.297-57.084,23.615c-4.549,5.711-7.705,11.002-7.705,18.602c0,6.949,2.793,13.689,7.705,18.6
			C292.43,372.042,311.404,373.997,320.354,362.763L320.354,362.763z"/>
	</g>
</g>
<path fill="#FFFFFF" d="M304.309,311.386c0,0,8.105,11.074,14.166,8.033c2.756-1.381,3.664-5.428,5.699-15.199
	c0,0-12.158,2.607-19.865,6.297l-0.488,0.164L304.309,311.386z"/>
<g>
	<g>
		<path fill="#70A3C1" d="M458.1,271.597c17.078-1.354,43.668,1.748,50.068,20.621c3.035,8.943,0.211,18.91,0.434,28.111
			c0.217,8.912,2.023,17.813,6.055,25.795c3.303,6.539,9.273,13.256,16.48,15.568c5.615,1.801,8-7.004,2.424-8.793
			c-1.275-0.41,0.898,0.465-0.5-0.223c-1.24-0.609-2.801-1.656-3.387-2.129c-4.41-3.563-7.32-8.533-9.174-13.828
			c-3.428-9.789-3.211-20.502-2.156-30.676c0.822-7.906-0.334-15.836-4.281-22.803c-10.287-18.156-36.949-22.27-55.963-20.762
			C452.279,262.94,452.234,272.062,458.1,271.597L458.1,271.597z"/>
	</g>
</g>
<path fill="#70A3C1" d="M556.898,360.937c0,6.762-5.48,12.244-12.242,12.244s-12.244-5.482-12.244-12.244
	c0-6.76,5.482-12.242,12.244-12.242S556.898,354.177,556.898,360.937"/>
<path fill="#70A3C1" d="M141.51,392.226c0-6.762,5.48-12.242,12.242-12.242s12.242,5.48,12.242,12.242s-5.48,12.242-12.242,12.242
	S141.51,398.987,141.51,392.226"/>
<g>
	<g>
		<path fill="#70A3C1" d="M221.037,256.411c-18.41,3.381-36.547,14.619-48.926,28.338c-12.246,13.574-18.852,30.625-21.145,48.602
			c-1.879,14.729-0.719,30.346-0.756,45.18c-0.008,2.299-0.014,4.596-0.02,6.895c-0.016,5.881,9.104,5.879,9.119,0
			c0.078-29.828-3.619-61.877,14.146-87.781c11.184-16.309,30.395-28.492,49.797-32.398c0.07-0.014,0.139-0.027,0.207-0.041
			C229.24,264.144,226.785,255.356,221.037,256.411L221.037,256.411z"/>
	</g>
</g>
<circle fill="#70A3C1" cx="270.234" cy="416.845" r="12.375"/>
<circle fill="#70A3C1" cx="396.384" cy="422.925" r="12.376"/>
<g>
	<g>
		<path fill="#70A3C1" d="M270.41,421.255c5,14.264,6.016,30.266,6.088,45.223c0.076,15.887,0.65,32.264,3.912,47.883
			c1.318,6.314,10.963,3.635,9.648-2.66c-6.391-30.596,0.473-63.234-10-93.105C277.938,412.548,268.27,415.149,270.41,421.255
			L270.41,421.255z"/>
	</g>
</g>
<g>
	<g>
		<path fill="#70A3C1" d="M400.596,427.321c4.316-0.83,9.508-1.186,14.027-0.131c6.496,1.512,2.822,12.695,1.895,17.242
			c-2.588,12.699-6.795,25.244-11.531,37.301c-2.152,5.48,6.67,7.834,8.793,2.424c5.816-14.805,10.939-30.361,12.994-46.172
			c1.105-8.508,0.092-16.209-8.889-19.348c-6.037-2.111-13.547-1.295-19.713-0.109C392.4,419.638,394.85,428.425,400.596,427.321
			L400.596,427.321z"/>
	</g>
</g>
<ellipse fill="#70A3C1" cx="271.293" cy="516.558" rx="17.197" ry="3.529"/>
<ellipse fill="#70A3C1" cx="422.41" cy="485.226" rx="17.197" ry="2.932"/>
</svg>
