<?xml version="1.0" encoding="utf-8"?>
<!-- Generator: Adobe Illustrator 16.0.0, SVG Export Plug-In . SVG Version: 6.00 Build 0)  -->
<!DOCTYPE svg PUBLIC "-//W3C//DTD SVG 1.1//EN" "http://www.w3.org/Graphics/SVG/1.1/DTD/svg11.dtd">
<svg version="1.1" id="Layer_1" xmlns="http://www.w3.org/2000/svg" xmlns:xlink="http://www.w3.org/1999/xlink" x="0px" y="0px"
	 width="841.89px" height="595.28px" viewBox="0 0 841.89 595.28" enable-background="new 0 0 841.89 595.28" xml:space="preserve">
<path fill="#70A3C1" d="M444.846,419.099c111.77-41.4,27.93-113.598,27.93-113.598c57.641-38.77,36.107-160.432,36.107-160.432
	c6.58-1.488,12.943-6.203,15.551-9.256c4.377-5.119,7.02-11.766,7.02-19.029c0-16.188-13.123-29.309-29.309-29.309
	s-29.309,13.121-29.309,29.309c0,3.9,0.82,7.609,2.205,11.012c-113.137-25.4-208.275,0-208.275,0
	c1.383-3.402,2.352-7.027,2.352-10.928c0-16.188-13.121-29.309-29.309-29.309c-16.186,0-29.309,13.121-29.309,29.309
	c0,7.264,2.645,13.91,7.02,19.029c4.031,4.719,9.535,8.141,15.799,9.557c0,0-22.184,121.662,35.457,160.434
	c0,0-83.396,82.029,31.883,112.314C300.658,418.202,412.949,430.913,444.846,419.099z"/>
<path fill="none" stroke="#5D6733" stroke-width="0.6513" stroke-miterlimit="10" d="M531.453,478.126"/>
<circle fill="#FFFFFF" cx="311.958" cy="223.22" r="26.704"/>
<circle fill="#FFFFFF" cx="423.778" cy="223.22" r="26.704"/>
<circle cx="298.405" cy="213.317" r="11.446"/>
<circle cx="412.226" cy="215.317" r="11.446"/>
<circle fill="#FFFFFF" cx="304.968" cy="207.896" r="1.628"/>
<circle fill="#FFFFFF" cx="417.367" cy="208.919" r="1.629"/>
<g>
	<g>
		<path fill="#558AA5" d="M403.777,193.751c8.018-14.873,35.752-16.104,45.213-1.865c1.389,2.088,4.775,0.133,3.375-1.973
			c-11.021-16.586-42.424-15.828-51.963,1.865C399.207,193.995,402.582,195.97,403.777,193.751L403.777,193.751z"/>
	</g>
</g>
<g>
	<g>
		<path fill="#558AA5" d="M288.895,191.925c8.02-14.869,35.752-16.102,45.213-1.863c1.389,2.088,4.775,0.133,3.375-1.973
			c-11.023-16.588-42.422-15.826-51.963,1.863C284.322,192.171,287.697,194.144,288.895,191.925L288.895,191.925z"/>
	</g>
</g>
<g>
	<g>
		<path fill="#558AA5" d="M350.354,362.765c1.563-1.961,7.688-6.982,0.467-1.467c2.465-1.883,5.248-3.324,8.045-4.631
			c-8.082,3.775,1.297-0.158,3.605-0.783c1.549-0.42,3.127-0.732,4.699-1.045c2.842-0.477,2.154-0.416-2.063,0.178
			c1.131-0.139,2.264-0.252,3.4-0.34c3.506-0.314,7.031-0.291,10.545-0.15c1.701,0.068,3.396,0.246,5.088,0.428
			c-8.318-0.887-0.881,0.043,0.975,0.461c1.492,0.336,2.955,0.779,4.416,1.225c0.932,0.297,1.854,0.619,2.768,0.967
			c-4.072-1.791-4.881-2.123-2.42-0.996c1.199,0.557,2.344,1.223,3.482,1.893c5.711,3.35-3.529-3.195-0.457-0.488
			c10.746,9.471,26.588,10.611,37.201,0c9.656-9.656,10.764-27.717,0-37.201c-16.377-14.434-38.348-19.873-59.869-18.865
			c-19.863,0.93-44.086,7.295-57.084,23.615c-4.549,5.709-7.705,11-7.705,18.6c0,6.949,2.793,13.689,7.705,18.602
			C322.432,372.044,341.404,373.997,350.354,362.765L350.354,362.765z"/>
	</g>
</g>
<path fill="#FFFFFF" d="M334.309,311.386c0,0,8.105,11.074,14.166,8.033c2.756-1.381,3.664-5.428,5.699-15.199
	c0,0-12.158,2.607-19.865,6.297l-0.488,0.164L334.309,311.386z"/>
<g>
	<g>
		<path fill="#70A3C1" d="M488.1,271.597c17.078-1.352,43.668,1.748,50.07,20.621c3.033,8.943,0.209,18.91,0.432,28.111
			c0.217,8.912,2.023,17.813,6.055,25.797c3.303,6.539,9.273,13.254,16.48,15.566c5.615,1.801,8-7.004,2.424-8.793
			c-1.275-0.408,0.898,0.465-0.5-0.223c-1.238-0.607-2.801-1.656-3.387-2.129c-4.41-3.563-7.32-8.533-9.174-13.828
			c-3.428-9.789-3.211-20.502-2.154-30.676c0.82-7.906-0.336-15.834-4.283-22.803c-10.287-18.156-36.949-22.27-55.963-20.762
			C482.279,262.94,482.234,272.062,488.1,271.597L488.1,271.597z"/>
	</g>
</g>
<path fill="#70A3C1" d="M586.898,360.937c0,6.762-5.48,12.244-12.242,12.244s-12.244-5.482-12.244-12.244
	c0-6.76,5.482-12.242,12.244-12.242S586.898,354.177,586.898,360.937"/>
<path fill="#70A3C1" d="M171.51,392.226c0-6.762,5.48-12.242,12.242-12.242s12.242,5.48,12.242,12.242s-5.48,12.242-12.242,12.242
	S171.51,398.987,171.51,392.226"/>
<g>
	<g>
		<path fill="#70A3C1" d="M251.037,256.413c-18.41,3.379-36.547,14.617-48.926,28.338c-12.246,13.572-18.852,30.623-21.145,48.6
			c-1.879,14.729-0.717,30.346-0.756,45.18c-0.006,2.299-0.014,4.598-0.02,6.895c-0.016,5.881,9.104,5.879,9.119,0
			c0.078-29.828-3.619-61.877,14.146-87.779c11.184-16.309,30.395-28.492,49.797-32.4c0.07-0.014,0.139-0.027,0.207-0.039
			C259.24,264.144,256.785,255.356,251.037,256.413L251.037,256.413z"/>
	</g>
</g>
<circle fill="#70A3C1" cx="300.234" cy="416.845" r="12.375"/>
<circle fill="#70A3C1" cx="426.384" cy="422.925" r="12.376"/>
<g>
	<g>
		<path fill="#70A3C1" d="M300.41,421.255c5.002,14.266,6.016,30.266,6.088,45.223c0.076,15.889,0.65,32.266,3.912,47.883
			c1.318,6.314,10.963,3.635,9.648-2.66c-6.391-30.596,0.473-63.234-10-93.105C307.938,412.548,298.27,415.149,300.41,421.255
			L300.41,421.255z"/>
	</g>
</g>
<g>
	<g>
		<path fill="#70A3C1" d="M426.16,426.149c4.197,4.996,8.162,10.197,11.932,15.521c4.746,6.701,10.227,13.813,9.912,22.346
			c-0.371,10.096-3.727,20.303-6.744,29.861c-1.898,6.012-3.969,11.988-6.273,17.857c-2.152,5.479,6.67,7.832,8.793,2.424
			c6.297-16.033,12.738-33.725,13.377-51.072c0.348-9.449-5.393-17.629-10.537-25.084c-4.355-6.313-9.078-12.428-14.012-18.303
			C428.82,415.192,422.404,421.679,426.16,426.149L426.16,426.149z"/>
	</g>
</g>
<path fill="#70A3C1" d="M284.096,516.558c0,1.951,7.699,3.531,17.197,3.531s17.197-1.58,17.197-3.531
	c0-1.945-7.699-3.527-17.197-3.527S284.096,514.612,284.096,516.558z"/>
<ellipse fill="#70A3C1" cx="452.41" cy="515.226" rx="17.197" ry="2.932"/>
</svg>
