<?xml version="1.0" encoding="utf-8"?>
<!-- Generator: Adobe Illustrator 16.0.0, SVG Export Plug-In . SVG Version: 6.00 Build 0)  -->
<!DOCTYPE svg PUBLIC "-//W3C//DTD SVG 1.1//EN" "http://www.w3.org/Graphics/SVG/1.1/DTD/svg11.dtd">
<svg version="1.1" id="Layer_1" xmlns="http://www.w3.org/2000/svg" xmlns:xlink="http://www.w3.org/1999/xlink" x="0px" y="0px"
	 width="841.89px" height="595.28px" viewBox="0 0 841.89 595.28" enable-background="new 0 0 841.89 595.28" xml:space="preserve">
<path fill="#70A3C1" d="M444.846,419.098c111.77-41.4,27.93-113.598,27.93-113.598c57.641-38.771,36.107-160.433,36.107-160.433
	c6.58-1.487,12.943-6.203,15.551-9.255c4.377-5.12,7.02-11.767,7.02-19.03c0-16.187-13.123-29.309-29.309-29.309
	s-29.309,13.122-29.309,29.309c0,3.9,0.82,7.609,2.205,11.012c-113.137-25.4-208.276,0-208.276,0
	c1.383-3.402,2.352-7.027,2.352-10.928c0-16.188-13.121-29.309-29.309-29.309c-16.186,0-29.31,13.121-29.31,29.309
	c0,7.264,2.646,13.91,7.021,19.03c4.031,4.718,9.534,8.14,15.798,9.556c0,0-22.183,121.663,35.458,160.435
	c0,0-83.396,82.029,31.883,112.314C300.657,418.201,412.949,430.912,444.846,419.098z"/>
<path fill="none" stroke="#5D6733" stroke-width="0.6513" stroke-miterlimit="10" d="M531.453,478.125"/>
<circle fill="#FFFFFF" cx="311.957" cy="223.218" r="26.705"/>
<circle fill="#FFFFFF" cx="423.778" cy="223.218" r="26.704"/>
<circle cx="298.405" cy="213.315" r="11.447"/>
<circle cx="412.226" cy="215.315" r="11.446"/>
<circle fill="#FFFFFF" cx="304.967" cy="207.894" r="1.628"/>
<circle fill="#FFFFFF" cx="417.367" cy="208.917" r="1.629"/>
<g>
	<g>
		<path fill="#558AA5" d="M403.777,193.749c8.018-14.872,35.752-16.103,45.213-1.864c1.388,2.088,4.774,0.133,3.375-1.973
			c-11.022-16.587-42.424-15.829-51.963,1.864C399.207,193.994,402.581,195.968,403.777,193.749L403.777,193.749z"/>
	</g>
</g>
<g>
	<g>
		<path fill="#558AA5" d="M288.894,191.924c8.02-14.869,35.752-16.102,45.214-1.864c1.388,2.088,4.774,0.134,3.375-1.973
			c-11.024-16.587-42.422-15.826-51.964,1.864C284.322,192.169,287.696,194.143,288.894,191.924L288.894,191.924z"/>
	</g>
</g>
<g>
	<g>
		<path fill="#558AA5" d="M350.352,362.763c1.563-1.961,7.689-6.982,0.469-1.466c2.464-1.883,5.247-3.324,8.045-4.631
			c-8.084,3.775,1.296-0.159,3.604-0.783c1.551-0.42,3.128-0.732,4.701-1.046c2.842-0.476,2.154-0.415-2.063,0.179
			c1.131-0.139,2.264-0.252,3.399-0.341c3.506-0.313,7.032-0.29,10.546-0.149c1.701,0.067,3.396,0.246,5.088,0.428
			c-8.318-0.887-0.882,0.043,0.975,0.461c1.491,0.336,2.953,0.779,4.415,1.225c0.932,0.297,1.854,0.619,2.769,0.966
			c-4.073-1.791-4.881-2.122-2.421-0.995c1.2,0.557,2.344,1.223,3.483,1.892c5.71,3.351-3.529-3.194-0.459-0.488
			c10.748,9.472,26.59,10.612,37.202,0c9.656-9.656,10.764-27.716,0-37.201c-16.376-14.433-38.347-19.873-59.868-18.865
			c-19.863,0.931-44.088,7.296-57.085,23.615c-4.549,5.71-7.705,11.001-7.705,18.601c0,6.949,2.794,13.689,7.705,18.601
			C322.431,372.042,341.404,373.996,350.352,362.763L350.352,362.763z"/>
	</g>
</g>
<path fill="#FFFFFF" d="M334.309,311.385c0,0,8.105,11.074,14.166,8.033c2.756-1.381,3.664-5.428,5.699-15.199
	c0,0-12.158,2.607-19.865,6.297l-0.488,0.164L334.309,311.385z"/>
<g>
	<g>
		<path fill="#70A3C1" d="M488.1,271.596c17.078-1.353,43.667,1.748,50.069,20.621c3.032,8.943,0.21,18.91,0.433,28.111
			c0.215,8.912,2.022,17.813,6.055,25.796c3.302,6.539,9.273,13.255,16.48,15.567c5.613,1.801,8-7.004,2.423-8.793
			c-1.275-0.409,0.899,0.465-0.499-0.223c-1.239-0.608-2.801-1.656-3.387-2.129c-4.411-3.563-7.322-8.533-9.176-13.828
			c-3.426-9.789-3.21-20.502-2.153-30.676c0.82-7.906-0.335-15.835-4.283-22.803c-10.286-18.156-36.948-22.27-55.962-20.762
			C482.278,262.939,482.232,272.061,488.1,271.596L488.1,271.596z"/>
	</g>
</g>
<path fill="#70A3C1" d="M586.898,360.936c0,6.762-5.48,12.244-12.242,12.244s-12.244-5.482-12.244-12.244
	c0-6.76,5.482-12.242,12.244-12.242S586.898,354.176,586.898,360.936"/>
<path fill="#70A3C1" d="M171.509,392.225c0-6.762,5.48-12.242,12.241-12.242c6.763,0,12.243,5.48,12.243,12.242
	s-5.48,12.242-12.243,12.242C176.989,404.467,171.509,398.986,171.509,392.225"/>
<g>
	<g>
		<path fill="#70A3C1" d="M251.037,256.411c-18.41,3.38-36.547,14.618-48.926,28.338c-12.247,13.573-18.853,30.624-21.146,48.601
			c-1.88,14.729-0.717,30.346-0.756,45.18c-0.006,2.299-0.013,4.597-0.019,6.895c-0.016,5.881,9.104,5.879,9.119,0
			c0.078-29.828-3.619-61.877,14.146-87.78c11.185-16.309,30.395-28.492,49.798-32.399c0.069-0.014,0.138-0.027,0.207-0.04
			C259.239,264.143,256.784,255.355,251.037,256.411L251.037,256.411z"/>
	</g>
</g>
<circle fill="#70A3C1" cx="300.233" cy="416.844" r="12.375"/>
<circle fill="#70A3C1" cx="426.384" cy="422.924" r="12.376"/>
<g>
	<g>
		<path fill="#70A3C1" d="M300.409,421.254c5.002,14.265,6.017,30.267,6.088,45.223c0.076,15.888,0.65,32.265,3.912,47.883
			c1.318,6.314,10.963,3.636,9.648-2.66c-6.39-30.595,0.474-63.235-10-93.105C307.938,412.547,298.268,415.148,300.409,421.254
			L300.409,421.254z"/>
	</g>
</g>
<g>
	<g>
		<path fill="#70A3C1" d="M426.159,426.148c4.197,4.996,8.162,10.196,11.933,15.521c4.746,6.7,10.225,13.812,9.912,22.347
			c-0.372,10.096-3.727,20.303-6.745,29.86c-1.898,6.011-3.968,11.987-6.272,17.856c-2.152,5.48,6.669,7.832,8.793,2.424
			c6.297-16.033,12.738-33.725,13.377-51.072c0.348-9.449-5.393-17.629-10.537-25.083c-4.356-6.313-9.078-12.428-14.013-18.303
			C428.819,415.191,422.402,421.678,426.159,426.148L426.159,426.148z"/>
	</g>
</g>
<path fill="#70A3C1" d="M284.095,516.557c0,1.95,7.699,3.53,17.197,3.53s17.197-1.58,17.197-3.53c0-1.946-7.699-3.527-17.197-3.527
	S284.095,514.61,284.095,516.557z"/>
<ellipse fill="#70A3C1" cx="452.41" cy="515.225" rx="17.197" ry="2.932"/>
</svg>
