<?xml version="1.0" encoding="utf-8"?>
<!-- Generator: Adobe Illustrator 16.0.0, SVG Export Plug-In . SVG Version: 6.00 Build 0)  -->
<!DOCTYPE svg PUBLIC "-//W3C//DTD SVG 1.1//EN" "http://www.w3.org/Graphics/SVG/1.1/DTD/svg11.dtd">
<svg version="1.1" id="Layer_1" xmlns="http://www.w3.org/2000/svg" xmlns:xlink="http://www.w3.org/1999/xlink" x="0px" y="0px"
	 width="841.89px" height="595.28px" viewBox="0 0 841.89 595.28" enable-background="new 0 0 841.89 595.28" xml:space="preserve">
<path fill="#70A3C1" d="M444.846,419.098c111.77-41.4,27.93-113.598,27.93-113.598c57.641-38.771,36.107-160.433,36.107-160.433
	c6.58-1.487,12.943-6.203,15.551-9.255c4.377-5.12,7.02-11.767,7.02-19.03c0-16.187-13.123-29.309-29.309-29.309
	s-29.309,13.122-29.309,29.309c0,3.9,0.82,7.609,2.205,11.012c-113.137-25.4-208.276,0-208.276,0
	c1.383-3.402,2.352-7.027,2.352-10.928c0-16.188-13.121-29.309-29.309-29.309c-16.186,0-29.309,13.121-29.309,29.309
	c0,7.264,2.645,13.91,7.02,19.03c4.031,4.718,9.535,8.14,15.799,9.556c0,0-22.184,121.663,35.457,160.435
	c0,0-83.396,82.029,31.883,112.314C300.657,418.201,412.949,430.912,444.846,419.098z"/>
<path fill="none" stroke="#5D6733" stroke-width="0.6513" stroke-miterlimit="10" d="M531.453,478.125"/>
<circle fill="#FFFFFF" cx="311.958" cy="223.218" r="26.705"/>
<circle fill="#FFFFFF" cx="423.778" cy="223.218" r="26.704"/>
<circle cx="328.405" cy="213.315" r="11.447"/>
<circle cx="442.226" cy="215.315" r="11.446"/>
<circle fill="#FFFFFF" cx="334.967" cy="207.894" r="1.628"/>
<circle fill="#FFFFFF" cx="447.367" cy="208.917" r="1.629"/>
<g>
	<g>
		<path fill="#558AA5" d="M403.777,193.749c8.018-14.872,35.752-16.102,45.214-1.864c1.387,2.088,4.773,0.133,3.374-1.973
			c-11.022-16.587-42.423-15.829-51.962,1.864C399.207,193.994,402.581,195.968,403.777,193.749L403.777,193.749z"/>
	</g>
</g>
<g>
	<g>
		<path fill="#558AA5" d="M288.893,191.924c8.02-14.869,35.752-16.102,45.215-1.864c1.387,2.088,4.773,0.133,3.374-1.973
			c-11.023-16.587-42.422-15.826-51.963,1.864C284.323,192.169,287.697,194.143,288.893,191.924L288.893,191.924z"/>
	</g>
</g>
<g>
	<g>
		<path fill="#558AA5" d="M350.353,362.763c1.562-1.961,7.689-6.982,0.468-1.467c2.464-1.882,5.247-3.323,8.045-4.63
			c-8.083,3.775,1.295-0.159,3.604-0.783c1.55-0.42,3.126-0.732,4.7-1.046c2.842-0.475,2.154-0.415-2.063,0.179
			c1.131-0.138,2.264-0.252,3.399-0.341c3.505-0.313,7.032-0.29,10.545-0.149c1.701,0.067,3.396,0.247,5.088,0.428
			c-8.317-0.887-0.881,0.043,0.976,0.461c1.491,0.336,2.954,0.779,4.415,1.226c0.932,0.297,1.854,0.618,2.768,0.965
			c-4.073-1.791-4.88-2.122-2.42-0.995c1.2,0.558,2.344,1.223,3.484,1.892c5.709,3.351-3.53-3.194-0.458-0.488
			c10.748,9.472,26.589,10.612,37.201,0c9.656-9.656,10.763-27.716,0-37.201c-16.376-14.432-38.346-19.873-59.868-18.865
			c-19.863,0.931-44.086,7.296-57.085,23.615c-4.548,5.71-7.705,11.001-7.705,18.601c0,6.949,2.793,13.689,7.705,18.601
			C322.43,372.042,341.405,373.996,350.353,362.763L350.353,362.763z"/>
	</g>
</g>
<path fill="#FFFFFF" d="M334.309,311.385c0,0,8.105,11.074,14.166,8.033c2.756-1.381,3.664-5.428,5.699-15.199
	c0,0-12.158,2.607-19.865,6.297l-0.488,0.164L334.309,311.385z"/>
<g>
	<g>
		<path fill="#70A3C1" d="M488.1,271.597c17.078-1.354,43.667,1.747,50.069,20.619c3.034,8.944,0.211,18.911,0.434,28.112
			c0.215,8.912,2.022,17.813,6.054,25.796c3.302,6.539,9.273,13.255,16.48,15.567c5.615,1.802,8-7.004,2.424-8.793
			c-1.275-0.409,0.9,0.465-0.5-0.223c-1.239-0.608-2.8-1.656-3.387-2.129c-4.411-3.563-7.321-8.533-9.174-13.828
			c-3.426-9.789-3.21-20.502-2.155-30.676c0.821-7.906-0.335-15.835-4.282-22.803c-10.286-18.156-36.949-22.27-55.962-20.763
			C482.278,262.939,482.233,272.062,488.1,271.597L488.1,271.597z"/>
	</g>
</g>
<path fill="#70A3C1" d="M586.898,360.936c0,6.762-5.48,12.244-12.242,12.244s-12.244-5.482-12.244-12.244
	c0-6.76,5.482-12.242,12.244-12.242S586.898,354.176,586.898,360.936"/>
<path fill="#70A3C1" d="M171.509,392.225c0-6.762,5.48-12.242,12.242-12.242s12.242,5.48,12.242,12.242s-5.48,12.242-12.242,12.242
	S171.509,398.986,171.509,392.225"/>
<g>
	<g>
		<path fill="#70A3C1" d="M251.037,256.411c-18.41,3.38-36.547,14.618-48.926,28.338c-12.247,13.573-18.853,30.624-21.146,48.601
			c-1.878,14.729-0.717,30.347-0.756,45.18c-0.006,2.299-0.012,4.597-0.018,6.895c-0.016,5.881,9.103,5.879,9.118,0
			c0.079-29.828-3.618-61.877,14.146-87.78c11.185-16.309,30.395-28.492,49.798-32.399c0.069-0.014,0.138-0.027,0.207-0.04
			C259.239,264.143,256.785,255.355,251.037,256.411L251.037,256.411z"/>
	</g>
</g>
<circle fill="#70A3C1" cx="300.233" cy="416.844" r="12.375"/>
<circle fill="#70A3C1" cx="426.384" cy="422.924" r="12.376"/>
<g>
	<g>
		<path fill="#70A3C1" d="M300.409,421.254c5.001,14.265,6.016,30.266,6.088,45.223c0.076,15.888,0.651,32.265,3.912,47.883
			c1.319,6.314,10.963,3.635,9.648-2.66c-6.389-30.596,0.473-63.234-10-93.105C307.937,412.547,298.269,415.148,300.409,421.254
			L300.409,421.254z"/>
	</g>
</g>
<g>
	<g>
		<path fill="#70A3C1" d="M424.824,422.924c3.851,29.98,7.852,59.855,10,90.021c0.415,5.83,9.536,5.871,9.118,0
			c-2.147-30.166-6.148-60.041-10-90.021C433.204,417.175,424.076,417.104,424.824,422.924L424.824,422.924z"/>
	</g>
</g>
<path fill="#70A3C1" d="M284.095,516.557c0,1.95,7.699,3.53,17.197,3.53s17.197-1.58,17.197-3.53c0-1.946-7.699-3.527-17.197-3.527
	S284.095,514.61,284.095,516.557z"/>
<ellipse fill="#70A3C1" cx="452.41" cy="515.225" rx="17.197" ry="2.932"/>
</svg>
