<?xml version="1.0" encoding="utf-8"?>
<!-- Generator: Adobe Illustrator 16.0.0, SVG Export Plug-In . SVG Version: 6.00 Build 0)  -->
<!DOCTYPE svg PUBLIC "-//W3C//DTD SVG 1.1//EN" "http://www.w3.org/Graphics/SVG/1.1/DTD/svg11.dtd">
<svg version="1.1" id="Layer_1" xmlns="http://www.w3.org/2000/svg" xmlns:xlink="http://www.w3.org/1999/xlink" x="0px" y="0px"
	 width="841.89px" height="595.28px" viewBox="0 0 841.89 595.28" enable-background="new 0 0 841.89 595.28" xml:space="preserve">
<g>
	<defs>
		<rect id="SVGID_11_" y="34" width="406" height="539"/>
	</defs>
	<clipPath id="SVGID_2_">
		<use xlink:href="#SVGID_11_"  overflow="visible"/>
	</clipPath>
	<g clip-path="url(#SVGID_2_)">
		<path fill="#70A3C1" d="M54.845,419.097C166.614,377.698,82.775,305.5,82.775,305.5c57.64-38.77,36.107-160.432,36.107-160.432
			c6.579-1.488,12.942-6.204,15.551-9.255c4.376-5.12,7.019-11.767,7.019-19.03c0-16.187-13.122-29.308-29.309-29.308
			c-16.186,0-29.308,13.122-29.308,29.308c0,3.9,0.82,7.609,2.204,11.012c-113.138-25.4-208.275,0-208.275,0
			c1.383-3.403,2.352-7.028,2.352-10.929c0-16.187-13.122-29.308-29.309-29.308c-16.186,0-29.31,13.122-29.31,29.308
			c0,7.264,2.645,13.91,7.021,19.031c4.031,4.717,9.535,8.14,15.798,9.556c0,0-22.183,121.663,35.457,160.434
			c0,0-83.396,82.029,31.883,112.314C-89.344,418.201,22.948,430.912,54.845,419.097z"/>
		<path fill="none" stroke="#5D6733" stroke-width="0.6513" stroke-miterlimit="10" d="M141.452,478.125"/>
		<circle fill="#FFFFFF" cx="33.778" cy="223.218" r="26.705"/>
		<circle cx="45.225" cy="233.316" r="11.447"/>
		<circle fill="#FFFFFF" cx="50.367" cy="226.917" r="1.628"/>
		<g>
			<g>
				<path fill="#558AA5" d="M13.775,193.749c8.02-14.87,35.753-16.102,45.215-1.864c1.387,2.088,4.773,0.133,3.373-1.973
					c-11.021-16.587-42.422-15.828-51.961,1.864C9.205,193.994,12.58,195.967,13.775,193.749L13.775,193.749z"/>
			</g>
		</g>
		<g>
			<g>
				<path fill="#558AA5" d="M-39.648,362.762c1.563-1.961,7.689-6.982,0.469-1.466c2.463-1.882,5.246-3.324,8.045-4.631
					c-8.084,3.776,1.295-0.159,3.604-0.783c1.551-0.419,3.127-0.732,4.701-1.045c2.842-0.475,2.154-0.416-2.063,0.178
					c1.131-0.138,2.264-0.251,3.398-0.34c3.506-0.313,7.033-0.29,10.546-0.15c1.702,0.068,3.396,0.247,5.088,0.428
					c-8.317-0.887-0.881,0.044,0.976,0.462c1.49,0.336,2.953,0.779,4.415,1.225c0.931,0.297,1.854,0.619,2.769,0.965
					c-4.074-1.791-4.881-2.122-2.421-0.995c1.2,0.557,2.345,1.223,3.483,1.892c5.71,3.352-3.529-3.194-0.459-0.488
					c10.748,9.472,26.59,10.612,37.202,0c9.657-9.657,10.763-27.715,0-37.201c-16.376-14.433-38.347-19.874-59.868-18.866
					c-19.862,0.93-44.088,7.296-57.085,23.615c-4.548,5.71-7.704,11-7.704,18.601c0,6.949,2.793,13.69,7.704,18.601
					C-67.57,372.041-48.595,373.997-39.648,362.762L-39.648,362.762z"/>
			</g>
		</g>
		<g>
			<g>
				<path fill="#70A3C1" d="M98.099,271.596c17.078-1.353,43.667,1.748,50.069,20.62c3.033,8.944,0.211,18.911,0.434,28.112
					c0.215,8.913,2.021,17.813,6.053,25.796c3.303,6.539,9.274,13.255,16.48,15.567c5.615,1.801,8-7.004,2.424-8.793
					c-1.275-0.409,0.899,0.465-0.5-0.222c-1.238-0.609-2.8-1.656-3.387-2.129c-4.41-3.562-7.32-8.532-9.174-13.828
					c-3.426-9.789-3.211-20.502-2.154-30.676c0.82-7.907-0.335-15.834-4.282-22.802c-10.286-18.156-36.949-22.269-55.963-20.762
					C92.277,262.939,92.232,272.061,98.099,271.596L98.099,271.596z"/>
			</g>
		</g>
		<circle fill="#70A3C1" cx="184.655" cy="360.936" r="12.243"/>
		<circle fill="#70A3C1" cx="36.383" cy="422.923" r="12.375"/>
		<g>
			<g>
				<path fill="#70A3C1" d="M34.986,424.135c1.807,11.814,3.604,23.631,5.283,35.464c1.963,13.815-0.941,27.989-5.283,41.134
					c-1.85,5.6,6.958,7.98,8.793,2.424c4.549-13.773,7.618-28.933,5.644-43.406c-1.733-12.7-3.706-25.37-5.644-38.039
					C42.893,415.914,34.107,418.385,34.986,424.135L34.986,424.135z"/>
			</g>
		</g>
		<ellipse fill="#70A3C1" cx="52.41" cy="504.224" rx="17.197" ry="2.932"/>
	</g>
</g>
</svg>
