<?xml version="1.0" encoding="utf-8"?>
<!-- Generator: Adobe Illustrator 16.0.0, SVG Export Plug-In . SVG Version: 6.00 Build 0)  -->
<!DOCTYPE svg PUBLIC "-//W3C//DTD SVG 1.1//EN" "http://www.w3.org/Graphics/SVG/1.1/DTD/svg11.dtd">
<svg version="1.1" id="Layer_1" xmlns="http://www.w3.org/2000/svg" xmlns:xlink="http://www.w3.org/1999/xlink" x="0px" y="0px"
	 width="841.89px" height="595.28px" viewBox="0 0 841.89 595.28" enable-background="new 0 0 841.89 595.28" xml:space="preserve">
<g>
	<defs>
		<rect id="SVGID_19_" y="34" width="406" height="539"/>
	</defs>
	<clipPath id="SVGID_2_">
		<use xlink:href="#SVGID_19_"  overflow="visible"/>
	</clipPath>
	<g clip-path="url(#SVGID_2_)">
		<path fill="#70A3C1" d="M114.846,419.097c111.77-41.399,27.93-113.598,27.93-113.598c57.641-38.77,36.107-160.432,36.107-160.432
			c6.58-1.488,12.943-6.204,15.551-9.255c4.377-5.12,7.02-11.767,7.02-19.03c0-16.187-13.123-29.308-29.309-29.308
			s-29.309,13.122-29.309,29.308c0,3.9,0.82,7.609,2.205,11.012c-113.137-25.4-208.276,0-208.276,0
			c1.383-3.403,2.352-7.028,2.352-10.929c0-16.187-13.122-29.308-29.309-29.308c-16.186,0-29.309,13.122-29.309,29.308
			c0,7.264,2.644,13.91,7.02,19.031c4.031,4.717,9.534,8.14,15.798,9.556c0,0-22.184,121.663,35.456,160.434
			c0,0-83.396,82.029,31.883,112.314C-29.343,418.201,82.949,430.912,114.846,419.097z"/>
		<path fill="none" stroke="#5D6733" stroke-width="0.6513" stroke-miterlimit="10" d="M201.453,478.125"/>
		<circle fill="#FFFFFF" cx="-18.043" cy="223.218" r="26.705"/>
		<circle fill="#FFFFFF" cx="93.778" cy="223.218" r="26.704"/>
		<circle cx="94.226" cy="240.316" r="11.446"/>
		<circle fill="#FFFFFF" cx="99.367" cy="233.917" r="1.629"/>
		<g>
			<g>
				<path fill="#558AA5" d="M73.777,193.749c8.018-14.871,35.752-16.101,45.213-1.864c1.388,2.088,4.773,0.133,3.375-1.973
					c-11.022-16.586-42.424-15.829-51.963,1.864C69.207,193.994,72.581,195.967,73.777,193.749L73.777,193.749z"/>
			</g>
		</g>
		<g>
			<g>
				<path fill="#558AA5" d="M-41.106,191.924c8.019-14.87,35.753-16.101,45.214-1.864c1.387,2.088,4.773,0.133,3.374-1.973
					C-3.541,171.5-34.94,172.259-44.48,189.951C-45.677,192.169-42.303,194.143-41.106,191.924L-41.106,191.924z"/>
			</g>
		</g>
		<g>
			<g>
				<path fill="#558AA5" d="M20.354,362.762c1.562-1.961,7.688-6.983,0.467-1.466c2.464-1.882,5.247-3.323,8.045-4.631
					c-8.083,3.776,1.295-0.159,3.604-0.783c1.55-0.419,3.127-0.731,4.7-1.045c2.842-0.475,2.154-0.416-2.063,0.178
					c1.131-0.138,2.264-0.251,3.399-0.34c3.506-0.313,7.032-0.291,10.546-0.15c1.701,0.068,3.396,0.247,5.088,0.428
					c-8.318-0.887-0.881,0.044,0.975,0.462c1.491,0.336,2.955,0.779,4.415,1.225c0.932,0.297,1.854,0.619,2.769,0.965
					c-4.073-1.791-4.881-2.122-2.421-0.995c1.2,0.557,2.345,1.223,3.483,1.892c5.71,3.352-3.529-3.194-0.458-0.488
					c10.747,9.472,26.59,10.612,37.201,0c9.657-9.657,10.763-27.715,0-37.201c-16.375-14.433-38.347-19.874-59.868-18.866
					c-19.861,0.93-44.088,7.295-57.084,23.615c-4.548,5.71-7.705,11-7.705,18.601c0,6.949,2.793,13.69,7.705,18.601
					C-7.57,372.041,11.406,373.997,20.354,362.762L20.354,362.762z"/>
			</g>
		</g>
		<path fill="#FFFFFF" d="M4.309,311.384c0,0,8.105,11.074,14.166,8.033c2.756-1.381,3.664-5.428,5.699-15.198
			c0,0-12.158,2.606-19.865,6.296l-0.488,0.164L4.309,311.384z"/>
		<g>
			<g>
				<path fill="#70A3C1" d="M158.1,271.597c17.078-1.354,43.667,1.748,50.069,20.619c3.034,8.944,0.21,18.911,0.433,28.112
					c0.216,8.913,2.022,17.813,6.055,25.796c3.302,6.539,9.273,13.255,16.479,15.567c5.615,1.801,8-7.004,2.424-8.793
					c-1.275-0.409,0.899,0.465-0.499-0.222c-1.24-0.609-2.801-1.656-3.387-2.129c-4.411-3.562-7.321-8.532-9.175-13.828
					c-3.427-9.789-3.211-20.502-2.154-30.676c0.82-7.907-0.335-15.834-4.282-22.802c-10.287-18.156-36.949-22.269-55.963-20.763
					C152.278,262.939,152.233,272.061,158.1,271.597L158.1,271.597z"/>
			</g>
		</g>
		<circle fill="#70A3C1" cx="244.655" cy="360.936" r="12.243"/>
		<circle fill="#70A3C1" cx="96.384" cy="422.923" r="12.376"/>
		<g>
			<g>
				<path fill="#70A3C1" d="M94.986,424.135c1.808,11.814,3.604,23.631,5.285,35.464c1.961,13.815-0.943,27.989-5.285,41.134
					c-1.85,5.6,6.957,7.98,8.793,2.424c4.55-13.773,7.619-28.933,5.645-43.406c-1.733-12.7-3.706-25.37-5.645-38.039
					C102.893,415.914,94.106,418.385,94.986,424.135L94.986,424.135z"/>
			</g>
		</g>
		<ellipse fill="#70A3C1" cx="112.41" cy="504.224" rx="17.197" ry="2.932"/>
	</g>
</g>
<g>
	<defs>
		<rect id="SVGID_21_" x="861.89" y="34" width="406" height="539"/>
	</defs>
	<clipPath id="SVGID_4_">
		<use xlink:href="#SVGID_21_"  overflow="visible"/>
	</clipPath>
	<g clip-path="url(#SVGID_4_)">
		<path fill="#70A3C1" d="M1036.735,419.097c111.77-41.399,27.93-113.598,27.93-113.598c57.641-38.77,36.107-160.432,36.107-160.432
			c6.58-1.488,12.943-6.204,15.551-9.255c4.377-5.12,7.02-11.767,7.02-19.03c0-16.187-13.123-29.308-29.309-29.308
			s-29.309,13.122-29.309,29.308c0,3.9,0.82,7.609,2.205,11.012c-113.137-25.4-208.276,0-208.276,0
			c1.383-3.403,2.352-7.028,2.352-10.929c0-16.187-13.121-29.308-29.309-29.308c-16.186,0-29.309,13.122-29.309,29.308
			c0,7.264,2.645,13.91,7.02,19.031c4.031,4.717,9.535,8.14,15.799,9.556c0,0-22.184,121.663,35.457,160.434
			c0,0-83.396,82.029,31.883,112.314C892.547,418.201,1004.839,430.912,1036.735,419.097z"/>
		<path fill="#70A3C1" d="M763.398,392.225c0-6.762,5.48-12.242,12.242-12.242s12.242,5.48,12.242,12.242
			s-5.48,12.242-12.242,12.242S763.398,398.987,763.398,392.225"/>
		<g>
			<g>
				<path fill="#70A3C1" d="M842.927,256.411c-18.409,3.38-36.547,14.618-48.926,28.338c-12.247,13.574-18.853,30.624-21.146,48.6
					c-1.879,14.729-0.717,30.347-0.756,45.181c-0.006,2.298-0.012,4.596-0.019,6.894c-0.015,5.881,9.104,5.879,9.119,0
					c0.078-29.828-3.618-61.876,14.146-87.78c11.185-16.308,30.395-28.492,49.799-32.399c0.068-0.014,0.137-0.027,0.206-0.04
					C851.129,264.143,848.674,255.356,842.927,256.411L842.927,256.411z"/>
			</g>
		</g>
	</g>
</g>
</svg>
