<?xml version="1.0" encoding="utf-8"?>
<!-- Generator: Adobe Illustrator 16.0.0, SVG Export Plug-In . SVG Version: 6.00 Build 0)  -->
<!DOCTYPE svg PUBLIC "-//W3C//DTD SVG 1.1//EN" "http://www.w3.org/Graphics/SVG/1.1/DTD/svg11.dtd">
<svg version="1.1" id="Layer_1" xmlns="http://www.w3.org/2000/svg" xmlns:xlink="http://www.w3.org/1999/xlink" x="0px" y="0px"
	 width="960px" height="560px" viewBox="0 0 960 560" enable-background="new 0 0 960 560" xml:space="preserve">
<path fill="#8FB25E" d="M405.513,352.13l-6.953,10.063h-15.995l-30.264-202.737l-5.203-34.864l13.908-10.835h221.148l13.91,10.835
	l-5.156,34.541l-30.313,203.06h-15.994l-6.955-10.063C537.646,352.13,472.276,316.53,405.513,352.13z"/>
<path fill="#5D6633" d="M461.115,190.7c0,0-6.389,29.283-10.328,32.845c-3.12,2.818-43.663,0.031-49.349-1.869"/>
<g>
	<path fill="#BED685" d="M359.357,179.145c0,0,0.428-0.193,1.23-0.494c0.803-0.28,1.979-0.763,3.477-1.233
		c1.498-0.495,3.316-1.033,5.403-1.594c2.086-0.558,4.439-1.116,7.007-1.66c2.568-0.53,5.35-1.037,8.291-1.49
		c2.941-0.438,6.045-0.845,9.254-1.151c1.604-0.188,3.236-0.29,4.888-0.415c0.825-0.062,1.657-0.124,2.491-0.186
		c0.835-0.038,1.674-0.076,2.517-0.113c3.37-0.193,6.794-0.208,10.217-0.255c3.423,0.048,6.847,0.075,10.217,0.268
		c1.685,0.057,3.356,0.174,5.008,0.305c1.651,0.119,3.283,0.235,4.888,0.419c3.209,0.305,6.313,0.715,9.254,1.154
		c2.941,0.45,5.723,0.958,8.291,1.487c5.135,1.066,9.414,2.264,12.41,3.239c1.497,0.467,2.674,0.948,3.477,1.226
		c0.803,0.299,1.23,0.491,1.23,0.491v1.011c0,0-1.713,0.031-4.707,0.084c-2.996,0.038-7.275,0.167-12.41,0.187
		c-10.271,0.063-23.964,0.148-37.657,0.233c-13.693-0.084-27.387-0.169-37.657-0.232c-5.135-0.019-9.414-0.15-12.41-0.188
		c-2.994-0.054-4.707-0.085-4.707-0.085V179.145z"/>
</g>
<g>
	<path fill="#BED685" d="M477.002,179.095c0,0,0.428-0.193,1.23-0.494c0.802-0.28,1.979-0.763,3.477-1.233
		c1.498-0.495,3.316-1.033,5.402-1.594c2.086-0.558,4.439-1.116,7.007-1.66c2.567-0.53,5.349-1.037,8.291-1.49
		c2.942-0.438,6.044-0.845,9.254-1.151c1.604-0.188,3.236-0.29,4.888-0.415c0.826-0.062,1.656-0.124,2.491-0.186
		c0.835-0.038,1.675-0.076,2.517-0.113c3.37-0.193,6.793-0.208,10.217-0.255c3.424,0.048,6.847,0.075,10.217,0.268
		c1.685,0.057,3.356,0.174,5.008,0.305c1.651,0.119,3.283,0.235,4.888,0.419c3.21,0.305,6.312,0.715,9.254,1.154
		c2.942,0.45,5.724,0.958,8.291,1.487c5.135,1.066,9.414,2.264,12.409,3.239c1.498,0.467,2.675,0.948,3.477,1.226
		c0.803,0.299,1.23,0.491,1.23,0.491v1.011c0,0-1.711,0.031-4.707,0.084c-2.995,0.038-7.274,0.167-12.409,0.187
		c-10.271,0.063-23.964,0.148-37.657,0.233c-13.693-0.084-27.387-0.169-37.657-0.232c-5.135-0.019-9.414-0.15-12.409-0.188
		c-2.996-0.054-4.707-0.085-4.707-0.085V179.095z"/>
</g>
<path fill="#FFFFFF" d="M444.84,220.769c-3.119,2.818-43.662,1.9-49.348,0c-5.686-1.9-24.803-30.069-24.803-30.069h90.426
	C461.115,190.7,448.78,217.208,444.84,220.769z"/>
<path fill="#5D6633" d="M555.977,223.2c-3.118,2.818-42.076,5.04-47.762,3.139c-5.686-1.9-22.927-34.201-22.927-34.201"/>
<path fill="#1D1D1B" d="M437.637,190.7c0,8.78-9.162,15.897-20.459,15.897c-11.301,0-20.459-7.117-20.459-15.897"/>
<path fill="#FFFFFF" d="M427.668,203.505c0.098,0.47-1.121,1.261-2.725,1.767c-1.604,0.507-2.985,0.537-3.084,0.067
	c-0.1-0.469,1.119-1.26,2.725-1.768C426.188,203.065,427.568,203.035,427.668,203.505z"/>
<path fill="#FFFFFF" d="M559.438,222.207c-3.117,2.819-43.661,1.901-49.348,0c-5.684-1.9-24.802-30.069-24.802-30.069h90.427
	C575.715,192.138,563.379,218.646,559.438,222.207z"/>
<path fill="#1D1D1B" d="M511.316,192.138c0,8.78,9.16,15.896,20.459,15.896c11.3,0,20.46-7.116,20.46-15.896"/>
<path fill="#FFFFFF" d="M521.285,204.942c-0.099,0.47,1.121,1.26,2.727,1.768c1.604,0.507,2.982,0.536,3.083,0.067
	c0.099-0.469-1.122-1.26-2.727-1.767C522.765,204.503,521.385,204.473,521.285,204.942z"/>
<path fill="#FFFFFF" d="M405.486,277.038l127.379-15.755c0,0,2.221,37.15-22.219,37.614
	c-24.438,0.462-102.198-12.331-102.198-12.331L405.486,277.038z"/>
<path fill="#5D6633" d="M532.369,272.336l-11.717,0.896l-3.518,7.96l-5.555-7.035l-104.158,9.106l1.026,3.302
	c0,0,77.761,12.792,102.198,12.331c15.615-0.297,20.347-15.57,21.728-26.56H532.369z"/>
<path fill="#71882E" d="M591.096,158.595l-13.795-17.102l-0.607-19.426c0,0-26.76,8.062-37.332,8.326
	c-10.574,0.264-30.66,4.757-30.66,4.757l-46,13.234c0,0-35.451-10.724-35.014-10.591c0.438,0.132-23.98-2.157-29.383-2.643
	s-29.39-13.02-27.615-13.281c1.775-0.262-7.744,18.666-9.746,20.682s-8.43,16.424-8.43,16.424l-0.213,0.482
	c0,0-6.939-30.554-5.203-34.864c1.734-4.31,6.953-7.746,13.908-10.835s213.725-2.362,221.148,0s12.566,7.414,13.91,10.835
	s-5.156,34.541-5.156,34.541L591.096,158.595z"/>
<path fill="#BED685" d="M369.156,138.932"/>
<path fill="#8FB25E" d="M555.977,243.568h73.781l63.165-82.027c0,0-5.081-8.699-4.269-12.225s26.521,4.49,27.643,6.431
	c1.122,1.941-15.447,9.757-15.447,9.757l-61.133,94.12l-83.74,13.822"/>
<path fill="#8FB25E" d="M406.236,266.279h-73.781l-63.166,82.027c0,0,5.082,8.699,4.268,12.225
	c-0.811,3.526-26.52-4.491-27.642-6.432c-1.122-1.942,15.448-9.756,15.448-9.756l61.131-94.12l83.742-13.822"/>
<path fill="#8FB25E" d="M544.58,361.069l12.461,55.758l18.441,39.81h35.889c0,0,4.486-3.109,0-4.665
	c-4.486-1.555-28.556-5.802-28.556-5.802l-14.892-36.786l-7.328-47.984"/>
<path fill="#8FB25E" d="M399.584,358.163l-12.461,55.758l-18.441,39.81h-35.889c0,0-4.486-3.11,0-4.666
	c4.486-1.555,28.556-5.802,28.556-5.802l14.892-36.786l7.328-47.984"/>
</svg>
