<?xml version="1.0" encoding="utf-8"?>
<!-- Generator: Adobe Illustrator 16.0.0, SVG Export Plug-In . SVG Version: 6.00 Build 0)  -->
<!DOCTYPE svg PUBLIC "-//W3C//DTD SVG 1.1//EN" "http://www.w3.org/Graphics/SVG/1.1/DTD/svg11.dtd">
<svg version="1.1" id="Layer_1" xmlns="http://www.w3.org/2000/svg" xmlns:xlink="http://www.w3.org/1999/xlink" x="0px" y="0px"
	 width="960px" height="560px" viewBox="0 0 960 560" enable-background="new 0 0 960 560" xml:space="preserve">
<path fill="#8FB25E" d="M405.513,352.13l-6.953,10.063h-15.995l-30.264-202.737l-5.203-34.864l13.908-10.835h221.148l13.91,10.835
	l-4.229,35.467l-30.313,203.06l-16.92-0.926l-6.955-10.063C537.646,352.13,472.276,316.53,405.513,352.13z"/>
<path fill="#5D6633" d="M461.115,190.7c0,0-19.842,3.368-23.782,6.93c-3.12,2.818-63.866-0.448-66.644-6.93"/>
<g>
	<path fill="#BED685" d="M374.363,182.31c0,0,0.28-0.197,0.805-0.504c0.525-0.287,1.295-0.779,2.277-1.262
		c0.98-0.507,2.173-1.061,3.541-1.639c1.368-0.576,2.912-1.154,4.599-1.719c1.686-0.552,3.513-1.082,5.446-1.56
		c1.935-0.462,3.975-0.896,6.086-1.229c1.056-0.201,2.13-0.317,3.218-0.457c0.543-0.068,1.09-0.137,1.64-0.207
		c0.55-0.045,1.103-0.09,1.658-0.135c2.219-0.221,4.476-0.265,6.732-0.341c2.257,0.02,4.515,0.018,6.738,0.181
		c1.112,0.042,2.216,0.146,3.306,0.263c1.091,0.104,2.168,0.207,3.228,0.378c2.12,0.278,4.171,0.662,6.116,1.076
		c1.945,0.425,3.785,0.909,5.485,1.417c3.398,1.022,6.235,2.185,8.223,3.134c0.993,0.455,1.775,0.926,2.308,1.196
		c0.533,0.292,0.817,0.48,0.817,0.481l0.014,1.011c0,0-1.129,0.045-3.103,0.125c-1.975,0.068-4.794,0.216-8.179,0.304
		c-3.385,0.085-7.334,0.229-11.565,0.303c-4.231,0.076-8.745,0.156-13.259,0.237c-4.514,0.036-9.028,0.071-13.26,0.104
		c-4.232,0.038-8.184-0.008-11.569-0.006c-3.386,0-6.209-0.077-8.185-0.094c-1.975-0.029-3.104-0.045-3.104-0.045L374.363,182.31z"
		/>
</g>
<g>
	<path fill="#BED685" d="M497,182.532c0,0,0.242-0.193,0.696-0.494c0.455-0.28,1.121-0.763,1.97-1.233
		c0.848-0.495,1.878-1.033,3.059-1.594c1.182-0.558,2.515-1.116,3.969-1.66c1.454-0.53,3.029-1.037,4.695-1.49
		c1.666-0.438,3.423-0.845,5.24-1.151c0.909-0.188,1.833-0.29,2.768-0.415c0.468-0.062,0.938-0.124,1.411-0.186
		c0.473-0.038,0.948-0.076,1.425-0.113c1.909-0.193,3.848-0.208,5.786-0.255c1.938,0.048,3.877,0.075,5.786,0.268
		c0.954,0.057,1.9,0.174,2.836,0.305c0.935,0.119,1.858,0.235,2.768,0.419c1.817,0.305,3.574,0.715,5.24,1.154
		c1.666,0.45,3.241,0.958,4.695,1.487c2.908,1.066,5.331,2.264,7.027,3.239c0.849,0.467,1.515,0.948,1.97,1.226
		c0.454,0.299,0.696,0.491,0.696,0.491v1.011c0,0-0.97,0.031-2.666,0.084c-1.696,0.043-4.119,0.154-7.027,0.199
		c-2.908,0.042-6.301,0.135-9.936,0.154c-3.635,0.021-7.513,0.044-11.39,0.067c-3.877-0.022-7.755-0.045-11.39-0.066
		c-3.635-0.017-7.027-0.113-9.936-0.154c-2.908-0.043-5.331-0.156-7.027-0.2c-1.696-0.054-2.666-0.085-2.666-0.085V182.532z"/>
</g>
<path fill="#5D6633" d="M572.519,193.926c-3.118,2.818-44.314,9.309-50,7.408c-5.685-1.9-37.23-9.196-37.23-9.196"/>
<path fill="#FFFFFF" d="M405.486,277.038l127.379-15.755c0,0,2.221,37.15-22.219,37.614
	c-24.438,0.462-102.198-12.331-102.198-12.331L405.486,277.038z"/>
<path fill="#5D6633" d="M532.369,272.336l-11.717,0.896l-3.518,7.96l-5.555-7.035l-104.158,9.106l1.026,3.302
	c0,0,77.761,12.792,102.198,12.331c15.615-0.297,20.347-15.57,21.728-26.56H532.369z"/>
<path fill="#71882E" d="M591.096,158.595l-13.795-17.102l-0.607-19.426c0,0-26.76,8.062-37.332,8.326
	c-10.574,0.264-30.66,4.757-30.66,4.757l-46,13.234c0,0-35.451-10.724-35.014-10.591c0.438,0.132-23.98-2.157-29.383-2.643
	s-29.39-13.02-27.615-13.281c1.775-0.262-7.744,18.666-9.746,20.682s-8.43,16.424-8.43,16.424l-0.213,0.482
	c0,0-6.939-30.554-5.203-34.864c1.734-4.31,6.953-7.746,13.908-10.835s213.725-2.362,221.148,0s12.566,7.414,13.91,10.835
	s-5.156,34.541-5.156,34.541L591.096,158.595z"/>
<path fill="#BED685" d="M369.156,138.932"/>
<path fill="#8FB25E" d="M558.63,249.481l61.11-35.185l-12.037-55.556c0,0-16.553-5.733-15.74-9.259s18.519-16.667,18.519-16.667
	c1.122,1.941,7.407,20.37,7.407,20.37l30.556,75l-86.111,48.148"/>
<path fill="#8FB25E" d="M406.236,266.279h-73.781l-84.011,14.684c0,0,5.081,8.699,4.269,12.225
	c-0.812,3.526-26.521-4.491-27.643-6.432c-1.122-1.942,14.814-14.814,14.814-14.814l82.609-21.718l83.742-13.822"/>
<path fill="#8FB25E" d="M544.58,361.069l12.461,55.758l18.441,39.81h35.889c0,0,4.486-3.109,0-4.665
	c-4.486-1.555-28.556-5.802-28.556-5.802l-14.892-36.786l-7.328-47.984"/>
<path fill="#8FB25E" d="M399.584,358.163l-12.461,55.758l-18.441,39.81h-35.889c0,0-4.486-3.11,0-4.666
	c4.486-1.555,28.556-5.802,28.556-5.802l14.892-36.786l7.328-47.984"/>
</svg>
